<?xml version="1.0" standalone="no"?>
<!DOCTYPE svg PUBLIC "-//W3C//DTD SVG 1.1//EN" "http://www.w3.org/Graphics/SVG/1.1/DTD/svg11.dtd" >
<svg xmlns="http://www.w3.org/2000/svg" xmlns:xlink="http://www.w3.org/1999/xlink" version="1.1">
<metadata></metadata>
<defs>
<font id="bambinoregular" horiz-adv-x="944" >
<font-face units-per-em="2048" ascent="1638" descent="-410" />
<missing-glyph horiz-adv-x="391" />
<glyph horiz-adv-x="0" />
<glyph unicode="&#xd;" horiz-adv-x="391" />
<glyph unicode=" "  horiz-adv-x="391" />
<glyph unicode="&#x09;" horiz-adv-x="391" />
<glyph unicode="&#xa0;" horiz-adv-x="391" />
<glyph unicode="!" horiz-adv-x="548" d="M190 1219v6l3 20l12 37l8 51l14 43l21 -4l22 -14l13 -15l18 -8l4 -4l6 -4l54 -43l8 -18v-19l8 -2l-23 -71v-35l-10 -64v-6l-4 -14l6 -27l-16 -61l2 -25l-6 -22l6 -29l-8 -82l-11 -18l2 -17l5 -16v-21l-2 -32l-3 -9v-8l3 -4l-5 -70l7 -34l-2 -64l-5 -24l-2 -11l2 -6l7 -12 l-2 -27v-4l2 -14v-45l2 -13l-2 -8l8 -30l-2 -33l-35 6l-31 14l-26 6l-9 9l-2 24l9 25l-7 12l2 47l9 55l4 119l4 21l-4 88l2 16v10l-6 68l4 8v35l-4 2l4 12l-2 4l-2 7v24l-4 17v2l2 12l-9 22v54l-6 2v34l-6 64l-6 18l-4 43l-12 33l-2 10zM203 102l6 29l6 14l12 9l13 4h36 l37 -4l23 -23l-2 -18l10 -21l8 -33l4 -8l-4 -16l-10 -21l-29 -18h-4l-12 -2l-4 2l-10 4l-37 12l-8 4l-11 2l-2 7l-4 2l-12 20l-4 23z" />
<glyph unicode="&#x22;" horiz-adv-x="520" d="M170 1153v39l10 12l6 15h4l41 63l5 -2v2l2 2l4 -2l6 -6l20 -19l43 -61l-22 -111l-10 -8l2 -16l-11 -68l-22 -86l-29 -2l-8 21zM365 1153v39l12 12l6 15h4l41 63l4 -2v2l2 2l4 -2l25 -25l45 -61l-23 -111l-10 -8l2 -16l-12 -68l-21 -86l-28 -2l-8 21z" />
<glyph unicode="$" horiz-adv-x="985" d="M-12 287v2l4 20l2 8l2 5h4l8 -5l4 -6l6 -14l5 -2l2 -2l12 -6h6l12 -31l17 -12l10 -6l4 -2l6 -11l12 -18l9 -8l8 -2l33 -25l32 -16l4 -11l15 -10l4 2h4l12 4l15 -4l14 -6l39 -8l8 -4l10 -2l15 -4l34 -2l17 -11l16 6v-10l10 10l3 82l2 15l-2 2v149l-5 43l5 82v150l-48 8h-4 l-10 4l-4 -6l-82 8l-14 4h-27l-6 2l-4 2l-2 2l-78 29l-14 20l-7 23l-6 6l-4 10l-2 7v34l4 21l33 43l4 12l2 2l58 80l18 21l4 2h2l33 36l2 5l8 8l14 8l7 8l57 59l82 60l2 37l-4 10l4 10l4 142l-8 26l18 -2l4 -2l2 -4l7 -2l8 -12l8 -9l8 -12l4 -8l10 -16l5 -13l-9 -10l2 -12 l2 -23v-10l-4 -12l2 -6v-9l-4 -4v-10l17 16l26 13l6 12h11l61 31l27 6h39l14 -10l12 4l35 -31v-6l4 -4l6 -8l2 -13v-8l2 -27l3 -14l4 -4l2 -6l-2 -19l-9 -6l-4 -4l-4 -2l-22 31l-19 6l-14 6l-2 4l-4 4l-8 13l-15 2l-12 -11h-27l-14 -4h-10l-31 2l-6 2h-8l-4 -2l-7 -8l-16 -4 l-12 -8l-4 -4l-19 -15l-4 -75l4 -23l-8 -45l-4 -14v-4l8 -8l2 -15l-2 -26v-13l-4 -10l4 -2l-2 -25l-2 -6l-4 -2l6 -16v-4l4 -11l-10 -32v-43l6 -25l17 2l12 -4h6l14 -6l29 -14l16 2l4 -2h2l64 -13l6 -8l2 -6v-8l15 -4l8 8l18 -2l29 -14l4 2l33 -17l6 -2l12 -10l19 -8l40 -35 h3l8 -10l10 -13l8 -12l2 -2l4 -8h6v-6h5l36 -66l11 -14v-2l4 -8l6 -15l2 -4l-2 -2l4 -2l2 -6l2 -53l-29 -95l-18 -34l-39 -47l-41 -43l-8 -7l-6 -4l-43 -24l-10 -11l-56 -24l-12 -8l-16 -2l-21 -2l-10 -5l-10 -6l-25 -12l-6 -4l-6 -8l-66 -10l-31 -9h-18l-4 -96l-6 -49 l-10 -2l-2 -2l-23 14h-4v4l-19 6l-8 17l-2 2l-2 6l8 96h-102l-35 19l-16 -2l-35 12l-4 2h-10l-27 14l-12 4h-2l-11 -2l-34 27l-25 12l-10 8l-31 21l-8 4l-10 6l-4 6l-5 9l23 14l2 31l-2 20l-6 12v4l-39 33l-4 12zM180 829l13 -18l18 -10l6 -4l10 -6l6 -5l9 -4l53 -12l8 -4 l2 -4l2 -6l17 -4l18 4l66 -19l6 76l-2 10v25l4 8l2 8l2 6l-8 19l8 190h-14l-13 -14l-16 -8l-6 -8l-23 -13l-12 -14l-2 -6l-12 -6l-17 -17l-14 -16l-8 -6l-2 -2h-5l-6 -8l-4 -7l-37 -39l-2 -4l-6 -8l-6 -2l-4 -8l-29 -41zM465 477l6 -16l-4 -2l2 -6l-2 -4v-115l2 -4v-6l-2 -5 l2 -6l4 -32l-2 -136l2 -2l-2 -4v-33l2 -2h16l21 7l65 6h9l10 4l18 6l9 2h6l12 8l37 6l69 29l9 8l14 6l10 7l15 12l26 33l6 18l4 59l-18 62l-12 14l-19 37l-6 4l-16 29l-25 10l-14 4l-2 2l-58 62l-51 24l-6 6l-47 11l-18 10l-11 4l-6 4l-33 4l-20 8l2 -18v-21l2 -39z" />
<glyph unicode="%" horiz-adv-x="1155" d="M70 520v35l4 43l22 59l51 70l246 184l29 -14l22 -2l203 51l123 45l113 49l51 31l63 47l62 78l16 53l113 72v-64l-19 -55l-49 -90l-4 -4l-57 -96l-33 -33l-33 -51l-331 -412l-146 -201l-12 -12l-64 -90l-10 -23l-57 -75l-84 -150l-35 -84v-18l-72 -37l-32 -4l-7 12l45 121 l131 190l56 64l90 125l299 391l188 270l31 54l-78 -58l-26 -12l-43 -31l-11 -4l-20 -14l-115 -58l-69 -24l-29 -25l-2 -14l28 -35l19 -53l-6 -76l-35 -72l-35 -47l-57 -53l-98 -67l-130 -25l-88 16l-43 23l-26 22l-27 31zM170 592l6 -27l27 -35l51 -41l49 -24l74 6l53 8 l47 17l31 14l22 27l11 34l-2 52l10 16l-39 76l-68 59l-24 8l-82 9l-37 -15l-20 2l-31 -10l-47 -55l-17 6l15 -10l-13 -19l-8 -28zM578 209l16 63l12 25l47 74l17 12l45 51l45 39l53 29l72 8l45 -2l78 -33l49 -37l8 -32h6l6 -52v-55l-12 -53l-18 -43l-43 -62l-29 -22l-35 -19 l-18 -24l-84 -43l-35 -15l-45 -6l-92 19l-31 22l-35 37l-16 35zM659 248l11 -66l30 -45l56 -39l61 -6l60 10l51 15l24 12l35 51l6 60l-8 67l-16 29l-43 41l-64 26l-65 21l-41 -12l-41 -27l-39 -49z" />
<glyph unicode="&#x26;" horiz-adv-x="1345" d="M27 139l8 51l24 46l11 38l14 21l22 49l17 23l29 30l38 60l37 30l19 29l78 68l26 28l35 33l-20 29l-29 55l-2 14l-6 27l-21 37l-8 51l4 4l-8 27l4 12l-2 47l20 51l29 48l107 108l67 51l43 15l6 -2l2 -7l25 11l43 4l78 -10l51 -25l33 -37l20 -37l4 -20l4 -15v-41l-18 -49 l-25 -49l-8 -4l-6 -6l-10 -12l-6 -11l-39 -41l-12 -8l-13 -10l-53 -59l-29 -21l-10 -8l-14 -16l-23 -7l-4 -2l-2 -6v-6l-43 -33l27 -47l22 -22l23 -39l16 -19l2 -6l21 -12l71 -84l29 -21l14 -20l35 -25l47 33l21 21l20 10l78 53l16 8l7 6l49 19l18 4h10l39 10l31 -2l70 -24 l37 -25l32 -35l23 -16v-4l4 -2l12 -13l62 -98l4 -25l2 -14l-10 -8l-13 4v4l-18 17l-19 -5l-55 23l-6 -2v-6l-25 2l-4 6l-6 -2h-2l-6 2l-14 12l-41 43l-7 19l-10 6l-24 8l-13 16l-8 -2l-53 19l-27 4l-32 -6l-27 -6h-6l-15 -7l-2 -2l-10 -12l-14 -8l-10 -10l-35 -15l-31 -30 l33 -33l14 -17l4 -6l107 -90l30 -39l11 -4v-2l45 -41l69 -51l4 -12l13 -8l8 -25l-6 -6l2 -4l4 -4l-2 -9l68 -71v-29l-11 2l-4 -8l-22 18h-4v4l-9 5l-26 12l-27 14h-14l-43 49l-27 17l-14 4l-17 24l-59 47h-4l-10 17l-27 14l-31 33l-32 20l-39 48l-56 36l-24 23l-17 -10 l-4 -6l-49 -31l-22 -17l-13 -6l-20 -22l-8 -6l-152 -95l-24 -18l-2 -4l-48 -29l-26 -6l-25 -20l-49 -19l-8 -4l-14 -2l-19 -6l-4 -2l-8 2l-12 4l-54 2l-37 12l-22 13l-31 34l-16 37zM150 199l10 -27l14 -14l39 -23l27 -6l77 8l48 15l12 2l10 4l19 10l61 18l37 17l18 12 l17 12l28 15l19 16l24 18l68 54l-25 30l-32 19v6l-9 -2l-34 41l-48 43l-16 16l-80 99l-26 -4l-39 -25l-9 -16l-20 -11l-2 -4l-6 -4l-4 -12l-54 -45l-10 -12l-6 -7l-4 -10l-6 -8l-21 -31l-2 -6l-20 -10v-4l-25 -51l-12 -9l-12 -26l-6 -25v-63zM401 961l2 -52l11 -18l6 -19 l8 -8v-33l18 -8l3 -4l4 -12l4 -14l8 -19l18 -35l41 29l51 57l43 33l68 82l12 45v37l-8 22l-22 27l-11 21l-10 6l-55 18l-31 -4l-98 -33l-10 -8l-7 -8l-8 -10l-20 -21l-12 -26v-39z" />
<glyph unicode="'" horiz-adv-x="331" d="M170 1153v39l10 12l6 15h4l41 63l5 -2v2l2 2l4 -2l6 -6l20 -19l43 -61l-22 -111l-10 -8l2 -16l-11 -68l-22 -86l-29 -2l-8 21z" />
<glyph unicode="(" horiz-adv-x="751" d="M291 760l8 26l4 43l21 80l43 123l32 72l7 10l8 14l12 21l8 8l55 82l3 6l2 2l79 88l11 15h4l4 12l16 12l80 -2l12 8l13 -2l26 -6l-8 -29l-45 -55l-8 -2l-10 -10l-9 -16l-20 -13l-10 -16l-25 -27l-12 -10l-37 -64l-2 -2l-8 -10l-6 -12l-19 -29l-16 -41l-4 -14l-8 -8 l-21 -51l-2 -9l-8 -24l-8 -23l-4 -12v-6l-9 -27l-16 -80l-6 -14l2 -14l-8 -33v-172l12 -100l10 -50l2 -4l8 -20l5 -8l36 -125l2 -2l13 -19l59 -115l14 -14l2 -4l7 -6l6 -16l39 -54l10 -12l6 -10l8 -17l2 -6l11 -16l2 -17l-9 -6l-12 4l-18 2l-4 7l-13 4l-16 20l-12 6l-9 9 l-8 16l-6 10l-8 4l-27 17l-41 51l-26 53l-31 27l-4 18l-23 29l-24 47l-6 16l-2 8l-11 17l-18 65l-10 21l2 31l-6 16l-2 10l-3 4l-26 138z" />
<glyph unicode=")" horiz-adv-x="749" d="M55 -53l4 8l7 6l22 37l21 22l98 134l31 51l73 186v8l15 35l26 98v25l8 23l2 36l5 17v155l-5 54l-22 84l-12 32v3l-2 10l-17 33l-4 4l-2 8l-27 55l-32 39l-2 8l-2 2l-19 43l-71 80l-11 23l-18 6l-6 6l-19 27h-4l-12 30l-25 25l4 12l2 4l9 4l6 -2l12 -6l66 -45l6 -2v-2 l33 -27l12 -12l2 -4l22 -12l21 -21l14 -18l10 -6l17 -13l8 -12l4 -2l27 -25l14 -18l12 -31l21 -6l12 -12l8 -25l15 -26l34 -76l15 -21l16 -45l6 -49l9 -22l4 -68l6 -27v-81l-6 -52v-10l-4 -10l4 -25l-37 -164l-10 -18l-19 -70l-8 -8l-31 -84l-57 -102l-6 -17l-4 -2v-6 l-101 -116l-10 -5l-31 -10l-14 -6l-4 -4l-23 -4h-12l-8 -2l-17 -12l-36 -13z" />
<glyph unicode="*" horiz-adv-x="690" d="M35 1016l26 28l11 27l4 4l14 2h131l19 -6l24 2l2 4l-57 72l-4 8l-8 10l-43 62l-13 24l-2 7l4 8l21 4l45 6l10 -4l12 -21l21 -18l8 -16l19 -17l12 -6v-4l4 -4l45 -66l8 21l70 123l8 10l4 12l10 27l11 6l4 18l4 2l4 -6h4l18 -26l15 -15l14 -6l8 -18l-20 -51l-37 -60 l-37 -55l-14 -25v-6l2 -4l61 2l27 -2h14l72 8l6 -2v-4l18 -4l4 -12l3 -4h20l4 -4l10 -7l29 -30l-8 -11l-51 -2l-9 7h-4l-4 -5l-69 -2l-35 7l-27 -5l-8 5l-8 2l-45 -7l53 -79l35 -41l14 -33l27 -27l16 -31l6 -8l-4 -6l-24 -4l-25 -10l-18 10l-35 41l-6 4l-2 4l-11 12l-10 9 l-2 2l-31 37l-6 16l-12 8l-4 10l-4 9l-31 30l-53 -69l-15 -31l-26 -25l-31 -51l-16 -20l-6 -6l-7 14v22l-2 9l-10 20l10 23l13 18l2 12l24 33l-2 10l13 15l16 45l20 35l-55 -5h-29l-8 -2l-2 2l-6 3l-80 -7l-20 4l-21 -2l-2 5h-2z" />
<glyph unicode="," horiz-adv-x="448" d="M127 -315l2 6l6 8l8 6l7 4l2 4l4 6l6 2l6 7l8 14l2 8l8 12v5l7 34l6 11l-2 4l4 34l6 21l-6 25l2 14l-4 27l-9 18l-4 6l-2 2l-22 43l2 10l-17 13l-4 6l-2 6l6 16l7 15v4l2 4l8 14l18 17v20l25 35h4v2l2 2l4 -2l6 -6l49 -47l15 -19l8 -26v-11l4 -6l2 -6l8 -33v-47l-6 -43 l-14 -53l-2 -4l-2 -2l2 -12l-11 -23l-6 -31l-28 -41l-6 -26l-3 -4l-4 -7l-28 -32l-13 -13l-30 -16l-4 8l-11 4l-12 6l-2 3z" />
<glyph unicode="-" horiz-adv-x="841" d="M121 516l4 8l6 11l6 26l6 12l11 2l4 7l16 6l66 -19l22 4l41 -6l84 -2l342 8l16 -18l7 -16l2 -11l-9 -22l-6 -14h-4v-27l-4 -12l-49 6h-37l-14 2h-13l-59 -2l-27 4l-98 -2l-78 4l-4 4l-22 -4l-8 -4l-23 -2h-145l-31 10z" />
<glyph unicode="." horiz-adv-x="448" d="M152 98l8 29l10 12l37 17l37 -4l35 4l10 -4l16 -7l6 -6v-53l-4 -14l-2 -6l4 -11l2 -22l-14 -33l-21 -4h-6l-12 -2l-86 10l-8 10z" />
<glyph unicode="/" horiz-adv-x="604" d="M0 -63l2 10l10 22l49 119l11 33l14 29l20 67v4l5 6l28 68l25 84l22 49l7 27l14 24l10 35l35 80l6 35l4 4l10 12l11 19l69 190l45 107l19 53l2 4l4 10l27 64v10l6 4l30 80l15 47l28 63h2l29 80l12 21l-2 2l2 6l2 4l9 2l2 -6l14 -6l2 -6l2 -9l12 -16h4l5 -12l2 -4l2 -23 l-37 -78l-2 -8l-10 -10l-27 -78l-23 -53l-2 -10l-8 -7l-18 -59l-37 -78v-8l-2 -2l-45 -111l-86 -247l-43 -93l-6 -30l-27 -62l-6 -28l-94 -263l-41 -104l-11 -41l-16 -37l-10 -20l-2 -6l-4 -7l-2 -8l-5 -6l-2 -2l-8 -2l-2 8v2l-16 25l-8 8h-4l-3 6z" />
<glyph unicode="0" horiz-adv-x="804" d="M55 238v63l6 84v29l29 133l16 41l-20 55l-8 35v33l8 39l68 159l8 9l6 16l10 24l33 43l10 21l25 33l12 12l6 8l10 19l91 92l43 33l104 57l66 8l34 -10l35 -17l41 -38l4 -15h4v-2l6 -16l9 -12l22 -11l15 -20l2 -25l18 -26l4 -33l-4 -12l8 -5l4 -12l2 -63l-4 -56v-26l-8 -88 v-21l6 -10l-12 -76l-8 -20l-41 -203l-23 -76l-26 -65l-64 -136l-106 -147l-80 -74l-6 -2l-4 -8l-5 -4l-18 4l-47 -33l-12 -2h-13l-32 -12h-21l-12 4l-10 2l-21 8l-6 2l-25 17l-47 49l-8 18l-12 15l-8 12l-11 18l-2 21l-14 16l-8 27l-4 59l-9 10zM141 758l6 -8h13l2 2l12 14 l25 61l34 47l52 89l24 34l25 9l26 -11l7 -14l12 -16l-4 -7l-4 -2l-9 -2l-24 -26l-2 -39l-8 -4h-19l-24 -2l-33 -47l-4 -19l-55 -98v-14l-11 -21l-4 -14l4 -15v-14l-10 -45l-2 -31l-10 -33l-8 -55l2 -12l-9 -66l5 -24v-19l6 -61l-2 -29l32 -82l37 -59l19 -21l43 -28l10 -8 l8 -2l31 -5l4 -16l18 2l17 -4l35 18l12 2l12 15l68 57l22 29l68 112l33 74l18 62l12 28l4 15l2 8l5 18l4 17l37 161l-3 15l9 33v36l4 11v16l4 33l-2 2v57l-4 56l2 24l10 19l-2 12l-25 82l-10 16l-18 37l-19 18l-8 11l-6 2l-14 -2l-23 18l-70 8l-8 4h-22l-35 -2l-16 -16 l-35 -6l-11 6l-24 -14l-14 -13l-19 -22l-27 -17l-34 -47l-41 -45l-13 -22l-6 -4l-2 -7l-20 -32l-41 -86l-6 -23l-11 -14l-2 -8v-9z" />
<glyph unicode="1" horiz-adv-x="565" d="M27 670l8 10l2 6l4 2l-2 4l6 6l2 4l12 15l11 12v12l61 107l12 33l17 22l57 133l21 58l2 8l8 14l16 74l6 6l15 4l18 12l45 11l19 12h16l2 -6v-17l-8 -86l-4 -86l-6 -28l2 -41l-7 -37l-2 -68l-12 -135l-8 -8l-2 -6v-6l2 -6l4 -9l-4 -125h6l4 -4l-12 -12l-2 -27l-2 -8l-2 -6 v-4l2 -6l-8 -90l8 -54v-84l6 -133l4 -14v-25l-2 -49v-16l-4 -21l2 -12v-2l-8 -12l-4 -4v-6l-54 -68l-22 -2l-6 6v4l-4 2l6 43l-4 174l4 13l-2 10l2 76l-4 24v12l-2 127l4 7l4 12l-4 4v39l4 14v2h-2l4 172l-4 21l2 10l-2 104l6 17l-4 115l2 2v57l-2 18l-17 -6l-4 -12l-6 -23 l-30 -49l-11 -35l-26 -41l-11 -8l-8 -24v-15l-8 -14l-8 -20l-10 -13l-7 -24l-18 -33l-8 -4l-10 -6l-7 -2l-6 4l-24 -6z" />
<glyph unicode="2" horiz-adv-x="763" d="M0 -57l4 43l12 26l21 60l6 6l6 12l43 68l25 28l100 148l12 14l2 4l103 168l10 4l6 8l94 158l7 6l8 2v15l43 80l10 24l43 78l20 96l-6 74l-12 25l-2 10l-10 14l-19 25l-20 12l-17 -6l-24 -23l-59 -88l-19 -18l-29 -49l-20 -21l-23 -41l-6 -8v-8l-16 -25l-10 -28l-21 -48 l-20 -51l-4 -6l-13 4l-41 -22l-41 2l23 37l10 22l78 121l14 18l8 9l27 53l25 35l10 8l8 14l27 37l-2 10l24 29l15 8l8 12l41 50l80 67l57 25l35 -2l18 -11l13 -26l12 -8l2 -2l8 -27l2 -41l8 -47l-4 -51l-12 -51l-31 -89l-14 -18l-33 -68l-55 -84l-8 -24l-33 -47l-19 -19 l-6 -12l-30 -51l-11 -8l-4 -4l-6 -9v-12l-41 -63l-31 -35l-28 -49l-4 2l-2 -4l-9 -15l-73 -98l-33 -51l-17 -17l-24 -39l-16 -18l-11 -27l-12 -12l-45 -80l-2 -24l8 -6l10 -5l8 2l9 5l12 10l6 8l17 8l96 107l80 84l41 34l12 19l41 14l39 -16l20 -21l10 -20v-27l15 -8l4 -8 l39 -64l6 -6l8 -10l6 -12l15 -11l2 -4l12 2l35 -18h18l51 25l31 24l21 -4l-56 -55l-43 -35l-12 -2l-37 -25l-49 -14l-47 2l-21 10l-18 19l-10 20l-6 8l-4 4l-5 3l-2 2l-8 12l-2 4l-2 2l-4 2l-2 4l-14 35l-13 18l-6 21l-10 10l-2 6l-29 15l-10 -4h-6l-35 -27l-25 -33h-4v-6 h-8l-12 -8l-25 -33l-53 -47l-76 -84l-24 -18l-11 -3l-24 -26h-21l-6 2z" />
<glyph unicode="3" horiz-adv-x="784" d="M-53 -41l8 10l6 13l8 12l29 29l41 18l12 -6l2 4l29 4l4 -6l8 -4l121 2l68 18l63 27l64 41l14 10l6 4l27 25l2 6l4 6l8 8l76 96l39 101l2 55l6 25l-2 63l-8 39l-6 19l-3 16l-4 6l-12 10l-8 17l-6 4l-2 8l-21 25l-12 18l-18 8l-9 6l-4 2l-12 11l-10 6h-6l-9 2l-6 4l-4 4 l-16 6l-10 4l-11 2l-4 6l-14 11l-12 16l-5 21l41 51l27 20l39 45l18 15l4 6v8l60 72l10 26l4 43l-2 10l-14 25l-8 8l-21 10l-90 11l-25 -4l-100 -50l-47 -34l-31 -17l-37 -28l-22 -27l-41 -23l-23 -28l-24 2l-2 8l4 12l12 19l6 2l4 8l76 72l25 12l22 22l119 76l21 19l24 10 l64 31l20 8h14l9 8l20 4l107 8h32l23 -14l10 -4l6 -10l4 -2l7 -21v-6l-5 -33l-4 -26l-20 -25l-17 -39l-12 -14l-4 -6l-29 -35l-10 -17l-55 -53l-39 -63l12 -29l58 -35l34 -14l27 -25l6 -4l19 -16l43 -74l14 -43h4l2 -22l-4 -19v-6l8 -27l-4 -26l-4 -23l-4 -10l2 -8l-8 -23 l-17 -22l-10 -54l-16 -16l-4 -10l-6 -2l-5 -8l-2 -2l2 -7l-10 -22l-14 -12l-53 -80l-82 -92l-41 -39h-6l-9 -4v-9l-69 -49h-6l-2 -4l-17 -14l-14 -10l-6 -5l-35 -20l-10 -2l-95 -47l-38 -8l-9 -9h-10l-8 2l-35 -12l-61 -4l-9 -4l-4 4h-8l-12 2l-21 8l-22 11l-4 4v16z" />
<glyph unicode="4" horiz-adv-x="700" d="M27 356l2 23l24 80l2 10l11 25l8 14l2 18l8 21l6 28l39 113l10 45l11 21l16 69l16 35l6 25l2 16v27l3 4l4 12l22 74l2 86l15 59l2 58l26 18l58 23l2 2l4 2l16 16v2h4l4 4l21 -4v-4l4 2l-2 -31l-15 -53l-22 -61v-11l-86 -235l-31 -94l-2 -21l-20 -82l-13 -24l-20 -90 l-31 -97l-4 -32l16 -11l7 -6l6 -2l2 -2l20 12l47 17l115 59l27 8v-2l78 37h6l-2 10l12 43l24 129l11 2l8 9l29 24l73 47l-20 -57l-8 -84l10 -37l-2 -47l6 -14l2 -4l10 -5v-10l8 -8l29 -6l37 6l4 -6v-10l-16 -2l-15 -9h-14l-4 -4l-14 -6l-13 -4l-57 -10l-6 -4l-4 -2v-2 l-13 -25l-2 -6l-12 -10l-37 -127v-19l-18 -53v-49l-25 -133l-2 -51l2 -70l-12 -64l4 -16v-12l-2 -37l-8 -6l-4 10l-4 23l-19 43l-4 30l2 15l-2 10l-4 10l-2 14l4 29l-6 88l8 14l-4 17v6l2 76l-6 4l-2 24l35 179l6 8v26l14 7l2 43l-39 -9l-65 -28h-2l-13 -4l-18 -13h-8l-8 -8 l-13 -14l-2 -4h-4l-6 -2l-8 4l-8 -8l-27 -15h-14l-15 -16l-45 -12l-57 -29l-25 -4v4l-6 -2h-10l-12 14z" />
<glyph unicode="5" horiz-adv-x="606" d="M41 -51l12 39l2 2l11 12l6 4l6 21l10 -2l8 -25l4 -6l4 -4l13 -4l2 -4l31 -19l61 -4l22 12l17 11h8l25 10l8 18l8 8l8 7l15 14l32 57l17 19l26 78l15 57l16 151l4 15l-6 65l6 45l-16 88l-4 4l-6 5l-9 14l-43 -6l-8 -8l-12 -11l-2 -4l-10 -6l-11 -14l-10 -8l-8 -5l-2 -2 l-15 -16l-30 -31l-25 -30l-24 -21l-35 -33l-8 -2l-7 -6h-6l-6 -2l-6 4l-6 -2l-31 27l-18 49v4l-2 10l-9 72l5 37l2 12l-2 25l6 20l2 27l12 59l18 55l5 25l53 105l6 8l10 8l2 -6l17 -4l2 -27l-11 -25l-6 -26l-8 -10l-8 -48l-12 -18v-27l-11 -24v-60l-6 -20l4 -47l7 -23l6 -18 l8 -10l14 -19l15 -12l-5 -2h2l21 2l20 8l80 70l41 39l10 20l23 12l49 43l43 23l31 -4l10 -10l4 -9l6 -8l11 -24l10 -49l-6 -21l-2 -27l-6 -108l-31 -119v-18l-58 -172l-16 -33l-22 -55l-17 -19l-4 -2l-2 -10l-2 -8l-10 -13l-6 -6l-9 -16l-14 -25h-6l-8 -16l-82 -86l-19 -10 h-10l-4 -2l-6 2l-16 -17h-7v-6l-10 -6l-6 -4l-18 -6h-5l-6 -4l-22 2l-8 -6h-17l-18 2l-19 18l-6 8l-2 8l-4 11l-4 6v43zM170 1010l14 39l27 36l12 13v4l45 35l13 20l88 55l4 7l6 2l12 10l19 10h10l24 19l113 32l49 -4l10 -8l-6 -29l-43 -39l-49 -4l-2 -2v-8l-72 -10h-8 l-12 10l-12 -6l-37 -25h-23l-8 -4l-4 -10l-61 -47l-3 -8l-4 -13l-4 -16l-6 -6l-10 -29l-2 -24l-6 -11l-6 -2l-11 -6v-6h-6l-4 -2l-2 2l-25 -6l3 2l-3 2l-10 2z" />
<glyph unicode="6" horiz-adv-x="675" d="M55 330v67l4 15v61l9 45l-2 21l14 30l-8 2l8 35l-4 6l2 11l12 24l10 39v10l31 109l14 29l9 10l41 90l12 16l43 84l16 25l13 14l10 23l45 59l16 12l4 2l8 7l3 4l92 65l14 12l23 15l20 4l14 2l7 -14l2 -27l20 -8l-53 -19l-25 -14l-51 -51l-31 -27l-10 -10l-22 -21l-80 -116 l-80 -226l2 -2l-4 -12l-13 -31l-4 -26l-10 -37l-16 -62v-40l-8 -37l2 -80l-4 -4l2 -11l16 7l39 71l24 13l15 16l4 4l6 10l4 17l10 10l35 31l57 26l54 13l59 -5l51 -22l17 -16l6 -5l2 -4l8 -4l6 -12l15 -10v-6l22 -29l21 -78l-7 -96l7 -25l-9 -20v-6l-2 -15l-6 -30l-26 -72 l-25 -51l2 -4l-10 -15l-19 -35l-14 -20l-6 -2v-6l-4 -2v-4h-2l-19 -23h-4l-22 -24l-17 -11l-2 -4l-69 -33l-37 -4l-49 9l-64 36l-4 7l-6 4h-10l-4 -2l-9 -25h-22l-12 2l-5 8l-8 4l-10 11l-6 8l-25 43l-2 24l-4 17l-4 84l-6 28v15l-4 10l-10 33l4 4v10l-2 6l-2 2l-5 6l-4 4 l2 43zM113 106l4 -14l2 -2l10 -6l4 -27l2 -6l17 -14l4 -2l6 4l-4 22h-2l-11 19l-4 12l-14 29l-6 4l-6 -10zM154 248l18 -68l16 -20l23 -49l14 -15l13 -10l38 -25h76l74 31l47 39l12 8l7 8l8 19l24 31l31 26l27 53l10 37v70l-8 31l-11 20h-2l-2 10l-6 7v4l-26 28l-54 33 l-22 8l-51 4l-43 -4l-82 -41l-62 -53l-30 -47l-35 -72z" />
<glyph unicode="7" horiz-adv-x="950" d="M41 842l25 39l110 133l45 43l12 14l9 6l90 82l22 15l13 12l36 20l17 19l59 43l17 8l6 4l49 27l43 14l22 4h5l12 -2h31l16 -20l4 -11l14 -2l7 -2l4 -6l4 -16l-6 -49l-11 -25l-26 -107l-11 -20l-14 -10l-2 -29l-27 -63l-8 -31l-8 -19l-2 -12l-41 -117l-10 -6l-15 -28 l-10 -43l-59 -146l2 -35l6 -8l10 -2h2l13 2l47 14l39 -4l100 21l12 -4h60l14 -2l23 -4l16 -2l12 -5l45 3l21 -7l18 -12l25 2l20 -2l10 -6l17 -18l-4 -9l-25 -16l-28 -2l-29 -8l-2 4h-4l-15 2l-139 2l-16 -4h-45l-9 -6v4l-4 2l-4 -2l-8 -2l-33 -6l-28 2h-4l-5 -2l-6 -5h-10 l-27 -12l-36 -4l-29 -16l-16 -4l-29 -17l-14 -16l-11 -31l-59 -254l16 -74l-2 -20l-18 -39l-23 -18l-8 -2l-8 -11l-10 -10l-7 -2l-10 6l-2 10l8 41v23l11 162l-2 26v21l-5 76l-16 86l4 20l23 31l49 43l24 6l29 18l64 185l2 20l-4 2v10l22 41l2 23l8 16l2 15l25 84l6 24l4 37 l8 10l17 62l14 76l4 57l2 10l-2 17v30l-4 4l12 15l-18 2l-45 -15l-21 -14h-10l-6 -4l-8 -6l-10 -4l-37 -31l-15 -6l-41 -31l-63 -59l-6 -4l-10 -11l-56 -53l-26 -37l-23 -14l-2 -4l8 -4l2 -6l-4 -11l-4 -4l-12 -14l-17 -33l3 -39l-37 -10l-11 -6l-10 -2l-18 -4l-11 14l-12 6 z" />
<glyph unicode="8" horiz-adv-x="661" d="M-29 78l4 67l66 131l25 29l14 25h4l35 51l2 6h8l86 113h6l23 30l6 11l2 6l-25 33l-10 20l-12 18l-29 50l-2 8v8l-14 31l-4 10l-6 18l-13 80l4 21l6 69l9 45l20 41l43 54l37 26l61 37l7 -6l18 2l8 -2l6 -6v-6l-4 -8h-6l-27 -5h-6l-8 -8h-8l-16 -26l-25 -27l-20 -43l-3 -27 l-8 -20l13 -80l-2 -8l4 -17l-2 -10h6l10 -33l8 -8l2 -8l12 -31l13 -32l6 -7l12 -4l4 -14v-4l13 -4l12 14l49 72l8 18l17 17l30 49l31 67l29 90l12 62l-2 41l-8 35l-29 39l-6 4l-10 6h-6l-21 10l-18 6l-13 2l-20 2l-10 2l-11 -2h-6l-47 -6l-100 -45l-8 -8l-7 -4l-20 -12h-16 l-19 -23l-20 -6l-23 -19l-22 -14l-11 -2l-6 10l84 74l15 10l6 6l12 9l66 41l12 2l12 14l55 27l33 8l10 10l35 14l53 2l15 -2l8 -6l27 2l34 -10l2 -4l7 -8l2 -6l14 -7l8 -6v-4l10 -18l7 -10l6 -21l2 -41l-10 -12l-9 -23l-2 -41l13 -32l-13 -41l-16 -23l-16 -45l-17 -12 l-4 -11v-16l-6 -12v-6l-23 -35v-6l-4 -4v-5l-4 -2l-78 -116l-22 -25v-10l-21 -29l-4 -8l-2 -10l2 -10l4 -7h6l-2 -8l50 -53l4 -2v-4l6 -4v-2l14 -19l47 -51l6 -10h13l18 -25l17 -33l8 -34v-13l14 -28v-19l4 -12l-2 -10l-4 -33l-8 -33l-78 -129l-37 -33l-10 -10l-6 -2 l-35 -29l-72 -32l-22 -17l-37 -12h-23l-4 -6l-2 -4l-37 2l-6 -6h-55l-35 6l-4 4h-6l-19 6l-4 4l-20 8l-29 21l-10 8l-14 29v2l-2 2zM2 88l18 -55l9 -4l2 2l6 12l-23 70l-10 6zM55 131l6 -6l2 -23l5 -10v-6l4 -16l20 -33l21 -17h12l8 -8l10 -8h21l4 -4l6 -2h4l6 6h6l35 2 l6 -4h7l8 4l6 2l41 12l57 25l27 25l24 24l29 49l16 64v61l-6 8l2 5l-24 67l-12 23l-9 10l-6 14l-6 2l-12 13l-35 51l-23 16l-34 45l-29 -28l-10 -21l-97 -125v-12l-14 -19l-20 -36l-5 -5l-8 -6l-37 -96z" />
<glyph unicode="9" horiz-adv-x="749" d="M41 993l10 70l90 123l64 51l45 20l14 9l15 2l57 24l94 6l68 -18l4 -6l12 -4v-4l8 -4l13 -15l30 4l39 -24l41 -62l12 -35l5 -6l2 -4v-8l4 -14h4l16 -86v-11l2 -16l2 -10l8 -14l2 -68l3 -6l2 -19l4 -67l-6 -17l4 -12l2 -27l-35 -204l-6 -6v-13l-60 -213l-78 -145l-8 -10 l-8 -15l-6 -2l-10 -22l-25 -27l-4 -6l-10 -16l-21 -27l-57 -49h-2l-12 -10h-9l-26 -13l-8 -2l-21 -12l-24 -23l-50 -6l-22 -10l-19 2l-20 -8h-4l-4 2l-10 2l-29 -4l-6 6l-8 2h-7l-18 37l-2 2l51 -4l80 18l12 8l2 3l21 10l51 16l23 14l55 41l18 11l13 20l12 10l33 48l18 43 l45 124l12 29l45 186l-4 15l23 196l-4 91l4 10l-10 2l-23 -19l-49 -55l-76 -59l-12 -2l-8 -4l-8 2l-29 -7l-6 -4l-11 -4l-6 -4h-6l-8 2l-100 8l-35 13l-23 14l-2 2l-4 2l-6 6l-4 2v4h-4l-6 7l-4 6l-2 6l-21 43l-14 72l4 32v13l-6 6l-17 -10l-4 -3h-4l-8 3l-4 4l-8 12l-7 6 l-10 18l-8 25zM96 1030l6 -47l7 -2l2 -4l14 -4l22 37l5 24l12 21l4 18l4 6l6 11l27 43l4 12l27 29l-31 8h-10l-7 -4l-8 -13l-8 -8l-4 -2l-18 -14l-9 -23l-16 -12l-14 -31l-5 -20l-6 -8zM199 956l8 -36l18 -56l15 -18l8 -12l8 -5v-6l8 -6l12 -8l13 -6l10 -8l6 -2l4 -2h8 l17 -7h6l8 -2l10 4l39 -4l49 9l54 28l16 12l27 35l18 17l14 51l-6 59l2 8l4 9l-6 -2l4 6l-8 8v20l2 11l-10 26l-4 6l-6 15l-6 8l-25 55l-6 -4l-18 31l-11 -4l-6 10l-4 4l-10 4l-2 10l-6 3l-11 6l-20 8l-16 10l-56 4l-4 -2l-24 -8l-3 -4l-8 2l-20 -33l-21 -18l-8 -21l-2 -31 l-43 -49l-6 -20l6 -2v-6l-10 -29z" />
<glyph unicode=":" horiz-adv-x="448" d="M152 98l8 29l10 12l37 17l37 -4l35 4l10 -4l16 -7l6 -6v-53l-4 -14l-2 -6l4 -11l2 -22l-14 -33l-21 -4h-6l-12 -2l-86 10l-8 10zM152 713v30l8 29l10 14l37 15l37 -4l35 4l10 -4l16 -4l6 -7v-57l-4 -14l-2 -6l4 -11l2 -20l-14 -33l-21 -4h-6l-12 -2l-86 8l-8 12z" />
<glyph unicode=";" horiz-adv-x="448" d="M127 -336l2 6l6 8l8 7l7 4l2 4l4 6l6 2l2 2l4 6l8 15l2 6l8 12v4l7 35l6 10l-2 4l4 35l6 20l-6 25l2 16l-4 25l-9 18l-4 7l-2 2l-22 45l2 8l-17 12l-4 6l-2 6l13 33v2l10 21l18 16v19l25 34h4v2l2 3l4 -3l6 -6l49 -47l15 -16l8 -29v-10l4 -6l2 -6l8 -33v-47l-6 -41 l-14 -56l-2 -4l-2 -2l2 -12l-11 -22l-6 -31l-28 -41l-6 -25l-7 -12l-28 -33l-13 -12l-30 -16l-4 8l-11 4l-12 6l-2 2zM137 713l2 30l6 29l13 14l37 15l34 -4l37 4l10 -4l15 -4l6 -7v-57l-4 -14v-6l2 -11l2 -20l-14 -33l-19 -4h-8l-12 -2l-86 8l-8 12z" />
<glyph unicode="?" horiz-adv-x="882" d="M82 1077v4l12 29l17 12l4 11l32 26l7 2l4 4l10 4l2 7l31 22h6l16 14l64 39l18 11v2l10 4l54 28l37 15l12 4l28 14l11 4l4 2l49 19l39 4l39 14l92 -10l74 -27l8 -10l8 -4l6 -12h4l6 -6l7 -3l12 -16l4 -6l4 -8l12 -15l6 -24l5 -23v-18l2 -21l-4 -10l4 -10l-7 -41l-6 -21 l-8 -22l-22 -43l-21 -21v-4l-4 -2l-25 -37l-45 -43l-10 -12l-4 -12l-20 -14l-4 2l-3 -5l-14 -12l-39 -37l-22 -14l-39 -41l-17 -6l-61 -62l-4 -2l-12 -8l-5 -4l-2 -4v-4l-18 -16l-4 -5l-6 -4l-6 -6l-15 -8l-4 -2l-10 -2l-6 -21l-17 -16l-2 -10l-8 -4l-6 -19v-55l10 -25 l15 -16l10 -6h4l2 -4l47 -31l123 -45l84 -20l2 -7l2 -4l-8 -10l-12 -4l-54 -10l-6 -4l-12 -7l-100 11l-150 39v4l-23 8l-18 10l-10 15h-4l-11 6l-16 18l-20 35l-2 24l2 11l6 10l22 51h4l2 4l13 13l30 34l232 201l47 47l2 6l6 2l14 21l3 2l6 4l61 82l8 20l4 4l5 7l2 6l4 16 l4 2v6l4 4l4 11l10 22l4 58l-6 41l-4 4v8l-12 24l-8 9l-5 10v4h-4l-2 4l-20 23l-39 24l-23 4l-47 -4l-24 -6l-11 -2l-8 4v-4h-18l-78 -39l-2 -2l-14 -4l-19 -10l-8 -7l-10 -4l-53 -28l-25 -21l-25 -35l-10 -6l-12 -18l-10 -27l-21 -4l-14 4h-10l-7 -6l-8 -10l-10 -12l-2 -5 l-6 -2l-23 15l-6 10zM360 82l11 53v12l26 3l17 10h8l6 2l51 -6l19 -15l2 -6l14 -14l4 -45l8 -6v-11l-2 -4l-6 -28l-22 -25l-31 6l-33 -6h-20l-21 6l-14 23l-6 10v10l-4 4v21z" />
<glyph unicode="A" horiz-adv-x="878" d="M-41 33v8l4 6l8 8l6 23l17 22l8 17l6 10v6l25 60l49 83l4 3l2 2l18 57l33 43l2 14l4 2l19 17l4 22l-4 8l4 21l-18 27l-13 2l-6 6l-4 6v12l8 6l12 2l13 15h14l14 18l7 2l12 6h14l10 2l23 6l14 3l11 20l28 25l17 26l53 58l16 30l10 -2l50 58l12 10l10 8v29l-8 43l2 28l4 2 l-4 5l-4 20l-2 12v21l-2 12v16l-4 25v8l2 8l2 11l-4 4l2 45l-4 12l-2 66l-2 18l-5 10l-2 45l25 11l6 4l2 4l4 12l23 10l6 11l37 -11l14 -47l4 -53l2 -12v-13l11 -114l-3 -6v-13l3 -67l6 -27l-2 -6l4 -8l59 45v2l10 2l64 43h12l6 2v2l4 4l11 16l30 7l-2 -27l-10 2l-14 -12 l-4 -6l-7 2l-40 -50l-29 -8l-6 -8l-8 -6l-29 -33l-15 -14l-16 -15l-2 -45l-2 -8l2 -8v-20l10 -21l2 -27l4 -12l2 -14l13 -33l39 -151l20 -46l25 -71l10 -21l31 -84l14 -16l18 -12l9 -33h4v-10l6 -29l59 -104l23 -37l4 -11l-4 -8l-6 -8l-35 -29l-19 -2l-8 -6h-4v-4l-18 -8 l-13 2l-28 49l-10 6l-19 25l6 10v4l-6 10v4l-12 13l-10 33l-97 188l-14 14l-27 17l-8 8l-69 43l-52 43l-10 6l-2 4l-57 21l-25 2l-2 4h-12l-39 4l-21 -12l-22 -41l-6 -7l-4 -8l-4 -6l-11 -18l-6 -4l-2 -7l-8 -14l-8 -22l-19 -17l-10 -33l-14 -24l-8 -12l-5 -5l-14 -34 l-27 -54v-8l-12 -26l-2 -23l-14 -29l-2 -24l10 -37l-6 -23l-27 -45l-8 -4l-10 -6h-4l-13 2l-14 2zM350 582l31 -11l53 -12l6 -4l4 -2h2l9 2v-6l28 -12l11 -7l12 -8l37 -35l8 -4l6 2l2 9l-2 10l-12 26l-8 39l-13 29v23l-8 4l-4 10v6l-4 2l-8 41v21l-8 28l-5 6l-4 4l-6 2h-4 l-10 -10l-51 -71l-19 -13l-39 -55l-2 -6z" />
<glyph unicode="B" horiz-adv-x="960" d="M20 98l3 11l2 4l32 28l2 6l9 5l8 6l14 -8l-4 -13v-4l2 -12l23 -25l59 -28l8 -2l21 -9h6l43 -10l6 -4h12l111 -14h24l17 -2l12 4l23 -2l65 8l10 -2l7 2l8 2l61 16l92 43l27 27l8 -4l14 26l13 11l10 10l8 12l4 4l11 19l8 20l2 27l10 6l8 102l-12 58l-16 28l-3 2l-2 7 l-10 16l-8 12l-2 4l2 7l-33 20l-20 29l-19 10l-10 2l-2 6l-4 4l-4 2h-6l-19 10l-12 5l-8 6l-2 2l-4 6l-68 22l-4 5l-35 8l-76 -2l-24 14l-4 16l22 39l4 2l2 17l9 4l10 31l12 12l2 18l6 6l2 7l6 8l11 18l4 6l16 21l15 14l4 2l30 56l6 22l-55 25l-57 20l-4 4l-6 4l-7 -2 l-57 29l-18 2l-6 4l-9 4v4l-18 8l-51 27l-27 10l-2 -4l-16 2l-11 -8l9 -27v-30l2 -6l2 -2l12 -101l4 -8l4 -57l10 -17l2 -26l7 -11l10 -6l-4 -18l8 -33l-2 -49l14 -16h10v-5l9 -20l-4 -29l2 -4l-4 -41l2 -10l-11 -90l-8 -156l-6 -22l2 -4l-2 -15l-2 -26l2 -13l-4 -39l4 -12 v-24l-49 -48l-10 -2l-23 2l-14 13l16 86l6 57v12l6 13l2 8l-2 4v6l5 152l-5 8v80l-6 22l-10 109l4 10l2 6l-4 6l-6 2l2 25l-4 6l-2 2l-2 37l2 10v4l-4 6l2 9l-2 2l-2 10l-19 61l-10 72l-4 12l-16 72v18l-9 25l-6 16l-2 2l-4 11l-2 4v12l-20 43l-5 10l-4 7l-2 4l-43 84l8 12 l11 4l4 18l10 9l6 12l10 6l31 -14l53 -35v-2l5 -4l75 -47l45 -23l99 -53l18 -12l10 -7l113 -57l63 -27l46 -12l22 -12l8 -6l13 -21l2 -6v-6l-5 -6l-34 -43l-13 -25h-2l-4 -6l-6 -6l-33 -41l-6 -16l-53 -78l-6 -29l6 -8l18 -4l39 -4l41 -13l33 -16l10 -6l10 -4l13 -6l43 -23 l4 -6l6 -2l14 -10l13 -4l8 -7l26 -22l2 -4l7 -6l12 -17l10 -6l2 -2l12 -22l9 -15l2 -6l14 -22l8 -37l2 -33l6 -21l-8 -84l-10 -38l-8 -17l-6 -4l-4 -4l-2 -4v-6l-25 -47l-4 -2l-6 -13l-37 -39l-19 -10l-14 -16l-8 -10l-10 -9l-15 -8l-26 -10l-2 -4l-35 -17l-2 -2l-6 -10 l-23 -12l-37 -12l-14 -7l-16 -6l-11 -6l-35 -12l-22 2h-4l-12 -6l-132 -8l-10 -2l-41 6l-10 -2l-10 6l-55 4l-5 4l-14 4l-4 2h-29l-47 16h-8l-25 17l-14 2l-4 6l-2 4l-33 17l-18 16zM166 1090l4 -5h2l2 -8v-10l2 -10l8 -45l11 -19v-55l12 -14l6 -2l10 4l8 18v17l-8 24 l-12 16l-2 11v10l2 33l-2 10l-6 22v19l-4 8l-9 6l-10 4l-6 2l-6 -4l-2 -10v-8l4 -12l-2 -2h-2zM281 909l2 2v13l10 -2l2 2l4 -4l-2 -2l8 -21l-2 -23l8 -28l-4 -17h4l-2 -59l-6 4l-2 4v17l-4 -4h-2l-6 24l2 14h4l2 11h2l-4 4l-4 8l2 18v2l-4 9l-4 4zM315 948l4 8l23 7l8 -13 l4 -8l8 -55l-2 -25l-4 -8h4l2 -18l-8 -25l-12 -16v-7l-10 -6l2 15l6 4l-4 18l2 27l8 16l-4 12l4 11l-4 4l-6 22zM322 684l12 92h4l-2 -8l8 -2v-27l-16 -77z" />
<glyph unicode="C" horiz-adv-x="1103" d="M61 459v76l5 24l2 14l12 21l6 43l8 16l4 25l8 12l3 8l6 7l20 47l10 8l5 8l10 27l18 22v2l6 6l4 9l82 106l62 66h4l18 20l47 37l33 37l19 8l41 37l84 51l90 47l10 4h4l72 25l2 2l4 2l2 -8l4 4v4l20 8l148 16l2 -4l70 4v-4h24l8 -4l6 -12l-4 -10v-6h-6l-8 -9l-2 9l-4 -7 l-8 3l-4 -11l4 4l10 -2v-6h-8l-2 -6l-8 -6l-13 -19l4 -2v-4l-4 -4l-4 -6l-47 8h-88v2h-2l-96 -12l-23 -4l-14 -2l-4 -2h-6l-17 -8h-10l-16 -4h-19l-57 -29l-10 -6l-13 -6l-53 -33l-8 -6l-4 -4l-15 -13l-49 -41h-12l-35 -32l-6 -2l-2 -9l-6 -8v6l-2 2l-17 -14l-14 -23 l-10 -12l-6 -6l-17 -20l-10 -7l-8 -28l-21 -29l2 -8l-8 -10l-35 -72l-12 -64l2 -16l-2 -12v-8l-4 -21l10 -8l10 6l5 8l30 68l8 8v4l5 2l2 8l6 13l2 12l12 25h6l2 4l2 6l2 12l45 57l70 70l14 12l5 4l12 17l20 14l13 21l30 20l4 6l33 25l4 4l15 12l41 33l4 -2v-6l-33 -43 l-12 -6l-31 -37l-33 -27l-24 -29l-9 -12v-4l-6 -4l-37 -47l-4 -4l-10 -13l-8 -10l-6 -10l-9 -12l-45 -60l-12 -24l-12 -37v-2l-2 -8l-4 -19l-11 -10l-20 -70l-2 -2l-4 -8v-12l-10 -47v-45l-9 -39l7 -127l8 -51l10 -23l4 -4l12 -25l6 -6h-2v-20l5 -6l12 -7v-4h4v-8l4 -4 l4 -10l14 -25l31 -22l4 -4l6 -11l2 -4l23 -4l16 -12l47 -21h23l18 5l15 -9l69 -2l80 13l4 6l31 6l57 22l25 13l12 2l115 57l33 35l6 8l12 6l27 21l31 32l2 5l4 2l8 2l10 8l29 33h6l-10 -27l-11 -20l-6 -9l-12 -10l-35 -43l-18 -18h-6l-9 -6l2 -9v-4l-2 -6v-4l-10 -6l-20 -19 l-6 -4l-5 -10l-6 -2l-10 -8l-18 -6l-35 -33l-51 -39l-19 -6l-6 -6l-14 -6l-8 -5l-21 -6l-117 -53l-8 -6l-6 -2l-18 10l-11 -2l-8 -2l-2 -6l-45 -8l-92 2l-74 16l-59 27h-6l-15 8l-18 12l-12 13v2h-3l-22 18l-10 16l-4 2l2 5l-23 20l2 6h-4l-10 17l-29 57l-14 45v31l-14 47 l-25 18l-27 41z" />
<glyph unicode="D" horiz-adv-x="952" d="M82 1227v16l18 21l9 4l6 2l10 2l12 12l10 4l11 2l4 2l8 -2l4 -4l6 -10l29 -31l6 -12l76 -53l12 -11l25 -16l14 -8l10 -8l8 -2l50 -35l24 -4l115 -49l4 -5l12 -4h4l4 -2l50 -22l14 -13l22 3l5 -7l4 -4l12 -4l27 -12l10 -14h16v-5l10 -6l41 -4l23 -57l4 -6l6 -15l12 -41 l19 -36l8 -29l4 -4l2 -4l2 -6l2 -21l6 -18l2 -4l21 -89l8 -86v-10l4 -18l-2 -15l-2 -22v-29l-14 -73l-4 -11l-4 -22l-13 -31l-12 -18l-20 -39l-37 -54l-6 -4v-4l-25 -30l-45 -33l-2 -6l-2 -4l-57 -35l-11 -4l-4 -4l-12 -11l-33 -22l-49 -21l-8 -2l-6 -4l-13 -6h-6l-4 -4h-2 l-2 -4l-68 -27l-18 -4l-2 4l-25 -12l-24 -6l-2 -4l-17 -4h-12l-8 -2l-17 4l-12 -4l-12 -3l-33 -4l-6 7l-12 2l-15 -13h-8l-2 4l-4 2l-29 7l-20 10l-2 2l-10 2l-13 6l-8 6l-12 4l-4 19l20 18l13 6l18 -16l51 -16l45 -7l4 13l-4 10l-6 24l-10 70l2 23l-10 75l4 37l-13 70 l-4 65l9 27l-11 70l-2 4l-2 2v10l-4 25l8 2l11 -4l10 -17h14l2 4h2l4 15l-4 47l4 26l-4 4l-4 7l-2 4l-2 20l2 6v41l-2 13l-4 2l-2 26l-8 43l4 2l2 -4l6 8l-8 74l-8 12l-7 82l-12 52l-2 22l-2 10v4l4 5l-18 67l2 23l-10 34l-5 2h-4l-8 9l-2 4h-10l-4 4l-6 -2l4 -12l-4 -27h6 l4 -8l4 -4l8 -90h-6l6 -7l4 -8v-10l6 -23l-2 -18l4 -16l2 -68l-4 2l11 -29l-11 -10l-14 29v20l-2 4l-4 52l2 18l-4 8v17l-4 8v2l-2 16v6l-2 15l-4 8l-5 2l5 51l-29 49l-12 49v11l-2 4l-13 16v10zM184 795l4 6l7 -2l4 -13l4 -2l8 -22l2 -10l2 -7l-6 -28l6 -21l2 -2v-6l10 -22 l-10 -45l-4 2v8h-6l-4 8l4 20l-12 33l-7 37l5 14l-5 13zM207 578v22l2 6l4 2l6 2h2v-6l4 -4v-14l6 -4l2 -58l-6 -4l-2 25l-4 -4h-2l-4 12l-2 16l-2 2zM225 1077l2 -16l15 -49l2 -51l6 -23l20 -135l-4 -31l8 -37l2 -90l11 -6l-2 -29l2 -8l2 -18l4 -13v-8l4 -92l6 -18l4 -9 l10 -10l9 8v4l-2 7l4 2l2 32l-4 35l16 154l2 63l-4 23l4 41l-4 61l-8 49l2 13l-6 24l37 19l28 8l13 -4h12l18 -53l2 -11l-2 -164l-8 -75l2 -11l-10 -36v-31l-8 -57v-25l-6 -29v-22l-13 -82l-6 -12l2 -11v-4l-4 -14l-4 -12l-6 -33l-6 -94l-11 -25v-49l-4 -37l4 -66l-20 -18 l-4 2l-6 -6l-9 -2l-4 -2l-10 -6l-18 -6l-2 -13h63l113 31l10 4l14 8l56 23l59 31l70 55l2 4l14 8v4l8 10l2 3l6 4l37 47l4 12l2 4l17 16l18 31l17 51l2 19l4 12l10 111l-2 73l-12 72l-19 57l-4 17l-4 6l2 20l-12 17v24l-8 7l-6 18l-7 10l-6 23h-4l-2 14l-6 14v11l-4 8 l-12 10l-9 16l-2 11l-10 10l-2 4l-10 4l-4 2l-23 4l-14 15l-21 6l-2 6l-6 2l-47 25l-27 2l-8 10v-4h-4l-10 6l-25 6l-22 16l-31 11l-39 18l-41 12l-33 17l-18 12l-23 4l-38 14l-11 -2z" />
<glyph unicode="E" horiz-adv-x="831" d="M23 219l8 78l16 43v12l19 39l40 68l35 43l19 10l18 33l29 22l6 -2l49 49l98 68l15 8v2l-13 4l-53 17l-33 24l-10 13l-6 10l-8 8l-4 8l-10 39l16 64l12 14l2 8l4 2l4 8l11 7l6 8h2l2 12l14 23l8 2l7 4l4 4l4 8h12l41 35l21 10l8 6l10 6l33 17h14l-2 -15l-25 -10l3 -8 l-21 -8l-39 -39l-10 -12l-2 -5v-6h-6l-13 -28l-4 -9l-2 -10v-18l2 -11l4 -14l7 -12l-3 -10l3 -7l10 -10l26 -24l39 -19l21 -4l14 -8l51 -8l43 8l2 -4l4 -4l17 -47l-8 -15l-2 -6l-15 -10l-26 2l-80 -18l-72 -31l-78 -60l-28 -16l-4 -6l-11 -10l-6 -9l-26 -28l-25 -19v-10 l-23 -24l-22 -43l-8 -21l-17 -45l-6 -47l2 -31l4 -22l6 -13l7 -26h4l2 -10l6 -13l8 -14l8 -8l11 -15l34 -34l25 -11l4 -6l8 -8l-2 -12l12 -2l7 2h4l2 -2h4l22 -11l31 -8l8 -4h19l8 -6l29 2l22 -6l21 4l12 2l4 2l53 10l6 8l33 13h14l33 28l17 9l65 63l12 17l7 6l16 20l33 57 l16 11l6 14l15 14l8 -8l2 -8l-4 -20l-2 -13l-4 -10l-13 -16l-16 -39l-14 -15l-23 -14l-31 -33l-22 -14l-4 -8l-13 -13l-10 -2l-55 -36l-10 -5l-4 -4l-11 -4l-8 -8l-88 -37l-84 -26h-111l-94 24l-51 25l-39 32l-8 9l-6 4l-6 14l-6 4l-5 10l-16 23l-2 20l-8 7v2l-6 18z M223 907l2 11v16l25 43l12 14l2 10l29 33l8 6l4 7l10 16l7 2v2l32 31l11 4l8 8l33 23l4 2l14 16l4 4l10 6l97 56l36 16l21 10l10 8l6 2l54 29l67 23l12 8l13 4l8 4l18 6l41 4l10 -2l5 -4l4 -14h6l-2 -15l-10 -28l-13 -17v-39l-41 7l-6 4l-2 2l-14 4l-10 -2l-9 -2l-102 -15 l-66 -26l-41 -25l-10 -2l-61 -37l-17 -14l-20 -10l-31 -27l-4 -6l-6 -6l-6 -4l-17 -13l-16 -10l-10 -4l-10 -12h-11l-26 -31l-6 -10l-5 -6l-8 -6l-6 -9l-4 -8l-6 -10l-2 -12l-8 -11l-11 -4h-6z" />
<glyph unicode="F" horiz-adv-x="927" d="M61 928l2 39l13 43v16l2 8h6l18 49l7 7l12 16l12 8l4 8l13 31l28 4l8 10l15 11l-4 2l6 6l28 18l7 2h4l10 11l37 22l28 4l7 4l24 13l47 12l6 -2l56 20l37 4l6 -4l8 4l10 9l17 2l10 4l12 -2l51 4l29 -4h6l57 -9l27 2l2 -4l23 -4l28 -8l66 -8l6 -2l8 -4l8 -6l9 -2h28l25 -9 l20 -6l17 -8l20 -2l8 -8l15 -21l2 -4l4 -6l2 -4l-6 -6h-2l-6 2l-11 6l-73 23l-7 -9l-36 -4l-5 8h-16l-27 7l-10 2l-2 2l-78 2l-127 12l-4 -2l-4 2l-78 -4l-94 -25h-12l-25 -8l-4 -6h-2l-63 -29l-11 -6l-8 -8l-69 -61l-13 -27l-20 -25l-29 -79l-6 -37l-2 -6v-5l4 -12l2 -4 l2 -23l17 -43l2 -2l4 -6l14 -26l8 -6l6 -3v-8l6 -8l11 -24l16 -5l2 -4l10 -6l17 -12l8 -8l12 -19v-10l-10 -18l-29 14l-4 -10l-30 12v14l-9 -2l-10 4l-20 15l-37 30l22 7l-32 20l-15 14l-2 7l-4 4l-4 2l-2 -2l2 -7l-10 3l-21 34l-2 13l2 2v8l-2 6l-8 4l-2 25l-2 8l-6 6l-6 4 zM106 973l3 -8l4 -4h4l16 14l-4 14l8 19l-2 4v4l2 10l6 10l11 23l-9 -4l-14 -19l-6 -6l-16 -43zM109 918l12 -5v-8l-4 -12v-12l-2 -7l4 -24l10 -10l10 -21l4 -6v-8l13 -19l2 -4l14 -6l12 -2h4l11 2l2 10l-2 9l-4 4l-13 4l-6 12l-6 4l-18 19l-9 45l-12 26l-4 15l-6 4l-4 2 l-4 20l-2 6l-2 -6v-32zM137 1067h6l4 6h5l4 -2l24 19l13 4l2 10v4l-2 10l-13 6l-14 -16l-6 -2l-6 -6zM227 444l17 29l32 23l11 20l43 19l88 49v39l-45 8v2l-13 4v20h-14l-8 7l-4 8l6 8l6 -2l6 -4l45 -29h11l4 -2l8 2l-2 27l4 33l-4 10l6 45l-4 10l-2 4l2 4l2 6v27l8 47 l39 10l10 4l13 -4l28 11h6l4 -5l5 -6l2 -10l12 -14l4 -33l-2 -37l2 -33l-4 -39l4 -51l-2 -10l-2 -4l2 -8l8 -6l6 -7l13 2l120 21l127 2l4 -4l9 2l18 -2l10 -4l6 -4l50 -19l-11 -16l-12 2h-31l-8 4l-10 -6l-2 6l-21 4l-67 -4l-4 4h-8v4l-25 -14l-4 4h-17l-6 -2l-39 -2 l-82 -27l-16 -10l-6 -22l6 -64v-25l2 -24l-4 -45l4 -33l-4 -22v-56l2 -8v-14l-2 -74l-2 -12l-2 -4l-2 -95h2l-2 -6l-2 -4v-8l2 -16v-9l2 -16l-6 -8l-10 -4l-7 -8l-2 4h-12l-12 2h-8l-13 -6l-20 2l-31 16l-2 22l2 9l-2 14l-4 25l6 28l-10 25l14 24l-2 11l-4 6l-6 49l8 59 l-2 33l6 47l-8 23l4 59l-2 8v4l6 9l-2 4l-4 4l-2 41l-6 6l-6 2l-13 -2l-4 -6l2 -2l-10 2l-12 -8l-29 -23l-6 -6l-8 -6v-2l-10 -25v-10l-2 -2l2 -12l-2 -7l-9 -12l-14 -12l-33 16l-22 2l-6 35l-4 8l-5 4z" />
<glyph unicode="G" horiz-adv-x="1097" d="M14 127v6l6 17l15 28h14l6 -6l4 -39l29 -82l4 -8l4 -10l64 -70l10 -8l4 -6l10 -6l4 -2l9 -15l10 -12l8 -2l12 -4l19 -14l8 2v-7h10l17 -14l20 -8l8 -2l8 -4l11 -4l4 -9l28 -2l23 -14h14l9 -4l8 -2h8l31 -4v-4l8 -2l6 -2h27l6 -4l6 -3l20 5l101 4l80 22l47 25l24 18v4 l31 23l12 14l2 6l2 4h4l19 31l26 66l11 12l12 43v20l18 86l-2 48l13 43l2 16l-2 14l2 17v4l-2 4l-11 61v9l5 8l6 8l-11 51l-10 21l8 12l7 -2l4 4l-9 20v9l-8 12h-4l-12 8h-14l-33 -33l-27 -12h-8l-18 -10l-21 -10l-18 -7h-29l-4 4h-4l-15 -4l-6 -4l-10 -10l-68 -20l-77 -9 l-4 4l-31 -8l-4 -4h-54l-28 6l-6 11l-41 -7l-35 5l-80 34l-31 25l-4 10l-2 2l-14 19l-8 26l-4 6l-7 17l-4 14l6 21l-2 6v6l2 18l11 41l14 33l39 82l6 2l4 6l2 12l19 27l10 6v8l6 9l14 10l6 16l5 6l10 7l10 18l86 94l51 39l21 18l4 7l33 30l14 2l16 21l23 14l10 2l12 11l2 2 l29 18l8 4l6 4l9 2l18 15h14l23 18l31 14h6l6 -2l53 29l35 6l6 10h8l11 -28l-31 -21h-6l-13 -4l-59 -24l-29 -21l-16 -2l-66 -37l-41 -37l-24 -14l-12 -14l-13 -7l-24 -20l-10 -6l-21 -21l-2 -4l-6 -4l-2 -10l6 -2l86 59l20 10l21 17l233 125l11 2l4 6l20 6l8 4l11 4l88 21 l24 -4l17 2l32 -4l2 -4l7 -9l6 -34l-19 -50l-8 -43l-20 -16l-27 -6l-16 14l-9 15l-8 10l-12 8h-8l-2 4h-8l-13 -6l-30 8l-48 -22l-24 -2l-12 2l-7 -2l-8 -3l-22 -6l-13 -8l-4 -4l-8 12l-6 -4l-41 -16l-25 -4l-14 -17l-24 -6l-78 -57l-6 -8l-25 -8l-53 -50l-21 -12l-16 -22 l-16 -15l-11 -18l-59 -62l-17 -24l-10 -27l-2 -2l-2 -4l-4 -2l-10 -16l-4 -2l-11 -21l-6 -29l2 -43l23 -37l6 -24l10 -4l21 -17l12 -10l6 -6l10 -8l43 -23l25 -8l14 -2l17 -2l69 -6l123 6l125 39l41 33l10 4h4l17 -4l-4 10l12 4l27 18l6 -2l12 9l-2 4l35 28l12 5l2 -7h13 l8 -4l6 -12l2 -35l14 -43l-2 -39l2 -28v-19l-2 -10l-2 -4l2 -31l-2 -12l6 -25l6 -96l-12 -21l6 -10l-2 -12l4 -10l-12 -45l-10 -11v-38l-29 -84l-49 -84l-45 -62l-72 -67l-47 -31l-12 -6l-8 8l-41 -33l-4 -2h-4l-5 -6l-55 -8l-4 -8h-12v-5l-97 -16l-2 4l-8 2l-4 -2l-12 -2 l-8 -2l-27 -2l-12 2v6l-17 -4h-24l-25 10l2 6l-2 3l-16 -5l-10 2l-21 7l-10 4l-19 6l-4 2l-8 2l-8 4l-6 6l-8 10l-7 2l-14 13l-14 4l-6 8l-11 8l-32 25l-21 20l-2 4l-8 5l-8 8l2 6l-21 4l-16 18l-12 7l-13 8l-49 75l-8 15v4h2l-6 8l-4 4l-12 25zM922 573l18 -8l8 2l4 -4 l4 -6v-14l5 -25l-5 -16l5 -15l12 -14v-6l-2 -6l2 -17l-6 -8v-4l-2 -6l8 -8l2 -10l2 -9l6 2l2 9l4 8v26l4 9v16l4 6l-14 76l-4 4l-4 14v25l-8 6l-41 -20l-2 -7h-2zM973 299l4 -6l6 -2l10 4v22l-2 29v14h-10l2 -12l-4 -8l-2 -8v-8l-4 -15v-10z" />
<glyph unicode="H" horiz-adv-x="1447" d="M-53 362v23l10 25h2v6l10 8l8 31l15 14l20 41l25 33l8 12l10 16l8 7l7 8l16 22l14 15l37 39l4 6l2 6l19 24l4 9h8l4 6l2 2l4 6l45 45l4 -4h3l2 4l6 6l6 4l6 15l4 4v4l6 6l142 108l49 31l4 4v2l10 2l27 21l112 43l4 -4l19 4l33 -2l28 -8l13 -9l6 -6v-4l18 -6l10 -12 l15 -31h6l8 -14l8 -41l2 -45l-8 -50l-2 -30l-29 -121l7 -12l8 6l24 12l6 2l15 8l8 6l65 35h13l6 4l2 4l2 9l10 2l54 26l10 6l6 3l-2 2l4 10l18 6l35 22l-2 11l-2 2l8 39l13 168l-7 8l7 8l2 6l12 98l6 91l6 2h-4v6l14 16l35 27l4 2l19 18l18 10v5l4 10l6 4l3 6h4v2l22 8l2 -4 l10 -2l7 -12l-15 -60l-2 -45l-10 -20l-2 -21l-2 -12v-6l-6 -33l-2 -4l-4 -20l-2 -25v-4l-5 -4l-2 -4l-12 -84l-4 -14l-2 -5l-12 -73l2 -33l8 -2l31 12l16 12l25 2l6 9l14 4l12 8l25 12h14l4 6l31 13h6l10 12l17 8l22 10l15 7l10 4l22 8v2l17 2l16 6l68 33l14 -2h2l-18 -12 l-8 -9l-50 -28h-2l-12 -2l-4 -2l-8 -2l2 -7l-78 -45l-74 -37l-30 -22l-95 -47l-10 -8l-24 -13l-15 -16l-4 -23l2 -12l-4 -31l-2 -2h-2l-2 -4l-2 -2l2 -12l-6 -74l2 -4l2 -8l-2 -4l-2 -6v-80l4 -6v-90l31 -144l4 -8l4 -23l12 -40l8 -11l19 -47l6 -6l22 -39l23 -18l6 -9l8 -2 h6l4 -6v-10l-14 -20l-14 -2l-15 -21l-32 -12l-21 10l-45 49l-51 94l-4 11l-6 14l-4 12l-4 6l-11 43l2 11h-4v4h-4l-4 37l2 2l-2 18l-4 61v19l-2 4l-10 133l8 68l-2 73l6 35v2l-6 15l-2 4l-29 -15l-22 -20l-25 -6l-18 -17l-25 -4l-12 -8h-9l-4 -2l-12 -4l-2 -4l-8 2l-41 -31 l-4 -6h-4l-15 -8l-20 -17l-23 -26l-14 -6l-31 -109l-4 -8h-2l-10 -31l-6 -20l-2 -8l-13 -48l-10 -24l-18 -70l-15 -30l-10 -48l-12 -22l-19 -70l5 -24l-7 -4l-2 -7l-4 -6l-30 -22l-17 -29l-39 -20l-12 -13l-10 2l-6 35v23l20 47l29 90l10 10l2 29l10 12l6 19l9 16l6 53 l-10 10l-56 23l-4 8l-6 2l-20 29l6 39l14 35l6 2l8 14l25 16l24 33l13 8l20 7l4 -3l4 -4l9 9l4 14l6 4l12 12l14 8l21 19l6 20l6 33h-2l-2 2l4 6l2 60l4 16l2 4l5 2l-2 29v6l-3 6l7 17v18l-15 59l-12 21l-10 29l-11 18l-28 16l-58 7l-24 -9h-31l-12 -6h-6l-10 -4l-5 -6 l-20 -8l-43 -33l-19 -10l-20 -17l-16 -10l-2 -4h-5l-10 -8l-14 -12l-8 -9l-2 -4l-2 -6l-4 -2h-5l-12 -20l-10 -11l-4 -2l-6 -2l-35 -45h-10l-62 -67l-2 -4l-8 -5v-4l-6 -6l-6 -10l-35 -47l-27 -53l-12 -47v-21h-4l4 -41l10 -18l10 -2v-13l7 -14l-11 -16l-20 -5l-15 5l-6 2 l-4 6l-6 2l-18 8h-4l-21 14zM549 391l2 -4l6 -8l2 -4h6l2 -4l4 -2h7l4 2l4 4l12 26l4 2h6l-2 27l4 14h-8l4 2l-4 5l-6 -2l-12 -11l-25 -28l-4 -4l-4 -7z" />
<glyph unicode="I" d="M-20 231v7l6 8l10 -2l10 -21l19 -18l2 -6l8 -21l6 -2l6 -16l25 -17l4 -10l4 -4l12 -16l6 -4l8 -3l25 -14l4 -6l2 -6l2 -2v-4l8 -2l11 -9l16 -2l6 -4l10 -6l11 -4l4 -4l8 -2l6 -6l6 -4l11 -8l6 -3l6 5l18 -9h23l37 -10h24l12 2l23 -4h27l12 4l8 -4h8l35 14l45 7l58 24 l10 6l12 6l27 15l8 10l12 8l8 6l4 2l7 2l2 5l6 6v4l39 51l28 63h4l5 9l-2 4l26 90l6 84l6 16l2 19l-2 4l5 6h2l2 74l-4 106l6 12h-6l4 37l-9 6v35l-6 21l4 2l2 4l-4 6l-8 39l-10 4l2 39h-4l-12 78l-31 129l-10 24v23l6 6l2 6l26 17l15 -19l4 -12l18 -10l8 -48l7 -18l-2 -4h4 l18 -80h2l6 -14l4 -8l-2 -17v-4l2 -6l2 -14l23 -86v-50l-6 -12h2l12 -29l-2 -4l2 -6l8 -6l6 45l-2 8v21l-10 90l-6 27l6 2l-8 4l-4 28l-8 19l-2 10l2 16h-4l4 9l-4 14l-4 6v10h-5l-6 39l-4 10l-4 17l-12 22l-6 47h-4l-7 13l-4 12l-2 4l4 2v2l4 11h7l4 -5l35 7l-7 -50l2 -10 v-4l2 -2l9 -16l10 -13h2v-22l14 -25l2 -24h2v-17l7 -8l4 -39l6 -14v-17l8 -20l-4 -49l4 -10l-2 -13l6 -28l-4 -23v-22l-4 -9h4l-8 -106l-2 -12l4 -9l-10 -36l4 -21l-4 -29l-5 -26l-6 -10l-2 -46l-4 -20l-4 -4l-2 -23l-16 -24v-27l-11 -22l-8 -50l-16 -20v-10l-25 -66 l-16 -18l-10 -23l-13 -8l-39 -55l-10 -6l-12 -9l-8 -8v-2l-45 -31l-35 -8l-8 -8v-4l-9 -6l-4 -4l-104 -45v4l-41 -12l-12 -3l-6 -2l-50 -6l-65 6l-19 9h-8l-12 2l-31 10l-4 6h-8l-21 10l-14 25h-12l-41 29l4 4v4l-8 -2l-8 6l-21 18l-6 10l-10 13l-2 8h-13l-12 18l-2 15l-2 6 l-10 12l-10 8v4l-5 9l-6 6l-20 37zM76 1171v13l37 24l14 4v5l25 26h6v6l43 4l8 -10l61 -37l17 -8l80 -6l6 -2l14 2v-6l4 -4l15 -4l43 -2l8 -5l16 3l4 -3l72 -2l12 7l6 2l66 2l102 18v2h-6l-4 8l-6 -2l-2 2l-10 9v8l4 2l6 4l4 2v8l2 16h8l31 -20l2 -4l10 -6l4 -8l-4 -5l-2 -6 l74 15l10 -2l4 -2l-2 -9l-6 -8l-6 -4l-12 -4l-13 -6l-30 -6l-27 -11v3l-6 -5l-25 -2l-20 -6l-72 -20v-6l-55 -17l-15 -2l-12 -2l-2 -4l-80 -12l-4 -2l-10 -4l-2 -2l-8 -3l-9 5l-6 2l-12 -7h-2l-18 3l-9 -3l-18 3l-14 -5l-91 2v5l-12 -2l-12 8l-12 4l-23 4l-4 2h-27l-16 10 l-21 10h-10l-53 29l-2 4z" />
<glyph unicode="J" horiz-adv-x="962" d="M-33 373l4 6l2 6l11 10l18 11h4l10 10l23 16h8l6 -2l4 -8v-51l-4 -9l4 -6l11 -53l2 -4l4 -14l8 -13l6 -6l23 -65l12 -19l-6 -10l12 -10l2 -8l8 -11l6 -8l7 -10l8 -14l10 -17l12 -14l2 -4l4 -4v-4l15 -11l4 -10l12 -6v-10l14 -8l19 -23v-4l2 -2l8 -4l53 -56h7l2 -32l8 -6 l6 -2l2 2l6 4h6l6 -2l2 -4l62 -52l10 -4l6 -4l4 -2l4 -10l19 -8l4 -7l6 -2l2 -8l27 -10v-2l31 -16l12 -13h12l2 -4l17 -10l30 -14l17 -4l4 -3l26 -10l62 -14l39 -2l28 39l2 20v6l7 21l2 55l-2 8l-2 6v84l4 11l-9 94l5 121l-5 53l5 10v15h6l-13 28l2 31l2 12l-2 2v29h-4 l-2 10v148l2 8v8l-10 117l6 8l-4 25l2 12l-2 10l-2 113l6 6h-8l-2 16v166l-4 14v3l2 4h2l6 22l4 57l-2 5v2l-4 47l2 37l-6 -4l-16 -3l-7 -4l-40 -16l-19 4l-24 -12l-41 -6v-4l-154 -17l-6 -6l-4 -6l-2 -17l2 -4l-6 -67l4 -21l6 -6v-59l18 -51l17 -60h4l6 -6l4 -18l-2 -7 l2 -8l4 -4l8 -4l2 -14l-4 -8l-18 -15l-17 -6h-8l-6 10l-2 4l-8 9l-193 335h-6l-4 5l-31 69l-8 13l-2 2l-4 2l-2 2l-4 12l-8 8l-31 41l4 4l2 12l14 19l27 18h8l13 -10l18 -8l6 -2l4 -4l10 -8l2 -5l5 -2l6 -2l61 -28l23 -6l8 8v12l41 53l24 -2l9 2l2 -22l6 -21l-6 -26v-9 l6 -18l2 -2l61 -10h8l19 -6l84 6l90 14v-4l4 2v2l47 16l2 15l17 10v4l24 17l21 4l22 16l15 8l6 2l12 -6l2 -2l2 -4l-4 -4h10l-4 -51v-93l-4 -32v-47l-4 -13v-4l-12 -6l-7 -20v-21l9 -12l6 2l4 -4l-8 -78l2 -66l-2 -14l-2 -4l-9 -49l3 -4v-62h4l-11 -118l7 -23l-9 -131l-6 2 v-6l2 -12v-46h-8l-2 -2l12 -8l2 -41l-4 -96l4 -61l-2 -56l-2 -4l-2 -8l2 2l4 -2l-2 -68l-2 -14v-10l4 -8l-8 -213l-10 -25l-10 -12l-6 -19l-11 -10l-8 -10l-16 -19l-41 -20l-15 -2l-8 -4l-24 -4l-11 4l2 4l-6 2h-4l-6 -2l-16 4l-2 2l-31 6l-14 4v6l-50 13l-14 10l-4 2l-4 6 l-23 2l-59 35l-12 12l-2 6l-19 9l-22 22l-8 2l-11 13l-6 6h-20l-17 24l-8 -2l-25 25l-4 6l-6 6l-16 10l-45 47l-27 33l-8 4l-6 2l-8 25v8l-9 10v-18l-22 22l-14 43h-9l-4 -4l-8 15l2 6l-4 6h-2v-4h-8l-27 39l2 6l4 6l-8 -2l-4 4l-6 14l-2 -2l-6 2l-27 54l-37 55l-4 12l2 2 l2 4l-6 7l-16 18l-19 45zM276 1153l19 -37v-4l8 -4l4 -8l8 -23l13 -6l6 -14h4l24 -51l5 -7v-4l30 2l11 33l-27 109l6 4l-14 6l-6 -8v-8h-7l-2 14l-2 6l-8 4l-57 19h-4l-8 -5l-3 -12v-6zM819 1061l4 -23l4 -2l2 -12v-4l-2 -4l-4 -21l4 -8l4 -4l5 23l2 8v4l-4 14l-3 2l3 21 l4 30v5l-2 6l-5 2v8l7 12v10l-15 5l6 -41l-4 2v-4h2v-13z" />
<glyph unicode="K" horiz-adv-x="1011" d="M29 4v16l10 13l-2 12l29 35l6 12l4 6l6 13l10 36l8 17l2 8l21 80l2 22l10 11l-4 28l10 11l-2 49l8 43h5l2 16l-2 4v4l6 17v4l-2 4l-2 8l2 43l16 111l-2 100l2 14l-4 13l-8 84l-13 32l-4 19l2 12l-4 6l-6 19l-24 63l-29 53l8 23l-2 4l4 2h2l4 6l13 23h12l-8 22l8 39l8 23 l-2 28l8 -2l6 -2v-4l31 -39l4 -12h4l29 -49h6l59 -123l13 -45l2 -29l6 -22l4 -2l-2 -31l4 -21l-4 -18v-72h-4v-32l-10 -37v-35l-6 -14l-7 -66l-16 -55l-2 -29l-12 -22v-21l-11 -22v-5l-4 -16l-8 -18v-11l-2 -16l-8 -25l-6 -6l-15 -49l-2 -18l-2 -11l-2 -4l2 -10l4 -4l17 29 l4 2l6 8l8 18l19 19l8 16l4 12l4 9l6 4l12 20l15 25l10 29l6 4l4 6l2 2l2 6h4l3 10l30 35l8 6l5 17l32 47l-12 30l-2 52l35 47l80 77l2 7h6l20 24l125 125l8 12h9l2 13l2 2l69 73l7 9l6 2l55 57l131 129l68 57l18 15l6 10l15 -4l4 -2l4 -8l-2 -4l-43 -43l-19 -9l-12 -16 l-8 -10l-8 -8l-7 -11l-24 -18l-23 -35l-10 -4l-10 -2l-19 -19l-6 -16l-8 -12l-12 -17l-39 -41l-6 -8l-8 -2v-6l-21 -18l-12 -17l-13 -12l-18 -33l-29 -28l-10 -5l-20 -20l-4 -25l-19 -14l-24 -59l-23 -23l-4 -6l-8 -10l-2 -6v-4l-25 -17l-4 -8v-6l-20 -29v-39l4 -8l6 -10 l10 -17l6 -20l6 -12l8 -2l17 -19l14 -18l6 -4l9 -15l16 -20l27 -23l6 -14l18 -14l4 -13l6 -6h7l14 -14l10 -6l4 -4l10 -15h5l14 -14l8 -10l6 -4l10 -19l-2 -10h19l6 -12l4 2l31 -39l2 -10h4l4 4h4l4 -7l115 -129l6 -12l6 -2l37 -35l4 -8l12 -10l23 -19h4l8 -8l-2 -4l-6 2 l-20 -16l-25 4l-6 6l-6 2l-4 4l-23 2l-65 47l-58 23h-12l-12 8l-19 10l-6 19l-41 30l-4 3l-14 16l-15 10l-4 6l-6 4l-6 11h-2l-4 6l-8 6l-11 6l-4 6l-12 15l-25 16h-2l-6 10l-141 125l-12 14l-9 9l-10 12l-6 2l-2 4l-6 6l-17 27l-14 10l-10 2l-10 -2l-19 -16l-2 -19l-14 -16 l-4 -6l-6 -6l-9 -15l-4 -8l-8 -10l-16 -17v-4h4l-25 -28l-16 -31l-10 -8v-11l-35 -38l-55 -84l-31 -33l-15 -33l-16 -14l-49 -49l-19 -27h-2l-6 -4l-8 2l-10 -2z" />
<glyph unicode="L" horiz-adv-x="1032" d="M29 606l67 70l4 8h2l13 16l6 2l10 11l37 39l68 90l8 16l6 4l-2 4l6 11l45 79l8 11l4 8l21 33l61 108l43 80l6 21l4 8l3 6l24 76l86 69h4l21 -26l26 -50l6 -24l7 -4l2 -6l-2 -13l-23 -65v-10l-12 -29l-2 -19l-8 -18l-5 -4l-6 -8l-14 -39l-6 -12l-6 -9l-4 -10v-16l-2 -8v-9 l-19 -28v-4l-4 -15l-16 -43l-17 -26l-12 -66l-4 -2v-6l-8 -16l-21 -43l-6 -33l-22 -41l-21 -88l-45 -107l-8 -24l-33 -66l-6 -43l-25 -59v-4l-4 -7l2 -6l-14 -22l-16 -68v-8l12 -6l41 -27l20 -12l2 -2l4 -2l4 -4h9l14 -13l31 -14l8 -6l10 -6l74 -39l2 2l18 -6l23 -12l39 -11 l10 -4h6l12 -2l82 -10l68 8l66 23l81 43l13 18l12 4l14 21l7 8l14 14l26 53l5 19l6 10l2 6l6 11l8 38v25l10 14v6l11 15l6 -2l2 -2l14 -2h4l8 -6l7 -7l-5 -16l-14 -35l4 -12l-8 -10l-10 -31l-13 -23l-2 -14l-6 -14l-8 -15l-10 -14l-4 -6l-2 -6l-54 -64l-32 -28l-9 -17l-6 -6 l-26 -20l-6 -11l-7 -4l-6 -2l-24 -18l-39 -21l-41 -10l-8 -8l-35 -12l-78 -19l-57 -4l-21 8l-31 2l-114 37l-29 19l-10 2l-10 8l-4 4l-13 4l-57 33l-62 41l-22 4h-33l-8 4l-2 16l2 9l6 10l31 45l22 57l11 47l10 17v10l6 12l23 58l2 10l16 49l6 8l2 6l23 74l4 2l24 72l2 10 l4 10l39 119l25 121l10 16l2 2v6l6 23l13 70l-2 10l16 63l-6 2l6 6l2 31l-10 4l-6 -6l-4 -6l-17 -16l-6 -23l-16 -18l-11 -27l-53 -76l-31 -49l-18 -45l-18 -18l-17 -33l-28 -33l-7 -14l-4 -4l-20 -31l-6 -10l-8 -13l-23 -20l-35 -8l-12 4l-4 -4l-23 -4z" />
<glyph unicode="M" horiz-adv-x="1492" d="M0 510l10 2l4 4l-10 6l14 35l58 96l10 11l2 8l14 14l25 35l2 2l10 12l6 10l35 58l19 18l6 8l14 13l21 30l106 115l6 4l8 8l2 7l19 12l37 31l22 28l31 23l10 8l11 6l12 12l8 7l10 8l78 57l8 2l17 12l22 17h6l11 6l8 4v4l90 47l8 2v-6h4l-2 8l6 4h6l17 9l55 18l37 -4 l22 -12l3 -4h4v-7l4 -2h6l8 -10l8 -4l2 -10l8 -4l7 -25l4 -14v-4l8 -31l-19 -72l-6 -8l-2 -2l2 -18l-2 -9l-4 -6l-10 -8l2 -14l-20 -51l-5 -23l-2 -2l-2 -4l-16 -23l-12 -41l-37 -57l-4 -25l-19 -38l-12 -15l-8 -22l-6 -15v-4l-15 -18l-14 -35l-31 -47l-4 -8l-6 -6v-7 l-80 -151l-6 -4l-4 -15l-21 -28l-2 -8l-63 -115l-6 -14v-5h2l8 -10l22 15l35 55l97 135l81 121l7 6l32 39l25 45l4 4l4 10l12 17l7 6l2 6l41 66l8 4l2 8l6 4l88 121l6 4l6 2l27 33l10 8l6 6l23 10l14 13l6 4l17 8l8 10l14 2l15 10l4 4h6l4 -2l4 -4l2 -4v-2l-2 -22l-8 -23 l-4 -20l-2 -13l-4 -6l-21 -43l-6 -8l-2 -4l-2 -6v-11l-4 -12l-72 -145v-4l-4 -13l-6 -16l-2 -6l-4 -6l-21 -58l-10 -16l-2 -10l-8 -10v-13l-2 -4l-2 -8l-2 -16l-13 -25l-4 -16l2 -13l-10 -53l-16 -51l-4 -4v-13l-2 -69l-5 -4l2 -49l7 -19l10 -12h4l12 -2l6 8l7 6v4l43 51 l18 17l4 14l12 15l11 14l12 4l-4 6l4 14l6 25l25 16l-7 5v6l15 16l28 55l19 70l6 8l8 43l19 27l14 31l6 2v4l4 2l2 -2l4 2l27 12l47 37l27 6h4l16 -14v-4l2 -9v-139l6 -33l4 -61l13 -62l2 -2v-4l-2 -8l2 -4l4 -14l6 -13l19 -88l12 -20l14 -53l21 -43l20 -29v-14h6l2 -19 l6 -6l13 -10l2 -4l8 -6l31 -60l-2 -20l-13 -2l-10 4l-10 8l-12 22l-21 7l-2 10l-18 18l-29 10h-14l-15 7l-2 4l-8 2l-14 12l-15 4l-6 4l-4 4l-4 6l-10 9l-4 6l-6 12l-13 33l-14 20l-4 17l-6 12l-11 23v14l-20 33l-12 41l-2 34l-7 13l-8 78l-4 8v12l-6 41l-29 -25l-4 -2 l-2 -14l-2 -6l-35 -76l-18 -27h-6v-2l-15 -34l-24 -29l-6 -21l-13 -4l-8 -10l-8 -12l-6 -14l-19 -13l-2 -4l-2 -6v-4h-4l-16 -14l-6 -11l-4 -4l-29 -22l-27 -8l-20 -23l-31 -21l-4 5l-4 -2l-35 8h-6v4h-4l-12 22l-9 33l7 41l-5 37l11 41l10 10v8h-4l6 52l6 6v2l6 8l4 4 l-8 18l2 5l6 14l19 51l-2 10l6 6l31 101l8 16l4 4v8l4 9l6 16l15 19v16l6 8l2 14l26 64l4 14l7 8l2 17l4 4l2 8l14 39l-4 8l-6 6l-8 -2l-19 -35l-6 -22l-41 -53l-8 -13l-2 -10l-14 -24l-2 -4l-9 -13l-8 -2l4 -4l-41 -57l-14 -25h-6l-10 -12l-37 -66l-15 -34l-39 -48v-2 l-10 -12l-4 -10v-2l-37 -53l-6 4h-6v-4h4l-2 -11l-6 -12l-2 -6l-12 -6l-11 -11l-2 -10l-39 -63l2 -4l-32 -33l-5 -12l-18 -17h-8l-4 -4l-8 -26l-9 -5l-2 -6l-8 -16l-14 -8v-6l-4 -7l-6 -10l-33 -37h-4l-2 -6l-9 -12l-6 4h-4l-6 -21l-2 -4h-8l-4 -2l-6 -4l-4 -8l-11 -6 l-26 -14h-4l-11 -5h-2l-6 3l-2 4l-4 10l-2 8l10 8l4 13l4 22l9 6l4 12l14 17l37 92l10 12l4 9l10 8l17 53l67 113l-2 10l39 76h6l-2 8l9 2l-3 4l15 33h4l65 127l19 28l14 31l2 8l4 13l7 28l18 13l4 24l6 8l6 15l4 6l11 18l22 47l-4 4l4 7l25 57l-4 4l16 35l8 8l-4 4l29 127 v29l2 8l-4 12l6 8l-19 45l-18 19l-20 4l-35 -2l-15 -16h-10l-4 -2l-6 -5l-23 -8l-2 -4l-8 -6l-10 -8l-8 -2l-15 -10l-2 -5l-10 -10l-61 -45l-11 -6l-16 -8l-4 -10l-23 -9l-30 -28l-2 -6l-21 -21l-6 -4l-41 -37l-4 -2l-16 -14l-2 -6l-5 -7l-32 -22l-2 -4l-4 -10l-13 -11 l-12 -14l-10 -12l-8 -11l-15 -6l-10 -24l-8 -2v-13l-10 -10l-23 -12l-2 4l-51 -68l-23 -36l-12 -33h-6l-12 -17l-11 -10l-8 -31l-16 -28l-2 -27l-4 -12l-11 -10l-6 -15l-2 -6l-10 -4l6 -59l-8 -66l-8 -2l-2 4l-19 8l-4 11l-4 6l-10 32l-2 5l-4 4l-7 4l-16 20z" />
<glyph unicode="N" horiz-adv-x="987" d="M55 23l56 372l6 6h-4v9l10 41v26l10 47l4 6l2 7l2 20l4 90l7 31l2 53l4 12v7l4 14l-4 20l8 134l-31 120v6l-6 13l-16 94v18l-15 80l4 23l9 8l4 27l4 8l6 6l12 6l2 4l19 21l12 -2l14 -35l4 -15l2 -14l3 -2l8 -16l8 -29l6 -27l-10 -8l-4 -4l-2 -6v-2l4 -39l30 -131l7 -16 v-17l4 -16v-8l10 -41l4 -2l8 -2v45l17 39l14 12l37 18l8 -8l2 -49l-6 -31l4 -61l-4 -13l-2 -4l-8 -63l6 -21l53 -118l6 -11l6 -8l9 -6l6 -27v-10l2 -6l12 -8l8 -19l43 -51l31 -47l8 -10l12 -6l105 -107l10 -18l12 -6l7 -9l6 -2l2 -4l6 -8l4 -16l4 -2l8 -6l8 -3l17 -16l6 -2 l4 -6l2 -4l8 -2l15 -19l2 -8l4 -4h10l4 -12l17 -8l4 -9l14 -12l10 -6l8 -12l2 2l5 -4l6 16l-11 68l-4 75l-2 13l2 8l-6 125l2 131l2 4v39l2 12l2 14v17l7 88l-3 215l9 160l-2 6l2 26l4 37l2 15l2 90l16 67h4l6 2l11 -2h49l43 -10l22 -10l21 -27l4 -20v-37l-8 -8l-6 -17 l-6 -10l-29 -63l-2 -29l-2 -2l-6 -14l-7 -17v-18l-6 -8l-2 -21l-6 -2v-4l-6 -6l-2 -6l-2 -9v-2l4 -20l-8 -19l4 -22l-4 -6h-4l-2 -37l-6 -27l-5 -4l-4 -2v-37l-6 -18l-2 -66l-8 -45l-2 -6v-63l-6 -25l-2 -55l4 -13l-6 -26l2 -21l-4 -122l6 -23l-2 -37l4 -14l2 -4l-2 -4 l-4 -2l4 -5v-12l12 -102l23 -111l-4 -6l2 -6l-56 -57l-4 -9l-8 -8h-10l-6 4l-9 13l-14 12l-4 6l-14 12l-4 6l-9 9l-4 2l-6 4l-55 49l-10 12l-11 10l-8 7l-33 32v2l-6 7l-26 24l-7 8l-4 2l-14 15l-94 100l-72 92l-12 10l-2 5l-74 94l-12 22l-8 13l-9 14l-2 2l-16 31l-4 6 l-2 2h-6l-9 -8l-2 -4l-28 -125l-2 -2l-8 -27l-13 -43l-18 -47l-8 -62h-4l-29 -92v-10l-4 -8l-13 -45l-6 -43l-2 -19v-4l2 -37l-20 -22v-2l-6 -4l-9 -6l-12 -17l-10 -8l-10 -4l-6 2l-5 2l-2 4zM182 688l2 -2l4 -14l-2 -76l9 -25l4 -2l10 -2l12 6l6 54l21 55l2 25l-6 28 l-29 56l-2 12l-4 18l-4 4h-6l-13 -39v-12h4l-2 -67z" />
<glyph unicode="O" horiz-adv-x="1206" d="M61 520l5 27v8l10 61l-6 21l4 8l2 37l8 16l4 13l16 69l31 78l15 23l4 2l4 14v8l16 37l16 19v6l9 10l2 6l-2 6l-17 17l-18 12h-19l-32 14l-4 8v11l-5 45l15 43l-2 12l59 66l39 20l2 6l10 8l2 4l78 37l41 13l6 6l68 12h8l4 -2l6 2l9 6l43 -2l24 12l51 -12h45l33 -8l21 2 l32 -12l47 -6h84l11 -9v-4h24l54 -26l14 -13l10 -4l6 -8l80 -47l6 -10l2 -2l8 -4l21 -25l2 -8l2 -6l21 -7l10 -10l14 -18l4 -27l8 -10l4 -21l7 -2l8 -6l6 -2l4 -4l19 -39l16 -90l4 -63l-2 -23v-53l-6 -74h-4l4 -2v-2l-6 -12l-39 -144l-8 -8l-3 -4l-2 -14l-10 -25l-8 -16 l-10 -12l-4 -25l-19 -39l-8 -8l-8 -17l-68 -110l-4 -2l-12 -4l-6 -4l-4 2l-6 -13h4l-15 -22l-4 -2l-2 4l-8 -8l6 -2l-61 -62l-25 -10l-8 -10l-12 -11l-60 -45l-33 -12l-30 -18l-27 -4l-24 -11l-15 2l-8 -8l-27 -2l-69 -24l-47 -2l-13 2l-6 -9l-4 5l-24 -5l-76 13l-8 8l-23 8 l-2 4l-6 2l-6 -2h-6l-5 2l-10 -2l-6 6l-31 23l-61 55v4l-6 6l-6 2l-13 17l-6 12l-6 8l-10 13l-4 2l-4 10l-4 18l-13 6l-6 11l-10 22l-4 4v11l-6 2l-2 6l-15 26l-4 21v6l-6 57h-8v4l-8 33l2 8v2l-2 7h-2v32l4 7l-4 6v10zM158 575l2 -32l2 -11l2 -16l2 -49l8 -18l2 -11v-10 l10 -29v-22l11 -12l4 -17l4 -8l2 -8l43 -80l14 -21l10 -6l33 -39l12 -6l19 -18l2 -4l68 -45l8 -4v-5l6 -2l4 -2l2 -2l23 -6l10 -4l18 -8l4 -2l15 -2l77 -10l66 6l61 14l64 29l16 4l6 4l23 12l63 51l35 43l6 4l9 9l-2 8l4 2l2 2l33 41l-3 4l7 6l10 2l16 19l10 34l19 39l14 13 l10 22l-4 17l19 10l31 104l4 45l4 17l8 12l-2 2l-4 21l8 77l-8 74l4 16h-4l-10 31v10l-5 7l-2 32l-12 31l-6 16l-4 21l-4 6v14l-17 15l-8 32l-12 5l-25 38l-14 13v6l-45 31l-12 10l-6 4l-74 39l-13 2l-8 4l-22 2l-19 4l-8 6l-12 4l-10 7l-29 6l-4 -6l-12 2l-11 -2l-43 14 l-8 4l-22 4h-13l-4 -4l2 -27h-10l-12 9l-29 4l-25 -2l-12 -4l-6 2l-12 -7l-13 -2l-8 -4l-47 -32l-12 -11l-6 -6l-4 -2l-4 2l-11 -4l-8 -4l-8 -6l-6 -13l-31 -20l-6 -6l-10 -12l-49 -66l-13 -25l2 -20l-14 -6l-35 -70l-2 -6l-4 -14l-10 -21l-4 -28l-13 -39l-22 -99l-2 -98z M184 1126l4 -36l15 -29l6 -19l6 -6v-4l12 -6l9 2l8 8l8 13l2 8l6 6l12 20h4v4l3 3l43 47l32 28l6 9l17 14l4 2l14 18l-6 29l-29 8l-4 2l-20 -10l-27 -4l-16 4h-14l-25 -10l-31 -17l-30 -26z" />
<glyph unicode="P" horiz-adv-x="911" d="M55 1075v31l8 22l7 13l4 6l61 74l43 26h10l19 17l31 12l26 18l107 45l39 7l14 8h4v2l74 18l-2 -4l8 -2h4l10 8l25 6h8l8 4l133 -6l2 4h7l32 -6l92 -55l25 -35l8 -2l6 -6l6 -4l25 -21l8 -14l8 -24l3 -3l-11 -12v-4l6 -4l15 -6l8 -6l4 -6l2 -5l2 -6l-2 -30l4 -15l-4 -39h2 l2 -4l-2 -8l-4 -12l-2 -15l-6 -10l-8 -35l-43 -49l-11 -14l-2 -8l-26 -25l-13 -8l-8 -4l-45 -27l-16 2l-17 -16l-6 -4l-14 -13l-6 -2h-15v5l-6 -5l-51 -8l-6 -4l-8 -2h-6l-25 -6l-8 -4l-2 -4l-55 -4l-37 -17l-41 4l-13 4h-14l-10 5h-4l-10 -2l-7 -9v-20l-4 -4v-13l-4 -4 l-2 -20l-8 -12v-29l-4 -12l-2 -35l-8 -35l2 -20l-11 -27v-19l-4 -16l-6 -10l-2 -23l-2 -26l-10 -31l-2 -8l4 -19l-19 -65l-12 -166l-6 -139l2 -19l-2 -4l-12 -10l-11 -2l-16 -2v-6l-43 -23h-12l-4 4l-4 17l-2 63l-5 29l5 22l-13 62l8 22l-12 37l-2 19l-10 55l2 24l-2 9v6 l2 8v8l-6 10l-2 54l4 4v6l-8 27v4l2 4l4 4l10 22l-18 23l2 26l2 7v6l-2 18l4 10l-2 7l-6 8l-5 2l3 26l2 9l-2 4l-7 8l-4 55h4v15l-8 24l6 37l-2 23l-20 57l6 6l31 -14l22 8l6 12l4 33l5 16v6h-7l-4 3l-14 20l-12 27l-33 10l-19 6l-4 4l-14 8l-23 33l-6 25l4 6v8l-2 4z M172 1151l4 -6l4 -4v-6l13 -19l45 -37l8 -4l2 -2l43 -24l6 -11v-4l-21 -18l-20 -6l-14 -15l-19 -10l-18 -12l6 -23l2 -6l-6 -31l-2 -6l-2 -14v-39l6 -25l2 -38l-8 -21h4v-12l4 -19l6 -16l2 -16l2 -7l-6 -26l8 -19v-22l13 -29l-5 -24l5 -15l6 -53l8 -35l6 -12l18 2l2 12l3 4 l8 92l10 27l10 68l6 18v8l-2 11v4l-4 4l2 22l8 21v6l-4 14l-2 4v31l-26 -6l-13 10l-2 10l2 4l9 11l10 2l16 -6l10 6l2 6l-2 8l-6 16l2 23l-6 4l-4 94l29 11l18 8l21 10l8 -2l22 -10v-8l2 -7l11 -86l-8 -24l6 -51l26 -7h76l6 2l15 3l16 2l86 16l8 4l17 6h18l2 6h6l10 6l13 5 l37 24l18 6v6l2 3l12 8l27 22l2 4l2 17l6 4l6 12l6 4l-2 12l17 35l-2 11l2 10l2 20l-2 19l-4 10l2 8l2 14l-15 19v14l-2 6v11l-12 20l-8 10l-8 17l-8 6l-9 10l-14 14l-4 2v3l-4 4l-4 2l-6 8l-17 10l-4 4l-10 6l-41 23l-33 12h-10l-19 6l-8 -6l-51 8l-6 -4l-37 2v-2l-18 -6 h-7l-18 2v-4h-10l-12 -8l-35 -10l-17 2l-4 -4l-37 -19l-22 -2l-74 -33l-16 -14l-23 -14l-26 -27l-15 -8l-6 -4h6z" />
<glyph unicode="Q" horiz-adv-x="1282" d="M53 793l13 38v25l12 35v6l4 12v11l18 18l15 47l4 2v2l6 4l12 27l35 43l6 2l4 4v12l6 6l5 3l22 20l8 8l17 12l4 3l55 30l18 23l7 2l10 10l49 31l18 16l5 4h4l2 -4l22 25l12 2l15 14l12 2v6l62 27l8 2l2 -4l16 12l12 -4l35 12l84 21l105 -2l10 -2h16l8 -8l15 -23l16 -2 l10 -14l27 -11h27l43 -22l4 -6l4 -2h16l8 -4l9 -11l6 -2l20 -14l2 -2h4l7 2l8 6l8 14l-2 15h-2l-2 4l-4 12l37 -8l6 -2l4 -6l6 -8l14 -11l2 -4l11 4h8l2 -12l4 -6l12 -8l4 -2h11l16 -13l6 -8l8 -12l15 -8l8 -8l12 -27l19 -16l2 -5l12 -14l2 -6l8 -18l2 -7l4 -6l2 -10l8 -12 v-8l3 -17l12 -8v-16l8 -17l2 -65l6 -15l-8 -43h-6l-4 -8l-2 -10h8l-14 -47l-2 -13l-11 -12l2 -8l-8 -20l-16 -25l-10 -35l-11 -8l-4 -18l-4 -9l-6 -6l-4 -2l-12 -27l-23 -26h-6l-8 -12l-13 -21l-4 -8l-6 -8l-6 -6l-18 -25l-29 -29l-14 -16l-2 -4h-9l-8 -8l-14 -13l-6 -8 l2 -4l-4 -2v6l-39 -33l-15 -10l-8 -2l2 -6h-8l-6 -6v-4l-4 -2l-2 -2l-33 -25l-35 -20l-10 -5l-10 -2l-37 -24l-10 -4l2 -6l-7 -4l-4 -3l-24 -8h-8l-11 -8h-4l-49 -24l-100 -7v-8l-29 2l-6 -4h-8l-8 -2l-21 2h-4l-27 -26l13 -21h4l98 -2l43 -10l14 -6l2 -2l5 -2l12 -3l6 -6 l6 -4l6 -2l17 4l34 -20h7l12 -6l8 -7l16 -6l3 -2l6 -4l14 -2l8 -4l2 -2l37 -16l80 -54l39 -22l18 -19l9 9l4 -2l4 -7l18 -10l4 -12l35 -14l18 -9l11 -4l59 -2l8 -4h13l6 -6l2 -6l-6 -2l-27 -10l-49 -7l-60 7l-6 4l-6 -2l-4 -2l-2 4l-20 6l-11 2h-6l-33 10l-16 8l-12 4l-19 9 l-14 8l-6 -4l-25 16l-16 6l-4 2l-58 19l-75 16l-74 8l-29 -2l-4 6l-26 -2l-27 6h-109l-90 -10l-4 2l-6 -2l-20 -2l-19 -10l-22 -6l-7 4l-4 4l-2 8l11 4l4 2l-9 8l15 21l16 18l8 33l27 10l4 15l12 16l13 14l10 11l6 4l21 12l10 14l4 7l12 12l-2 12l-47 8l-39 21l-39 4l-2 8 l-16 2l-17 10l-6 2l-6 5l-18 18l-11 2l-18 18l-45 39l-31 50l-8 6l-12 12l-64 119v18l-6 14l4 9v4l-2 4v4h-4v6l-2 6l-8 10l-10 37v15l-5 4v59l-6 23zM176 639l8 -8l11 -33v-6l16 -53l20 -19l11 -14l10 -12v-2l16 -21l8 -8l7 -2l4 -2l6 -4l4 -29l29 -6l22 -14v-7l17 -8v-4 l32 -6l19 -12l18 -17l4 -2l8 -2l7 -2l20 2l29 -14h10l16 -2h7l10 -4l43 -2l45 39l12 20h2l4 12l11 9l49 71l4 2l8 13l-2 20l8 18l4 15v4l8 10l-8 70l-6 6l-2 10l-4 6l-25 19l-39 12l-10 4l-8 8l-8 2l-6 -2l-7 -4l-59 2l-72 -14l-24 2l-55 -14l-11 -4h-14l-16 4h-9l-8 2 l-10 -4h-33l-12 -5l-31 5l-6 4l-8 4l-21 -2v2l-14 8l-33 10l-2 -4h-2l-2 -39l4 -2zM211 881l27 -41l6 -9l10 -8l35 -18l24 -2l78 -25l51 2l25 -6h12l15 6l20 -8l39 4l2 -4h39l22 10l52 -4v-4h12l6 -6h2v-10l31 6l6 -4l8 -12l6 -5l6 -2l21 -8l2 -8l12 -6l19 -27l6 -86l-6 -16 l-4 -17l-4 -6l-11 -10l-20 -63l-6 -7l-2 -8h-9l-8 -18l-28 -39l-9 -21l-2 -2l-2 -4l-4 -2l-4 -6l-10 -12l-2 -6h-2l-4 -2l-15 -15l-8 -6l-2 -18l4 -4l12 -2h23l94 18l29 -2l6 2l6 4l4 6l21 10l14 7l14 10l11 4l41 27l47 18l2 4l8 10l8 4l23 13l10 16h12l6 4l2 10l15 9l16 22 l12 2l11 19h2l8 10l2 4l8 6l8 14l6 5l7 8l2 6l2 2l20 16l2 13l13 16l2 4l6 2l41 92v8l6 9l10 30l6 33l-2 10l4 13l-4 75l4 27l-12 19v6l-2 4l-2 6l-10 18l-4 2l-13 25h-2v6l4 10l2 4l-4 11l-6 10l-4 2l-29 6l-10 19l-70 61l-12 8l-2 2l6 2l-4 4l-6 2l-16 13l-21 6v2l4 2 l-22 4l-43 27l-11 2l-6 2l-53 20l-41 13l-10 4h-10l-78 14l-2 -4l-39 8l-88 -8v2l-6 2l-4 -2l-7 -6l-34 -10l-21 -3l-2 3h-4l-21 -5l-34 -12l-23 -16l-22 -4v-2l-13 -7l-10 -6l-18 -12l-2 -8h51v-23l10 -10l-2 -6l10 -8l4 -11l41 -16v-4h6l-2 -10l9 4l4 -4l49 -39l10 -14 l4 -5l10 -12l9 -14h10l6 -4l4 -33l-31 27l-8 10l-8 6l-6 4l-15 25h-8v2l-24 18l-13 8l-2 2v13l-2 2h-2v-9l-18 9l-12 6h-13l-20 10h-17l-14 16l-31 -2h-10l-10 4l-31 -2v-4l-14 -6l-12 -16l-48 -45l-6 -8v-11l-43 -61l-10 -29v-39l-2 -4v-6z" />
<glyph unicode="R" horiz-adv-x="845" d="M53 1231l39 31l51 28l15 -6l14 6l80 4l4 2l8 2l64 2l10 3l4 2l47 2l2 -4l6 -5l19 7l65 -7v-2h21l76 -8l2 -4l69 -16l8 -11l31 -8l45 -18l8 -8l9 -11l4 -2l18 -14l4 -2l2 -4v-6l19 -10l26 -35v-13l2 -2l13 -24l4 -15l2 -36v-29l-4 -21l-9 -28v-15l-45 -88l-6 -4l-2 -6 l-20 -29l-21 -18l-32 -33l-46 -41l-6 2l-16 -16l-12 -8l-9 -6l-10 -9l-69 -47l-5 -4l-12 -2l-20 -16l-15 -17l-2 -12l-4 -67l10 -31l27 -49l41 -68l14 -8l13 -17l41 -53l16 -12l27 -33h2l8 -4l10 -27l10 -4l13 -18h4l22 -23l21 -43l59 -55l14 -24l13 -9l4 -6l2 -8l-2 -6 l-8 -6l-13 6l-22 12l-21 4l-4 -2l-2 2h-4l-35 29l-22 -2l-23 16l-10 10l-8 7l-2 8l-41 37l-2 6l-10 4l-9 10l-151 162l-10 18l-2 7h-7l-2 8l-53 90l-12 61l10 49l12 17l9 4l6 18l26 19l6 2l2 4l58 31l2 2l20 12l31 20l8 7l17 6v4l6 2l10 8l16 12v2l11 9l20 18l8 8l2 4l13 6 l10 21h4v4l14 16l35 48l2 14l4 2l19 63l2 17l2 8l-6 74l-2 2l-7 16l-10 27l-33 41l-8 2l-2 2l-14 16l-35 25l-37 16l-39 10l-49 7l-43 12l-22 -2l-9 4h-6l-2 -2h-90l-22 -4l-45 2l-29 -8h-17l-4 -4l-24 -7l-2 -2l-15 -8l-4 -4h-2v-4l2 -14v-27l19 -29l4 -51l4 -6l8 -4l6 2 l8 4l17 18l29 19h10l8 -12l4 -19l2 -8l2 -4l-2 -8l-8 -11l6 -18l-4 -143l-4 -23l2 -4v-39l-4 -12l-4 -86l2 -25l-6 -16v-6l2 -4l-4 -11v-32l-5 -25v-23l-4 -129l-12 -100l-2 -41v-14l2 -10l-6 -25v-8l2 -4l-6 -35l4 -119l6 -22l2 -2l-2 -3l2 -4l2 -10l-2 -16l-6 -8l-12 -9 l-43 -26h-21l-10 18l-12 6l2 15l4 26l-4 101l4 18l-6 10v37l6 49l-6 27l2 22l-10 72l2 33l-9 47l-2 90l-4 29l2 22l-4 11l-10 249l2 35l-10 105l-2 57l-17 74l-12 39l-23 24zM119 1149l8 -19l8 -20l-2 -6l6 -27l-4 -37l6 -24l-2 -23l6 -43l-2 -106l4 -19l-6 -63l37 6l2 100 l4 11l-2 43l2 4l-2 10v10l-8 115l-14 53l-2 29l-6 12l-19 10l-14 -4v-12z" />
<glyph unicode="S" horiz-adv-x="1007" d="M41 152l10 34l17 -6l14 -18l27 -51l4 -19l10 -6l6 -8l4 -4l6 -4l15 -19v-8h6l37 -37l73 -35l17 -2l4 -2l47 -2l119 27l45 26l20 7l35 16l12 8l11 6v4h6l35 27l8 2v4l20 14l47 41l9 5l8 6l51 59l8 4l2 2v4l2 6l17 19l55 102v8l6 5l25 96l2 67l-17 60h-2l-8 14l-47 43 l-19 2l-4 4l-22 9l-88 -9l-41 -8l-43 -14l-12 2l-27 -4l-19 -15l-24 -6l-4 -4h-8l-62 -37l-12 -4l-2 -2l-25 -4v-4l-49 -16l-10 -9l-68 -12l-24 2l-13 2l-8 -4l-69 31l-9 10v21l11 26l8 10l14 23l6 8l29 51l63 101l7 6v2l12 20l-4 2l4 4l6 3l12 20l4 6h2l41 53l7 19l12 8 l4 6l39 53v7l18 16l2 8l13 8l10 23l4 6l12 10l8 13l5 2l12 18l43 59l8 9l6 10l35 49l14 12l6 15l9 8l22 31l6 6l4 2l11 18l2 2l4 6l8 11l10 6v2l8 14l7 10v9l10 4l18 16l11 6l6 6l14 4l10 17l4 4l2 4h25l16 10l4 -2l2 -4l3 -8v-2l-5 -29l9 -33l20 -2l6 -14l2 -8l19 -12v-13 l4 -8l8 -22l4 -5l2 -10l-8 -12v-12l-23 -31h-6l-4 4l-63 6l-21 -14l-6 2l-4 -4l-14 -8l-62 -39l-8 -9l-4 -2l-8 -14l-10 -8l-5 -14l-20 -9l-19 -20l-47 -33l-10 -6l-8 -16l-10 -15l-6 -4l-2 -8l-5 -10l-16 -6l-6 -5l-4 -6l-21 -20l-20 -17l-6 -14l-17 -12l-30 -39l2 -6h-6 l-5 -8l-6 -2l-22 -43l-2 -11l-4 -6l-2 -6l-7 -2l-10 -4l-16 -35l-8 -8l-7 -8l-12 -27l-8 -10l-2 -8l-12 -23l-7 -8l-16 -33h4l-2 -6l2 -4v-6h21l12 4l12 -4l8 2l23 4l8 2l4 4l148 33l32 14l7 2h4l30 15l21 4l45 16l14 -2l6 2l9 4l10 6l31 6l4 -2l59 15l6 -6l10 2l9 2h4l8 -4 l29 4l24 -7l8 -8l29 -8l43 -37l21 -35l4 -18l6 -12v-19l6 -22l-4 -2l2 -29l-10 -23l-2 -30l-9 -35l-12 -18l-10 -35l-31 -76l-20 -23l-11 -12l-4 -2l-4 -20l-14 -23l-21 -20l-6 -13l-6 -16l-20 -23l-13 -4l-24 -35l-8 -8l-4 -6l-9 -6l-10 -10l-4 -2l-6 -6l-10 -5l2 -8l-6 2 l-13 -12l-10 -2l-16 -16l-13 -11l-37 -28l-30 -15l-31 -24l-10 -2l-82 -49l-6 -2l-8 -7l-25 -10l-23 -2l-2 -6h-12l-14 -4l-13 -2h-32l-31 -8l-61 4l-23 6l-47 22l-35 25l-14 14l-8 15l-5 2l-18 37v20l-20 45l2 4l-5 2l-10 21v10z" />
<glyph unicode="T" horiz-adv-x="1323" d="M-41 1225v4l14 6l9 2l12 23l20 4l13 4h4l6 -4l6 -2l14 10l33 -35l8 -6l2 -4l64 -41l39 -15l8 -6l8 -2l37 -12l18 -4l15 -6l22 -11l27 -2l18 -8h15l6 -2l106 -12h15l24 -2h8l70 -6l23 4l90 2l30 10l11 6l2 -2l30 10l9 9l-2 14l-5 4l-2 4v2l15 13l12 2l4 8l51 12l13 6l14 4 l6 4l92 25l54 8l149 39l51 8l58 17l26 4l17 4l49 14l76 12l6 -4l-2 -10h14l4 -4l-2 -12l-4 -8l-16 -27l-21 -10l-55 -15l-6 4l-11 5l-2 2l-10 -5l-37 -16l-10 2l-4 -2l-10 -10l-9 -47l2 -6l-4 -15l-49 -16l-30 -2l-13 -8l-30 4l-21 -11l-8 -2l-21 -10l-22 -6l-2 -6l-53 -4 l-25 -12l-66 -19l-34 -4v-4h-7l-16 -2h-27l-14 -2l-49 -8l-6 -2l-17 -7l-2 -26l7 -8l2 -17l-9 -22l-4 -8l-4 -15l-2 -20l-12 -31l2 -45l-14 -59l-2 -13v-12l-3 -8l-12 -60h4l-4 -18l-8 -43l2 -14l-16 -60l-4 -4l2 -2l-2 -16v-4h6l-23 -54l12 -37l-2 -28h-2v-8l-4 -4l4 -31 l7 -21l-9 -16l-2 -12l8 -13l7 -18l2 -16v-56l-2 -55l-9 -43l-6 -86l-2 -6l-18 -19l-17 -8l-28 -8h-23l-8 8l-16 33l-4 45h-3l7 121l2 10l6 61l8 21l-6 8v14l2 11l4 12l4 6v17l10 22v29l-4 4l-2 8l-2 4l2 14l-2 37l2 4v5l2 2v18l-12 20l4 17l-20 96l-9 23l-2 2v32l4 7l-2 8 l-6 6l-2 25l-12 18l-4 25l-47 59l-8 8l-9 10l-32 45l-11 7l-4 6l-14 12l-16 12l-7 11l-6 4l-14 14l-8 6l-4 4l-76 53l-8 2h-13l-26 19l-92 18l-72 29l-33 14l-53 50l-2 4l-12 10l-17 24zM430 1008l2 -13l14 -18l5 -2l4 -6h4l4 -4l14 -11l23 -28l32 -27l15 -18l6 -4l8 -19 l19 -18l24 -39l8 -17l4 -12l29 -55l6 4l2 4l4 4l-2 47l2 10l2 7l3 49l8 35l4 71v76l-12 14l-17 4l-29 -2l-2 -4l-18 -2l-23 2l-112 -10l-25 -14z" />
<glyph unicode="U" horiz-adv-x="1239" d="M41 979l8 20l33 35l27 19l53 49l31 14l10 17l178 102l35 10l24 21l205 65l43 2l60 -8l30 -20l21 -21l18 -35l14 -49l7 -57l-7 -84l-10 -37l-2 -25l-18 -41l-8 -47l-29 -82l-76 -180l-6 -2l-14 -37l-33 -61l-82 -158l-29 -39l-45 -92l-12 -16l-4 -25l-17 -24l-10 -25 l-6 -43l37 -29l70 -14l67 2l109 12l274 90l-6 35l-14 199l8 117l18 102l47 203l58 176l12 29h16l13 26l43 21l14 18l64 31l14 -17l-21 -39l-2 -24l-14 -49l-20 -35l-76 -219l-25 -88l-2 -37l-16 -60v-32l-6 -39l-5 -84l11 -144l35 -163l18 -50v-12l18 -57l-2 -57l-14 -13 l-20 13l-41 106l-54 31v6l-43 37l-8 18l-18 2l-131 -55l-4 4l-7 -8l-45 -17l-28 -16l-41 -4l-129 -45l-144 -12l-28 6l-37 -2l-41 14l-23 33l6 47l17 43l117 194l96 191l10 33l29 53l82 266l24 152l-2 80l-6 47l-27 55l-43 25l-55 2l-43 -6l-57 -21l-84 -41l-35 -25l-70 -73 l-34 -47l-23 -49l-4 -23l-21 -23l15 -34l-2 -23l-19 -6l-10 8l-16 -6l-21 23l-43 24l-45 37z" />
<glyph unicode="V" horiz-adv-x="1069" d="M27 287l20 147l27 131l24 105l11 20l10 62l14 39l14 28h3v8h-5l2 11l3 2l8 22l8 17l14 22v4l-2 6l62 117h4v6l6 10l2 5l39 61l10 20l29 44l12 -3l20 -16l5 -12l10 -13l4 -8l4 2l18 -26v-4l7 -9l2 -22l-29 -109l-10 -10h6l-19 -186v-21l2 -6l-2 -6l-6 -59l4 -4l-2 -74 l-4 -4l2 -2l2 -41l-2 -15v-20l2 -29l-4 -10l6 -12v-35l9 -47l-2 -27v-6l4 -23l12 -65l2 -41l14 -41l2 -8l-2 -12l11 -23l2 -8l4 -8l59 -11l121 17l2 2l18 6l41 25l11 4l12 2l2 4l6 6l4 6l6 2l97 82l61 88l18 33l2 2l11 12l4 4l6 23l49 98l37 102l4 23l19 47l6 37l2 4l2 25 l10 43l8 215l-14 104l-8 25v14l-25 64l-37 45h-2l-10 12l-18 18l-39 15l-45 4l-11 -10l-8 -5l-2 -2l-27 15l-14 20l29 70l8 31l8 24l4 4l6 2l2 -2l103 -24l33 -17l10 -16l2 -10l6 -4l18 -27l5 -8l4 -6l4 -17l12 -16l2 -8l-2 -9h-2l4 -6l4 -14l17 -23l28 -172l-4 -2v-20l4 -4 l-2 -21h4v-4l4 -2l-2 -61l-10 -58v-37l-4 -12v-6l-6 -20l4 -19l2 -2l-4 -10l-8 -19l-13 -88l-2 -6l-2 -8l-4 -6l-10 -29l-4 -16l-27 -78l-6 -12l-6 -21l-37 -82l-2 -8l-6 -18l-29 -52l-4 -20v-2l-6 -6l-6 -2l-6 -19l-11 -18l-8 -6l-57 -94l-10 -13l-25 -30h-4l-41 -52 l-65 -59l-19 -4l-35 -31h-6l-4 -4l-10 -2l-15 -8v-2l-30 -8v-5h-17l-36 -8l-93 2l-4 2h-33l-10 7l-12 71v37l-6 18l-2 21v20l-2 15l-13 143l-4 2l-2 115l-10 96l2 82l-6 84l4 18l-2 13l-2 16l-6 19l2 18l-10 166l-7 8l-2 2l-30 -55l-4 -10l-13 -15l-14 -43h-6v-6l-6 -10 l-4 -23v-8l-2 -8l-7 -6l-8 -25l-14 -69l-16 -43l-3 -23h-4l2 -2l-14 -68l-2 -32l-4 -25l2 -6l-4 -37l-4 4l-4 -22l2 -45l12 -25v-29l-8 -18l-4 -8l-17 -11h-8l-10 -2l-2 -2l-23 -4l-22 6z" />
<glyph unicode="W" horiz-adv-x="2080" d="M-14 172l2 25l53 65l6 2l10 12l156 140h4l4 4l109 94l10 6l14 10l11 9l112 98l101 68l88 61l4 6l8 6l43 33l168 98l26 9l37 20l4 4l7 2l8 4l10 6l6 2l10 5l23 6l12 2l8 2l7 4l20 4h45l23 -10l4 -4l8 -7l12 -8l8 -6l31 -65l-2 -39l-6 -17v-8l2 -4l-2 -2v-4l-10 -12v-19 l-2 -10l-9 -8l-4 -13l-2 -12l-2 -8l-4 -18l-10 -19l-12 -24l-9 -11l-4 -2l-6 -26l-35 -52h4v-4l-26 -45l-2 -2l-15 -16l-22 -39l-74 -100l-16 -19l-15 -18l-12 -6l2 -7l-47 -59l-10 -2l-4 -10l-23 -25l-20 -26l-6 -13l-4 -2l-17 -20v-4l-45 -50h8l2 5l4 2l5 4l30 18l8 4 l11 4l8 9l14 8l17 12l20 10l8 6l6 2l13 7l10 4l61 37h9l6 4h4l2 6l12 4l92 39l19 4l8 2l22 8l123 23h11l22 6h14l27 -21l6 -14l15 -12l16 -13l31 -34l22 -11l12 -4l5 -4l98 -43l98 -35l58 -8l53 -16h28l48 -11l63 -6l8 -2l6 2l4 2l23 84v21l4 12h-4l4 57l-2 11l2 6l4 4v12 l-4 2l2 2l4 84l-4 13l4 77l4 21l-10 29v131l-4 37l4 186l4 76l4 18l-2 10l2 2l4 101l7 32l-3 7l3 10v63l-3 9v4l3 4l18 -2l14 14l43 12l4 11l43 18l11 -4l8 -14l12 -31l8 -8l4 -6l-10 -5l-16 -26l-2 -12l-4 -5l-4 -18h-3l-2 -4l-10 -12l-10 -17l-27 -67v-39l-4 -4l-2 -4v-9 l6 -8l2 -153l-2 -3l-2 -8v-55l-4 -6v-8l-2 -11l8 -2v4l4 -4v-4l-2 -8l-6 -4l6 -68l-8 -12l4 -139l4 -10l-4 -76l11 -12l2 -11l-11 -4l4 -55l-4 -25v-120l-2 -13l6 -10l2 -18l-2 -9l-4 -10l-2 -10l-2 -6v-6l-14 -9l2 -4l-12 -22l-11 -13l-4 -8l-28 -39l-68 9l-190 10l-2 -2 l-7 2l-20 6l-8 -4l-4 2l-121 24h-29l-22 11h-70l-18 4l-9 6l-2 -4h-4l-2 2l-16 6l-2 4h-13l-30 12l-2 5l-6 4l-11 6l-12 14l-10 12l-6 9h-4l-27 20l-25 31l-18 6h-43l-92 -27h-35l-10 -12l-15 -6l-10 -6l-8 -4l-12 -11l-13 -6l-6 -6l-12 2l-23 -10l-30 -12l-2 -7l-13 -2 l-8 -8l-51 -33l-29 -14l-59 -57l-64 -53l-4 -7l-12 -14l-8 -10l-17 -19l-18 2l-10 9l-19 20l-4 2l-2 8l-18 19l-13 6l-4 8l-2 8v4l11 13l24 20l10 4l15 8l28 33l25 19l86 86l22 32l29 25l8 16l11 13l4 10l30 29l11 20l4 2l2 8l6 6l27 39l14 11l2 4l6 10l4 8l4 12l35 50 l10 12l2 8l31 64l27 41v8l2 6v4l8 8l2 17l10 8l2 20l15 27l20 82l4 57l-10 41l-41 12h-6l-4 2l-8 -8l-64 -8l-59 -35l-37 -6l-17 -18l-55 -33l-29 -25l-16 -12l-14 -6l-10 -4l-5 -6l-16 -7l-41 -34l-12 -4l-10 -7h-11l-90 -61l-10 -10l-18 -6l-50 -43l-53 -39l-55 -49 l-88 -105l-15 -10l-8 -17l-2 -2l-8 -10l-2 -2l-6 -4l-37 -68l-2 -6v-10l-6 -12v-6l-6 -11l-21 -22l6 -10l-4 -7l8 -4l4 -6h9l6 -12l-4 -6l-11 -6l-28 6h-35l-29 14h-16l-21 12l-6 2l-18 11z" />
<glyph unicode="X" horiz-adv-x="962" d="M41 -27l22 62l17 18l6 17l4 6l2 6l-6 12l6 21l10 10l4 31l7 10v8l8 12l6 17l4 6h-2l-2 2l12 10l6 2l-6 45l2 8v7l-2 12l2 10l4 19l2 12l11 12l4 14l6 25l2 10l-6 25l-2 49l4 2l2 6l6 43l4 15l2 6v8l2 10l-8 29v43l8 2l2 45l-4 65l13 -38l6 -62l2 -8l-6 -8l-5 2l-6 -15 l2 -26l4 -31l3 -2h4l6 -14v-76l2 -6v-6l-10 -35l4 -23l-9 -69l5 -33l4 -2v-4l4 -10h6l2 -5h12l4 -2l11 9l6 4l10 22v4l6 8l6 5l23 32l12 29l6 6l12 19l41 63l-65 105l-2 6v6l-6 4l-4 20l-19 31l-18 47l-4 2l-2 8l-9 25l-6 8l-35 94l-26 107l-12 119l4 26l-15 84l-12 37 l-2 33h2l4 41l10 22l33 25l33 10l10 6l4 7l6 12l13 -2l12 -19l4 -22l2 -8l6 -15l6 -35l4 -14l3 -80l8 -33v-28l-6 -17l4 -32l10 -9l18 -129l11 -30l2 -15l4 -8v-6l8 -22l-4 -11l16 -55l2 -2l4 -10l9 -13l12 -28l-4 -4v-4l4 -5l4 -8l6 -10l4 -10v-6l-4 -6l8 -11h11l4 -6l4 -2 v-6l4 -2l22 -47l66 86l41 61l10 23l16 20l13 29l94 135l18 16l25 41l6 9l12 14l47 68l9 6l10 20l22 29l35 59l6 21l15 24l10 6l25 17l41 10l14 10l24 4l5 4l18 -4l2 -20l-6 -78l-4 -4l-2 -8l-2 -17l-25 -63l-27 -10l-8 -11l-14 -2l-23 -14l-16 -27l-35 -32l-37 -33l-18 -29 l-16 -8l-5 -4l-2 -4l-6 -6l-10 -21l-6 -6l-2 -4l-17 -27l-49 -57l-20 -18l-21 -41h-8l-6 -15l-6 -4l-45 -63l-6 -6l-7 -5l-4 -8h-4l-10 -20l-10 -13l-37 -40h4l-29 -43v-3l4 -2l7 -10v-8h10l18 -39l8 -4l7 4l14 -27l8 -10l-8 -2l2 -8l4 -4l2 -8l6 -2l21 -15l-4 -10l8 2l8 -8 l16 -25l31 -41l6 -4l9 -2l4 -14l12 -10l4 -2l2 -7l4 -4l17 -2l38 -47h7v-4l4 -8l6 -8l14 -4l8 -11l11 -6v-8h6l20 -14l15 -13h6v-6l10 -8l6 -10l4 -25l14 -2l35 -28l31 -23l14 -2l7 -2l8 -6l47 -25l-17 -24l-79 24l-15 10l-14 15l-8 -2l-27 18v4l-33 23l-53 28l-18 27 l-13 -6l-6 8l-2 4l-8 2l-41 21l-6 8l-12 8l-19 23l-10 2l-39 22l-55 51l-2 9h-4l-9 6l-51 45v6l-10 8h-4v4l-47 49h-11v7l-38 -45l-23 -37l-14 -13l-23 -39l-16 -12l-10 -2l-5 -16h2v-6l-73 -103l-19 -41l-34 -43h-7l-8 -33l-8 -8l-23 -14l-6 -18l-12 -19l-18 -12l-21 12z M176 764l4 27h4l-2 -29z" />
<glyph unicode="Y" horiz-adv-x="983" d="M27 827l30 74l6 12l29 54v8l8 12l9 14l4 3v4l4 4l43 67l12 15l4 8l31 41l12 12l4 8l15 17l51 34l8 9l41 16l27 -2l32 -23v-4l4 -10l19 -61l2 -43l-2 -4l4 -15l-4 -98l-10 -76l-4 -2l-3 -6l-2 -47l-26 -127l-2 -27l-15 -32l-8 -58l-6 -8l-2 -4v-4l2 -4l-8 -21l-4 -39 l-6 -10l2 -51l18 -25l21 -10l32 -8l41 2l43 18h13l4 6l16 9l10 6l62 31l18 18l23 8l33 25l28 10l2 4l8 -2l5 4l4 6h8l59 37l4 21l4 4l-10 22l-2 76h2v6l-2 4l4 8l4 25l-2 4l2 19l4 139l9 37l-7 20l7 23l4 45l-4 10l8 29l4 104l-2 4v8l-2 21l-2 43l30 33l9 4l12 28l22 27l9 6 l6 6l8 -4l4 -4l14 -35l13 -61l-21 -131l-6 -17l-10 -94l-2 -2v-6l2 -12v-17l-10 -32v-41l-7 -64l2 -94l-4 -39v-45l-2 -10l-2 -8l2 -5l6 -4l13 -16l-15 -19l5 -30l-3 -45l-4 -4l7 -2l4 -107l-9 -45l-4 -84l4 -41l-16 -70l2 -20l-14 -45l2 -4l-2 -15l-21 -118l-16 -54l-6 -12 l-10 -16l-13 -23l-43 -78l2 -6l-6 -4l-6 -10l-51 -72l-10 -8l-9 -12l-10 -23l-35 -28l-16 -23l-4 -2l-6 -10l-9 -17l-8 -6h-4l-18 -20l-76 -35l-14 -12l-33 -4l-2 -5l-6 3l-35 -7l-10 -4l-19 6h-4l-6 -2h-4l-4 -2l-21 2l-24 9l-13 2l-8 4l-28 16l-9 6h-4l-8 2v4l-2 2v25 l18 51l15 23l8 10l6 4h6l97 -31l4 -4h16l43 2l4 2l10 2l33 9l64 22l18 14h4l2 5l19 12l16 16v4l10 6l31 29l6 10l4 2v5l13 12l4 8l4 12l24 41h6l2 2l3 4l2 7h2l-2 4l4 8l8 20v6l4 5l20 63l9 14l2 13l14 82l-2 6l2 16l4 47l12 53v60l2 6l-2 16l2 4l-8 130l-4 22l2 88l-10 6 h-4l-10 -10l-21 -12l-31 -11l-8 -4v-4l-49 -26l-10 -4l-8 -7h-2l-11 -8l-8 -6l-4 -4h-4l-10 -6l-17 -17l-61 -45h-8l-19 -10l-4 -4l-18 -14l-47 -17l-37 -24l-29 -6l-22 4l-48 18l-22 23l4 6l-10 20l6 19l-4 12v25l10 34l6 45l2 9l4 8l-2 6l11 31l14 98l10 21v6l-2 4l-2 8 l6 8l6 82l11 18l-5 9l5 12l-2 20l2 54l6 4l-6 12l4 84l-4 23l6 30l-15 41l-14 27l-12 10l-13 -4l-22 -12l-31 -31l-6 -12l-65 -92l-25 -21l-23 -45l-26 -43l-2 -10l-4 -2l-2 -4h-4l-11 -4z" />
<glyph unicode="Z" horiz-adv-x="1341" d="M27 41l4 12l80 88l14 11l53 53l15 6l4 4l2 4l8 4l90 86l12 19l10 4l41 45l2 4l29 33l17 14l6 8l67 66l39 33l37 43l10 18l2 45l-4 23l-4 2l-2 4l-4 6l-4 4h-4l-4 8l-35 45l-6 10l-6 9l-13 18l-4 16l2 5l17 20l12 33l10 6l6 2l25 -8l2 -2l6 -4l27 -11l100 -30l23 2l57 -8 l53 47l10 12l7 12l8 6l4 6l41 46l16 20l6 4l66 62l4 2l31 36l2 7l8 6l8 12l2 6l51 62l11 20l-11 4l-4 -2l-4 -4l-2 -4l-29 -8l-6 -4l-18 -6l-14 -3l-39 -12l-21 6l-82 -18l-80 10h-65l-31 4l-12 6h-10l-45 11l-58 4l-102 30l-49 3l-80 -13l-8 13l2 8l12 10l12 6l15 6l20 13 l8 8l37 30l10 17l45 24l29 7h2l27 -5l114 -32l97 -17l16 -4l8 -4l60 -8l73 -4l15 -2l14 -4h10l8 -2h111l66 18l49 8l98 43l4 6l2 2l17 9l10 4l8 2l2 -21l-4 -22l-16 -25l-19 -16l-10 -23l-76 -53l-41 -51l-24 -19l-13 -18h-2l-14 -12l-4 -4l-49 -41l-15 -23l-8 -6l-2 -4 l-33 -33l-10 -8l-16 -12h-4l-4 -7l-5 -14l-63 -51l-49 -53l-2 -11l67 -4l31 2l53 -4l13 6l6 -2l37 2l71 17l68 8v-14l-27 -15l-6 -4h-6l-53 -24l-101 -27l-77 -18l-154 -4l-16 -7l2 -4l-23 -14l-10 -8l-4 -2l-6 -6l-39 -37l-15 -13l-2 -4l-37 -37l-4 -2l-8 -6l-2 -6l-57 -55 l-2 -4l-9 -13l-36 -28l-21 -25l-12 -8v-2l-70 -74l-28 -24l22 -15l57 -39l9 -8l20 -12v-4l8 -6l8 -19l9 -2l8 -6l12 -4l25 -23l6 -16l22 -12l13 -8l4 -2v-3l18 -10l17 -16l43 -23v-6h10l2 -4l12 -6h25l49 -21l74 -22l77 -8l31 12l27 2l90 37l63 61l13 21h4v8l28 29l23 43 l2 8l6 12l12 15l3 4l4 2l6 4l2 10l2 8v2l2 4l-2 4l24 39l2 6v5l-4 8l11 26l4 15l4 8l16 76l-4 4l6 10l8 12h5l18 -8l4 -12l-4 -10v-45l16 -31l-12 -29l-2 -26h-6l-6 -9l-6 -2l-2 -18l-11 -31l-20 -29l-6 -10l-6 -8l-15 -25l-2 -4l-8 -10l-21 -29l-8 -18l-28 -37l-7 -4l-2 -4 l-8 -10l-12 -8l-10 -13l-6 -6l-33 -16l-31 -29l-49 -22l-10 -23l-17 -8l-24 -6l-15 -15l-18 -6v-2l-27 -4h-6l-4 2l-4 -2l-10 -6l-8 -4l-84 -17l-95 13l-30 10l-23 2l-35 8l-98 51l-31 21l-4 6l-2 2l-26 18l-52 39l-6 11h-4l-4 4l-8 4l-6 6l-2 4l-7 4l-16 17l-12 10l-19 10 l-6 8l-24 4l-13 -6h-10l-27 -8l-20 -16l-31 -33l-20 -12l-4 -7l-2 -2l-4 -8l-2 -6l4 -2l-4 -2l-3 -12l-6 -7l-12 -8h-20l-9 -2l-8 -4l-6 -6l-23 -4l-6 -8l-6 -2h-2l-8 2l-4 4zM588 717l10 -2l12 -6l6 -15h7l2 -8h10l20 -14l21 24l10 6l2 5l-20 10l-27 2l-12 2l-11 2z" />
<glyph unicode="[" horiz-adv-x="722" d="M315 74l11 18l-7 19v73h7l-7 13v30l7 19l-7 26l-2 43h9l4 -10v55h-6v-4h-5v41l3 23l4 10l-4 10v39l6 31l-9 12v96l5 9l4 2l-4 14l-7 2l7 154l-5 14v12l5 6l-2 7l6 59l-9 64l3 36l-3 17l11 67v76l8 76l-2 24l2 25l-6 29v20l8 17l47 14l37 -6l12 -4l47 8l23 -2h8l23 -4 l88 -4v-39l-23 -25l-55 -16l-45 10l-56 -12l-6 -27l2 -29l-2 -12l-4 -20l2 -6l2 -15l-2 -14l4 -15l-2 -14l-8 -22l-4 -21l10 -59l-6 -8v-97l-4 -18l6 -82l-8 -18l2 -46l-4 -14l10 -12l-6 -14l-2 -56l-4 -6l4 -10l2 -49l-2 -90l4 -17l-2 -4l-2 -8v-82l2 -37l2 -98l-2 -19 l2 -20l-4 -16l2 -19l-2 -51l-2 -17l-6 -8l6 -6l6 -53l35 -10l12 4h10l31 -10l53 10l41 -6l11 -4l2 -5l-11 -18l-10 -12l-6 -19l-16 -14l-41 -4l-4 4l-23 -2l-8 -6l-23 10l-63 2l-17 -6l-16 -4h-49l-8 18l-6 4l-7 41v11z" />
<glyph unicode="\" horiz-adv-x="604" d="M35 1335v11l18 16l4 6h4l7 10l18 23l-2 2l4 8l6 -2l2 -2l4 -6v-8l6 -7v-6l29 -57l12 -41l41 -104l5 -15l4 -12l84 -236l6 -28l26 -60l6 -32l46 -93l86 -245l43 -113l4 -2v-8l34 -78l21 -59l8 -7v-10l25 -53l26 -78l9 -10l4 -8l34 -78l-4 -23l-2 -4l-2 -12h-4l-12 -16 l-2 -9v-6l-15 -6l-2 -6l-10 2l-2 4v8l-12 23l-27 78h-4l-26 63l-17 47l-33 80l-4 4l-8 35l-20 49l-4 4l-17 54l-47 106l-70 190l-10 19l-10 12l-6 4l-4 35l-43 115l-17 26l-4 25l-22 49l-25 84l-29 68l-4 6v4l-22 68l-15 28l-10 35l-37 82l-12 35z" />
<glyph unicode="]" horiz-adv-x="722" d="M127 -4l25 27l53 14l45 -10l55 12l6 27l-2 26l2 14l4 21v8l-4 12l4 17l-4 14l2 15l6 20l5 20l-11 58l6 12l3 96l4 17l-9 82l9 18l-2 45l4 14l-9 15l5 12l2 53l4 11l-2 8l-4 51l2 90l-2 14v2l2 11l2 82l-4 37l-2 98l2 18l-2 21l4 16l-2 19l4 53v14l6 8l-6 9l-6 51l-37 12 l-9 -4h-12l-28 8l-56 -10l-41 6l-10 4l-2 4l12 21l11 12l4 18l16 13l41 4l4 -4l25 4l6 4l22 -8l64 -2l24 6l9 4l49 -2l8 -17l6 -6l4 -24l2 -15v-10l2 -53l-10 -19l6 -18v-72h-6l6 -14v-31l-6 -18l8 -25v-45h-8l-4 10v-53h6v4h4v-43l-2 -20l-4 -10l4 -11v-39l-4 -30l8 -13 l-2 -8v-90l-4 -6l-4 -4l4 -14l6 -2l-6 -154l6 -12l-2 -15l-4 -6l2 -8l-6 -57l8 -64l-2 -35l2 -18l-10 -66v-34l2 -43l-10 -76l4 -25l-4 -24l6 -27v-23l-8 -14l-47 -14l-50 8l-47 -8l-22 4h-6l-25 4l-88 2v39z" />
<glyph unicode="_" horiz-adv-x="976" d="M0 -270h1012v-121h-1012v121z" />
<glyph unicode="`" horiz-adv-x="579" d="M135 1171l2 5l10 2l27 6l4 2l2 2l-2 4l37 37l6 2l4 4l19 -2l4 -2l10 -6l2 -2l6 -15l10 -10l7 -10l6 -4l10 -13l16 -34l68 -99h2l14 -18l15 -27v-4l10 -6l6 -10l25 -35l4 -8l6 -19l-6 -4h-4l-4 2l-11 9l-6 -5l-20 9l-4 2l-9 6l-10 12l-12 8l-2 2h-2l-4 9l-9 4l-28 16l-6 6 l-4 2l-5 4h-2l-18 13l-10 6l-33 24l-27 8l-26 29v4l-17 15l-8 6l-12 10l-12 12z" />
<glyph unicode="a" d="M-53 70l4 59l6 8v6l31 43l6 7l10 14l16 33l66 57l6 4l2 4l15 8l10 15l20 14l23 23l35 20l8 6l4 2l2 6l6 2l14 13l5 2l2 8l8 12l26 15h9l30 18l23 6l14 10l12 4v5l39 14l2 2l13 6l22 10l45 13l15 6l65 -2l35 -21l18 -14l9 -14h6l-15 24l-4 37l-14 23l-16 47l-15 24l-30 27 l-43 4l-17 -10l-72 -82l-28 -25l-10 -8l-9 -2l-6 2l-6 6v4l18 15v4l3 6l6 8l20 25l27 22l26 33l88 82l21 2l35 22h6l6 -2l6 -4l23 -2l37 -39l16 -26l23 -56l8 -10l24 -67v-9l4 -12l4 -33l9 -18v-8l4 -17l2 -14l4 -14l16 -54l8 -14l3 -27l16 -28l2 -37l10 -19l12 -51l35 -73 l13 -15l4 -8l12 -14l2 -19l47 -35l27 4l8 5h16v-11l-10 -6l-10 -8l-49 -35l-41 -16l-8 -2l-3 6h-18l-27 22l-32 50l-17 18l-10 31l-25 43l-6 8l-2 10l-10 8l-2 9l-6 16l-2 22l-17 33l-2 31l-6 8l-6 19l-2 18l-12 16h-10l-7 -8v-6h-4v-4l-4 -10l-43 -68l-41 -43l-6 -14 l-47 -41l-16 -23l-23 -12l-12 -16l-37 -21l-19 -6l-10 -8l-20 -8l-6 -9l-13 -2l-35 -26l-22 -4l-31 -19l-67 -22l-21 2l-12 -10l-21 6l-45 26l-14 15h-8l-10 -7l-15 -12l-14 2l-8 -4l-27 10l-43 23zM27 137l4 -10l6 -18l12 -13l-2 6h16l9 2l8 11l2 10v8l14 43l4 14l9 11v2 l4 6l2 8l6 19l31 43l8 16l-4 4l-6 4l-11 -4l-6 -6v-2l-20 -12l-25 -27l-16 -10l-6 -9l-5 -10l-8 -16l-6 -6v-19l-2 -6l-4 -8l-10 -10zM156 176l4 -41l12 -26l12 -7l11 -20l24 -16l29 -5l39 5l51 18l8 8l16 2l41 23l41 39l7 2l4 4l67 86l10 8l7 10l16 23l16 41l9 14l6 10v4 l4 9l10 28v11l2 6l4 6v47l-4 12v10l-18 15l-15 12l-14 4l-45 4l-49 -12l-15 -6l-20 -8l-8 -7l-6 -2l-76 -34l-8 -7l-4 -6l-13 -4l-10 -4l-4 -6l-14 -10l-2 -4l-5 -2l-2 -4l-10 -9l-39 -45l-4 -10l-4 -14l-10 -9l-2 -8l-15 -30l-6 -5l-4 -10l-10 -16l2 -25l-12 -20z" />
<glyph unicode="b" horiz-adv-x="702" d="M35 182l2 13l4 2v6l4 12h6l19 -33l34 -94v-4l11 -10l20 -23l47 -20l35 -4l4 2l23 6l4 2v8l-2 2v2h-4v17l-4 6l-7 6l2 22v6l-4 11l-6 51l-26 55l-21 13l-45 4l-18 -29l-15 -2l-28 12l-15 15l-10 20l-4 12l-6 43l2 62l6 2v10l43 86l43 49l21 19l6 16l12 14v15l-8 14l2 51 l-4 13v6l-4 20l6 47l-4 25l6 6l-2 12l-2 6v19l4 18v8h2l-8 21l2 6l2 16l2 27l4 23v6l-4 16l-2 6l4 8l-4 21h4v8l-4 12l-2 66l6 33l-2 6l-6 8l2 45l-2 4l6 8l4 7l-8 45v6l8 47l-8 8l-6 53l-17 39l4 25l21 8l18 10l8 10l23 19l4 6l10 12l2 6l25 3l16 4h4l6 -2l3 -5l8 -24 l8 -131l-4 -33v-35l-8 -22l8 -23l-8 -219l-4 -12l2 -17v-20l2 -19l-7 -24l3 -14l-3 -25v-18l-8 -189l99 64l12 12l8 4l10 2l9 8l12 4l57 35l10 2l4 2l17 4l10 6h6l21 3l8 8l29 4l8 4l8 2h8l60 -14l24 -31l17 -49l6 -8l6 -37l-6 -68l-9 -27l-4 -6l-2 -8v-4l-8 -35l-33 -73 l-6 -9l-4 -6l-6 -14h-4l-21 -45l-20 -23l-12 -24l4 -2l-37 -41l-21 -37l-55 -55l-29 -43l-4 -9l-16 -12l-14 -8l-37 -41l-31 -14l-6 -25h-8l4 -4l-41 -33l-12 -8l4 -4v-4l-2 -11l16 -231l-12 -2l-9 14l-8 41l2 8l2 3l-8 18l-4 16v4l8 13l-6 8l-10 35l-2 10l-2 6v21l-4 14 l-6 8l-11 2h-6l-6 -4l-10 -6l-6 -6h-13l-6 -2h-10l-14 6l-23 6l-18 -6l-6 4l-9 6l-2 8l2 11l-4 18l-22 49l-2 6l-2 8l-23 31l-4 8l-6 37l10 19l-4 14zM258 389l2 -10v-2l2 -4l-2 -4l2 -99l6 -61l-2 -49l8 -101l5 -6l18 15l6 4l16 12l17 16l6 11l14 10l19 16l12 25l19 14 l8 17l6 6l10 14v4l8 10l2 4l9 9h4l4 12l12 16l12 21l11 6l2 4v4l-2 8l12 17l8 10l4 8l4 10l2 13l10 12l3 12l26 49l4 25l23 74v4l4 12l-4 4l4 31l-4 37h-2l6 6l-4 31l-17 36l-18 25h-27l-63 -20l-68 -54l-10 -2l-43 -30l-14 -13h-6l2 -4l-21 -8l-22 -29l-15 -32l-6 -33z" />
<glyph unicode="c" horiz-adv-x="700" d="M-20 184l8 33l-6 19l6 8l12 51l25 39l-2 4l4 6l4 10l12 21l4 8l8 12l4 8l15 19l24 49l19 23l10 8l8 6l15 24l65 72l8 6l49 54l99 88l71 49l84 41l35 2l4 -8l-6 -27l-16 -51l-35 -2l-47 -23l-15 -18l-22 -8l-43 -29l-23 -16l-4 -3l-12 -12l-12 -10l-11 -10l-30 -39 l-51 -72l-13 -14l-4 -17l-16 -18l-55 -133l-19 -88v-23l10 -71l-2 -2l-2 -7l2 -8l4 -2l7 2l6 -4l6 -18l16 -19l21 -12l16 -8l8 -8l27 -3l35 5v-2l4 -3h6l6 3h2l8 -3l25 11l33 4l53 24l51 43l29 23l4 4l8 6l37 49l4 4l4 7l6 4l29 26l14 27l41 57l13 25l8 26l16 5l-14 -66 l-4 -6l-6 -12v-2l-17 -23v-10l-4 -4l-6 -13l-33 -45l-10 -16l-17 -10l-8 -21l-35 -37l-10 -12l-6 -4l-6 -6l-37 -27l-14 -16l-66 -45l-94 -37l-6 -4l-12 -6l-17 2l-61 -6l-47 16l-41 31l-17 14l-8 -2l-41 8l-14 17h-2l-15 20l-12 6l-4 6h-4l-2 8l-4 5zM35 221l12 -41l-2 -14 l2 -12l12 4l7 -4l10 8l2 2l8 31h-6l2 10l6 20v13l8 43l33 94l10 20h2l21 41l8 19l4 4l12 18l-4 12l-18 -4l-25 -22l-10 -17l-6 -12l-8 -2l-41 -72l-4 -22l-13 -12l-18 -72z" />
<glyph unicode="d" horiz-adv-x="874" d="M0 188l6 9l-6 12l6 4v6h2v8l23 35l182 205l4 -2l4 4l41 61l23 27l4 8l8 10l68 80l59 62l37 18l-2 -28l-17 -31l-16 -8l-8 -11l-8 -12l4 -10h2l4 4h4l8 8l123 72l16 2l23 10l33 -2l12 -2l6 -4h4l6 2l7 8l2 6v4l-7 29l2 39l-4 4v45l7 27l-3 18v6l-2 31l2 -2l3 4v57l-3 5 l3 2l6 16l-4 49l2 72l-4 2l8 27l4 65l2 6h6l10 84l-4 43l2 21l2 28v19l8 20l23 13l10 2l15 4h8l37 26l20 8l18 -10l5 -24l-7 -13l7 -16l-5 -16l-4 -21l-2 -8v-12l-16 -58l-2 -10v-4l4 -12l-8 -33l4 -21l-6 -8l-4 -16l2 -41l2 -8v-21l-4 -24l4 -7l4 -4v-26l2 -6v-11l6 -12 l4 -37l-12 -37v-8l-2 -14l2 -23l-19 -30l5 -11l-5 -53l-26 -151l4 -105l-2 -29l12 -215l6 -2l2 -14l2 -41l23 -106l8 -31l8 -10l-2 -9l10 -18v-4l5 -12l47 -91l-2 -8l-9 -10l-10 -4l-6 2l-4 2l-23 23l-36 -15l-23 19l-4 16l-10 8l-8 23l-9 2l-8 6l-6 8l-10 17l-2 14l-6 6 l-19 37l-6 8h-4l-8 21l-13 28l2 4h3l-9 9l-6 10l-16 -6l-8 -15l-7 -8l-2 -6l-8 -14l-2 -2l-4 -2l-6 -11l-33 -43l-108 -121l-31 -14l-82 -76l-4 -2l-10 -4l-9 -2l-6 -6l-20 -12l-6 -2l-43 -19l-35 -8l-39 6l-43 17l-16 16l-21 45l-18 78l6 39l-8 18l-2 37l-37 16l-13 15 l-10 10zM147 78l5 -35l18 -35l23 -20h4l10 -8h49l12 -5l70 27l14 2l54 33l6 6l8 6l2 4l29 25l4 10l45 41l18 23l10 14l7 8l28 39l12 12l-2 2h5l4 4l4 9l6 18l10 8l6 23l25 28l2 9v4l-4 8h6l8 39l-2 29l-4 96l-6 8l-2 12l-8 -2l2 8h-2l-5 -6l-12 -12l-4 -2l-10 -12l-66 -72 l-39 -31l-86 -88l-18 -10l-18 -19l-121 -92l-6 -8l-31 -24l-29 -13l-22 -10l-2 -4l-2 -6zM174 240l6 -2v-5l45 7l33 18l18 4l3 -2l8 10l8 2l16 13l31 16l31 21l53 49l8 4l6 6l11 6l38 39l9 6l2 2l4 6l2 2l4 2l10 9l43 43l10 14l2 6h7l20 25l4 4l6 4l4 2l15 14l2 8l-4 11 l-4 8l-15 14l-4 2l-10 6l-10 15l-15 4l-4 -2l-6 -2l-20 6l-33 -4l-66 -35l-45 -35l-53 -33l-4 -10l-18 -12l-5 -10l-8 -2h-4l-4 -5l-2 -6l-10 -4l-21 -33l-4 -10l-20 -20l-8 -21l-3 -10l-6 -4l-28 -49l-23 -60z" />
<glyph unicode="e" horiz-adv-x="745" d="M27 143l12 50v20l31 104l69 140l-18 30l2 39l20 37l29 39l35 39l65 53l50 37l61 45l14 8l64 33l86 31l39 4l30 -6l11 -4l24 -17l6 -49l-8 -33l-39 -86l-14 -18l-21 -21l-67 -71l-27 -12l-57 -43l-117 -50l-51 -14h-14l-25 4l-10 2l-4 17l30 14l25 24l21 7l16 14l90 16 l27 9l86 49l32 37l21 45l4 26l-2 45l-33 25h-41l-18 -4l-33 -25l-10 -12l-10 -2l-56 -60l-10 -12l-16 -14l-25 -25l-29 -43l-6 -8l-6 -4l-14 -16l-25 -29l-8 -19l-25 -24l-47 -103l-24 -81v-19l-4 -22l-4 -78l12 -33l18 -25l21 -18l28 -18l13 -5l22 -6l84 -2l78 25l80 41 l31 29l8 6l6 4l90 67h6v4l4 11l39 34l70 70h14l-8 -20l-4 -9l-8 -18l-31 -31l-16 -18l-103 -92l-16 -11l-6 -8l-21 -16l-4 -6l-6 -4l-4 -2l-6 -2l-33 -27l-96 -57l-31 -11l-14 -4l-7 -2l-32 -10l-8 -2l-25 -10l-59 -6l-50 -3l-39 15l-18 24l-14 11l-33 45zM225 586l2 -8 l13 -3l26 31l10 10l25 29l6 21l-28 -17l-50 -43z" />
<glyph unicode="f" horiz-adv-x="811" d="M-27 471v8l9 15l14 14l57 22l27 17l12 8l4 4l49 33h5l43 31l83 49l50 39l2 -2l8 6l43 43l16 6l8 8l3 10l26 23l4 4l2 4l6 4l33 35l6 10l9 12l8 15l2 6h4l4 8v29l-4 2l-2 4l4 16v21l2 8v8l2 8v15l2 96h4v8l-4 10v35l2 15l2 12l-2 65l-10 23v61l-10 70l-15 64v18l17 8l8 6 l2 6l6 21l16 2l7 8l51 4l2 -20l-2 -15l18 -65l-2 -19l21 -73l10 -92l4 -105l6 -22v-29l2 -10v-19l-2 -133l-27 -63l-79 -95l-9 -45l-2 -88l-6 -22l2 -25l-6 -22l2 -25l-6 -8l4 -6l4 -4h19l10 -2l14 -2h82l33 -11l115 -2l61 -6l4 -8l4 -4l4 -10l-4 -29l-12 -14l-21 -9l-6 2 l-45 13l-43 30l-151 9l-11 6h-4l-6 -4l-30 4l-21 -8l12 -23l-4 -27l2 -6v-10l-4 -2l-8 -2l-12 41l8 10l-14 12l-19 13h-22l-13 -4l-10 -2l-8 -2l-4 -5l-2 -6l-4 -18l12 -176v-66l4 -12h2l2 -6l8 -2l4 4l11 4l14 14l33 15l6 45l4 6l12 -2l6 -4l2 -11l5 -26l-15 -74l2 -22 l-6 -15l2 -10v-21l-8 -22l-6 -72l-19 -118l-8 -17v-14l-8 -15l6 -28l-20 -170l-2 -88l8 -45l2 -33l-10 -10l-17 -9l-16 -4h-45l-4 7l-17 8l-4 8l-2 6l15 18l-3 39l-12 45v66l-10 31l2 24v8l2 17v35l-6 20l4 25l-4 24l2 35l-6 43v4l8 23l-10 69l6 54l-4 12l2 2l-2 8v137 l-10 35l2 4l2 15l-11 182l-6 18l-63 -2v-4l-15 2l-36 2l-66 -14l-78 -2l-28 -8l-37 -2zM190 551h5l4 -6l4 -2h6l6 2h10l56 -2l4 12v4l-6 14l-5 11l-8 6h-14l-59 -29v-6zM373 672l18 -82l2 -19l2 -4l6 -20l17 -8l76 2v65l6 25l-6 8l6 27l-4 6l-2 4l-7 22h2l-2 11l7 6h8l-4 4 l-9 2l-22 -4l-10 -4l-35 -8l-16 -15l-9 -6z" />
<glyph unicode="g" horiz-adv-x="677" d="M-14 -848l6 8l4 25l29 -10l6 -13l10 -6l12 -8l15 -6l18 -14l78 -25h65l2 -4l9 -2l16 6h29l22 2h12l15 4l31 4l28 13v-5l2 2l4 3l25 8l12 6l4 4l13 2l18 6l10 10h4l50 33l8 12l6 5l8 8l6 4v4l8 2l9 12l10 8l28 41l9 7l4 6l18 30l2 7l2 4l6 10l46 108l14 76l6 68l-16 71 l2 9l-4 14l-7 35l-28 80v6l-6 12l-15 49l-51 74l-18 18l-33 31l-43 21h-10l-23 6l-16 -4l-23 -4l-49 -21l-31 -4l-22 -6l-10 -8l-48 -13l-18 -10l-18 -4l-15 -6l-10 -14l-27 -15l-36 -2l-21 12l-4 7l-14 4l-7 4l-6 12h4v6l2 4l7 6l125 103l2 6h4l10 8l12 10l2 2l31 37l2 7 l2 4l-2 6l-4 16l6 14l27 25l98 61v5l35 24l16 25l43 12l12 12l5 2l8 2h4l4 -6l6 -8l2 -22l14 -13l-2 -24l-6 -29l-24 -37l-25 -12l-4 -17l-10 -10l-10 -12l-33 -25l-2 -6l-6 -8l-2 -2h-11l-14 -16l35 -5l80 25l26 -8l19 -10l6 -2l2 -2l35 -27l61 -70l8 -24l7 -6l4 -21l8 -6 l8 -4l4 -6l10 -11l2 -4l2 -8l7 -26l12 -23l18 -23l2 -26l2 -4l9 -8l16 -117l-2 -4l6 -35l-6 -37v-14l2 -8l2 -5l-14 -84v-30l-15 -51l-6 -11v-4h4l-22 -47l-2 -8l-8 -12l-17 -21l-6 -10l-2 -8l-51 -64l-8 -6l-19 -24l-6 -11l-12 -6l-23 -16l-4 -8l-53 -35l-21 -13l-6 -4 l-20 -4l-45 -28l-25 -2l-10 -5l-6 -2l-8 -4l-7 -6l-118 -22l-7 4l-24 4l-21 2l-10 -2l-12 2l-23 -4l-24 4l-64 26l-8 -2l-25 19l-28 12l-49 35v6zM37 301l12 61l2 7l6 6l13 20l2 8l2 5l12 32l37 54l8 20l19 18l43 62l28 27l10 22l31 27v6l8 6l35 41l-12 29l4 32v11l2 6 l-2 28l10 29l-6 113l2 4l2 14l4 8l-2 25l8 57l-2 4l2 2l4 64l5 20l-2 31v19l2 10l26 18l6 15l13 10l16 -10l27 -9v-4l6 -2l4 -88l-8 -39v-28l-4 -7l-4 -10l-7 -4l2 -20l-10 -78l-12 -19l-2 -43l-17 -71h-2l-2 -11l-2 -4l-2 -55l8 2h7l18 12l39 45l18 7l13 20l6 6l2 4h10v-8 l29 -12h4l10 -8l10 -4l45 -25l43 -35l13 -33l18 -22l4 -8l2 -6l-2 -7l10 -45l-10 -20l-4 -43l-20 -41l-2 -21l-11 -28l-30 -35l-31 -45l-25 -12l-90 -84l-78 -43l-26 -21l-29 -18l-27 -4l-2 -7l-6 -2l-24 -4l-25 -18l-37 -6l-37 6l-24 -4l-17 4l-18 14l-8 4h-2l-31 43z M125 346l2 -31l10 -14l19 -12l28 -10l76 6l49 18l37 19l12 8l11 6l30 20l74 66l23 35v6l2 12l-2 43l-17 51l-55 103l-18 39v26h2v21l-7 8h-8l-20 -16l-45 -62l-4 -2l-19 -20l-121 -179l-53 -114z" />
<glyph unicode="h" horiz-adv-x="720" d="M82 246l2 8v10l-2 27l4 47l4 10v33l-2 12l4 15l2 24l-2 60l6 36l2 109l-4 8l4 21l2 16l4 14v66l11 129l6 8v111l4 10v49h-4l-2 6l2 8l6 21l-12 29l4 2l-8 55l2 67l-4 17l-5 94l-6 18l-2 5l-6 55l35 39l25 12h4v4l24 29l33 -6l18 -80l7 -141l2 -13l-2 -14l-2 -10l-5 -9 l-2 -38l4 -25l-4 -72l-8 -45l-2 -69l-2 -13l-2 -16l-2 -4l-6 -119l2 -80l-2 -4l4 -6l-8 -92l-4 -17v-86l-2 -10l-2 -4l-11 -137l2 -12v-144l4 -10l-2 -61l9 -52l-2 -14l18 -72l25 21l28 49v22l15 23l4 8v8l-4 4l4 19l22 49l35 94l2 37h6l19 74l49 172l10 18v4l8 15l6 16 l27 88l35 31l6 8l49 33l16 -4l5 -4l18 -49l4 -25l6 -170h-2v-84l-2 -12l2 -15l4 -24l-2 -45l6 -10l2 -13l11 -119l16 -59l14 -39l45 -72l5 -2v-4l6 -6l37 -29l2 -4l8 -10l16 -16l-10 -17l-6 -6l-6 -2l-11 -2l-8 -6l-18 -14l-58 -6l-14 6l-47 39l-4 14l-16 16l-5 6l-6 2 l-20 41l-4 25l-15 10l-4 13h-6l-18 124l-8 23l-7 164l4 10l-2 8l-2 4v27l7 33l-11 59v55l-12 3l-4 -3l-12 -30l-23 -82l-2 -23l-22 -73l-21 -91l-6 -71l-17 -29l-6 -45l-24 -65l-13 -19l-14 -37l-4 -2l-2 -8v-4l-8 -29l-15 -18l-6 -21l-2 -2l-14 -20l-4 -10l-35 -29l-22 -10 l-17 -13l-14 -6l-6 -6l-15 4l-16 4l-21 39l-6 33l-12 33l4 41l-4 39z" />
<glyph unicode="i" horiz-adv-x="350" d="M94 424l6 33l-4 14v6l-2 4l4 64l2 12v12l-6 45l6 23l2 111l-2 8l2 12l13 12l39 19h4l10 -2l29 4l10 -62l-6 -88l2 -14l-6 -35l-2 -43v-18l-2 -11l4 -55l-11 -43v-51l11 -8h4l12 6h14l11 12l2 15l6 4l6 -4l6 -13l-6 -43l2 -61l-8 -53l4 -13l-2 -47l-6 -10l2 -6h6l2 -6 l-12 -64l-4 -63l-39 -17l-58 -12h-6l-4 2l-2 10l-14 82v12l-2 27l2 6h-2l-5 60l3 4l-5 4l5 37l-3 4l-4 14l2 33zM109 977l12 37l78 43l26 6l31 -33l4 -18l21 -49l-5 -15l-16 -16l-8 -14v-27l10 -21l2 -16l19 -20l-7 -5l-2 5h-4l-14 -27h-2l-2 -6v-6l6 -21l-2 -10l-8 -25v-10 l-2 -18l-8 -70l6 -51l-4 -25l4 -51v-29h-8v4l-17 25l6 31l-4 8v2l-6 31v14l6 16l-2 29l10 193l-2 41l-2 10l-2 8l-4 4l-8 2h-8l-6 -2l-7 -6l-20 -10l-18 12l-13 18l-8 9l-4 2v8z" />
<glyph unicode="j" horiz-adv-x="763" d="M55 147v27l6 57l13 43v9l2 20l16 80l19 61l4 17l8 8l-4 16l-2 15l2 8l12 12l53 92l9 25l6 8l6 12l28 56l3 12l18 18l10 19l6 6l11 14l8 15l2 2l6 4l4 2h4l12 -6l19 -13l20 -47l9 -92l-3 -20l3 -11v-2l-9 -34l2 -5l2 -6l-4 -12l-4 -127l-6 -22l4 -27l-4 -41v-23l-8 -71 l-2 -4v-41l4 -2h8l4 4l109 119l10 6l12 14l84 61l62 21l12 6h8l27 6l24 6l64 -6l10 -2l19 -16v-6h-5l-14 -39l-31 -25h-26l-10 2l-27 2l-29 6l-18 -8l-21 -2l-63 -24l-113 -82l-4 -6l-10 -11l-8 -10l-52 -49l-22 -43l-16 -23v-34l6 4l-11 -17l-2 -14l-4 -98l-6 -19l4 -22 l-4 -17l2 -10l-2 -41h4l-2 -53l-8 -12l6 -29l-4 -14v-9l4 -4l2 -4l-4 -35l8 -108l2 -6h4l9 -90l8 -31l4 -19l4 -14v-10l4 -2l29 -103l8 -14l2 -6l6 -4l43 -80l13 -14l2 -7l6 -2l45 -57l6 -10l8 -6l10 -21l6 -4l5 -6l4 -19l-11 -26l-20 -23l-21 -12l-26 -8l-33 12l-10 6 l-51 17l-9 16l-28 27h-8l-66 55l-10 12l-2 2l-10 33l-21 19l-33 47l-41 92l4 8l-2 6v6h-4l-14 45l-8 54l-6 14v4l2 6l4 8l-13 72l7 33v45l6 55l12 47v23l10 37l2 24l11 37l8 2v2l-10 6l-3 8l7 9l26 41l6 18l7 4v6l30 68l13 10l4 27l-4 10l2 76l10 100v68l6 37l6 176l4 26 l-4 17l4 47l-6 20h-16l-19 -28l-2 -43l-8 -21l-35 -22l-33 -56l-6 -12l-16 -31v-20l2 -4l2 -8l-31 -54l-6 -43l2 -43l-10 -26v-6l-4 -15l2 -18l-8 -15l-9 -4zM154 -479l8 -21l2 -2l2 -10l6 -8v-6l6 -9v-24l8 -21v-20l17 -16v-7l16 -49l35 -53l22 -41l3 -6l12 -12l6 -23 l12 -20v-2l10 -2l9 2l8 6v16l-4 4l-47 111v12l-15 33l-18 82l-12 100l-7 8l-2 17l-4 4v213l-8 22l10 56v20l-4 10v17l2 16l-6 4l-4 -8l-6 -14l-8 -11v-45l-2 -8v-4l2 -2l-4 -6l-4 -10l-5 -23l-8 -18l-22 -123l4 -25l-4 -12v-68zM264 975l21 53l73 -4l21 -4l6 -6l4 -2l12 -21 v-12l5 -6l-5 -19l-2 -16l-4 -6l-6 -29l-4 -10l-14 -10h-27l-55 16l-6 4l-11 12l-2 5z" />
<glyph unicode="k" horiz-adv-x="802" d="M94 178l10 70l-6 14l4 8v43l-4 4l4 5l-4 18l2 31l-6 84l6 8l-6 106l2 4l2 23l-2 29l6 39v20l-4 10l6 25l-2 2l4 20l-4 21l4 47l-2 6l2 10l-2 2l9 111l6 29l-6 20l-4 43l6 19l2 16l-2 4l-4 27v8l2 12l4 8v17l-4 116l4 70l-2 10l6 23l2 16v47l10 23h29l2 4l8 4l6 10l6 4 l6 2l9 3l6 8l12 12h2v6l37 2l2 -6l-2 -18l2 -97l-2 -16l2 -10l-2 -11l-6 -26v-8l-8 -54l-2 -245l-13 -136l2 -14l-10 -53l-4 -150l-10 -45l2 -59v-31l-4 -96l6 -35l-2 -8l-2 -4l-2 -6l-2 -60l18 4l23 25l2 6l6 4l4 2l16 27l6 6l13 8l6 15l82 96l16 12l17 14l14 17l6 8l59 43 l41 35l125 80l25 12l14 6l8 4l37 13l37 20l62 2l12 -10l2 -10v-4l-8 -33l-15 -21l-4 -12l-4 -6l-2 -2v-6l-18 -33l-29 -25l-10 -14l-12 -10l-9 -8l-20 -17l-10 -12l-9 -8l-4 -6l-22 -25l-21 -12l-12 -17l-8 -6l-17 -14l-4 -4l-6 -19l-4 -2l-6 -6l-70 -76l-6 -12l-41 -51 l-8 -19l-2 -8l-4 -37l16 -45l47 -43l56 -35l67 -38l33 -25h2l6 -4l4 -4v-6l13 -15h2l6 -12l29 -2l34 -31l9 -10l2 -6l18 -8l25 -35l16 -33l16 -12l2 -2l11 -13l6 -14l-13 -2l-28 18l-8 9l-15 16l-14 10l-41 25l-16 18l-13 6l-6 5l-8 6l-45 16l-49 29l-10 12l-41 16l-17 2 l-47 21h-12l-31 12l-67 41l-35 29l-6 24l-15 17l-6 20l14 33l9 16l6 11l20 32l15 13l32 45l23 22l8 17l4 6l2 6l8 6l11 8l4 7h4l2 8l43 51l45 43l6 8l2 6l6 10l13 15l8 10l14 14l2 4l2 7v12l6 8l6 6l17 19l20 35h4l-6 4l-8 2l-18 -17h-2v-2l-4 -2v-2l-101 -61l-2 -6l-12 -7 l-55 -55l-3 -4l-2 -6l-10 -6l-12 -4l-78 -95l-4 -12l-2 -4l-10 -8h-4l-41 -68l-45 -63l-5 -19l-4 -6l-14 -35l-16 -53v-24l-2 -9l6 -26l-29 -68l-20 -14l-21 4l-20 2l-15 6l-18 14l-4 2l-6 7l-15 112l6 27z" />
<glyph unicode="l" horiz-adv-x="319" d="M82 1454l2 6l4 8l4 7l25 26l20 4l15 4v2l4 2h8l8 -8l-2 -2l6 -24l4 -37l15 -37v-47l4 -41l20 -27l23 -6l6 -14v-41l-10 -10l4 -15v-8l-2 -4l-2 -6l-15 -115v-43l-8 -22v-68l-2 -4l-2 -14v-35l2 -6l-2 -5v-79l-2 -4l-2 -15l6 -2l-2 -31l-4 -16l-4 -104l4 -76l-6 -27l4 -49 l-2 -12l4 -19l-4 -12l6 -160l14 -92l-6 -53l8 -21l-6 -20l12 -23l2 -16v-6l7 -25l22 -53l17 -14l16 -35l8 -14l10 -15l19 -20v-11l-68 23l-10 8l-23 4l-8 9l-2 4l-12 16l-8 4l-13 19l-18 18l-2 8l-57 37l-11 12l-10 39l4 29l-2 2v12l-4 74l6 33l2 61l4 6l6 49v80h-4l-2 52 l9 63l-7 12l-2 187l-6 22l8 45l4 121l5 19v145l4 24l-6 39l-3 80l-2 6l-8 17h-4l2 80l6 24l-12 29v24l-2 5l-2 16v31z" />
<glyph unicode="m" horiz-adv-x="1024" d="M82 688l2 6l2 8l4 31l6 15l23 12l67 16l2 -33l13 -18v-6l-2 -12l-4 -29l-15 -14l-4 -11l4 -24l-2 -8v-242l-4 -10l-2 -2l2 -156l2 -10l10 -8l4 -3l11 7l4 8l6 6l10 25l33 57l6 29l23 59l2 8l8 17l4 4l10 41l6 10l6 2l13 37l8 22l8 10l-2 13l6 14l4 10h2v9l7 14l14 41 l14 20v4l2 7l21 28l-4 4l45 95l16 12l39 16l10 6l2 2l33 7l12 6l29 2l-2 -109l-4 -24l2 -19l-2 -10l6 -6l-16 -236l2 -41l-6 -22l-7 -13h-4l15 -34l2 -13l4 -6l6 -4h4l6 2l14 23h7l26 43l4 2l2 8l9 12l20 76l19 33l8 24l10 15l12 43l13 24l4 6l30 48l2 2l4 8l3 35l4 2l2 6 l10 4l16 4l15 10l39 13l26 2l8 4h4l7 -2l4 -4l4 -142l6 -35l10 -163l10 -39v-121l13 -90l26 -101l27 -80h-6l-31 25l-27 12l-40 31l-13 21l-26 104l-2 33l-15 37l-2 10v8l2 2l-14 64l4 32l-27 144l-8 20l-8 6l-6 2l-6 -2l-13 -14l-10 -23l-2 -2l-8 -10l-2 -12l-2 -8l-6 -15 l-4 -4l-27 -49l-8 -27l-4 -6l-6 -8l-7 -10l-26 -70h-2l-8 -8l-19 -43l-25 -29l-49 -26l-18 -15l-37 -18l-18 -2l-9 10l-8 82l4 10h2l-4 4l-2 -2l2 5v4l2 2l-4 94l4 14l-4 4l-4 84l2 17l2 22l2 62l-4 2l4 4l2 6v8l-6 6l8 80l-8 17v12l4 28l-4 7l-6 8v4l-6 6l-14 -27l-7 -6 l-2 -8l-30 -74l-2 -10l-7 -4l-10 -35l-18 -31l-53 -161l-23 -52l-6 -40l-4 -5l-8 -10l6 -2l-29 -90l-10 -20l6 -15l-14 -22l-2 -13l-5 -6l-10 -20l-28 -31l-7 -2l-18 -12l-16 -15h-4l-9 -8l-22 -2l-8 -6l-5 -2l-6 -2l-8 6l-6 88l-2 2l2 6l4 11l-4 41v6l4 6l2 2l-4 2l2 10h-2 l2 2l2 88l4 13l-12 61l2 8l4 2l-2 47l2 19l2 14v33l-2 37l4 4l-2 6l-2 8l10 2l2 35l-6 12h-4l-4 47l2 39z" />
<glyph unicode="n" horiz-adv-x="796" d="M94 330v37l2 8v22l2 13l6 69l-10 31l4 6l4 51l-4 15l4 10l-4 31l2 157l4 2l7 27l16 12l104 23l13 -15l4 -22l-2 -37l-2 -20l2 -5l-6 -8l-11 -37l-6 -18l-4 -14l-4 -9l-10 -94l-6 -24l-2 -45l-4 -9l-3 -8v-4l-2 -41l11 -158l-6 -24l4 -6v-25l2 -4l4 -43v-12l2 -6l10 -6h12 l27 14l8 14l4 6l4 21l21 24l31 47v9l2 2l34 43l13 39l32 57l21 27l31 65v2l6 12l6 25l2 6l10 10l10 13l5 14l14 45l18 41l29 90l27 43l53 25h8l8 4l43 6l4 -29l-6 -10l-2 -6l2 -8l13 -78l-3 -6l-2 -19l-8 -22l6 -84l-6 -27v-16l-2 -6l-2 -33l12 -41l17 -162l14 -98l4 -16 l6 -27v-39l9 -21l8 -14l6 -12l6 -14l16 -41l31 -60l10 -10h-6l4 -2l-10 -6l-12 -2l-15 14l-18 8l-18 25l-23 14l-24 10l-13 19l-47 31l-2 10l-4 2l6 4l-8 37l-14 18l-2 33v14l2 13l-2 14l-19 65l-12 60l4 12l-4 23l-4 37l6 221l-4 39l-6 20l-21 -26l-49 -113l-12 -21 l-15 -24l-6 -15l6 -6l-79 -141l-9 -27l-22 -36l-2 -3v-6l-2 -10l-31 -49h-2l-4 -10l-10 -13l-13 -30l-2 -2l-14 -27l-10 -8l-6 -29l-27 -53l-19 -21l-20 -2l-6 -10l-25 -14l-30 2l-7 -2l-4 -2h-6l-10 2l-8 8v10l-6 25l-9 102h7l-5 10l2 19v55l-10 29l6 29z" />
<glyph unicode="o" horiz-adv-x="776" d="M41 416v45l2 16l4 6l8 25l25 47l41 59l51 52l6 12h6v4l19 16l49 37l14 8l10 9l119 59l31 6l10 6l19 6l16 5l23 -5l26 11l25 -2l35 -11l12 -28l20 -15l11 -10l10 -8l6 -8l6 -6l4 -11l15 -14l6 -4l6 -10l18 -23l11 4l-5 11l2 4l5 4l8 2h6l8 -6l10 -17l13 -33l8 -30v-21 l4 -12l2 -29l-4 -2l2 -20l-4 -49l-4 -4l-15 -37v-15l-6 -12l-4 -6h-2l8 -25l-49 -86l-4 -4l-4 -10l-8 -14l-25 -25l-24 -39l-5 -10l-22 -23l-14 -22l-19 -14l-12 -17l-4 -2l-2 -4l-21 -18l-14 -17l-4 -6l-12 -10l-97 -56l-30 -6l-41 -16h-86l-41 10l-35 15l-33 30l-8 10 l-27 27l-6 25l-8 12l-2 4v10l-10 31v33l-4 10l4 37v18l2 9l8 34l2 23l-2 12l-4 8l-10 6l-7 27zM109 512l2 -70l8 -4l6 6l-2 2h6l25 54l12 16v2l6 14l10 29l8 4l11 19l4 16l16 12l4 4l13 15l6 10l22 23l2 4l8 8v4l5 6l6 8l2 6l-13 7l-69 -56l-14 -16l-3 -8l-14 -11l-16 -22 l-6 -10l-9 -9l-24 -32zM150 238l4 -9l10 -18l16 -33l6 -8l2 -8l25 -29l6 -2l17 -2l14 -6l20 -21l33 -2l35 -8l47 6l10 2l19 -4l24 17l8 2l13 4l10 6l8 4l10 6l27 19l10 8h4l15 16l4 6l14 13l25 28l6 4l8 13l6 10l4 6l29 41l33 76v4l18 55l8 41l2 19l5 8l-3 16l-6 19l-2 24 l-2 10l-2 13l-4 2l4 4l-4 14l-10 12l-8 31h-2l-11 12l-10 21l-39 45l-12 4l-2 4l-25 10l-4 5h-4l-18 14l-11 2l-6 -6l-2 -8h-4l-20 14l-23 2l-6 -2l-6 2l-8 2l-4 4l-21 -4l-35 -14l-16 -13l-4 -2v-2l-15 -16l-4 -2l-10 -17l-22 -24l-19 -12l-39 -45l-8 -9v-4l-27 -41l-2 -6 l-4 -2l-20 -20l-12 -35l-13 -21l-10 -12l-4 -2l-4 -16l-8 -29v-4l-4 -17l6 -8v-8l12 -4l4 -4l35 -25l10 -6h2l12 4l17 -6l20 -55l-53 -8l-14 -9l-35 -4l-16 -6v-26z" />
<glyph unicode="p" horiz-adv-x="765" d="M14 219l33 98l78 127l35 45l-13 25l-4 29v4l-4 10v4l2 12l2 11v16l-8 35l31 45l8 6v12l8 11l2 4l6 10l5 8v4l18 19l4 6l10 14l6 10l9 13l10 6h14l10 -27l9 -39l-2 -35l-7 -28v-33l21 12l6 9l4 2l29 30l12 23l25 10l57 49l37 27l53 24l31 2l4 2l12 3l15 6l36 2l7 -11l10 5 l8 -2l4 -3l21 -6l14 -18l20 -14l5 -2l12 -9l20 -43l9 -37v-4l2 -20v-41l6 -12l-6 -15l-2 -37l-11 -20l2 -23l-10 -30l-2 -8v-15l-8 -10l-4 -14l-6 -9l-2 -18l-11 -8l-8 -29l-16 -29l-6 -20l-2 -4v-4l-5 -8l-16 -23v-12l-14 -21l-8 -10v-2l-13 -8l-30 -49l-27 -15l-2 -2l2 -8 l-10 -14l-4 -10l-9 -7l-14 -18l-22 -21l-3 -4l-79 -65l-15 -4l-2 -6l-4 -5l-29 -12h-22l-35 -14l-27 -6l-8 -4l-4 -11l-10 -118l4 -39l-2 -35l6 -51l-6 -293l6 -41l2 -19l-4 -20l-4 -14l10 -138l-2 -57l2 -33l-10 -24l-12 6l-13 16l-8 17l-4 4l-6 4l-2 4l-25 14l-28 33 l-4 33l2 37l-2 88l-2 6l2 2l4 20l-6 211l-7 41l2 31v20l-2 89l2 6l7 4l-4 14l-7 2l-4 129l11 88l-5 99l-6 6l-2 8l-2 6l2 27l4 8v6l2 10l-20 2l-6 -4l-4 -4l-17 -2h-51l-2 2l-10 2l-2 2l-11 19l-2 12zM68 254l10 -23l24 -12l23 -2l20 19v8l7 6l6 22l-2 7l4 4l4 10v2l-10 10 l-2 4l2 51l8 7l-6 75l-15 -32l-32 -39l-5 -9l-2 -6l-4 -20l-16 -27l-10 -24zM252 70l6 -2h2v-7l41 -4l47 13l47 20l43 35h15l10 14l2 4l8 2v7l27 24h8l4 6l2 2l29 33l4 6l-2 6l20 25l2 10l8 -2v8l52 97l6 30l16 64l4 8l9 4l-5 27v53l-4 6l2 10l-4 47l-4 13l-2 4l-6 6l-10 39 l-2 2l-4 8l-39 43l-21 8h-18l-10 9l-17 -3l-10 5l-47 -5l-10 -2l-21 -14l-24 -20l-41 -21v-2l-13 -4l-4 -10l-2 -6l-4 -2l-70 -82l2 -39l-4 -11l4 -90l-10 -61l4 -127l-6 -18v-48l-10 -24v-94z" />
<glyph unicode="q" horiz-adv-x="980" d="M41 446l2 15l16 45l41 55l6 12l21 27l27 21l12 20l33 12l4 6l10 11l8 6l21 12l10 4l8 6l98 33l78 12l17 -4l30 11l9 8l6 2l4 -8l4 -4l4 14l98 16l4 -2h9l4 2h22l17 -2l4 2l30 -10l74 -10h35l22 6l11 4l2 4l14 21h12l6 -7l5 -6l6 -22l45 -8l4 -41l12 -13v-22l4 -8l4 -4 l15 -33l-11 -25l5 -2l2 -2l2 -4h4l4 -6l4 -2l-18 -23l-7 -4l-14 -14l-6 -12l-6 -21l-2 -4l-19 -12l-20 -35l-2 -68l-11 -55l-2 -68l-8 -45l6 -63l-6 -27l2 -2h-2l-4 -24l-6 -113l4 -35l-2 -12v-8l-8 -13v-10l-2 -24l2 -21l-6 -14v-33l-4 -14l6 -27l2 -10l-6 -13l4 -135 l-15 -14l11 -14l2 -9l2 -4v-4l-2 -4l-8 -10l6 -45l-4 -68l4 -24l-4 -164l4 -29l-2 -31l2 -22l-2 -10l4 -47v-17l-4 -14l-4 -4l-58 -43l-12 -4l-4 2l-2 8l-2 4v45l-2 6l2 13v4l-4 8l-4 6l8 10v6l-2 11l-4 12l2 35l-7 37l5 8v24l-2 64l6 12l-4 2l-2 45l-7 33l2 4l-2 10l2 29 l-4 8l2 8l-4 31l-2 12v37l2 25l4 20l-4 29l-12 53l4 6l4 9v18l-4 22l4 31l-2 35l2 12l-2 8l6 21l-4 25l-2 18l2 10l-4 84l-2 4l2 6v17l-4 39l2 24l-4 101l2 8v10l2 23l-4 49h-10l-27 -19l-37 -34l-18 -13l-27 -26l-14 -7l-8 -4l-13 -4l-10 -6l-8 -10l-2 -4l-14 -6l-31 -9 l-37 -24l-8 -8l-13 -6l-8 -3l-78 -16l-63 -2l-21 8l-32 6l-41 25v4l-6 2l2 6h-4l-13 25l-6 37l-8 8l-4 29l-4 6l-2 12l4 53l6 17v14l-10 6l-6 2h-9l-20 4l-51 37l-25 29l-2 20zM141 516l2 -16l13 -21l8 -12l10 -12l14 -6l19 -9l10 -4h2l4 2l6 2l11 13l10 16l8 8l12 15l4 8 l13 16l61 76l74 74v10l-4 10l-6 6l-15 4l-10 -8l-27 -6l-8 -10l-18 -4v4l-23 -4l-63 -33l-37 -27l-18 -22l-19 -8l-12 -13zM248 338l8 -39l-4 -6l6 2l10 -27l49 -37l5 2l4 -6l67 -6l78 6l57 13l97 43h6l6 4l4 12l4 8l8 4l15 6l45 35l24 29l11 18l2 13l4 12l-6 12l-9 25l4 20 l-8 23l6 12l-4 21l35 57l21 6l2 4l6 8l10 29l6 6v12l-4 11l-33 16l-45 12l-20 2l-15 2l-12 3l-20 -3l-33 7l-27 -9l-10 2h-4l-8 -2l-4 -4l-19 -10l-35 -2l-18 -14l-27 -8l-63 -54l-45 -51l-13 -18l-10 -9l-35 -49l-36 -32l-13 -37l-20 -37v-37z" />
<glyph unicode="r" horiz-adv-x="628" d="M14 236l2 8l-2 4v6l2 6l7 14l-3 13l3 4v6l4 12l10 23l6 26l2 13l4 2l43 71l4 21l4 2l9 8l2 4l2 2l2 11l4 10l8 6l10 14l10 6l3 2l10 17l-2 22l-6 19v22l49 37h8l4 -2l2 -6l23 -10l12 2l41 37l8 12l18 14l7 4l2 4l4 11l14 16v16l8 7h6l29 14l16 -2l21 8l4 2h2l19 2l63 27 l14 2l17 4l71 31l21 4l14 -13l2 -6l-2 -30l4 -45l2 -11v-6l11 -22v-11l-21 -14l-10 -10l-14 -2l-13 -8l-4 -2l-14 4l-19 39l-18 22l-4 6l-8 4l-4 6h-9l-4 3l-14 -3l-18 -6l-9 -6l-73 -35l-17 -6l-4 -4l-20 -14l-21 -43l-14 -60l-8 -20l-7 -14l-4 -15v-24l-16 -49l-4 -37 l-8 -35l-2 -4l-4 -4v-19l-7 -12v-4l2 -6v-31l-2 -4l2 -14l-6 -23l-8 -84l6 -12l-6 -21l4 -96l4 -4l-2 -16l-14 -13l-29 -12l-35 -2l-8 -6l-6 8l-2 6l2 33l-4 29l6 63h-4l2 8v6l2 9v57l-4 20l4 23v20l2 4l-2 3v8l4 6l-2 4h-4l6 2l-4 20l-2 15v35l-2 6l4 6l-6 22v23l2 18h-4 l-10 9l-4 2l-9 -2l-14 -15l-16 -10l-6 -16l-7 -2l-38 -68l-17 -39l-10 -57l6 -31l-4 -2l2 -4l-4 -4l-12 14l-7 6zM242 563l12 -53h10l15 20l8 2l4 5l4 12l-2 16l-4 4v4l-13 7h-22l-4 -11z" />
<glyph unicode="s" horiz-adv-x="718" d="M41 14l33 15l14 2l27 16l30 -8h17l20 -6l45 -2l6 -4l3 -2l14 2h10l33 2l26 12l25 4l39 14l35 9l28 18l15 18l26 15l33 51l25 20l26 39l7 45l-3 23l-2 6l-4 8l-16 21h-47l-45 -15l-31 -16l-24 -4l-29 -18l-55 -17l-37 -8l-11 -4h-4l-6 4l-18 -2l-10 -6l-43 -6h-72l-55 39 l-3 4l-10 26l-2 21l2 12l-2 6l15 55l40 74l7 8l2 15l57 80l14 2l15 32l24 21v6l6 4l13 12l153 131l56 35l75 35l54 4l24 6l8 -4l4 -6l19 -8l14 -16l4 -29l-4 -8l-6 -6v-7h8v-2l6 -2l-2 -26l-6 -19l-4 -8l-2 -2l-2 2l2 -41l-8 -2l-4 4l-8 57l-17 19l-8 8l-4 6l-66 6l-86 -28 l-69 -39l-23 -21l-18 -14l-49 -29l-2 -4h-7l-90 -94l-6 -16l-22 -33l-23 -45l8 -23l-2 -6l2 -6l2 -4l9 -19l16 -16l23 -12l90 10l106 39l29 4l39 14l63 19l58 4l4 -2l8 2l20 -2l56 -29l10 -18v-29l-4 -6h2l6 -31l-23 -61l-22 -29l-10 -27l-72 -98v-4l-12 -10l-90 -72 l-52 -35l-49 -24l-28 -6l-62 -23l-70 -4l-36 4l-15 8l-8 4l-27 4l-2 9l-30 2l-27 10l-2 6z" />
<glyph unicode="t" horiz-adv-x="397" d="M-33 598l10 8l13 -2l80 2l24 4l33 2l23 4l2 7l6 2l10 18l-8 21l-2 12v6l4 10l-4 19l4 2l-2 2l-6 12l2 10l-11 131l-4 15l15 24l-4 11l-7 6l-4 12v63l-4 2l-4 15l-6 8l8 25l29 8l16 16l4 33l-6 24l10 54l-2 4v18l7 76l-7 25v8l-4 10l-16 4l-8 4l-8 2l-15 -4l-10 23l-2 26 l8 21l-4 37l4 12l4 4l2 19l-6 6v10h-4l20 31l27 12l27 27l28 38l15 -2l4 -16l2 -31l4 -10l-2 -25l6 -20l2 -12l-4 -13l6 -18l-2 -4l-6 -10l8 -19l-8 -43l8 -28l2 -39l-2 -11l6 -12l-6 -121l8 -8l-6 -20l4 -2l-6 -5h6l-10 -67l6 -49l-6 -15l4 -20l-4 -33l4 -29l-8 -53l2 -10 l4 -14l2 -2l2 -29l-10 -37v-121l-8 -6l-4 -8l10 -8l6 -9l25 -4l14 4l12 -6l35 9l51 -5l31 -16l23 -18l-46 -9l-86 -2l-32 2l-6 7l-15 -2l6 -5l-4 -4l-6 2l-6 -55l4 -12l-8 -139l6 -7l-2 -77l-2 -5l-4 -4v-4l6 -8l2 -12l-4 -92l4 -9l-2 -4l-12 -49l8 -14v-29l4 -2l2 -8v-4 l2 -14v-7h-4l4 -4l-2 -8l-37 -4l-49 -25l-8 -2l-8 2l-4 9v30l6 11v30l2 11v34l2 6v7l-2 6l-6 16l2 35l4 10v6l-2 9l-2 6l-13 47l2 39l-4 4l6 2v26l5 60l12 8l-6 29l-2 65l2 70l-41 4l-13 6l-18 -2l-47 -6l-23 8l-14 23l-23 6z" />
<glyph unicode="u" horiz-adv-x="909" d="M-47 668l16 20l23 17h2l41 32l41 31l41 33l30 20l37 17l11 4h36l29 -4l8 -19h4l11 -20l4 -33l-6 -33l-5 -2v-110l-4 -25l-6 -23l-12 -51l-8 -8l6 -6l-2 -25l-4 -22l6 -8l-2 -9l-8 -45l-17 -51v-35l-6 -34l-4 -3v-65l6 -29v-35l15 -34l12 -21l18 -10l17 -10h20l21 6l6 -6 l26 18l19 19l18 24l21 25l10 22l10 25l15 20l12 21l8 28l12 27l11 29l12 28l14 19l25 49l8 49h4l18 45l21 47l10 54l8 49v8l2 12l9 43l14 43l10 17l49 20l62 16v-43l-2 -20l4 -21l-4 -43l-4 -14l-2 -2l6 -2l-4 -51l10 -43l-2 -45l-2 -8l2 -5l-2 -51l4 -24v-37l-6 -31l8 -4 l2 -27l8 -39l-8 -2l6 -6l10 -37l-8 -2l8 -8l4 -39l23 -43v-6h8l12 -37l17 -41v-4l24 -37l54 -26l47 12l8 -10l-18 -23l-43 -14l-19 -8l-27 -4l-22 4l-12 6l-25 10l-12 19l-21 10l-39 22l-12 27l-12 22l-33 39l-10 11l-2 14l-10 12l2 13l-17 47l-8 32v29l6 4l-10 29l-2 28 l-6 33l-2 31l-4 31l6 4l-6 2l-3 24l-16 -43l-20 -38l-21 -44l-12 -18h-4l-2 -10l-4 -10l-21 -41h-4v-7h4l-37 -73l-22 -41l-15 -29l-22 -22l-35 -50l-14 -16l-15 -10l-30 -23l-31 -14l-29 -14l-20 -4l-19 6l-2 -4l-37 4l-24 18l-19 27l-10 22l-4 10l2 11l-4 22l-2 23l-2 43 l2 37l12 8l-6 4l-2 20l4 19l10 4l-8 4v18l2 17v49l13 23l2 22l8 2v25l2 24l4 23l6 22v92l-4 3l6 4l-12 41l4 41l-8 32l-6 13l-11 10l-22 16l-29 -2l-37 -22l-6 4l-4 -8l-27 -21l-26 -12l-6 2l-19 -19l-12 5z" />
<glyph unicode="v" horiz-adv-x="817" d="M27 643v6l8 4v2l-2 2l16 21l21 14l8 19l2 8l2 4l4 4l6 4l10 19l15 2l33 -70l14 -14v-6l4 -3l2 -6l6 -6l14 -22l9 -2l28 -64l2 -2l7 -16v-6l6 -15l34 -65l13 -21l8 -20l6 -11l4 -12l23 -45l6 -4l22 -55l11 -15l2 -4l35 -59l2 -12l8 -7l2 -4l14 -16l4 -4l8 -16l9 -7l8 -2 l8 2l8 4l66 76l10 8l8 11l4 8l13 10l6 10l2 4l37 41l2 7l8 12l51 86l10 29l4 6l2 4l29 82l4 49l2 6v2l2 39l2 6l-2 10l6 4l-4 5v4l2 8l-6 2v37l-4 24l-6 17v26h-6v13l-21 26l4 2l-6 2l-2 6l-14 17l-16 8l-33 37v8l-6 4l-13 6l-10 9l-10 -3l-4 5l-21 2l-6 2v4l-2 4l6 4l2 4 l33 4l10 8l27 -8h4l4 2h4l8 -4l13 -4l24 -18l2 -7l4 -8l11 -12l2 -29l8 -8l4 -6l2 -4h21l6 6l4 8l6 6l8 -10l6 -14l4 -11l4 -8l9 -14l-2 -6l14 -39v-21l2 -4l2 -10l4 -10l6 -33l-4 -90l-14 -55l-10 -2l4 -4l-6 -25l-15 -31l4 -2l-16 -33l-2 -6l-4 -4l-8 -28l-7 -7l-10 -18 l-35 -41l-2 -6l-6 -8l-65 -90l-15 -11l4 -4l-22 -28l-10 -9l-13 -12l-59 -74l-16 -10l-29 -41l-8 -14l-11 -6l-20 -2l-33 -21l-8 2l-6 4l-6 13l-27 51l-8 6v12l-2 2l-8 4v4l-31 43l-10 17l-2 6l-11 25l-6 12l-6 6l-4 10l-29 47l-2 8l-8 13v8l-14 16l-35 78l-57 103l4 6l-8 6 l-9 12l-69 123z" />
<glyph unicode="w" horiz-adv-x="868" d="M27 670l4 18l6 14l26 39l15 31l16 23l12 -4l7 -7l18 -36l6 -11v-10l6 -10l9 -6l2 -4l10 -27l-6 -2l2 -6l2 -2l6 2l2 -70l-2 -4v-4l6 -6l-4 -6h4l-2 -99l4 -12l-2 -4l-2 -6l10 -51l-2 -66l8 -37v-6l-2 -12l-2 -10v-35l13 -90l-7 -7l7 -34l22 6v8l4 6l2 12l39 48l12 20l7 8 l10 15l4 8l8 8l19 24l12 15l6 10l10 8l17 27l12 37l39 45l12 22l25 11l8 -9l16 -57h6l27 -70l6 -8l6 -6l-6 -8l12 4l7 -41h4l10 -18l4 -5l4 -2v-2l17 -41l6 2l2 -6l4 -8l26 -18v-6l11 -9l6 -10l12 -2v-8l14 -2h11l39 39l10 18l18 37v2l8 16l29 68l4 25l4 6v6l2 10l13 49l6 9 l-2 6h-4v4h2l4 45l-4 2l2 4l4 4l-6 111l-13 45l-2 26h-2l-2 6l-20 54l-12 22l-5 4l-10 21l-10 12l-2 4l-21 12l-47 -30l-8 -6l-4 2l-2 6v12l-2 2l27 35l12 20l39 39l12 9l6 2l8 -2l9 -5l16 -14l16 -22l-2 -7l11 -8l2 -6l10 -8l24 -45l15 -39l-6 2v4l-7 4l15 -31l12 -67v-178 l-6 -29l-4 -51l-6 -23l-4 -8l-9 -20l-4 -7l-8 -47l-27 -45l-10 -32l-61 -103l-55 -53l-11 -8l-4 -4l-14 -11l-8 -6l-15 -4l-12 -6l-25 25l-8 12v4l-24 27l-9 6l-8 8l-55 84l-23 53l-12 19l-28 49h-5l-8 2l-14 -8l-29 -50l-16 -14l-6 -12l-6 -8l-56 -78l-18 -35l-8 -29 l-23 -32l-14 -13l-6 -2l-7 -8l-2 -2l-4 -6l-28 -15l-17 25l-4 45h-4v8l-2 2l2 2l-2 4l-4 52l-4 6l-2 8v14l-13 50l-2 77l-2 6v3l-2 20l-16 96v27l-2 2l-4 10l-12 64l-5 16l2 10l-4 8v21l-4 22v3l-2 6v14l-12 37l-8 20z" />
<glyph unicode="x" horiz-adv-x="724" d="M-53 -10l18 12l4 6l8 8l13 15l24 18l13 19l34 34l35 50l17 14l28 43l2 6l21 14l2 7l12 14l6 10l15 14v2h6l71 99l19 20l20 13l-18 26l-6 4l-8 17l-2 6h-5l-22 45l-16 16l-15 37l-14 16l-37 76l-4 13l-6 8l-39 71h-4l-4 15l-4 45l45 18l6 8h20l27 13l8 -4l8 -11l49 -73 l2 -13l9 -10l8 -16l16 -31l6 -2l9 -25l32 -53l4 -10l7 -2l4 -10l4 -2l22 -45h6l21 22l14 27l33 47l23 47l8 12l4 10l4 5l16 59l9 12l2 -2l6 4l16 17h6l8 -13h7l6 2l6 4l4 13l16 14l4 -2l11 -2l2 -2h8l2 -10l6 2v-6l-4 -7l-31 -75l-14 -23l-6 -2l-10 -16l-11 -23l-10 -6 l-4 -6l-2 -4v-6l-12 -9l-6 -6l-7 -14l-8 -4l-55 -80l-16 -18l-7 -9l-4 -6l-2 -12l10 -20l72 -113l2 -6l15 -29l4 -4h4l24 -47l6 -6l5 -17l10 -14l47 -68l8 -14v-4l23 -33l4 -18l10 -8l6 -13h4l10 -14l15 -21l4 -2l8 -6l-2 -8h-6l-10 -2l-2 -2l-15 6l-6 2l-18 19l-13 8 l-63 63v13h-2l-6 2l-4 -4l-11 -5l-22 21l-2 6l-10 23l-21 12l-12 10l-6 12l-25 19l-45 49l-16 16l-2 4h-5l-6 15l-14 10l-8 6l-6 6l-9 11l-4 8l-10 8l-24 -6l-19 -21l-10 -10v-10l-17 -21l-16 -6l-33 -53l-10 -6l-16 -31l-23 -24l-20 -11l-29 -47l-18 -12l-13 -23l-43 -49 l-49 -18l-8 -8l-51 -9v15z" />
<glyph unicode="y" horiz-adv-x="759" d="M-121 -840l2 9l21 20l4 10l2 17v6l2 4l8 12l10 33l13 4v10l4 13l18 16l4 4h8l11 -2v-8h4l-8 -35l-2 -49l10 -27l-4 -14l2 -8l4 -4l2 -9l2 -10l10 -22l8 -11l13 -12l-2 4l14 -20l4 -13l14 -4l2 -6l33 -18l41 -13l66 2l26 7h4l13 2l51 22l6 2l6 6l12 4l11 9l34 22v-6l5 2 l16 21l25 14l45 45l34 70l13 36l6 17l6 12l16 31v8l2 12l7 27l-2 25l8 26v8l2 4l-2 7v6l6 26l2 56l4 2l4 12v6l8 8l-4 27l4 53l-6 33l8 55l4 78l5 14l-3 13l-4 35l7 24l6 12l2 13v4l-13 57l9 60v108l-7 -2l3 25h-5l-2 65l-4 10l2 7l2 22l-8 70l4 2l4 8l-14 8l-8 35l-2 22v5 l-2 4h-2l2 10l-10 6l-19 -18l-29 -68l-6 -6l-6 -33l-18 -24l-37 -66l-19 -20l7 -3l-9 -12l-37 -51l-20 -37l-6 -8l-10 -6l-4 -2l-21 -21l-2 -4l-8 -6h-2l-13 -18l-67 -41l-8 -7h-6l-60 -28l-20 86l4 59l-4 6l-2 9l-9 49v59l-2 6l-2 4l2 27l-6 20l-2 43l6 29v23l-6 14v4l-2 4 v29l2 4l6 139l9 27l4 20l-2 17v10l6 33l-2 6l2 4v53l-2 8l4 7l6 12l6 18l25 4l30 17h21l2 -66l-6 -6l-2 -6l2 -6v-4l6 -6l-4 -23l-4 -6l-4 -21l2 -41l10 -30l-6 -107l8 -33l-2 -10l-4 -10l2 -18l-2 -17l2 -4l-2 -35l6 -6v-12l6 -13l-2 -26l-2 -35l4 -29v-49l-2 -8l4 -6 l-4 -6l8 -17l4 -30h4v-17l2 -6l7 -6l6 -2l16 8l12 10l5 17l18 30l22 21l9 20l6 5h6l6 10l-6 6l4 27l2 4l6 16l66 131l4 4l-2 6l49 127l2 33l10 14l11 33l2 2l4 10l12 19l49 18l19 23l28 6l6 4l9 4l12 2l12 -2v-28l2 -5l10 -18l-2 -10v-6l2 -19l5 -6l2 -23l10 -22l-2 -29 l14 -49l21 -184l-5 -17l5 -8l-7 -53l7 -53l-2 -53l-5 -27l2 -6l5 -21l-5 -55l-8 -57l-6 -23l2 -4l4 -12l-8 -74l-16 -90v-53l-15 -72v-8l-4 -17l-2 -16l-4 -10l-10 -21l8 -26l-6 -35v-15l-6 -18l-4 -94l-13 -39l-2 -2l-10 -23l-12 -24l-10 -10l-5 -9l-10 -34l-33 -54l-6 -12 l-6 -4l-14 -14l-19 -11l-26 -26l-15 -25l-32 -18l-23 -23l-6 -2l-6 2l-64 -37l-69 -20l-35 -23l-4 2v4h-17l-22 -6h-2l-6 4h-10l-23 -8l-21 4l-53 -2l-110 43l-19 21l-8 10l-2 2l-4 6l-6 19v8l-23 41v8l-2 14v2z" />
<glyph unicode="z" horiz-adv-x="763" d="M-92 -102l2 6l2 12l2 10l8 17l35 55h2l6 8l4 12l4 7l2 6l15 22l12 8l16 21l13 10l30 43l103 -4l16 -4h6l15 10l67 72h6l2 10l15 14l18 21l6 12l39 35h2l35 41l4 6l19 17l41 55l43 31h2l6 6v8l10 16l4 6l2 7l19 8l12 22l12 13l33 41l2 6l8 14l6 14v15l-49 -6l-37 -15 l-18 6l-12 -4l-19 -2l-14 4l-37 -6l-8 4l-8 2h-6v-4l-46 -4l-8 2h-4l-6 -4l-14 -6h-4l-9 -8l-14 -27l-6 -41l-2 -45l8 -24l2 -15l8 -6l2 -12l9 -21l-5 -8l-8 -6l-10 4l-20 -12l-5 -4l-6 -4l-10 -9l-6 2l-2 2l-8 17l-4 14l-2 17l-3 8l-6 18l-2 27l-16 37v14l-2 6l-4 8l-17 72 l4 4l-6 25l-2 4l-8 14l-6 43l-27 78l-6 31l-20 26l-4 15h-5l5 6l-5 22l7 8h8l31 11l8 -2l28 -39l7 -13l6 -2l10 -4l16 -20l27 -21l78 -39l16 -12l2 -8l4 -2l19 -6l30 -2l41 -13l29 -2l57 -16h103l8 -2l16 8h17l22 4l31 17v4h10l4 -2v-4l-6 -25h4v-4h29l-2 -12l-27 -31h-4 l-30 -21l-15 -22l-8 -8l-6 -8l-12 -9l-5 -4l-10 -16l-43 -39l-18 -25l-41 -32l-53 -70l-33 -35l-37 -47l-25 -20h-4l-8 -9h-4l-43 -59l-12 -6l-23 -25l-22 -18l-15 -25l2 -8l19 -14l33 -6l12 -11l63 -8l11 4h4l4 -2l18 -16l45 2l37 -14l84 -9l10 -4l13 -2l12 -8h20l19 -12 l67 4l-6 -58l-82 5l-16 -7l-39 11l-59 8l-121 8l-17 -2l-4 2l-75 10l-21 -4l-12 6h-8l-27 6h-31l-26 15l-58 -4l-4 -2l-8 -6l-4 -7l-35 -28l-20 -11l-7 -6l2 -2l-26 -18l-25 -33l-28 -14l-25 -4l-6 -17l-33 -10l-10 2z" />
<glyph unicode="&#xa1;" horiz-adv-x="548" d="M190 123l19 76v34l12 60v6l4 14l-6 27l14 66v24l5 21l-5 26l9 84l10 21l-2 14l-4 16v54l4 6v10l-2 2l4 74l-6 33l2 61l6 37l-8 16l2 29v6l-4 12l2 45l-2 13l2 8l-8 31l2 32l34 -6l31 -14l27 -6l8 -11l2 -22l-6 -16l-2 -7l4 -14v-45l-8 -59l-4 -115l-4 -23l4 -90l-2 -14 v-8l4 -68l-2 -10v-35l4 -4l-2 -4l-2 -6l4 -12v-25l4 -12v-4l-2 -11l6 -22l2 -56l6 -2l-2 -34l6 -62l8 -20l4 -43l13 -35l2 -10l2 -4l2 -7l-6 -22l-10 -33l-9 -53l-16 -43l-18 4l-23 14l-14 17l-17 6l-10 10l-53 43l-8 16l-2 17zM213 1321l4 16l10 21l29 16h4l12 2h4l9 -6 l39 -10l8 -6l10 -2l2 -6l4 -3l12 -20l5 -20l2 -37l-7 -29l-6 -12l-6 -6l-6 -5l-12 -4l-74 7l-23 20l3 18l-13 23l-6 33z" />
<glyph unicode="&#xa2;" horiz-adv-x="745" d="M41 461l8 18l2 13l-4 8l8 18l11 17l6 30l24 39l13 29l6 4l4 6l43 70l174 168l-2 4l12 6l4 4l49 41l29 18l8 7l15 12l4 6l2 14l4 15l4 20l10 39l27 90l8 19l16 18l15 2l8 -6l12 -29l-4 -4l4 -4l2 -8v-2l-4 -15l-10 -8l-12 -24v-2l-5 -15l-16 -47v-22l74 39l47 14l25 -2 l6 -2l4 -4v-6l-27 -41l-4 -25l-10 2l-15 -4h-20l-45 -8l-8 -6l-17 -21l-20 -6l-12 -6l-7 -10l-2 -11l-16 -57l-2 -12l-4 -10l-23 -95l-4 -10l-4 -14l-6 -8l-20 -86v-9l-5 -8l-14 -72l-14 -32l-6 -25l-33 -123l-10 -22l-2 -8l6 -17l8 6h18l70 17l22 8l95 67l49 56l12 12 l25 18l8 11l6 8l2 4l10 14l6 11l7 8l14 12l12 16l19 37l8 8h10v-6h4v-6l-14 -26l-21 -35l-65 -78l-6 -12l-41 -52l-27 -16l-33 -39l-45 -39l-12 -4l-23 -22l-81 -31l-68 -10v-9l-6 -6l-4 -16l-11 -45l-2 -16l-24 -70l-12 -8l-13 -23l-18 2l-8 17l4 12l2 8l8 23l18 63l11 39 l8 35l-43 8l-35 20h-4v7l-8 10l-4 6h-2l-7 6l-6 4l-26 6l-19 9l-18 20l-6 12l-13 11l-4 8l-6 10l-4 18zM90 500l8 -58l2 -8l4 -6l2 -4l5 -2h12l10 2l4 6l2 6v19l6 30v9l7 20l14 43l65 133l33 51l-22 4l-23 -8l-8 -12l-4 -12l-27 -27l-4 -6l-6 -8l-10 -17l-8 -6l-13 -18 l-10 -25l-4 -4l-14 -22zM180 481l2 -51l4 -33l15 -6l4 -26l43 -35v-11l26 -4l19 76l8 12l21 86l45 156l10 62l43 143l4 29l4 8l4 4l-22 -4l-2 -8l-5 -9l-8 -6l-4 -4h-4l-4 -2l2 -2l-8 -10l-10 -10l-5 -9l-43 -39l-16 -26l-12 -14l-2 -5l-8 -12l-52 -92l-4 -10l-6 -6 l-35 -113z" />
<glyph unicode="&#xa3;" horiz-adv-x="1140" d="M0 76l6 24l4 19l4 14l4 8l7 4l41 50l22 16h31l18 12l156 -12l43 -14l8 -7l10 -4l6 -4l60 -18l4 -2l25 -2l20 16l47 57l6 25l4 12l4 6h5l4 64l-4 6l4 2l-11 62l-2 2l-2 4l-4 10l2 12l-8 23h-4l-4 6l-4 27l-8 22h-2l-3 2l-10 17l-30 75l-29 -6l-51 2l-19 -4l-33 4l-16 4h-4 l-12 -8h-101l-26 6l45 37l41 27l57 4l94 -4l19 4l-27 31l-16 30l-15 31l-4 16l-4 4l-8 17l-6 16l-2 2l-8 43l-9 21l-6 49l6 43l2 4v12l11 21l2 8l2 12l4 27l12 27l6 10l4 4l9 2v8l-9 4l-4 4l4 8l13 9l4 4l2 16l29 17l12 14l55 39l14 14l58 33l33 10h34l39 10h45l27 -16 l10 -8l2 -2l8 -4l7 -9l16 -12l10 -10l19 -29l4 -16l6 -2l4 -8l10 -39l8 -17l-2 -26l-14 -17l-47 -32l-10 12l-4 6l-13 25l-4 24l-2 6l-31 52l-41 30l-28 15l-21 2l-8 8h-4l-12 -4l-21 -2l-55 -31l-41 -43l-8 -14l-2 -7l-2 -8l-13 -20l-6 -4l-2 -4l-2 -7v-8l-10 -24l-6 -47 l4 -7l-2 -4v-4l4 -18l8 -41l6 -6v-8l13 -33l2 -11l4 -18l4 -8l2 -14l45 -66l8 -20l23 -37l6 -13l4 -6l-2 -14l8 -6h8l166 -4l10 -4l21 4l35 -4l16 4l6 -2h4l6 -2v-11l-45 -22h-6l-10 2l-18 -10l-23 2l-18 -7l-19 3l-14 -9h-51l-13 -4h-10l-4 -4l8 -10l2 -33l21 -24l6 -21 l2 -4l4 -16l4 -9l4 -55l-2 -6l2 -2l-2 -66l4 -6l-26 -84l-45 -63l-31 -33l-8 -10l-9 -4l-10 -8l-14 -15l22 -12l35 -8l25 -11l65 -12l2 -6h25l22 -6l11 2l18 -2l10 2l31 -6l25 4l45 -2l18 6l29 2l119 27l26 16l49 14l7 7l4 2l10 4l26 10l9 4l6 2v-12l-23 -19l-6 -18l-4 -2 l-14 -2l-6 -27l-21 -6l-2 -2l-6 -4l-43 -21l-10 -2l-21 -14l-12 -2l-4 -2h-23l-4 -14l-104 -33l-13 2l-12 -10l-35 -9l-137 -10l-74 8l-14 7l-14 4l-6 2l-152 45l-41 -23l-119 -41h-30l-48 -6l-45 2l-10 4l-4 -2l-51 19l-4 6l-10 12l-9 14l-4 21l-4 6l-4 16zM43 59l6 -22 l10 -14l15 -13l18 -8l43 4l10 -6l19 10l22 -6l54 21l20 16l10 -2l35 16l-2 13l-22 12l-60 16l-59 13l-4 6l-11 2l-16 -4l-37 6l-10 -10l-16 -13l-7 -4l-4 -4z" />
<glyph unicode="&#xa5;" horiz-adv-x="1038" d="M41 848l8 2h8l9 6l6 2v4l65 10l90 -10l19 2l12 -2l8 2l58 -8l12 2h22l68 -2l10 6l-12 31l-8 4l-6 21l-19 26v2l-8 15l-8 10l-4 8l-2 10l-15 37l-8 12l-10 19l-17 59l-14 6l-4 8l-2 7v2l-25 67l-14 11l-6 2l-2 6l-4 6l-2 14l16 6l6 27l13 8l12 19l6 4v2l14 20l2 10l4 2 l7 3l6 -3l12 -12l4 -12v-4l4 -6l2 -9h4l2 -4l5 -10l6 -12l2 -6l4 -21l4 -8l6 -29l8 -14l4 -2l17 -43l4 -6l4 -4v-8h2v-19l14 -16l13 -33l2 -8l6 -6l4 -21l45 -65l-4 -23l18 -14l11 -10l38 -78h2l9 -21l6 -8l6 -2l6 4l8 8l6 10l5 13l10 24l2 4l6 7l14 43l11 12l6 12l8 37 l33 76l6 33l10 28l-2 6l8 21v14l4 13l2 14h2l-2 14l4 43l45 41h5l4 -2l51 35l26 6l7 -6l2 -10v-43l-2 -35l-9 -21l-2 -26h-4l-4 -6l-4 -4l-10 -70l-43 -103l-6 -18l-13 -10v-10l-4 -13l-6 -16l-4 -6l-6 -21l-12 -28l164 14l43 2h26l39 -2l12 -8l-14 -15l-2 -4l2 -10l-12 -18 l-37 -37l-80 -6l-4 -2l-41 2l-47 -7h-8l-17 -2l-61 -4l-19 -4l-4 2l-12 -14l-16 -31l-4 -24h4l2 -9v-4h-4l-2 -4l-15 -24v-4l-2 -13l-10 -73l-2 -7v-4l2 -8l6 -4l29 4l114 8l19 -2l170 21l14 -2l8 -4l-20 -76l-2 -23l-12 -4h-11l-71 -6l-29 4l-72 -10l-16 6h-2l-6 -2l-11 -6 l-57 -2l-8 -2l-10 2l-50 -2l-2 -29l-2 -8l-2 -14l-2 -95l-2 -6v-8l2 -2l-4 -49l6 -39l-4 -14v-4l4 -52l2 -14l-2 -6l6 -76l3 -4v-12l4 -9l18 -135l-16 21l-6 14l-5 2l-4 6h-2v4l-4 13l-14 32l-23 29h-2l-2 4l-18 8l-6 5l-6 22l-7 57l-4 21v35l-10 32l2 46l-8 18v51l2 4l-8 8 l-2 15l4 106l-4 21l-11 6l-10 -2h-16l-6 -2l-33 -2h-45l-31 4h-57l-23 14l-26 2l-19 6l-4 4l-2 5l-8 2l-14 14l-33 12l-27 29l21 8l39 -2l8 2h6l20 2l52 -4l10 -2l6 -2h4l74 -6l108 4l9 -2l10 4l-2 12l2 6v41l16 50v18l-14 18v7h-6l-9 28l-4 6l-2 6l-2 29l-8 4l-41 -2l-10 4 h-21l-30 -2l-4 -2h-5l-12 2l-24 -2l-23 8l-88 7l-31 -3l-28 9l-2 6l-4 8l-7 4l-28 6l-43 17l-25 2z" />
<glyph unicode="&#xa8;" horiz-adv-x="667" d="M135 1030l4 12l-4 43l10 21l31 6l47 2l25 -6l18 -2l8 -6l9 -29l2 -47l-11 -43l-36 -14l-78 -2l-23 8zM408 997l4 74l8 31l22 4l9 8l47 -4h20l6 -4l11 -2l22 -29l2 -53l-14 -35l-19 -18l-39 -6l-14 4h-10l-2 -4l-47 4z" />
<glyph unicode="&#xab;" horiz-adv-x="784" d="M104 397l2 15l9 4l65 69l27 39l8 8l4 9l6 6l17 20l6 8l78 111l8 23l26 32l17 35l2 10l12 15l70 28l22 9l15 -2l-4 -25l-9 -6l-18 -37l-14 -16l-52 -76l-32 -35l-4 -2l-9 -8l-16 -27l-6 -6l-6 -8l-58 -66l-14 -24l-18 -19l-7 -8l11 -12l12 -12l2 -5l33 -34l12 -19l6 -4 l8 -12l37 -51l4 -9l9 -12l6 -6l30 -51l2 -13l11 -8l12 -26l23 -35l8 -17l6 -24l6 -12l6 -9l2 -10l-2 -8l-6 -8l-12 -10l-47 -54l-29 43l-29 31l-30 47l-9 19v6l-24 24l-10 19l-5 6l-2 2l-2 4v6l-26 35l-29 49l-41 37l-4 10l-4 4l-10 4l-17 17l-6 4l-4 6zM344 449v8l10 14 l4 2l4 6l31 39l35 37l12 25l23 24l20 39l33 37l2 6l4 6l13 13l6 16l12 14l2 6l31 41l16 41l86 39l12 4l9 -8l-7 -18l-40 -64l-15 -12l-14 -25l-6 -8l-9 -12l-22 -29v-2l-4 -2l-8 -6l-86 -109l-13 -22l-24 -25v-8l6 -14l2 -4l8 -11l2 -4l2 -2l4 -6l17 -14l4 -6l10 -15l35 -53 l6 -2v-6l4 -6l70 -119l6 -6l4 -6l2 -2l14 -35l11 -8l26 -41l2 -6l9 -11l2 -20v-4l-9 -19l-8 -10v-8l-2 -4l-2 -6h-4l-12 -13l-6 -26l-11 2l-14 20l-16 33l-2 2l-9 6l-65 76l-2 6l-4 2l-2 8l-35 41l-17 25l-43 57l-12 27l-10 8l-31 47l-8 4z" />
<glyph unicode="&#xad;" horiz-adv-x="841" d="M121 516l4 8l6 11l6 26l6 12l11 2l4 7l16 6l66 -19l22 4l41 -6l84 -2l342 8l16 -18l7 -16l2 -11l-9 -22l-6 -14h-4v-27l-4 -12l-49 6h-37l-14 2h-13l-59 -2l-27 4l-98 -2l-78 4l-4 4l-22 -4l-8 -4l-23 -2h-145l-31 10z" />
<glyph unicode="&#xb1;" horiz-adv-x="1124" d="M90 39v139h946v-139h-946zM90 539v139h404v250h139v-250h403v-139h-403v-250h-139v250h-404z" />
<glyph unicode="&#xb4;" horiz-adv-x="579" d="M135 911l6 19l4 4l2 4l25 35l6 10l8 6l2 4l15 27l14 18h2l4 4l8 13l2 4l5 6l45 72l18 34l10 13l25 24l6 15l2 2l10 6l4 2l19 2l4 -4l6 -2l35 -37v-4l2 -2l4 -2l27 -6l6 -2l4 -5l-16 -51l-13 -12l-12 -10l-8 -6l-17 -15l-2 -4l-24 -29l-27 -8l-35 -24l-12 -6l-6 -5l-10 -8 h-2l-13 -12l-39 -20l-4 -9l-2 -2l-14 -8l-10 -12l-9 -6l-2 -2l-20 -9l-6 5l-10 -9l-5 -2h-4z" />
<glyph unicode="&#xb5;" horiz-adv-x="1179" d="M150 -285q-2 55 2 150q6 111 6 151q0 117 -2 207l-4 195v502h188v-607q0 -119 14 -159q27 -82 117 -84q147 -2 221 233q51 164 51 350v267h189v-672q0 -176 78 -178q88 -4 88 168v28h43q0 -10 2 -18v-27q0 -238 -185 -239q-203 -4 -208 352q-66 -256 -201 -324 q-53 -29 -123 -28q-180 -2 -231 211v-23q-2 -20 -2 -35q-2 -111 64.5 -278.5t66.5 -198.5q0 -84 -86 -86q-84 -2 -88 143z" />
<glyph unicode="&#xb7;" horiz-adv-x="448" d="M152 680l8 27l10 14l37 14l37 -4l35 6l10 -4l16 -6l6 -6v-55l-4 -17l-2 -4l4 -10l2 -21l-14 -34l-21 -2h-6l-12 -3l-86 9l-8 12z" />
<glyph unicode="&#xbb;" horiz-adv-x="782" d="M53 29l8 18l45 62l33 32l6 9l9 10l26 30l4 3l9 6l92 100l14 20l25 23l4 8l-6 15l-3 6l-8 10l-2 4l-2 2l-2 8l-14 17l-4 4l-8 16l-3 2l-28 51l-4 4l-4 13l-60 125l-6 8l-4 6l-2 2l-12 35l-11 8l-22 43l-2 6l-6 10l-2 25l10 18l8 13l4 12l6 6l15 10l8 23l10 -2l14 -21l2 -2 l13 -30l2 -2l6 -11l59 -77l2 -9l4 -2v-10l31 -41l12 -24l41 -62l11 -29l10 -8l27 -49l8 -6l33 -55v-11l-11 -14l-4 -2l-4 -4l-33 -37l-41 -35l-12 -22l-27 -21l-24 -37l-37 -43l-2 -6l-14 -12l-9 -16l-12 -13l-4 -6l-33 -37l-18 -37l-90 -34l-13 -2zM266 35l6 26l7 7l20 32 l18 15l58 71l35 35l4 2l8 8l20 25l7 4l8 10l61 58l17 22l18 17l6 10l-8 14l-10 12l-2 5l-33 38l-10 17l-7 6l-8 10l-20 39l-4 6l-4 8l-7 11l-6 14l-4 6l-26 55v11l-11 10l-10 25l-20 36l-4 11l-5 8l-4 16v8l-10 21l-2 10l2 10l8 9l15 8l51 47l24 -43l25 -33l27 -49l6 -21v-6 l4 -6l18 -20l8 -21l7 -4l2 -2l2 -4v-4l22 -39l25 -53l37 -41l4 -8l4 -5l10 -6l14 -16l5 -6l4 -4l22 -15l-2 -12l-8 -4l-70 -68l-43 -51l-6 -6l-8 -10l-10 -8l-6 -7l-86 -106l-13 -23l-28 -28l-7 -19l-12 -12l-2 -12l-14 -13l-74 -22l-25 -10z" />
<glyph unicode="&#xbf;" horiz-adv-x="888" d="M86 205l6 10l-4 10l4 41l6 19l8 20l23 45l21 23v4l6 2l22 35l58 55l4 12l18 15l4 -2l2 4l12 10l43 41l21 14l39 41l16 6l66 62l12 8l4 4l4 8l21 21l6 4l6 6l14 10l4 2l11 2l6 21l16 16l4 10l6 4l7 19v53l-11 25l-14 16l-10 6h-4l-2 6l-47 31l-123 45l-84 19l-2 6v4l6 10 l12 4l53 10l21 11l98 -11l150 -36v-5l22 -8l21 -10l8 -14h4l10 -8l17 -17l22 -37v-26l-2 -9l-6 -10l-23 -49h-4l-2 -4l-12 -12l-31 -35l-229 -201l-49 -49l-2 -6l-7 -2l-14 -21l-2 -2l-6 -4l-64 -80l-6 -20l-4 -4l-4 -8l-2 -7l-2 -16l-6 -4v-4l-4 -6l-4 -9l-8 -22l-7 -55 l7 -41l4 -4l2 -9l10 -26l10 -8l2 -11v-4h4l4 -6l19 -20l41 -23l20 -4l47 4l27 4l8 2l6 -4h2v2l19 2l78 39l2 2l14 4l18 11l9 4l10 6l53 28l25 23l24 35l11 6l14 18l8 25l21 4l14 -4l4 -2l6 2l6 6l8 10l11 13l2 4l6 2l22 -15l7 -10l8 -12v-6l-13 -25l-16 -12l-4 -10l-33 -27 l-4 -2l-6 -4l-10 -4l-2 -6l-23 -17l-8 -8h-6l-17 -16l-82 -47v-5l-10 -2l-53 -26l-37 -15l-12 -6l-21 -8l-8 -4l-10 -4l-6 -2l-47 -19l-39 -4l-39 -14l-92 10l-74 27l-8 10l-8 4l-7 13h-4l-6 6l-6 2l-10 16l-6 4l-4 8l-13 15l-6 24l-4 21v22zM397 1305l2 10v4l9 27l20 26 l33 -8l31 8h22l18 -6l15 -23l6 -10v-10l6 -4l-2 -21l6 -6l-10 -59v-8l-25 -2l-18 -11h-6l-8 -2l-52 7l-18 14l-2 6l-14 14l-4 47z" />
<glyph unicode="&#xc0;" horiz-adv-x="878" d="M-41 33v8l4 6l8 8l6 23l17 22l8 17l6 10v6l25 60l49 83l4 3l2 2l18 57l33 43l2 14l4 2l19 17l4 22l-4 8l4 21l-18 27l-13 2l-6 6l-4 6v12l8 6l12 2l13 15h14l14 18l7 2l12 6h14l10 2l23 6l14 3l11 20l28 25l17 26l53 58l16 30l10 -2l50 58l12 10l10 8v29l-8 43l2 28l4 2 l-4 5l-4 20l-2 12v21l-2 12v16l-4 25v8l2 8l2 11l-4 4l2 45l-4 12l-2 66l-2 18l-5 10l-2 45l25 11l6 4l2 4l4 12l23 10l6 11l37 -11l14 -47l4 -53l2 -12v-13l11 -114l-3 -6v-13l3 -67l6 -27l-2 -6l4 -8l59 45v2l10 2l64 43h12l6 2v2l4 4l11 16l30 7l-2 -27l-10 2l-14 -12 l-4 -6l-7 2l-40 -50l-29 -8l-6 -8l-8 -6l-29 -33l-15 -14l-16 -15l-2 -45l-2 -8l2 -8v-20l10 -21l2 -27l4 -12l2 -14l13 -33l39 -151l20 -46l25 -71l10 -21l31 -84l14 -16l18 -12l9 -33h4v-10l6 -29l59 -104l23 -37l4 -11l-4 -8l-6 -8l-35 -29l-19 -2l-8 -6h-4v-4l-18 -8 l-13 2l-28 49l-10 6l-19 25l6 10v4l-6 10v4l-12 13l-10 33l-97 188l-14 14l-27 17l-8 8l-69 43l-52 43l-10 6l-2 4l-57 21l-25 2l-2 4h-12l-39 4l-21 -12l-22 -41l-6 -7l-4 -8l-4 -6l-11 -18l-6 -4l-2 -7l-8 -14l-8 -22l-19 -17l-10 -33l-14 -24l-8 -12l-5 -5l-14 -34 l-27 -54v-8l-12 -26l-2 -23l-14 -29l-2 -24l10 -37l-6 -23l-27 -45l-8 -4l-10 -6h-4l-13 2l-14 2zM217 1677l2 4l10 2l27 7l4 2l2 2l-2 4l37 37l6 2l4 4l19 -2l4 -2l10 -6l2 -2l6 -15l10 -10l7 -10l6 -4l10 -13l16 -35l68 -98h2l14 -18l15 -27v-4l10 -6l6 -10l25 -35l4 -8 l6 -19l-6 -4h-4l-5 2l-10 8l-6 -4l-20 8l-4 3l-9 6l-10 12l-12 8l-2 2h-2l-4 8l-9 4l-28 17l-6 6l-4 2l-5 4h-2l-18 12l-10 7l-33 24l-27 8l-26 29v4l-17 14l-8 7l-12 10l-12 12zM350 582l31 -11l53 -12l6 -4l4 -2h2l9 2v-6l28 -12l11 -7l12 -8l37 -35l8 -4l6 2l2 9l-2 10 l-12 26l-8 39l-13 29v23l-8 4l-4 10v6l-4 2l-8 41v21l-8 28l-5 6l-4 4l-6 2h-4l-10 -10l-51 -71l-19 -13l-39 -55l-2 -6z" />
<glyph unicode="&#xc1;" horiz-adv-x="878" d="M-41 33v8l4 6l8 8l6 23l17 22l8 17l6 10v6l25 60l49 83l4 3l2 2l18 57l33 43l2 14l4 2l19 17l4 22l-4 8l4 21l-18 27l-13 2l-6 6l-4 6v12l8 6l12 2l13 15h14l14 18l7 2l12 6h14l10 2l23 6l14 3l11 20l28 25l17 26l53 58l16 30l10 -2l50 58l12 10l10 8v29l-8 43l2 28l4 2 l-4 5l-4 20l-2 12v21l-2 12v16l-4 25v8l2 8l2 11l-4 4l2 45l-4 12l-2 66l-2 18l-5 10l-2 45l25 11l6 4l2 4l4 12l23 10l6 11l37 -11l14 -47l4 -53l2 -12v-13l11 -114l-3 -6v-13l3 -67l6 -27l-2 -6l4 -8l59 45v2l10 2l64 43h12l6 2v2l4 4l11 16l30 7l-2 -27l-10 2l-14 -12 l-4 -6l-7 2l-40 -50l-29 -8l-6 -8l-8 -6l-29 -33l-15 -14l-16 -15l-2 -45l-2 -8l2 -8v-20l10 -21l2 -27l4 -12l2 -14l13 -33l39 -151l20 -46l25 -71l10 -21l31 -84l14 -16l18 -12l9 -33h4v-10l6 -29l59 -104l23 -37l4 -11l-4 -8l-6 -8l-35 -29l-19 -2l-8 -6h-4v-4l-18 -8 l-13 2l-28 49l-10 6l-19 25l6 10v4l-6 10v4l-12 13l-10 33l-97 188l-14 14l-27 17l-8 8l-69 43l-52 43l-10 6l-2 4l-57 21l-25 2l-2 4h-12l-39 4l-21 -12l-22 -41l-6 -7l-4 -8l-4 -6l-11 -18l-6 -4l-2 -7l-8 -14l-8 -22l-19 -17l-10 -33l-14 -24l-8 -12l-5 -5l-14 -34 l-27 -54v-8l-12 -26l-2 -23l-14 -29l-2 -24l10 -37l-6 -23l-27 -45l-8 -4l-10 -6h-4l-13 2l-14 2zM350 582l31 -11l53 -12l6 -4l4 -2h2l9 2v-6l28 -12l11 -7l12 -8l37 -35l8 -4l6 2l2 9l-2 10l-12 26l-8 39l-13 29v23l-8 4l-4 10v6l-4 2l-8 41v21l-8 28l-5 6l-4 4l-6 2h-4 l-10 -10l-51 -71l-19 -13l-39 -55l-2 -6zM420 1417l6 19l4 4l2 4l25 35l6 10l8 6l2 4l14 27l15 18h2l4 4l8 13l2 4l4 6l45 71l19 35l10 13l25 24l6 15l2 2l10 6l4 2l19 2l4 -4l6 -2l35 -37v-4l2 -2l4 -2l26 -7l6 -2l5 -4l-17 -51l-12 -12l-12 -10l-9 -7l-16 -14l-2 -4 l-25 -29l-26 -8l-35 -24l-12 -7l-6 -4l-11 -8h-2l-12 -12l-39 -21l-4 -8l-2 -2l-14 -8l-11 -12l-8 -6l-2 -3l-20 -8l-7 4l-10 -8l-4 -2h-4z" />
<glyph unicode="&#xc2;" horiz-adv-x="878" d="M-41 33v8l4 6l8 8l6 23l17 22l8 17l6 10v6l25 60l49 83l4 3l2 2l18 57l33 43l2 14l4 2l19 17l4 22l-4 8l4 21l-18 27l-13 2l-6 6l-4 6v12l8 6l12 2l13 15h14l14 18l7 2l12 6h14l10 2l23 6l14 3l11 20l28 25l17 26l53 58l16 30l10 -2l50 58l12 10l10 8v29l-8 43l2 28l4 2 l-4 5l-4 20l-2 12v21l-2 12v16l-4 25v8l2 8l2 11l-4 4l2 45l-4 12l-2 66l-2 18l-5 10l-2 45l25 11l6 4l2 4l4 12l23 10l6 11l37 -11l14 -47l4 -53l2 -12v-13l11 -114l-3 -6v-13l3 -67l6 -27l-2 -6l4 -8l59 45v2l10 2l64 43h12l6 2v2l4 4l11 16l30 7l-2 -27l-10 2l-14 -12 l-4 -6l-7 2l-40 -50l-29 -8l-6 -8l-8 -6l-29 -33l-15 -14l-16 -15l-2 -45l-2 -8l2 -8v-20l10 -21l2 -27l4 -12l2 -14l13 -33l39 -151l20 -46l25 -71l10 -21l31 -84l14 -16l18 -12l9 -33h4v-10l6 -29l59 -104l23 -37l4 -11l-4 -8l-6 -8l-35 -29l-19 -2l-8 -6h-4v-4l-18 -8 l-13 2l-28 49l-10 6l-19 25l6 10v4l-6 10v4l-12 13l-10 33l-97 188l-14 14l-27 17l-8 8l-69 43l-52 43l-10 6l-2 4l-57 21l-25 2l-2 4h-12l-39 4l-21 -12l-22 -41l-6 -7l-4 -8l-4 -6l-11 -18l-6 -4l-2 -7l-8 -14l-8 -22l-19 -17l-10 -33l-14 -24l-8 -12l-5 -5l-14 -34 l-27 -54v-8l-12 -26l-2 -23l-14 -29l-2 -24l10 -37l-6 -23l-27 -45l-8 -4l-10 -6h-4l-13 2l-14 2zM193 1401l22 16l8 15l8 2l5 6l32 22l31 29l143 170l21 8v19l-6 8l14 12l16 6l9 6l10 2l6 13l20 4l9 2h2l6 -8l16 -33l4 -6l80 -115l43 -47l39 -31l4 -2l62 -47l34 -16l7 -6 l4 -9l-2 -6l-9 -6h-14l-49 -10l-25 6l-36 16l-13 15h-16l-14 14l-29 8l-19 19l-14 8l-14 16l-10 8l-5 2l-2 5l-26 24l-4 8l-9 4l-6 9l-4 6l-6 18l-31 29h-6l-2 -2l-2 -8l-2 -2l-10 -13l-12 -16l-9 -8l-6 -11l-6 -4l-8 -8l-4 -10l-12 -8l-9 -6l-28 -35l-7 -6l-4 -2l-18 -25 l-4 -4l-4 -8l-23 -11l-6 -8l-14 -4h-6l-13 -6l-26 -4l-15 -8zM350 582l31 -11l53 -12l6 -4l4 -2h2l9 2v-6l28 -12l11 -7l12 -8l37 -35l8 -4l6 2l2 9l-2 10l-12 26l-8 39l-13 29v23l-8 4l-4 10v6l-4 2l-8 41v21l-8 28l-5 6l-4 4l-6 2h-4l-10 -10l-51 -71l-19 -13l-39 -55 l-2 -6z" />
<glyph unicode="&#xc3;" horiz-adv-x="878" d="M-41 33v8l4 6l8 8l6 23l17 22l8 17l6 10v6l25 60l49 83l4 3l2 2l18 57l33 43l2 14l4 2l19 17l4 22l-4 8l4 21l-18 27l-13 2l-6 6l-4 6v12l8 6l12 2l13 15h14l14 18l7 2l12 6h14l10 2l23 6l14 3l11 20l28 25l17 26l53 58l16 30l10 -2l50 58l12 10l10 8v29l-8 43l2 28l4 2 l-4 5l-4 20l-2 12v21l-2 12v16l-4 25v8l2 8l2 11l-4 4l2 45l-4 12l-2 66l-2 18l-5 10l-2 45l25 11l6 4l2 4l4 12l23 10l6 11l37 -11l14 -47l4 -53l2 -12v-13l11 -114l-3 -6v-13l3 -67l6 -27l-2 -6l4 -8l59 45v2l10 2l64 43h12l6 2v2l4 4l11 16l30 7l-2 -27l-10 2l-14 -12 l-4 -6l-7 2l-40 -50l-29 -8l-6 -8l-8 -6l-29 -33l-15 -14l-16 -15l-2 -45l-2 -8l2 -8v-20l10 -21l2 -27l4 -12l2 -14l13 -33l39 -151l20 -46l25 -71l10 -21l31 -84l14 -16l18 -12l9 -33h4v-10l6 -29l59 -104l23 -37l4 -11l-4 -8l-6 -8l-35 -29l-19 -2l-8 -6h-4v-4l-18 -8 l-13 2l-28 49l-10 6l-19 25l6 10v4l-6 10v4l-12 13l-10 33l-97 188l-14 14l-27 17l-8 8l-69 43l-52 43l-10 6l-2 4l-57 21l-25 2l-2 4h-12l-39 4l-21 -12l-22 -41l-6 -7l-4 -8l-4 -6l-11 -18l-6 -4l-2 -7l-8 -14l-8 -22l-19 -17l-10 -33l-14 -24l-8 -12l-5 -5l-14 -34 l-27 -54v-8l-12 -26l-2 -23l-14 -29l-2 -24l10 -37l-6 -23l-27 -45l-8 -4l-10 -6h-4l-13 2l-14 2zM176 1495l35 31l35 26l4 7l10 10l29 8l6 10l12 6l35 21l25 6v4l4 2l16 6l74 17l55 -2l2 -5l14 -2l37 -18l13 -2l6 -2v-4l8 -2l25 -19l49 -16l28 4l19 -2l67 20l39 25l8 -4 l-2 -12l-65 -70l-66 -41l-41 -16l-34 -6l-64 20l-2 2l-8 6l-82 43l-66 4l-49 -8l-116 -35l-31 -16l-17 -6l-8 4zM350 582l31 -11l53 -12l6 -4l4 -2h2l9 2v-6l28 -12l11 -7l12 -8l37 -35l8 -4l6 2l2 9l-2 10l-12 26l-8 39l-13 29v23l-8 4l-4 10v6l-4 2l-8 41v21l-8 28l-5 6 l-4 4l-6 2h-4l-10 -10l-51 -71l-19 -13l-39 -55l-2 -6z" />
<glyph unicode="&#xc4;" horiz-adv-x="878" d="M-41 33v8l4 6l8 8l6 23l17 22l8 17l6 10v6l25 60l49 83l4 3l2 2l18 57l33 43l2 14l4 2l19 17l4 22l-4 8l4 21l-18 27l-13 2l-6 6l-4 6v12l8 6l12 2l13 15h14l14 18l7 2l12 6h14l10 2l23 6l14 3l11 20l28 25l17 26l53 58l16 30l10 -2l50 58l12 10l10 8v29l-8 43l2 28l4 2 l-4 5l-4 20l-2 12v21l-2 12v16l-4 25v8l2 8l2 11l-4 4l2 45l-4 12l-2 66l-2 18l-5 10l-2 45l25 11l6 4l2 4l4 12l23 10l6 11l37 -11l14 -47l4 -53l2 -12v-13l11 -114l-3 -6v-13l3 -67l6 -27l-2 -6l4 -8l59 45v2l10 2l64 43h12l6 2v2l4 4l11 16l30 7l-2 -27l-10 2l-14 -12 l-4 -6l-7 2l-40 -50l-29 -8l-6 -8l-8 -6l-29 -33l-15 -14l-16 -15l-2 -45l-2 -8l2 -8v-20l10 -21l2 -27l4 -12l2 -14l13 -33l39 -151l20 -46l25 -71l10 -21l31 -84l14 -16l18 -12l9 -33h4v-10l6 -29l59 -104l23 -37l4 -11l-4 -8l-6 -8l-35 -29l-19 -2l-8 -6h-4v-4l-18 -8 l-13 2l-28 49l-10 6l-19 25l6 10v4l-6 10v4l-12 13l-10 33l-97 188l-14 14l-27 17l-8 8l-69 43l-52 43l-10 6l-2 4l-57 21l-25 2l-2 4h-12l-39 4l-21 -12l-22 -41l-6 -7l-4 -8l-4 -6l-11 -18l-6 -4l-2 -7l-8 -14l-8 -22l-19 -17l-10 -33l-14 -24l-8 -12l-5 -5l-14 -34 l-27 -54v-8l-12 -26l-2 -23l-14 -29l-2 -24l10 -37l-6 -23l-27 -45l-8 -4l-10 -6h-4l-13 2l-14 2zM287 1536l4 12l-4 43l10 21l31 6l47 2l24 -6l19 -2l8 -6l8 -29l2 -47l-10 -43l-37 -14l-78 -3l-22 9zM350 582l31 -11l53 -12l6 -4l4 -2h2l9 2v-6l28 -12l11 -7l12 -8l37 -35 l8 -4l6 2l2 9l-2 10l-12 26l-8 39l-13 29v23l-8 4l-4 10v6l-4 2l-8 41v21l-8 28l-5 6l-4 4l-6 2h-4l-10 -10l-51 -71l-19 -13l-39 -55l-2 -6zM559 1503l4 74l8 31l23 4l8 8l47 -4h21l6 -4l10 -2l23 -29l2 -53l-15 -35l-18 -18l-39 -7l-14 5h-11l-2 -5l-47 5z" />
<glyph unicode="&#xc5;" horiz-adv-x="878" d="M-41 33v8l4 6l8 8l6 23l17 22l8 17l6 10v6l25 60l49 83l4 3l2 2l18 57l33 43l2 14l4 2l19 17l4 22l-4 8l4 21l-18 27l-13 2l-6 6l-4 6v12l8 6l12 2l13 15h14l14 18l7 2l12 6h14l10 2l23 6l14 3l11 20l28 25l17 26l53 58l16 30l10 -2l50 58l12 10l10 8v29l-8 43l2 28l4 2 l-4 5l-4 20l-2 12v21l-2 12v16l-4 25v8l2 8l2 11l-4 4l2 45l-4 12l-2 66l-2 18l-5 10l-2 45l25 11l6 4l2 4l4 12l23 10l6 11l37 -11l14 -47l4 -53l2 -12v-13l11 -114l-3 -6v-13l3 -67l6 -27l-2 -6l4 -8l59 45v2l10 2l64 43h12l6 2v2l4 4l11 16l30 7l-2 -27l-10 2l-14 -12 l-4 -6l-7 2l-40 -50l-29 -8l-6 -8l-8 -6l-29 -33l-15 -14l-16 -15l-2 -45l-2 -8l2 -8v-20l10 -21l2 -27l4 -12l2 -14l13 -33l39 -151l20 -46l25 -71l10 -21l31 -84l14 -16l18 -12l9 -33h4v-10l6 -29l59 -104l23 -37l4 -11l-4 -8l-6 -8l-35 -29l-19 -2l-8 -6h-4v-4l-18 -8 l-13 2l-28 49l-10 6l-19 25l6 10v4l-6 10v4l-12 13l-10 33l-97 188l-14 14l-27 17l-8 8l-69 43l-52 43l-10 6l-2 4l-57 21l-25 2l-2 4h-12l-39 4l-21 -12l-22 -41l-6 -7l-4 -8l-4 -6l-11 -18l-6 -4l-2 -7l-8 -14l-8 -22l-19 -17l-10 -33l-14 -24l-8 -12l-5 -5l-14 -34 l-27 -54v-8l-12 -26l-2 -23l-14 -29l-2 -24l10 -37l-6 -23l-27 -45l-8 -4l-10 -6h-4l-13 2l-14 2zM299 1544l16 70l4 4l7 10l34 31l13 16l33 21l18 4h6l14 4h27l6 4l66 2l10 -2l6 2l4 2l23 -4l24 -8l8 -4l9 -2l53 -47l20 -35l15 -37l-6 -43h-2l-7 -10l-2 -9l-34 -65l-19 -29 l-16 -12l-4 2v-4l-54 -12h-30l-41 -9h-39l-15 7l-6 2l-28 10l-52 31l-16 16l-12 8l-25 43v10l-4 9zM350 582l31 -11l53 -12l6 -4l4 -2h2l9 2v-6l28 -12l11 -7l12 -8l37 -35l8 -4l6 2l2 9l-2 10l-12 26l-8 39l-13 29v23l-8 4l-4 10v6l-4 2l-8 41v21l-8 28l-5 6l-4 4l-6 2h-4 l-10 -10l-51 -71l-19 -13l-39 -55l-2 -6zM403 1550l3 -4l2 -8l8 -29h2l2 -10l39 -45l2 -4l45 -25h14l4 2l4 5l17 6l18 20v10l10 21l13 4l18 16v7l4 2l8 30l-8 33l-2 12l-8 9l-8 14l-39 37l-10 6l-2 2l-54 20l-12 -4l-12 -6l-4 -4l-17 -14l-12 -17l-4 -8l-14 -26z" />
<glyph unicode="&#xc7;" horiz-adv-x="1103" d="M61 459v76l5 24l2 14l12 21l6 43l8 16l4 25l8 12l3 8l6 7l20 47l10 8l5 8l10 27l18 22v2l6 6l4 9l82 106l62 66h4l18 20l47 37l33 37l19 8l41 37l84 51l90 47l10 4h4l72 25l2 2l4 2l2 -8l4 4v4l20 8l148 16l2 -4l70 4v-4h24l8 -4l6 -12l-4 -10v-6h-6l-8 -9l-2 9l-4 -7 l-8 3l-4 -11l4 4l10 -2v-6h-8l-2 -6l-8 -6l-13 -19l4 -2v-4l-4 -4l-4 -6l-47 8h-88v2h-2l-96 -12l-23 -4l-14 -2l-4 -2h-6l-17 -8h-10l-16 -4h-19l-57 -29l-10 -6l-13 -6l-53 -33l-8 -6l-4 -4l-15 -13l-49 -41h-12l-35 -32l-6 -2l-2 -9l-6 -8v6l-2 2l-17 -14l-14 -23 l-10 -12l-6 -6l-17 -20l-10 -7l-8 -28l-21 -29l2 -8l-8 -10l-35 -72l-12 -64l2 -16l-2 -12v-8l-4 -21l10 -8l10 6l5 8l30 68l8 8v4l5 2l2 8l6 13l2 12l12 25h6l2 4l2 6l2 12l45 57l70 70l14 12l5 4l12 17l20 14l13 21l30 20l4 6l33 25l4 4l15 12l41 33l4 -2v-6l-33 -43 l-12 -6l-31 -37l-33 -27l-24 -29l-9 -12v-4l-6 -4l-37 -47l-4 -4l-10 -13l-8 -10l-6 -10l-9 -12l-45 -60l-12 -24l-12 -37v-2l-2 -8l-4 -19l-11 -10l-20 -70l-2 -2l-4 -8v-12l-10 -47v-45l-9 -39l7 -127l8 -51l10 -23l4 -4l12 -25l6 -6h-2v-20l5 -6l12 -7v-4h4v-8l4 -4 l4 -10l14 -25l31 -22l4 -4l6 -11l2 -4l23 -4l16 -12l47 -21h23l18 5l15 -9l69 -2l80 13l4 6l31 6l57 22l25 13l12 2l115 57l33 35l6 8l12 6l27 21l31 32l2 5l4 2l8 2l10 8l29 33h6l-10 -27l-11 -20l-6 -9l-12 -10l-35 -43l-18 -18h-6l-9 -6l2 -9v-4l-2 -6v-4l-10 -6l-20 -19 l-6 -4l-5 -10l-6 -2l-10 -8l-18 -6l-35 -33l-51 -39l-19 -6l-6 -6l-14 -6l-8 -5l-21 -6l-117 -53l-8 -6l-6 -2l-18 10l-11 -2l-8 -2l-2 -6l-8 -2v-14l-4 -9l-2 -6l-6 -76l51 2l41 -8l43 -24l20 -33l8 -33l-6 -31l-14 -26l-84 -84l-49 -23l-17 -8l-18 -2l-51 -6l-55 8l-19 12 l-4 4l-8 3l-10 4l-25 26l6 23l4 4l8 12l2 2h5l6 8l16 11l27 30h4l2 2l8 -10l-4 -26l6 -15l12 -18l39 -12v-5l8 -4l43 -6l48 4l18 15l21 55l-15 16l-2 13l-20 26l-64 33l-55 -6l-14 8l12 74l-4 24l2 62h-39l-74 16l-59 27h-6l-15 8l-18 12l-12 13v2h-3l-22 18l-10 16l-4 2 l2 5l-23 20l2 6h-4l-10 17l-29 57l-14 45v31l-14 47l-25 18l-27 41z" />
<glyph unicode="&#xc8;" horiz-adv-x="831" d="M23 219l8 78l16 43v12l19 39l40 68l35 43l19 10l18 33l29 22l6 -2l49 49l98 68l15 8v2l-13 4l-53 17l-33 24l-10 13l-6 10l-8 8l-4 8l-10 39l16 64l12 14l2 8l4 2l4 8l11 7l6 8h2l2 12l14 23l8 2l7 4l4 4l4 8h12l41 35l21 10l8 6l10 6l33 17h14l-2 -15l-25 -10l3 -8 l-21 -8l-39 -39l-10 -12l-2 -5v-6h-6l-13 -28l-4 -9l-2 -10v-18l2 -11l4 -14l7 -12l-3 -10l3 -7l10 -10l26 -24l39 -19l21 -4l14 -8l51 -8l43 8l2 -4l4 -4l17 -47l-8 -15l-2 -6l-15 -10l-26 2l-80 -18l-72 -31l-78 -60l-28 -16l-4 -6l-11 -10l-6 -9l-26 -28l-25 -19v-10 l-23 -24l-22 -43l-8 -21l-17 -45l-6 -47l2 -31l4 -22l6 -13l7 -26h4l2 -10l6 -13l8 -14l8 -8l11 -15l34 -34l25 -11l4 -6l8 -8l-2 -12l12 -2l7 2h4l2 -2h4l22 -11l31 -8l8 -4h19l8 -6l29 2l22 -6l21 4l12 2l4 2l53 10l6 8l33 13h14l33 28l17 9l65 63l12 17l7 6l16 20l33 57 l16 11l6 14l15 14l8 -8l2 -8l-4 -20l-2 -13l-4 -10l-13 -16l-16 -39l-14 -15l-23 -14l-31 -33l-22 -14l-4 -8l-13 -13l-10 -2l-55 -36l-10 -5l-4 -4l-11 -4l-8 -8l-88 -37l-84 -26h-111l-94 24l-51 25l-39 32l-8 9l-6 4l-6 14l-6 4l-5 10l-16 23l-2 20l-8 7v2l-6 18z M223 907l2 11v16l25 43l12 14l2 10l29 33l8 6l4 7l10 16l7 2v2l32 31l11 4l8 8l33 23l4 2l14 16l4 4l10 6l97 56l36 16l21 10l10 8l6 2l54 29l67 23l12 8l13 4l8 4l18 6l41 4l10 -2l5 -4l4 -14h6l-2 -15l-10 -28l-13 -17v-39l-41 7l-6 4l-2 2l-14 4l-10 -2l-9 -2l-102 -15 l-66 -26l-41 -25l-10 -2l-61 -37l-17 -14l-20 -10l-31 -27l-4 -6l-6 -6l-6 -4l-17 -13l-16 -10l-10 -4l-10 -12h-11l-26 -31l-6 -10l-5 -6l-8 -6l-6 -9l-4 -8l-6 -10l-2 -12l-8 -11l-11 -4h-6zM463 1677l2 4l10 2l27 7l4 2l2 2l-2 4l37 37l6 2l4 4l18 -2l4 -2l11 -6l2 -2 l6 -15l10 -10l6 -10l6 -4l11 -13l16 -35l68 -98h2l14 -18l14 -27v-4l11 -6l6 -10l24 -35l4 -8l7 -19l-7 -4h-4l-4 2l-10 8l-6 -4l-21 8l-4 3l-8 6l-10 12l-12 8l-2 2h-3l-4 8l-8 4l-28 17l-7 6l-4 2l-4 4h-2l-18 12l-11 7l-32 24l-27 8l-27 29v4l-16 14l-8 7l-12 10l-13 12z " />
<glyph unicode="&#xc9;" horiz-adv-x="831" d="M23 219l8 78l16 43v12l19 39l40 68l35 43l19 10l18 33l29 22l6 -2l49 49l98 68l15 8v2l-13 4l-53 17l-33 24l-10 13l-6 10l-8 8l-4 8l-10 39l16 64l12 14l2 8l4 2l4 8l11 7l6 8h2l2 12l14 23l8 2l7 4l4 4l4 8h12l41 35l21 10l8 6l10 6l33 17h14l-2 -15l-25 -10l3 -8 l-21 -8l-39 -39l-10 -12l-2 -5v-6h-6l-13 -28l-4 -9l-2 -10v-18l2 -11l4 -14l7 -12l-3 -10l3 -7l10 -10l26 -24l39 -19l21 -4l14 -8l51 -8l43 8l2 -4l4 -4l17 -47l-8 -15l-2 -6l-15 -10l-26 2l-80 -18l-72 -31l-78 -60l-28 -16l-4 -6l-11 -10l-6 -9l-26 -28l-25 -19v-10 l-23 -24l-22 -43l-8 -21l-17 -45l-6 -47l2 -31l4 -22l6 -13l7 -26h4l2 -10l6 -13l8 -14l8 -8l11 -15l34 -34l25 -11l4 -6l8 -8l-2 -12l12 -2l7 2h4l2 -2h4l22 -11l31 -8l8 -4h19l8 -6l29 2l22 -6l21 4l12 2l4 2l53 10l6 8l33 13h14l33 28l17 9l65 63l12 17l7 6l16 20l33 57 l16 11l6 14l15 14l8 -8l2 -8l-4 -20l-2 -13l-4 -10l-13 -16l-16 -39l-14 -15l-23 -14l-31 -33l-22 -14l-4 -8l-13 -13l-10 -2l-55 -36l-10 -5l-4 -4l-11 -4l-8 -8l-88 -37l-84 -26h-111l-94 24l-51 25l-39 32l-8 9l-6 4l-6 14l-6 4l-5 10l-16 23l-2 20l-8 7v2l-6 18z M223 907l2 11v16l25 43l12 14l2 10l29 33l8 6l4 7l10 16l7 2v2l32 31l11 4l8 8l33 23l4 2l14 16l4 4l10 6l97 56l36 16l21 10l10 8l6 2l54 29l67 23l12 8l13 4l8 4l18 6l41 4l10 -2l5 -4l4 -14h6l-2 -15l-10 -28l-13 -17v-39l-41 7l-6 4l-2 2l-14 4l-10 -2l-9 -2l-102 -15 l-66 -26l-41 -25l-10 -2l-61 -37l-17 -14l-20 -10l-31 -27l-4 -6l-6 -6l-6 -4l-17 -13l-16 -10l-10 -4l-10 -12h-11l-26 -31l-6 -10l-5 -6l-8 -6l-6 -9l-4 -8l-6 -10l-2 -12l-8 -11l-11 -4h-6zM535 1417l6 19l4 4l2 4l24 35l7 10l8 6l2 4l14 27l14 18h2l5 4l8 13l2 4l4 6 l45 71l18 35l11 13l24 24l6 15l2 2l11 6l4 2l18 2l4 -4l6 -2l35 -37v-4l2 -2l4 -2l27 -7l6 -2l4 -4l-16 -51l-12 -12l-13 -10l-8 -7l-16 -14l-2 -4l-25 -29l-27 -8l-34 -24l-13 -7l-6 -4l-10 -8h-2l-12 -12l-39 -21l-4 -8l-2 -2l-15 -8l-10 -12l-8 -6l-2 -3l-21 -8l-6 4 l-10 -8l-4 -2h-4z" />
<glyph unicode="&#xca;" horiz-adv-x="831" d="M23 219l8 78l16 43v12l19 39l40 68l35 43l19 10l18 33l29 22l6 -2l49 49l98 68l15 8v2l-13 4l-53 17l-33 24l-10 13l-6 10l-8 8l-4 8l-10 39l16 64l12 14l2 8l4 2l4 8l11 7l6 8h2l2 12l14 23l8 2l7 4l4 4l4 8h12l41 35l21 10l8 6l10 6l33 17h14l-2 -15l-25 -10l3 -8 l-21 -8l-39 -39l-10 -12l-2 -5v-6h-6l-13 -28l-4 -9l-2 -10v-18l2 -11l4 -14l7 -12l-3 -10l3 -7l10 -10l26 -24l39 -19l21 -4l14 -8l51 -8l43 8l2 -4l4 -4l17 -47l-8 -15l-2 -6l-15 -10l-26 2l-80 -18l-72 -31l-78 -60l-28 -16l-4 -6l-11 -10l-6 -9l-26 -28l-25 -19v-10 l-23 -24l-22 -43l-8 -21l-17 -45l-6 -47l2 -31l4 -22l6 -13l7 -26h4l2 -10l6 -13l8 -14l8 -8l11 -15l34 -34l25 -11l4 -6l8 -8l-2 -12l12 -2l7 2h4l2 -2h4l22 -11l31 -8l8 -4h19l8 -6l29 2l22 -6l21 4l12 2l4 2l53 10l6 8l33 13h14l33 28l17 9l65 63l12 17l7 6l16 20l33 57 l16 11l6 14l15 14l8 -8l2 -8l-4 -20l-2 -13l-4 -10l-13 -16l-16 -39l-14 -15l-23 -14l-31 -33l-22 -14l-4 -8l-13 -13l-10 -2l-55 -36l-10 -5l-4 -4l-11 -4l-8 -8l-88 -37l-84 -26h-111l-94 24l-51 25l-39 32l-8 9l-6 4l-6 14l-6 4l-5 10l-16 23l-2 20l-8 7v2l-6 18z M209 1401l22 16l9 15l8 2l4 6l33 22l30 29l144 170l20 8v19l-6 8l14 12l17 6l8 6l10 2l6 13l21 4l8 2h2l6 -8l17 -33l4 -6l80 -115l43 -47l39 -31l4 -2l61 -47l35 -16l6 -6l4 -9l-2 -6l-8 -6h-14l-50 -10l-24 6l-37 16l-12 15h-17l-14 14l-29 8l-18 19l-15 8l-14 16l-10 8 l-4 2l-2 5l-27 24l-4 8l-8 4l-6 9l-4 6l-7 18l-30 29h-6l-2 -2l-2 -8l-3 -2l-10 -13l-12 -16l-8 -8l-6 -11l-7 -4l-8 -8l-4 -10l-12 -8l-8 -6l-29 -35l-6 -6l-4 -2l-19 -25l-4 -4l-4 -8l-22 -11l-7 -8l-14 -4h-6l-12 -6l-27 -4l-14 -8zM223 907l2 11v16l25 43l12 14l2 10 l29 33l8 6l4 7l10 16l7 2v2l32 31l11 4l8 8l33 23l4 2l14 16l4 4l10 6l97 56l36 16l21 10l10 8l6 2l54 29l67 23l12 8l13 4l8 4l18 6l41 4l10 -2l5 -4l4 -14h6l-2 -15l-10 -28l-13 -17v-39l-41 7l-6 4l-2 2l-14 4l-10 -2l-9 -2l-102 -15l-66 -26l-41 -25l-10 -2l-61 -37 l-17 -14l-20 -10l-31 -27l-4 -6l-6 -6l-6 -4l-17 -13l-16 -10l-10 -4l-10 -12h-11l-26 -31l-6 -10l-5 -6l-8 -6l-6 -9l-4 -8l-6 -10l-2 -12l-8 -11l-11 -4h-6z" />
<glyph unicode="&#xcb;" horiz-adv-x="831" d="M23 219l8 78l16 43v12l19 39l40 68l35 43l19 10l18 33l29 22l6 -2l49 49l98 68l15 8v2l-13 4l-53 17l-33 24l-10 13l-6 10l-8 8l-4 8l-10 39l16 64l12 14l2 8l4 2l4 8l11 7l6 8h2l2 12l14 23l8 2l7 4l4 4l4 8h12l41 35l21 10l8 6l10 6l33 17h14l-2 -15l-25 -10l3 -8 l-21 -8l-39 -39l-10 -12l-2 -5v-6h-6l-13 -28l-4 -9l-2 -10v-18l2 -11l4 -14l7 -12l-3 -10l3 -7l10 -10l26 -24l39 -19l21 -4l14 -8l51 -8l43 8l2 -4l4 -4l17 -47l-8 -15l-2 -6l-15 -10l-26 2l-80 -18l-72 -31l-78 -60l-28 -16l-4 -6l-11 -10l-6 -9l-26 -28l-25 -19v-10 l-23 -24l-22 -43l-8 -21l-17 -45l-6 -47l2 -31l4 -22l6 -13l7 -26h4l2 -10l6 -13l8 -14l8 -8l11 -15l34 -34l25 -11l4 -6l8 -8l-2 -12l12 -2l7 2h4l2 -2h4l22 -11l31 -8l8 -4h19l8 -6l29 2l22 -6l21 4l12 2l4 2l53 10l6 8l33 13h14l33 28l17 9l65 63l12 17l7 6l16 20l33 57 l16 11l6 14l15 14l8 -8l2 -8l-4 -20l-2 -13l-4 -10l-13 -16l-16 -39l-14 -15l-23 -14l-31 -33l-22 -14l-4 -8l-13 -13l-10 -2l-55 -36l-10 -5l-4 -4l-11 -4l-8 -8l-88 -37l-84 -26h-111l-94 24l-51 25l-39 32l-8 9l-6 4l-6 14l-6 4l-5 10l-16 23l-2 20l-8 7v2l-6 18z M223 907l2 11v16l25 43l12 14l2 10l29 33l8 6l4 7l10 16l7 2v2l32 31l11 4l8 8l33 23l4 2l14 16l4 4l10 6l97 56l36 16l21 10l10 8l6 2l54 29l67 23l12 8l13 4l8 4l18 6l41 4l10 -2l5 -4l4 -14h6l-2 -15l-10 -28l-13 -17v-39l-41 7l-6 4l-2 2l-14 4l-10 -2l-9 -2l-102 -15 l-66 -26l-41 -25l-10 -2l-61 -37l-17 -14l-20 -10l-31 -27l-4 -6l-6 -6l-6 -4l-17 -13l-16 -10l-10 -4l-10 -12h-11l-26 -31l-6 -10l-5 -6l-8 -6l-6 -9l-4 -8l-6 -10l-2 -12l-8 -11l-11 -4h-6zM420 1536l4 12l-4 43l10 21l31 6l47 2l24 -6l19 -2l8 -6l8 -29l2 -47l-10 -43 l-37 -14l-78 -3l-22 9zM692 1503l4 74l9 31l22 4l8 8l47 -4h21l6 -4l10 -2l23 -29l2 -53l-15 -35l-18 -18l-39 -7l-14 5h-10l-3 -5l-47 5z" />
<glyph unicode="&#xcc;" d="M-20 231v7l6 8l10 -2l10 -21l19 -18l2 -6l8 -21l6 -2l6 -16l25 -17l4 -10l4 -4l12 -16l6 -4l8 -3l25 -14l4 -6l2 -6l2 -2v-4l8 -2l11 -9l16 -2l6 -4l10 -6l11 -4l4 -4l8 -2l6 -6l6 -4l11 -8l6 -3l6 5l18 -9h23l37 -10h24l12 2l23 -4h27l12 4l8 -4h8l35 14l45 7l58 24 l10 6l12 6l27 15l8 10l12 8l8 6l4 2l7 2l2 5l6 6v4l39 51l28 63h4l5 9l-2 4l26 90l6 84l6 16l2 19l-2 4l5 6h2l2 74l-4 106l6 12h-6l4 37l-9 6v35l-6 21l4 2l2 4l-4 6l-8 39l-10 4l2 39h-4l-12 78l-31 129l-10 24v23l6 6l2 6l26 17l15 -19l4 -12l18 -10l8 -48l7 -18l-2 -4h4 l18 -80h2l6 -14l4 -8l-2 -17v-4l2 -6l2 -14l23 -86v-50l-6 -12h2l12 -29l-2 -4l2 -6l8 -6l6 45l-2 8v21l-10 90l-6 27l6 2l-8 4l-4 28l-8 19l-2 10l2 16h-4l4 9l-4 14l-4 6v10h-5l-6 39l-4 10l-4 17l-12 22l-6 47h-4l-7 13l-4 12l-2 4l4 2v2l4 11h7l4 -5l35 7l-7 -50l2 -10 v-4l2 -2l9 -16l10 -13h2v-22l14 -25l2 -24h2v-17l7 -8l4 -39l6 -14v-17l8 -20l-4 -49l4 -10l-2 -13l6 -28l-4 -23v-22l-4 -9h4l-8 -106l-2 -12l4 -9l-10 -36l4 -21l-4 -29l-5 -26l-6 -10l-2 -46l-4 -20l-4 -4l-2 -23l-16 -24v-27l-11 -22l-8 -50l-16 -20v-10l-25 -66 l-16 -18l-10 -23l-13 -8l-39 -55l-10 -6l-12 -9l-8 -8v-2l-45 -31l-35 -8l-8 -8v-4l-9 -6l-4 -4l-104 -45v4l-41 -12l-12 -3l-6 -2l-50 -6l-65 6l-19 9h-8l-12 2l-31 10l-4 6h-8l-21 10l-14 25h-12l-41 29l4 4v4l-8 -2l-8 6l-21 18l-6 10l-10 13l-2 8h-13l-12 18l-2 15l-2 6 l-10 12l-10 8v4l-5 9l-6 6l-20 37zM76 1171v13l37 24l14 4v5l25 26h6v6l43 4l8 -10l61 -37l17 -8l80 -6l6 -2l14 2v-6l4 -4l15 -4l43 -2l8 -5l16 3l4 -3l72 -2l12 7l6 2l66 2l102 18v2h-6l-4 8l-6 -2l-2 2l-10 9v8l4 2l6 4l4 2v8l2 16h8l31 -20l2 -4l10 -6l4 -8l-4 -5l-2 -6 l74 15l10 -2l4 -2l-2 -9l-6 -8l-6 -4l-12 -4l-13 -6l-30 -6l-27 -11v3l-6 -5l-25 -2l-20 -6l-72 -20v-6l-55 -17l-15 -2l-12 -2l-2 -4l-80 -12l-4 -2l-10 -4l-2 -2l-8 -3l-9 5l-6 2l-12 -7h-2l-18 3l-9 -3l-18 3l-14 -5l-91 2v5l-12 -2l-12 8l-12 4l-23 4l-4 2h-27l-16 10 l-21 10h-10l-53 29l-2 4zM188 1677l2 4l11 2l26 7l4 2l2 2l-2 4l37 37l6 2l5 4l18 -2l4 -2l10 -6l2 -2l6 -15l11 -10l6 -10l6 -4l10 -13l17 -35l67 -98h2l15 -18l14 -27v-4l10 -6l6 -10l25 -35l4 -8l6 -19l-6 -4h-4l-4 2l-10 8l-7 -4l-20 8l-4 3l-8 6l-11 12l-12 8l-2 2h-2 l-4 8l-8 4l-29 17l-6 6l-4 2l-4 4h-2l-19 12l-10 7l-33 24l-26 8l-27 29v4l-16 14l-9 7l-12 10l-12 12z" />
<glyph unicode="&#xcd;" d="M-20 231v7l6 8l10 -2l10 -21l19 -18l2 -6l8 -21l6 -2l6 -16l25 -17l4 -10l4 -4l12 -16l6 -4l8 -3l25 -14l4 -6l2 -6l2 -2v-4l8 -2l11 -9l16 -2l6 -4l10 -6l11 -4l4 -4l8 -2l6 -6l6 -4l11 -8l6 -3l6 5l18 -9h23l37 -10h24l12 2l23 -4h27l12 4l8 -4h8l35 14l45 7l58 24 l10 6l12 6l27 15l8 10l12 8l8 6l4 2l7 2l2 5l6 6v4l39 51l28 63h4l5 9l-2 4l26 90l6 84l6 16l2 19l-2 4l5 6h2l2 74l-4 106l6 12h-6l4 37l-9 6v35l-6 21l4 2l2 4l-4 6l-8 39l-10 4l2 39h-4l-12 78l-31 129l-10 24v23l6 6l2 6l26 17l15 -19l4 -12l18 -10l8 -48l7 -18l-2 -4h4 l18 -80h2l6 -14l4 -8l-2 -17v-4l2 -6l2 -14l23 -86v-50l-6 -12h2l12 -29l-2 -4l2 -6l8 -6l6 45l-2 8v21l-10 90l-6 27l6 2l-8 4l-4 28l-8 19l-2 10l2 16h-4l4 9l-4 14l-4 6v10h-5l-6 39l-4 10l-4 17l-12 22l-6 47h-4l-7 13l-4 12l-2 4l4 2v2l4 11h7l4 -5l35 7l-7 -50l2 -10 v-4l2 -2l9 -16l10 -13h2v-22l14 -25l2 -24h2v-17l7 -8l4 -39l6 -14v-17l8 -20l-4 -49l4 -10l-2 -13l6 -28l-4 -23v-22l-4 -9h4l-8 -106l-2 -12l4 -9l-10 -36l4 -21l-4 -29l-5 -26l-6 -10l-2 -46l-4 -20l-4 -4l-2 -23l-16 -24v-27l-11 -22l-8 -50l-16 -20v-10l-25 -66 l-16 -18l-10 -23l-13 -8l-39 -55l-10 -6l-12 -9l-8 -8v-2l-45 -31l-35 -8l-8 -8v-4l-9 -6l-4 -4l-104 -45v4l-41 -12l-12 -3l-6 -2l-50 -6l-65 6l-19 9h-8l-12 2l-31 10l-4 6h-8l-21 10l-14 25h-12l-41 29l4 4v4l-8 -2l-8 6l-21 18l-6 10l-10 13l-2 8h-13l-12 18l-2 15l-2 6 l-10 12l-10 8v4l-5 9l-6 6l-20 37zM76 1171v13l37 24l14 4v5l25 26h6v6l43 4l8 -10l61 -37l17 -8l80 -6l6 -2l14 2v-6l4 -4l15 -4l43 -2l8 -5l16 3l4 -3l72 -2l12 7l6 2l66 2l102 18v2h-6l-4 8l-6 -2l-2 2l-10 9v8l4 2l6 4l4 2v8l2 16h8l31 -20l2 -4l10 -6l4 -8l-4 -5l-2 -6 l74 15l10 -2l4 -2l-2 -9l-6 -8l-6 -4l-12 -4l-13 -6l-30 -6l-27 -11v3l-6 -5l-25 -2l-20 -6l-72 -20v-6l-55 -17l-15 -2l-12 -2l-2 -4l-80 -12l-4 -2l-10 -4l-2 -2l-8 -3l-9 5l-6 2l-12 -7h-2l-18 3l-9 -3l-18 3l-14 -5l-91 2v5l-12 -2l-12 8l-12 4l-23 4l-4 2h-27l-16 10 l-21 10h-10l-53 29l-2 4zM436 1417l6 19l4 4l3 4l24 35l6 10l8 6l2 4l15 27l14 18h2l4 4l8 13l3 4l4 6l45 71l18 35l10 13l25 24l6 15l2 2l10 6l4 2l19 2l4 -4l6 -2l35 -37v-4l2 -2l4 -2l27 -7l6 -2l4 -4l-16 -51l-13 -12l-12 -10l-8 -7l-17 -14l-2 -4l-24 -29l-27 -8 l-35 -24l-12 -7l-6 -4l-10 -8h-2l-13 -12l-39 -21l-4 -8l-2 -2l-14 -8l-10 -12l-8 -6l-3 -3l-20 -8l-6 4l-10 -8l-4 -2h-5z" />
<glyph unicode="&#xce;" d="M-20 231v7l6 8l10 -2l10 -21l19 -18l2 -6l8 -21l6 -2l6 -16l25 -17l4 -10l4 -4l12 -16l6 -4l8 -3l25 -14l4 -6l2 -6l2 -2v-4l8 -2l11 -9l16 -2l6 -4l10 -6l11 -4l4 -4l8 -2l6 -6l6 -4l11 -8l6 -3l6 5l18 -9h23l37 -10h24l12 2l23 -4h27l12 4l8 -4h8l35 14l45 7l58 24 l10 6l12 6l27 15l8 10l12 8l8 6l4 2l7 2l2 5l6 6v4l39 51l28 63h4l5 9l-2 4l26 90l6 84l6 16l2 19l-2 4l5 6h2l2 74l-4 106l6 12h-6l4 37l-9 6v35l-6 21l4 2l2 4l-4 6l-8 39l-10 4l2 39h-4l-12 78l-31 129l-10 24v23l6 6l2 6l26 17l15 -19l4 -12l18 -10l8 -48l7 -18l-2 -4h4 l18 -80h2l6 -14l4 -8l-2 -17v-4l2 -6l2 -14l23 -86v-50l-6 -12h2l12 -29l-2 -4l2 -6l8 -6l6 45l-2 8v21l-10 90l-6 27l6 2l-8 4l-4 28l-8 19l-2 10l2 16h-4l4 9l-4 14l-4 6v10h-5l-6 39l-4 10l-4 17l-12 22l-6 47h-4l-7 13l-4 12l-2 4l4 2v2l4 11h7l4 -5l35 7l-7 -50l2 -10 v-4l2 -2l9 -16l10 -13h2v-22l14 -25l2 -24h2v-17l7 -8l4 -39l6 -14v-17l8 -20l-4 -49l4 -10l-2 -13l6 -28l-4 -23v-22l-4 -9h4l-8 -106l-2 -12l4 -9l-10 -36l4 -21l-4 -29l-5 -26l-6 -10l-2 -46l-4 -20l-4 -4l-2 -23l-16 -24v-27l-11 -22l-8 -50l-16 -20v-10l-25 -66 l-16 -18l-10 -23l-13 -8l-39 -55l-10 -6l-12 -9l-8 -8v-2l-45 -31l-35 -8l-8 -8v-4l-9 -6l-4 -4l-104 -45v4l-41 -12l-12 -3l-6 -2l-50 -6l-65 6l-19 9h-8l-12 2l-31 10l-4 6h-8l-21 10l-14 25h-12l-41 29l4 4v4l-8 -2l-8 6l-21 18l-6 10l-10 13l-2 8h-13l-12 18l-2 15l-2 6 l-10 12l-10 8v4l-5 9l-6 6l-20 37zM76 1171v13l37 24l14 4v5l25 26h6v6l43 4l8 -10l61 -37l17 -8l80 -6l6 -2l14 2v-6l4 -4l15 -4l43 -2l8 -5l16 3l4 -3l72 -2l12 7l6 2l66 2l102 18v2h-6l-4 8l-6 -2l-2 2l-10 9v8l4 2l6 4l4 2v8l2 16h8l31 -20l2 -4l10 -6l4 -8l-4 -5l-2 -6 l74 15l10 -2l4 -2l-2 -9l-6 -8l-6 -4l-12 -4l-13 -6l-30 -6l-27 -11v3l-6 -5l-25 -2l-20 -6l-72 -20v-6l-55 -17l-15 -2l-12 -2l-2 -4l-80 -12l-4 -2l-10 -4l-2 -2l-8 -3l-9 5l-6 2l-12 -7h-2l-18 3l-9 -3l-18 3l-14 -5l-91 2v5l-12 -2l-12 8l-12 4l-23 4l-4 2h-27l-16 10 l-21 10h-10l-53 29l-2 4zM143 1401l23 16l8 15l8 2l4 6l33 22l31 29l143 170l21 8v19l-6 8l14 12l16 6l8 6l11 2l6 13l20 4l9 2h2l6 -8l16 -33l4 -6l80 -115l43 -47l39 -31l4 -2l62 -47l34 -16l6 -6l5 -9l-2 -6l-9 -6h-14l-49 -10l-25 6l-37 16l-12 15h-16l-15 14l-28 8 l-19 19l-14 8l-14 16l-11 8l-4 2l-2 5l-26 24l-4 8l-9 4l-6 9l-4 6l-6 18l-31 29h-6l-2 -2l-2 -8l-2 -2l-10 -13l-13 -16l-8 -8l-6 -11l-6 -4l-8 -8l-4 -10l-13 -8l-8 -6l-29 -35l-6 -6l-4 -2l-18 -25l-4 -4l-4 -8l-23 -11l-6 -8l-14 -4h-7l-12 -6l-26 -4l-15 -8z" />
<glyph unicode="&#xcf;" d="M-20 231v7l6 8l10 -2l10 -21l19 -18l2 -6l8 -21l6 -2l6 -16l25 -17l4 -10l4 -4l12 -16l6 -4l8 -3l25 -14l4 -6l2 -6l2 -2v-4l8 -2l11 -9l16 -2l6 -4l10 -6l11 -4l4 -4l8 -2l6 -6l6 -4l11 -8l6 -3l6 5l18 -9h23l37 -10h24l12 2l23 -4h27l12 4l8 -4h8l35 14l45 7l58 24 l10 6l12 6l27 15l8 10l12 8l8 6l4 2l7 2l2 5l6 6v4l39 51l28 63h4l5 9l-2 4l26 90l6 84l6 16l2 19l-2 4l5 6h2l2 74l-4 106l6 12h-6l4 37l-9 6v35l-6 21l4 2l2 4l-4 6l-8 39l-10 4l2 39h-4l-12 78l-31 129l-10 24v23l6 6l2 6l26 17l15 -19l4 -12l18 -10l8 -48l7 -18l-2 -4h4 l18 -80h2l6 -14l4 -8l-2 -17v-4l2 -6l2 -14l23 -86v-50l-6 -12h2l12 -29l-2 -4l2 -6l8 -6l6 45l-2 8v21l-10 90l-6 27l6 2l-8 4l-4 28l-8 19l-2 10l2 16h-4l4 9l-4 14l-4 6v10h-5l-6 39l-4 10l-4 17l-12 22l-6 47h-4l-7 13l-4 12l-2 4l4 2v2l4 11h7l4 -5l35 7l-7 -50l2 -10 v-4l2 -2l9 -16l10 -13h2v-22l14 -25l2 -24h2v-17l7 -8l4 -39l6 -14v-17l8 -20l-4 -49l4 -10l-2 -13l6 -28l-4 -23v-22l-4 -9h4l-8 -106l-2 -12l4 -9l-10 -36l4 -21l-4 -29l-5 -26l-6 -10l-2 -46l-4 -20l-4 -4l-2 -23l-16 -24v-27l-11 -22l-8 -50l-16 -20v-10l-25 -66 l-16 -18l-10 -23l-13 -8l-39 -55l-10 -6l-12 -9l-8 -8v-2l-45 -31l-35 -8l-8 -8v-4l-9 -6l-4 -4l-104 -45v4l-41 -12l-12 -3l-6 -2l-50 -6l-65 6l-19 9h-8l-12 2l-31 10l-4 6h-8l-21 10l-14 25h-12l-41 29l4 4v4l-8 -2l-8 6l-21 18l-6 10l-10 13l-2 8h-13l-12 18l-2 15l-2 6 l-10 12l-10 8v4l-5 9l-6 6l-20 37zM76 1171v13l37 24l14 4v5l25 26h6v6l43 4l8 -10l61 -37l17 -8l80 -6l6 -2l14 2v-6l4 -4l15 -4l43 -2l8 -5l16 3l4 -3l72 -2l12 7l6 2l66 2l102 18v2h-6l-4 8l-6 -2l-2 2l-10 9v8l4 2l6 4l4 2v8l2 16h8l31 -20l2 -4l10 -6l4 -8l-4 -5l-2 -6 l74 15l10 -2l4 -2l-2 -9l-6 -8l-6 -4l-12 -4l-13 -6l-30 -6l-27 -11v3l-6 -5l-25 -2l-20 -6l-72 -20v-6l-55 -17l-15 -2l-12 -2l-2 -4l-80 -12l-4 -2l-10 -4l-2 -2l-8 -3l-9 5l-6 2l-12 -7h-2l-18 3l-9 -3l-18 3l-14 -5l-91 2v5l-12 -2l-12 8l-12 4l-23 4l-4 2h-27l-16 10 l-21 10h-10l-53 29l-2 4zM260 1536l4 12l-4 43l10 21l31 6l47 2l25 -6l18 -2l8 -6l9 -29l2 -47l-11 -43l-37 -14l-77 -3l-23 9zM532 1503l5 74l8 31l22 4l8 8l48 -4h20l6 -4l10 -2l23 -29l2 -53l-14 -35l-19 -18l-39 -7l-14 5h-10l-2 -5l-47 5z" />
<glyph unicode="&#xd1;" horiz-adv-x="987" d="M55 23l56 372l6 6h-4v9l10 41v26l10 47l4 6l2 7l2 20l4 90l7 31l2 53l4 12v7l4 14l-4 20l8 134l-31 120v6l-6 13l-16 94v18l-15 80l4 23l9 8l4 27l4 8l6 6l12 6l2 4l19 21l12 -2l14 -35l4 -15l2 -14l3 -2l8 -16l8 -29l6 -27l-10 -8l-4 -4l-2 -6v-2l4 -39l30 -131l7 -16 v-17l4 -16v-8l10 -41l4 -2l8 -2v45l17 39l14 12l37 18l8 -8l2 -49l-6 -31l4 -61l-4 -13l-2 -4l-8 -63l6 -21l53 -118l6 -11l6 -8l9 -6l6 -27v-10l2 -6l12 -8l8 -19l43 -51l31 -47l8 -10l12 -6l105 -107l10 -18l12 -6l7 -9l6 -2l2 -4l6 -8l4 -16l4 -2l8 -6l8 -3l17 -16l6 -2 l4 -6l2 -4l8 -2l15 -19l2 -8l4 -4h10l4 -12l17 -8l4 -9l14 -12l10 -6l8 -12l2 2l5 -4l6 16l-11 68l-4 75l-2 13l2 8l-6 125l2 131l2 4v39l2 12l2 14v17l7 88l-3 215l9 160l-2 6l2 26l4 37l2 15l2 90l16 67h4l6 2l11 -2h49l43 -10l22 -10l21 -27l4 -20v-37l-8 -8l-6 -17 l-6 -10l-29 -63l-2 -29l-2 -2l-6 -14l-7 -17v-18l-6 -8l-2 -21l-6 -2v-4l-6 -6l-2 -6l-2 -9v-2l4 -20l-8 -19l4 -22l-4 -6h-4l-2 -37l-6 -27l-5 -4l-4 -2v-37l-6 -18l-2 -66l-8 -45l-2 -6v-63l-6 -25l-2 -55l4 -13l-6 -26l2 -21l-4 -122l6 -23l-2 -37l4 -14l2 -4l-2 -4 l-4 -2l4 -5v-12l12 -102l23 -111l-4 -6l2 -6l-56 -57l-4 -9l-8 -8h-10l-6 4l-9 13l-14 12l-4 6l-14 12l-4 6l-9 9l-4 2l-6 4l-55 49l-10 12l-11 10l-8 7l-33 32v2l-6 7l-26 24l-7 8l-4 2l-14 15l-94 100l-72 92l-12 10l-2 5l-74 94l-12 22l-8 13l-9 14l-2 2l-16 31l-4 6 l-2 2h-6l-9 -8l-2 -4l-28 -125l-2 -2l-8 -27l-13 -43l-18 -47l-8 -62h-4l-29 -92v-10l-4 -8l-13 -45l-6 -43l-2 -19v-4l2 -37l-20 -22v-2l-6 -4l-9 -6l-12 -17l-10 -8l-10 -4l-6 2l-5 2l-2 4zM182 688l2 -2l4 -14l-2 -76l9 -25l4 -2l10 -2l12 6l6 54l21 55l2 25l-6 28 l-29 56l-2 12l-4 18l-4 4h-6l-13 -39v-12h4l-2 -67zM258 1495l35 31l35 26l4 7l10 10l29 8l6 10l12 6l35 21l25 6v4l4 2l16 6l74 17l55 -2l2 -5l14 -2l37 -18l13 -2l6 -2v-4l8 -2l24 -19l50 -16l28 4l19 -2l67 20l39 25l8 -4l-2 -12l-65 -70l-66 -41l-41 -16l-34 -6l-64 20 l-2 2l-8 6l-82 43l-66 4l-49 -8l-117 -35l-30 -16l-17 -6l-8 4z" />
<glyph unicode="&#xd2;" horiz-adv-x="1206" d="M61 520l5 27v8l10 61l-6 21l4 8l2 37l8 16l4 13l16 69l31 78l15 23l4 2l4 14v8l16 37l16 19v6l9 10l2 6l-2 6l-17 17l-18 12h-19l-32 14l-4 8v11l-5 45l15 43l-2 12l59 66l39 20l2 6l10 8l2 4l78 37l41 13l6 6l68 12h8l4 -2l6 2l9 6l43 -2l24 12l51 -12h45l33 -8l21 2 l32 -12l47 -6h84l11 -9v-4h24l54 -26l14 -13l10 -4l6 -8l80 -47l6 -10l2 -2l8 -4l21 -25l2 -8l2 -6l21 -7l10 -10l14 -18l4 -27l8 -10l4 -21l7 -2l8 -6l6 -2l4 -4l19 -39l16 -90l4 -63l-2 -23v-53l-6 -74h-4l4 -2v-2l-6 -12l-39 -144l-8 -8l-3 -4l-2 -14l-10 -25l-8 -16 l-10 -12l-4 -25l-19 -39l-8 -8l-8 -17l-68 -110l-4 -2l-12 -4l-6 -4l-4 2l-6 -13h4l-15 -22l-4 -2l-2 4l-8 -8l6 -2l-61 -62l-25 -10l-8 -10l-12 -11l-60 -45l-33 -12l-30 -18l-27 -4l-24 -11l-15 2l-8 -8l-27 -2l-69 -24l-47 -2l-13 2l-6 -9l-4 5l-24 -5l-76 13l-8 8l-23 8 l-2 4l-6 2l-6 -2h-6l-5 2l-10 -2l-6 6l-31 23l-61 55v4l-6 6l-6 2l-13 17l-6 12l-6 8l-10 13l-4 2l-4 10l-4 18l-13 6l-6 11l-10 22l-4 4v11l-6 2l-2 6l-15 26l-4 21v6l-6 57h-8v4l-8 33l2 8v2l-2 7h-2v32l4 7l-4 6v10zM158 575l2 -32l2 -11l2 -16l2 -49l8 -18l2 -11v-10 l10 -29v-22l11 -12l4 -17l4 -8l2 -8l43 -80l14 -21l10 -6l33 -39l12 -6l19 -18l2 -4l68 -45l8 -4v-5l6 -2l4 -2l2 -2l23 -6l10 -4l18 -8l4 -2l15 -2l77 -10l66 6l61 14l64 29l16 4l6 4l23 12l63 51l35 43l6 4l9 9l-2 8l4 2l2 2l33 41l-3 4l7 6l10 2l16 19l10 34l19 39l14 13 l10 22l-4 17l19 10l31 104l4 45l4 17l8 12l-2 2l-4 21l8 77l-8 74l4 16h-4l-10 31v10l-5 7l-2 32l-12 31l-6 16l-4 21l-4 6v14l-17 15l-8 32l-12 5l-25 38l-14 13v6l-45 31l-12 10l-6 4l-74 39l-13 2l-8 4l-22 2l-19 4l-8 6l-12 4l-10 7l-29 6l-4 -6l-12 2l-11 -2l-43 14 l-8 4l-22 4h-13l-4 -4l2 -27h-10l-12 9l-29 4l-25 -2l-12 -4l-6 2l-12 -7l-13 -2l-8 -4l-47 -32l-12 -11l-6 -6l-4 -2l-4 2l-11 -4l-8 -4l-8 -6l-6 -13l-31 -20l-6 -6l-10 -12l-49 -66l-13 -25l2 -20l-14 -6l-35 -70l-2 -6l-4 -14l-10 -21l-4 -28l-13 -39l-22 -99l-2 -98z M184 1126l4 -36l15 -29l6 -19l6 -6v-4l12 -6l9 2l8 8l8 13l2 8l6 6l12 20h4v4l3 3l43 47l32 28l6 9l17 14l4 2l14 18l-6 29l-29 8l-4 2l-20 -10l-27 -4l-16 4h-14l-25 -10l-31 -17l-30 -26zM336 1677l2 4l10 2l27 7l4 2l2 2l-2 4l37 37l6 2l4 4l18 -2l5 -2l10 -6l2 -2l6 -15 l10 -10l6 -10l6 -4l11 -13l16 -35l68 -98h2l14 -18l14 -27v-4l11 -6l6 -10l24 -35l4 -8l7 -19l-7 -4h-4l-4 2l-10 8l-6 -4l-21 8l-4 3l-8 6l-10 12l-12 8l-2 2h-3l-4 8l-8 4l-28 17l-7 6l-4 2l-4 4h-2l-18 12l-11 7l-32 24l-27 8l-27 29v4l-16 14l-8 7l-12 10l-13 12z" />
<glyph unicode="&#xd3;" horiz-adv-x="1206" d="M61 520l5 27v8l10 61l-6 21l4 8l2 37l8 16l4 13l16 69l31 78l15 23l4 2l4 14v8l16 37l16 19v6l9 10l2 6l-2 6l-17 17l-18 12h-19l-32 14l-4 8v11l-5 45l15 43l-2 12l59 66l39 20l2 6l10 8l2 4l78 37l41 13l6 6l68 12h8l4 -2l6 2l9 6l43 -2l24 12l51 -12h45l33 -8l21 2 l32 -12l47 -6h84l11 -9v-4h24l54 -26l14 -13l10 -4l6 -8l80 -47l6 -10l2 -2l8 -4l21 -25l2 -8l2 -6l21 -7l10 -10l14 -18l4 -27l8 -10l4 -21l7 -2l8 -6l6 -2l4 -4l19 -39l16 -90l4 -63l-2 -23v-53l-6 -74h-4l4 -2v-2l-6 -12l-39 -144l-8 -8l-3 -4l-2 -14l-10 -25l-8 -16 l-10 -12l-4 -25l-19 -39l-8 -8l-8 -17l-68 -110l-4 -2l-12 -4l-6 -4l-4 2l-6 -13h4l-15 -22l-4 -2l-2 4l-8 -8l6 -2l-61 -62l-25 -10l-8 -10l-12 -11l-60 -45l-33 -12l-30 -18l-27 -4l-24 -11l-15 2l-8 -8l-27 -2l-69 -24l-47 -2l-13 2l-6 -9l-4 5l-24 -5l-76 13l-8 8l-23 8 l-2 4l-6 2l-6 -2h-6l-5 2l-10 -2l-6 6l-31 23l-61 55v4l-6 6l-6 2l-13 17l-6 12l-6 8l-10 13l-4 2l-4 10l-4 18l-13 6l-6 11l-10 22l-4 4v11l-6 2l-2 6l-15 26l-4 21v6l-6 57h-8v4l-8 33l2 8v2l-2 7h-2v32l4 7l-4 6v10zM158 575l2 -32l2 -11l2 -16l2 -49l8 -18l2 -11v-10 l10 -29v-22l11 -12l4 -17l4 -8l2 -8l43 -80l14 -21l10 -6l33 -39l12 -6l19 -18l2 -4l68 -45l8 -4v-5l6 -2l4 -2l2 -2l23 -6l10 -4l18 -8l4 -2l15 -2l77 -10l66 6l61 14l64 29l16 4l6 4l23 12l63 51l35 43l6 4l9 9l-2 8l4 2l2 2l33 41l-3 4l7 6l10 2l16 19l10 34l19 39l14 13 l10 22l-4 17l19 10l31 104l4 45l4 17l8 12l-2 2l-4 21l8 77l-8 74l4 16h-4l-10 31v10l-5 7l-2 32l-12 31l-6 16l-4 21l-4 6v14l-17 15l-8 32l-12 5l-25 38l-14 13v6l-45 31l-12 10l-6 4l-74 39l-13 2l-8 4l-22 2l-19 4l-8 6l-12 4l-10 7l-29 6l-4 -6l-12 2l-11 -2l-43 14 l-8 4l-22 4h-13l-4 -4l2 -27h-10l-12 9l-29 4l-25 -2l-12 -4l-6 2l-12 -7l-13 -2l-8 -4l-47 -32l-12 -11l-6 -6l-4 -2l-4 2l-11 -4l-8 -4l-8 -6l-6 -13l-31 -20l-6 -6l-10 -12l-49 -66l-13 -25l2 -20l-14 -6l-35 -70l-2 -6l-4 -14l-10 -21l-4 -28l-13 -39l-22 -99l-2 -98z M184 1126l4 -36l15 -29l6 -19l6 -6v-4l12 -6l9 2l8 8l8 13l2 8l6 6l12 20h4v4l3 3l43 47l32 28l6 9l17 14l4 2l14 18l-6 29l-29 8l-4 2l-20 -10l-27 -4l-16 4h-14l-25 -10l-31 -17l-30 -26zM606 1417l6 19l4 4l2 4l25 35l6 10l8 6l2 4l15 27l14 18h2l4 4l8 13l3 4l4 6l45 71 l18 35l10 13l25 24l6 15l2 2l10 6l4 2l19 2l4 -4l6 -2l35 -37v-4l2 -2l4 -2l27 -7l6 -2l4 -4l-16 -51l-13 -12l-12 -10l-8 -7l-17 -14l-2 -4l-24 -29l-27 -8l-35 -24l-12 -7l-6 -4l-10 -8h-2l-13 -12l-39 -21l-4 -8l-2 -2l-14 -8l-10 -12l-8 -6l-3 -3l-20 -8l-6 4l-10 -8 l-5 -2h-4z" />
<glyph unicode="&#xd4;" horiz-adv-x="1206" d="M61 520l5 27v8l10 61l-6 21l4 8l2 37l8 16l4 13l16 69l31 78l15 23l4 2l4 14v8l16 37l16 19v6l9 10l2 6l-2 6l-17 17l-18 12h-19l-32 14l-4 8v11l-5 45l15 43l-2 12l59 66l39 20l2 6l10 8l2 4l78 37l41 13l6 6l68 12h8l4 -2l6 2l9 6l43 -2l24 12l51 -12h45l33 -8l21 2 l32 -12l47 -6h84l11 -9v-4h24l54 -26l14 -13l10 -4l6 -8l80 -47l6 -10l2 -2l8 -4l21 -25l2 -8l2 -6l21 -7l10 -10l14 -18l4 -27l8 -10l4 -21l7 -2l8 -6l6 -2l4 -4l19 -39l16 -90l4 -63l-2 -23v-53l-6 -74h-4l4 -2v-2l-6 -12l-39 -144l-8 -8l-3 -4l-2 -14l-10 -25l-8 -16 l-10 -12l-4 -25l-19 -39l-8 -8l-8 -17l-68 -110l-4 -2l-12 -4l-6 -4l-4 2l-6 -13h4l-15 -22l-4 -2l-2 4l-8 -8l6 -2l-61 -62l-25 -10l-8 -10l-12 -11l-60 -45l-33 -12l-30 -18l-27 -4l-24 -11l-15 2l-8 -8l-27 -2l-69 -24l-47 -2l-13 2l-6 -9l-4 5l-24 -5l-76 13l-8 8l-23 8 l-2 4l-6 2l-6 -2h-6l-5 2l-10 -2l-6 6l-31 23l-61 55v4l-6 6l-6 2l-13 17l-6 12l-6 8l-10 13l-4 2l-4 10l-4 18l-13 6l-6 11l-10 22l-4 4v11l-6 2l-2 6l-15 26l-4 21v6l-6 57h-8v4l-8 33l2 8v2l-2 7h-2v32l4 7l-4 6v10zM158 575l2 -32l2 -11l2 -16l2 -49l8 -18l2 -11v-10 l10 -29v-22l11 -12l4 -17l4 -8l2 -8l43 -80l14 -21l10 -6l33 -39l12 -6l19 -18l2 -4l68 -45l8 -4v-5l6 -2l4 -2l2 -2l23 -6l10 -4l18 -8l4 -2l15 -2l77 -10l66 6l61 14l64 29l16 4l6 4l23 12l63 51l35 43l6 4l9 9l-2 8l4 2l2 2l33 41l-3 4l7 6l10 2l16 19l10 34l19 39l14 13 l10 22l-4 17l19 10l31 104l4 45l4 17l8 12l-2 2l-4 21l8 77l-8 74l4 16h-4l-10 31v10l-5 7l-2 32l-12 31l-6 16l-4 21l-4 6v14l-17 15l-8 32l-12 5l-25 38l-14 13v6l-45 31l-12 10l-6 4l-74 39l-13 2l-8 4l-22 2l-19 4l-8 6l-12 4l-10 7l-29 6l-4 -6l-12 2l-11 -2l-43 14 l-8 4l-22 4h-13l-4 -4l2 -27h-10l-12 9l-29 4l-25 -2l-12 -4l-6 2l-12 -7l-13 -2l-8 -4l-47 -32l-12 -11l-6 -6l-4 -2l-4 2l-11 -4l-8 -4l-8 -6l-6 -13l-31 -20l-6 -6l-10 -12l-49 -66l-13 -25l2 -20l-14 -6l-35 -70l-2 -6l-4 -14l-10 -21l-4 -28l-13 -39l-22 -99l-2 -98z M184 1126l4 -36l15 -29l6 -19l6 -6v-4l12 -6l9 2l8 8l8 13l2 8l6 6l12 20h4v4l3 3l43 47l32 28l6 9l17 14l4 2l14 18l-6 29l-29 8l-4 2l-20 -10l-27 -4l-16 4h-14l-25 -10l-31 -17l-30 -26zM313 1401l23 16l8 15l8 2l4 6l33 22l31 29l143 170l21 8v19l-6 8l14 12l16 6l8 6 l11 2l6 13l20 4l9 2h2l6 -8l16 -33l4 -6l80 -115l43 -47l39 -31l4 -2l62 -47l34 -16l6 -6l5 -9l-2 -6l-9 -6h-14l-49 -10l-25 6l-37 16l-12 15h-16l-15 14l-28 8l-19 19l-14 8l-14 16l-11 8l-4 2l-2 5l-26 24l-4 8l-9 4l-6 9l-4 6l-6 18l-31 29h-6l-2 -2l-2 -8l-2 -2 l-10 -13l-13 -16l-8 -8l-6 -11l-6 -4l-8 -8l-4 -10l-13 -8l-8 -6l-29 -35l-6 -6l-4 -2l-18 -25l-4 -4l-4 -8l-23 -11l-6 -8l-14 -4h-7l-12 -6l-26 -4l-15 -8z" />
<glyph unicode="&#xd5;" horiz-adv-x="1206" d="M61 520l5 27v8l10 61l-6 21l4 8l2 37l8 16l4 13l16 69l31 78l15 23l4 2l4 14v8l16 37l16 19v6l9 10l2 6l-2 6l-17 17l-18 12h-19l-32 14l-4 8v11l-5 45l15 43l-2 12l59 66l39 20l2 6l10 8l2 4l78 37l41 13l6 6l68 12h8l4 -2l6 2l9 6l43 -2l24 12l51 -12h45l33 -8l21 2 l32 -12l47 -6h84l11 -9v-4h24l54 -26l14 -13l10 -4l6 -8l80 -47l6 -10l2 -2l8 -4l21 -25l2 -8l2 -6l21 -7l10 -10l14 -18l4 -27l8 -10l4 -21l7 -2l8 -6l6 -2l4 -4l19 -39l16 -90l4 -63l-2 -23v-53l-6 -74h-4l4 -2v-2l-6 -12l-39 -144l-8 -8l-3 -4l-2 -14l-10 -25l-8 -16 l-10 -12l-4 -25l-19 -39l-8 -8l-8 -17l-68 -110l-4 -2l-12 -4l-6 -4l-4 2l-6 -13h4l-15 -22l-4 -2l-2 4l-8 -8l6 -2l-61 -62l-25 -10l-8 -10l-12 -11l-60 -45l-33 -12l-30 -18l-27 -4l-24 -11l-15 2l-8 -8l-27 -2l-69 -24l-47 -2l-13 2l-6 -9l-4 5l-24 -5l-76 13l-8 8l-23 8 l-2 4l-6 2l-6 -2h-6l-5 2l-10 -2l-6 6l-31 23l-61 55v4l-6 6l-6 2l-13 17l-6 12l-6 8l-10 13l-4 2l-4 10l-4 18l-13 6l-6 11l-10 22l-4 4v11l-6 2l-2 6l-15 26l-4 21v6l-6 57h-8v4l-8 33l2 8v2l-2 7h-2v32l4 7l-4 6v10zM158 575l2 -32l2 -11l2 -16l2 -49l8 -18l2 -11v-10 l10 -29v-22l11 -12l4 -17l4 -8l2 -8l43 -80l14 -21l10 -6l33 -39l12 -6l19 -18l2 -4l68 -45l8 -4v-5l6 -2l4 -2l2 -2l23 -6l10 -4l18 -8l4 -2l15 -2l77 -10l66 6l61 14l64 29l16 4l6 4l23 12l63 51l35 43l6 4l9 9l-2 8l4 2l2 2l33 41l-3 4l7 6l10 2l16 19l10 34l19 39l14 13 l10 22l-4 17l19 10l31 104l4 45l4 17l8 12l-2 2l-4 21l8 77l-8 74l4 16h-4l-10 31v10l-5 7l-2 32l-12 31l-6 16l-4 21l-4 6v14l-17 15l-8 32l-12 5l-25 38l-14 13v6l-45 31l-12 10l-6 4l-74 39l-13 2l-8 4l-22 2l-19 4l-8 6l-12 4l-10 7l-29 6l-4 -6l-12 2l-11 -2l-43 14 l-8 4l-22 4h-13l-4 -4l2 -27h-10l-12 9l-29 4l-25 -2l-12 -4l-6 2l-12 -7l-13 -2l-8 -4l-47 -32l-12 -11l-6 -6l-4 -2l-4 2l-11 -4l-8 -4l-8 -6l-6 -13l-31 -20l-6 -6l-10 -12l-49 -66l-13 -25l2 -20l-14 -6l-35 -70l-2 -6l-4 -14l-10 -21l-4 -28l-13 -39l-22 -99l-2 -98z M184 1126l4 -36l15 -29l6 -19l6 -6v-4l12 -6l9 2l8 8l8 13l2 8l6 6l12 20h4v4l3 3l43 47l32 28l6 9l17 14l4 2l14 18l-6 29l-29 8l-4 2l-20 -10l-27 -4l-16 4h-14l-25 -10l-31 -17l-30 -26zM324 1495l34 31l35 26l4 7l11 10l28 8l6 10l13 6l34 21l25 6v4l4 2l17 6l73 17 l56 -2l2 -5l14 -2l37 -18l12 -2l6 -2v-4l8 -2l25 -19l49 -16l29 4l18 -2l68 20l39 25l8 -4l-2 -12l-66 -70l-65 -41l-41 -16l-35 -6l-63 20l-2 2l-9 6l-82 43l-65 4l-49 -8l-117 -35l-31 -16l-16 -6l-8 4z" />
<glyph unicode="&#xd6;" horiz-adv-x="1206" d="M61 520l5 27v8l10 61l-6 21l4 8l2 37l8 16l4 13l16 69l31 78l15 23l4 2l4 14v8l16 37l16 19v6l9 10l2 6l-2 6l-17 17l-18 12h-19l-32 14l-4 8v11l-5 45l15 43l-2 12l59 66l39 20l2 6l10 8l2 4l78 37l41 13l6 6l68 12h8l4 -2l6 2l9 6l43 -2l24 12l51 -12h45l33 -8l21 2 l32 -12l47 -6h84l11 -9v-4h24l54 -26l14 -13l10 -4l6 -8l80 -47l6 -10l2 -2l8 -4l21 -25l2 -8l2 -6l21 -7l10 -10l14 -18l4 -27l8 -10l4 -21l7 -2l8 -6l6 -2l4 -4l19 -39l16 -90l4 -63l-2 -23v-53l-6 -74h-4l4 -2v-2l-6 -12l-39 -144l-8 -8l-3 -4l-2 -14l-10 -25l-8 -16 l-10 -12l-4 -25l-19 -39l-8 -8l-8 -17l-68 -110l-4 -2l-12 -4l-6 -4l-4 2l-6 -13h4l-15 -22l-4 -2l-2 4l-8 -8l6 -2l-61 -62l-25 -10l-8 -10l-12 -11l-60 -45l-33 -12l-30 -18l-27 -4l-24 -11l-15 2l-8 -8l-27 -2l-69 -24l-47 -2l-13 2l-6 -9l-4 5l-24 -5l-76 13l-8 8l-23 8 l-2 4l-6 2l-6 -2h-6l-5 2l-10 -2l-6 6l-31 23l-61 55v4l-6 6l-6 2l-13 17l-6 12l-6 8l-10 13l-4 2l-4 10l-4 18l-13 6l-6 11l-10 22l-4 4v11l-6 2l-2 6l-15 26l-4 21v6l-6 57h-8v4l-8 33l2 8v2l-2 7h-2v32l4 7l-4 6v10zM158 575l2 -32l2 -11l2 -16l2 -49l8 -18l2 -11v-10 l10 -29v-22l11 -12l4 -17l4 -8l2 -8l43 -80l14 -21l10 -6l33 -39l12 -6l19 -18l2 -4l68 -45l8 -4v-5l6 -2l4 -2l2 -2l23 -6l10 -4l18 -8l4 -2l15 -2l77 -10l66 6l61 14l64 29l16 4l6 4l23 12l63 51l35 43l6 4l9 9l-2 8l4 2l2 2l33 41l-3 4l7 6l10 2l16 19l10 34l19 39l14 13 l10 22l-4 17l19 10l31 104l4 45l4 17l8 12l-2 2l-4 21l8 77l-8 74l4 16h-4l-10 31v10l-5 7l-2 32l-12 31l-6 16l-4 21l-4 6v14l-17 15l-8 32l-12 5l-25 38l-14 13v6l-45 31l-12 10l-6 4l-74 39l-13 2l-8 4l-22 2l-19 4l-8 6l-12 4l-10 7l-29 6l-4 -6l-12 2l-11 -2l-43 14 l-8 4l-22 4h-13l-4 -4l2 -27h-10l-12 9l-29 4l-25 -2l-12 -4l-6 2l-12 -7l-13 -2l-8 -4l-47 -32l-12 -11l-6 -6l-4 -2l-4 2l-11 -4l-8 -4l-8 -6l-6 -13l-31 -20l-6 -6l-10 -12l-49 -66l-13 -25l2 -20l-14 -6l-35 -70l-2 -6l-4 -14l-10 -21l-4 -28l-13 -39l-22 -99l-2 -98z M184 1126l4 -36l15 -29l6 -19l6 -6v-4l12 -6l9 2l8 8l8 13l2 8l6 6l12 20h4v4l3 3l43 47l32 28l6 9l17 14l4 2l14 18l-6 29l-29 8l-4 2l-20 -10l-27 -4l-16 4h-14l-25 -10l-31 -17l-30 -26zM451 1536l4 12l-4 43l10 21l31 6l47 2l24 -6l19 -2l8 -6l8 -29l2 -47l-10 -43 l-37 -14l-78 -3l-22 9zM723 1503l4 74l8 31l23 4l8 8l47 -4h21l6 -4l10 -2l22 -29l2 -53l-14 -35l-18 -18l-39 -7l-15 5h-10l-2 -5l-47 5z" />
<glyph unicode="&#xd9;" horiz-adv-x="1239" d="M41 979l8 20l33 35l27 19l53 49l31 14l10 17l178 102l35 10l24 21l205 65l43 2l60 -8l30 -20l21 -21l18 -35l14 -49l7 -57l-7 -84l-10 -37l-2 -25l-18 -41l-8 -47l-29 -82l-76 -180l-6 -2l-14 -37l-33 -61l-82 -158l-29 -39l-45 -92l-12 -16l-4 -25l-17 -24l-10 -25 l-6 -43l37 -29l70 -14l67 2l109 12l274 90l-6 35l-14 199l8 117l18 102l47 203l58 176l12 29h16l13 26l43 21l14 18l64 31l14 -17l-21 -39l-2 -24l-14 -49l-20 -35l-76 -219l-25 -88l-2 -37l-16 -60v-32l-6 -39l-5 -84l11 -144l35 -163l18 -50v-12l18 -57l-2 -57l-14 -13 l-20 13l-41 106l-54 31v6l-43 37l-8 18l-18 2l-131 -55l-4 4l-7 -8l-45 -17l-28 -16l-41 -4l-129 -45l-144 -12l-28 6l-37 -2l-41 14l-23 33l6 47l17 43l117 194l96 191l10 33l29 53l82 266l24 152l-2 80l-6 47l-27 55l-43 25l-55 2l-43 -6l-57 -21l-84 -41l-35 -25l-70 -73 l-34 -47l-23 -49l-4 -23l-21 -23l15 -34l-2 -23l-19 -6l-10 8l-16 -6l-21 23l-43 24l-45 37zM680 1677l2 4l10 2l27 7l4 2l2 2l-2 4l37 37l6 2l4 4l18 -2l5 -2l10 -6l2 -2l6 -15l10 -10l6 -10l7 -4l10 -13l16 -35l68 -98h2l14 -18l14 -27v-4l11 -6l6 -10l24 -35l5 -8l6 -19 l-6 -4h-5l-4 2l-10 8l-6 -4l-21 8l-4 3l-8 6l-10 12l-12 8l-2 2h-2l-5 8l-8 4l-28 17l-7 6l-4 2l-4 4h-2l-18 12l-10 7l-33 24l-27 8l-26 29v4l-17 14l-8 7l-12 10l-13 12z" />
<glyph unicode="&#xda;" horiz-adv-x="1239" d="M41 979l8 20l33 35l27 19l53 49l31 14l10 17l178 102l35 10l24 21l205 65l43 2l60 -8l30 -20l21 -21l18 -35l14 -49l7 -57l-7 -84l-10 -37l-2 -25l-18 -41l-8 -47l-29 -82l-76 -180l-6 -2l-14 -37l-33 -61l-82 -158l-29 -39l-45 -92l-12 -16l-4 -25l-17 -24l-10 -25 l-6 -43l37 -29l70 -14l67 2l109 12l274 90l-6 35l-14 199l8 117l18 102l47 203l58 176l12 29h16l13 26l43 21l14 18l64 31l14 -17l-21 -39l-2 -24l-14 -49l-20 -35l-76 -219l-25 -88l-2 -37l-16 -60v-32l-6 -39l-5 -84l11 -144l35 -163l18 -50v-12l18 -57l-2 -57l-14 -13 l-20 13l-41 106l-54 31v6l-43 37l-8 18l-18 2l-131 -55l-4 4l-7 -8l-45 -17l-28 -16l-41 -4l-129 -45l-144 -12l-28 6l-37 -2l-41 14l-23 33l6 47l17 43l117 194l96 191l10 33l29 53l82 266l24 152l-2 80l-6 47l-27 55l-43 25l-55 2l-43 -6l-57 -21l-84 -41l-35 -25l-70 -73 l-34 -47l-23 -49l-4 -23l-21 -23l15 -34l-2 -23l-19 -6l-10 8l-16 -6l-21 23l-43 24l-45 37zM934 1417l6 19l4 4l2 4l25 35l6 10l8 6l2 4l14 27l15 18h2l4 4l8 13l2 4l4 6l45 71l19 35l10 13l25 24l6 15l2 2l10 6l4 2l19 2l4 -4l6 -2l35 -37v-4l2 -2l4 -2l26 -7l7 -2l4 -4 l-17 -51l-12 -12l-12 -10l-9 -7l-16 -14l-2 -4l-25 -29l-26 -8l-35 -24l-12 -7l-6 -4l-11 -8h-2l-12 -12l-39 -21l-4 -8l-2 -2l-14 -8l-11 -12l-8 -6l-2 -3l-20 -8l-6 4l-11 -8l-4 -2h-4z" />
<glyph unicode="&#xdb;" horiz-adv-x="1239" d="M41 979l8 20l33 35l27 19l53 49l31 14l10 17l178 102l35 10l24 21l205 65l43 2l60 -8l30 -20l21 -21l18 -35l14 -49l7 -57l-7 -84l-10 -37l-2 -25l-18 -41l-8 -47l-29 -82l-76 -180l-6 -2l-14 -37l-33 -61l-82 -158l-29 -39l-45 -92l-12 -16l-4 -25l-17 -24l-10 -25 l-6 -43l37 -29l70 -14l67 2l109 12l274 90l-6 35l-14 199l8 117l18 102l47 203l58 176l12 29h16l13 26l43 21l14 18l64 31l14 -17l-21 -39l-2 -24l-14 -49l-20 -35l-76 -219l-25 -88l-2 -37l-16 -60v-32l-6 -39l-5 -84l11 -144l35 -163l18 -50v-12l18 -57l-2 -57l-14 -13 l-20 13l-41 106l-54 31v6l-43 37l-8 18l-18 2l-131 -55l-4 4l-7 -8l-45 -17l-28 -16l-41 -4l-129 -45l-144 -12l-28 6l-37 -2l-41 14l-23 33l6 47l17 43l117 194l96 191l10 33l29 53l82 266l24 152l-2 80l-6 47l-27 55l-43 25l-55 2l-43 -6l-57 -21l-84 -41l-35 -25l-70 -73 l-34 -47l-23 -49l-4 -23l-21 -23l15 -34l-2 -23l-19 -6l-10 8l-16 -6l-21 23l-43 24l-45 37zM625 1401l22 16l8 15l9 2l4 6l32 22l31 29l143 170l21 8v19l-6 8l14 12l17 6l8 6l10 2l6 13l21 4l8 2h2l6 -8l16 -33l4 -6l80 -115l43 -47l39 -31l4 -2l62 -47l35 -16l6 -6l4 -9 l-2 -6l-8 -6h-15l-49 -10l-24 6l-37 16l-13 15h-16l-14 14l-29 8l-18 19l-15 8l-14 16l-10 8l-4 2l-2 5l-27 24l-4 8l-8 4l-7 9l-4 6l-6 18l-30 29h-7l-2 -2l-2 -8l-2 -2l-10 -13l-12 -16l-9 -8l-6 -11l-6 -4l-8 -8l-4 -10l-12 -8l-9 -6l-28 -35l-6 -6l-4 -2l-19 -25l-4 -4 l-4 -8l-23 -11l-6 -8l-14 -4h-6l-13 -6l-26 -4l-14 -8z" />
<glyph unicode="&#xdc;" horiz-adv-x="1239" d="M41 979l8 20l33 35l27 19l53 49l31 14l10 17l178 102l35 10l24 21l205 65l43 2l60 -8l30 -20l21 -21l18 -35l14 -49l7 -57l-7 -84l-10 -37l-2 -25l-18 -41l-8 -47l-29 -82l-76 -180l-6 -2l-14 -37l-33 -61l-82 -158l-29 -39l-45 -92l-12 -16l-4 -25l-17 -24l-10 -25 l-6 -43l37 -29l70 -14l67 2l109 12l274 90l-6 35l-14 199l8 117l18 102l47 203l58 176l12 29h16l13 26l43 21l14 18l64 31l14 -17l-21 -39l-2 -24l-14 -49l-20 -35l-76 -219l-25 -88l-2 -37l-16 -60v-32l-6 -39l-5 -84l11 -144l35 -163l18 -50v-12l18 -57l-2 -57l-14 -13 l-20 13l-41 106l-54 31v6l-43 37l-8 18l-18 2l-131 -55l-4 4l-7 -8l-45 -17l-28 -16l-41 -4l-129 -45l-144 -12l-28 6l-37 -2l-41 14l-23 33l6 47l17 43l117 194l96 191l10 33l29 53l82 266l24 152l-2 80l-6 47l-27 55l-43 25l-55 2l-43 -6l-57 -21l-84 -41l-35 -25l-70 -73 l-34 -47l-23 -49l-4 -23l-21 -23l15 -34l-2 -23l-19 -6l-10 8l-16 -6l-21 23l-43 24l-45 37zM801 1536l4 12l-4 43l10 21l31 6l47 2l24 -6l19 -2l8 -6l8 -29l2 -47l-10 -43l-37 -14l-78 -3l-22 9zM1073 1503l4 74l8 31l23 4l8 8l47 -4h21l6 -4l10 -2l23 -29l2 -53l-15 -35 l-18 -18l-39 -7l-14 5h-11l-2 -5l-47 5z" />
<glyph unicode="&#xdf;" horiz-adv-x="729" d="M-121 -281l17 17l6 10l8 8l14 6l10 13l46 37l45 45l55 45l4 2l8 6l19 18l-5 31v18l7 15v6l2 4h-2l-2 8l-9 21l-4 30l8 35l-8 80l8 19v4l-4 8l-2 63h4v8l2 11l3 30v7l-3 10v4l-4 4l-2 37v18l9 13l-3 22l-4 10l-4 7l-2 79l2 9v10l4 47l-6 35l-2 88l6 28l-6 3l8 28l-10 82 l10 4h-12l6 68l4 -2v2h-2l-2 6h-4v53l-4 8v43l-4 21v49l-10 12l-11 17l-12 2l-2 4l-43 16l-16 25l2 41l28 30l15 11l2 4l4 6l16 10l13 8h8l8 4l31 21h2l4 2l14 -4l10 -6l9 -43l-2 -23l4 -4h8l4 -8l6 -6l10 -6l21 -2l133 30l94 11l43 -23l10 -16l5 -6l2 -11v-12l-2 -45 l-5 -12v-4l-2 -9l-18 -47l-4 -6l-4 -8l-8 -12l-5 -13l-2 -2l-14 -28l-8 -7l-12 -22l-7 -18l-4 -7v-2l-4 -6v-10l-6 -8l4 -23l2 -2l-2 -4l10 -20l19 -11l92 -39h10l11 -4l6 -4l18 -4l53 -24l47 -37l15 -17l4 -6v-14l12 -6l4 -8l6 -19h2l5 -8l4 -10l6 -19v-16l-2 -10l-6 -13 v-10h6l-4 -39l-2 -6l-2 -18l-27 -80h-6v-8l-6 -7l-2 -16l-4 -6l-11 -21l-4 -4l-2 -4l-2 -2l-27 -45h-8l-10 -12l-37 -41l2 -6l-6 -6l-31 -29l-10 -14h-8l-27 -33l-88 -82l-31 -19l-26 -30l-31 -23l-2 -10l-92 -78l-2 -24l2 -21l-4 -8l-2 -41l-6 -14l8 -33l-4 -39l2 -119 l-2 -6v-18l4 -58l-8 -45l4 -106l-4 -15l4 -20l-4 -135l2 -4l-6 -13l4 -22l-21 -6l-10 -19l-37 -2l-6 4l-2 6l2 11l-8 63l2 25l-6 12l2 8l-4 82l-5 16l3 5l2 6l2 22l-9 39l5 80l-11 35l6 33l7 20l-2 12l-7 2l-4 9l2 16l9 14v4l-3 4l3 39l-7 29l2 6l-4 8l2 25l-2 6l-6 6l-4 2 l-8 -2l-14 -12l-19 -12l-14 -4l-17 -13l-2 -8l-16 -2l-20 -29h-9l-4 -6l-28 -20l-19 -17l-14 -16h-4v2h-6l-13 2v10zM184 1049l11 -23l4 -70l-2 -61l2 -2l2 -16l2 -7v-8h4l-4 -53l2 -29l2 -8l6 -4l4 -4h12l13 6l4 -2l8 -8l10 -66v-55l-6 -35l-2 -16l6 -25v-4l-2 -4l-2 -8v-2 l-10 -115l-12 -39l-3 -33l5 -20l-2 -14l2 -19l-5 -2l-4 -4l-4 -12l-2 -43l2 -8l8 -9l-8 -49l4 -20l-2 -8v-11l4 -20v-6l-8 -9l-10 -43l-2 -63l6 2l6 8l19 10l2 9l4 4l6 4l4 2l100 82l15 22l2 2l6 4l6 3l51 53l4 6l4 4l74 82l4 8l4 4l47 53h-4v7l2 6l7 4l30 57l21 58v8l2 10 l2 4l2 45l-12 62h-4v8l-5 6l-8 20l-6 7l-4 6l-8 10l-6 8l-4 -2v4l-11 10l-14 21h-2l-8 12l-19 2l-14 15l-14 2h-4l-11 6l-59 22h-4l-17 6l-12 4l-53 19l-45 31l-8 18l-2 16v5l4 34l16 31l45 119l8 12h2l9 49l-5 29l-4 16l-26 11l-96 -17l-33 -16l-15 -37l-2 -27l2 -4l2 -10z " />
<glyph unicode="&#xe0;" d="M-53 70l4 59l6 8v6l31 43l6 7l10 14l16 33l66 57l6 4l2 4l15 8l10 15l20 14l23 23l35 20l8 6l4 2l2 6l6 2l14 13l5 2l2 8l8 12l26 15h9l30 18l23 6l14 10l12 4v5l39 14l2 2l13 6l22 10l45 13l15 6l65 -2l35 -21l18 -14l9 -14h6l-15 24l-4 37l-14 23l-16 47l-15 24l-30 27 l-43 4l-17 -10l-72 -82l-28 -25l-10 -8l-9 -2l-6 2l-6 6v4l18 15v4l3 6l6 8l20 25l27 22l26 33l88 82l21 2l35 22h6l6 -2l6 -4l23 -2l37 -39l16 -26l23 -56l8 -10l24 -67v-9l4 -12l4 -33l9 -18v-8l4 -17l2 -14l4 -14l16 -54l8 -14l3 -27l16 -28l2 -37l10 -19l12 -51l35 -73 l13 -15l4 -8l12 -14l2 -19l47 -35l27 4l8 5h16v-11l-10 -6l-10 -8l-49 -35l-41 -16l-8 -2l-3 6h-18l-27 22l-32 50l-17 18l-10 31l-25 43l-6 8l-2 10l-10 8l-2 9l-6 16l-2 22l-17 33l-2 31l-6 8l-6 19l-2 18l-12 16h-10l-7 -8v-6h-4v-4l-4 -10l-43 -68l-41 -43l-6 -14 l-47 -41l-16 -23l-23 -12l-12 -16l-37 -21l-19 -6l-10 -8l-20 -8l-6 -9l-13 -2l-35 -26l-22 -4l-31 -19l-67 -22l-21 2l-12 -10l-21 6l-45 26l-14 15h-8l-10 -7l-15 -12l-14 2l-8 -4l-27 10l-43 23zM27 137l4 -10l6 -18l12 -13l-2 6h16l9 2l8 11l2 10v8l14 43l4 14l9 11v2 l4 6l2 8l6 19l31 43l8 16l-4 4l-6 4l-11 -4l-6 -6v-2l-20 -12l-25 -27l-16 -10l-6 -9l-5 -10l-8 -16l-6 -6v-19l-2 -6l-4 -8l-10 -10zM156 176l4 -41l12 -26l12 -7l11 -20l24 -16l29 -5l39 5l51 18l8 8l16 2l41 23l41 39l7 2l4 4l67 86l10 8l7 10l16 23l16 41l9 14l6 10v4 l4 9l10 28v11l2 6l4 6v47l-4 12v10l-18 15l-15 12l-14 4l-45 4l-49 -12l-15 -6l-20 -8l-8 -7l-6 -2l-76 -34l-8 -7l-4 -6l-13 -4l-10 -4l-4 -6l-14 -10l-2 -4l-5 -2l-2 -4l-10 -9l-39 -45l-4 -10l-4 -14l-10 -9l-2 -8l-15 -30l-6 -5l-4 -10l-10 -16l2 -25l-12 -20zM272 1171 l2 5l11 2l26 6l4 2l2 2l-2 4l37 37l6 2l4 4l19 -2l4 -2l10 -6l2 -2l6 -15l11 -10l6 -10l6 -4l10 -13l17 -34l67 -99h2l15 -18l14 -27v-4l10 -6l6 -10l25 -35l4 -8l6 -19l-6 -4h-4l-4 2l-10 9l-7 -5l-20 9l-4 2l-8 6l-11 12l-12 8l-2 2h-2l-4 9l-8 4l-29 16l-6 6l-4 2l-4 4 h-2l-19 13l-10 6l-33 24l-26 8l-27 29v4l-16 15l-9 6l-12 10l-12 12z" />
<glyph unicode="&#xe1;" d="M-53 70l4 59l6 8v6l31 43l6 7l10 14l16 33l66 57l6 4l2 4l15 8l10 15l20 14l23 23l35 20l8 6l4 2l2 6l6 2l14 13l5 2l2 8l8 12l26 15h9l30 18l23 6l14 10l12 4v5l39 14l2 2l13 6l22 10l45 13l15 6l65 -2l35 -21l18 -14l9 -14h6l-15 24l-4 37l-14 23l-16 47l-15 24l-30 27 l-43 4l-17 -10l-72 -82l-28 -25l-10 -8l-9 -2l-6 2l-6 6v4l18 15v4l3 6l6 8l20 25l27 22l26 33l88 82l21 2l35 22h6l6 -2l6 -4l23 -2l37 -39l16 -26l23 -56l8 -10l24 -67v-9l4 -12l4 -33l9 -18v-8l4 -17l2 -14l4 -14l16 -54l8 -14l3 -27l16 -28l2 -37l10 -19l12 -51l35 -73 l13 -15l4 -8l12 -14l2 -19l47 -35l27 4l8 5h16v-11l-10 -6l-10 -8l-49 -35l-41 -16l-8 -2l-3 6h-18l-27 22l-32 50l-17 18l-10 31l-25 43l-6 8l-2 10l-10 8l-2 9l-6 16l-2 22l-17 33l-2 31l-6 8l-6 19l-2 18l-12 16h-10l-7 -8v-6h-4v-4l-4 -10l-43 -68l-41 -43l-6 -14 l-47 -41l-16 -23l-23 -12l-12 -16l-37 -21l-19 -6l-10 -8l-20 -8l-6 -9l-13 -2l-35 -26l-22 -4l-31 -19l-67 -22l-21 2l-12 -10l-21 6l-45 26l-14 15h-8l-10 -7l-15 -12l-14 2l-8 -4l-27 10l-43 23zM27 137l4 -10l6 -18l12 -13l-2 6h16l9 2l8 11l2 10v8l14 43l4 14l9 11v2 l4 6l2 8l6 19l31 43l8 16l-4 4l-6 4l-11 -4l-6 -6v-2l-20 -12l-25 -27l-16 -10l-6 -9l-5 -10l-8 -16l-6 -6v-19l-2 -6l-4 -8l-10 -10zM156 176l4 -41l12 -26l12 -7l11 -20l24 -16l29 -5l39 5l51 18l8 8l16 2l41 23l41 39l7 2l4 4l67 86l10 8l7 10l16 23l16 41l9 14l6 10v4 l4 9l10 28v11l2 6l4 6v47l-4 12v10l-18 15l-15 12l-14 4l-45 4l-49 -12l-15 -6l-20 -8l-8 -7l-6 -2l-76 -34l-8 -7l-4 -6l-13 -4l-10 -4l-4 -6l-14 -10l-2 -4l-5 -2l-2 -4l-10 -9l-39 -45l-4 -10l-4 -14l-10 -9l-2 -8l-15 -30l-6 -5l-4 -10l-10 -16l2 -25l-12 -20zM532 911 l7 19l4 4l2 4l24 35l6 10l9 6l2 4l14 27l14 18h2l5 4l8 13l2 4l4 6l45 72l18 34l11 13l24 24l6 15l2 2l11 6l4 2l18 2l4 -4l6 -2l35 -37v-4l2 -2l4 -2l27 -6l6 -2l4 -5l-16 -51l-12 -12l-13 -10l-8 -6l-16 -15l-2 -4l-25 -29l-27 -8l-34 -24l-13 -6l-6 -5l-10 -8h-2l-12 -12 l-39 -20l-4 -9l-2 -2l-15 -8l-10 -12l-8 -6l-2 -2l-21 -9l-6 5l-10 -9l-4 -2h-4z" />
<glyph unicode="&#xe2;" d="M-53 70l4 59l6 8v6l31 43l6 7l10 14l16 33l66 57l6 4l2 4l15 8l10 15l20 14l23 23l35 20l8 6l4 2l2 6l6 2l14 13l5 2l2 8l8 12l26 15h9l30 18l23 6l14 10l12 4v5l39 14l2 2l13 6l22 10l45 13l15 6l65 -2l35 -21l18 -14l9 -14h6l-15 24l-4 37l-14 23l-16 47l-15 24l-30 27 l-43 4l-17 -10l-72 -82l-28 -25l-10 -8l-9 -2l-6 2l-6 6v4l18 15v4l3 6l6 8l20 25l27 22l26 33l88 82l21 2l35 22h6l6 -2l6 -4l23 -2l37 -39l16 -26l23 -56l8 -10l24 -67v-9l4 -12l4 -33l9 -18v-8l4 -17l2 -14l4 -14l16 -54l8 -14l3 -27l16 -28l2 -37l10 -19l12 -51l35 -73 l13 -15l4 -8l12 -14l2 -19l47 -35l27 4l8 5h16v-11l-10 -6l-10 -8l-49 -35l-41 -16l-8 -2l-3 6h-18l-27 22l-32 50l-17 18l-10 31l-25 43l-6 8l-2 10l-10 8l-2 9l-6 16l-2 22l-17 33l-2 31l-6 8l-6 19l-2 18l-12 16h-10l-7 -8v-6h-4v-4l-4 -10l-43 -68l-41 -43l-6 -14 l-47 -41l-16 -23l-23 -12l-12 -16l-37 -21l-19 -6l-10 -8l-20 -8l-6 -9l-13 -2l-35 -26l-22 -4l-31 -19l-67 -22l-21 2l-12 -10l-21 6l-45 26l-14 15h-8l-10 -7l-15 -12l-14 2l-8 -4l-27 10l-43 23zM27 137l4 -10l6 -18l12 -13l-2 6h16l9 2l8 11l2 10v8l14 43l4 14l9 11v2 l4 6l2 8l6 19l31 43l8 16l-4 4l-6 4l-11 -4l-6 -6v-2l-20 -12l-25 -27l-16 -10l-6 -9l-5 -10l-8 -16l-6 -6v-19l-2 -6l-4 -8l-10 -10zM156 176l4 -41l12 -26l12 -7l11 -20l24 -16l29 -5l39 5l51 18l8 8l16 2l41 23l41 39l7 2l4 4l67 86l10 8l7 10l16 23l16 41l9 14l6 10v4 l4 9l10 28v11l2 6l4 6v47l-4 12v10l-18 15l-15 12l-14 4l-45 4l-49 -12l-15 -6l-20 -8l-8 -7l-6 -2l-76 -34l-8 -7l-4 -6l-13 -4l-10 -4l-4 -6l-14 -10l-2 -4l-5 -2l-2 -4l-10 -9l-39 -45l-4 -10l-4 -14l-10 -9l-2 -8l-15 -30l-6 -5l-4 -10l-10 -16l2 -25l-12 -20zM285 895 l22 16l8 15l9 2l4 6l32 22l31 29l144 170l20 8v19l-6 8l14 12l17 6l8 6l10 3l6 12l21 4l8 2h2l6 -8l16 -33l5 -6l79 -115l43 -47l39 -31l4 -2l62 -47l35 -16l6 -6l4 -9l-2 -6l-8 -6h-15l-49 -10l-24 6l-37 16l-13 15h-16l-14 14l-29 8l-18 19l-15 8l-14 16l-10 9l-4 2l-2 4 l-27 24l-4 8l-8 5l-7 8l-4 6l-6 18l-30 29h-7l-2 -2l-2 -8l-2 -2l-10 -13l-12 -16l-8 -8l-7 -10l-6 -5l-8 -8l-4 -10l-12 -8l-9 -6l-28 -35l-6 -6l-4 -2l-19 -25l-4 -4l-4 -8l-23 -10l-6 -9l-14 -4h-6l-13 -6l-26 -4l-14 -8z" />
<glyph unicode="&#xe3;" d="M-53 70l4 59l6 8v6l31 43l6 7l10 14l16 33l66 57l6 4l2 4l15 8l10 15l20 14l23 23l35 20l8 6l4 2l2 6l6 2l14 13l5 2l2 8l8 12l26 15h9l30 18l23 6l14 10l12 4v5l39 14l2 2l13 6l22 10l45 13l15 6l65 -2l35 -21l18 -14l9 -14h6l-15 24l-4 37l-14 23l-16 47l-15 24l-30 27 l-43 4l-17 -10l-72 -82l-28 -25l-10 -8l-9 -2l-6 2l-6 6v4l18 15v4l3 6l6 8l20 25l27 22l26 33l88 82l21 2l35 22h6l6 -2l6 -4l23 -2l37 -39l16 -26l23 -56l8 -10l24 -67v-9l4 -12l4 -33l9 -18v-8l4 -17l2 -14l4 -14l16 -54l8 -14l3 -27l16 -28l2 -37l10 -19l12 -51l35 -73 l13 -15l4 -8l12 -14l2 -19l47 -35l27 4l8 5h16v-11l-10 -6l-10 -8l-49 -35l-41 -16l-8 -2l-3 6h-18l-27 22l-32 50l-17 18l-10 31l-25 43l-6 8l-2 10l-10 8l-2 9l-6 16l-2 22l-17 33l-2 31l-6 8l-6 19l-2 18l-12 16h-10l-7 -8v-6h-4v-4l-4 -10l-43 -68l-41 -43l-6 -14 l-47 -41l-16 -23l-23 -12l-12 -16l-37 -21l-19 -6l-10 -8l-20 -8l-6 -9l-13 -2l-35 -26l-22 -4l-31 -19l-67 -22l-21 2l-12 -10l-21 6l-45 26l-14 15h-8l-10 -7l-15 -12l-14 2l-8 -4l-27 10l-43 23zM27 137l4 -10l6 -18l12 -13l-2 6h16l9 2l8 11l2 10v8l14 43l4 14l9 11v2 l4 6l2 8l6 19l31 43l8 16l-4 4l-6 4l-11 -4l-6 -6v-2l-20 -12l-25 -27l-16 -10l-6 -9l-5 -10l-8 -16l-6 -6v-19l-2 -6l-4 -8l-10 -10zM156 176l4 -41l12 -26l12 -7l11 -20l24 -16l29 -5l39 5l51 18l8 8l16 2l41 23l41 39l7 2l4 4l67 86l10 8l7 10l16 23l16 41l9 14l6 10v4 l4 9l10 28v11l2 6l4 6v47l-4 12v10l-18 15l-15 12l-14 4l-45 4l-49 -12l-15 -6l-20 -8l-8 -7l-6 -2l-76 -34l-8 -7l-4 -6l-13 -4l-10 -4l-4 -6l-14 -10l-2 -4l-5 -2l-2 -4l-10 -9l-39 -45l-4 -10l-4 -14l-10 -9l-2 -8l-15 -30l-6 -5l-4 -10l-10 -16l2 -25l-12 -20zM285 989 l34 31l35 27l4 6l11 10l28 8l6 10l13 6l35 21l24 6v4l4 2l17 6l73 17l56 -2l2 -4l14 -2l37 -19l12 -2l6 -2v-4l9 -2l24 -19l49 -16l29 4l18 -2l68 21l39 24l8 -4l-2 -12l-66 -70l-65 -41l-41 -16l-35 -6l-63 20l-2 2l-9 6l-82 43l-65 4l-49 -8l-117 -35l-31 -16l-16 -6l-8 4 z" />
<glyph unicode="&#xe4;" d="M-53 70l4 59l6 8v6l31 43l6 7l10 14l16 33l66 57l6 4l2 4l15 8l10 15l20 14l23 23l35 20l8 6l4 2l2 6l6 2l14 13l5 2l2 8l8 12l26 15h9l30 18l23 6l14 10l12 4v5l39 14l2 2l13 6l22 10l45 13l15 6l65 -2l35 -21l18 -14l9 -14h6l-15 24l-4 37l-14 23l-16 47l-15 24l-30 27 l-43 4l-17 -10l-72 -82l-28 -25l-10 -8l-9 -2l-6 2l-6 6v4l18 15v4l3 6l6 8l20 25l27 22l26 33l88 82l21 2l35 22h6l6 -2l6 -4l23 -2l37 -39l16 -26l23 -56l8 -10l24 -67v-9l4 -12l4 -33l9 -18v-8l4 -17l2 -14l4 -14l16 -54l8 -14l3 -27l16 -28l2 -37l10 -19l12 -51l35 -73 l13 -15l4 -8l12 -14l2 -19l47 -35l27 4l8 5h16v-11l-10 -6l-10 -8l-49 -35l-41 -16l-8 -2l-3 6h-18l-27 22l-32 50l-17 18l-10 31l-25 43l-6 8l-2 10l-10 8l-2 9l-6 16l-2 22l-17 33l-2 31l-6 8l-6 19l-2 18l-12 16h-10l-7 -8v-6h-4v-4l-4 -10l-43 -68l-41 -43l-6 -14 l-47 -41l-16 -23l-23 -12l-12 -16l-37 -21l-19 -6l-10 -8l-20 -8l-6 -9l-13 -2l-35 -26l-22 -4l-31 -19l-67 -22l-21 2l-12 -10l-21 6l-45 26l-14 15h-8l-10 -7l-15 -12l-14 2l-8 -4l-27 10l-43 23zM27 137l4 -10l6 -18l12 -13l-2 6h16l9 2l8 11l2 10v8l14 43l4 14l9 11v2 l4 6l2 8l6 19l31 43l8 16l-4 4l-6 4l-11 -4l-6 -6v-2l-20 -12l-25 -27l-16 -10l-6 -9l-5 -10l-8 -16l-6 -6v-19l-2 -6l-4 -8l-10 -10zM156 176l4 -41l12 -26l12 -7l11 -20l24 -16l29 -5l39 5l51 18l8 8l16 2l41 23l41 39l7 2l4 4l67 86l10 8l7 10l16 23l16 41l9 14l6 10v4 l4 9l10 28v11l2 6l4 6v47l-4 12v10l-18 15l-15 12l-14 4l-45 4l-49 -12l-15 -6l-20 -8l-8 -7l-6 -2l-76 -34l-8 -7l-4 -6l-13 -4l-10 -4l-4 -6l-14 -10l-2 -4l-5 -2l-2 -4l-10 -9l-39 -45l-4 -10l-4 -14l-10 -9l-2 -8l-15 -30l-6 -5l-4 -10l-10 -16l2 -25l-12 -20zM395 1030 l4 12l-4 43l11 21l30 6l47 2l25 -6l18 -2l9 -6l8 -29l2 -47l-10 -43l-37 -14l-78 -2l-23 8zM668 997l4 74l8 31l22 4l9 8l47 -4h20l6 -4l11 -2l22 -29l2 -53l-14 -35l-19 -18l-38 -6l-15 4h-10l-2 -4l-47 4z" />
<glyph unicode="&#xe5;" d="M-53 70l4 59l6 8v6l31 43l6 7l10 14l16 33l66 57l6 4l2 4l15 8l10 15l20 14l23 23l35 20l8 6l4 2l2 6l6 2l14 13l5 2l2 8l8 12l26 15h9l30 18l23 6l14 10l12 4v5l39 14l2 2l13 6l22 10l45 13l15 6l65 -2l35 -21l18 -14l9 -14h6l-15 24l-4 37l-14 23l-16 47l-15 24l-30 27 l-43 4l-17 -10l-72 -82l-28 -25l-10 -8l-9 -2l-6 2l-6 6v4l18 15v4l3 6l6 8l20 25l27 22l26 33l88 82l21 2l35 22h6l6 -2l6 -4l23 -2l37 -39l16 -26l23 -56l8 -10l24 -67v-9l4 -12l4 -33l9 -18v-8l4 -17l2 -14l4 -14l16 -54l8 -14l3 -27l16 -28l2 -37l10 -19l12 -51l35 -73 l13 -15l4 -8l12 -14l2 -19l47 -35l27 4l8 5h16v-11l-10 -6l-10 -8l-49 -35l-41 -16l-8 -2l-3 6h-18l-27 22l-32 50l-17 18l-10 31l-25 43l-6 8l-2 10l-10 8l-2 9l-6 16l-2 22l-17 33l-2 31l-6 8l-6 19l-2 18l-12 16h-10l-7 -8v-6h-4v-4l-4 -10l-43 -68l-41 -43l-6 -14 l-47 -41l-16 -23l-23 -12l-12 -16l-37 -21l-19 -6l-10 -8l-20 -8l-6 -9l-13 -2l-35 -26l-22 -4l-31 -19l-67 -22l-21 2l-12 -10l-21 6l-45 26l-14 15h-8l-10 -7l-15 -12l-14 2l-8 -4l-27 10l-43 23zM27 137l4 -10l6 -18l12 -13l-2 6h16l9 2l8 11l2 10v8l14 43l4 14l9 11v2 l4 6l2 8l6 19l31 43l8 16l-4 4l-6 4l-11 -4l-6 -6v-2l-20 -12l-25 -27l-16 -10l-6 -9l-5 -10l-8 -16l-6 -6v-19l-2 -6l-4 -8l-10 -10zM156 176l4 -41l12 -26l12 -7l11 -20l24 -16l29 -5l39 5l51 18l8 8l16 2l41 23l41 39l7 2l4 4l67 86l10 8l7 10l16 23l16 41l9 14l6 10v4 l4 9l10 28v11l2 6l4 6v47l-4 12v10l-18 15l-15 12l-14 4l-45 4l-49 -12l-15 -6l-20 -8l-8 -7l-6 -2l-76 -34l-8 -7l-4 -6l-13 -4l-10 -4l-4 -6l-14 -10l-2 -4l-5 -2l-2 -4l-10 -9l-39 -45l-4 -10l-4 -14l-10 -9l-2 -8l-15 -30l-6 -5l-4 -10l-10 -16l2 -25l-12 -20zM340 1038 l16 70l4 4l7 10l34 31l13 16l32 21l19 4h6l14 4h27l6 4l66 2l10 -2l6 2l4 2l23 -4l24 -8l8 -4l9 -2l53 -47l20 -35l15 -37l-6 -43h-2l-7 -10l-2 -8l-34 -66l-19 -29l-16 -12l-4 2v-4l-54 -12h-30l-41 -8h-39l-15 6l-6 2l-28 10l-52 31l-16 16l-12 8l-25 43v11l-4 8z M444 1044l2 -4l3 -8l8 -28h2l2 -11l39 -45l2 -4l45 -24h14l4 2l4 4l17 6l18 20v11l10 20l13 4l18 17v6l4 2l8 30l-8 33l-2 12l-8 9l-8 14l-39 37l-10 6l-2 2l-54 21l-12 -5l-12 -6l-4 -4l-17 -14l-12 -17l-4 -8l-14 -26z" />
<glyph unicode="&#xe6;" horiz-adv-x="1286" d="M0 240l4 57l43 68l21 24l6 10l6 2l22 25l138 109l90 49l82 28l47 23l20 8l15 2h8l12 -8l37 -16l2 4l8 2l-16 61l-13 8l-6 15l-2 2l-20 22l-35 17l-47 2l-19 -6l-36 -9l-15 -4l-14 -6l-19 -8h-4l-22 -8l-14 -11l-5 -8l-28 -16h-13l-8 12h6v6l5 4l14 7l4 6l12 6l74 47l12 4 l17 8l67 25h19l26 8l21 -2l14 2l53 -12l23 -15l16 -16h4l33 -49l4 -49l10 -11l3 -8l22 -94l6 -96l4 -15v-53l11 -37l20 33l8 31l27 37v4l4 4l12 20l4 2l15 43l2 13l10 30l61 74l29 25l12 18l4 4l11 6l16 15l25 18l94 70l16 8l6 2l9 6l98 25h47l10 -2l8 -2l17 -19l6 -16 l-2 -35l4 -2v-6l2 -12l-6 -39l-8 -27l-15 -27l-20 -32l4 -4l-74 -84l-31 -25l-18 -16l-8 -7l-4 -4l-45 -20l-11 -6l-22 -6l-64 -31l-10 -2l-8 -4l-22 -4l-9 -6l-67 -25l-23 -16l-22 2l-27 -27l-14 -45l-8 -62l4 -73l10 -23v-10l6 -6l4 -6l6 -6l-6 -3h6l4 -6l4 -4l7 -4v-4 l6 -2l8 -8l29 -8l10 -2l22 -7l95 17l2 2l22 6l41 18l6 7l49 24l25 21l2 4h4l4 4l19 8l71 55l17 19l8 8l16 14l13 15l4 6l6 10l6 2l2 2l14 29l15 4l4 6l8 -4l-23 -47l-4 -6l-8 -9l4 -6h-6l-14 -22l-8 -4l-11 -13l-18 -14l-23 -27l-10 -6l-6 -8l-74 -51l-24 -21l-13 -6 l-53 -30l-8 -7l-12 -10l-4 -2h-5l-63 -31l-109 -32l-36 2l-52 12l-26 12l-6 4l-9 9l-8 16l-12 8l-10 27l-13 20l-4 4l-12 23l-10 27l-4 12l-4 20l-5 11l-2 32l-8 25v20l-4 15l-12 127h-10l-9 -19l-8 -22l-4 -25l-6 -8h-2l-8 -27l-19 -26l-2 -2l-18 -21l-53 -67l-2 -7l-2 -2 l-54 -67l-84 -74l-61 -35l-49 -20l-23 -4l-8 -2l-16 -2l-52 6v4l-10 2l-2 4l-33 27l-18 41l-2 55l8 63l-20 13l-7 8h-2zM55 303l4 -27h19l6 7l6 14h2l27 31l22 49l41 37l43 37l51 47l-12 6l-33 -19v-4h-6l-35 -20l-14 -15l-33 -26l-8 -12l-12 -7l-4 -6h-8l-5 -6l-36 -41z M104 166l5 -8v-15l8 -26l2 -4l6 -7l18 -20l11 -6l4 -2h32l62 10l51 25l19 10l16 10l18 14l72 68l61 78l33 72l8 14l7 8l4 8l-2 15l8 30l-2 29l-2 20v7l-13 20l-14 16l-31 17l-18 6l-6 4l-55 -2l-52 -25l-26 -24l-11 -6l-8 -8l-20 -25l-10 -4l-3 -4l-8 -6l-12 -11l-12 -18 l-11 -10l-10 -13l-41 -53l-32 -51l-5 -8l-12 -19l-2 -18v-10l-18 -39zM813 436l4 -8h19l6 2l12 10l12 17h45l121 47l35 28l55 54l2 8l9 10l24 39l19 43l4 45l-15 27l-16 4v6l-53 -16l-23 -15l-12 -10l-8 -2l-9 -8h-4v-4l-26 -23l-4 -10l-4 -2l-48 -43l-30 -41l-10 -4 l-17 -31l-24 -24l-52 -76l-4 -2l-4 -8l-4 -5v-8z" />
<glyph unicode="&#xe7;" horiz-adv-x="700" d="M-20 184l8 33l-6 19l6 8l12 51l25 39l-2 4l4 6l4 10l12 21l4 8l8 12l4 8l15 19l24 49l19 23l10 8l8 6l15 24l65 72l8 6l49 54l99 88l71 49l84 41l35 2l4 -8l-6 -27l-16 -51l-35 -2l-47 -23l-15 -18l-22 -8l-43 -29l-23 -16l-4 -3l-12 -12l-12 -10l-11 -10l-30 -39 l-51 -72l-13 -14l-4 -17l-16 -18l-55 -133l-19 -88v-23l10 -71l-2 -2l-2 -7l2 -8l4 -2l7 2l6 -4l6 -18l16 -19l21 -12l16 -8l8 -8l27 -3l35 5v-2l4 -3h6l6 3h2l8 -3l25 11l33 4l53 24l51 43l29 23l4 4l8 6l37 49l4 4l4 7l6 4l29 26l14 27l41 57l13 25l8 26l16 5l-14 -66 l-4 -6l-6 -12v-2l-17 -23v-10l-4 -4l-6 -13l-33 -45l-10 -16l-17 -10l-8 -21l-35 -37l-10 -12l-6 -4l-6 -6l-37 -27l-14 -16l-66 -45l-94 -37l-6 -4l-8 -4l-2 -2l-4 -58l40 2l35 -6l35 -18l17 -27l6 -26l-4 -27l-13 -23l-69 -67l-39 -17l-13 -6l-14 -2l-41 -4l-47 6l-14 11 l-4 2l-7 2l-8 2l-20 22l4 17l4 4l8 10l4 2l4 6l15 8l20 25l6 2l6 -8l-2 -21l5 -12l12 -14l28 -11l3 -4l6 -2l34 -6l37 4l15 12l16 43l-10 15l-19 33l-51 24l-45 -4l-10 8l10 58l-4 43l-12 -2l-47 16l-41 31l-17 14l-8 -2l-41 8l-14 17h-2l-15 20l-12 6l-4 6h-4l-2 8l-4 5z M35 221l12 -41l-2 -14l2 -12l12 4l7 -4l10 8l2 2l8 31h-6l2 10l6 20v13l8 43l33 94l10 20h2l21 41l8 19l4 4l12 18l-4 12l-18 -4l-25 -22l-10 -17l-6 -12l-8 -2l-41 -72l-4 -22l-13 -12l-18 -72z" />
<glyph unicode="&#xe8;" horiz-adv-x="745" d="M27 143l12 50v20l31 104l69 140l-18 30l2 39l20 37l29 39l35 39l65 53l50 37l61 45l14 8l64 33l86 31l39 4l30 -6l11 -4l24 -17l6 -49l-8 -33l-39 -86l-14 -18l-21 -21l-67 -71l-27 -12l-57 -43l-117 -50l-51 -14h-14l-25 4l-10 2l-4 17l30 14l25 24l21 7l16 14l90 16 l27 9l86 49l32 37l21 45l4 26l-2 45l-33 25h-41l-18 -4l-33 -25l-10 -12l-10 -2l-56 -60l-10 -12l-16 -14l-25 -25l-29 -43l-6 -8l-6 -4l-14 -16l-25 -29l-8 -19l-25 -24l-47 -103l-24 -81v-19l-4 -22l-4 -78l12 -33l18 -25l21 -18l28 -18l13 -5l22 -6l84 -2l78 25l80 41 l31 29l8 6l6 4l90 67h6v4l4 11l39 34l70 70h14l-8 -20l-4 -9l-8 -18l-31 -31l-16 -18l-103 -92l-16 -11l-6 -8l-21 -16l-4 -6l-6 -4l-4 -2l-6 -2l-33 -27l-96 -57l-31 -11l-14 -4l-7 -2l-32 -10l-8 -2l-25 -10l-59 -6l-50 -3l-39 15l-18 24l-14 11l-33 45zM225 586l2 -8 l13 -3l26 31l10 10l25 29l6 21l-28 -17l-50 -43zM244 1171l2 5l10 2l27 6l4 2l2 2l-2 4l37 37l6 2l4 4l18 -2l4 -2l11 -6l2 -2l6 -15l10 -10l6 -10l6 -4l11 -13l16 -34l68 -99h2l14 -18l14 -27v-4l10 -6l7 -10l24 -35l4 -8l6 -19l-6 -4h-4l-4 2l-10 9l-6 -5l-21 9l-4 2l-8 6 l-10 12l-13 8l-2 2h-2l-4 9l-8 4l-29 16l-6 6l-4 2l-4 4h-2l-18 13l-11 6l-32 24l-27 8l-27 29v4l-16 15l-8 6l-13 10l-12 12z" />
<glyph unicode="&#xe9;" horiz-adv-x="745" d="M27 143l12 50v20l31 104l69 140l-18 30l2 39l20 37l29 39l35 39l65 53l50 37l61 45l14 8l64 33l86 31l39 4l30 -6l11 -4l24 -17l6 -49l-8 -33l-39 -86l-14 -18l-21 -21l-67 -71l-27 -12l-57 -43l-117 -50l-51 -14h-14l-25 4l-10 2l-4 17l30 14l25 24l21 7l16 14l90 16 l27 9l86 49l32 37l21 45l4 26l-2 45l-33 25h-41l-18 -4l-33 -25l-10 -12l-10 -2l-56 -60l-10 -12l-16 -14l-25 -25l-29 -43l-6 -8l-6 -4l-14 -16l-25 -29l-8 -19l-25 -24l-47 -103l-24 -81v-19l-4 -22l-4 -78l12 -33l18 -25l21 -18l28 -18l13 -5l22 -6l84 -2l78 25l80 41 l31 29l8 6l6 4l90 67h6v4l4 11l39 34l70 70h14l-8 -20l-4 -9l-8 -18l-31 -31l-16 -18l-103 -92l-16 -11l-6 -8l-21 -16l-4 -6l-6 -4l-4 -2l-6 -2l-33 -27l-96 -57l-31 -11l-14 -4l-7 -2l-32 -10l-8 -2l-25 -10l-59 -6l-50 -3l-39 15l-18 24l-14 11l-33 45zM225 586l2 -8 l13 -3l26 31l10 10l25 29l6 21l-28 -17l-50 -43zM463 911l6 19l4 4l2 4l25 35l6 10l8 6l2 4l14 27l15 18h2l4 4l8 13l2 4l4 6l45 72l19 34l10 13l25 24l6 15l2 2l10 6l4 2l19 2l4 -4l6 -2l35 -37v-4l2 -2l4 -2l26 -6l6 -2l5 -5l-17 -51l-12 -12l-12 -10l-9 -6l-16 -15l-2 -4 l-25 -29l-26 -8l-35 -24l-12 -6l-6 -5l-11 -8h-2l-12 -12l-39 -20l-4 -9l-2 -2l-14 -8l-11 -12l-8 -6l-2 -2l-20 -9l-7 5l-10 -9l-4 -2h-4z" />
<glyph unicode="&#xea;" horiz-adv-x="745" d="M27 143l12 50v20l31 104l69 140l-18 30l2 39l20 37l29 39l35 39l65 53l50 37l61 45l14 8l64 33l86 31l39 4l30 -6l11 -4l24 -17l6 -49l-8 -33l-39 -86l-14 -18l-21 -21l-67 -71l-27 -12l-57 -43l-117 -50l-51 -14h-14l-25 4l-10 2l-4 17l30 14l25 24l21 7l16 14l90 16 l27 9l86 49l32 37l21 45l4 26l-2 45l-33 25h-41l-18 -4l-33 -25l-10 -12l-10 -2l-56 -60l-10 -12l-16 -14l-25 -25l-29 -43l-6 -8l-6 -4l-14 -16l-25 -29l-8 -19l-25 -24l-47 -103l-24 -81v-19l-4 -22l-4 -78l12 -33l18 -25l21 -18l28 -18l13 -5l22 -6l84 -2l78 25l80 41 l31 29l8 6l6 4l90 67h6v4l4 11l39 34l70 70h14l-8 -20l-4 -9l-8 -18l-31 -31l-16 -18l-103 -92l-16 -11l-6 -8l-21 -16l-4 -6l-6 -4l-4 -2l-6 -2l-33 -27l-96 -57l-31 -11l-14 -4l-7 -2l-32 -10l-8 -2l-25 -10l-59 -6l-50 -3l-39 15l-18 24l-14 11l-33 45zM172 895l23 16 l8 15l8 2l4 6l33 22l31 29l143 170l20 8v19l-6 8l15 12l16 6l8 6l10 3l7 12l20 4l8 2h2l6 -8l17 -33l4 -6l80 -115l43 -47l39 -31l4 -2l61 -47l35 -16l6 -6l4 -9l-2 -6l-8 -6h-14l-49 -10l-25 6l-37 16l-12 15h-17l-14 14l-29 8l-18 19l-14 8l-15 16l-10 9l-4 2l-2 4l-27 24 l-4 8l-8 5l-6 8l-4 6l-6 18l-31 29h-6l-2 -2l-2 -8l-2 -2l-11 -13l-12 -16l-8 -8l-6 -10l-6 -5l-9 -8l-4 -10l-12 -8l-8 -6l-29 -35l-6 -6l-4 -2l-19 -25l-4 -4l-4 -8l-22 -10l-6 -9l-15 -4h-6l-12 -6l-27 -4l-14 -8zM225 586l2 -8l13 -3l26 31l10 10l25 29l6 21l-28 -17 l-50 -43z" />
<glyph unicode="&#xeb;" horiz-adv-x="745" d="M27 143l12 50v20l31 104l69 140l-18 30l2 39l20 37l29 39l35 39l65 53l50 37l61 45l14 8l64 33l86 31l39 4l30 -6l11 -4l24 -17l6 -49l-8 -33l-39 -86l-14 -18l-21 -21l-67 -71l-27 -12l-57 -43l-117 -50l-51 -14h-14l-25 4l-10 2l-4 17l30 14l25 24l21 7l16 14l90 16 l27 9l86 49l32 37l21 45l4 26l-2 45l-33 25h-41l-18 -4l-33 -25l-10 -12l-10 -2l-56 -60l-10 -12l-16 -14l-25 -25l-29 -43l-6 -8l-6 -4l-14 -16l-25 -29l-8 -19l-25 -24l-47 -103l-24 -81v-19l-4 -22l-4 -78l12 -33l18 -25l21 -18l28 -18l13 -5l22 -6l84 -2l78 25l80 41 l31 29l8 6l6 4l90 67h6v4l4 11l39 34l70 70h14l-8 -20l-4 -9l-8 -18l-31 -31l-16 -18l-103 -92l-16 -11l-6 -8l-21 -16l-4 -6l-6 -4l-4 -2l-6 -2l-33 -27l-96 -57l-31 -11l-14 -4l-7 -2l-32 -10l-8 -2l-25 -10l-59 -6l-50 -3l-39 15l-18 24l-14 11l-33 45zM225 586l2 -8 l13 -3l26 31l10 10l25 29l6 21l-28 -17l-50 -43zM244 1030l4 12l-4 43l10 21l31 6l47 2l24 -6l19 -2l8 -6l8 -29l2 -47l-10 -43l-37 -14l-78 -2l-22 8zM516 997l4 74l8 31l23 4l8 8l47 -4h21l6 -4l10 -2l23 -29l2 -53l-15 -35l-18 -18l-39 -6l-14 4h-11l-2 -4l-47 4z" />
<glyph unicode="&#xec;" horiz-adv-x="292" d="M-82 1171l4 5l8 2l27 6l4 2l2 2v4l35 37l6 2l4 4l19 -2l4 -2l10 -6l2 -2l6 -15l25 -24l10 -13l16 -34l62 -95l4 -4h2l14 -18l17 -31l8 -6l6 -10l25 -35l4 -4l2 -4l6 -19l-8 -4h-4l-5 2l-10 9l-6 -5l-20 9l-2 2l-9 6l-10 12l-14 8l-2 2l-4 9l-9 4l-30 16l-8 8l-7 4h-2 l-8 8l-6 5l-12 6l-33 24l-29 8l-24 29l-2 4l-17 15l-8 6l-12 10l-12 12zM82 113l4 39l-2 36l6 39l6 2l-8 9l4 34l4 31l-4 19l2 18v39l-4 31l4 30l10 9l-10 2l-2 28l2 29l-4 29l-2 36v33l4 33l4 6h10l19 6l-2 39v19l4 20h-10l-13 4l5 8h-11l6 19l11 12l4 25l8 20l16 14l15 7 l18 4l6 -6l21 14l22 2l-4 -37l-12 -39v-31l4 -32l2 -35v-43l-8 -43l-6 -4l6 -90l-4 -31l-4 -43l2 -35l-8 -37h-7l2 -30v-58l-10 -31l6 -26l4 -25v-45l-2 -43h-6l-4 6v-12l10 -6l4 -37l-4 -39l-8 -6l2 -18l-45 2l-20 -7h-23l-4 17v55l-4 27z" />
<glyph unicode="&#xed;" horiz-adv-x="292" d="M82 113l4 39l-2 36l6 39l6 2l-8 9l4 34l4 31l-4 19l2 18v39l-4 31l4 30l10 9l-10 2l-2 28l2 29l-4 29l-2 36v33l4 33l4 6h10l19 6l-2 39v19l4 20h-10l-13 4l5 8h-11l6 19l11 12l4 25l8 20l16 14l15 7l18 4l6 -6l21 14l22 2l-4 -37l-12 -39v-31l4 -32l2 -35v-43l-8 -43 l-6 -4l6 -90l-4 -31l-4 -43l2 -35l-8 -37h-7l2 -30v-58l-10 -31l6 -26l4 -25v-45l-2 -43h-6l-4 6v-12l10 -6l4 -37l-4 -39l-8 -6l2 -18l-45 2l-20 -7h-23l-4 17v55l-4 27zM109 911v7l8 16l4 4l24 35l7 10l8 6l2 4l12 27l16 18l5 4l10 13v4l6 6l47 72l16 34l9 13l6 4l8 10 l6 4l6 6l6 15l2 2l9 6l6 2l16 2l4 -4l6 -2l37 -37v-4l4 -4l27 -6l10 -2l4 -5l-20 -51l-10 -12l-13 -10l-8 -6l-16 -15l-2 -4l-27 -29l-27 -8l-32 -24l-11 -6l-6 -5l-10 -8h-4l-12 -12l-39 -20l-4 -9l-2 -2l-15 -8l-10 -12l-8 -6l-2 -2l-21 -9l-8 5l-8 -9l-4 -2h-4z" />
<glyph unicode="&#xee;" horiz-adv-x="292" d="M-121 895l23 16l6 15l6 2l4 6l33 22l33 29l141 170l20 8v19l-4 8l13 12l16 6l8 6l10 3l7 12l24 4l6 2h4l7 -8l4 -13l6 -8v-4l6 -8l2 -6l80 -115l43 -47l29 -22l12 -9l2 -2l61 -47l33 -16l6 -6l6 -9l-4 -6l-8 -6h-14l-45 -10l-27 6l-37 16l-14 15h-17l-12 14l-31 8l-16 19 l-16 8l-13 16l-8 9l-6 2l-2 4l-27 24l-4 8l-8 5l-4 8l-6 6l-8 18l-31 29h-6l-2 -2l-2 -8l-2 -2l-11 -13l-12 -16l-8 -8l-6 -10l-13 -13l-6 -10l-8 -8l-8 -6l-29 -35l-8 -6l-4 -2l-18 -25l-7 -4l-4 -8l-22 -10l-6 -9l-15 -4h-4l-14 -6l-27 -4l-14 -8zM82 113l4 39l-2 36l6 39 l6 2l-8 9l4 34l4 31l-4 19l2 18v39l-4 31l4 30l10 9l-10 2l-2 28l2 29l-4 29l-2 36v33l4 33l4 6h10l19 6l-2 39v19l4 20h-10l-13 4l5 8h-11l6 19l11 12l4 25l8 20l16 14l15 7l18 4l6 -6l21 14l22 2l-4 -37l-12 -39v-31l4 -32l2 -35v-43l-8 -43l-6 -4l6 -90l-4 -31l-4 -43 l2 -35l-8 -37h-7l2 -30v-58l-10 -31l6 -26l4 -25v-45l-2 -43h-6l-4 6v-12l10 -6l4 -37l-4 -39l-8 -6l2 -18l-45 2l-20 -7h-23l-4 17v55l-4 27z" />
<glyph unicode="&#xef;" horiz-adv-x="292" d="M-41 1030l4 12l-2 43l8 21l31 6l49 2l25 -6l18 -2l4 -6l10 -29l5 -47l-15 -43l-33 -14l-79 -2l-23 8zM82 113l4 39l-2 36l6 39l6 2l-8 9l4 34l4 31l-4 19l2 18v39l-4 31l4 30l10 9l-10 2l-2 28l2 29l-4 29l-2 36v33l4 33l4 6h10l19 6l-2 39v19l4 20h-10l-13 4l5 8h-11 l6 19l11 12l4 25l8 20l16 14l15 7l18 4l6 -6l21 14l22 2l-4 -37l-12 -39v-31l4 -32l2 -35v-43l-8 -43l-6 -4l6 -90l-4 -31l-4 -43l2 -35l-8 -37h-7l2 -30v-58l-10 -31l6 -26l4 -25v-45l-2 -43h-6l-4 6v-12l10 -6l4 -37l-4 -39l-8 -6l2 -18l-45 2l-20 -7h-23l-4 17v55l-4 27z M231 997l5 74l10 31l20 4l10 8l48 -4h18l8 -4l8 -2l25 -29v-53l-12 -35l-21 -18l-39 -6l-14 4h-10l-4 -4l-45 4z" />
<glyph unicode="&#xf1;" horiz-adv-x="796" d="M92 989l35 31l35 27l4 6l10 10l29 8l6 10l12 6l35 21l25 6v4l4 2l16 6l74 17l55 -2l2 -4l15 -2l36 -19l13 -2l6 -2v-4l8 -2l25 -19l49 -16l28 4l19 -2l67 21l39 24l9 -4l-3 -12l-65 -70l-66 -41l-41 -16l-34 -6l-64 20l-2 2l-8 6l-82 43l-66 4l-49 -8l-116 -35l-31 -16 l-17 -6l-8 4zM94 330v37l2 8v22l2 13l6 69l-10 31l4 6l4 51l-4 15l4 10l-4 31l2 157l4 2l7 27l16 12l104 23l13 -15l4 -22l-2 -37l-2 -20l2 -5l-6 -8l-11 -37l-6 -18l-4 -14l-4 -9l-10 -94l-6 -24l-2 -45l-4 -9l-3 -8v-4l-2 -41l11 -158l-6 -24l4 -6v-25l2 -4l4 -43v-12 l2 -6l10 -6h12l27 14l8 14l4 6l4 21l21 24l31 47v9l2 2l34 43l13 39l32 57l21 27l31 65v2l6 12l6 25l2 6l10 10l10 13l5 14l14 45l18 41l29 90l27 43l53 25h8l8 4l43 6l4 -29l-6 -10l-2 -6l2 -8l13 -78l-3 -6l-2 -19l-8 -22l6 -84l-6 -27v-16l-2 -6l-2 -33l12 -41l17 -162 l14 -98l4 -16l6 -27v-39l9 -21l8 -14l6 -12l6 -14l16 -41l31 -60l10 -10h-6l4 -2l-10 -6l-12 -2l-15 14l-18 8l-18 25l-23 14l-24 10l-13 19l-47 31l-2 10l-4 2l6 4l-8 37l-14 18l-2 33v14l2 13l-2 14l-19 65l-12 60l4 12l-4 23l-4 37l6 221l-4 39l-6 20l-21 -26l-49 -113 l-12 -21l-15 -24l-6 -15l6 -6l-79 -141l-9 -27l-22 -36l-2 -3v-6l-2 -10l-31 -49h-2l-4 -10l-10 -13l-13 -30l-2 -2l-14 -27l-10 -8l-6 -29l-27 -53l-19 -21l-20 -2l-6 -10l-25 -14l-30 2l-7 -2l-4 -2h-6l-10 2l-8 8v10l-6 25l-9 102h7l-5 10l2 19v55l-10 29l6 29z" />
<glyph unicode="&#xf2;" horiz-adv-x="776" d="M41 416v45l2 16l4 6l8 25l25 47l41 59l51 52l6 12h6v4l19 16l49 37l14 8l10 9l119 59l31 6l10 6l19 6l16 5l23 -5l26 11l25 -2l35 -11l12 -28l20 -15l11 -10l10 -8l6 -8l6 -6l4 -11l15 -14l6 -4l6 -10l18 -23l11 4l-5 11l2 4l5 4l8 2h6l8 -6l10 -17l13 -33l8 -30v-21 l4 -12l2 -29l-4 -2l2 -20l-4 -49l-4 -4l-15 -37v-15l-6 -12l-4 -6h-2l8 -25l-49 -86l-4 -4l-4 -10l-8 -14l-25 -25l-24 -39l-5 -10l-22 -23l-14 -22l-19 -14l-12 -17l-4 -2l-2 -4l-21 -18l-14 -17l-4 -6l-12 -10l-97 -56l-30 -6l-41 -16h-86l-41 10l-35 15l-33 30l-8 10 l-27 27l-6 25l-8 12l-2 4v10l-10 31v33l-4 10l4 37v18l2 9l8 34l2 23l-2 12l-4 8l-10 6l-7 27zM109 512l2 -70l8 -4l6 6l-2 2h6l25 54l12 16v2l6 14l10 29l8 4l11 19l4 16l16 12l4 4l13 15l6 10l22 23l2 4l8 8v4l5 6l6 8l2 6l-13 7l-69 -56l-14 -16l-3 -8l-14 -11l-16 -22 l-6 -10l-9 -9l-24 -32zM150 238l4 -9l10 -18l16 -33l6 -8l2 -8l25 -29l6 -2l17 -2l14 -6l20 -21l33 -2l35 -8l47 6l10 2l19 -4l24 17l8 2l13 4l10 6l8 4l10 6l27 19l10 8h4l15 16l4 6l14 13l25 28l6 4l8 13l6 10l4 6l29 41l33 76v4l18 55l8 41l2 19l5 8l-3 16l-6 19l-2 24 l-2 10l-2 13l-4 2l4 4l-4 14l-10 12l-8 31h-2l-11 12l-10 21l-39 45l-12 4l-2 4l-25 10l-4 5h-4l-18 14l-11 2l-6 -6l-2 -8h-4l-20 14l-23 2l-6 -2l-6 2l-8 2l-4 4l-21 -4l-35 -14l-16 -13l-4 -2v-2l-15 -16l-4 -2l-10 -17l-22 -24l-19 -12l-39 -45l-8 -9v-4l-27 -41l-2 -6 l-4 -2l-20 -20l-12 -35l-13 -21l-10 -12l-4 -2l-4 -16l-8 -29v-4l-4 -17l6 -8v-8l12 -4l4 -4l35 -25l10 -6h2l12 4l17 -6l20 -55l-53 -8l-14 -9l-35 -4l-16 -6v-26zM229 1171l2 5l11 2l26 6l4 2l2 2l-2 4l37 37l6 2l4 4l19 -2l4 -2l10 -6l2 -2l6 -15l11 -10l6 -10l6 -4 l10 -13l17 -34l67 -99h2l15 -18l14 -27v-4l10 -6l6 -10l25 -35l4 -8l6 -19l-6 -4h-4l-4 2l-10 9l-7 -5l-20 9l-4 2l-8 6l-11 12l-12 8l-2 2h-2l-4 9l-8 4l-29 16l-6 6l-4 2l-4 4h-2l-19 13l-10 6l-33 24l-26 8l-27 29v4l-16 15l-9 6l-12 10l-12 12z" />
<glyph unicode="&#xf3;" horiz-adv-x="776" d="M41 416v45l2 16l4 6l8 25l25 47l41 59l51 52l6 12h6v4l19 16l49 37l14 8l10 9l119 59l31 6l10 6l19 6l16 5l23 -5l26 11l25 -2l35 -11l12 -28l20 -15l11 -10l10 -8l6 -8l6 -6l4 -11l15 -14l6 -4l6 -10l18 -23l11 4l-5 11l2 4l5 4l8 2h6l8 -6l10 -17l13 -33l8 -30v-21 l4 -12l2 -29l-4 -2l2 -20l-4 -49l-4 -4l-15 -37v-15l-6 -12l-4 -6h-2l8 -25l-49 -86l-4 -4l-4 -10l-8 -14l-25 -25l-24 -39l-5 -10l-22 -23l-14 -22l-19 -14l-12 -17l-4 -2l-2 -4l-21 -18l-14 -17l-4 -6l-12 -10l-97 -56l-30 -6l-41 -16h-86l-41 10l-35 15l-33 30l-8 10 l-27 27l-6 25l-8 12l-2 4v10l-10 31v33l-4 10l4 37v18l2 9l8 34l2 23l-2 12l-4 8l-10 6l-7 27zM109 512l2 -70l8 -4l6 6l-2 2h6l25 54l12 16v2l6 14l10 29l8 4l11 19l4 16l16 12l4 4l13 15l6 10l22 23l2 4l8 8v4l5 6l6 8l2 6l-13 7l-69 -56l-14 -16l-3 -8l-14 -11l-16 -22 l-6 -10l-9 -9l-24 -32zM150 238l4 -9l10 -18l16 -33l6 -8l2 -8l25 -29l6 -2l17 -2l14 -6l20 -21l33 -2l35 -8l47 6l10 2l19 -4l24 17l8 2l13 4l10 6l8 4l10 6l27 19l10 8h4l15 16l4 6l14 13l25 28l6 4l8 13l6 10l4 6l29 41l33 76v4l18 55l8 41l2 19l5 8l-3 16l-6 19l-2 24 l-2 10l-2 13l-4 2l4 4l-4 14l-10 12l-8 31h-2l-11 12l-10 21l-39 45l-12 4l-2 4l-25 10l-4 5h-4l-18 14l-11 2l-6 -6l-2 -8h-4l-20 14l-23 2l-6 -2l-6 2l-8 2l-4 4l-21 -4l-35 -14l-16 -13l-4 -2v-2l-15 -16l-4 -2l-10 -17l-22 -24l-19 -12l-39 -45l-8 -9v-4l-27 -41l-2 -6 l-4 -2l-20 -20l-12 -35l-13 -21l-10 -12l-4 -2l-4 -16l-8 -29v-4l-4 -17l6 -8v-8l12 -4l4 -4l35 -25l10 -6h2l12 4l17 -6l20 -55l-53 -8l-14 -9l-35 -4l-16 -6v-26zM410 911l6 19l4 4l2 4l24 35l7 10l8 6l2 4l14 27l15 18h2l4 4l8 13l2 4l4 6l45 72l18 34l11 13l24 24l6 15 l2 2l11 6l4 2l18 2l4 -4l7 -2l34 -37v-4l2 -2l4 -2l27 -6l6 -2l4 -5l-16 -51l-12 -12l-13 -10l-8 -6l-16 -15l-2 -4l-25 -29l-26 -8l-35 -24l-13 -6l-6 -5l-10 -8h-2l-12 -12l-39 -20l-4 -9l-2 -2l-15 -8l-10 -12l-8 -6l-2 -2l-21 -9l-6 5l-10 -9l-4 -2h-4z" />
<glyph unicode="&#xf4;" horiz-adv-x="776" d="M41 416v45l2 16l4 6l8 25l25 47l41 59l51 52l6 12h6v4l19 16l49 37l14 8l10 9l119 59l31 6l10 6l19 6l16 5l23 -5l26 11l25 -2l35 -11l12 -28l20 -15l11 -10l10 -8l6 -8l6 -6l4 -11l15 -14l6 -4l6 -10l18 -23l11 4l-5 11l2 4l5 4l8 2h6l8 -6l10 -17l13 -33l8 -30v-21 l4 -12l2 -29l-4 -2l2 -20l-4 -49l-4 -4l-15 -37v-15l-6 -12l-4 -6h-2l8 -25l-49 -86l-4 -4l-4 -10l-8 -14l-25 -25l-24 -39l-5 -10l-22 -23l-14 -22l-19 -14l-12 -17l-4 -2l-2 -4l-21 -18l-14 -17l-4 -6l-12 -10l-97 -56l-30 -6l-41 -16h-86l-41 10l-35 15l-33 30l-8 10 l-27 27l-6 25l-8 12l-2 4v10l-10 31v33l-4 10l4 37v18l2 9l8 34l2 23l-2 12l-4 8l-10 6l-7 27zM109 512l2 -70l8 -4l6 6l-2 2h6l25 54l12 16v2l6 14l10 29l8 4l11 19l4 16l16 12l4 4l13 15l6 10l22 23l2 4l8 8v4l5 6l6 8l2 6l-13 7l-69 -56l-14 -16l-3 -8l-14 -11l-16 -22 l-6 -10l-9 -9l-24 -32zM133 895l23 16l8 15l8 2l4 6l33 22l31 29l143 170l20 8v19l-6 8l15 12l16 6l8 6l10 3l7 12l20 4l8 2h2l6 -8l17 -33l4 -6l80 -115l43 -47l39 -31l4 -2l61 -47l35 -16l6 -6l4 -9l-2 -6l-8 -6h-14l-49 -10l-25 6l-37 16l-12 15h-17l-14 14l-29 8l-18 19 l-14 8l-15 16l-10 9l-4 2l-2 4l-27 24l-4 8l-8 5l-6 8l-4 6l-6 18l-31 29h-6l-2 -2l-2 -8l-2 -2l-11 -13l-12 -16l-8 -8l-6 -10l-6 -5l-9 -8l-4 -10l-12 -8l-8 -6l-29 -35l-6 -6l-4 -2l-18 -25l-5 -4l-4 -8l-22 -10l-6 -9l-15 -4h-6l-12 -6l-27 -4l-14 -8zM150 238l4 -9 l10 -18l16 -33l6 -8l2 -8l25 -29l6 -2l17 -2l14 -6l20 -21l33 -2l35 -8l47 6l10 2l19 -4l24 17l8 2l13 4l10 6l8 4l10 6l27 19l10 8h4l15 16l4 6l14 13l25 28l6 4l8 13l6 10l4 6l29 41l33 76v4l18 55l8 41l2 19l5 8l-3 16l-6 19l-2 24l-2 10l-2 13l-4 2l4 4l-4 14l-10 12 l-8 31h-2l-11 12l-10 21l-39 45l-12 4l-2 4l-25 10l-4 5h-4l-18 14l-11 2l-6 -6l-2 -8h-4l-20 14l-23 2l-6 -2l-6 2l-8 2l-4 4l-21 -4l-35 -14l-16 -13l-4 -2v-2l-15 -16l-4 -2l-10 -17l-22 -24l-19 -12l-39 -45l-8 -9v-4l-27 -41l-2 -6l-4 -2l-20 -20l-12 -35l-13 -21 l-10 -12l-4 -2l-4 -16l-8 -29v-4l-4 -17l6 -8v-8l12 -4l4 -4l35 -25l10 -6h2l12 4l17 -6l20 -55l-53 -8l-14 -9l-35 -4l-16 -6v-26z" />
<glyph unicode="&#xf5;" horiz-adv-x="776" d="M41 416v45l2 16l4 6l8 25l25 47l41 59l51 52l6 12h6v4l19 16l49 37l14 8l10 9l119 59l31 6l10 6l19 6l16 5l23 -5l26 11l25 -2l35 -11l12 -28l20 -15l11 -10l10 -8l6 -8l6 -6l4 -11l15 -14l6 -4l6 -10l18 -23l11 4l-5 11l2 4l5 4l8 2h6l8 -6l10 -17l13 -33l8 -30v-21 l4 -12l2 -29l-4 -2l2 -20l-4 -49l-4 -4l-15 -37v-15l-6 -12l-4 -6h-2l8 -25l-49 -86l-4 -4l-4 -10l-8 -14l-25 -25l-24 -39l-5 -10l-22 -23l-14 -22l-19 -14l-12 -17l-4 -2l-2 -4l-21 -18l-14 -17l-4 -6l-12 -10l-97 -56l-30 -6l-41 -16h-86l-41 10l-35 15l-33 30l-8 10 l-27 27l-6 25l-8 12l-2 4v10l-10 31v33l-4 10l4 37v18l2 9l8 34l2 23l-2 12l-4 8l-10 6l-7 27zM109 512l2 -70l8 -4l6 6l-2 2h6l25 54l12 16v2l6 14l10 29l8 4l11 19l4 16l16 12l4 4l13 15l6 10l22 23l2 4l8 8v4l5 6l6 8l2 6l-13 7l-69 -56l-14 -16l-3 -8l-14 -11l-16 -22 l-6 -10l-9 -9l-24 -32zM133 989l35 31l35 27l4 6l10 10l29 8l6 10l12 6l35 21l25 6v4l4 2l16 6l74 17l55 -2l2 -4l14 -2l37 -19l13 -2l6 -2v-4l8 -2l25 -19l49 -16l28 4l19 -2l67 21l39 24l8 -4l-2 -12l-65 -70l-66 -41l-41 -16l-34 -6l-64 20l-2 2l-8 6l-82 43l-66 4 l-49 -8l-116 -35l-31 -16l-17 -6l-8 4zM150 238l4 -9l10 -18l16 -33l6 -8l2 -8l25 -29l6 -2l17 -2l14 -6l20 -21l33 -2l35 -8l47 6l10 2l19 -4l24 17l8 2l13 4l10 6l8 4l10 6l27 19l10 8h4l15 16l4 6l14 13l25 28l6 4l8 13l6 10l4 6l29 41l33 76v4l18 55l8 41l2 19l5 8 l-3 16l-6 19l-2 24l-2 10l-2 13l-4 2l4 4l-4 14l-10 12l-8 31h-2l-11 12l-10 21l-39 45l-12 4l-2 4l-25 10l-4 5h-4l-18 14l-11 2l-6 -6l-2 -8h-4l-20 14l-23 2l-6 -2l-6 2l-8 2l-4 4l-21 -4l-35 -14l-16 -13l-4 -2v-2l-15 -16l-4 -2l-10 -17l-22 -24l-19 -12l-39 -45l-8 -9 v-4l-27 -41l-2 -6l-4 -2l-20 -20l-12 -35l-13 -21l-10 -12l-4 -2l-4 -16l-8 -29v-4l-4 -17l6 -8v-8l12 -4l4 -4l35 -25l10 -6h2l12 4l17 -6l20 -55l-53 -8l-14 -9l-35 -4l-16 -6v-26z" />
<glyph unicode="&#xf6;" horiz-adv-x="776" d="M41 416v45l2 16l4 6l8 25l25 47l41 59l51 52l6 12h6v4l19 16l49 37l14 8l10 9l119 59l31 6l10 6l19 6l16 5l23 -5l26 11l25 -2l35 -11l12 -28l20 -15l11 -10l10 -8l6 -8l6 -6l4 -11l15 -14l6 -4l6 -10l18 -23l11 4l-5 11l2 4l5 4l8 2h6l8 -6l10 -17l13 -33l8 -30v-21 l4 -12l2 -29l-4 -2l2 -20l-4 -49l-4 -4l-15 -37v-15l-6 -12l-4 -6h-2l8 -25l-49 -86l-4 -4l-4 -10l-8 -14l-25 -25l-24 -39l-5 -10l-22 -23l-14 -22l-19 -14l-12 -17l-4 -2l-2 -4l-21 -18l-14 -17l-4 -6l-12 -10l-97 -56l-30 -6l-41 -16h-86l-41 10l-35 15l-33 30l-8 10 l-27 27l-6 25l-8 12l-2 4v10l-10 31v33l-4 10l4 37v18l2 9l8 34l2 23l-2 12l-4 8l-10 6l-7 27zM109 512l2 -70l8 -4l6 6l-2 2h6l25 54l12 16v2l6 14l10 29l8 4l11 19l4 16l16 12l4 4l13 15l6 10l22 23l2 4l8 8v4l5 6l6 8l2 6l-13 7l-69 -56l-14 -16l-3 -8l-14 -11l-16 -22 l-6 -10l-9 -9l-24 -32zM150 238l4 -9l10 -18l16 -33l6 -8l2 -8l25 -29l6 -2l17 -2l14 -6l20 -21l33 -2l35 -8l47 6l10 2l19 -4l24 17l8 2l13 4l10 6l8 4l10 6l27 19l10 8h4l15 16l4 6l14 13l25 28l6 4l8 13l6 10l4 6l29 41l33 76v4l18 55l8 41l2 19l5 8l-3 16l-6 19l-2 24 l-2 10l-2 13l-4 2l4 4l-4 14l-10 12l-8 31h-2l-11 12l-10 21l-39 45l-12 4l-2 4l-25 10l-4 5h-4l-18 14l-11 2l-6 -6l-2 -8h-4l-20 14l-23 2l-6 -2l-6 2l-8 2l-4 4l-21 -4l-35 -14l-16 -13l-4 -2v-2l-15 -16l-4 -2l-10 -17l-22 -24l-19 -12l-39 -45l-8 -9v-4l-27 -41l-2 -6 l-4 -2l-20 -20l-12 -35l-13 -21l-10 -12l-4 -2l-4 -16l-8 -29v-4l-4 -17l6 -8v-8l12 -4l4 -4l35 -25l10 -6h2l12 4l17 -6l20 -55l-53 -8l-14 -9l-35 -4l-16 -6v-26zM217 1030l4 12l-4 43l10 21l31 6l47 2l25 -6l18 -2l8 -6l9 -29l2 -47l-11 -43l-37 -14l-77 -2l-23 8z M489 997l5 74l8 31l22 4l8 8l48 -4h20l6 -4l10 -2l23 -29l2 -53l-14 -35l-19 -18l-39 -6l-14 4h-10l-2 -4l-47 4z" />
<glyph unicode="&#xf7;" horiz-adv-x="1124" d="M88 414v139h948v-139h-948zM446 207q0 49 34 83t83 34q51 0 83 -33t32 -84q0 -49 -33 -83t-82 -34q-51 0 -84 35t-33 82zM446 758q0 49 33 81.5t84 34.5q45 2 80 -34.5t35 -81.5q0 -49 -33 -83t-82 -34t-83 34t-34 83z" />
</font>
</defs>
</svg>
