<?xml version="1.0" standalone="no"?>
<!DOCTYPE svg PUBLIC "-//W3C//DTD SVG 1.1//EN" "http://www.w3.org/Graphics/SVG/1.1/DTD/svg11.dtd" >
<svg xmlns="http://www.w3.org/2000/svg" xmlns:xlink="http://www.w3.org/1999/xlink" version="1.1">
<metadata></metadata>
<defs>
<font id="beautiful_esregular" horiz-adv-x="489" >
<font-face units-per-em="2048" ascent="1638" descent="-410" />
<missing-glyph horiz-adv-x="313" />
<glyph horiz-adv-x="0" />
<glyph unicode="&#xd;" horiz-adv-x="313" />
<glyph unicode=" "  horiz-adv-x="313" />
<glyph unicode="&#x09;" horiz-adv-x="313" />
<glyph unicode="&#xa0;" horiz-adv-x="313" />
<glyph unicode="!" d="M53 12q0 -20 8 -30q53 0 97 55q18 23 12 39q-8 14 -31 14h-2q-92 0 -84 -78zM158 143q2 -4 4 -6q10 -4 26 15q461 483 461 532q0 10 -22 10h-2q-80 0 -123 -65q-141 -213 -328 -459q-16 -23 -16 -27z" />
<glyph unicode="&#x22;" horiz-adv-x="389" d="M213 504q8 -8 94 67q25 23 88 78q29 25 23 35q-6 12 -33 12h-2q-57 0 -80 -39q-47 -80 -82 -131q-14 -20 -8 -22zM375 504q14 -4 108 80q20 18 74 65q29 25 23 35q-6 12 -33 12h-2q-51 0 -96 -63q-33 -53 -66 -107q-14 -16 -8 -22z" />
<glyph unicode="#" horiz-adv-x="729" d="M16 -47q12 -8 35 18l191 232q68 0 202 4q-70 -88 -153 -209q-8 -10 -10 -16.5t-2 -10.5q0 -2 2 -4q12 -6 33.5 18.5t84.5 104.5l95 117h147q33 0 33 10q-2 6 -12 6h-21q-45 2 -70 2h-63l113 137h118q33 0 33 9q0 8 -33 8h-104q55 63 121 145q37 45 37 56q-2 10 -25 10 q-35 0 -76 -53l-119 -158q-102 4 -188 4l107 127q37 45 36 55q-2 10 -22 10h-2q-31 0 -96 -81q-41 -55 -82 -111h-27q-23 2 -37 2h-63q-47 0 -43 -16q2 -10 49 -11h102q-25 -31 -49 -63l-49 -66h-109q-43 0 -43 -14q2 -12 49 -12h84l-163 -219q-14 -27 -11 -31zM262 227 l107 131h96q45 0 96 2l-49 -65q-35 -47 -51 -70q-53 2 -103 2h-96z" />
<glyph unicode="$" horiz-adv-x="501" d="M49 133q0 -68 88 -90q-4 -4 -10 -14l-18 -33q-12 -20 -27 -43q0 -6 4 -10q12 -2 68 82q4 8 10 16q8 -2 20 -2q84 0 150.5 54t66.5 136q0 35 -28 123l135 205q20 -8 24 -22q0 -8 -13 -27t-15 -23q-6 -14 -2 -30t26 -21q43 -8 58 45q4 14 4 27q0 51 -72 67l23 33 q12 16 20 39q4 10 -2 12q-12 4 -47 -45l-27 -37q-143 -4 -190 -129q-12 -31 -8 -73q4 -47 16 -78l-151 -232q-39 12 -35 43q2 12 17.5 26.5t19.5 35.5q2 6 2 12q0 27 -33 37q-74 12 -74 -84zM176 59l139 207q14 -35 17 -67q4 -59 -39 -100.5t-103 -41.5q-8 0 -14 2zM352 434 q0 20 6 43q39 82 119 82l-117 -176q-8 25 -8 51zM539 604z" />
<glyph unicode="%" horiz-adv-x="802" d="M94 289q-10 -80 72 -80t168 90q68 72 86 137q6 25 -2 49q45 -16 88 -12q66 6 121 41v-2q-244 -262 -502 -567q-20 -25 -14 -31q12 -8 32 16q295 338 580 619q43 43 49 55q6 10 -14 10q-33 0 -88 -55q-84 -61 -164 -70q-61 -6 -103 17q-16 12 -34 12q-8 0 -11 -4l13 -12 q2 -4 4 -15q2 -35 -35 -98q-98 -170 -164 -160q-31 4 -20 41q6 47 69 129q72 94 115 109q10 2 10 6q-2 4 -8 4q-10 -2 -14 -2q-78 -14 -151 -82.5t-83 -144.5zM420 68q-12 -80 69 -80h3q86 0 171 89t85 167q0 51 -54 51q-8 0 -10 -4q2 0 12 -10q4 -6 6 -15q6 -53 -84 -174 q-70 -94 -116 -86q-27 4 -21 41q8 55 69.5 131t94.5 94q2 2 17.5 9.5t15.5 9.5q-2 4 -10 4t-15 -2q-76 -12 -148.5 -81t-84.5 -144z" />
<glyph unicode="&#x26;" horiz-adv-x="925" d="M70 53q0 -63 75 -63q131 0 318 155q53 -106 53 -208q0 -135 -104 -218q-66 -51 -148 -51q-78 0 -110 41q-6 12 -17 27q-4 -4 -2 -15q16 -78 129 -77q117 0 214 72.5t122 185.5q10 49 6 88q-12 94 -88 205q68 68 248 235q160 145 225 137q37 -4 29 -43q-4 -18 -2 -39 q0 -20 22 -24q27 -6 49.5 16.5t28.5 50.5q18 84 -80 84h-2q-111 0 -284 -159l-246 -240q-29 41 -76 129q180 127 143 223q-14 35 -51 35q-57 0 -99 -45t-54 -104q-6 -27 -2 -62q4 -39 10 -61q-61 -31 -131 -72q-176 -104 -176 -203zM168 98q14 76 149 168l66 45 q23 -70 68 -145q-150 -121 -234 -121h-2q-57 0 -47 53zM420 453q8 39 34.5 76.5t61.5 37.5h2q39 0 39 -41q0 -76 -131 -168q-14 49 -6 95z" />
<glyph unicode="'" horiz-adv-x="223" d="M213 504q4 -4 92 67l90 78q27 23 21 35t-29 12h-2q-57 0 -82 -39l-41 -63q-14 -23 -49 -80q-4 -8 0 -10z" />
<glyph unicode="(" d="M127 -63q4 -70 10 -115q4 -10 8 -10h2q4 0 5 6v12q0 223 108 453q104 219 272 379q158 150 326 223q74 33 129 49q18 12 19 10q0 4 -7 4l-12 -2q-412 -68 -690 -461q-133 -188 -162 -389q-12 -88 -8 -159z" />
<glyph unicode=")" d="M-219 -172v-2q0 -6 18 -6q139 23 289 117q211 133 346 346q141 225 141 462q0 94 -24 195l-10 14q-6 -2 -2 -16q2 -57 2 -102q-4 -186 -97 -385q-84 -180 -223 -328q-145 -154 -297 -236q-106 -57 -137 -57q-6 0 -6 -2z" />
<glyph unicode="*" horiz-adv-x="473" d="M262 735q0 -6 27 -18l47 -8q16 -4 51 -13q-31 -37 -92 -108q-16 -31 -14 -33t4 -2q10 0 28 18q10 8 111 103l37 -56l28 -43q10 -16 19 -14q6 2 4 12q0 4 -6 19q-16 51 -39 98q35 -2 63 -2h54q35 0 34 6v2q0 8 -30 15q-59 12 -109 18q113 125 99 139q-14 10 -142 -116 q-20 37 -61 94q-14 27 -25 20q-6 -4 -4 -14q0 -10 4 -21q6 -29 39 -92q-43 6 -94 6q-31 0 -33 -10z" />
<glyph unicode="+" horiz-adv-x="729" d="M90 258q-10 -20 47 -20h45q41 2 64 2h106q-57 -78 -172 -232q-14 -27 -10 -31q10 -8 125 125l119 140q100 -4 282 8q10 2 11 8q0 12 -89.5 14t-175.5 2l99 117q84 98 80 111q-4 10 -31 10h-2q-31 0 -96 -80q-39 -55 -78 -108q-10 -14 -35 -48l-246 9q-37 2 -43 -27z" />
<glyph unicode="," horiz-adv-x="258" d="M-61 -123l26 10q109 66 178 150q16 20 17 33v2q0 18 -31 18q-80 -2 -94 -43q4 -10 -4 -45q-23 -47 -76 -100q-20 -20 -16 -25z" />
<glyph unicode="-" horiz-adv-x="501" d="M78 176q0 -33 74 -33q27 0 77 9.5t76 9.5q61 0 82 -33q4 -6 8 -6q4 2 4 10q4 106 -90 107h-2q-33 0 -93 -34t-93 -34q-16 0 -33 8q-4 0 -4 2q-4 4 -6 -6z" />
<glyph unicode="." horiz-adv-x="258" d="M37 12q0 -20 8 -30q53 0 96 55q18 23 13 39q-6 14 -29 14h-2q-61 0 -80 -39q-6 -18 -6 -39z" />
<glyph unicode="/" d="M-98 -174q10 -10 30 12q150 162 433 467l372 402q47 51 47 59q0 12 -22 12h-2q-49 0 -103 -61q-90 -109 -329 -387l-211 -242q-72 -82 -213 -250q-6 -8 -2 -12z" />
<glyph unicode="0" horiz-adv-x="544" d="M16 115q-12 -133 115 -133h2q135 0 285 161q162 176 162 303q0 63 -56 86q-10 4 -26 7q-18 0 -21 -4q6 10 21.5 -28t9.5 -61q-39 -133 -150 -274q-137 -174 -219 -168q-41 4 -41 47q0 147 240 391q84 86 115 90q10 0 12 3q2 6 -16 6q-16 0 -27 -2q-135 -29 -262 -156 q-131 -133 -144 -268z" />
<glyph unicode="1" horiz-adv-x="382" d="M-25 -8q0 -8 11 -8q102 0 170 96q158 227 321 420q16 18 25 35q0 10 -10 10q-18 0 -130 -64q-66 -39 -133 -78q-43 -23 -86 -41q-8 -4 -12 -4q-2 -2 0 -6q2 -2 8 -2q80 0 226 107v-2q-86 -59 -347 -396q-43 -55 -43 -67z" />
<glyph unicode="2" horiz-adv-x="509" d="M-96 0q0 -6 4 -12q10 4 51 28q29 18 59 19q37 0 74 -15q55 -23 66 -24q33 -8 59 -8q90 0 207 141q4 6 4 10t-4 6q-2 2 -14 -10q-74 -78 -146 -78q-20 0 -64 14.5t-65 16.5q-25 2 -39 0q-12 -2 -30 -8v2q152 57 241 111q197 117 228 221q18 61 -11.5 96t-93.5 35 q-88 0 -190 -68q-113 -74 -113 -158q0 -43 49 -47q10 -2 25 0q37 6 37 19q-2 6 -13 2q-33 -6 -48 10t-7 49q14 63 79.5 108.5t133.5 45.5q55 0 55 -53q0 -43 -45 -99q-131 -160 -377 -280q-43 -20 -77 -43q-16 -10 -35 -31z" />
<glyph unicode="3" horiz-adv-x="516" d="M-41 82q-14 -98 127 -100q98 -2 201 53q160 86 143 198q-10 70 -100 70v2q162 51 205 119q16 27 16 57q0 63 -84 64q-135 0 -215 -86q-43 -47 -35 -82q2 -14 6 -25q14 -14 21 -10q4 4 2 8q-4 2 -6 8q0 63 50 107.5t113 42.5q49 -2 50 -39q2 -98 -189 -176 q-45 -18 -35 -33q0 -12 54 19q14 8 28 6q29 -4 27 -37q-2 -70 -76 -156q-78 -92 -164 -92q-78 0 -63 37q4 18 35.5 39.5t38.5 42.5q2 8 2 14q0 33 -50 33q-90 0 -102 -84z" />
<glyph unicode="4" horiz-adv-x="559" d="M-57 68q0 -8 8 -7q66 6 102 13q92 6 160 6q-43 -57 -154 -207q-41 -55 -36 -70q2 -6 12 -6q86 0 131 66q78 115 162 217h39q12 0 37.5 -4t37.5 -4q6 0 9 4q8 25 -68 28q-14 0 -41 2q170 242 313 418q10 12 13 19q-2 4 -15 4h-2q-33 0 -88 -35q-168 -106 -485 -330 q-37 -27 -127 -98q-10 -10 -8 -16zM12 96v2q51 41 232 174q113 84 219 148l61 37l4 -4q-35 -31 -141 -156q-45 -51 -154 -191h-49q-29 0 -59 -2l-62 -4q-31 -2 -51 -4z" />
<glyph unicode="5" horiz-adv-x="528" d="M-39 59q0 -78 131 -77q113 0 211 53q115 61 137 162q8 39 2 61q-20 70 -116 70q-59 0 -101 -21h-2l37 37q72 72 115 129q43 -27 96 -31q68 -4 117 19q14 4 40.5 24.5t26.5 30.5q0 4 -4 6q-27 -10 -63 -22q-61 0 -109 26q-25 14 -33 29q-4 4 -8 4h-2q-12 0 -22 -14 q-127 -166 -236 -252q-27 -20 -26 -31q0 -6 6 -10q8 -4 30 12q8 8 43 29q31 12 66 12q51 0 51 -51q0 -16 -4 -37q-35 -150 -172 -201q-43 -16 -80 -16q-59 0 -51 35q4 16 29.5 41.5t25.5 40.5q4 45 -45 45q-90 0 -90 -103z" />
<glyph unicode="6" horiz-adv-x="534" d="M39 88q0 -49 32.5 -78.5t84.5 -29.5q98 0 191 65.5t124 157.5q14 41 10 73q-8 86 -98 86q-51 0 -107 -45q-18 -18 -14 -20q2 -4 8 -2q4 2 9 6q63 41 104 35q25 -6 25 -35q0 -57 -62 -143q-113 -158 -192 -160q-51 -2 -52 59q0 113 177 301q256 272 419 273q76 0 109 -53 l14 -15q2 4 4 10q4 37 -47 62q-41 20 -82 20q-113 0 -247 -67q-266 -133 -369 -342q-41 -84 -41 -156v-2z" />
<glyph unicode="7" horiz-adv-x="440" d="M-117 -72q2 -8 68 6q59 12 96 25q172 209 389 422q61 59 129 119q25 4 23 14q0 6 -13 4q-14 -2 -20 -6q-90 -27 -193 -23q-90 4 -90 43q0 6 8.5 19.5t6.5 15.5v2h-4q-20 0 -47 -12q-45 -20 -52 -57q-10 -61 80 -64q125 -4 260 53v-2q-160 -104 -442 -360 q-92 -82 -162 -152q-39 -39 -37 -47z" />
<glyph unicode="8" horiz-adv-x="501" d="M12 119q-16 -59 16.5 -96t96.5 -41q102 -8 195.5 63.5t101.5 173.5q4 49 -31 139q-20 53 -29 84q-10 39 0 82q10 41 47 70t78 29h2q82 0 60 -95q-20 -86 -113 -145q-33 -20 -30 -25q8 0 55 15q150 76 168 155q12 55 -16.5 89t-84.5 36q-84 2 -163.5 -60.5t-83.5 -143.5 q-4 -55 26.5 -137.5t30.5 -121.5q0 -72 -49 -128t-119 -50q-41 4 -57 33q-16 31 0 86q39 135 161 188q16 6 13 11q-2 4 -8 4q-23 0 -39 -12q-197 -82 -228 -203z" />
<glyph unicode="9" horiz-adv-x="546" d="M-295 -131q-4 -39 43 -62q39 -20 80 -20q160 0 340 119q158 104 268 250q125 164 117 280q-8 106 -113 107q-16 0 -34 -2q-145 -20 -228 -135q-57 -80 -49 -152q6 -70 72 -82q55 -10 127 43q37 27 26 33q-4 4 -28 -17q-59 -47 -101 -34q-35 10 -26 61q8 53 63 129 q51 66 103 105q43 31 77 30q8 0 17 -2q41 -6 30 -55q-6 -78 -141 -268q-78 -109 -184 -213q-18 -18 -66 -56q-147 -117 -272 -116h-2q-70 0 -103 51q-6 16 -10 14q-4 0 -6 -8z" />
<glyph unicode=":" horiz-adv-x="333" d="M39 12q0 -20 8 -30q53 0 96 55q18 23 13 39q-6 14 -31 14h-2q-59 0 -78 -39q-6 -18 -6 -39zM137 215q0 -20 8 -31q53 0 97 56q18 23 12 39q-6 14 -31 14h-2q-84 0 -84 -78z" />
<glyph unicode=";" horiz-adv-x="333" d="M-59 -123l26 10q109 66 178 150q16 20 17 33v2q0 18 -31 18q-80 -2 -94 -43q4 -10 -4 -45q-23 -47 -76 -100q-20 -20 -16 -25zM137 215q0 -20 8 -31q53 0 97 56q18 23 12 39q-6 14 -33 14h-2q-82 0 -82 -78z" />
<glyph unicode="&#x3c;" horiz-adv-x="577" d="M80 264q0 -14 26 -24l343 -177q6 -4 14 -4q6 -2 9 2.5t3 6.5q0 6 -16 14l-287 178l229 100q63 27 224 101q8 4 8 8q0 6 -8 6q-10 -2 -19 -6l-211 -76q-72 -29 -268 -100q-47 -16 -47 -27v-2z" />
<glyph unicode="=" horiz-adv-x="677" d="M61 199q0 -6 2.5 -13.5t24.5 -7.5q266 2 508 8q31 0 31 11v2q0 10 -33 12l-485 16q-47 2 -48 -28zM137 317q4 -8 197 -10q170 -2 196 -2q98 2 162 14q10 2 10 9v2q0 8 -32 10q-190 10 -486 18q-35 0 -47 -24q-4 -10 0 -17z" />
<glyph unicode="&#x3e;" horiz-adv-x="577" d="M-8 59q0 -2 6 -2q10 0 20 2q88 33 478 179q47 18 47 26v2q0 12 -25 25l-344 176q-6 2 -10 4q-8 2 -12 -4q-4 -4 12 -21q76 -45 135 -81l152 -95l-230 -100q-63 -27 -223 -100q-8 -6 -6 -11z" />
<glyph unicode="?" d="M53 12q0 -20 8 -30q53 0 97 55q18 23 12 39q-8 14 -31 14h-2q-92 0 -84 -78zM139 168q-4 -20 6 -21q18 0 39 62q12 39 131 100q57 29 115 58q66 35 107 69q61 49 86 119q20 55 -4.5 95t-83.5 40h-3q-88 0 -196 -67q-117 -74 -117 -156q0 -43 37 -51q16 -4 23 2 q-8 8 -19 22q-4 8 -4 25q0 70 78 131t149 55q31 -2 45 -26q12 -27 -2 -62q-49 -123 -264 -252q-78 -47 -112 -112q-6 -12 -11 -31z" />
<glyph unicode="@" horiz-adv-x="1013" d="M184 188q0 -102 88 -161q74 -47 185 -52q215 -6 336 138q41 49 41 114q0 18 -9 39q39 53 41 105q4 86 -65 131q-57 39 -148 39h-2q-250 0 -395 -170q-72 -84 -72 -183zM246 168q0 90 71 180q61 78 151.5 127t180.5 49h2q76 0 127 -37q59 -41 56 -114q-2 -39 -21 -80 q-18 25 -27 24q-2 0 -2 -2q4 4 21 -39q-8 -12 -25 -38q-63 -76 -121 -76q-23 0 -30 16q-12 25 59 113q18 23 66 82q18 23 -19 22q-31 -4 -69 -49h-2q12 41 -33 47q-78 10 -173.5 -57.5t-105.5 -140.5q-8 -57 60 -58q74 8 157 92h2q-18 -27 -16 -47q4 -47 76 -47q82 0 166 90 q10 10 18 23q2 -6 2 -23q0 -49 -43 -100q-117 -137 -313 -131q-215 8 -215 174zM420 180q-4 33 74 111q86 86 122 86h2q27 0 27 -25q-10 -39 -90 -111.5t-119 -72.5q-16 0 -16 12z" />
<glyph unicode="A" horiz-adv-x="1406" d="M43 115q0 -125 180 -148q31 -4 65 -4q23 0 48 2q178 14 377 139q29 18 75 50q90 -82 256 -109q-10 -16 -16 -31q-4 -4 -4 -10q-4 -16 18 -20q6 -1 12 -1q46 0 101 54q127 8 254 131q29 29 23 35t-35 -23q-70 -66 -115 -88q-63 -31 -117 -35q201 326 383 578 q57 78 129 156q25 27 68 53q18 6 35 6q23 0 46 -13.5t21 -13.5q4 4 0 13q-8 16 -39 30q-18 6 -47 6q-119 0 -284 -100q-154 -92 -365 -303q-72 143 -213 147h-7q-96 0 -164 -56q-71 -58 -73 -159q0 -57 33 -124.5t80 -106.5q-242 -162 -426 -178q-24 -2 -46 -3q-37 0 -71 7 q-82 16 -84 63q0 23 40 54.5t44 64.5q0 64 -64 64h-11q-47 -4 -77 -40t-30 -85v-2zM731 397q8 123 98 172q31 16 70 17h2q123 0 193 -131q-39 -39 -295 -260q-39 47 -62 139q-8 35 -6 63zM813 174v2q131 106 217 189l72 67q16 -35 24 -117q3 -33 3 -61q0 -14 -1 -27 q-2 -39 -14 -63q-2 -2 -10 -17l-17 -26q-6 -10 -18 -29l-16 -26q-164 23 -240 108zM1122 449q35 35 129 124q213 197 381 258q49 18 88 23v-2q-141 -70 -295 -254q-90 -104 -233 -322q-23 -35 -47 -73h-2q7 42 7 82q0 16 -1 32q-8 90 -27 132z" />
<glyph unicode="B" horiz-adv-x="1310" d="M-4 115q0 -156 217 -156q299 0 649 471q180 242 301 363q51 -31 51 -97q0 -100 -81 -172q-61 -53 -127 -63q-43 6 -62 6q-47 2 -55 -16q-2 -12 22 -17h33q16 0 53 6q9 1 17 1q42 -1 70 -35q32 -39 32 -89v-6q-6 -115 -92 -211q-90 -102 -203 -102q-79 0 -79 41q0 4 1 8 q6 23 50 41q53 23 53 59q0 49 -64 50q-49 0 -88 -33t-39 -82q0 -78 107 -96q23 -4 57 -4h2q145 0 262 71q131 84 140 221v11q0 133 -181 166v2q104 18 175 67q88 63 88 158q0 92 -115 137q182 150 354 150q111 0 137 -56q2 -4 9 -2q8 4 0 19q-33 55 -148 55 q-188 0 -399 -154q-37 6 -80 7q-184 0 -383 -70q-190 -68 -346 -180q-338 -246 -338 -469zM78 111v2q0 121 96 256q80 113 195 200q141 109 323 174q190 72 359 72q37 0 65 -6q-14 -10 -51 -39q-201 -164 -379 -397l-115 -150q-188 -246 -360 -246q-133 0 -133 134z" />
<glyph unicode="C" horiz-adv-x="794" d="M51 137q8 -207 270 -207h25q150 6 309 117q55 39 111 88q14 12 31 35q2 6 -2 10q-6 6 -23 -12q-47 -53 -125 -105q-156 -104 -297 -104q-176 0 -176 166q0 111 90 252q74 115 176 207q111 -82 310 -82q223 0 344 106q51 45 51 111q0 125 -214 125h-26q-55 -2 -110 -17 q-88 127 -248 127h-2q-86 0 -147.5 -53t-61.5 -137q0 -63 51 -129q-233 -174 -309 -361q-27 -67 -27 -129v-8zM362 762q0 72 47.5 119t118.5 47h2q135 0 234 -111q-170 -49 -354 -170q-47 61 -48 115zM457 598q152 137 319 201q33 -43 49 -113q2 -20 9 -41q4 -4 6 12 q2 20 0 39q-8 61 -33 111q45 20 106 22h11q147 0 147 -102q0 -92 -108 -154q-90 -51 -207 -51h-2q-199 0 -297 76z" />
<glyph unicode="D" horiz-adv-x="1378" d="M-90 18q0 -36 184 -36h10h129q74 0 203 12q102 -10 281 -10q170 0 317 57q170 66 256 190q72 106 72 233v7q-2 127 -94 234q134 116 310 116h3q47 0 133 -43q8 8 -18 31q-49 31 -115 31q-139 0 -276 -78q-35 -20 -58 -35q-121 102 -325 129q-63 8 -129 8q-182 0 -353 -63 q-195 -72 -293 -199q-61 -80 -63 -172v-6q0 -182 238 -195q11 -1 23 -1q109 0 211 52q114 58 171 160q33 57 33 115q0 111 -115 117h-14q-81 0 -137 -66q-35 -41 -25 -47q4 6 37 41q51 53 123 53h10q90 -4 90 -94v-2q0 -125 -143 -223q-124 -85 -242 -85q-10 0 -20 1 q-154 10 -154 160q0 202 221 329q188 106 402 107q285 0 424 -139q-188 -125 -429 -433q-160 -205 -307 -247q-170 27 -274 30q-49 2 -90 2q-202 0 -207 -41zM512 20v3q207 66 358 204q82 76 250 310q45 61 119 147q50 -67 50 -160q0 -16 -1 -32q-10 -117 -84 -218 q-197 -270 -520 -270q-10 0 -139 12q-23 2 -33 4z" />
<glyph unicode="E" horiz-adv-x="792" d="M53 113q0 -183 263 -183h28q170 6 350 148q35 27 68 57q14 12 33 35q2 6 -2 10q-8 4 -23 -12q-49 -53 -125 -105q-156 -104 -299 -104q-74 0 -123 39q-45 36 -45 100v11q8 115 121 225q88 84 186 123q43 -55 164 -56q113 0 113 40q0 42 -111 51q-29 2 -53 0 q-33 -2 -47 -7q-2 10 -2 21q0 23 8 45q8 31 31 59q115 -55 286 -55q199 0 283 102q25 29 25 64q0 119 -211 129h-14q-53 0 -138 -12q-92 113 -226 113q-12 0 -24 -1q-66 -4 -106 -39q-47 -39 -47 -100q0 -88 88 -154q-43 -61 -43 -116v-2q0 -39 16 -66q-295 -70 -393 -250 q-31 -57 -31 -110zM438 813q0 109 127 119q8 1 16 1q110 0 199 -104h-2q-141 -39 -223 -112q-18 -16 -37 -41q-80 68 -80 137zM557 469v2q20 4 49 4h45q74 0 74 -29q-3 -25 -55 -25q-9 0 -19 1q-82 6 -94 47zM598 629q55 72 135 125q43 29 72 43q27 -37 55 -131q4 -2 6 12 q1 10 1 21q0 49 -29 110q69 25 130 25h9q156 -4 156 -108v-5q-2 -76 -99 -115q-74 -31 -162 -31h-2q-170 0 -272 54z" />
<glyph unicode="F" horiz-adv-x="1118" d="M41 106q6 -119 178 -139q31 -4 68 -4q322 0 610 311q10 10 47 56q125 0 174 14v-2q-31 -31 -45 -80q-4 -14 2 -16q33 0 64 45q45 66 51 71q55 51 55 64q0 8 -14 12h-5q-31 0 -71 -47q-14 -16 -18 -22q-43 -16 -133 -17h-41q49 66 161 209q45 59 125 133q18 16 37 29 q119 -20 227 -21q109 0 117 58v7q0 56 -127 56q-121 0 -225 -57l-209 57q-223 61 -348 62q-158 0 -277 -58q-150 -72 -168 -211q-3 -24 -3 -46q0 -153 163 -212q16 -6 25 -6q12 0 14 4l-26 13q-131 53 -140 174q-1 9 0 18q0 137 146 209q102 51 256 51h2q106 0 272 -33 q84 -16 170 -36l78 -19q-186 -109 -402 -381h-59q-74 0 -121 -20q0 -10 13 -6q18 6 86 6h63l-55 -74q-27 -35 -66 -78q-181 -198 -407 -198h-2q-139 0 -140 65q0 16 27 48t31 50q4 25 -15.5 44.5t-46.5 19.5q-43 1 -71 -29q-27 -28 -27 -68v-6zM1323 754q80 51 178 51h2 q107 0 107 -40q0 -44 -88 -44q-84 0 -199 33z" />
<glyph unicode="G" horiz-adv-x="917" d="M-266 -659q-1 -7 -1 -13q0 -73 87 -73q104 0 264 124q121 92 219 207q139 162 193 240l61 90q143 76 242 152q39 29 129 108l14 14q8 8 4 13q-8 6 -28 -15q-162 -133 -293 -213q-29 -18 -45 -26v2q35 43 120 160l52 71q10 14 51 64q16 20 10 26q-8 6 -37 7q-37 0 -98 -64 q-199 -207 -331 -207h-5q-49 2 -74 38q-21 31 -21 72q0 6 1 13q10 117 108 260q82 -29 185 -29q283 0 485 150q156 115 156 238v2q0 118 -159 118h-3q-123 0 -303 -79q-96 100 -254 100q-127 0 -217 -64q-102 -72 -103 -192q0 -119 113 -195q-130 -164 -130 -294 q0 -10 1 -19q11 -148 180 -148q16 0 33 1q135 10 274 149l-20 -29l-150 -206l-104 -64q-47 -27 -174 -96q-287 -162 -393 -303q-35 -47 -39 -90zM-213 -664q0 150 383 377q86 47 252 150v-2q-45 -68 -92 -131l-107 -142q-231 -305 -378 -305h-11q-47 10 -47 53zM164 635 q0 109 90 174q82 57 195 57h2q129 0 231 -92q-106 -49 -231 -145q-68 -51 -183 -174q-104 72 -104 180zM369 406q125 186 344 335q20 -23 75 -153q4 2 5 20q0 72 -52 150q158 90 279 90q137 0 137 -92v-2q0 -61 -78 -144q-145 -154 -362 -207q-88 -22 -171 -22h-7 q-90 0 -170 25z" />
<glyph unicode="H" horiz-adv-x="1329" d="M-43 123q0 -80 66 -123q55 -37 139 -37q272 0 524 281q76 84 148 174l286 2q-192 -237 -192 -341q0 -91 98 -91q113 0 305 178q23 20 17 27q-8 8 -29 -13q-167 -157 -257 -157h-1q-39 0 -39 34q0 84 223 363q35 2 84 2h131q16 -2 17 6q0 4 -47 10q-55 2 -164 8 q254 324 417 396q47 20 99 20q88 0 114 -57q8 -18 11 -19q12 4 2 31q-25 66 -129 66q-106 0 -205 -62q-236 -147 -430 -375h-293q119 154 139 179q80 100 152 170q18 18 31 30q0 8 -15 9q-10 0 -57 -27q-25 -14 -84 -14h-38q-115 0 -239 10q-88 8 -125 8h-20 q-173 0 -291 -66q-149 -81 -149 -242v-18q4 -74 54 -132t122 -81q14 -4 26 -2q10 0 13 4q-2 2 -25 11q-63 20 -106 75.5t-43 120.5q0 115 84 189q72 63 192 86q72 12 148 12h22q129 -4 217 -4h55q111 2 166 22v-2q-154 -102 -354 -340q-74 -2 -190 -12q-18 -2 -21 -8 q-4 -10 12 -10h27l90 4h60l-101 -131q-131 -172 -272 -258q-78 -47 -160 -47q-94 0 -102 59q0 18 26 51q29 25 33 62v10q0 57 -66 65h-5q-40 1 -70 -29q-30 -32 -31 -77z" />
<glyph unicode="I" horiz-adv-x="901" d="M-37 123q0 -123 160 -152q45 -8 90 -8q387 0 719 430q14 18 94 135l49 72q35 51 133 176q43 51 99 76q10 4 14 16q2 12 -10 17q-6 2 -41 -13q-18 -8 -189 -47q-479 -111 -479 -286q0 -86 98 -86q39 0 72 26q14 14 10 23q-2 2 -20 -10q-29 -18 -55 -19q-55 0 -56 53 q0 72 101 144q72 51 163 84q100 37 263 73q37 8 77 21v-2q-129 -59 -233 -189q-94 -123 -352 -428q-222 -245 -461 -245h-2q-43 0 -84 14q-53 18 -53 53q0 23 14 37l25 25q35 29 38 61q1 7 1 13q0 59 -70 59q-49 0 -82 -37t-33 -86z" />
<glyph unicode="J" horiz-adv-x="684" d="M-606 -575v-8q0 -78 114 -79q82 0 195 56q231 115 459 358q57 61 145 170q51 20 123 60q31 16 68 41l41 26q80 51 157 127q23 23 17 29t-25 -12q-170 -160 -358 -238v2q123 156 360 440q156 186 322 340q6 6 80 68q10 8 12 14q6 23 -45 31q-18 1 -36 1q-214 0 -419 -87 q-139 -59 -237 -154q-127 -119 -127 -243q0 -123 104 -131q20 2 37 12q-14 0 -37 4q-57 16 -57 90q0 100 121 217q92 90 208 152q229 120 420 120h15q20 0 20 -10q0 -8 -22 -18q-49 -33 -172 -123q-317 -246 -709 -778q-223 -80 -424 -178q-342 -166 -350 -299zM-547 -578 q-1 5 -1 11q0 117 294 268q150 76 404 172v-2q-27 -37 -99 -129q-300 -372 -507 -372q-12 0 -23 1q-61 6 -68 51z" />
<glyph unicode="K" horiz-adv-x="1239" d="M-43 121q0 -80 66 -123q55 -37 139 -37q276 0 524 281q45 51 148 174q45 59 161 215q35 47 148 172q8 8 -2 16q-2 1 -4 1q-13 0 -50 -34q-123 -113 -296 -157q-55 -14 -103 -15q-144 0 -144 102q0 7 1 15q6 61 53 107q27 25 0 24q-27 0 -57 -20q-66 -43 -74 -109 q-1 -9 -1 -18q0 -68 71 -99q53 -22 130 -22h19q150 4 281 90v-2q-43 -29 -136 -123q-51 -53 -126 -147q-129 -162 -170 -207q-205 -225 -363 -225q-94 0 -102 59q0 18 26 51q29 25 33 62v10q0 57 -66 65h-5q-40 -1 -70 -29q-30 -30 -31 -75v-2zM934 -20h2q78 0 192 90 q68 53 109 94q23 23 16 29q-2 2 -22 -15l-41 -33l-55 -45q-109 -88 -160 -88q-37 0 -37 35q0 31 74 143q35 54 35 101q0 13 -3 26q-10 47 -51 72v2q184 57 310 221q39 51 90 115q102 111 196 111q100 0 101 -86q0 -72 -88 -113q-62 -30 -124 -30q-13 0 -26 1q-37 4 -66 15 q-10 4 -12 2q-6 -10 31 -23q29 -8 49 -10q11 -1 21 -1l139 34q94 45 94 123v2q0 104 -123 104q-209 0 -418 -281q-104 -139 -190 -169q-27 16 -62 20q-9 1 -16 1q-42 0 -49 -28v-3q0 -25 53 -25h4q37 0 62 12q14 -18 14 -41t-29 -63q-16 -20 -45 -60q-71 -100 -71 -156 q0 -83 96 -83zM868 399q0 12 43 13q33 -6 43 -17q-20 -10 -43 -10h-2q-41 0 -41 14z" />
<glyph unicode="L" horiz-adv-x="1226" d="M86 23q-1 -3 -1 -6q0 -24 48 -35q33 -6 76 -7q127 2 231 72q20 14 45 33q160 -63 191 -74q106 -35 201 -35q135 0 266 117q35 31 94 90q18 18 12 23q-4 4 -30 -19q-168 -143 -330 -143q-68 0 -211 37q-43 10 -154 37q152 100 269 249q43 53 94 130q37 -4 110 -5 q299 4 459 134q57 47 57 114q0 82 -108 109q-30 6 -62 6h-16q-111 -8 -184 -39q-129 106 -326 107q-113 0 -196 -44q-104 -53 -105 -155v-2q0 -82 90 -142q70 -47 164 -65q-37 -49 -78 -113l-65 -102q-76 -119 -140 -176q-20 8 -96 8q-182 0 -272 -59q-31 -20 -33 -45z M178 31q10 68 164 73h11q41 0 106 -12v-2q-102 -92 -215 -92q-20 -2 -41 6q-29 8 -25 27zM535 721v2q0 86 98 131q76 35 174 35q166 0 299 -88q-74 -29 -176 -119q-90 -78 -148 -154q-90 18 -157 62q-90 57 -90 131zM897 510q141 201 238 258q23 -18 47 -57q31 -61 31 -70 q0 -2 -1 -2q4 2 5 18q0 53 -52 125q72 49 162 52h7q52 0 90 -27q31 -22 31 -60q0 -11 -3 -24q-18 -84 -135 -143q-102 -53 -203 -66q-49 -6 -110 -8h-29q-42 0 -76 4h-2z" />
<glyph unicode="M" horiz-adv-x="1691" d="M-70 86q6 -119 158 -141q41 -6 84 -6h2q143 0 352 90q184 80 346 200q129 96 304 258q115 106 221 213h2q-68 -84 -213 -311q-102 -162 -221 -336q-10 -16 -15 -28q-4 -16 8 -27q12 -10 54 27q109 98 391 352q90 80 412 334h2q-98 -84 -267 -275q-104 -119 -180 -239 q-43 -68 -45 -131v-6q-1 -38 23 -54q23 -16 60 -16h9q72 4 168 82q53 43 105 90q25 23 18 28q-6 6 -29 -12q-90 -90 -174 -135q-41 -23 -67 -23q-25 0 -25 27q0 49 70 156q104 162 321 397l90 98q29 29 86 88q47 51 72 101q8 16 6 37q-2 18 -12 14q-6 -18 -23 -49 q-43 -55 -137 -94q-68 -29 -211 -37q-14 -1 -29 -1q-53 0 -120 11q8 8 14 16l12 17q25 25 25 39q0 12 -21 14h-3q-31 0 -99 -76q-84 14 -250 41q-86 12 -172 15q-18 1 -35 1q-172 0 -297 -55q-178 -78 -194 -250q-1 -13 -1 -26q0 -72 39 -130q46 -68 132 -91q35 -10 39 2 q-4 2 -25 10q-137 47 -143 166q-1 10 0 20q0 231 317 295q80 16 164 17q238 0 406 -33q-117 -111 -355 -332q-195 -176 -387 -289q-303 -176 -497 -176q-149 0 -149 60q0 6 1 12q4 16 14 26l25 25q39 29 45 70q4 33 -20.5 51t-57.5 18q-53 0 -89 -43q-34 -41 -34 -90v-6z M1167 201v2q37 49 263 418q45 74 81 127q94 -11 149 -11h9q117 2 197 33v-2q-215 -147 -531 -420q-68 -57 -168 -147z" />
<glyph unicode="N" horiz-adv-x="1320" d="M-180 98q0 -127 164 -151q45 -6 90 -6q274 6 590 243q193 145 340 340q49 63 77 121h2q-18 -49 -24 -143q-2 -49 -10 -148q-16 -182 -68 -327q-6 -16 -8 -33q-2 -14 12 -23q4 -3 9 -3q18 0 42 36l117 166q227 324 425 531.5t374 207.5q94 0 116 -55q14 -20 11 -20 q6 0 6 20q0 51 -37 83t-90 32q-164 0 -416 -269q-127 -135 -330 -409q-55 -76 -106 -150h-2q41 100 57 310q10 123 27 249q18 70 49 115q8 12 4 21q-6 8 -24 6q-39 -4 -82 -64q-16 -23 -39 -65q-131 -250 -373 -455q-254 -215 -514 -274q-72 -16 -133 -17q-140 0 -140 58 q0 5 1 10q2 18 14 31l26 24q37 35 37 71q0 64 -78 64h-2q-47 0 -80.5 -39t-33.5 -86v-2z" />
<glyph unicode="O" horiz-adv-x="833" d="M27 135q18 -164 204 -166h6q138 0 289 86q262 152 367 394q39 90 45 153q1 16 1 29q0 109 -83 119q-9 1 -18 1q-101 0 -240 -98q-121 -86 -207 -194q-134 -166 -134 -324q0 -13 1 -26q4 -66 35 -89q8 -8 12 -8q2 0 4 2q-2 2 -8 15q-23 37 -22 75v2q0 141 151 332 q166 209 334 275q42 17 77 17q7 0 13 -1q46 -3 46 -60q0 -9 -1 -18q-16 -147 -180 -352q-250 -311 -457 -311h-10q-111 4 -127 102q-3 19 -3 39q0 86 54 199q55 109 139 207q94 109 246 198q165 96 284 96h9q119 -4 129 -88q1 -10 1 -19q0 -40 -21 -71q-10 -14 -17 -24 q2 -2 4 -2q8 0 27 18q30 38 30 84q0 8 -1 16q-10 104 -152 113q-14 1 -29 1q-145 0 -305 -73q-162 -74 -284 -194q-211 -209 -211 -413q0 -21 2 -42z" />
<glyph unicode="P" horiz-adv-x="1161" d="M-35 43q0 -68 187 -68q195 0 315 43q146 -38 256 -38h6q117 0 197 69q16 14 20 23q2 8 -2 10q-2 2 -26 -16q-63 -45 -166 -46q-27 0 -99 13l-59 10q-18 2 -49 8v2q193 82 344 242q14 -4 45 -6t57 0q141 10 242 84q117 84 117 217q0 102 -93 180q170 123 330 123 q96 0 135 -43q10 -12 13 -12q8 2 0 18q-31 57 -150 57q-186 0 -348 -129q-127 78 -326 78q-233 0 -442 -98q-260 -123 -268 -332v-9q0 -166 227 -175h14q104 0 204 55q108 59 161 154q33 57 33 116q0 111 -113 117q-7 1 -15 0q-78 0 -134 -59q-32 -34 -32 -47q0 -4 3 -6 q-4 2 39 40q58 52 126 52h7q86 -4 86 -92v-3q0 -94 -113 -200q-117 -110 -248 -109h-18q-142 7 -142 137q0 9 1 19q14 211 225 326q174 96 403 96q186 0 291 -78q-82 -49 -196 -174q-66 -70 -95 -107l-81 -100q-88 -106 -152 -174q-90 -94 -176 -145q-133 33 -252 49 q-49 6 -78 8q-21 1 -40 1q-171 0 -171 -81zM-8 43q0 31 51 35q24 3 53 3q107 0 277 -36q23 -4 61 -12v-2q-84 -35 -282 -35q-160 0 -160 47zM901 313v2q10 8 47 52q41 57 133 192q49 72 70 98q43 55 80 88q41 -41 45 -112v-12q0 -78 -49 -148q-102 -143 -246 -160 q-16 -4 -41 -4t-39 4z" />
<glyph unicode="Q" horiz-adv-x="1021" d="M-141 41q0 -66 168 -66q156 0 299 52q188 -55 311 -56q174 0 395 203q4 4 8 12q4 6 0 11q-6 6 -22 -11q-179 -161 -361 -161h-2q-41 0 -114 16l-119 27v2q133 39 342 151q141 76 237 176q123 125 123 247v11q-4 102 -96 156q-76 45 -184 45q-141 0 -289 -74 q-197 -98 -250 -278q-10 -35 -10 -69v-11q8 -139 166 -139q166 0 284 104q92 82 93 168q0 111 -121 111h-4q-74 -2 -123 -52q-29 -29 -29 -41q0 -2 2 -4q-1 0 -1 1q0 7 54 38q62 35 89 37h6q32 0 59 -19q31 -20 31 -55v-2q0 -76 -86 -153q-127 -115 -254 -115 q-129 0 -137 121v11q0 112 159 247q186 156 361 156q178 0 178 -160q0 -158 -221 -348q-190 -164 -410 -250q-174 51 -309 51q-223 0 -223 -90zM-113 43q0 41 113 41q88 0 293 -41v-2q-123 -45 -264 -45t-142 47z" />
<glyph unicode="R" horiz-adv-x="1347" d="M-35 43q0 -63 187 -68h33q159 0 276 35q89 -28 153 -28h4q111 0 193 67q16 12 20 23q2 10 -2 12q-6 -4 -34 -25q-50 -35 -124 -35q-13 0 -26 1q-31 2 -100 16q223 96 383 295q37 45 57 78q6 -2 41 -8h41q37 -19 37 -52q0 -28 -27 -63q-14 -18 -45 -60q-71 -102 -71 -153 q0 -86 98 -86q78 0 190 88q66 51 111 96q23 23 16 29q-2 2 -4 2l-61 -49l-56 -45q-109 -88 -157 -88q-39 0 -39 34q0 37 74 144q42 62 42 105q0 6 -1 11q-8 61 -72 87v2q82 0 158 36q86 41 114 111q15 40 15 75v11q-8 72 -64 123q-23 20 -41 33q53 41 140 71.5t153 30.5h2 q96 0 135 -43q20 -23 19 -22q4 2 4 10q-10 74 -158 74q-174 0 -317 -109q-113 53 -285 53q-168 0 -322 -55q-170 -63 -268 -178q-61 -72 -78 -160q-5 -26 -5 -49.5t5 -44.5q33 -135 187 -139q12 0 37.5 7t17.5 15l-55 -2q-109 10 -115 133v14q0 121 96 230q86 96 219 153.5 t281 57.5q170 0 256 -56q-176 -115 -422 -438q-178 -238 -299 -297q-72 16 -260 60q-39 8 -76 10q-21 1 -40 1q-171 0 -171 -81zM-10 41q0 29 51 35q29 3 59 3q60 0 127 -13l70 -15q37 -8 129 -28v-3q-80 -25 -199 -26h-77q-84 0 -142 26q-18 8 -18 21zM995 434 q82 121 197 273q25 33 63 63l2 2q57 -45 58 -119q0 -115 -109 -186q-61 -41 -131 -45q-47 12 -61 12h-19z" />
<glyph unicode="S" horiz-adv-x="1116" d="M-57 -182q0 -8 4 -11q6 -2 16 19q37 76 164 190q101 -71 276 -71q28 0 58 2q324 18 530 250q66 74 133 196q53 106 109 213q4 2 55 23q240 98 250 202q2 31 -18.5 44.5t-51.5 11.5q-115 -10 -247 -158q-61 -70 -117 -154q-90 -35 -158 -65l-160 -70l-2 2q-43 63 -147 90 q-53 14 -94 17q-19 1 -38 1q-111 0 -218 -40q-131 -49 -209 -148q-47 -59 -53 -133q-1 -10 -1 -21q0 -105 76 -171q-119 -111 -153 -205q-2 -4 -4 -14zM96 238q12 145 158 229q111 64 242 64q19 0 39 -1q170 -12 215 -102l2 -2l-136 -61q-156 -70 -274 -146q-39 31 -49 72 q-2 8 -6 16q-4 2 -6 -6t0 -14q6 -45 43 -78q-66 -41 -183 -135q-46 55 -46 138q0 13 1 26zM164 47q37 33 129 96l61 43q66 -43 156 -43h2q104 0 195 54q102 61 104 159q0 31 -12 64q154 70 293 127v-2q-57 -90 -91 -150q-219 -406 -522 -430q-33 -2 -61 -2q-168 0 -254 84z M371 197q80 53 387 206q6 -27 6 -49q-2 -84 -90 -141q-76 -49 -166 -49h-2q-74 0 -135 33zM1247 635v2q123 217 221 231q23 4 37.5 -5t10.5 -32q-14 -84 -170 -151q-51 -23 -99 -45z" />
<glyph unicode="T" horiz-adv-x="1269" d="M-70 14q0 -23 72 -30q20 -2 66 -2h61q94 0 219 22q186 -29 400 -29q264 0 434 119q18 14 84 70q20 14 20 22q0 4 -2 7q-4 4 -26.5 -14.5t-81.5 -63.5q-141 -98 -400 -101h-24q-104 0 -250 15q-20 2 -51 4v2q270 55 471 239q68 61 174 213q143 205 237 205q10 0 27 -2h29 q312 0 346 166q4 23 4 43q0 94 -92 141q-74 37 -179 37q-92 0 -172 -37q-94 -43 -125 -118q-8 -20 -10 -33q-4 -27 4 -27q2 0 19.5 40t21.5 44q82 104 260 105h2q84 0 154 -31q88 -41 88 -115q0 -155 -266 -155q-29 0 -62 2q-102 6 -518 71q-76 12 -168 15h-22 q-243 0 -342 -129q-35 -45 -41 -101q-1 -10 -1 -19q0 -108 128 -153q41 -14 90 -14q90 0 160 29q96 39 96 114q0 49 -41 70q-4 4 -10 8q-8 2 -13 -2q-4 -2 0 -4l9 -8q20 -27 14 -60q-4 -72 -78 -104q-53 -25 -126 -25h-11q-76 2 -135 43q-61 42 -61 104q0 7 1 15 q12 109 138 156q82 31 182 31q19 0 39 -1q115 -6 329 -49q154 -31 279 -43v-2q-166 -47 -315 -215q-55 -66 -203 -233q-154 -166 -356 -205q-115 14 -232 25q-27 2 -74 2q-170 0 -170 -54z" />
<glyph unicode="U" horiz-adv-x="1130" d="M119 395q8 -96 102 -100h6q40 0 78 27q35 23 25 32q4 -4 -31 -20q-25 -21 -67 -21h-7q-73 2 -73 82q0 106 163 269q180 178 357 178q92 0 92 -56q0 -78 -232 -340q-66 -74 -151 -174q-98 -123 -109 -196q-2 -11 -2 -21q0 -73 92 -73t244 104q119 82 225 188h3 q-90 -127 -91 -196q0 -90 97 -90q92 0 237 129l56 49q23 20 16 27q-6 6 -29 -13q-175 -157 -242 -157h-1q-41 0 -41 34q0 92 258 410q10 12 28 35q88 66 178 133q115 88 162 139q29 31 35 62q6 27 -22 30h-6q-27 0 -80 -30q-160 -92 -394 -351l-61 -67l-74 -84 q-154 -174 -350 -281q-61 -33 -95 -33h-7q-30 9 -30 39q0 5 1 11q12 74 260 352q84 94 123 149q74 104 76 172v5q0 112 -166 112q-82 0 -189 -37q-223 -78 -325 -276q-40 -78 -40 -137q0 -7 1 -15zM1176 565v2q96 106 184 201q75 79 104 79q3 0 6 -1q6 -2 7 -10 q0 -49 -181 -181q-63 -45 -120 -90z" />
<glyph unicode="V" horiz-adv-x="987" d="M-53 -23q0 -14 26 -16q12 -1 25 -1q60 0 149 22q475 18 818 319q143 125 239 307q45 84 51 154q1 11 1 21q0 81 -60 81q-29 0 -29 -31q0 -18 21 -118q6 -31 6 -47q4 -27 -10 -52q-74 -129 -250 -282q-260 -225 -557 -299q-98 -25 -184 -31v2q190 66 369 214.5t265 322.5 q27 55 33 104q2 19 2 37q0 178 -229 178q-158 0 -324 -119q-176 -127 -194 -276q-2 -12 -2 -24q1 -50 29 -84q34 -42 100 -46h12q58 0 125 35q66 35 113 86q80 88 86 172v12q0 41 -25 66q-8 10 -12 10q-2 0 -4 -4q-2 -2 8 -14q12 -20 8 -53q-10 -80 -90 -166 q-120 -127 -209 -127h-8q-90 6 -90 102q0 156 170 293q150 119 303 119q125 0 125 -121q0 -106 -95 -252q-59 -90 -159 -192q-207 -211 -348 -271q-23 2 -64 6q-20 0 -63 -2q-78 -12 -78 -35z" />
<glyph unicode="W" horiz-adv-x="1230" d="M111 436q0 -115 129 -123h11q56 0 124 35t114 86q78 86 84 172q1 7 1 13q0 41 -23 65q-8 10 -12 10q-2 0 -4.5 -3t-2.5 -5t3 -2q18 -11 18 -41q0 -9 -2 -20q-10 -80 -89 -165t-159 -116q-33 -12 -59 -10q-90 7 -90 103q0 13 2 28q8 66 59 143q47 72 104 117 q156 121 306 121h2q127 0 127 -115q0 -139 -191 -410q-102 -147 -260 -311q-12 -12 -8 -26q2 -12 20 -13q14 0 117 72l94 65q141 98 254 185l78 59q31 23 109 84v-2q-68 -213 -113 -334q-18 -45 -47 -80q-10 -12 -8 -24q0 -10 16 -10q25 0 57 30q223 190 447 381 q319 285 334 412q1 6 1 13q0 34 -20 58q-22 28 -65 29q-18 0 -21 -6q-8 -8 16.5 -23.5t24.5 -19.5q2 -10 2 -20q0 -101 -159 -279q-72 -80 -330 -303q-41 -35 -94 -84l-70 -63v2q41 53 80 180q8 27 55 207q74 59 154 149q39 43 39 90q0 51 -54 51q-125 0 -235 -319 q-66 -51 -254 -188l-234 -170v2q209 209 324 417q37 70 43 117q2 19 2 37q0 178 -229 178q-166 0 -336 -129q-182 -137 -182 -297zM1079 532v3q14 45 56 159q31 74 73 74q33 0 33 -37q0 -31 -39 -74t-123 -125z" />
<glyph unicode="X" horiz-adv-x="999" d="M-76 98q10 -127 199 -127q227 0 473 226v-2q-31 -41 -35 -91q-1 -10 -1 -20q0 -48 26 -74q29 -29 88 -28h8q92 4 205 90l26 20q43 33 82 72l4 4q20 20 15 25q-6 6 -25 -13q-49 -47 -112 -92q-102 -74 -164 -74q-53 0 -54 54q0 61 72 180q166 274 385 459q146 122 241 122 h7q49 -2 49 -47q0 -125 -172 -174q-31 -8 -31 -12q2 -4 13 -4q8 -2 18 2q68 8 139 55q80 53 95 113q3 12 3 22q0 26 -20 44q-26 24 -72 24q-172 0 -413 -211v2q33 47 35 100v8q0 109 -156 109q-115 0 -239 -58.5t-203 -146.5q-111 -121 -111 -247v-13q4 -96 100 -100h10 q61 0 97 45q8 10 2 14q6 -6 -38 -23.5t-64 -17.5q-74 2 -74 84q0 102 164 267q178 178 356 178q84 0 84 -62q0 -55 -80 -186q-139 -229 -303 -387q-223 -217 -424 -217q-98 0 -98 56q0 25 45 69q35 33 41 63q4 27 -17.5 43.5t-50.5 16.5q-57 0 -93 -41q-32 -37 -32 -88v-11z " />
<glyph unicode="Y" horiz-adv-x="1021" d="M-133 -659q-1 -7 -1 -13q0 -73 87 -73q106 0 266 122q119 92 217 209l70 82l57 70q18 23 92 127q15 1 30 1q99 0 171 -36q100 -49 100 -160q0 -41 -8 -65q-2 -2 -2 -6q0 -2 2 -2q16 -6 23 41q2 16 2 36q0 115 -101 170q-75 41 -184 41h-20q66 90 178 252l133 182l133 183 q86 78 166 143q51 41 135 129q23 33 25 62q0 27 -31 30h-7q-63 0 -196 -135q-29 -29 -172 -194q-84 -98 -213 -242q-135 -137 -264 -215q-99 -60 -143 -60h-4q-30 9 -30 39q0 5 1 11q12 74 260 352q84 94 123 149q74 104 76 172v5q0 112 -166 112q-88 0 -189 -37 q-229 -84 -325 -276q-39 -79 -39 -141v-11q6 -94 100 -100h5q37 0 81 27q33 25 25 32q8 -8 -36 -24.5t-69 -16.5q-73 2 -73 82q0 106 163 269q180 178 357 178q92 0 92 -56q0 -78 -232 -340q-66 -74 -151 -174q-98 -123 -109 -196q-2 -11 -2 -21q0 -73 92 -73t252 110 q125 86 248 213v-2l-217 -315q-8 -10 -82 -117q-324 -63 -575 -328q-115 -119 -121 -202zM-74 -661q0 73 97 188q82 96 163 154q182 127 365 169v-2l-105 -141q-25 -35 -88 -119q-232 -306 -373 -306q-8 0 -16 1q-43 10 -43 56zM1159 567v2q68 94 152 199q63 79 92 79 q3 0 6 -1q8 -4 8 -15q0 -20 -31.5 -62t-107.5 -103q-59 -49 -119 -99z" />
<glyph unicode="Z" horiz-adv-x="933" d="M-350 -641q0 -92 129 -94h5q138 0 343 100q397 193 588 469q80 115 84 236q92 51 162 120q10 13 2 13q-4 0 -82 -56q-37 -27 -84 -55q-4 104 -68.5 165.5t-169.5 61.5h-41v3q135 94 352 284q53 47 101 94q102 55 151 111q16 18 17 29q-2 10 -13 14q-5 1 -10 1 q-66 0 -198 -150q-125 -66 -232 -66q-17 0 -33 2q-78 7 -79 74q0 5 1 10q4 53 49.5 88t100.5 41q31 2 31 6q2 6 -10.5 8t-20.5 2q-84 -4 -166 -47q-96 -53 -104 -127q-1 -7 -1 -14q0 -100 166 -100h3q117 0 264 84v-2q-66 -66 -203 -181q-109 -90 -213 -168 q-160 -27 -240 -102q-35 -33 -24 -51q12 -20 51 -8q55 18 164 96l59 43q14 2 33 2q137 0 166 -92q8 -25 10 -58q1 -13 1 -25q0 -38 -9 -85q-84 -51 -434 -207q-598 -266 -598 -469zM-328 -641q0 90 140 195q82 61 282 170q4 2 299 141l144 67q63 31 139 76v-2 q-66 -207 -309 -422q-229 -205 -449 -274q-78 -25 -141 -25q-104 0 -105 74zM242 180q-1 2 -1 5q0 25 93 67q57 27 106 37v-2q-162 -111 -190 -111q-6 0 -8 4z" />
<glyph unicode="[" d="M-90 -178h227l10 12q2 0 -20 2l-47 4q-43 4 -92 21q-4 14 112 153q33 39 101 121l102 123q43 53 301 389q47 63 174 230q35 45 150 53l57 4l8 14h-200q-53 -61 -189 -223l-137 -168q-162 -199 -279 -354l-127 -170q-41 -59 -151 -211z" />
<glyph unicode="\" d="M72 698q27 -104 90 -379l106 -469q6 -27 15 -26h2q12 0 6 39l-86 485q-43 240 -70 369q-10 45 -10 51q-12 33 -33 10q-31 -35 -20 -80z" />
<glyph unicode="]" d="M-268 -178h200q35 41 191 225q227 268 418 522q43 57 125 168l96 135q43 59 53 76h-227l-8 -12l104 -10q51 -4 55 -17q2 -8 -114 -151l-201 -246q-92 -113 -199 -252l-200 -262q-33 -45 -111 -139q-25 -12 -115 -19l-57 -4z" />
<glyph unicode="^" horiz-adv-x="628" d="M86 270q4 -6 10 -2q111 51 240 121q25 14 67 43q141 -156 187 -156q4 0 6 3q4 2 -8 18q-129 160 -152 213q-4 6 -10 6h-2q-8 0 -29 -16q-61 -49 -215 -158q-49 -35 -78 -53q-16 -16 -16 -19z" />
<glyph unicode="_" horiz-adv-x="1024" d="M-131 -215v-61h1042v61h-1042z" />
<glyph unicode="`" horiz-adv-x="628" d="M336 580q0 -16 10 -31q18 -35 103 -109l32 -28q18 -10 21 -9q4 2 2 9l-6 10q-27 33 -58 94q-37 72 -53 96q-4 6 -14 6h-2q-35 0 -35 -38z" />
<glyph unicode="a" horiz-adv-x="589" d="M-41 70q-1 -8 -1 -16q0 -30 18 -46q22 -20 60 -20h7q104 6 225 116h2q-29 -32 -29 -64q0 -5 1 -9q4 -43 59 -43q74 0 176 82q82 66 123 106q23 23 16 29q-4 4 -26 -15q-131 -131 -215 -157q-27 -8 -27 12q0 23 41 84q31 45 105 131q63 73 63 83t-39 7q-47 -2 -115 -78h-2 q4 12 5 25q0 45 -48 53q-11 2 -23 2q-70 0 -183 -59q-123 -66 -181 -131q-6 -8 -2 -12q6 -8 27 12l18 18h2q-49 -55 -57 -110zM47 42q0 46 115 159q131 129 186 129h2q39 0 37 -37q-4 -55 -141 -178q-106 -96 -172 -97q-27 0 -27 24z" />
<glyph unicode="b" horiz-adv-x="610" d="M-63 -2q4 -8 34 -6q33 2 60 28q299 299 405 299q27 0 27 -22q-2 -23 -6 -39q-20 -57 -66 -102q-16 -4 -127 -39q-123 -39 -123 -86q0 -41 62 -41q45 0 106 24q121 49 203 162q37 51 43 96q1 7 1 13q0 56 -64 65q-10 1 -20 1q-124 0 -333 -197l-4 6l15 20q16 25 71 101 l33 43q74 68 207 170l211 163q156 127 235 201q172 160 185 234q2 10 2 19q0 54 -64 54h-2q-57 0 -174 -82q-84 -59 -233 -211q-244 -248 -492 -569q-51 -43 -127 -113q-18 -18 -14 -22q1 -1 3 -1q11 0 52 38q12 12 41 37h2q-98 -123 -143 -217q-8 -16 -6 -27zM180 37 q0 29 88 57q39 12 107 41v-2q-86 -109 -166 -115q-23 -2 -26 6.5t-3 12.5zM287 375v2q25 33 75 98l68 86q8 14 125 154l45 53q133 156 272 293q84 82 134 82q39 0 34 -39q-4 -59 -122 -178q-168 -170 -332 -303l-172 -140q-16 -12 -127 -108z" />
<glyph unicode="c" horiz-adv-x="436" d="M-31 150q8 -8 45 28l15 15h2q-53 -63 -60 -125q-1 -6 -1 -11q0 -75 110 -75h2q109 0 237 88q102 70 132 108q6 8 2 12t-13 -2l-16 -10q-33 -33 -115 -90q-104 -74 -186 -74q-48 0 -48 38q0 4 1 9q8 76 114 183q86 86 123 86h4q18 -4 15 -21q-2 -10 -21 -45 q-16 -27 -12 -43q2 -18 29 -18q23 0 44 22.5t25 46.5q2 11 2 20q0 51 -57 58q-7 1 -15 0q-68 0 -184 -61q-119 -66 -172 -127q-6 -8 -2 -12z" />
<glyph unicode="d" horiz-adv-x="589" d="M-41 70q-1 -8 -1 -16q0 -30 18 -46q22 -20 60 -20h7q51 4 121 41q35 18 104 75h2q-29 -32 -29 -64q0 -5 1 -9q4 -43 57 -43h2q66 0 176 82q63 47 123 106q18 18 18 25q0 2 -2 4l-26 -15q-35 -35 -98 -84q-97 -75 -124 -75h-1q-23 0 -23 18q0 10 14 33q4 10 25 39l43 61 q55 78 100 135l205 254q117 141 236 265l49 49q-2 14 -31 14q-39 0 -76 -35q-221 -213 -501 -577h-2q6 23 -9.5 41t-38.5 22q-10 1 -21 1q-72 0 -187 -58q-121 -66 -179 -131q-6 -8 -2 -12q6 -8 27 12l18 18h2q-49 -55 -57 -110zM45 42q0 46 115 159q131 129 188 129 q39 0 37 -37q-2 -53 -141 -178q-106 -96 -170 -97h-2q-27 0 -27 24z" />
<glyph unicode="e" horiz-adv-x="434" d="M-35 66v-5q0 -79 113 -79q111 0 239 88q70 47 129 106q23 23 17 29q-8 6 -27 -12q-119 -119 -237 -162q-46 -17 -77 -17h-3q-47 2 -47 41v6q2 12 12 45q119 37 180 66q123 59 129 125q2 23 -16.5 38t-42.5 15h-2q-74 0 -195 -65q-113 -61 -166 -123q-6 -8 -2 -12 q6 -8 27 12l16 16h2q-41 -53 -49 -112zM96 127v2q35 59 86 115q66 72 115 80q31 0 25 -27q-4 -51 -84 -107q-47 -33 -142 -63z" />
<glyph unicode="f" horiz-adv-x="350" d="M-545 -750q-3 -16 -3 -28q0 -42 36 -49q5 -1 10 -1q32 0 78 33q111 82 238 303q82 143 141 299q12 35 43 127q18 37 68 62q182 68 296 182q23 23 17 27q-6 6 -27 -12q-94 -88 -239 -156q-23 -10 -43 -17l-43 -12q47 70 170 228q43 55 71 90q74 66 203 170l104 84 q223 180 289 237q217 193 230 275q2 11 2 20q0 53 -58 53h-2h-2q-59 0 -168 -80q-205 -150 -473 -473l-233 -288q-82 -66 -158 -134q-20 -16 -14 -22q0 -1 1 -1q9 0 66 48l58 49h2q-176 -223 -355 -467q-115 -158 -198 -307q-41 -72 -62 -117q-35 -74 -45 -123zM-481 -768 q0 43 205 356q106 162 176 256q27 35 80 105h2q-76 -242 -181 -422q-131 -225 -223 -295q-35 -27 -51 -18q-8 4 -8 18zM305 377v2q88 119 141 182l76 92q25 31 96 117q313 373 394 373q37 0 32 -37q-6 -61 -122 -178q-41 -41 -265 -246q-41 -35 -229 -197q-10 -8 -123 -108z " />
<glyph unicode="g" horiz-adv-x="583" d="M-700 -745q-1 -9 -1 -17q0 -53 58 -65q20 -4 39 -4q57 0 141 43q203 104 422 344q43 47 129 159l80 105q27 35 72 102q152 88 225 146q63 49 129 108q25 20 16 29l-26 -15q-90 -84 -232 -176l-94 -61v2q55 76 168 227l55 72q61 80 62 82q0 14 -37 14t-98 -69h-2q1 8 1 16 q0 43 -49 53q-9 1 -18 1q-76 0 -190 -60q-121 -61 -179 -129q-6 -8 -2 -12q6 -6 20.5 6t24.5 22v-2q-47 -49 -55 -106q-1 -8 -1 -16q0 -29 18 -46q22 -20 60 -20h7q94 6 215 108v-2l-29 -43q-33 -49 -100 -143q-33 -20 -190 -115l-103 -61q-512 -307 -536 -477zM-631 -745 q8 164 459 444q80 49 283 176v-2q-254 -356 -422 -514q-175 -164 -264 -164q-14 0 -25 4q-31 9 -31 51v5zM47 42q0 46 115 159q131 129 188 129q39 0 37 -37q-4 -55 -141 -178q-106 -96 -170 -97h-2q-27 0 -27 24z" />
<glyph unicode="h" horiz-adv-x="649" d="M-61 -4q8 -4 30 -4q35 0 115 67l53 45q90 76 205 158q31 23 71 40t52 11q8 -4 6 -12t-8 -16q-80 -88 -139 -170q-27 -37 -33 -74q-1 -6 -1 -10q0 -43 62 -43q70 0 183 82q68 49 124 106q23 23 17 27q-4 4 -27 -13q-61 -55 -106 -88q-80 -61 -117 -67q-27 -8 -27 10 q0 27 80 125q45 55 49 59q29 39 33 66q1 6 1 11q0 44 -64 44q-80 0 -224 -110q-35 -27 -96 -76l-80 -68l-6 2l86 125q41 59 76 101q117 92 418 333q176 141 282 246q127 123 138 189q2 10 2 19q0 54 -64 54h-2q-57 0 -174 -82q-86 -59 -233 -213q-240 -250 -373 -417 l-117 -150q-70 -57 -129 -113q-18 -18 -14 -22q1 -1 3 -1q11 0 54 40l43 39v-2q-80 -98 -145 -219q-12 -23 -4 -29zM287 375v2q25 33 75 98l68 86q59 74 137 168l33 39q129 154 272 293q84 82 134 82q39 0 34 -39q-4 -59 -122 -178q-168 -170 -332 -303l-172 -140 q-16 -12 -127 -108z" />
<glyph unicode="i" horiz-adv-x="329" d="M-29 154q0 -2 2 -4q4 -4 21 8q78 74 137 114q18 12 35 23v-2q-18 -14 -74 -76q-74 -82 -102 -137q-8 -21 -8 -44q0 -50 61 -50q72 0 178 84q78 61 123 106q20 20 16 27q-2 2 -28 -13q-6 -6 -99 -84q-61 -51 -116 -73q-14 -6 -23 4q-4 4 -4 10q0 31 84 135q29 37 109 131 q20 23 16 29q-6 6 -39 4q-70 -2 -209 -115l-43 -34q-10 -8 -23.5 -23.5t-13.5 -19.5zM362 545q0 -20 9 -31q53 0 96 55q18 23 12 39q-6 14 -26 15h-2q-89 0 -89 -68v-10z" />
<glyph unicode="j" horiz-adv-x="337" d="M-950 -745q-1 -8 -1 -15q0 -71 87 -71q119 0 309 147q141 109 260 240q98 111 272 358q98 55 238 154q84 59 137 108q16 23 17 23q0 2 -2 4q-8 6 -27 -13q-31 -31 -128 -102.5t-165 -110.5l-49 -28v2q47 61 96 127l80 106q16 23 109 131q16 18 14 27q-2 8 -37 4 q-72 0 -211 -115q-25 -20 -65 -57q-12 -16 -13 -20q0 -2 2 -4q6 2 21 8q78 74 137 114l25 17q6 6 10 8v-2q-41 -43 -156 -197q-23 -29 -80 -106l-63 -88q-160 -96 -293 -180q-121 -76 -192 -125q-315 -215 -332 -344zM-883 -745q10 168 457 442l100 61q16 10 170 111v-2 q-213 -326 -410 -510q-170 -160 -260 -160q-14 0 -26 4q-32 10 -32 41q0 6 1 13zM348 543q0 -18 8 -27q53 0 97 53q18 23 12 39q-6 14 -31 15h-2q-59 0 -78 -39q-6 -20 -6 -41z" />
<glyph unicode="k" horiz-adv-x="638" d="M-61 -2q8 -6 32 -6q47 0 168 114q74 70 111 101q121 100 190 115q18 4 31.5 -4.5t11.5 -26.5q-4 -37 -65 -58q-80 -25 -94 -36q-41 -37 -45 -113v-14q0 -82 69 -82q72 0 176 80q35 27 125 108q23 20 17 27q-4 2 -27 -13q-74 -66 -96 -84q-63 -51 -109 -65q-14 -6 -24 -4 q-29 6 -35 76q-1 11 -1 21q0 74 52 83q27 4 82 12q74 14 74 62q0 51 -74 59q-7 1 -14 1q-117 0 -316 -179l-84 -76l-4 2q27 37 80 113l49 68q20 29 35 45q74 68 207 170l211 163q156 127 235 201q172 160 185 234q2 10 2 19q0 54 -64 54h-2q-57 0 -174 -82 q-86 -59 -233 -213q-252 -260 -375 -417l-117 -150q-51 -43 -127 -113q-18 -18 -14 -22q1 -1 3 -1q11 0 52 38q12 12 41 37v-2q-98 -123 -141 -215q-10 -20 -4 -27zM287 375v2q117 152 248 311l65 80q117 141 272 293q84 82 134 82q39 0 34 -39q-4 -59 -122 -178 q-168 -170 -332 -303l-172 -140q-16 -12 -127 -108z" />
<glyph unicode="l" horiz-adv-x="342" d="M-18 43v-6q0 -49 63 -49q80 0 184 82q76 59 123 106q23 23 17 27l-27 -13q-155 -155 -226 -155h-1q-29 0 -19 33q16 55 80 149q23 35 78 107q270 221 557 460q250 211 266 308q2 10 2 19q0 54 -61 54h-2q-70 0 -170 -82q-205 -168 -465 -473q-129 -152 -244 -301 q-90 -76 -135 -119q-18 -18 -14 -22q1 -1 3 -1q11 0 56 42l45 41h2q-27 -37 -68.5 -99.5t-43.5 -107.5zM287 375v2q25 33 75 98l68 86q59 74 137 168l33 39q225 268 334 350q33 25 59 25q39 0 35 -39q-4 -59 -120.5 -178t-266.5 -246l-139 -119q-72 -61 -215 -186z" />
<glyph unicode="m" horiz-adv-x="1048" d="M-33 154q0 -2 2 -4q6 -6 27 12q82 80 135 117q16 12 57 28q8 2 13 -4q10 -10 -13 -35q-106 -123 -174 -243q-12 -23 -4 -29q8 -4 31 -4q35 0 115 67l53 45q84 72 205 156q79 55 110 55q6 0 11 -2q6 -2 8 -10q0 -10 -6 -18q-43 -45 -88 -101q-68 -82 -107 -159 q-6 -12 -6 -21q0 -12 33 -12q35 0 114 67l54 45q90 76 204 158q31 23 71 40t52 11q8 -4 6 -12q-66 -80 -147 -186q-29 -39 -33 -74v-8q0 -45 60 -45h2q72 0 182 82q86 63 125 106q20 23 16 27l-26 -13q-61 -55 -107 -88q-80 -61 -117 -67q-27 -8 -25 10q0 27 79 125 q45 55 49 59q29 39 33 66q1 6 1 10q0 45 -65 45q-80 0 -223 -110q-35 -27 -96 -76l-80 -68l-6 2q20 25 112 138q25 29 29 55q1 7 1 13q0 46 -67 46q-78 0 -221 -110q-35 -27 -96 -76l-80 -68l-6 2q41 53 119 164q12 23 12 41q0 47 -51 47q-84 0 -260 -176q-16 -12 -17 -20z " />
<glyph unicode="n" horiz-adv-x="720" d="M-33 154q0 -2 2 -4q6 -6 27 12q82 80 135 117q16 12 57 28q8 2 13 -4q10 -10 -13 -35q-106 -123 -174 -243q-12 -23 -4 -29q8 -4 31 -4q35 0 115 67l53 45q90 76 205 158q31 23 70.5 40t52.5 11q8 -4 6 -12t-8 -16q-80 -88 -140 -170q-27 -37 -33 -74q-1 -6 -1 -11 q0 -42 61 -42h2q68 0 182 82q27 20 125 106q25 20 19 27q-4 4 -11 0q-14 -6 -63 -51q-117 -102 -178 -117q-27 -6 -27 10q0 27 80 125q45 55 49 59q29 39 33 66q1 6 1 10q0 45 -65 45q-80 0 -223 -110q-35 -27 -96 -76l-80 -68l-6 2q41 53 119 164q12 23 12 41q0 47 -51 47 q-53 0 -144 -69q-45 -35 -116 -107q-16 -12 -17 -20z" />
<glyph unicode="o" horiz-adv-x="507" d="M-31 150q6 -6 30 15t38 36v-2q-51 -57 -57 -127q-1 -8 -1 -14q0 -76 101 -76q82 0 186 67q33 20 47 33q12 -8 29 -6q14 -2 27 2q70 18 149 98q23 23 17 27h-1q-8 0 -53 -33q-68 -53 -84 -64q-23 -10 -49 -12q-12 -2 -18 2q109 98 116 166q1 7 1 13q0 47 -39 71 q-10 4 -15 0q-6 -2 -4 -6q2 -6 6 -23q0 -35 -6 -51q-68 -27 -92 -100q-8 -25 -10 -39q-111 -125 -191 -125q-33 0 -28 35q8 70 118 180q86 86 148 113q2 2 12 5t10 7q-4 8 -12 10q-12 0 -18 -2q-84 -10 -172 -57q-133 -74 -183 -131q-6 -8 -2 -12z" />
<glyph unicode="p" horiz-adv-x="667" d="M-590 -784q0 -33 35 -43q6 -2 12 -2q22 0 47 22q43 37 150 186q70 100 139 201q80 113 301 395l74 91q43 53 57 67q131 135 213 170q6 6 25 10q14 4 20 0q14 -6 0 -26q-20 -31 -88 -103q-41 -45 -55 -63q-31 -41 -35 -74q-1 -6 -1 -11q0 -48 67 -48q76 0 184 82 q14 10 79 70q62 59 62 63q0 7 -26 -13q-173 -155 -233 -155h-1q-20 0 -20 18q0 25 41 72l43 49q23 27 51.5 60.5t32.5 62.5q1 6 1 12q0 41 -63 41q-139 0 -356 -254q-139 -164 -387 -499q-121 -164 -189 -263q-23 -31 -67 -90q-16 -18 -29 -12q-2 2 0 10q2 12 14 31 q178 281 517 725l143 188q129 170 233 291q27 31 33 43q2 6 -12 8h-19q-37 -2 -79 -41l-105 -94q-25 -23 -82 -76q-20 -20 -76 -71l-41 -37q-6 -6 -34 -35q-20 -18 -17 -22h1q11 0 112 90l39 34q45 41 84 78h2q-29 -37 -96 -123l-123 -155q-45 -57 -213 -285l-92 -125 q-106 -145 -205 -293q-68 -105 -68 -150v-7z" />
<glyph unicode="q" horiz-adv-x="561" d="M-328 -784q0 -41 39 -45h6q25 0 54 26q45 41 174 225q219 311 374 494q74 86 127 139l70 70q72 72 72 78q0 7 -29 -15q-78 -63 -254 -260q-96 -109 -266 -340q-111 -152 -187 -260q-67 -97 -88 -97q-2 0 -4 1q-2 2 -2 6q0 16 13 35q100 158 163 250q39 55 199 274 q33 45 273 363q78 104 126 157q10 12 11 19q0 14 -37 14q-33 0 -103 -78h-2q4 12 5 25q0 45 -48 53q-11 2 -23 2q-71 0 -183 -59q-125 -66 -181 -131q-6 -8 -2 -12q6 -6 20.5 6t24.5 22v-2q-47 -49 -55 -106q-1 -8 -1 -16q0 -29 18 -46q22 -20 60 -20h7q111 6 223 118v-2 q-8 -10 -102 -139l-225 -307q-141 -195 -240 -367q-27 -47 -27 -75zM47 42q0 46 115 159q131 129 186 129h2q39 0 37 -37q-4 -55 -141 -178q-106 -96 -172 -97q-27 0 -27 24z" />
<glyph unicode="r" horiz-adv-x="419" d="M-33 156q0 -2 2 -4q6 -6 27 10q37 35 135 127q14 14 33 35q8 -4 18 -5q6 -2 29 0q39 2 63 3q25 0 19 -19q-4 -10 -49 -45q-176 -141 -183 -217v-6q0 -47 64 -47q72 0 182 82q63 47 123 106q23 23 16 29q-2 2 -4 2q-8 0 -20 -17q-49 -43 -150 -118q-23 -16 -67 -35 q-6 -2 -12 -2q-4 0 -9 2q-5 5 -5 14q0 47 143 193q29 29 28 51v2q0 29 -47 37q-25 0 -70 4q-20 2 -22 12q-6 18 35 49q4 4 16 13q-8 20 -37 20q-33 0 -63.5 -20.5t-28.5 -51.5q0 -18 14 -28q-102 -102 -163 -158q-16 -10 -17 -18z" />
<glyph unicode="s" horiz-adv-x="466" d="M-55 61q14 -79 120 -79h3q186 0 366 155l45 39q23 20 17 27q-8 6 -27 -13l-55 -45q-76 -61 -170 -104v2q82 53 86 168q0 23 -2 84q-2 41 14 55q86 57 86 66q0 8 -27 8q-35 0 -59 -23q-14 -8 -33 -34q-74 -63 -168 -129q-49 -36 -49 -44q0 -2 4 -4q6 0 17 7q25 10 77 49 t99 78v-2q-14 -20 -45 -95q-35 -86 -47 -108q-63 -117 -142 -117q-59 0 -59 45v6q2 29 44 58.5t48 54.5q2 8 2 14q0 29 -37 29h-8q-35 0 -63 -30q-32 -34 -37 -75q-4 -23 0 -43z" />
<glyph unicode="t" horiz-adv-x="342" d="M-33 154q0 -6 6 -7q4 0 7.5 2.5t58.5 51.5q33 29 51 47v-2q-104 -137 -110 -203v-9q0 -48 61 -48q82 0 188 84q78 61 123 106q23 23 17 27q-6 6 -27 -13q-80 -80 -147 -118l-41 -25q-16 -10 -27 -12q-16 -4 -26.5 4t-8.5 24q0 18 43 93q61 106 115 166q35 2 61 2h86 q10 0 15 10q8 12 -29 12h-53q-29 0 -64 -2q18 23 62 76l63 76q74 90 125 133q-12 12 -31 12q-45 0 -129 -84q-115 -115 -192 -213q-16 -2 -29 -2h-29q-53 -2 -55 -12q-2 -8 6 -11q4 -2 17 0q37 2 73 3q-23 -20 -75 -68l-88 -80q-16 -12 -17 -20z" />
<glyph unicode="u" horiz-adv-x="655" d="M-31 154q0 -2 2 -4q4 -4 21 8q78 74 137 114q18 12 35 23v-2q-135 -129 -172 -209q-10 -23 -12 -39v-8q0 -49 67 -49q70 0 219 112q51 39 146 115l4 -4q-35 -35 -58 -61q-55 -66 -55 -113q0 -49 64 -49q68 0 176 82q66 49 123 106q20 20 16 27l-27 -13q-66 -66 -147 -120 q-54 -36 -79 -36q-7 0 -11 3q-4 4 -4 16q0 27 86 133q31 37 108 131q18 23 8 29q-12 4 -38 4q-33 0 -60 -22q-59 -51 -221 -178l-84 -62q-74 -53 -102 -53q-10 0 -17 6q-3 3 -3 9q0 20 38 73q39 55 103 134q63 77 63 83q0 9 -37 6q-84 -2 -252 -151q-37 -33 -37 -41z" />
<glyph unicode="v" horiz-adv-x="604" d="M-33 154q0 -2 2 -4q6 -6 27 12q82 80 135 117q16 12 57 28q16 0 17 -16q0 -29 -80 -129q-55 -70 -100 -119q-23 -16 -19 -37q4 -25 31 -24q27 0 59 10q102 31 207 90l86 49q8 -37 60 -39h5q54 0 107 39q73 54 73 69q0 2 -1 3h-1q-8 0 -77 -56q-56 -37 -95 -36h-9 q-39 4 -43 32q86 55 131 133q12 20 12 46q0 25 -19 28q-3 1 -7 1q-31 0 -70 -48q-33 -41 -52 -84q-14 -35 -16 -61q-35 -27 -90 -56q-115 -59 -184 -82v3l45 45q135 135 143 211q1 8 1 15q0 56 -56 56h-2q-53 0 -144 -69q-45 -35 -116 -107q-16 -12 -17 -20z" />
<glyph unicode="w" horiz-adv-x="872" d="M-31 154q0 -6 6 -7q6 0 17 11q66 61 143 118q31 23 53 33v-2q-180 -158 -196 -258q-1 -8 -1 -16q0 -47 56 -47q68 0 205 102q57 43 141 117l4 -4q-37 -43 -63 -81q-28 -41 -27 -78q0 -56 72 -56q92 0 231 96q23 16 52 39q14 -27 55 -29h5q55 0 112 41q10 8 38.5 38 t26.5 32q-6 6 -25 -13q-27 -25 -106 -71q-31 -10 -49 -8q-33 4 -41 24q90 76 129 141q14 25 12 48t-18 26q-3 1 -7 1q-37 0 -92 -77q-49 -70 -49 -127q-55 -68 -178 -116q-39 -16 -57 -4q-12 10 -8 28q4 16 8 25q41 78 135 190q35 41 35 54q0 3 -2 4q-10 4 -39 4 q-33 0 -111 -64q-51 -45 -102 -88l-60 -49q-27 -23 -71 -53q-53 -37 -78 -41q-29 -8 -29 20q0 35 76 125q41 49 123 131q20 20 16 27q-6 6 -39 6q-82 0 -176 -76q-16 -14 -47 -39l-43 -34q-10 -8 -23.5 -23.5t-13.5 -19.5z" />
<glyph unicode="x" horiz-adv-x="583" d="M-37 63v-10q0 -65 76 -65h2q37 0 86 39q43 35 66 73h2q-4 -16 -5 -30q0 -82 95 -82q72 0 159 61q16 12 33 25l66 53q57 45 57 59q0 2 -2 4q-1 1 -2 1q-10 0 -64 -50q-136 -123 -214 -123q-9 0 -17 2q-20 4 -22 21q-2 7 -2 15q0 29 24 67q66 109 152 172q18 14 34 14 q20 0 17 -14q-8 -12 -21 -39q-8 -33 31 -33q68 0 68 78q0 49 -60 49q-63 0 -162 -110h-2q4 16 4 28q0 82 -90 82q-74 0 -163 -69q-53 -41 -138 -119q-6 -8 -2 -12q6 -6 27 12q84 76 102 90q59 47 117 65q18 6 37 2q31 -2 24 -45q-10 -39 -65 -116q-99 -138 -149 -138h-3 q-23 0 -16 25q4 12 19.5 26.5t19.5 23.5t4 18q0 35 -43 34q-74 0 -80 -84z" />
<glyph unicode="y" horiz-adv-x="641" d="M-246 -784q0 -41 39 -45h6q25 0 54 26q51 47 174 225q197 285 374 494q88 102 199 209q70 67 70 77q0 13 -27 -12q-201 -178 -389 -419q-18 -25 -137 -187l-94 -129q-12 -16 -46 -63l-43 -64q-65 -98 -87 -98q-3 0 -5 2t-2 6q0 16 13 35l88 137q43 66 161 232 q29 39 113 155q125 170 180 244l211 278q16 20 6 27q-10 4 -37 4q-33 0 -59 -22q-109 -92 -219 -176q-61 -47 -156 -105q-16 -6 -28 -10q-23 -6 -23 10q0 10 8 29q29 45 131 176q66 84 66 88q0 8 -37 6q-68 -2 -135 -55q-4 -2 -117 -96q-37 -31 -37 -41q0 -2 2 -4q4 -4 21 8 q78 74 137 114q18 12 35 23v-2q-94 -88 -146 -170q-29 -47 -32 -78q-1 -5 -1 -10q0 -49 54 -49q66 0 227 116q61 43 158 123l6 -2l-410 -565q-152 -209 -239 -367q-27 -47 -27 -75z" />
<glyph unicode="z" horiz-adv-x="499" d="M-682 -758q0 -71 84 -71h2q178 0 526 305q201 176 297 360q35 66 35 123q0 23 -2 33q92 61 195 137q33 25 56.5 46.5t16.5 27.5q-4 4 -12 -2l-16 -11q-66 -59 -127 -100q-33 -23 -119 -80q-25 63 -100 68q-12 2 -27 0q-14 -2 -25 -6v2q49 20 172 82q113 59 177 139 q16 20 16 37q0 18 -21 14q-12 -2 -24 -6q-74 -35 -166 -35q-59 0 -59 29q0 23 34 45q0 20 -34 20q-72 0 -86 -65q-4 -18 -2 -31q-57 -53 -140 -141q-2 -4 -2 -6q0 -4 2 -5t6 -1q6 0 17 8q68 66 127 127q23 -37 98 -37q45 0 100 22q78 33 93 37q4 0 4 -4q2 -8 -8 -18 q-63 -68 -150 -115q-55 -27 -201 -100q-33 -16 -86 -62l-10 -18q-4 -10 4 -17q2 -2 6 -4q4 2 19 15q81 75 145 75h2q56 0 56 -71q0 -9 -1 -19q-96 -59 -331 -207q-279 -176 -451 -352q-90 -92 -90 -168zM-633 -752q16 139 281 340q113 86 219 154l250 160q29 18 67 45 q-18 -68 -125 -213q-197 -268 -430 -441q-137 -100 -215 -100h-2q-46 0 -46 44q0 5 1 11z" />
<glyph unicode="{" horiz-adv-x="604" d="M102 -55q0 -86 121 -113q47 -10 101 -10l12 12q-43 2 -90 14q-94 23 -94 84q0 47 112 185q70 84 84 106q51 78 47 123q-6 49 -30 76q119 6 184 63q88 76 199 287q49 92 108 121q84 41 186 41h41q53 -2 41 -2l13 16l-35 2q-35 2 -80 2q-238 0 -354 -186 q-47 -80 -98.5 -162t-108.5 -121q-72 -47 -176 -47v-2q66 -16 57 -84q-6 -43 -96 -155q-31 -39 -72 -93q-72 -94 -72 -157z" />
<glyph unicode="|" horiz-adv-x="294" d="M127 -512h41v2048h-41v-2048z" />
<glyph unicode="}" horiz-adv-x="604" d="M-285 -176l35 -2q35 -2 82 -2q199 0 295 108q43 49 119 172q70 115 121 168q92 96 208 86v2q-70 8 -59 78q6 49 92 150q141 166 142 245q0 84 -121 111q-37 8 -101 8l-10 -10q47 -4 90 -14q92 -25 92 -86q0 -45 -110 -181q-80 -96 -84 -106q-53 -74 -41 -117 q12 -45 41 -65q-195 -6 -340 -265q-78 -139 -121 -188q-68 -78 -235 -78h-82z" />
<glyph unicode="~" horiz-adv-x="628" d="M106 397q2 -4 3 -8q33 -66 104 -65q43 0 124 23.5t122 23.5q119 0 159 -58q12 -12 9 -12q6 0 4 12q-23 125 -166 125h-2q-39 0 -103 -22l-104 -37q-35 -12 -72 -12q-41 0 -65 30q-6 10 -10 9q-4 -4 -3 -9z" />
<glyph unicode="&#xa1;" d="M-203 -352q0 -10 23 -10h2q80 0 123 65q141 213 327 459q16 23 17 26q-2 4 -4 7q-10 4 -27 -15q-461 -483 -461 -532zM279 258q6 -16 28 -16h2q86 0 86 77q-2 20 -10 31q-53 0 -96 -55q-18 -23 -10 -37z" />
<glyph unicode="&#xa2;" horiz-adv-x="423" d="M45 -47q-2 -8 4 -10q10 -6 21 14q41 53 73 102q12 18 17 27q78 0 198 92q6 4 11 12q4 6 0 11q-2 2 -4 2l-21 -13q-82 -61 -143 -73q-12 -4 -21 2l205 309q12 -8 12 -25q-6 -20 -12 -38q-8 -27 -4 -39q4 -16 27 -17q23 0 43 24.5t22 49.5q6 59 -72 70l29 47q10 12 25 39 q4 8 -2 12q-14 6 -50 -45l-34 -51q-106 -8 -205 -90q-104 -88 -115 -191q-8 -78 80 -86q-39 -55 -84 -135zM137 166q0 82 109 196q68 72 110 72l-202 -309q-16 12 -17 41z" />
<glyph unicode="&#xa3;" horiz-adv-x="1044" d="M-76 41q-4 -31 78 -47q57 -12 107 -12q195 0 305 53q152 -55 227 -55q127 0 217 73q51 41 43 49q-2 2 -24 -12q-78 -49 -218 -47q-47 0 -180 33q154 92 248 188h74q119 0 119 10q0 6 -29 9q-43 2 -78 2h-68q29 31 109 123q16 20 27 32q238 0 354 95q57 47 57 79v2 q0 47 -65 48q-94 0 -205 -64q-94 -53 -170 -133h-29q-72 0 -123 27q-68 35 -67 98q0 84 82 96q6 0 4 4t-10 4t-13 -2q-84 -25 -84 -102q0 -135 215 -152q-8 -8 -65 -71l-39 -43q-18 -20 -39 -41q-113 4 -272 6q-39 0 -39 -17q0 -12 41 -12h139q53 0 115 2 q-115 -125 -211 -184q-158 35 -267 35q-174 0 -241 -39q-25 -14 -25 -35zM-59 43q6 37 198 37q109 0 252 -37q-94 -45 -276 -45h-2q-90 0 -152 22q-23 8 -20 23zM899 467q156 176 328 176q45 0 45 -27v-2q0 -57 -187 -114q-80 -25 -186 -33z" />
<glyph unicode="&#xa4;" horiz-adv-x="655" d="M10 12q0 -4 4 -6q6 -6 58 27q39 27 80 53q45 -51 114 -47q80 4 156 61q23 -37 61 -77q14 -29 29 -21q8 4 8 14q-2 8 -8 17q-23 43 -55 92q125 102 125 223v2q0 29 -13 53q61 45 101 91q4 4 4 6q0 8 -10 8q-8 0 -115 -74q-37 47 -113 45q-84 -2 -162 -57q-20 25 -61 78 q-12 25 -27 18q-10 -4 -8 -12q2 -10 8 -19q16 -31 54 -92q-123 -94 -123 -215q0 -43 12 -63q-119 -94 -119 -105zM195 166q0 86 67 182q72 104 154 105q86 0 86 -99v-2q0 -90 -68 -184q-72 -104 -158 -107q-82 -2 -81 105z" />
<glyph unicode="&#xa5;" horiz-adv-x="759" d="M20 137q0 -10 17 -10h35q-18 0 65 2h64q-35 -47 -105 -139q-16 -23 -16 -29q0 -8 10 -8t33 20q100 94 156 156h155q109 0 150 4q12 0 12 6t-37 8q-72 2 -256 7q8 8 22.5 23.5t22.5 23.5q18 12 43 30q258 0 320 7q12 0 12 8t-35 8l-141 2h-123q109 90 264 188 q172 111 281 154q80 31 127 31q2 0 19.5 -4t19.5 -2q8 20 -45 24q-141 12 -334 -102q-106 -63 -279 -209l-92 -78h-2q88 115 119 195q23 59 22 108q0 90 -116 90q-104 0 -189 -88q-12 -12 -4 -16q2 -2 40 26.5t40 28.5q39 20 80 21q53 0 61 -41q18 -96 -139 -324 q-133 6 -211 6q-53 0 -53 -20q0 -12 51 -13h41q37 2 57 2h99q-18 -27 -58 -77q-49 2 -90 2h-59q-53 0 -54 -21z" />
<glyph unicode="&#xa6;" horiz-adv-x="294" d="M127 358v-716h41v716h-41zM127 666h41v716h-41v-716z" />
<glyph unicode="&#xa7;" horiz-adv-x="729" d="M-59 -82q-12 -59 35 -95t108 -36h2q76 0 142.5 42t88.5 110q10 35 9 65q-2 25 -15 64q166 10 213 149q16 47 4 92q-20 53 -53 166q-2 12 -2 25q0 57 48 100t106 39q45 -2 49 -27q2 -6 -12 -26q-16 -27 -19 -29q-6 -14 -2 -33q4 -18 29 -22q47 -8 63 49q14 47 -16.5 75.5 t-79.5 30.5q-92 4 -164 -56t-63 -150q4 -41 12 -72q-72 0 -130 -39t-81 -104q-12 -25 -12 -54q0 -33 22 -98q27 -84 31 -100q10 -41 -12.5 -87.5t-60.5 -66.5t-87 -20q-82 0 -82 51q0 8 18.5 29.5t22.5 39.5q12 43 -35 52q-63 10 -77 -64zM266 197q-8 49 19.5 91t74.5 60 q27 10 68 10h2q4 -8 12 -28q14 -47 19 -78q12 -94 -72 -139q-41 -23 -88 -27q-14 35 -35 111z" />
<glyph unicode="&#xa8;" horiz-adv-x="628" d="M315 459q0 -18 7 -27q51 0 88 49q16 20 10 35q-6 12 -27 12h-2q-57 0 -69 -34q-8 -16 -7 -35zM518 459q0 -18 6 -27q51 0 88 49q16 20 13 35q-6 12 -27 12h-2q-78 0 -78 -69z" />
<glyph unicode="&#xa9;" horiz-adv-x="1042" d="M213 276q0 -135 99.5 -225t234.5 -90q133 0 232.5 90t99.5 223v2q0 133 -98.5 225.5t-233.5 92.5t-234.5 -91t-99.5 -227zM268 274q0 117 81 199t198 82q115 0 196.5 -82t81.5 -197v-2q0 -117 -80.5 -196.5t-197.5 -79.5t-198 80t-81 196zM373 272q0 -80 63 -127 q55 -41 139 -41q45 0 89 17q37 18 36 88h-24q-29 -76 -103 -76q-119 0 -118 146q0 141 123 141q86 0 90 -86h30v45q0 70 -120 70q-86 0 -145.5 -46.5t-59.5 -130.5z" />
<glyph unicode="&#xaa;" horiz-adv-x="538" d="M289 643q-4 -29 12 -43t47 -12q57 4 158 90h2q-23 -27 -19 -60q4 -31 46 -30q76 0 210 141q4 6 0 10q-2 2 -21 -14t-69 -57q-10 -8 -63 -43q-6 -2 -19 -7q-10 -4 -14 0t-4 11q0 27 68 108q18 25 67 84q18 23 -18 23q-31 -4 -70 -49h-2q12 41 -33 47q-78 10 -173 -57.5 t-105 -141.5zM358 629q-4 33 74 110q86 86 123 86h2q27 0 27 -24q-10 -39 -90 -112t-119 -73q-16 0 -17 13z" />
<glyph unicode="&#xab;" horiz-adv-x="571" d="M104 195q2 -2 11 -17q59 -94 86 -155q0 -14 10 -15h2q4 0 4 6v13q0 61 -39 163q51 31 121 101q43 43 33 49q-4 4 -17 -8q-84 -55 -147 -90l-41 -23q-23 -12 -23 -24zM276 195q2 -2 11 -17q68 -104 90 -164q2 -6 6 -6h2q8 0 6 19q-4 70 -41 163q57 35 123 101l27 26 q12 16 6 23q-6 4 -19 -8q-47 -37 -145 -90l-41 -23q-25 -10 -25 -24z" />
<glyph unicode="&#xac;" horiz-adv-x="935" d="M164 326q0 -12 39 -15q92 -2 254 -6l293 -8l-35 -49q-29 -39 -80 -111l-33 -47q-14 -37 -12 -39q12 -10 41 27q80 104 211 246q8 8 2 20q-8 12 -33 10q-272 -12 -469 -12q-94 0 -164 -4q-14 -4 -14 -10v-2z" />
<glyph unicode="&#xad;" horiz-adv-x="501" d="M78 176q0 -33 74 -33q27 0 77 9.5t76 9.5q61 0 82 -33q4 -6 8 -6q4 2 4 10q4 106 -90 107h-2q-33 0 -93 -34t-93 -34q-16 0 -33 8q-4 0 -4 2q-4 4 -6 -6z" />
<glyph unicode="&#xae;" horiz-adv-x="927" d="M205 586q0 -109 82 -184.5t192 -75.5q109 0 190 75.5t81 182.5v2q0 106 -81 184t-190 78q-111 0 -192.5 -77t-81.5 -185zM252 584q0 92 67.5 159.5t159.5 67.5t160 -66.5t68 -158.5v-2q0 -94 -67 -160t-161 -66t-160.5 65.5t-66.5 160.5zM342 455h150v22q-45 0 -46 55v35 h5q6 -2 10 -2q12 0 26 2q23 -41 76 -100q18 -12 41 -14q10 -2 24.5 -1t24.5 1v20q-49 10 -94 84l-18 31q47 23 47 61q0 70 -105 70h-141v-23q29 0 36 -9t7 -38v-114q0 -57 -43 -58v-22zM446 590v104q78 6 78 -47q0 -61 -78 -57z" />
<glyph unicode="&#xaf;" horiz-adv-x="628" d="M291 451q4 -4 18 -2q51 6 131 4q43 -2 144 -4q10 0 29.5 13t19.5 21v2q0 8 -27 11q-55 4 -127 2q-59 -2 -160 -17q-10 -2 -22 -15t-6 -15z" />
<glyph unicode="&#xb0;" horiz-adv-x="317" d="M162 446q0 -39 26.5 -64.5t65.5 -25.5q37 0 64.5 26t27.5 62v2q0 39 -26.5 67t-65.5 28t-65.5 -28t-26.5 -67zM193 444q0 25 18 43.5t43 18.5q61 0 61 -60v-2q0 -59 -61 -59t-61 59z" />
<glyph unicode="&#xb1;" horiz-adv-x="735" d="M57 123q4 -8 25 -8l276 4q74 0 252 6q10 2 11 8v2q0 8 -31 10l-486 19q-37 2 -47 -25q-4 -10 0 -16zM152 356q-8 -20 49 -20h106q55 0 107 2l-35 -47q-63 -86 -64 -101q0 -4 2 -6q12 -8 39 23l56 61q18 20 65 72q250 0 281 6q10 2 10 8q-4 10 -29.5 10.5t-234.5 6.5 q31 35 108 129q37 47 33 57q-4 8 -31 8h-2q-33 0 -96 -82q-37 -55 -76 -110l-245 8q-33 2 -43 -25z" />
<glyph unicode="&#xb2;" horiz-adv-x="391" d="M47 219q-4 -10 4 -10q16 8 25 16q18 12 41 13q16 0 51 -11q43 -18 74 -18q29 0 70.5 32.5t56.5 59.5l-4 4q-6 2 -13 -8q-39 -39 -76 -39q-12 0 -38.5 8t-36.5 10q-14 2 -25 0q-12 -2 -22 -6v2q125 39 227 123q53 43 53 99q0 51 -72 51q-51 0 -112 -41q-68 -45 -68 -94 q0 -31 29 -33q37 -2 37 14q0 6 -8 2q-18 -4 -25.5 6.5t-3.5 28.5q8 33 46 59.5t73 26.5q45 0 30 -47q-23 -76 -176 -166q-33 -16 -114 -63q-4 -4 -11.5 -9.5t-11.5 -9.5z" />
<glyph unicode="&#xb3;" horiz-adv-x="391" d="M74 268q-8 -59 82 -61q61 -2 123 31q92 49 83 120q-4 41 -59 41v2q133 35 133 105q0 39 -57 39q-72 0 -129 -53q-29 -27 -23 -50q4 -20 21 -20q2 2 0 6q-2 2 -2 6q-2 4 2 25q29 57 92 57q31 0 31 -24q0 -51 -113 -99q-27 -12 -22 -20q2 -2 22.5 5t26.5 7q16 -2 16 -20 t-10 -39q-49 -100 -133 -103q-16 0 -23 4q-12 4 -10 19q6 14 22 22q20 16 23 27q6 29 -35 29q-53 0 -61 -56z" />
<glyph unicode="&#xb4;" horiz-adv-x="628" d="M436 401q4 -4 13 0q70 37 149 95q23 16 31 26q16 16 22 35q4 18 -6 35q-4 10 -14 10h-2q-12 0 -66 -59q-72 -82 -117 -121z" />
<glyph unicode="&#xb5;" horiz-adv-x="655" d="M-119 -160q-4 -39 27 -57q10 -4 14 -2q4 4 2 10q-6 16 0 41q6 55 41 115q6 20 39 67q10 -27 43 -26q70 0 219 112q51 39 146 115l4 -4q-35 -35 -58 -61q-55 -66 -55 -113q0 -49 64 -49q68 0 176 82q66 49 123 106q20 20 16 27l-27 -13q-66 -66 -147 -120q-68 -45 -90 -33 q-4 4 -4 16q0 27 86 133q31 37 108 131q18 23 8 29q-12 4 -38 4q-33 0 -60 -22q-59 -51 -221 -178l-84 -62q-74 -53 -102 -53q-10 0 -17 6q-14 14 35 82q39 55 103.5 134t62.5 83q-4 8 -37 6q-84 -2 -252 -151q-37 -33 -37 -41q0 -2 2 -4q4 -4 21 8q78 74 137 114 q18 12 35 23v-2q-57 -57 -123 -139q-147 -184 -160 -314z" />
<glyph unicode="&#xb6;" horiz-adv-x="854" d="M-203 -16q0 -49 53 -74q43 -20 99 -21q100 0 215 76q8 -2 37 -2q131 0 311 184q63 63 217 259q66 82 170 217q39 -12 55 -25q4 -4 11 -6q6 -2 6 2q12 12 -60 41q137 160 232 168q23 6 48.5 -13.5t33.5 -19.5q27 0 22 18q0 31 -84 31h-2q-131 0 -299 -168q-55 14 -123 17 q-182 6 -319 -47q-188 -72 -189 -230q0 -63 42 -108t106 -54q-49 -63 -96 -114q-184 -207 -332 -207q-84 0 -78 41q0 8 18.5 29.5t22.5 39.5q12 43 -35 52q-39 6 -60.5 -20.5t-21.5 -65.5zM182 -18q16 8 29 18q35 23 131 127q55 61 256 309q55 70 94 111q74 80 111 92 q2 0 8 2h8q16 0 33 -6q-49 -47 -92 -100l-86 -107q-68 -90 -254 -311q-127 -139 -221 -140h-9q-6 2 -8 3v2zM324 324q-10 74 61 168q117 154 367 153h26v-2q-68 -27 -188 -158q-137 -152 -199 -241q-59 14 -67 80z" />
<glyph unicode="&#xb7;" horiz-adv-x="258" d="M109 254q0 -20 6 -31q55 0 98 56q16 20 10 38q-6 14 -30 15h-3q-90 0 -81 -78z" />
<glyph unicode="&#xb8;" horiz-adv-x="628" d="M-72 -156q0 -6 11 -22q31 -47 116 -51q49 -2 92 18q53 25 60 68q6 37 -27 59q-29 16 -67 16q-4 0 -13 -2h-12q31 39 66 62l-17 10q-25 -23 -86 -82q-14 -12 -8 -18q2 -2 18.5 3t18.5 5q31 2 49 -8.5t16 -38.5q-4 -63 -90 -64h-2q-43 0 -104 39q-14 14 -17 15q-4 -4 -4 -9 z" />
<glyph unicode="&#xb9;" horiz-adv-x="317" d="M98 213q2 -8 21 -4l35 8q29 6 131 139q59 80 121 162q16 20 14 25q-4 4 -12 2q-16 0 -52 -23q-119 -76 -157 -86q-10 -2 -9 -6q2 -4 17 -4q18 0 78 35q14 8 41 24v-2q-14 -8 -86 -88q-41 -45 -62 -71l-55 -70q-27 -33 -25 -41z" />
<glyph unicode="&#xba;" horiz-adv-x="538" d="M328 649q-6 -61 67 -61h2q70 0 164 67q4 -4 17 -4q55 0 127 72q14 14 8 20q-4 4 -19 -10q-61 -61 -94 -61q-8 -4 -14 -4t-13 4q72 59 80 110q2 41 -26 60q-6 2 -11 0q-4 -2 -2 -6q4 -8 4 -29q-2 -12 -6 -23q-43 -8 -63 -69q-4 -10 -8 -27q-80 -84 -133 -84q-23 0 -19 25 q6 51 82 123q35 33 102 77q2 2 9.5 4.5t7.5 6.5q-2 6 -23 4q-41 -6 -84 -23q-145 -55 -155 -172z" />
<glyph unicode="&#xbb;" horiz-adv-x="571" d="M49 8q2 -2 4 -2q57 41 160 100q12 6 57 31q4 2 6 8q-4 10 -30 62q-18 35 -68 129q-2 4 -6 4h-2q-8 0 -6 -21q4 -68 41 -161q-43 -27 -123 -101q-45 -41 -33 -49zM217 12q0 -2 2 -4l2 -2q-8 0 58 39l104 61q29 12 61 39q2 6 -30 62l-25 43q-27 49 -39 76q0 14 -10 14h-2 q-4 0 -4 -8v-13q0 -61 39 -161q-55 -33 -123 -101q-33 -33 -33 -45z" />
<glyph unicode="&#xbc;" horiz-adv-x="796" d="M82 -84q12 -8 33 16q272 317 579 619q43 43 49 55q6 10 -12 10h-2q-35 0 -88 -55q-258 -268 -545 -614q-20 -25 -14 -31zM100 215q2 -8 21 -4l35 8q29 6 131 139q59 80 121 162q16 20 14 25q-4 4 -12 2q-16 0 -52 -23q-119 -76 -157 -86q-10 -2 -8 -6t16 -4q18 0 78 35 q14 8 41 24v-2q-14 -8 -86 -88q-41 -45 -62 -71l-55 -70q-27 -33 -25 -41zM375 106q0 -12 14 -8l17 2q16 2 34 2q74 4 95 4l-35 -45q-49 -63 -45 -77q2 -4 22 -2q31 8 35 8q18 8 27 20q12 20 69 96q10 0 29 3q16 0 29 -3q27 0 28 3q0 6 -22 14l-49 6q16 25 135 182q4 4 4 8 q-2 2 -10 3q-45 0 -217 -109l-72 -45q-23 -14 -80 -49q-8 -6 -8 -10v-3zM426 125v2q33 16 55 33l66 43q16 10 133 78l4 -2q-14 -12 -133 -148q-45 0 -125 -6z" />
<glyph unicode="&#xbd;" horiz-adv-x="833" d="M82 -86q12 -8 33 16q272 317 579 619q43 43 49 55q6 10 -12 10h-2q-35 0 -88 -55q-258 -268 -545 -614q-20 -25 -14 -31zM100 213q2 -8 21 -4l35 8q29 6 131 139q59 80 121 162q16 20 14 25q-4 4 -12 2q-16 0 -52 -23q-119 -76 -157 -86q-10 -2 -8 -6t16 -4q18 0 78 35 q14 8 41 24v-2q-14 -8 -86 -88q-41 -45 -62 -71l-55 -70q-27 -33 -25 -41zM381 -12q0 -2 4 0q2 0 22.5 13t43.5 13q29 0 51 -10q66 -16 73 -16q51 0 123 86q4 2 4 4t-4 4t-12 -6q-39 -41 -76 -41q-12 0 -36.5 9t-38.5 9q-23 2 -46 -4v2q111 29 226 121q55 45 55 100 q0 49 -74 50q-53 0 -116.5 -43t-63.5 -93q0 -33 29 -32q39 -2 39 14q0 6 -11 2q-20 -4 -28 6q-6 10 0 31q8 33 46 58.5t73 25.5q45 0 30 -47q-25 -80 -176 -166q-43 -18 -115 -64q-27 -16 -22 -26z" />
<glyph unicode="&#xbe;" horiz-adv-x="860" d="M76 270q-8 -59 82 -61q61 -2 123 31q92 49 84 120q-4 41 -60 41v2q133 35 133 105q0 39 -57 39q-72 0 -129 -53q-29 -27 -23 -50q4 -20 21 -20q2 2 0 6q-2 2 -2 6q-2 4 2 25q29 57 92 57q31 0 31 -24q0 -51 -113 -99q-27 -12 -22 -20q2 -2 22.5 5t26.5 7q16 -2 16 -20 t-10 -39q-49 -100 -133 -103q-16 0 -23 4q-12 4 -10 19q6 14 23 22q20 16 22 27q6 29 -35 29q-53 0 -61 -56zM145 -84q12 -8 33 16q295 338 580 619q43 43 49 55q6 10 -12 10h-2q-35 0 -88 -55q-258 -268 -545 -614q-20 -25 -15 -31zM438 106q0 -6 4 -8t9 0q10 2 53 4l94 4 l-35 -45q-51 -68 -45 -77q2 -4 21 -2q29 6 34 8q20 8 29 20q41 61 70 96q10 0 26 3q16 0 31 -3q25 0 27 3q4 14 -45 18q-8 0 -27 2l59 78q27 35 78 104q4 4 4 8q-2 2 -10 3q-29 0 -84 -31q-41 -23 -205 -123l-63 -39q-25 -14 -25 -20v-3zM489 123v2l56 35l65 43 q59 39 133 78l2 -2q-8 -6 -131 -148q-72 0 -125 -8z" />
<glyph unicode="&#xbf;" d="M-170 -223q-20 -55 4.5 -95t83.5 -40h2q88 0 197 67q117 74 116 156q0 43 -36 51q-16 4 -23 -2q-2 -2 6 -8t10 -10q6 -12 7 -29q0 -70 -78 -131.5t-150 -54.5q-31 2 -45 26q-12 27 2 62q49 123 264 251q78 47 113 113q6 12 10 31q4 20 -6 20q-18 0 -39 -61 q-12 -37 -131 -98q-57 -29 -114 -60q-63 -35 -107 -69q-61 -49 -86 -119zM285 258q6 -16 28 -16h2q86 0 86 77q-2 20 -10 31q-53 0 -96 -55q-18 -23 -10 -37z" />
<glyph unicode="&#xc0;" horiz-adv-x="1406" d="M43 115q0 -125 180 -148q51 -6 113 -2q178 14 377 139q29 18 75 50q90 -82 256 -109q-10 -16 -16 -31q-4 -4 -4 -10q-4 -16 18 -20q51 -8 113 53q127 8 254 131q29 29 23 35t-35 -23q-70 -66 -115 -88q-63 -31 -117 -35q201 326 383 578q57 78 129 156q25 27 68 53 q18 6 35 6q23 0 46 -13.5t21 -13.5q4 4 0 13q-8 16 -39 30q-18 6 -47 6q-121 0 -288 -102q-152 -92 -361 -301q-72 143 -213 147q-100 2 -171 -56t-73 -159q0 -57 33 -124.5t80 -106.5q-242 -162 -426 -178q-63 -6 -117 4q-82 16 -84 63q0 23 40 54.5t44 64.5q0 70 -75 64 q-47 -4 -77 -40t-30 -85v-2zM731 397q8 123 98 172q31 16 70 17h2q123 0 193 -131q-39 -39 -295 -260q-39 47 -62 139q-8 35 -6 63zM813 174v2q131 106 217 189l72 67q16 -35 24 -117q4 -49 2 -88t-14 -63q-2 -2 -10 -17l-17 -26q-6 -10 -18 -29l-16 -26q-164 23 -240 108z M1122 449q35 35 129 124q213 197 381 258q49 18 88 23v-2q-141 -70 -295 -254q-90 -104 -233 -322q-23 -35 -47 -73h-2q10 59 6 114q-8 90 -27 132zM1593 1059q0 -27 29 -45q63 -41 197 -86l12 -4q8 -2 12 4q6 6 -12 16q-51 35 -184 141q-16 12 -25 13h-2q-4 0 -21 -17 q-6 -12 -6 -22z" />
<glyph unicode="&#xc1;" horiz-adv-x="1406" d="M43 115q0 -125 180 -148q51 -6 113 -2q178 14 377 139q29 18 75 50q90 -82 256 -109q-10 -16 -16 -31q-4 -4 -4 -10q-4 -16 18 -20q51 -8 113 53q127 8 254 131q29 29 23 35t-35 -23q-70 -66 -115 -88q-63 -31 -117 -35q201 326 383 578q57 78 129 156q25 27 68 53 q18 6 35 6q23 0 46 -13.5t21 -13.5q4 4 0 13q-8 16 -39 30q-18 6 -47 6q-121 0 -288 -102q-152 -92 -361 -301q-72 143 -213 147q-100 2 -171 -56t-73 -159q0 -57 33 -124.5t80 -106.5q-242 -162 -426 -178q-63 -6 -117 4q-82 16 -84 63q0 23 40 54.5t44 64.5q0 70 -75 64 q-47 -4 -77 -40t-30 -85v-2zM731 397q8 123 98 172q31 16 70 17h2q123 0 193 -131q-39 -39 -295 -260q-39 47 -62 139q-8 35 -6 63zM813 174v2q131 106 217 189l72 67q16 -35 24 -117q4 -49 2 -88t-14 -63q-2 -2 -10 -17l-17 -26q-6 -10 -18 -29l-16 -26q-164 23 -240 108z M1122 449q35 35 129 124q213 197 381 258q49 18 88 23v-2q-141 -70 -295 -254q-90 -104 -233 -322q-23 -35 -47 -73h-2q10 59 6 114q-8 90 -27 132zM1585 924q2 -4 12 -2q8 0 13 2q16 4 53 14l70 18q31 8 118 43q49 27 43 62q-4 23 -18 22h-2q-8 0 -135 -75 q-66 -39 -137 -68l-13 -8q-6 -4 -4 -8z" />
<glyph unicode="&#xc2;" horiz-adv-x="1406" d="M43 115q0 -125 180 -148q51 -6 113 -2q178 14 377 139q29 18 75 50q90 -82 256 -109q-10 -16 -16 -31q-4 -4 -4 -10q-4 -16 18 -20q51 -8 113 53q127 8 254 131q29 29 23 35t-35 -23q-70 -66 -115 -88q-63 -31 -117 -35q201 326 383 578q57 78 129 156q25 27 68 53 q18 6 35 6q23 0 46 -13.5t21 -13.5q4 4 0 13q-8 16 -39 30q-18 6 -47 6q-119 0 -284 -100q-154 -92 -365 -303q-72 143 -213 147q-100 2 -171 -56t-73 -159q0 -57 33 -124.5t80 -106.5q-242 -162 -426 -178q-63 -6 -117 4q-82 16 -84 63q0 23 40 54.5t44 64.5q0 70 -75 64 q-47 -4 -77 -40t-30 -85v-2zM731 397q8 123 98 172q31 16 70 17h2q123 0 193 -131q-39 -39 -295 -260q-39 47 -62 139q-8 35 -6 63zM813 174v2q131 106 217 189l72 67q16 -35 24 -117q4 -49 2 -88t-14 -63q-2 -2 -10 -17l-17 -26q-6 -10 -18 -29l-16 -26q-164 23 -240 108z M1122 449q35 35 129 124q213 197 381 258q49 18 88 23v-2q-141 -70 -295 -254q-90 -104 -233 -322q-23 -35 -47 -73h-2q10 59 6 114q-8 90 -27 132zM1499 905q4 -4 12 -2h11q137 45 211 84q49 -55 88 -74l12 -6q4 -2 6 -2q4 0 6 2q2 4 -6 17q-39 59 -70 135q-8 12 -10 12h-2 q-4 0 -65 -41q-84 -55 -179 -110q-16 -10 -14 -15z" />
<glyph unicode="&#xc3;" horiz-adv-x="1406" d="M43 115q0 -125 180 -148q51 -6 113 -2q178 14 377 139q29 18 75 50q90 -82 256 -109q-10 -16 -16 -31q-4 -4 -4 -10q-4 -16 18 -20q51 -8 113 53q127 8 254 131q29 29 23 35t-35 -23q-70 -66 -115 -88q-63 -31 -117 -35q201 326 383 578q57 78 129 156q25 27 68 53 q18 6 35 6q23 0 46 -13.5t21 -13.5q4 4 0 13q-8 16 -39 30q-18 6 -47 6q-121 0 -288 -102q-152 -92 -361 -301q-72 143 -213 147q-100 2 -171 -56t-73 -159q0 -57 33 -124.5t80 -106.5q-242 -162 -426 -178q-63 -6 -117 4q-82 16 -84 63q0 23 40 54.5t44 64.5q0 70 -75 64 q-47 -4 -77 -40t-30 -85v-2zM731 397q8 123 98 172q31 16 70 17h2q123 0 193 -131q-39 -39 -295 -260q-39 47 -62 139q-8 35 -6 63zM813 174v2q131 106 217 189l72 67q16 -35 24 -117q4 -49 2 -88t-14 -63q-2 -2 -10 -17l-17 -26q-6 -10 -18 -29l-16 -26q-164 23 -240 108z M1122 449q35 35 129 124q213 197 381 258q49 18 88 23v-2q-141 -70 -295 -254q-90 -104 -233 -322q-23 -35 -47 -73h-2q10 59 6 114q-8 90 -27 132zM1550 928q4 2 15 10q29 43 84 37q20 -2 61 -24.5t68 -22.5h2q68 0 116 86q2 4 7 12q0 6 -5 8q-4 4 -16 -10q-39 -43 -82 -39 q-23 2 -61.5 23.5t-63.5 23.5q-76 4 -123 -82q-12 -23 -2 -22z" />
<glyph unicode="&#xc4;" horiz-adv-x="1406" d="M43 115q0 -125 180 -148q51 -6 113 -2q178 14 377 139q29 18 75 50q90 -82 256 -109q-10 -16 -16 -31q-4 -4 -4 -10q-4 -16 18 -20q51 -8 113 53q127 8 254 131q29 29 23 35t-35 -23q-70 -66 -115 -88q-63 -31 -117 -35q201 326 383 578q57 78 129 156q25 27 68 53 q18 6 35 6q23 0 46 -13.5t21 -13.5q4 4 0 13q-8 16 -39 30q-18 6 -47 6q-119 0 -284 -100q-154 -92 -365 -303q-72 143 -213 147q-100 2 -171 -56t-73 -159q0 -57 33 -124.5t80 -106.5q-242 -162 -426 -178q-63 -6 -117 4q-82 16 -84 63q0 23 40 54.5t44 64.5q0 70 -75 64 q-47 -4 -77 -40t-30 -85v-2zM731 397q8 123 98 172q31 16 70 17h2q123 0 193 -131q-39 -39 -295 -260q-39 47 -62 139q-8 35 -6 63zM813 174v2q131 106 217 189l72 67q16 -35 24 -117q4 -49 2 -88t-14 -63q-2 -2 -10 -17l-17 -26q-6 -10 -18 -29l-16 -26q-164 23 -240 108z M1122 449q35 35 129 124q213 197 381 258q49 18 88 23v-2q-141 -70 -295 -254q-90 -104 -233 -322q-23 -35 -47 -73h-2q10 59 6 114q-8 90 -27 132zM1542 956q0 -18 10 -28q53 0 95 53q16 23 10 39q-6 14 -29 14h-2q-84 0 -84 -78zM1767 956q0 -18 7 -28q49 0 98 53 q16 23 10 39q-6 14 -29 14h-2q-92 0 -84 -78z" />
<glyph unicode="&#xc5;" horiz-adv-x="1406" d="M43 115q0 -125 180 -148q51 -6 113 -2q178 14 377 139q29 18 75 50q90 -82 256 -109q-10 -16 -16 -31q-4 -4 -4 -10q-4 -16 18 -20q51 -8 113 53q127 8 254 131q29 29 23 35t-35 -23q-70 -66 -115 -88q-63 -31 -117 -35q201 326 383 578q57 78 129 156q25 27 68 53 q18 6 35 6q23 0 46 -13.5t21 -13.5q4 4 0 13q-8 16 -39 30q-18 6 -47 6q-121 0 -288 -102q-152 -92 -361 -301q-72 143 -213 147q-100 2 -171 -56t-73 -159q0 -57 33 -124.5t80 -106.5q-242 -162 -426 -178q-63 -6 -117 4q-82 16 -84 63q0 23 40 54.5t44 64.5q0 70 -75 64 q-47 -4 -77 -40t-30 -85v-2zM731 397q8 123 98 172q31 16 70 17h2q123 0 193 -131q-39 -39 -295 -260q-39 47 -62 139q-8 35 -6 63zM813 174v2q131 106 217 189l72 67q16 -35 24 -117q4 -49 2 -88t-14 -63q-2 -2 -10 -17l-17 -26q-6 -10 -18 -29l-16 -26q-164 23 -240 108z M1122 449q35 35 129 124q213 197 381 258q49 18 88 23v-2q-141 -70 -295 -254q-90 -104 -233 -322q-23 -35 -47 -73h-2q10 59 6 114q-8 90 -27 132zM1649 1010q0 -90 88 -90q37 0 63.5 25.5t26.5 62.5v2q0 37 -26.5 64.5t-63.5 27.5t-62.5 -27.5t-25.5 -64.5zM1688 1010 q0 49 49 49q51 0 51 -47v-2q0 -51 -51 -52q-49 0 -49 52z" />
<glyph unicode="&#xc6;" horiz-adv-x="1867" d="M43 115q0 -125 180 -148q51 -6 113 -2q176 14 375 139q29 18 75 50q84 -78 238 -86q84 -4 143 22q27 -158 267 -147q147 6 295 104q47 31 108 88q8 6 31 35q4 6 0 10q-6 4 -13 -2l-10 -10q-193 -193 -393 -193q-168 0 -168 134q0 25 6 55q45 219 285 293q47 -55 164 -56 q113 0 112 39q0 43 -114 52q-29 2 -54 0q-33 -2 -47 -7q0 92 64 164q12 14 24 29q158 158 314 149q174 -8 174 -110q0 -74 -101 -105q-74 -25 -159 -18q-68 4 -101 37q-8 10 -12 10q-4 -2 -4 -4q2 -6 6 -10q29 -41 115 -49q31 -2 61 -3q143 0 215 76q27 29 27 68v2 q0 63 -86 100q-63 27 -141 29q-43 2 -121 -6q-31 10 -82 10q-295 0 -651 -315q-6 -6 -64 -60q-80 133 -215 137q-102 4 -172 -55t-72 -160q0 -59 32 -124.5t79 -106.5q-229 -160 -424 -178q-63 -6 -117 4q-82 16 -84 63q0 23 40 54.5t44 64.5q0 70 -75 64q-49 -4 -78 -41 t-29 -86zM731 395q8 123 98 172q31 16 70 17h2q121 0 195 -121q-84 -84 -232 -213l-65 -57q-39 47 -62 139q-8 35 -6 63zM813 174q158 133 297 264q51 -121 57 -264q-4 -16 -4 -33q0 1 0 -30q-68 -27 -139 -21q-145 14 -211 84zM1128 453q141 135 248 209q246 172 451 172 h51v-3q-172 -35 -268 -141q-61 -68 -62 -153q0 -39 15 -62q-152 -31 -230 -82q-111 -74 -147 -178h-2q0 133 -56 238zM1640 467q20 4 50 4h45q78 0 77 -27v-2q0 -31 -81 -24q-74 6 -91 49z" />
<glyph unicode="&#xc7;" horiz-adv-x="794" d="M27 -190q0 -6 10 -23q31 -47 117 -51q51 -2 92 16q51 23 57 70q10 76 -94 76q-10 0 -23 -4q8 14 45 45q49 -10 115 -9q147 4 309 117q57 39 111 88q14 12 31 35q2 6 -2 10q-6 6 -23 -12q-47 -53 -125 -105q-156 -104 -297 -104q-176 0 -176 166q0 111 90 252 q74 115 176 207q111 -82 308 -82h2q223 0 344 106q51 45 51 111q0 133 -240 125q-55 -2 -110 -17q-88 127 -250 127q-86 0 -147.5 -53t-61.5 -137q0 -66 49 -129q-346 -260 -334 -498q8 -156 158 -194q-57 -47 -68 -68q-2 -2 -2 -4t2 -4q4 -4 13 0q10 4 24 6 q25 2 41.5 -10.5t11.5 -36.5q-10 -53 -84 -55q-45 -2 -100 32q-14 14 -16 15q-4 -4 -4 -8zM358 760v2q0 74 47.5 120t120.5 46q135 0 234 -111q-190 -53 -357 -168q-45 53 -45 111zM453 598q152 137 319 201q29 -39 37 -84q6 -18 10 -19q6 0 6 25q-6 55 -22 86q45 20 106 22 q158 4 158 -102q0 -92 -109 -154q-90 -51 -206 -51h-2q-199 0 -297 76z" />
<glyph unicode="&#xc8;" horiz-adv-x="792" d="M53 113q0 -193 291 -183q170 6 350 148q35 27 68 57q14 12 33 35q2 6 -2 10q-8 4 -23 -12q-49 -53 -125 -105q-156 -104 -299 -104q-74 0 -123 39t-45 111q8 115 121 225q88 84 186 123q43 -55 164 -56q111 0 113 39q2 43 -111 52q-29 2 -53 0q-33 -2 -47 -7q-2 10 -2 21 q0 23 8 45q8 31 31 59q115 -55 286 -55q199 0 283 102q25 29 25 64q0 119 -211 129q-55 2 -152 -12q-100 123 -250 112q-66 -4 -106 -39q-47 -39 -47 -100q0 -88 88 -154q-43 -61 -43 -116v-2q0 -39 16 -66q-295 -70 -393 -250q-31 -57 -31 -110zM438 813q0 109 127 119 q119 8 215 -103h-2q-141 -39 -223 -112q-18 -16 -37 -41q-80 68 -80 137zM557 469v2q20 4 49 4h45q74 0 74 -29q-4 -29 -74 -24q-82 6 -94 47zM598 629q55 72 135 125q43 29 72 43q27 -37 55 -131q4 -2 6 12q8 57 -28 131q74 27 139 25q160 -4 156 -113q-2 -76 -99 -115 q-74 -31 -162 -31h-2q-170 0 -272 54zM862 1059q0 -27 29 -45q63 -41 196 -86q6 -2 13 -4q8 -2 12 4q6 6 -12 16q-51 35 -185 141q-16 12 -24 13h-2q-4 0 -21 -17q-6 -12 -6 -22z" />
<glyph unicode="&#xc9;" horiz-adv-x="792" d="M53 113q0 -193 291 -183q170 6 350 148q35 27 68 57q14 12 33 35q2 6 -2 10q-8 4 -23 -12q-49 -53 -125 -105q-156 -104 -299 -104q-74 0 -123 39t-45 111q8 115 121 225q88 84 186 123q43 -55 164 -56q111 0 113 39q2 43 -111 52q-29 2 -53 0q-33 -2 -47 -7q-2 10 -2 21 q0 23 8 45q8 31 31 59q115 -55 286 -55q199 0 283 102q25 29 25 64q0 119 -211 129q-55 2 -152 -12q-100 123 -250 112q-66 -4 -106 -39q-47 -39 -47 -100q0 -88 88 -154q-43 -61 -43 -116v-2q0 -39 16 -66q-295 -70 -393 -250q-31 -57 -31 -110zM438 813q0 109 127 119 q119 8 215 -103h-2q-141 -39 -223 -112q-18 -16 -37 -41q-80 68 -80 137zM557 469v2q20 4 49 4h45q74 0 74 -29q-4 -29 -74 -24q-82 6 -94 47zM598 629q55 72 135 125q43 29 72 43q27 -37 55 -131q4 -2 6 12q8 57 -28 131q74 27 139 25q160 -4 156 -113q-2 -76 -99 -115 q-74 -31 -162 -31h-2q-170 0 -272 54zM911 924q2 -4 13 -2q8 0 12 2q16 4 53 14l70 18q31 8 119 43q49 27 43 62q-4 23 -19 22h-2q-8 0 -135 -75q-66 -39 -137 -68l-13 -8q-6 -4 -4 -8z" />
<glyph unicode="&#xca;" horiz-adv-x="792" d="M53 113q0 -193 291 -183q170 6 350 148q35 27 68 57q14 12 33 35q2 6 -2 10q-8 4 -23 -12q-49 -53 -125 -105q-156 -104 -299 -104q-74 0 -123 39t-45 111q8 115 121 225q88 84 186 123q43 -55 164 -56q111 0 113 39q2 43 -111 52q-29 2 -53 0q-33 -2 -47 -7q-2 10 -2 21 q0 23 8 45q8 31 31 59q115 -55 286 -55q199 0 283 102q25 29 25 64q0 119 -211 129q-55 2 -152 -12q-100 123 -250 112q-66 -4 -106 -39q-47 -39 -47 -100q0 -88 88 -154q-43 -61 -43 -116v-2q0 -39 16 -66q-295 -70 -393 -250q-31 -57 -31 -110zM438 813q0 109 127 119 q119 8 215 -103h-2q-141 -39 -223 -112q-18 -16 -37 -41q-80 68 -80 137zM557 469v2q20 4 49 4h45q74 0 74 -29q-4 -29 -74 -24q-82 6 -94 47zM598 629q55 72 135 125q43 29 72 43q27 -37 55 -131q4 -2 6 12q8 57 -28 131q74 27 139 25q160 -4 156 -113q-2 -76 -99 -115 q-74 -31 -162 -31h-2q-170 0 -272 54zM831 905q4 -4 13 -2h10q137 45 211 84q49 -55 88 -74l12 -6q4 -2 6 -2q4 0 7 2q2 4 -7 17q-39 59 -69 135q-8 12 -10 12h-2q-4 0 -66 -41q-84 -55 -178 -110q-16 -10 -15 -15z" />
<glyph unicode="&#xcb;" horiz-adv-x="792" d="M53 113q0 -193 291 -183q170 6 350 148q35 27 68 57q14 12 33 35q2 6 -2 10q-8 4 -23 -12q-49 -53 -125 -105q-156 -104 -299 -104q-74 0 -123 39t-45 111q8 115 121 225q88 84 186 123q43 -55 164 -56q111 0 113 39q2 43 -111 52q-29 2 -53 0q-33 -2 -47 -7q-2 10 -2 21 q0 23 8 45q8 31 31 59q115 -55 286 -55q199 0 283 102q25 29 25 64q0 119 -211 129q-55 2 -152 -12q-100 123 -250 112q-66 -4 -106 -39q-47 -39 -47 -100q0 -88 88 -154q-43 -61 -43 -116v-2q0 -39 16 -66q-295 -70 -393 -250q-31 -57 -31 -110zM438 813q0 109 127 119 q119 8 215 -103h-2q-141 -39 -223 -112q-18 -16 -37 -41q-80 68 -80 137zM557 469v2q20 4 49 4h45q74 0 74 -29q-4 -29 -74 -24q-82 6 -94 47zM598 629q55 72 135 125q43 29 72 43q27 -37 55 -131q4 -2 6 12q8 57 -28 131q74 27 139 25q160 -4 156 -113q-2 -76 -99 -115 q-74 -31 -162 -31h-2q-170 0 -272 54zM862 956q0 -18 10 -28q53 0 95 53q16 23 10 39q-6 14 -29 14h-2q-84 0 -84 -78zM1087 956q0 -18 7 -28q49 0 98 53q16 23 10 39q-6 14 -28 14h-3q-92 0 -84 -78z" />
<glyph unicode="&#xcc;" horiz-adv-x="901" d="M-37 123q0 -123 160 -152q45 -8 90 -8q387 0 719 430q14 18 94 135l49 72q35 51 133 176q43 51 99 76q10 4 14 16q2 12 -10 17q-6 2 -41 -13q-18 -8 -189 -47q-479 -111 -479 -286q0 -86 98 -86q39 0 72 26q14 14 10 23q-2 2 -20 -10q-29 -18 -55 -19q-55 0 -56 53 q0 72 101 144q72 51 163 84q100 37 263 73q37 8 77 21v-2q-129 -59 -233 -189q-94 -123 -352 -428q-223 -246 -463 -245q-43 0 -84 14q-53 18 -53 53q0 23 14 37l25 25q35 29 38 61q8 72 -69 72q-49 0 -82 -37t-33 -86zM1094 1057q0 -27 28 -45q63 -41 197 -86l12 -4 q8 -2 12 4q6 6 -12 16q-51 35 -184 141q-16 12 -25 13h-2q-4 0 -20 -17q-6 -12 -6 -22z" />
<glyph unicode="&#xcd;" horiz-adv-x="901" d="M-37 123q0 -123 160 -152q45 -8 90 -8q387 0 719 430q14 18 94 135l49 72q35 51 133 176q43 51 99 76q10 4 14 16q2 12 -10 17q-6 2 -41 -13q-18 -8 -189 -47q-479 -111 -479 -286q0 -86 98 -86q39 0 72 26q14 14 10 23q-2 2 -20 -10q-29 -18 -55 -19q-55 0 -56 53 q0 72 101 144q72 51 163 84q100 37 263 73q37 8 77 21v-2q-129 -59 -233 -189q-94 -123 -352 -428q-223 -246 -463 -245q-43 0 -84 14q-53 18 -53 53q0 23 14 37l25 25q35 29 38 61q8 72 -69 72q-49 0 -82 -37t-33 -86zM1096 922q2 -4 12 -2q8 0 12 2q16 4 54 14l69 18 q31 8 119 43q49 27 43 62q-4 23 -19 22h-2q-8 0 -135 -75q-66 -39 -137 -68l-12 -8q-6 -4 -4 -8z" />
<glyph unicode="&#xce;" horiz-adv-x="901" d="M-37 123q0 -123 160 -152q45 -8 90 -8q387 0 719 430q14 18 94 135l49 72q35 51 133 176q43 51 99 76q10 4 14 16q2 12 -10 17q-6 2 -41 -13q-18 -8 -189 -47q-479 -111 -479 -286q0 -86 98 -86q39 0 72 26q14 14 10 23q-2 2 -20 -10q-29 -18 -55 -19q-55 0 -56 53 q0 72 101 144q72 51 163 84q100 37 263 73q37 8 77 21v-2q-121 -55 -233 -189q-55 -66 -156 -194l-14 -19q-158 -203 -279 -303q-188 -158 -366 -157q-43 0 -84 14q-53 18 -53 53q0 23 14 37l25 25q35 29 38 61q8 72 -69 72q-49 0 -82 -37t-33 -86zM1042 903q4 -4 13 -2h10 q137 45 211 84q49 -55 88 -74l12 -6q4 -2 6 -2q4 0 7 2q2 4 -7 17q-39 59 -69 135q-8 12 -10 12h-3q-4 0 -65 -41q-84 -55 -178 -110q-16 -10 -15 -15z" />
<glyph unicode="&#xcf;" horiz-adv-x="901" d="M-37 123q0 -123 160 -152q45 -8 90 -8q387 0 719 430q14 18 94 135l49 72q35 51 133 176q43 51 99 76q10 4 14 16q2 12 -10 17q-6 2 -41 -13q-18 -8 -189 -47q-479 -111 -479 -286q0 -86 98 -86q39 0 72 26q14 14 10 23q-2 2 -20 -10q-29 -18 -55 -19q-55 0 -56 53 q0 72 101 144q72 51 163 84q100 37 263 73q37 8 77 21v-2q-129 -59 -233 -189q-94 -123 -352 -428q-223 -246 -463 -245q-43 0 -84 14q-53 18 -53 53q0 23 14 37l25 25q35 29 38 61q8 72 -69 72q-49 0 -82 -37t-33 -86zM1028 954q0 -18 10 -28q53 0 95 53q16 23 10 39 q-6 14 -29 14h-2q-84 0 -84 -78zM1253 954q0 -18 7 -28q49 0 98 53q16 23 10 39q-6 14 -29 14h-2q-92 0 -84 -78z" />
<glyph unicode="&#xd0;" horiz-adv-x="1378" d="M-90 18q0 -37 194 -36h129q74 0 203 12q102 -10 281 -10q170 0 317 57q170 66 256 190q74 109 72 240q-2 127 -94 234q135 117 313 116q47 0 133 -43q8 8 -18 31q-49 31 -115 31q-139 0 -276 -78q-35 -20 -58 -35q-121 102 -325 129q-63 8 -129 8q-182 0 -353 -63 q-195 -72 -293 -199q-61 -80 -63 -172q-4 -188 238 -201q121 -6 234.5 51.5t170.5 159.5q33 57 33 115q0 111 -115 117q-90 6 -151 -66q-35 -41 -25 -47q4 6 37 41q55 57 133 53q90 -4 90 -94v-2q0 -125 -143 -223q-135 -92 -262 -84q-156 10 -154 164q2 199 221 325 q188 106 402 107q285 0 424 -139q-199 -133 -363 -351h-94q-31 0 -31 -14q0 -12 33 -12h72l-80 -97q-139 -168 -273 -206q-170 27 -274 30q-291 10 -297 -39zM512 20v3q152 49 252 118.5t207 194.5h67q74 0 97 4q6 0 6 4q0 8 -8 8h-13q-16 0 -41 2h-30h-62q55 78 197 267 q31 41 55 63q59 -78 49 -192q-10 -117 -84 -218q-197 -270 -520 -270q-10 0 -139 12q-25 2 -33 4z" />
<glyph unicode="&#xd1;" horiz-adv-x="1320" d="M-180 98q0 -127 164 -151q45 -6 90 -6q274 6 590 243q193 145 340 340q49 63 77 121h2q-18 -49 -24 -143q-2 -49 -10 -148q-16 -182 -68 -327q-6 -16 -8 -33q-2 -14 12 -23q20 -12 51 33l117 166q227 324 425 531.5t374 207.5q94 0 116 -55q14 -20 11 -20q6 0 6 20 q0 51 -37 83t-90 32q-164 0 -416 -269q-127 -135 -330 -409q-55 -76 -106 -150h-2q41 100 57 310q10 123 27 249q18 70 49 115q8 12 4 21q-6 8 -24 6q-39 -4 -82 -64q-16 -23 -39 -65q-131 -250 -373 -455q-254 -215 -514 -274q-72 -16 -133 -17q-152 0 -139 68q2 18 14 31 l26 24q35 33 37 68q2 68 -80 67q-47 0 -80.5 -39t-33.5 -86v-2zM1333 928q4 2 15 10q29 43 84 37q20 -2 61 -24.5t68 -22.5h2q68 0 116 86q2 4 7 12q0 6 -5 8q-4 4 -16 -10q-39 -43 -82 -39q-23 2 -61.5 23.5t-63.5 23.5q-76 4 -123 -82q-12 -23 -2 -22z" />
<glyph unicode="&#xd2;" horiz-adv-x="833" d="M27 135q18 -164 204 -166q141 -2 295 86q262 152 367 394q39 90 45 153q12 137 -82 148q-106 10 -258 -97q-121 -86 -207 -194q-145 -180 -133 -350q4 -66 35 -89q8 -8 12 -8q2 0 4 2q-2 2 -8 15q-23 37 -22 75v2q0 141 151 332q166 209 334 275q51 20 90 16 q53 -4 45 -78q-16 -147 -180 -352q-256 -319 -467 -311q-111 4 -127 102t51 238q55 109 139 207q94 109 246 198q172 100 293 96q119 -4 129 -88q6 -51 -20 -90q-10 -14 -17 -24q2 -2 4 -2q8 0 27 18q35 45 29 100q-10 104 -152 113q-158 8 -334 -72q-162 -74 -284 -194 q-233 -231 -209 -455zM750 1055q0 -27 28 -45q63 -41 197 -86l12 -4q8 -2 12 4q6 6 -12 16q-51 35 -184 141q-16 12 -25 13h-2q-4 0 -20 -17q-6 -12 -6 -22z" />
<glyph unicode="&#xd3;" horiz-adv-x="833" d="M27 135q18 -164 204 -166q141 -2 295 86q262 152 367 394q39 90 45 153q12 137 -82 148q-106 10 -258 -97q-121 -86 -207 -194q-145 -180 -133 -350q4 -66 35 -89q8 -8 12 -8q2 0 4 2q-2 2 -8 15q-23 37 -22 75v2q0 141 151 332q166 209 334 275q51 20 90 16 q53 -4 45 -78q-16 -147 -180 -352q-256 -319 -467 -311q-111 4 -127 102t51 238q55 109 139 207q94 109 246 198q172 100 293 96q119 -4 129 -88q6 -51 -20 -90q-10 -14 -17 -24q2 -2 4 -2q8 0 27 18q35 45 29 100q-10 104 -152 113q-158 8 -334 -72q-162 -74 -284 -194 q-233 -231 -209 -455zM735 920q2 -4 13 -2q8 0 12 2q16 4 53 14l70 18q31 8 118 43q49 27 43 62q-4 23 -18 22h-2q-8 0 -135 -75q-66 -39 -137 -68l-13 -8q-6 -4 -4 -8z" />
<glyph unicode="&#xd4;" horiz-adv-x="833" d="M27 135q18 -164 204 -166q141 -2 295 86q262 152 367 394q39 90 45 153q12 137 -82 148q-106 10 -258 -97q-121 -86 -207 -194q-145 -180 -133 -350q4 -66 35 -89q8 -8 12 -8q2 0 4 2q-2 2 -8 15q-23 37 -22 75v2q0 141 151 332q166 209 334 275q51 20 90 16 q53 -4 45 -78q-16 -147 -180 -352q-256 -319 -467 -311q-111 4 -127 102t51 238q55 109 139 207q94 109 246 198q172 100 293 96q119 -4 129 -88q6 -51 -20 -90q-10 -14 -17 -24q2 -2 4 -2q8 0 27 18q35 45 29 100q-10 104 -152 113q-158 8 -334 -72q-162 -74 -284 -194 q-233 -231 -209 -455zM639 901q4 -4 12 -2h11q137 45 210 84q49 -55 89 -74l12 -6q4 -2 6 -2q4 0 6 2q2 4 -6 17q-39 59 -70 135q-8 12 -10 12h-2q-4 0 -66 -41q-84 -55 -178 -111q-16 -10 -14 -14z" />
<glyph unicode="&#xd5;" horiz-adv-x="833" d="M27 135q18 -164 204 -166q141 -2 295 86q262 152 367 394q39 90 45 153q12 137 -82 148q-106 10 -258 -97q-121 -86 -207 -194q-145 -180 -133 -350q4 -66 35 -89q8 -8 12 -8q2 0 4 2q-2 2 -8 15q-23 37 -22 75v2q0 141 151 332q166 209 334 275q51 20 90 16 q53 -4 45 -78q-16 -147 -180 -352q-256 -319 -467 -311q-111 4 -127 102t51 238q55 109 139 207q94 109 246 198q172 100 293 96q119 -4 129 -88q6 -51 -20 -90q-10 -14 -17 -24q2 -2 4 -2q8 0 27 18q35 45 29 100q-10 104 -152 113q-158 8 -334 -72q-162 -74 -284 -194 q-233 -231 -209 -455zM711 924q4 2 14 10q29 43 84 37q20 -2 61 -24.5t68 -22.5h2q68 0 117 86l6 12q0 6 -4 8q-4 4 -17 -10q-39 -43 -81 -39q-23 2 -62 23.5t-63 23.5q-76 4 -123 -82q-12 -23 -2 -22z" />
<glyph unicode="&#xd6;" horiz-adv-x="833" d="M27 135q18 -164 204 -166q141 -2 295 86q262 152 367 394q39 90 45 153q12 137 -82 148q-106 10 -258 -97q-121 -86 -207 -194q-145 -180 -133 -350q4 -66 35 -89q8 -8 12 -8q2 0 4 2q-2 2 -8 15q-23 37 -22 75v2q0 141 151 332q166 209 334 275q51 20 90 16 q53 -4 45 -78q-16 -147 -180 -352q-256 -319 -467 -311q-111 4 -127 102t51 238q55 109 139 207q94 109 246 198q172 100 293 96q119 -4 129 -88q6 -51 -20 -90q-10 -14 -17 -24q2 -2 4 -2q8 0 27 18q35 45 29 100q-10 104 -152 113q-158 8 -334 -72q-162 -74 -284 -194 q-233 -231 -209 -455zM694 952q0 -18 11 -28q53 0 94 53q16 23 10 39q-6 14 -29 14h-2q-84 0 -84 -78zM920 952q0 -18 6 -28q49 0 98 53q16 23 10 39q-6 14 -28 14h-2q-92 0 -84 -78z" />
<glyph unicode="&#xd7;" horiz-adv-x="643" d="M18 25q2 -2 5 -2q10 0 167 106l138 92q20 -57 59 -170q6 -29 21 -22q6 4 0 39q-8 41 -41 180l159 108q45 31 103.5 73t62.5 50q2 10 -26 13q-33 4 -105 -48q-39 -33 -203 -155l-2 -2q-10 49 -39 176q-8 41 -41 22q-37 -20 -18 -67q16 -45 57 -162q-76 -57 -227 -170 q-76 -55 -70 -61z" />
<glyph unicode="&#xd8;" horiz-adv-x="833" d="M-2 -184q6 -6 22 10l35 35q31 33 95 96l18 20q27 -8 63 -8q139 -2 293 86q260 147 367 394q37 82 43 153q2 29 -10 88q-16 70 -35 62q10 10 12 -23q2 -23 2 -43q2 -14 -2 -35q-31 -162 -182 -352q-250 -317 -467 -311q-37 0 -62 14l730 813q57 -20 63 -74q6 -49 -20 -90 q-10 -16 -17 -24q2 -2 6 -2q8 0 21 20q39 45 33 98q-6 61 -68 93l59 67q27 31 58 68q14 14 14 22q0 6 -6 11q-16 10 -96 -86q-31 -37 -62 -70q-10 6 -51 8q-158 10 -336 -70q-162 -74 -282 -196q-211 -213 -211 -420q0 -141 114 -184l-16 -19q-23 -27 -84 -92 q-47 -51 -41 -59zM125 90q-14 100 53 238q53 109 137 207q94 109 246 198q170 100 293 96q20 0 33 -4l-719 -809q-35 23 -43 74z" />
<glyph unicode="&#xd9;" horiz-adv-x="1130" d="M119 395q8 -96 102 -100q43 -2 84 27q35 23 25 32q4 -4 -31 -20q-27 -23 -74 -21q-74 2 -73 84q0 104 163 267q180 178 357 178q92 0 92 -56q0 -78 -232 -340q-66 -74 -151 -174q-98 -123 -109 -196q-14 -94 90 -94q92 0 244 104q119 82 225 188h3q-90 -127 -91 -196 q0 -90 97 -90q92 0 237 129l56 49q23 20 16 27q-6 6 -29 -13q-176 -158 -243 -157q-41 0 -41 34q0 92 258 410q10 12 28 35q88 66 178 133q115 88 162 139q29 31 35 62q6 27 -22 30q-27 4 -86 -30q-160 -92 -394 -351l-61 -67l-74 -84q-154 -174 -350 -281q-68 -37 -102 -33 q-35 10 -29 50q12 74 260 352q84 94 123 149q74 104 76 172q4 117 -166 117q-82 0 -189 -37q-223 -78 -325 -276q-45 -88 -39 -152zM983 1032q0 -27 29 -45q63 -41 196 -86q6 -2 13 -4q8 -2 12 4q6 6 -12 17q-51 35 -185 141q-16 12 -24 12h-2q-4 0 -21 -16q-6 -12 -6 -23z M1176 565v2q96 106 184 201q84 88 110 78q6 -2 7 -10q0 -49 -183 -181q-76 -55 -118 -90z" />
<glyph unicode="&#xda;" horiz-adv-x="1130" d="M119 395q8 -96 102 -100q43 -2 84 27q35 23 25 32q4 -4 -31 -20q-27 -23 -74 -21q-74 2 -73 84q0 104 163 267q180 178 357 178q92 0 92 -56q0 -78 -232 -340q-66 -74 -151 -174q-98 -123 -109 -196q-14 -94 90 -94q92 0 244 104q119 82 225 188h3q-90 -127 -91 -196 q0 -90 97 -90q92 0 237 129l56 49q23 20 16 27q-6 6 -29 -13q-176 -158 -243 -157q-41 0 -41 34q0 92 258 410q10 12 28 35q88 66 178 133q115 88 162 139q29 31 35 62q6 27 -22 30q-27 4 -86 -30q-160 -92 -394 -351l-61 -67l-74 -84q-154 -174 -350 -281q-68 -37 -102 -33 q-35 10 -29 50q12 74 260 352q84 94 123 149q74 104 76 172q4 117 -166 117q-82 0 -189 -37q-223 -78 -325 -276q-45 -88 -39 -152zM981 897q2 -4 12 -2q8 0 13 2q16 4 53 14l69 19q31 8 119 43q49 27 43 61q-4 23 -18 23h-2q-8 0 -135 -76q-66 -39 -138 -68l-12 -8 q-6 -4 -4 -8zM1176 565v2q96 106 184 201q84 88 110 78q6 -2 7 -10q0 -49 -183 -181q-76 -55 -118 -90z" />
<glyph unicode="&#xdb;" horiz-adv-x="1130" d="M119 395q8 -96 102 -100q43 -2 84 27q35 23 25 32q4 -4 -31 -20q-27 -23 -74 -21q-74 2 -73 84q0 104 163 267q180 178 357 178q92 0 92 -56q0 -78 -232 -340q-66 -74 -151 -174q-98 -123 -109 -196q-14 -94 90 -94q92 0 244 104q119 82 225 188h3q-90 -127 -91 -196 q0 -90 97 -90q92 0 237 129l56 49q23 20 16 27q-6 6 -29 -13q-176 -158 -243 -157q-41 0 -41 34q0 92 258 410q10 12 28 35q88 66 178 133q115 88 162 139q29 31 35 62q6 27 -22 30q-27 4 -86 -30q-160 -92 -394 -351l-61 -67l-74 -84q-154 -174 -350 -281q-68 -37 -102 -33 q-35 10 -29 50q12 74 260 352q84 94 123 149q74 104 76 172q4 117 -166 117q-82 0 -189 -37q-223 -78 -325 -276q-45 -88 -39 -152zM909 903q4 -4 13 -2h10q137 45 211 84q49 -55 88 -74l12 -6q4 -2 6 -2q4 0 6 2q2 4 -6 17q-39 59 -69 135q-8 12 -11 12h-2q-4 0 -65 -41 q-84 -55 -178 -110q-16 -10 -15 -15zM1176 565v2q96 106 184 201q84 88 110 78q6 -2 7 -10q0 -49 -181 -181q-63 -45 -120 -90z" />
<glyph unicode="&#xdc;" horiz-adv-x="1130" d="M119 395q8 -96 102 -100q43 -2 84 27q35 23 25 32q4 -4 -31 -20q-27 -23 -74 -21q-74 2 -73 84q0 104 163 267q180 178 357 178q92 0 92 -56q0 -78 -232 -340q-66 -74 -151 -174q-98 -123 -109 -196q-14 -94 90 -94q92 0 244 104q119 82 225 188h3q-90 -127 -91 -196 q0 -90 97 -90q92 0 237 129l56 49q23 20 16 27q-6 6 -29 -13q-176 -158 -243 -157q-41 0 -41 34q0 92 258 410q10 12 28 35q88 66 178 133q115 88 162 139q29 31 35 62q6 27 -22 30q-27 4 -86 -30q-160 -92 -394 -351l-61 -67l-74 -84q-154 -174 -350 -281q-68 -37 -102 -33 q-35 10 -29 50q12 74 260 352q84 94 123 149q74 104 76 172q4 117 -166 117q-82 0 -189 -37q-223 -78 -325 -276q-45 -88 -39 -152zM965 954q0 -18 10 -28q53 0 94 53q16 23 10 39q-6 14 -28 14h-2q-84 0 -84 -78zM1176 565v2q96 106 184 201q84 88 110 78q6 -2 7 -10 q0 -49 -183 -181q-76 -55 -118 -90zM1190 954q0 -18 6 -28q49 0 98 53q16 23 11 39q-6 14 -29 14h-2q-92 0 -84 -78z" />
<glyph unicode="&#xdd;" horiz-adv-x="1021" d="M-133 -659q-8 -86 86 -86q106 0 266 122q119 92 217 209l70 82l57 70q18 23 92 127q119 6 201 -35q100 -49 100 -160q0 -41 -8 -65q-2 -2 -2 -6q0 -2 2 -2q16 -6 23 41q2 16 2 36q0 115 -101 170q-82 45 -204 41q66 90 178 252l133 182l133 183q86 78 166 143 q51 41 135 129q23 33 25 62q0 27 -31 30q-63 8 -203 -135q-29 -29 -172 -194q-84 -98 -213 -242q-135 -137 -264 -215q-104 -63 -147 -60q-35 10 -29 50q12 74 260 352q84 94 123 149q74 104 76 172q4 117 -166 117q-88 0 -189 -37q-229 -84 -325 -276q-43 -86 -39 -152 q6 -94 100 -100q39 -2 86 27q33 25 25 32q8 -8 -36 -24.5t-69 -16.5q-74 2 -73 84q0 104 163 267q180 178 357 178q92 0 92 -56q0 -78 -232 -340q-66 -74 -151 -174q-98 -123 -109 -196q-14 -94 90 -94q92 0 252 110q125 86 248 213v-2l-217 -315q-8 -10 -82 -117 q-324 -63 -575 -328q-115 -119 -121 -202zM-74 -664q-2 74 97 191q82 96 163 154q182 127 365 169v-2l-105 -141q-25 -35 -88 -119q-246 -324 -389 -305q-41 10 -43 53zM975 922q2 -4 12 -2q8 0 12 2q16 4 54 14l69 18q31 8 119 43q49 27 43 62q-4 23 -18 22h-2 q-8 0 -136 -75q-66 -39 -137 -68l-12 -8q-6 -4 -4 -8zM1159 567v2q68 94 152 199q70 88 98 78q8 -4 8 -15q0 -20 -31.5 -62t-107.5 -103q-59 -49 -119 -99z" />
<glyph unicode="&#xde;" horiz-adv-x="1200" d="M-94 -209q-2 -27 15.5 -38t45.5 -11q115 2 305 168q158 137 439 487q246 225 342 226q61 0 63 -62q2 -76 -100 -207q-164 -209 -354 -284q-57 -23 -101 -19q-4 0 -39 13.5t-37 11.5q-2 -4 -2 -8q0 -12 31 -23q25 -12 49 -14q127 -14 295 84q150 88 238 202q96 125 96 213 q0 121 -111 121q-66 0 -155 -59q-59 -39 -172 -135v2q68 84 207 252q47 10 165 49l60 24q127 53 131 111q2 33 -18.5 48t-53.5 13q-96 -6 -229 -110q-98 -78 -154 -137q-139 -23 -203 -23q-186 -2 -192 96q-4 78 88 109q27 0 63 10q0 16 -67 4q-135 -27 -135 -121 q0 -117 246 -116q76 0 178 18v-2q-74 -70 -195 -211q-61 -78 -186 -233q-133 -80 -301 -195q-111 -76 -201 -166q-49 -49 -51 -88zM-70 -209q0 51 166 180q150 117 334 228v-2q-129 -166 -209 -250q-166 -174 -260 -180q-31 -2 -31 24zM981 735v2q51 57 94 101 q94 92 168 100q27 2 40 -7t11 -36q-6 -55 -168 -117q-45 -16 -145 -43z" />
<glyph unicode="&#xdf;" horiz-adv-x="688" d="M-565 -258q4 -35 61 -53q43 -12 90 -13q186 2 428 301q74 94 338 474l62 88q27 39 102 139q135 166 246 153q53 -6 45 -65q-14 -92 -139 -170q-33 -20 -99.5 -47t-101.5 -43q-47 -23 -51 -72q-2 -25 28 -131q14 -47 5 -104q-18 -121 -99 -172q-37 -25 -69 -25 q-59 0 -56 51q2 29 44 58.5t44 52.5q2 6 2 12q0 23 -30 31q-86 10 -111 -105q-12 -55 20.5 -87.5t90.5 -32.5q195 0 374 155l46 39q23 20 16 27q-8 4 -27 -13q-80 -72 -174 -122q-18 -10 -51 -27v2q94 61 72 166q-12 61 -62 135q-29 43 -35 84q-6 43 45 66q76 23 222 84 q111 61 133 135q16 51 -4.5 91t-73.5 46q-96 10 -221 -76q-100 -70 -176 -164q-57 -76 -205 -274q-45 -41 -162 -146q-18 -18 -14 -22q6 -8 69 49q18 18 60 53v-2q-53 -80 -193 -286q-39 -57 -86 -115q-137 -170 -246 -170q-27 0 -53 45q-35 55 -53 55q-57 0 -51 -55z" />
<glyph unicode="&#xe0;" horiz-adv-x="589" d="M-41 70q-6 -41 17.5 -62.5t66.5 -19.5q104 6 225 116h2q-33 -37 -28 -73q4 -43 59 -43q74 0 176 82q82 66 123 106q23 23 16 29q-4 4 -26 -15q-131 -131 -215 -157q-27 -8 -27 12q0 23 41 84q31 45 105 131q68 78 63 84q-6 8 -39 6q-47 -2 -115 -78h-2q4 12 5 25 q0 45 -48 53q-74 12 -206 -57q-123 -66 -181 -131q-6 -8 -2 -12q6 -8 27 12l18 18h2q-49 -55 -57 -110zM47 39q-4 45 115 162q131 129 186 129h2q39 0 37 -37q-4 -55 -141 -178q-106 -96 -172 -97q-25 0 -27 21zM283 600q0 -16 10 -31q18 -35 102 -108l33 -29q18 -10 21 -8 q4 2 2 8l-7 10q-27 33 -57 95q-37 72 -53 96q-4 6 -15 6h-2q-35 0 -34 -39z" />
<glyph unicode="&#xe1;" horiz-adv-x="589" d="M-41 70q-6 -41 17.5 -62.5t66.5 -19.5q104 6 225 116h2q-33 -37 -28 -73q4 -43 59 -43q74 0 176 82q82 66 123 106q23 23 16 29q-4 4 -26 -15q-131 -131 -215 -157q-27 -8 -27 12q0 23 41 84q31 45 105 131q68 78 63 84q-6 8 -39 6q-47 -2 -115 -78h-2q4 12 5 25 q0 45 -48 53q-74 12 -206 -57q-123 -66 -181 -131q-6 -8 -2 -12q6 -8 27 12l18 18h2q-49 -55 -57 -110zM47 39q-4 45 115 162q131 129 186 129h2q39 0 37 -37q-4 -55 -141 -178q-106 -96 -172 -97q-25 0 -27 21zM344 422q2 -2 4 -2q6 0 21 8q76 43 137 88q23 16 31 27 q16 16 22 35q4 18 -6 34q-4 10 -14 11h-2q-12 0 -66 -60q-72 -82 -117 -121z" />
<glyph unicode="&#xe2;" horiz-adv-x="589" d="M-41 70q-6 -41 17.5 -62.5t66.5 -19.5q104 6 225 116h2q-33 -37 -28 -73q4 -43 59 -43q74 0 176 82q82 66 123 106q23 23 16 29q-4 4 -26 -15q-131 -131 -215 -157q-27 -8 -27 12q0 23 41 84q31 45 105 131q68 78 63 84q-6 8 -39 6q-47 -2 -115 -78h-2q4 12 5 25 q0 45 -48 53q-74 12 -206 -57q-123 -66 -181 -131q-6 -8 -2 -12q6 -8 27 12l18 18h2q-49 -55 -57 -110zM47 39q-4 45 115 162q131 129 186 129h2q39 0 37 -37q-2 -53 -141 -178q-106 -96 -172 -97q-25 0 -27 21zM215 410q2 -4 8 -4q8 0 10 2q123 41 216 96q51 -68 88 -86 q4 -4 12 -6q2 -2 6 -2q2 0 4 2q2 4 -4 14q-23 41 -74 145q-2 4 -6 4h-2q-10 0 -19.5 -8t-168.5 -110q-33 -20 -66 -39q-6 -4 -4 -8z" />
<glyph unicode="&#xe3;" horiz-adv-x="589" d="M-41 70q-6 -41 17.5 -62.5t66.5 -19.5q104 6 225 116h2q-33 -37 -28 -73q4 -43 59 -43q74 0 176 82q82 66 123 106q23 23 16 29q-4 4 -26 -15q-131 -131 -215 -157q-27 -8 -27 12q0 23 41 84q31 45 105 131q68 78 63 84q-6 8 -39 6q-47 -2 -115 -78h-2q4 12 5 25 q0 45 -48 53q-74 12 -206 -57q-123 -66 -181 -131q-6 -8 -2 -12q6 -8 27 12l18 18h2q-49 -55 -57 -110zM47 39q-4 45 115 162q131 129 186 129h2q39 0 37 -37q-4 -55 -141 -178q-106 -96 -172 -97q-25 0 -27 21zM233 436q0 -4 3 -6q6 -2 16 12q43 49 82 45q20 -2 62 -28.5 t65 -26.5h2q74 0 119 84q4 12 4 16t-2 7q-4 2 -17 -11q-37 -53 -82 -49q-23 2 -62.5 30t-62.5 28q-76 2 -122 -82q-4 -12 -5 -19z" />
<glyph unicode="&#xe4;" horiz-adv-x="589" d="M-41 70q-6 -41 17.5 -62.5t66.5 -19.5q104 6 225 116h2q-33 -37 -28 -73q4 -43 59 -43q74 0 176 82q82 66 123 106q23 23 16 29q-4 4 -26 -15q-131 -131 -215 -157q-27 -8 -27 12q0 23 41 84q31 45 105 131q68 78 63 84q-6 8 -39 6q-47 -2 -115 -78h-2q4 12 5 25 q0 45 -48 53q-74 12 -206 -57q-123 -66 -181 -131q-6 -8 -2 -12q6 -8 27 12l18 18h2q-49 -55 -57 -110zM47 39q-4 45 115 162q131 129 186 129h2q39 0 37 -37q-2 -53 -141 -178q-106 -96 -172 -97q-25 0 -27 21zM287 459q0 -18 6 -27q51 0 88 49q16 20 10 35q-6 12 -26 12 h-3q-57 0 -69 -34q-8 -16 -6 -35zM489 459q0 -18 7 -27q51 0 88 49q16 20 12 35q-6 12 -27 12h-2q-78 0 -78 -69z" />
<glyph unicode="&#xe5;" horiz-adv-x="589" d="M-41 70q-6 -41 17.5 -62.5t66.5 -19.5q104 6 225 116h2q-33 -37 -28 -73q4 -43 59 -43q74 0 176 82q82 66 123 106q23 23 16 29q-4 4 -26 -15q-131 -131 -215 -157q-27 -8 -27 12q0 23 41 84q31 45 105 131q68 78 63 84q-6 8 -39 6q-47 -2 -115 -78h-2q4 12 5 25 q0 45 -48 53q-74 12 -206 -57q-123 -66 -181 -131q-6 -8 -2 -12q6 -8 27 12l18 18h2q-49 -55 -57 -110zM47 39q-4 45 115 162q131 129 186 129h2q39 0 37 -37q-4 -55 -141 -178q-106 -96 -172 -97q-25 0 -27 21zM334 512q0 -39 25.5 -64.5t64.5 -25.5q37 0 63.5 25.5 t26.5 62.5v2q0 37 -26.5 64.5t-63.5 27.5t-63.5 -27.5t-26.5 -64.5zM371 512q0 55 53 55t53 -53v-2q0 -53 -53 -53t-53 53z" />
<glyph unicode="&#xe6;" horiz-adv-x="727" d="M-41 70q-6 -41 17.5 -62.5t66.5 -19.5q51 4 125 45q66 37 108 80h3q-6 -10 -15 -47q-4 -84 107 -84t239 88q70 47 129 106q23 23 17 29t-27 -12q-201 -184 -317 -179q-51 2 -47 47q2 12 12 45q119 37 180 66q123 59 129 125q6 53 -61 53q-49 0 -113 -45v2q49 37 49 55 q0 10 -26 7q-47 0 -144 -111q-207 -240 -317 -240q-25 0 -27 21q-4 45 115 162q100 98 188 118q37 2 76 17q2 8 -29 10q-18 4 -39 2q-141 -8 -262 -90q-53 -35 -125 -96q-6 -8 -2 -12q6 -8 27 12l18 18h2q-49 -55 -57 -110zM387 127v2q84 139 164 180q25 12 37 15 q31 0 24 -27q-10 -98 -225 -170z" />
<glyph unicode="&#xe7;" horiz-adv-x="436" d="M-141 -147q-16 -8 8 -35q43 -45 113 -47q49 -2 92 18q53 25 59 68q10 76 -94 75q-4 0 -12 -2h-13l11 9q14 14 45 43h14q109 0 237 88q102 70 132 108q6 8 2 12t-13 -2l-16 -10q-33 -33 -115 -90q-104 -74 -186 -74q-53 0 -47 47q8 76 114 183q92 92 127 86q18 -4 15 -21 q-2 -10 -21 -45q-16 -27 -12 -43q2 -18 27 -18h2q23 0 44 22.5t25 46.5q12 70 -55 78q-70 8 -199 -61q-119 -66 -172 -127q-6 -8 -2 -12q8 -8 45 28l15 15h2q-53 -61 -60 -125q-6 -70 72 -82q-12 -12 -34.5 -34t-34 -33t-7.5 -17q2 -2 18.5 3t18.5 5q29 2 49.5 -9.5 t16.5 -37.5q-4 -63 -90 -64q-53 0 -105 39q-18 14 -16 15z" />
<glyph unicode="&#xe8;" horiz-adv-x="434" d="M-35 66q-4 -84 113 -84q111 0 239 88q70 47 129 106q23 23 17 29q-2 2 -4 2q-8 0 -23 -14q-119 -119 -237 -162q-49 -18 -80 -17q-51 2 -47 47q2 12 12 45q119 37 180 66q123 59 129 125q2 23 -17.5 38t-41.5 15h-2q-74 0 -195 -65q-113 -61 -166 -123q-6 -8 -2 -12 q6 -8 27 12l16 16h2q-41 -53 -49 -112zM96 127v2q35 59 86 115q66 72 115 80q31 0 25 -27q-4 -51 -84 -107q-47 -33 -142 -63zM217 594q0 -16 10 -31q16 -33 103 -108l32 -29q18 -10 21 -8q4 2 2 8l-6 10q-27 33 -57 94q-37 72 -54 97q-4 6 -14 6h-2q-35 0 -35 -39z" />
<glyph unicode="&#xe9;" horiz-adv-x="434" d="M-35 66q-4 -84 113 -84q111 0 239 88q70 47 129 106q23 23 17 29q-8 6 -27 -12q-119 -119 -237 -162q-49 -18 -80 -17q-51 2 -47 47q2 12 12 45q119 37 180 66q123 59 129 125q2 23 -16.5 38t-42.5 15h-2q-74 0 -195 -65q-113 -61 -166 -123q-6 -8 -2 -12q6 -8 27 12 l16 16h2q-41 -53 -49 -112zM96 127v2q35 59 86 115q66 72 115 80q31 0 25 -27q-4 -51 -84 -107q-47 -33 -142 -63zM260 422q2 -2 4 -2q6 0 21 8q76 43 137 88q23 16 31 27q16 16 22 35q4 18 -6 34q-4 10 -14 11h-2q-12 0 -66 -60q-72 -82 -117 -121z" />
<glyph unicode="&#xea;" horiz-adv-x="434" d="M-35 66q-4 -84 113 -84q111 0 239 88q70 47 129 106q23 23 17 29q-8 6 -27 -12q-119 -119 -237 -162q-49 -18 -80 -17q-51 2 -47 47q2 12 12 45q119 37 180 66q123 59 129 125q2 23 -16.5 38t-42.5 15h-2q-74 0 -195 -65q-113 -61 -166 -123q-6 -8 -2 -12q6 -8 27 12 l16 16h2q-41 -53 -49 -112zM96 127v2q35 59 86 115q66 72 115 80q31 0 25 -27q-4 -51 -84 -107q-47 -33 -142 -63zM143 410q2 -4 9 -4q8 0 10 2q123 41 215 96q51 -68 88 -86q4 -4 12 -6q2 -2 6 -2q2 0 4 2q2 4 -4 14q-23 41 -73 145q-2 4 -7 4h-2q-10 0 -19 -8t-169 -110 q-33 -20 -66 -39q-6 -4 -4 -8z" />
<glyph unicode="&#xeb;" horiz-adv-x="434" d="M-35 66q-4 -84 113 -84q111 0 239 88q70 47 129 106q23 23 17 29q-2 2 -4 2q-8 0 -23 -14q-119 -119 -237 -162q-49 -18 -80 -17q-51 2 -47 47q2 12 12 45q119 37 180 66q123 59 129 125q2 23 -17.5 38t-41.5 15h-2q-74 0 -195 -65q-113 -61 -166 -123q-6 -8 -2 -12 q6 -8 27 12l16 16h2q-41 -53 -49 -112zM96 127v2q35 59 86 115q66 72 115 80q31 0 25 -27q-4 -51 -84 -107q-47 -33 -142 -63zM199 459q0 -18 6 -27q51 0 88 49q16 20 10 35q-6 12 -27 12h-2q-57 0 -69 -34q-8 -16 -6 -35zM401 459q0 -18 7 -27q51 0 88 49q16 20 12 35 q-6 12 -27 12h-2q-78 0 -78 -69z" />
<glyph unicode="&#xec;" horiz-adv-x="329" d="M-31 154q0 -2 2 -4q4 -4 21 8q78 74 137 114q18 12 35 23h2l-33 -33q-68 -68 -94 -102q-57 -70 -59 -121q-2 -53 59 -53h2q72 0 178 84q78 61 123 106q23 23 16 27q-2 2 -28 -13q-6 -6 -99 -84q-61 -51 -116 -73q-14 -6 -23 4q-4 4 -4 10q0 31 84 135q29 37 109 131 q20 23 16 29q-6 6 -39 4q-70 -2 -209 -115l-43 -34q-37 -31 -37 -43zM172 586q0 -16 10 -31q16 -33 103 -109l32 -28q18 -10 21 -8q4 2 2 8l-6 10q-27 33 -58 94q-37 72 -53 96q-4 6 -14 7h-2q-35 0 -35 -39z" />
<glyph unicode="&#xed;" horiz-adv-x="329" d="M-31 154q0 -2 2 -4q4 -4 21 8q78 74 137 114q18 12 35 23h2l-33 -33q-68 -68 -94 -102q-57 -70 -59 -121q-2 -53 59 -53h2q72 0 178 84q78 61 123 106q23 23 16 27q-2 2 -28 -13q-6 -6 -99 -84q-61 -51 -116 -73q-14 -6 -23 4q-4 4 -4 10q0 31 84 135q29 37 109 131 q20 23 16 29q-6 6 -39 4q-70 -2 -209 -115l-43 -34q-37 -31 -37 -43zM219 422q4 -4 12 0q70 37 150 94q23 16 31 27q16 16 22 35q4 18 -6 34q-4 10 -14 11h-2q-12 0 -66 -60q-72 -82 -117 -121z" />
<glyph unicode="&#xee;" horiz-adv-x="329" d="M-31 154q0 -2 2 -4q4 -4 21 8q78 74 137 114q18 12 35 23h2l-33 -33q-68 -68 -94 -102q-57 -70 -59 -121q-2 -53 59 -53h2q72 0 178 84q78 61 123 106q23 23 16 27q-2 2 -28 -13q-6 -6 -99 -84q-61 -51 -116 -73q-14 -6 -23 4q-4 4 -4 10q0 31 84 135q29 37 109 131 q20 23 16 29q-6 6 -39 4q-70 -2 -209 -115l-43 -34q-37 -31 -37 -43zM90 410q2 -4 8 -4q8 0 11 2q123 41 215 96q51 -68 88 -86q4 -4 12 -6q2 -2 6 -2q2 0 4 2q2 4 -4 14q-23 41 -74 145q-2 4 -6 4h-2q-10 0 -19.5 -8t-168.5 -110q-33 -20 -66 -39q-6 -4 -4 -8z" />
<glyph unicode="&#xef;" horiz-adv-x="329" d="M-31 154q0 -2 2 -4q4 -4 21 8q78 74 137 114q18 12 35 23h2l-33 -33q-68 -68 -94 -102q-57 -70 -59 -121q-2 -53 59 -53h2q72 0 178 84q78 61 123 106q23 23 16 27q-2 2 -28 -13q-6 -6 -99 -84q-61 -51 -116 -73q-14 -6 -23 4q-4 4 -4 10q0 31 84 135q29 37 109 131 q20 23 16 29q-6 6 -39 4q-70 -2 -209 -115l-43 -34q-37 -31 -37 -43zM143 459q0 -18 7 -27q51 0 88 49q16 20 10 35q-6 12 -27 12h-2q-57 0 -69 -34q-8 -16 -7 -35zM346 459q0 -18 6 -27q51 0 88 49q16 20 13 35q-6 12 -27 12h-2q-78 0 -78 -69z" />
<glyph unicode="&#xf0;" horiz-adv-x="536" d="M-31 150q6 -6 27 12q35 33 51 45h2q-61 -66 -61 -137q0 -88 100 -88q117 0 256 110q74 59 137 158q78 123 78 239q0 35 -10 76q68 20 110 43q10 4 7 15q-4 10 -17 10q-10 0 -16 -4q-31 -12 -94 -35q-29 70 -89.5 112t-132.5 35q-41 -4 -36 -16q0 -4 8 -1t28 1 q127 -10 160 -154q-49 -20 -180 -71q-29 -10 -18 -21q4 -4 10 -2q6 0 12 2l98 35q37 14 82 27q2 -10 2 -21v-20q-4 -119 -80 -230h-2q2 8 2 17q0 53 -47 63q-63 6 -143 -28q-20 -8 -35 -17q-154 -80 -207 -143q-6 -8 -2 -12zM74 39q0 29 35 84q63 100 153 170q47 37 84 37 t33 -37q0 -35 -29 -86q-53 -94 -145 -164q-51 -39 -96 -39h-3q-33 0 -32 35z" />
<glyph unicode="&#xf1;" horiz-adv-x="720" d="M-33 154q0 -2 2 -4q6 -6 27 12q82 80 135 117q16 12 57 28q8 2 13 -4q10 -10 -13 -35q-106 -123 -174 -243q-12 -23 -4 -29q8 -4 31 -4q35 0 115 67l53 45q90 76 205 158q31 23 70.5 40t52.5 11q8 -4 6 -12t-8 -16q-80 -88 -140 -170q-27 -37 -33 -74q-8 -53 60 -53h2 q68 0 182 82q27 20 125 106q25 20 19 27q-4 4 -11 0q-14 -6 -63 -51q-117 -102 -178 -117q-27 -6 -27 10q0 27 80 125q45 55 49 59q29 39 33 66q8 55 -64 55q-80 0 -223 -110q-35 -27 -96 -76l-80 -68l-6 2q41 53 119 164q12 23 12 41q0 47 -51 47q-53 0 -144 -69 q-45 -35 -116 -107q-16 -12 -17 -20zM317 436q0 -4 2 -6q6 -2 17 12q43 49 82 45q20 -2 62 -28.5t65 -26.5h2q74 0 119 84q4 12 4 16t-2 7q-4 2 -17 -11q-37 -53 -82 -49q-23 2 -62.5 30t-62.5 28q-76 2 -122 -82q-4 -12 -5 -19z" />
<glyph unicode="&#xf2;" horiz-adv-x="507" d="M-31 150q6 -6 30 15t38 36v-2q-51 -57 -57 -127q-10 -90 100 -90q82 0 186 67q33 20 47 33q12 -8 29 -6q14 -2 27 2q70 18 149 98q23 23 17 27q-4 4 -54 -33q-68 -53 -84 -64q-23 -10 -49 -12q-12 -2 -18 2q109 98 116 166q6 57 -38 84q-10 4 -15 0q-6 -2 -4 -6 q2 -6 6 -23q0 -35 -6 -51q-68 -27 -92 -100q-8 -25 -10 -39q-111 -125 -191 -125q-33 0 -28 35q8 70 118 180q86 86 148 113q2 2 12 5t10 7q-4 8 -12 10q-12 0 -18 -2q-84 -10 -172 -57q-133 -74 -183 -131q-6 -8 -2 -12zM285 594q0 -16 10 -31q18 -35 102 -108l33 -29 q18 -10 21 -8q4 2 2 8l-7 10q-27 33 -57 94q-37 72 -53 97q-4 6 -14 6h-3q-35 0 -34 -39z" />
<glyph unicode="&#xf3;" horiz-adv-x="507" d="M-31 150q6 -6 30 15t38 36v-2q-51 -57 -57 -127q-10 -90 100 -90q82 0 186 67q33 20 47 33q12 -8 29 -6q14 -2 27 2q70 18 149 98q23 23 17 27q-4 4 -54 -33q-68 -53 -84 -64q-23 -10 -49 -12q-12 -2 -18 2q109 98 116 166q6 57 -38 84q-10 4 -15 0q-6 -2 -4 -6 q2 -6 6 -23q0 -35 -6 -51q-68 -27 -92 -100q-8 -25 -10 -39q-111 -125 -191 -125q-33 0 -28 35q8 70 118 180q86 86 148 113q2 2 12 5t10 7q-4 8 -12 10q-12 0 -18 -2q-84 -10 -172 -57q-133 -74 -183 -131q-6 -8 -2 -12zM328 422q4 -4 12 0q70 37 149 94q23 16 31 27 q16 16 23 35q4 18 -6 34q-4 10 -15 11h-2q-12 0 -65 -60q-72 -82 -117 -121z" />
<glyph unicode="&#xf4;" horiz-adv-x="507" d="M-31 150q6 -6 30 15t38 36v-2q-51 -57 -57 -127q-10 -90 100 -90q82 0 186 67q33 20 47 33q12 -8 29 -6q14 -2 27 2q70 18 149 98q23 23 17 27q-4 4 -54 -33q-68 -53 -84 -64q-23 -10 -49 -12q-12 -2 -18 2q109 98 116 166q6 57 -38 84q-10 4 -15 0q-6 -2 -4 -6 q2 -6 6 -23q0 -35 -6 -51q-68 -27 -92 -100q-8 -25 -10 -39q-111 -125 -191 -125q-33 0 -28 35q8 70 118 180q86 86 148 113q2 2 12 5t10 7q-4 8 -12 10q-12 0 -18 -2q-84 -10 -172 -57q-133 -74 -183 -131q-6 -8 -2 -12zM182 410q2 -4 8 -4q8 0 11 2q123 41 215 96 q51 -68 88 -86q4 -4 12 -6q2 -2 6 -2q2 0 4 2q2 4 -4 14q-23 41 -73 145q-2 4 -7 4h-2q-10 0 -19 -8t-169 -110q-33 -20 -66 -39q-6 -4 -4 -8z" />
<glyph unicode="&#xf5;" horiz-adv-x="507" d="M-31 150q6 -6 30 15t38 36v-2q-51 -57 -57 -127q-10 -90 100 -90q82 0 186 67q33 20 47 33q12 -8 29 -6q14 -2 27 2q70 18 149 98q23 23 17 27q-4 4 -54 -33q-68 -53 -84 -64q-23 -10 -49 -12q-12 -2 -18 2q109 98 116 166q6 57 -38 84q-10 4 -15 0q-6 -2 -4 -6 q2 -6 6 -23q0 -35 -6 -51q-68 -27 -92 -100q-8 -25 -10 -39q-111 -125 -191 -125q-33 0 -28 35q8 70 118 180q86 86 148 113q2 2 12 5t10 7q-4 8 -12 10q-12 0 -18 -2q-84 -10 -172 -57q-133 -74 -183 -131q-6 -8 -2 -12zM219 436q0 -4 2 -6q6 -2 17 12q43 49 81 45 q20 -2 62.5 -28.5t64.5 -26.5h3q74 0 118 84q4 12 4 16t-2 7q-4 2 -16 -11q-37 -53 -82 -49q-23 2 -62.5 30t-62.5 28q-76 2 -123 -82q-4 -12 -4 -19z" />
<glyph unicode="&#xf6;" horiz-adv-x="507" d="M-31 150q6 -6 30 15t38 36v-2q-51 -57 -57 -127q-10 -90 100 -90q82 0 186 67q33 20 47 33q12 -8 29 -6q14 -2 27 2q70 18 149 98q23 23 17 27q-4 4 -54 -33q-68 -53 -84 -64q-23 -10 -49 -12q-12 -2 -18 2q109 98 116 166q6 57 -38 84q-10 4 -15 0q-6 -2 -4 -6 q2 -6 6 -23q0 -35 -6 -51q-68 -27 -92 -100q-8 -25 -10 -39q-111 -125 -191 -125q-33 0 -28 35q8 70 118 180q86 86 148 113q2 2 12 5t10 7q-4 8 -12 10q-12 0 -18 -2q-84 -10 -172 -57q-133 -74 -183 -131q-6 -8 -2 -12zM252 459q0 -18 6 -27q51 0 88 49q16 20 10 35 q-6 12 -26 12h-2q-57 0 -70 -34q-8 -16 -6 -35zM455 459q0 -18 6 -27q51 0 88 49q16 20 12 35q-6 12 -26 12h-3q-78 0 -77 -69z" />
<glyph unicode="&#xf7;" horiz-adv-x="653" d="M96 264q0 -4 2 -11t25 -7q252 0 481 6q33 0 33 10v2q0 10 -33 12l-211 9q-68 4 -250 10q-14 0 -30.5 -9.5t-16.5 -21.5zM266 115q0 -18 6 -27q49 0 88 47q16 20 11 35q-6 14 -27 14h-2q-57 0 -70 -34q-8 -16 -6 -35zM369 371q0 -18 6 -29q47 0 88 49q16 20 10 35 q-6 14 -27 14h-2q-57 0 -69 -34q-8 -16 -6 -35z" />
<glyph unicode="&#xf8;" horiz-adv-x="507" d="M-55 -90q-2 -6 0 -8t4 -2q12 0 20 12q25 25 78 74q8 -4 16 -4h19q102 0 231 100q12 -8 29 -6q14 -2 27 2q70 18 149 98q23 23 17 27q-4 4 -54 -33q-68 -53 -84 -64q-23 -10 -49 -12q-12 -2 -18 2q109 98 116 166q6 47 -26 74l63 59q37 35 37 43q-2 4 -4 6q-10 8 -117 -98 q-29 8 -61 6q-113 -8 -242 -94q-49 -33 -125 -96q-6 -8 -2 -12q6 -6 30 15t38 36h2q-53 -68 -59 -129q-6 -59 47 -80q-23 -23 -70 -66q-10 -8 -12 -16zM70 33q0 16 6 35q72 152 223 245q43 27 66 27h2q14 0 20 -6l-72 -68zM74 12q37 33 80 74l84 80q27 27 81 78l74 67 q0 -29 -6 -45q-68 -27 -92 -100q-8 -25 -10 -39q-119 -125 -189 -125h-2q-14 0 -20 10z" />
<glyph unicode="&#xf9;" horiz-adv-x="655" d="M-31 154q0 -2 2 -4q4 -4 21 8q78 74 137 114q18 12 35 23v-2q-135 -129 -172 -209q-10 -23 -12 -39q-6 -57 67 -57q70 0 219 112q51 39 146 115l4 -4q-35 -35 -58 -61q-55 -66 -55 -113q0 -49 64 -49q68 0 176 82q66 49 123 106q23 23 16 27l-27 -13q-66 -66 -147 -120 q-68 -45 -90 -33q-4 4 -4 16q0 27 86 133q31 37 108 131q18 23 8 29q-12 4 -38 4q-33 0 -60 -22q-59 -51 -221 -178l-84 -62q-72 -53 -104 -53q-8 0 -15 6q-14 14 35 82q39 55 103.5 134t62.5 83q-4 8 -37 6q-84 -2 -252 -151q-16 -14 -35 -35q-2 -2 -2 -6zM287 580 q0 -16 10 -31q16 -33 102 -109l33 -28q18 -10 21 -9q4 2 2 9l-6 10q-27 33 -58 94q-37 72 -53 96q-4 6 -14 6h-2q-35 0 -35 -38z" />
<glyph unicode="&#xfa;" horiz-adv-x="655" d="M-31 154q0 -2 2 -4q4 -4 21 8q78 74 137 114q18 12 35 23v-2q-135 -129 -172 -209q-10 -23 -12 -39q-6 -57 67 -57q70 0 219 112q51 39 146 115l4 -4q-35 -35 -58 -61q-55 -66 -55 -113q0 -49 64 -49q68 0 176 82q66 49 123 106q23 23 16 27l-27 -13q-66 -66 -147 -120 q-68 -45 -90 -33q-4 4 -4 16q0 27 86 133q31 37 108 131q18 23 8 29q-12 4 -38 4q-33 0 -60 -22q-59 -51 -221 -178l-84 -62q-72 -53 -104 -53q-8 0 -15 6q-14 14 35 82q39 55 103.5 134t62.5 83q-4 8 -37 6q-84 -2 -252 -151q-16 -14 -35 -35q-2 -2 -2 -6zM381 422 q4 -4 12 0q70 37 150 94q23 16 30 27q16 16 23 35q4 18 -6 34q-4 10 -15 11h-2q-12 0 -65 -60q-72 -82 -117 -121z" />
<glyph unicode="&#xfb;" horiz-adv-x="655" d="M-31 154q0 -2 2 -4q4 -4 21 8q78 74 137 114q18 12 35 23v-2q-135 -129 -172 -209q-10 -23 -12 -39q-6 -57 67 -57q70 0 219 112q51 39 146 115l4 -4q-35 -35 -58 -61q-55 -66 -55 -113q0 -49 64 -49q68 0 176 82q66 49 123 106q23 23 16 27l-27 -13q-66 -66 -147 -120 q-68 -45 -90 -33q-4 4 -4 16q0 27 86 133q31 37 108 131q18 23 8 29q-12 4 -38 4q-33 0 -60 -22q-59 -51 -221 -178l-84 -62q-72 -53 -104 -53q-8 0 -15 6q-14 14 35 82q39 55 103.5 134t62.5 83q-4 8 -37 6q-84 -2 -252 -151q-16 -14 -35 -35q-2 -2 -2 -6zM262 420 q2 -4 8 -4q8 0 11 2q123 41 215 96q51 -68 88 -86q4 -4 12 -6q2 -2 6 -2q2 0 4 2q2 4 -4 14q-23 41 -74 146q-2 4 -6 4h-2q-10 0 -19 -8.5t-169 -110.5q-33 -20 -66 -39q-6 -4 -4 -8z" />
<glyph unicode="&#xfc;" horiz-adv-x="655" d="M-31 154q0 -2 2 -4q4 -4 21 8q78 74 137 114q18 12 35 23v-2q-135 -129 -172 -209q-10 -23 -12 -39q-6 -57 67 -57q70 0 219 112q51 39 146 115l4 -4q-35 -35 -58 -61q-55 -66 -55 -113q0 -49 64 -49q68 0 176 82q66 49 123 106q20 20 16 27l-27 -13q-66 -66 -147 -120 q-68 -45 -90 -33q-4 4 -4 16q0 27 86 133q31 37 108 131q18 23 8 29q-12 4 -38 4q-33 0 -60 -22q-59 -51 -221 -178l-84 -62q-74 -53 -102 -53q-10 0 -17 6q-14 14 35 82q39 55 103.5 134t62.5 83q-4 8 -37 6q-84 -2 -252 -151q-37 -33 -37 -41zM326 459q0 -18 6 -27 q51 0 88 49q16 20 10 35q-6 12 -27 12h-2q-57 0 -69 -34q-8 -16 -6 -35zM528 459q0 -18 7 -27q51 0 88 49q16 20 12 35q-6 12 -27 12h-2q-78 0 -78 -69z" />
<glyph unicode="&#xfd;" horiz-adv-x="641" d="M-246 -784q0 -41 39 -45q27 -4 60 26q51 47 174 225q197 285 374 494q88 102 199 209q76 72 70 78t-27 -13q-201 -178 -389 -419q-18 -25 -137 -187l-94 -129q-12 -16 -46 -63l-43 -64q-74 -111 -92 -96q-2 2 -2 6q0 16 13 35l88 137q43 66 161 232q29 39 113 155 q125 170 180 244l211 278q16 20 6 27q-10 4 -37 4q-33 0 -59 -22q-109 -92 -219 -176q-61 -47 -156 -105q-16 -6 -28 -10q-23 -6 -23 10q0 10 8 29q29 45 131 176q68 86 66 88q-4 8 -37 6q-68 -2 -135 -55q-4 -2 -117 -96q-37 -31 -37 -41q0 -2 2 -4q4 -4 21 8 q78 74 137 114q18 12 35 23v-2q-94 -88 -146 -170q-29 -47 -32 -78q-6 -59 53 -59q66 0 227 116q61 43 158 123l6 -2l-410 -565q-152 -209 -239 -367q-27 -47 -27 -75zM379 412q2 -2 4 -2q6 0 20 8q76 43 138 88q23 16 30 26q16 16 23 35q4 18 -6 35q-4 10 -15 10h-2 q-12 0 -65 -59q-72 -82 -117 -121z" />
<glyph unicode="&#xfe;" horiz-adv-x="667" d="M-590 -784q0 -33 35 -43q27 -8 59 20q43 37 150 186q70 100 139 201q80 113 301 395l74 91q43 53 57 67q131 135 213 170q6 6 25 10q14 4 20 0q14 -6 0 -26q-20 -31 -88 -103q-41 -45 -55 -63q-31 -41 -35 -74q-8 -59 66 -59q76 0 184 82q14 10 78.5 70.5t62.5 62.5 q-4 4 -26 -13q-174 -156 -234 -155q-20 0 -20 18q0 25 41 72l43 49q23 27 51.5 60.5t32.5 62.5q10 53 -62 53q-139 0 -356 -254q-139 -164 -387 -499q-121 -164 -189 -263q-23 -31 -67 -90q-16 -18 -29 -12q-2 2 0 10q2 12 14 31q178 281 517 725l143 188q131 170 348 424 l102 119q2 2 144 156q0 14 -29 14q-39 0 -76 -35q-127 -119 -243 -254l-80 -92q-39 -45 -55 -67q-25 -25 -74 -72l-68 -62q-25 -25 -76 -71l-41 -37q-6 -6 -34 -35q-20 -18 -17 -22q6 -6 33 16q80 70 203 186v-2q-100 -121 -217 -276l-119 -158q-27 -35 -94 -127l-92 -125 q-90 -123 -205 -293q-74 -111 -68 -157z" />
<glyph unicode="&#xff;" horiz-adv-x="641" d="M-246 -784q0 -41 39 -45q27 -4 60 26q51 47 174 225q197 285 374 494q88 102 199 209q76 72 70 78t-27 -13q-201 -178 -389 -419q-18 -25 -137 -187l-94 -129q-12 -16 -46 -63l-43 -64q-74 -111 -92 -96q-2 2 -2 6q0 16 13 35l88 137q43 66 161 232q29 39 113 155 q125 170 180 244l211 278q16 20 6 27q-10 4 -37 4q-33 0 -59 -22q-109 -92 -219 -176q-61 -47 -156 -105q-16 -6 -28 -10q-23 -6 -23 10q0 10 8 29q29 45 131 176q68 86 66 88q-4 8 -37 6q-68 -2 -135 -55q-4 -2 -117 -96q-37 -31 -37 -41q0 -2 2 -4q4 -4 21 8 q78 74 137 114q18 12 35 23v-2q-94 -88 -146 -170q-29 -47 -32 -78q-6 -59 53 -59q66 0 227 116q61 43 158 123l6 -2l-410 -565q-152 -209 -239 -367q-27 -47 -27 -75zM309 459q0 -18 6 -27q51 0 88 49q16 20 11 35q-6 12 -27 12h-2q-57 0 -70 -34q-8 -16 -6 -35zM512 459 q0 -18 6 -27q51 0 88 49q16 20 12 35q-6 12 -26 12h-2q-78 0 -78 -69z" />
<glyph unicode="&#x152;" horiz-adv-x="1376" d="M25 174q0 -197 206 -205q197 -6 406 162q-4 -119 90 -168q72 -37 201 -33q147 6 309 117q53 37 111 88q14 12 30 35q2 6 -2 10q-6 6 -22 -12q-47 -53 -125 -105q-156 -104 -297 -104q-76 0 -125 38t-45 112q8 119 121 225q90 86 188 123q43 -55 162 -56q115 0 115 39 q0 45 -111 52q-29 2 -53 0q-33 -2 -49 -7q-12 66 53 154q86 -68 227 -68q100 0 187 29q119 39 127 119q10 92 -121 123q-39 8 -82 8h-2q-227 0 -385 -135q-18 23 -19 57q0 35 4 45t0 12q-20 6 -20 -57q0 -43 24 -67q-80 -86 -84 -166q-2 -37 17 -66q-106 -25 -189 -65 q68 133 68 233q0 109 -84 109q-12 0 -34.5 -8.5t-16.5 -14.5q37 8 49 6q53 -8 45 -82q-16 -147 -180 -352q-256 -319 -467 -311q-111 4 -127 102t51 238q55 109 140 207t241 194q172 106 297 100q137 -6 145 -88q6 -53 -22 -90q-12 -14 -19 -24q2 -2 5 -2q8 0 26 18 q37 57 31 100q-12 104 -166 113q-168 8 -336 -68q-160 -72 -282 -198q-211 -219 -211 -416zM1139 469h2q18 4 47 4h45q76 0 76 -29q-8 -29 -76 -24q-82 6 -94 49zM1202 653q53 66 152.5 122t177.5 56h2q63 0 104 -22q53 -31 43 -90q-25 -129 -264 -129q-137 0 -215 63z" />
<glyph unicode="&#x153;" horiz-adv-x="747" d="M-31 150q6 -6 30 15t38 36v-2q-51 -57 -57 -127q-10 -90 100 -90q82 0 199 75q0 -76 112 -75q109 0 238 88q78 53 131 106q23 23 16 29q-6 6 -26 -12q-195 -184 -318 -179q-51 2 -47 47q0 20 12 45q182 57 265 119q41 31 45 72q0 53 -62 53q-49 0 -104 -22l-95 -49 q0 45 -38 67q-10 4 -15 0q-6 -2 -4 -6q2 -6 6 -23q0 -63 -45 -118q-84 -104 -170 -164q-47 -33 -84 -33q-33 0 -28 35q8 70 118 180q86 86 148 113q2 2 12 5t10 7q-4 8 -12 10q-12 0 -18 -2q-84 -10 -172 -57q-133 -74 -183 -131q-6 -8 -2 -12zM408 127v2q29 53 86 115 q68 74 112 80q29 0 27 -27q-8 -98 -225 -170z" />
<glyph unicode="&#x178;" horiz-adv-x="1021" d="M-133 -659q-8 -86 86 -86q106 0 266 122q119 92 217 209l70 82l57 70q18 23 92 127q119 6 201 -35q100 -49 100 -160q0 -41 -8 -65q-2 -2 -2 -6q0 -2 2 -2q16 -6 23 41q2 16 2 36q0 115 -101 170q-82 45 -204 41q66 90 178 252l133 182l133 183q86 78 166 143 q51 41 135 129q23 33 25 62q0 27 -31 30q-63 8 -203 -135q-29 -29 -172 -194q-84 -98 -213 -242q-135 -137 -264 -215q-104 -63 -147 -60q-35 10 -29 50q12 74 260 352q84 94 123 149q74 104 76 172q4 117 -166 117q-88 0 -189 -37q-229 -84 -325 -276q-43 -86 -39 -152 q6 -94 100 -100q39 -2 86 27q33 25 25 32q8 -8 -36 -24.5t-69 -16.5q-74 2 -73 84q0 104 163 267q180 178 357 178q92 0 92 -56q0 -78 -232 -340q-66 -74 -151 -174q-98 -123 -109 -196q-14 -94 90 -94q92 0 252 110q125 86 248 213v-2l-217 -315q-8 -10 -82 -117 q-324 -63 -575 -328q-115 -119 -121 -202zM-74 -664q-2 74 97 191q82 96 163 154q182 127 365 169v-2l-105 -141q-25 -35 -88 -119q-246 -324 -389 -305q-41 10 -43 53zM942 954q0 -18 10 -28q53 0 95 53q16 23 10 39q-6 14 -29 14h-2q-84 0 -84 -78zM1159 567v2 q68 94 152 199q70 88 98 78q8 -4 8 -15q0 -20 -31.5 -62t-107.5 -103q-59 -49 -119 -99zM1167 954q0 -18 7 -28q49 0 98 53q16 23 10 39q-6 14 -29 14h-2q-92 0 -84 -78z" />
<glyph unicode="&#x2c6;" horiz-adv-x="628" d="M262 410q2 -4 8 -4q8 0 11 2q123 41 215 96q51 -68 88 -86q4 -4 12 -6q2 -2 6 -2q2 0 4 2q2 4 -4 14q-23 41 -74 145q-2 4 -6 4h-2q-10 0 -19 -8t-169 -110q-33 -20 -66 -39q-6 -4 -4 -8z" />
<glyph unicode="&#x2dc;" horiz-adv-x="628" d="M299 436q0 -4 2 -6q6 -2 16 12q43 49 82 45q20 -2 62.5 -28.5t64.5 -26.5h2q74 0 119 84q4 12 4 16t-2 7q-4 2 -16 -11q-37 -53 -82 -49q-23 2 -62.5 30t-62.5 28q-76 2 -123 -82q-4 -12 -4 -19z" />
<glyph unicode="&#x2000;" horiz-adv-x="768" />
<glyph unicode="&#x2001;" horiz-adv-x="1536" />
<glyph unicode="&#x2002;" horiz-adv-x="768" />
<glyph unicode="&#x2003;" horiz-adv-x="1536" />
<glyph unicode="&#x2004;" horiz-adv-x="512" />
<glyph unicode="&#x2005;" horiz-adv-x="384" />
<glyph unicode="&#x2006;" horiz-adv-x="256" />
<glyph unicode="&#x2007;" horiz-adv-x="256" />
<glyph unicode="&#x2008;" horiz-adv-x="192" />
<glyph unicode="&#x2009;" horiz-adv-x="307" />
<glyph unicode="&#x200a;" horiz-adv-x="85" />
<glyph unicode="&#x2010;" horiz-adv-x="501" d="M78 176q0 -33 74 -33q27 0 77 9.5t76 9.5q61 0 82 -33q4 -6 8 -6q4 2 4 10q4 106 -90 107h-2q-33 0 -93 -34t-93 -34q-16 0 -33 8q-4 0 -4 2q-4 4 -6 -6z" />
<glyph unicode="&#x2011;" horiz-adv-x="501" d="M78 176q0 -33 74 -33q27 0 77 9.5t76 9.5q61 0 82 -33q4 -6 8 -6q4 2 4 10q4 106 -90 107h-2q-33 0 -93 -34t-93 -34q-16 0 -33 8q-4 0 -4 2q-4 4 -6 -6z" />
<glyph unicode="&#x2012;" horiz-adv-x="501" d="M78 176q0 -33 74 -33q27 0 77 9.5t76 9.5q61 0 82 -33q4 -6 8 -6q4 2 4 10q4 106 -90 107h-2q-33 0 -93 -34t-93 -34q-16 0 -33 8q-4 0 -4 2q-4 4 -6 -6z" />
<glyph unicode="&#x2013;" horiz-adv-x="729" d="M94 203q-2 -16 17 -21q12 -4 30 -4l260 6q72 0 248 9q10 2 10 8v2q0 10 -32 10q-174 4 -490 16q-39 2 -43 -26z" />
<glyph unicode="&#x2014;" horiz-adv-x="1130" d="M94 203q-4 -25 47 -25h54q47 2 67 2l668 8q35 0 102 2q29 2 29 11v2q0 10 -133 12l-506 8q-80 0 -285 6q-39 2 -43 -26z" />
<glyph unicode="&#x2018;" horiz-adv-x="186" d="M199 569q0 -23 28 -16q61 12 70 41q-2 10 2 41q12 47 55 92q16 16 15 18q-14 8 -88 -61q-41 -39 -70 -82q-12 -18 -12 -31v-2z" />
<glyph unicode="&#x2019;" horiz-adv-x="186" d="M164 541q2 -2 22 10q90 51 162 133q14 16 14 29v2q0 18 -26 18q-70 -10 -84 -39q2 -10 -6 -43q-20 -37 -68 -88q-18 -18 -14 -22z" />
<glyph unicode="&#x201a;" horiz-adv-x="288" d="M-49 -102q2 -2 22 10q90 51 162 133q14 16 15 31v2q0 16 -27 16q-70 -10 -84 -39q2 -10 -6 -43q-20 -37 -68 -88q-18 -18 -14 -22z" />
<glyph unicode="&#x201c;" horiz-adv-x="366" d="M199 573q0 -25 30 -18q59 12 68 41q0 74 72 145q4 2 0 7q-10 10 -88 -62q-41 -37 -70 -82q-12 -18 -12 -29v-2zM360 571q0 -25 29 -18q61 12 70 41q-2 10 2 41q12 47 55 92q16 16 14 18q-14 8 -88 -61q-43 -39 -69 -82q-12 -29 -13 -29v-2z" />
<glyph unicode="&#x201d;" horiz-adv-x="366" d="M180 539q2 -2 23 10q90 51 162 133q14 16 14 31v2q0 16 -27 16q-70 -10 -84 -39q2 -10 -6 -43q-20 -37 -67 -88q-18 -18 -15 -22zM358 541q4 -2 25 10q90 51 162 133q14 16 14 29v2q0 18 -27 18q-74 -10 -83 -39q2 -12 -7 -43q-27 -47 -71 -94q-16 -12 -13 -16z" />
<glyph unicode="&#x201e;" horiz-adv-x="466" d="M-49 -104q2 -2 22 10q90 51 162 133q14 16 15 29v2q0 18 -27 18q-70 -10 -84 -39q2 -10 -6 -43q-20 -37 -68 -88q-18 -18 -14 -22zM129 -102q4 -2 25 10q90 51 161 133q14 16 15 29v2q0 18 -27 18q-74 -10 -84 -39q2 -12 -6 -43q-29 -51 -74 -94q-14 -12 -10 -16z" />
<glyph unicode="&#x2022;" horiz-adv-x="524" d="M207 301q0 -45 29.5 -73.5t74.5 -28.5q43 0 73 28.5t30 71.5v2q0 43 -30 74t-73 31q-45 0 -74.5 -30t-29.5 -75z" />
<glyph unicode="&#x2026;" horiz-adv-x="774" d="M37 12q0 -20 8 -30q53 0 96 55q18 23 13 39q-6 14 -29 14h-2q-61 0 -80 -39q-6 -18 -6 -39zM297 12q0 -20 8 -30q53 0 96 55q18 23 13 39q-6 14 -29 14h-2q-61 0 -80 -39q-6 -18 -6 -39zM557 12q0 -20 8 -30q53 0 97 55q18 23 12 39q-6 14 -29 14h-2q-61 0 -80 -39 q-6 -18 -6 -39z" />
<glyph unicode="&#x202f;" horiz-adv-x="307" />
<glyph unicode="&#x2039;" horiz-adv-x="401" d="M106 195q2 -2 11 -17q59 -94 86 -155q0 -14 10 -15h2q4 0 4 6v13q0 61 -39 163q51 31 121 101l27 26q12 16 6 23q-6 2 -17 -8q-49 -31 -147 -90l-41 -23q-23 -12 -23 -24z" />
<glyph unicode="&#x203a;" horiz-adv-x="401" d="M47 8q2 -2 4 -2q57 41 160 100q12 6 57 31q4 2 6 8q-4 10 -30 62q-18 35 -68 129q-2 4 -6 4h-2q-8 0 -6 -21q4 -68 41 -161q-43 -27 -123 -101q-41 -37 -33 -49z" />
<glyph unicode="&#x205f;" horiz-adv-x="384" />
<glyph unicode="&#x2122;" horiz-adv-x="997" d="M219 575l21 -4q8 37 24 45q8 4 53 5v-154q0 -51 -43 -51v-21h144v21q-41 0 -41 51v154q43 0 54 -6.5t22 -43.5l20 4l-8 68h-238zM479 395h92v21q-35 0 -30 47q4 49 10 137h2q18 -41 65 -147q6 -16 25 -58l21 6l90 203q4 -57 10 -147q2 -37 -37 -41v-21h133v21 q-27 4 -35 37l-6 55l-8 72q0 43 37 45v18h-98l-78 -176q-27 57 -76 176h-100v-18q37 -6 36 -41q-4 -33 -14 -119q-6 -49 -39 -49v-21z" />
<glyph unicode="&#x25fc;" horiz-adv-x="348" d="M0 0v348h348v-348h-348z" />
</font>
</defs>
</svg>
