<?xml version="1.0" standalone="no"?>
<!DOCTYPE svg PUBLIC "-//W3C//DTD SVG 1.1//EN" "http://www.w3.org/Graphics/SVG/1.1/DTD/svg11.dtd" >
<svg xmlns="http://www.w3.org/2000/svg" xmlns:xlink="http://www.w3.org/1999/xlink" version="1.1">
<metadata></metadata>
<defs>
<font id="desardregular" horiz-adv-x="894" >
<font-face units-per-em="2048" ascent="1503" descent="-545" />
<missing-glyph horiz-adv-x="704" />
<glyph horiz-adv-x="0" />
<glyph unicode="&#xd;" horiz-adv-x="1372" />
<glyph unicode=" "  horiz-adv-x="704" />
<glyph unicode="&#x09;" horiz-adv-x="704" />
<glyph unicode="&#xa0;" horiz-adv-x="704" />
<glyph unicode="!" horiz-adv-x="421" d="M80 66q0 20 8 42.5t23.5 41t38 31t51.5 12.5q59 0 88.5 -39t29.5 -93q0 -47 -36.5 -82.5t-89.5 -35.5q-33 0 -54.5 14t-35 34.5t-18.5 41.5t-5 33zM117 426q2 279 18.5 544t46.5 533l166 -28q-20 -248 -37.5 -511.5t-31.5 -557.5z" />
<glyph unicode="&#x22;" horiz-adv-x="600" d="M51 1098q2 123 16.5 241.5t41.5 237.5l145 -12q-16 -111 -32.5 -228.5t-28.5 -246.5zM291 1110q16 123 43.5 238.5t68.5 232.5l142 -29q-57 -213 -115 -465z" />
<glyph unicode="#" horiz-adv-x="1261" d="M51 506l6 145q53 -2 104.5 -3t104.5 -5q20 129 49 258q-55 4 -118.5 8t-104.5 11l6 145q59 -8 123 -12t127 -9q12 57 29.5 115t34 114t30 113.5t17.5 116.5l145 -18q-6 -117 -42 -226.5t-64 -222.5q35 -2 71.5 -2h73.5h67.5t67.5 2q31 129 52.5 209t36 129t21.5 76t9 49 l145 -18q-23 -111 -55.5 -218.5t-54.5 -218.5q61 4 122.5 7.5t125.5 3.5l-6 -146q-70 0 -137.5 -3t-137.5 -7q-14 -66 -27.5 -132.5t-17.5 -129.5q61 4 121.5 9t122.5 5l-6 -145q-63 0 -125 -5t-123 -12q-2 -100 -13.5 -199.5t-44.5 -193.5l-141 43q29 82 38 168t13 174 q-92 0 -164.5 2t-142.5 6q-12 -98 -20.5 -191t-10.5 -192l-145 -6q2 100 10 199.5t21 198.5q-47 4 -96.5 5t-96.5 3zM412 637q66 -4 133 -6t160 -2q6 66 17 131t26 131q-41 0 -81 -2t-81 -2q-31 0 -61.5 1t-61.5 3q-14 -63 -27.5 -127t-23.5 -127z" />
<glyph unicode="$" horiz-adv-x="1204" d="M70 426q0 61 13 109.5t38 85.5l117 -66q-10 -20 -16.5 -60t-6.5 -73q0 -35 15.5 -57.5t40 -37t57 -20.5t67.5 -8q2 135 4 264t7 258q-49 4 -91.5 14.5t-73 32t-48 54t-17.5 82.5q0 55 19.5 103t53.5 90t79 75t96 55l12 246l111 -17l-8 -192q27 4 48 7t42 3l12 191l111 -6 q-4 -51 -5.5 -101.5t-3.5 -103.5q49 -20 93.5 -64.5t70.5 -126.5l-114 -41q-16 35 -27.5 55.5t-28.5 32.5q-2 -63 -3 -125.5t-5 -126.5q186 -16 285.5 -103t99.5 -234q0 -215 -106.5 -317.5t-298.5 -129.5q-2 -47 -3 -92t-1 -92l-107 -8v182q-23 -2 -46.5 -2h-47.5 q-2 -47 -3 -92t-1 -93l-107 23v166q-66 6 -125 20.5t-103 44t-69.5 76.5t-25.5 119zM319 987q33 -25 91 -26q2 51 3 102t5 102q-45 -31 -72 -76t-27 -102zM508 299h92q4 135 5 264t5 260q-23 -2 -43 -3t-51 -1q-4 -143 -6 -270t-2 -250zM524 958l90 5l11 272 q-27 -2 -48.5 -6t-41.5 -8zM713 309q61 8 110 27.5t84 54.5t53.5 91.5t18.5 138.5q0 90 -72.5 139t-181.5 59z" />
<glyph unicode="%" horiz-adv-x="1361" d="M74 33q158 199 317.5 405.5t306 404t271.5 378t213 325.5l112 -86q-84 -152 -202.5 -333t-261 -377.5t-303 -402.5t-330.5 -410zM141 1348q0 80 48.5 125t125.5 45q39 0 81 -15.5t77 -43t58.5 -68.5t23.5 -91q0 -49 -19.5 -85.5t-50 -61.5t-70.5 -38t-79 -13 q-55 0 -92 23.5t-60.5 59.5t-33 79t-9.5 84zM268 1292q0 -20 5.5 -41.5t19.5 -21.5q23 0 46 8t42.5 22.5t32 33t12.5 38.5q0 25 -15.5 42.5t-43.5 17.5q-57 0 -78 -25t-21 -74zM817 272q0 80 48 125t126 45q39 0 81 -15t77 -43t58.5 -69t23.5 -90t-19.5 -86t-50.5 -61.5 t-70.5 -37.5t-78.5 -13q-55 0 -92 23.5t-60.5 59t-33 78.5t-9.5 84zM944 217q0 -20 5 -41.5t20 -21.5q23 0 46 8t42.5 22.5t32 33t12.5 38.5q0 25 -15.5 42t-44.5 17q-57 0 -77.5 -24.5t-20.5 -73.5z" />
<glyph unicode="&#x26;" horiz-adv-x="1138" d="M84 440q0 135 58.5 250t152.5 236q-20 57 -32.5 102t-19.5 84t-10.5 74t-3.5 69q0 51 17.5 95.5t47.5 77t69.5 51t82.5 18.5q37 0 72 -17.5t62.5 -46t44 -69.5t16.5 -86q0 -94 -53 -188.5t-131 -198.5q63 -199 160.5 -371t226.5 -325q39 27 55 64.5t16 82.5t-7 78 t-25.5 60.5t-50 54t-80.5 57.5l82 98q117 -47 172 -138t55 -220q0 -78 -32 -138.5t-85 -107.5l24.5 -24.5t26.5 -22.5l-102 -107q-20 23 -39.5 39.5t-38.5 40.5q-104 -39 -225 -39q-111 0 -203 36t-159.5 98.5t-105.5 147.5t-38 185zM227 444q0 -68 29 -128t75 -105 t106.5 -71.5t121.5 -26.5q29 0 67 5t85 17q-84 106 -140.5 186t-96.5 149t-67.5 135.5t-54.5 146.5q-53 -76 -89 -152t-36 -156zM375 1223q0 -35 7 -75t19 -81q39 47 68 109.5t29 109.5q0 23 -11.5 42.5t-37.5 19.5q-29 0 -51.5 -39t-22.5 -86z" />
<glyph unicode="'" horiz-adv-x="311" d="M51 1098q2 123 16.5 241.5t41.5 237.5l145 -12q-16 -111 -32.5 -228.5t-28.5 -246.5z" />
<glyph unicode="(" horiz-adv-x="702" d="M100 604q0 131 28 265.5t82 261t135 242.5t187 208l89 -125q-72 -68 -136.5 -168t-111.5 -217t-75 -241.5t-28 -241.5q0 -92 16.5 -187.5t53.5 -187.5t97.5 -179t148.5 -163l-74 -100q-115 70 -193.5 165t-127 204.5t-70 228t-21.5 235.5z" />
<glyph unicode=")" horiz-adv-x="739" d="M100 -104q72 68 135.5 168t111.5 216.5t76 241.5t28 242q0 94 -16.5 188.5t-53.5 186.5t-97.5 178t-148.5 164l74 100q113 -72 191.5 -167t128 -204.5t71 -227t21.5 -234.5q0 -131 -28 -265.5t-82 -262.5t-135 -242.5t-188 -206.5z" />
<glyph unicode="*" horiz-adv-x="1273" d="M90 991l45 133q80 -14 170 -20t195 -8q-61 111 -108.5 206t-76.5 181l138 26q33 -86 77.5 -178t102.5 -192q66 92 131 181t127 183l119 -78q-53 -78 -112.5 -158.5t-121.5 -166.5q94 4 188.5 8t188.5 14l12 -141q-104 -10 -208.5 -14t-215.5 -6q51 -86 106.5 -169 t113.5 -165l-117 -82q-57 82 -113.5 170t-114.5 180q-78 -92 -148.5 -169t-135.5 -136l-76 119q57 53 114.5 115.5t118.5 133.5q-117 4 -217 11.5t-182 21.5z" />
<glyph unicode="+" horiz-adv-x="1474" d="M72 631l55 160q106 -16 226 -24.5t255 -8.5v2q0 340 39 565l160 -55q-16 -111 -24.5 -238t-8.5 -274q270 6 553 30l14 -170q-135 -10 -276 -16t-289 -10q4 -129 10.5 -258t18.5 -264l-170 -15q-10 129 -16.5 262.5t-10.5 274.5q-162 0 -296 9t-240 30z" />
<glyph unicode="," horiz-adv-x="516" d="M-8 -106q76 29 129 81t87 121.5t49 153.5t15 176l129 -57q10 -31 13.5 -65t3.5 -68q0 -78 -20.5 -157t-62.5 -146.5t-104.5 -115.5t-146.5 -63z" />
<glyph unicode="-" horiz-adv-x="880" d="M68 662l43 135q51 -20 115.5 -31.5t127 -18t116.5 -7.5t87 -1q61 0 118.5 1t96.5 8l14 -150q-41 -2 -86 -3t-96 -1q-100 0 -178 4t-140.5 11t-114.5 20.5t-103 32.5z" />
<glyph unicode="." horiz-adv-x="399" d="M80 66q0 20 8 42.5t23.5 41t38 31t51.5 12.5q59 0 88.5 -39t29.5 -93q0 -47 -36.5 -82.5t-89.5 -35.5q-33 0 -54.5 14t-35 34.5t-18.5 41.5t-5 33z" />
<glyph unicode="/" horiz-adv-x="991" d="M33 -55q125 209 241.5 422t220 417.5t189.5 392t150 345.5l124 -68q-117 -332 -316.5 -727t-473.5 -858z" />
<glyph unicode="0" horiz-adv-x="1019" d="M74 729q0 61 11 139t34.5 158t60.5 157t88 136t119 95t154 36q90 0 155.5 -35t111.5 -93t74.5 -135t44 -159t20.5 -165t5 -154q0 -102 -17 -229.5t-65.5 -240t-135.5 -189.5t-226 -77q-90 0 -158.5 38t-117 99.5t-79 141.5t-48 164t-24.5 165.5t-7 147.5zM238 723 q0 -25 4 -80t15 -123.5t31.5 -142.5t50.5 -135.5t73 -100.5t100 -39q80 0 133 60.5t86 152t46.5 199t13.5 201.5q0 45 -1.5 106.5t-8.5 126t-21.5 127t-41 111.5t-68.5 79.5t-103 30.5q-55 0 -100.5 -29.5t-79 -77.5t-58 -109.5t-41 -126t-23.5 -125t-7 -105.5z" />
<glyph unicode="1" horiz-adv-x="1026" d="M10 682q84 57 168 135t157 176.5t130 216t88 256.5l119 -59q0 -37 -1 -69.5t-6.5 -73.5t-13.5 -98.5t-22 -143.5q-27 -154 -41.5 -366t-14.5 -480q31 2 60 2h57q162 0 271 -18v-144q-61 2 -124 3t-124 1q-137 0 -267.5 -6t-240.5 -16v139q59 8 108 15.5t115 11.5 q0 133 3 232.5t10.5 190.5t19.5 187t31 225q-98 -188 -198.5 -287.5t-193.5 -140.5z" />
<glyph unicode="2" horiz-adv-x="1425" d="M39 250q0 39 12 84t38 83t63.5 62.5t91.5 24.5q41 0 88 -18.5t92 -48t81 -66.5t54 -72q70 70 132.5 157t107.5 184t71.5 198.5t26.5 203.5q0 43 -7 88.5t-25.5 82t-50.5 60t-79 23.5q-31 0 -52 -18t-21 -53q0 -18 21.5 -29.5t57.5 -13.5l-34 -123q-59 0 -95.5 16.5 t-56.5 40t-27.5 50t-7.5 44.5q0 104 50.5 172t160.5 68q86 0 145.5 -38t96.5 -97.5t54 -132t17 -140.5q0 -119 -29.5 -235.5t-81.5 -226t-122 -207t-152 -178.5q20 -16 53 -30.5t72 -26t79 -18.5t75 -7q129 0 200.5 49t71.5 135q0 45 -22.5 65.5t-67.5 26.5l70 125 q55 -25 87 -49.5t49 -52t22.5 -57t5.5 -62.5q0 -76 -33 -137.5t-89 -104.5t-132 -66.5t-162 -23.5q-119 0 -213 41t-158 107q-61 -49 -129.5 -80t-154.5 -31q-106 0 -175 70.5t-69 181.5zM178 231q0 -41 29 -64.5t67 -23.5q47 0 93.5 20.5t85.5 51.5q-59 57 -108.5 102 t-92.5 45q-18 0 -32.5 -13t-24 -32.5t-13.5 -43.5t-4 -42z" />
<glyph unicode="3" horiz-adv-x="958" d="M-20 1470q104 0 188 3.5t155.5 8.5t134 14t122.5 22l79 -113q-88 -100 -164.5 -175t-113.5 -100q12 0 24.5 1.5t22.5 1.5q92 0 174 -40t145.5 -105.5t100.5 -152.5t37 -180q0 -63 -22.5 -139t-61.5 -151.5t-93.5 -145t-118 -124t-133 -87.5t-139.5 -33q-49 0 -95 16.5 t-81 47.5t-56.5 76t-21.5 100q0 27 4.5 56.5t12.5 64.5l131 -21q-8 -16 -8 -47q0 -86 29.5 -111.5t70.5 -25.5q80 0 154.5 46t133 121t93.5 168t35 185q0 100 -33 168t-80 107t-102 55t-98 16q-84 0 -207 -55l-84 98q186 193 280 306q-92 -10 -192.5 -16.5t-212.5 -6.5z" />
<glyph unicode="4" horiz-adv-x="1001" d="M39 735q274 649 293 768l164 -24q-33 -106 -105 -279.5t-188 -419.5q172 8 289 13q2 31 3 62.5t1 64.5q0 27 -1 53t-3 55h139q4 -45 7 -99.5t3 -119.5q78 4 153.5 6t149.5 2l-6 -133q-18 0 -37.5 1t-40.5 1q-53 0 -105.5 -2t-105.5 -6q-4 -119 -5 -242t-1 -246v-96 t4 -100l-137 18q-10 117 -15.5 228.5t-5.5 228.5q0 47 1.5 96t3.5 97q-76 -4 -162 -13.5t-191 -19.5z" />
<glyph unicode="5" horiz-adv-x="1036" d="M8 154l84 104q6 -10 22.5 -27.5t49.5 -35t81 -29.5t120 -12q94 0 177 23.5t145.5 71.5t98 118.5t35.5 164.5q0 68 -23.5 150t-66.5 154.5t-105.5 122t-140.5 49.5q-86 0 -166 -105l-90 55q12 129 13 263q0 115 -13 231q244 20 398 31l331 18l21 -153q-193 -8 -338 -21.5 t-256 -30.5l-16 -180q51 39 131 39q100 0 185 -60.5t146.5 -153.5t96.5 -203.5t35 -209.5q0 -129 -42 -228t-118 -166.5t-180.5 -101.5t-229.5 -34q-29 0 -84 7t-113.5 24.5t-110.5 47t-77 77.5z" />
<glyph unicode="6" horiz-adv-x="1136" d="M78 569q0 119 33.5 226.5t91.5 205.5q20 35 54 84.5t77 103.5t93 107.5t103.5 95.5t105.5 68.5t101 26.5q45 0 74 -14.5t47.5 -39t28.5 -59.5t16 -74l-104 -47q-8 35 -22.5 59.5t-39.5 24.5q-51 0 -108.5 -36.5t-114.5 -96t-108.5 -137.5t-91.5 -158t-63.5 -157.5 t-23.5 -139.5v-26v-19.5t4 -19.5q35 45 76 91t89 81t102.5 57.5t115.5 22.5q82 0 160 -30t139.5 -84t99.5 -129t38 -165t-39 -164.5t-101.5 -128t-141.5 -82t-161 -28.5q-117 0 -214 49t-167.5 131t-109.5 186t-39 215zM281 346q0 -43 32.5 -81t79.5 -66.5t100.5 -45 t96.5 -16.5q147 0 231 78t84 207q0 57 -31.5 100t-78.5 71t-103.5 41t-107.5 13q-31 0 -74 -16.5t-96 -69.5t-93 -104t-40 -111z" />
<glyph unicode="7" horiz-adv-x="878" d="M55 1376v135q35 -12 85 -19t116 -7q98 0 213 19.5t207 62.5l106 -105q-53 -160 -103 -328.5t-93 -328.5q61 6 119 6q57 0 112 -6l8 -146q-61 0 -106 -1t-78 -2t-57.5 -4t-46.5 -7q-35 -72 -65 -171t-52.5 -196.5t-36.5 -178.5t-21 -117l-167 18q16 94 40.5 182t50 168 t52.5 151.5t47 133.5q-35 -4 -73 -7t-79 -3l-12 151h41t61.5 2t62.5 5t42 8q37 82 60.5 160.5t43 155.5t41 152.5t54.5 149.5q-86 -29 -176.5 -41t-190.5 -12q-162 0 -205 20z" />
<glyph unicode="8" horiz-adv-x="1083" d="M66 481q0 160 86 311.5t233 256.5q-53 47 -68.5 92t-15.5 110q0 57 25.5 107.5t67.5 87.5t95.5 57.5t110.5 20.5q49 0 96 -25.5t85 -65.5t60.5 -89.5t22.5 -94.5q0 -82 -30.5 -134t-108.5 -93q135 -82 208 -202t73 -261q0 -111 -34 -216t-99.5 -186t-161 -130.5 t-217.5 -49.5q-106 0 -186.5 44.5t-134.5 115t-80.5 160.5t-26.5 184zM217 459q0 -55 15.5 -113.5t47 -108t82 -80t117.5 -30.5q88 0 158 38t118 99.5t73.5 141t25.5 165.5q0 66 -20.5 130.5t-60.5 115.5t-96 83t-126 32t-130.5 -48t-105.5 -121t-71.5 -155t-26.5 -149z M438 1231q0 -51 29 -84t76 -33q35 0 66.5 12.5t55 33t38 48t14.5 58.5q0 16 -10.5 34.5t-25.5 33t-35 23.5t-38 9q-29 0 -59.5 -11.5t-55 -29.5t-40 -43t-15.5 -51z" />
<glyph unicode="9" horiz-adv-x="835" d="M59 -29l25 156q57 -18 96 -18q164 0 258 47t140.5 133t57.5 204.5t11 264.5q0 86 -5 163.5t-19 153.5q-25 -27 -54.5 -54.5t-63.5 -49t-70 -35.5t-75 -14q-51 0 -89 19.5t-63.5 51t-38.5 73.5t-13 87q0 76 32.5 140.5t85 112.5t120 74.5t138.5 26.5q37 0 67 -4t54.5 -17 t47 -38t44.5 -64q4 -197 23.5 -387t19.5 -391q0 -152 -22.5 -273.5t-82.5 -207.5t-167.5 -133t-275.5 -47q-109 0 -181 26zM276 1151q0 -29 14.5 -55.5t55.5 -26.5q45 0 90 24.5t80 64.5t57.5 90.5t22.5 103.5q-70 0 -128 -10.5t-101 -35t-67 -62.5t-24 -93z" />
<glyph unicode=":" horiz-adv-x="407" d="M80 80q0 20 8 42.5t23.5 41t38 31t51.5 12.5q59 0 88.5 -39t29.5 -92q0 -47 -36.5 -83t-89.5 -36q-33 0 -54.5 14.5t-35 35t-18.5 41t-5 32.5zM80 776q0 20 8 43t23.5 41.5t38 30.5t51.5 12q59 0 88.5 -39t29.5 -92q0 -47 -36.5 -83t-89.5 -36q-33 0 -54.5 14.5t-35 35 t-18.5 41t-5 32.5z" />
<glyph unicode=";" horiz-adv-x="516" d="M-8 -106q76 29 129 81t87 121.5t49 153.5t15 176l129 -57q10 -31 13.5 -65t3.5 -68q0 -78 -20.5 -157t-62.5 -146.5t-104.5 -115.5t-146.5 -63zM207 776q0 20 8 43t23.5 41.5t38 30.5t51.5 12q59 0 88.5 -39t29.5 -92q0 -47 -36.5 -83t-90.5 -36q-33 0 -54 14.5t-34.5 35 t-18.5 41t-5 32.5z" />
<glyph unicode="&#x3c;" horiz-adv-x="1353" d="M92 711q55 53 145.5 110.5t196 114.5t216 112.5t207.5 104.5t171 88t107 66l47 -177q-76 -57 -192 -117.5t-238.5 -118.5t-234 -113.5t-179.5 -102.5q111 -49 221.5 -90t220 -87t219 -103.5t218.5 -137.5l-115 -145q-115 70 -231.5 137t-238.5 128.5t-251 113t-268 88.5z " />
<glyph unicode="=" horiz-adv-x="1445" d="M68 819l47 158q80 -10 168 -14.5t186 -4.5q109 0 211 7.5t206.5 16.5t212 18.5t228.5 11.5l21 -168q-109 -4 -211.5 -12.5t-207 -16.5t-212 -14t-221.5 -6q-250 0 -428 24zM80 410l47 157q80 -10 168 -14t186 -4q205 0 423 14.5t435 38.5l21 -168q-199 -23 -414 -36 t-438 -13q-250 0 -428 25z" />
<glyph unicode="&#x3e;" horiz-adv-x="1353" d="M92 1161l115 146q115 -70 231.5 -137.5t238.5 -129t251 -112.5t268 -88l21 -129q-55 -53 -144.5 -110.5t-195 -115t-217 -113t-209 -104.5t-172 -89t-105.5 -64l-47 176q76 57 191.5 117.5t238.5 119t234.5 113.5t179.5 102q-111 49 -221.5 90t-220 87.5t-219 103.5 t-218.5 137z" />
<glyph unicode="?" horiz-adv-x="974" d="M106 627q0 82 47.5 137t118 94t153.5 69.5t153.5 65.5t117.5 81t47 116q0 37 -24.5 61.5t-61 39t-78.5 19.5t-79 5q-29 0 -67 -2t-72.5 -9.5t-59.5 -22.5t-25 -40q0 -16 23 -31.5t57 -25.5l-26 -103q-57 0 -99.5 19.5t-70 50.5t-41 65.5t-13.5 65.5q0 55 42 93 t100.5 61.5t121 33t103.5 9.5q88 0 165 -23.5t133 -66.5t88 -104.5t32 -137.5q0 -82 -45 -138.5t-113.5 -98.5t-148.5 -73.5t-148.5 -63.5t-114 -67.5t-45.5 -84.5q0 -37 3.5 -63t11.5 -49.5t23.5 -49t37.5 -60.5l-100 -77q-29 16 -55.5 57t-47 88t-32 91t-11.5 69zM231 66 q0 20 8.5 42.5t24 41t38 31t50.5 12.5q59 0 89 -39t30 -93q0 -47 -37 -82.5t-90 -35.5q-33 0 -54.5 14t-34.5 34.5t-18.5 41.5t-5.5 33z" />
<glyph unicode="@" horiz-adv-x="1675" d="M109 592q0 94 21.5 200.5t63.5 210t103 197.5t141 166t178.5 115t212.5 43q139 0 274.5 -55.5t242 -149.5t172 -219t65.5 -262q0 -68 -31.5 -154t-87 -162t-132.5 -127t-167 -51q-53 0 -96 26.5t-78 67.5q-29 -43 -73 -74.5t-103 -31.5q-66 0 -111 31.5t-72.5 78.5 t-40.5 101.5t-13 101.5q0 55 19 124t56 129t92.5 101t128.5 41q106 0 164 -66.5t58 -166.5q0 -18 -3 -31.5t-6.5 -30t-5.5 -38t-2 -54.5q0 -16 1 -44.5t6.5 -56.5t15.5 -48.5t31 -20.5q66 0 122 39t97 95.5t64.5 122t23.5 118.5q0 109 -51.5 204t-134.5 165.5t-188 111.5 t-214 41q-102 0 -186 -40t-150.5 -104.5t-115 -148t-81 -173t-48 -174.5t-15.5 -154q0 -117 46 -209t126 -155.5t185.5 -97.5t224.5 -34q193 0 348 46t266 138l98 -98q-236 -223 -671 -223q-145 0 -283.5 44t-246 127t-174 202t-66.5 266zM721 645q0 -18 2 -50t9 -62.5 t19.5 -53t32.5 -22.5q49 0 80 51t48.5 120.5t22.5 137.5t5 102q0 23 -13.5 29t-39.5 6q-35 0 -65.5 -28.5t-53.5 -69.5t-35 -85t-12 -75z" />
<glyph unicode="A" horiz-adv-x="1374" d="M96 -25q16 154 50 286t94 274q-20 -2 -61.5 -12.5t-69.5 -20.5v141q53 20 98 33.5t96 17.5q23 63 55.5 146.5t75.5 170.5t94.5 170t110.5 148.5t125.5 105.5t140.5 40q55 0 88 -24t50.5 -60.5t21.5 -79.5t4 -80q0 -111 -5 -223.5t-22 -204.5q33 2 70 2h72q45 0 91 -2 t99 -17v-127q-37 0 -85 -1t-98 -2t-99.5 -4t-87.5 -7q-25 -111 -42.5 -216t-17.5 -210q0 -55 2 -87t6 -47t10.5 -19.5t14.5 -4.5q33 0 73 15.5t79.5 40t77.5 57.5t67 70l78 -111q-18 -29 -65.5 -65.5t-104 -69.5t-110.5 -55.5t-85 -22.5q-68 0 -105.5 27.5t-57 69.5 t-24.5 92.5t-5 97.5q0 98 14 204.5t37 217.5q-100 -10 -204.5 -23.5t-233.5 -34.5q-66 -141 -109 -288.5t-66 -307.5h-137zM467 725q106 18 207.5 31.5t208.5 25.5q20 129 31.5 242t11.5 229q0 29 -1 56.5t-5 27.5q-68 0 -133.5 -63.5t-125 -156.5t-109.5 -199.5t-85 -192.5 z" />
<glyph unicode="B" horiz-adv-x="1486" d="M31 299q0 27 11 63.5t38 73.5l137 -51q-12 -14 -21.5 -40t-9.5 -54q0 -59 29 -96t73 -58.5t97 -30t104 -8.5q66 0 148 13.5t166 39t164 64.5t142 91t100 116.5t38 142.5q0 70 -32.5 126.5t-85 95t-119 59t-136.5 20.5q-33 0 -71.5 -13t-71.5 -36l-55 141q49 37 96 59.5 t84 45t58.5 50.5t21.5 77q0 39 -27.5 65.5t-68.5 43t-87 22.5t-85 6q-63 0 -140 -16v-1100h-145v1044q-57 -33 -108.5 -79t-94.5 -105l-127 55q55 92 126 159t151 109t166 61.5t172 19.5q59 0 130.5 -17.5t133 -54.5t103.5 -92.5t42 -130.5q0 -41 -20.5 -91.5t-57.5 -95.5 q180 -31 285 -145.5t105 -288.5q0 -100 -46.5 -185t-122 -152.5t-172 -119t-197.5 -85t-199.5 -50t-176.5 -16.5q-74 0 -151.5 21.5t-143 64.5t-107.5 108.5t-42 153.5z" />
<glyph unicode="C" horiz-adv-x="1228" d="M82 299q0 80 29.5 198.5t83 250t124 262.5t152.5 236.5t171 171t177 65.5q82 0 132 -44t78 -110.5t38 -144.5t10 -146h-139q-2 37 -7 89.5t-17.5 98.5t-34 78.5t-58.5 32.5q-68 0 -137.5 -60t-135 -156.5t-122.5 -214.5t-100 -231.5t-68 -211.5t-25 -154 q0 -104 50.5 -165.5t160.5 -61.5q78 0 168 35t179.5 93t170 133t140.5 153l84 -146q-68 -78 -152 -151.5t-179 -130t-196.5 -91t-201.5 -34.5q-166 0 -270.5 91t-104.5 265z" />
<glyph unicode="D" horiz-adv-x="1495" d="M-10 137q0 53 42 95t146 42q59 0 111.5 -16t87.5 -39q86 68 164 148q-82 27 -152 74.5t-121 112t-79.5 143.5t-28.5 167q0 117 43 228.5t118.5 198.5t179 139.5t226.5 52.5q180 0 307 -76t207 -202t117 -289.5t37 -337.5q0 -115 -48.5 -230t-130 -209t-192.5 -152.5 t-236 -58.5q-117 0 -211 39t-192 99q-61 -47 -113.5 -62.5t-107.5 -15.5q-29 0 -59.5 10t-56 30.5t-42 47t-16.5 61.5zM123 135q0 -16 13.5 -19t27.5 -3q39 0 88 22q-23 16 -42.5 20.5t-35.5 4.5t-33.5 -7.5t-17.5 -17.5zM305 856q0 -61 24.5 -125.5t67.5 -116t100.5 -84 t123.5 -32.5q23 0 43 46t39.5 119.5t40 165t43 182.5t47 172t55.5 134q-35 16 -84 22.5t-78 6.5q-92 0 -170 -43t-134 -112t-87 -157t-31 -178zM500 137q27 -16 65.5 -28.5t79.5 -21.5t77 -14t56 -5q98 0 185.5 46t153 118.5t103 163.5t37.5 182q0 109 -15 213t-48 193 t-81 155.5t-114 99.5q-23 -61 -46 -159.5t-47.5 -206t-52.5 -208t-58 -163.5q39 16 81 46t78.5 66.5t63 78.5t37.5 83l121 -86q-18 -76 -75 -140.5t-127.5 -111.5t-146 -75.5t-133.5 -30.5q-39 -53 -90 -101.5t-104 -93.5z" />
<glyph unicode="E" horiz-adv-x="1267" d="M88 567q0 72 20.5 167t60.5 197.5t99.5 201t135 176t168 126t198.5 48.5q39 0 93.5 -18.5t105.5 -52.5t91 -82t52 -107l-111 -64q-53 80 -109 125t-126 45q-84 0 -165 -54t-148.5 -138t-116.5 -184.5t-70 -190.5q10 -2 20.5 -2h22.5q23 0 72 5t106.5 15.5t111.5 24.5 t89 33l27 -154q-23 -14 -78 -27.5t-118.5 -24.5t-123 -17.5t-90.5 -6.5h-38t-25 2q0 -119 14 -215t53 -163.5t106.5 -104.5t176.5 -37q141 0 266 59.5t229 182.5l132 -64q-39 -63 -109 -122.5t-155 -105.5t-174 -73.5t-165 -27.5q-131 0 -229 48t-164.5 133t-100.5 199.5 t-34 247.5z" />
<glyph unicode="F" horiz-adv-x="1200" d="M2 1331v160q31 -8 62.5 -17.5t62.5 -16.5t55.5 -14t38.5 -9v36l156 -36q2 -4 4 -11.5t4 -17.5q39 -2 77 -2h79q147 0 296.5 7t299.5 17l18 -163q-111 -8 -220.5 -11.5t-219.5 -3.5q-80 0 -159 1t-157 10q4 -33 4 -65v-65q0 -80 -1 -177t-7 -171q35 -4 74 -6t80 -2 q193 0 300 8.5t152 18.5l13 -148q-43 -10 -160 -17t-266 -7q-63 0 -119.5 1t-83.5 3q0 -74 -5 -140.5t-14.5 -137t-21.5 -151.5t-29 -179l-10 -82h-149q39 217 55 395t18 313q-12 2 -39.5 12.5t-39.5 20.5l34 137q12 -4 28.5 -7t29.5 -5q4 55 7 111.5t3 111.5q0 70 -4 132.5 t-8 109.5q-33 6 -57.5 11t-51.5 11.5t-56.5 14.5t-72.5 20z" />
<glyph unicode="G" horiz-adv-x="1208" d="M98 473q0 86 29 193.5t82 220t125 219t158 190.5t182 135.5t198 51.5q82 0 139.5 -38t94.5 -96.5t53.5 -131t16.5 -140.5l-144 -10q-2 45 -11 95t-27.5 91t-47 68t-69.5 27q-72 0 -146 -46.5t-142.5 -121t-129 -168.5t-105.5 -192.5t-70.5 -191.5t-25.5 -163q0 -41 7 -87 t23.5 -86t44 -66.5t68.5 -26.5q57 0 112.5 30.5t106 77.5t93.5 105.5t73 111.5q-23 -2 -46 -2h-46q-51 0 -107.5 2t-113.5 13l-10 153q55 -6 118.5 -8t129.5 -2q63 0 122.5 5t100.5 15q33 -20 50 -48.5t30 -67.5q-43 -129 -67.5 -222.5t-38 -167t-18.5 -138t-9 -136.5 l-152 -8q4 86 15.5 172t29.5 172q-82 -86 -181 -141.5t-185 -55.5q-84 0 -142.5 40t-95.5 101.5t-54.5 134.5t-17.5 138z" />
<glyph unicode="H" horiz-adv-x="1390" d="M31 -20q25 29 68.5 85t86.5 143t76 209t37 281q-53 2 -105.5 7.5t-99.5 15.5l-12 158q57 -6 106.5 -7.5t94.5 -1.5q-2 53 -8.5 133t-16.5 164t-25.5 158t-37.5 115l106 47q33 -31 56 -96.5t41 -150.5t27 -181t13 -189q135 0 218 1t128 6q6 86 14.5 175t17.5 170 t18.5 147.5t19.5 107.5l119 -11q-8 -49 -16.5 -123.5t-14.5 -156.5t-11 -163t-7 -142q123 2 230.5 15t225.5 36l35 -158q-92 -16 -224 -30.5t-267 -16.5q4 -258 90 -381t286 -139v-131q-152 0 -251 61.5t-157 155.5t-83 206.5t-29 217.5q-51 -8 -133 -11.5t-198 -3.5 q-6 -205 -72 -406.5t-211 -410.5z" />
<glyph unicode="I" horiz-adv-x="1249" d="M72 180q55 10 129.5 16.5t140.5 6.5h48.5t41.5 -2q0 86 17.5 202.5t37 245.5t37 259t17.5 241v40.5t-2 39.5q-80 -14 -143.5 -22.5t-141.5 -8.5q-16 0 -45 1t-45 1l18 148q23 -2 52.5 -3.5t50.5 -1.5q86 0 172 8.5t172 17.5t174 17.5t178 8.5q29 0 71 -2t74 -4v-144 q-51 6 -99 8t-95 2q-61 0 -128 -3t-132 -9q4 -12 4 -24.5v-26.5q0 -59 -6 -144t-16.5 -181.5t-20.5 -196t-20.5 -189.5t-16.5 -161.5t-6 -112.5q104 -10 204.5 -20.5t217.5 -36.5l-13 -177q-84 18 -148.5 29.5t-122.5 18t-116.5 8.5t-126.5 2q-78 0 -182 -2t-221 -6z" />
<glyph unicode="J" horiz-adv-x="1161" d="M74 53q0 49 15 100.5t44 94.5t70 75.5t92 47.5l63 -133q-51 -20 -94 -68.5t-43 -128.5q0 -59 38 -87t99 -28q117 0 184.5 70t67.5 186q0 88 -12 176t-25.5 177.5t-25.5 178.5t-12 181q0 33 2 78t6 95t13 102.5t24 101.5q-35 -2 -68 -3t-72 -2t-86 -2t-110 -3l-11 145 q125 2 233.5 12.5t215 22.5t217.5 21.5t242 9.5v-146q-66 0 -104 -1t-75.5 -4t-89 -10t-141.5 -20q-18 -68 -29.5 -131t-18.5 -116.5t-9 -94.5t-2 -61q0 -90 12 -177t25.5 -176.5t26 -179.5t12.5 -184q0 -180 -98.5 -283.5t-289.5 -103.5q-55 0 -107 18.5t-92 53t-63.5 84 t-23.5 112.5z" />
<glyph unicode="K" horiz-adv-x="1349" d="M113 -178q0 246 5 464t12 422.5t12 403.5t5 406h152v-650q86 82 191.5 161t219 145.5t230.5 116.5t225 75l70 -152q-246 -66 -454 -174t-369 -280q47 -70 86 -158t77.5 -179t80.5 -178t96.5 -154.5t125 -108.5t164.5 -41q66 0 104 11t71 48l90 -106q-23 -61 -79.5 -83 t-178.5 -22q-86 0 -156 22.5t-127 61.5t-100 91t-76 112q-25 45 -44.5 85t-40 87t-46 107.5t-62.5 146.5q-27 43 -41 67.5t-21 40t-12.5 25.5t-13.5 22l-10 -14q-4 -47 -7 -77.5t-5 -62.5t-5 -77t-5.5 -122t-5.5 -194.5t-7 -297.5z" />
<glyph unicode="L" horiz-adv-x="1460" d="M43 113q0 45 19.5 98t54.5 98t82 75t102 30q51 0 89 -21.5t65.5 -52.5t50 -64.5t47.5 -60.5q43 45 89 130t88 182.5t74 192.5t46 163q-76 -25 -149.5 -42.5t-145.5 -17.5q-98 0 -187 39t-175 139l90 84q59 -66 144 -96.5t177 -30.5q76 0 150.5 19.5t138.5 56.5 q18 57 48 142.5t75 163t105.5 133t138.5 55.5q25 0 50 -12.5t46.5 -34t36 -49t14.5 -58.5q0 -80 -42 -146.5t-104.5 -121.5t-133 -98t-128.5 -74q-18 -68 -52 -176.5t-80 -226t-103 -229.5t-123 -183q53 -53 113.5 -79t146.5 -26q61 0 121.5 18.5t109 53.5t77 86t28.5 117 q0 35 -10 68.5t-29.5 61t-47.5 44t-63 16.5q-18 0 -38 -6l-35 152q31 8 71 8q66 0 121.5 -29t95 -78t61 -114.5t21.5 -139.5q0 -90 -43 -164.5t-111.5 -130t-152.5 -86t-166 -30.5q-117 0 -196.5 44t-155.5 120q-86 -66 -148.5 -98.5t-131.5 -32.5q-117 0 -176.5 65.5 t-59.5 153.5zM193 115q0 -72 73 -72q55 0 109.5 24.5t97.5 61.5q-35 47 -75 88t-87 41q-55 0 -86.5 -47t-31.5 -96zM1032 1079q39 27 81 67t77 82t57.5 78.5t22.5 59.5q0 10 -4 22.5t-21 12.5q-29 0 -60.5 -40t-61 -93.5t-54.5 -107.5t-37 -81z" />
<glyph unicode="M" horiz-adv-x="1275" d="M-160 -66q121 152 204 329t136 368.5t84 391.5t47 396l133 23q20 -68 44 -158t48.5 -192.5t49 -216t47.5 -230.5q31 100 71.5 213t87 227.5t94.5 228t95 218.5l137 -21q-10 -111 -28.5 -252t-37 -293.5t-31.5 -308t-13 -297.5q0 -45 4 -109.5t17 -124.5t42 -102t78 -42 q45 0 81 21.5t63.5 55t47 75.5t31.5 83l128 -57q0 -55 -28 -111.5t-74 -103.5t-103.5 -78t-112.5 -35q-178 0 -254 135t-76 420q0 135 17.5 306t50.5 339q-31 -61 -62 -134t-60.5 -150.5t-54 -157.5t-43.5 -156h-151q-4 18 -15.5 78.5t-29 144.5t-38 180.5t-42.5 184.5 q-25 -84 -50.5 -187.5t-57 -214t-68.5 -224t-83 -217t-104.5 -191.5t-130.5 -150z" />
<glyph unicode="N" horiz-adv-x="1042" d="M14 -12q45 45 79 105.5t57.5 127t35 135t11.5 129.5q0 78 -9.5 230.5t-52.5 410.5l156 56q12 -27 32.5 -70t61.5 -128t108.5 -224t174.5 -359q-8 68 -12.5 123.5t-4.5 100.5q0 74 7.5 169t23.5 195.5t45 196.5t72 173t102.5 123t138.5 46q55 0 101.5 -21.5t79 -58.5 t51 -86t18.5 -102q0 -37 -20.5 -72t-55.5 -55l-98 57q16 16 28.5 44t12.5 56q0 45 -33.5 65.5t-70.5 20.5q-61 0 -104.5 -43t-72 -112.5t-46 -157.5t-26.5 -177t-11 -173t-2 -144q0 -84 8 -176t23.5 -179t38 -164t50.5 -130l-145 -39q-82 162 -142.5 284t-111.5 231.5 t-98 218t-105 243.5q10 -84 15.5 -135t8.5 -84t4 -57.5t1 -55.5q0 -82 -9.5 -163.5t-32 -164.5t-64.5 -167t-105 -168z" />
<glyph unicode="O" horiz-adv-x="1140" d="M92 498q0 61 15.5 154t46 196.5t76.5 206t104.5 185.5t130.5 134t156 51q96 0 164.5 -43t116.5 -112.5t76 -158.5t43 -180t20.5 -177t5.5 -150q0 -115 -24 -229.5t-81 -207.5t-151.5 -151.5t-237.5 -58.5q-115 0 -201 46t-144 123t-87 173.5t-29 198.5zM240 489 q0 -76 17 -145.5t54 -122.5t95.5 -85t140.5 -32q98 0 166.5 45.5t111.5 116t61.5 158.5t18.5 174q0 41 -1 107.5t-9 143.5t-24.5 153.5t-47 139t-77 101.5t-113.5 39q-63 0 -117.5 -45t-98.5 -115.5t-77 -160t-55.5 -177.5t-33.5 -167t-11 -128z" />
<glyph unicode="P" horiz-adv-x="1355" d="M43 1038q0 111 59.5 186.5t147.5 124t188.5 69t182.5 20.5q100 0 220 -26t221 -84t169.5 -150.5t68.5 -227.5q0 -139 -69.5 -238.5t-176 -164t-233.5 -97t-243 -38.5q-10 -92 -33 -184.5t-61 -178.5t-91 -160.5t-123 -132.5l-84 97q55 63 101.5 125.5t78 128t49 136 t17.5 152.5q0 86 -7 171t-7 184q0 55 8 116.5t30.5 122t64.5 114.5t108 93l98 -92q-63 -55 -98 -104.5t-50.5 -98.5t-18.5 -100t-3 -109q0 -27 1 -56.5t1 -64.5h49q80 0 176.5 23.5t180.5 72t140 119t56 164.5q0 92 -52 159t-132 107.5t-174 60t-176 19.5q-66 0 -143.5 -17 t-145.5 -51t-113 -85t-45 -121q0 -31 5 -54.5t23.5 -45t52.5 -43t91 -48.5l-37 -129q-78 29 -130 68t-83.5 83t-45 91t-13.5 94z" />
<glyph unicode="Q" horiz-adv-x="1357" d="M82 539q0 88 28.5 186t79 196.5t120 187.5t151.5 156.5t173 108.5t187 41q14 0 48 -5t72 -21.5t76 -47t60 -79.5l-33 -119q-47 41 -78.5 65.5t-55 38t-44 17.5t-45.5 4q-113 0 -218 -72t-187 -182.5t-131 -243.5t-49 -258q0 -86 21.5 -164t68.5 -136t120.5 -92t178.5 -34 q47 0 87 2t66 6q-84 121 -90 273l115 45q33 -164 108 -258q104 53 171 136t67 199q0 84 -20.5 174.5t-64.5 164t-111.5 120.5t-161.5 47q-70 0 -99.5 -19.5t-48.5 -57.5l-74 75q29 78 86.5 113t149.5 35q113 0 202 -64.5t150.5 -163t94 -217t32.5 -227.5q0 -88 -21.5 -156.5 t-60.5 -122t-94 -95.5t-121 -77q23 -27 56.5 -53t71.5 -50t77 -42t72 -31l-62 -118q-35 6 -70.5 21t-76.5 45t-90.5 76t-110.5 114q-31 -16 -89 -25.5t-120 -9.5q-113 0 -215 49t-179 131t-123 189.5t-46 224.5z" />
<glyph unicode="R" horiz-adv-x="1185" d="M-14 1130q39 63 94 115.5t122.5 89.5t143.5 56.5t156 19.5q82 0 168 -20.5t155.5 -64.5t113.5 -113.5t44 -165.5q0 -92 -38 -165t-106.5 -126.5t-163.5 -85t-210 -39.5q68 -78 114 -148.5t80.5 -132t63.5 -112t63.5 -85t80.5 -54t114 -19.5q33 0 71 4t69.5 15.5t53 32 t21.5 52.5q0 27 -8 45l106 54q53 -66 54 -119q0 -68 -39 -113t-94.5 -71.5t-117 -38t-106.5 -11.5q-90 0 -157.5 30t-118.5 78t-91 108.5t-76 123t-72 122t-81 104.5l-20 -531l-150 19q12 119 21.5 258t14.5 279.5t8 273.5t3 239q0 45 -1 88t-1 84q-63 -35 -100 -68.5 t-66 -88.5zM406 1249q2 -119 4 -238.5t2 -260.5q125 25 206.5 57.5t131 72.5t69 87t19.5 102t-31 92t-79 60.5t-104.5 33t-107.5 9.5q-29 0 -56.5 -4.5t-53.5 -10.5z" />
<glyph unicode="S" horiz-adv-x="1433" d="M84 295q0 98 44 179t114.5 137.5t156.5 87t170 30.5q201 0 287 -102l-59 -140q-39 47 -93.5 69t-125.5 22q-59 0 -120 -20.5t-110 -58.5t-80.5 -91.5t-31.5 -116.5q0 -55 30.5 -94t76.5 -65t100.5 -37t103.5 -11q104 0 219 40t212 111.5t159.5 171t62.5 216.5 q0 72 -24.5 136t-68.5 112.5t-105.5 76t-135.5 27.5q-49 0 -87 -11.5t-80 -25.5t-92 -25.5t-124 -11.5t-110.5 37t-36.5 117q0 88 47 169t119.5 143.5t157.5 99t163 36.5q39 0 80 -9t80 -34.5t73 -69.5t56 -114l-119 -45q-16 41 -30.5 65.5t-33 37t-41 16.5t-54.5 4 q-53 0 -115 -23.5t-114 -64.5t-87 -95.5t-35 -115.5q0 -20 17 -21q37 0 80 14.5t88 32t92 31.5t94 14q104 0 193.5 -42t155 -111.5t102 -160.5t36.5 -189q0 -143 -70.5 -268.5t-182 -218.5t-249 -146t-272.5 -53q-72 0 -155.5 21.5t-156.5 66.5t-122 112.5t-49 157.5z" />
<glyph unicode="T" horiz-adv-x="1259" d="M31 1354q160 0 273.5 6t206.5 12t176 12.5t181 6.5q150 0 242 -4.5t131 -12.5l-20 -147q-166 12 -355 12q-160 0 -309 -6q-10 -147 -30.5 -301t-20.5 -316q0 -135 13 -230t26 -132q29 -88 79 -157.5t124 -82.5l-50 -143q-57 12 -104 43t-85 74t-64.5 95t-45.5 107 q-16 53 -31.5 165t-15.5 259q0 166 20.5 317.5t20.5 280.5q-37 0 -66.5 -1t-65.5 -2t-88 -2t-136 -1z" />
<glyph unicode="U" d="M82 961q0 78 11 175t34 216l119 6q-10 -117 -13.5 -217.5t-3.5 -188.5q0 -49 1 -128t5.5 -170t15.5 -183t29.5 -166t48 -121t72.5 -47q31 0 55.5 34t45 89t37 126t29 144.5t20.5 143t12 125.5q4 35 5 184.5t3 419.5h150q0 -242 4 -479.5t10 -483.5q2 -80 9 -148.5 t30 -118.5t67 -78.5t117 -28.5q43 0 80 16l31 -141q-33 -20 -79 -29.5t-66 -9.5q-84 0 -141.5 30.5t-92.5 83t-51.5 124t-18.5 155.5q-49 -166 -102 -236.5t-133 -70.5t-136.5 48t-94 128t-59 181t-33 210t-14.5 214t-3 192z" />
<glyph unicode="V" horiz-adv-x="1243" d="M8 1245l115 80q63 -8 104 -52t69 -115t48.5 -167t44 -207.5t56 -236.5t83.5 -254q0 100 12.5 220t43 240.5t81 234.5t124 203t174 144.5t233.5 59.5v-142q-121 -23 -205 -93t-143.5 -172.5t-96 -228.5t-60 -258t-38 -263.5t-28.5 -241.5l-88 -6q-45 53 -91.5 149.5 t-89.5 213t-80.5 242.5t-68.5 241q-25 90 -39 155.5t-32.5 112.5t-47.5 81t-80 60z" />
<glyph unicode="W" horiz-adv-x="1347" d="M14 1214l111 54q104 -254 178 -506t133 -533q23 109 43 181l86 8q29 -43 63 -102.5t68 -137.5q4 125 8.5 224.5t10.5 168.5q12 147 47 292t94 266.5t145 212t201 131.5l64 -125q-106 -53 -179 -144.5t-121 -207t-74 -249t-38 -271.5t-14 -274t-2 -257l-115 -31 q-57 88 -98 170t-70 158q-29 -94 -50.5 -168t-39.5 -111l-64 -8q-18 41 -50 141.5t-69.5 228.5t-77.5 269t-77 267t-66.5 221.5t-46.5 131.5z" />
<glyph unicode="X" horiz-adv-x="1167" d="M47 1210l111 66q80 -104 118.5 -231t69.5 -281q33 49 72 103.5t95 124t136 159.5t197 211l110 -100q-129 -129 -217 -222.5t-151.5 -169t-108.5 -140t-90 -136.5q25 -86 56.5 -173t78.5 -156.5t114 -114t159 -44.5q66 0 116 26t109 104l94 -101q-55 -92 -144 -136 t-175 -44q-106 0 -186.5 42t-138.5 108.5t-100 149.5t-73 167q-16 -39 -37.5 -105.5t-21.5 -136.5q0 -92 39 -207l-140 -34q-51 122 -51 200q0 129 46 241t116 236q-49 176 -79 285t-49.5 171.5t-35.5 91t-39 46.5z" />
<glyph unicode="Y" horiz-adv-x="1288" d="M37 -342q0 78 38 146.5t100.5 129t142 110.5t161.5 90t161 68.5t140 45.5q23 111 40.5 233.5t27.5 227.5q-51 -66 -122 -102t-148 -36q-152 0 -243 67t-141.5 178.5t-67.5 259t-20 308.5l142 7q0 -59 5 -132t17.5 -148t36 -146.5t60 -127t88 -89t123.5 -33.5q80 0 132 41 t84.5 104.5t47 139t16.5 147.5q2 55 2 137v205h152q0 -233 -10.5 -430t-25.5 -352.5t-33.5 -266t-33.5 -172.5q55 12 112.5 21.5t119 16.5t130 10t150.5 3l9 -153q-66 0 -119.5 -1t-112.5 -5t-134 -12.5t-185 -22.5q-29 -115 -71 -244t-106.5 -237.5t-156.5 -180t-219 -71.5 q-53 0 -104.5 19.5t-92.5 54t-66.5 84t-25.5 108.5zM172 -354q0 -51 46 -79t97 -28q82 0 148.5 54.5t120 137.5t93.5 181t66 186q-90 -25 -190 -73t-185 -109t-140.5 -130.5t-55.5 -139.5z" />
<glyph unicode="Z" horiz-adv-x="1654" d="M-57 182q0 43 17 79t47 62.5t67 42t76 15.5q33 0 71.5 -11.5t75.5 -29.5t67.5 -38.5t47.5 -39.5q147 150 237 281t151.5 254t111 241.5t114.5 243.5q-88 -18 -193.5 -34.5t-215 -28t-214 -18.5t-190.5 -7h-44.5t-41.5 2l-14 147q147 0 294.5 13.5t282.5 32.5 q92 12 217 32.5t256 53.5l99 -115q-27 -37 -67 -106.5t-83 -151.5t-86 -167t-76 -153q-158 -317 -422 -604q37 -25 89.5 -45t107.5 -35.5t107.5 -23.5t89.5 -8q90 0 185 17t173 51t127 83t49 113q0 23 -13 44t-31.5 38.5t-40 31t-40.5 19.5l70 115q45 -20 81 -52t60.5 -69 t37.5 -75t13 -71q0 -102 -58 -176t-153.5 -122t-215 -71.5t-242.5 -23.5q-76 0 -134.5 7t-112.5 25.5t-113.5 49.5t-135.5 80q-61 -41 -133 -72t-137 -31q-43 0 -82 15.5t-69 42t-47 64.5t-17 83zM86 184q0 -20 18.5 -33.5t42.5 -13.5q59 0 101.5 10.5t64.5 26.5 q-31 29 -75.5 45.5t-73.5 16.5q-35 0 -56.5 -15.5t-21.5 -36.5z" />
<glyph unicode="[" horiz-adv-x="593" d="M88 1597q39 0 74 -1t71.5 -2t79.5 -4t101 -7l-6 -145q-39 0 -78 3t-80 7q14 -248 24.5 -508t10.5 -530q0 -197 -6 -390q53 8 105 13.5t105 7.5l-6 -145q-37 -2 -67.5 -5.5t-67.5 -6.5t-89 -9t-134 -14q0 193 4 384t4 402q0 217 -8 448.5t-37 501.5z" />
<glyph unicode="\" horiz-adv-x="991" d="M33 1454l125 68q63 -158 148 -346.5t188.5 -392t220 -416.5t243.5 -422l-135 -76q-274 463 -473.5 858t-316.5 727z" />
<glyph unicode="]" horiz-adv-x="593" d="M88 1417l6 146q37 2 68 5t67.5 6t89 9t134.5 14q0 -193 -4.5 -384t-4.5 -402q0 -217 8.5 -448.5t36.5 -501.5q-39 0 -73.5 1t-71.5 2t-80 4t-100 7l6 145q39 0 78 -3t80 -7q-14 248 -24.5 508t-10.5 531q0 195 6 389q-53 -8 -105.5 -13.5t-105.5 -7.5z" />
<glyph unicode="^" horiz-adv-x="911" d="M72 795q88 147 161.5 303.5t124.5 337.5l129 16q39 -47 83 -115.5t89.5 -150.5t89.5 -171t85 -177l-166 -80q-51 141 -110.5 259t-108.5 189q-57 -119 -104.5 -236.5t-100.5 -234.5z" />
<glyph unicode="_" horiz-adv-x="1253" d="M-25 -141l54 147q111 -16 238.5 -24.5t269.5 -8.5q174 0 349 7.5t355 23.5l14 -158q-166 -14 -346 -20t-366 -6q-166 0 -308.5 10t-259.5 29z" />
<glyph unicode="`" horiz-adv-x="733" d="M41 1219l72 118q45 -25 118.5 -53.5t154.5 -52t158 -39.5t128 -16l-33 -138q-59 0 -147.5 16.5t-177.5 42t-164.5 57.5t-108.5 65z" />
<glyph unicode="a" horiz-adv-x="868" d="M61 254q0 111 24 236.5t74 234.5t125.5 180.5t180.5 71.5q39 0 65.5 -3t49 -15.5t45 -35t51.5 -61.5h61q0 -98 -5 -167.5t-12 -126t-12.5 -108.5t-5.5 -114q0 -27 3.5 -62.5t10.5 -68.5t22.5 -55.5t39.5 -22.5q20 0 48 10.5t55 26.5l24 -145q-33 -23 -62.5 -32t-58.5 -9 q-82 0 -128 37.5t-68 97.5q-53 -92 -116.5 -136t-156.5 -44q-68 0 -115.5 24.5t-78.5 66.5t-45.5 98t-14.5 122zM227 268q0 -88 27 -133t65 -45q49 0 87 35t67 90t48.5 125t30.5 140.5t16 136t5 112.5q0 33 -27.5 66.5t-66.5 33.5q-59 0 -105 -57t-79 -141t-50.5 -182.5 t-17.5 -180.5z" />
<glyph unicode="b" horiz-adv-x="960" d="M98 176v1292h160v-747q41 47 100.5 77.5t137.5 30.5q84 0 154.5 -35.5t122.5 -95t81 -135.5t29 -155q0 -68 -31 -127.5t-79 -109.5t-110.5 -89t-127 -66.5t-124 -42t-104.5 -14.5q-78 0 -120 10.5t-62.5 35t-23.5 66.5t-3 105zM258 182q0 -29 8 -59q10 -4 18.5 -4h18.5 h23q45 0 112.5 21.5t131 60.5t109.5 90t46 112q0 45 -15.5 95.5t-43 91.5t-67.5 67.5t-91 26.5q-74 0 -123 -53t-76.5 -131t-39 -164t-11.5 -154z" />
<glyph unicode="c" horiz-adv-x="915" d="M70 201q0 59 19.5 141t55 171t86 176t110.5 155.5t130 111.5t145 43q51 0 91.5 -30.5t67 -77.5t39.5 -102.5t13 -104.5h-135q-10 66 -26.5 116t-49.5 50q-53 0 -103 -37t-94 -96.5t-81 -133t-62.5 -147.5t-40 -139.5t-14.5 -108.5q0 -45 13.5 -68.5t58.5 -23.5 q55 0 114.5 23.5t119 61.5t115.5 83t103 88l80 -127q-53 -47 -114.5 -96t-130 -91t-141 -68.5t-144.5 -26.5q-61 0 -104.5 21.5t-70 56t-38.5 82t-12 98.5z" />
<glyph unicode="d" horiz-adv-x="886" d="M80 408q0 109 25.5 200.5t76.5 158.5t125 104.5t172 37.5q61 0 133 -18q4 94 8.5 187t4.5 210q0 45 -2 101.5t-7 97.5h154q2 -29 3 -69t1 -72q0 -221 -13 -442.5t-13 -467.5q0 -92 8 -149.5t23.5 -90t37 -45t49.5 -12.5q23 0 46.5 17.5t45.5 40.5l48 -131 q-14 -25 -56.5 -49.5t-93.5 -24.5t-87 15.5t-60 37.5q-51 -43 -120 -62.5t-132 -19.5q-96 0 -167 39t-117 101.5t-69.5 142.5t-23.5 162zM233 403q0 -55 14.5 -106t41 -91t63.5 -63.5t82 -23.5q43 0 91 8t102 43q-8 33 -13.5 79t-8.5 97t-4 105.5t-1 105.5q0 53 1 106.5 t3 81.5q-55 21 -86 21q-141 0 -213 -94t-72 -269z" />
<glyph unicode="e" horiz-adv-x="952" d="M76 528q0 102 28.5 183.5t81 136.5t124 84t155.5 29q180 0 271 -83t91 -249q0 -59 -45 -100.5t-108.5 -67t-133 -36.5t-118.5 -11t-97.5 1t-88.5 9q2 -51 10 -105.5t31.5 -100.5t64.5 -75.5t109 -29.5q119 0 193.5 49t133.5 141l101 -113q-20 -39 -59.5 -80.5 t-92.5 -75.5t-119.5 -56.5t-142.5 -22.5q-94 0 -159.5 24.5t-109.5 67.5t-68 99.5t-36 120t-14 131t-2 130.5zM236 575q35 -10 69.5 -11t63.5 -1q37 0 89 6t100 16.5t81 24t33 29.5q0 74 -47 117t-129 43q-106 0 -178 -53.5t-82 -170.5z" />
<glyph unicode="f" horiz-adv-x="679" d="M27 809q59 33 86.5 48t48.5 30v121q0 156 17.5 254t54 153t96 74.5t145.5 19.5q106 0 168 -56t90 -161l-141 -88q-23 72 -46.5 105.5t-76.5 33.5q-90 0 -120 -88t-30 -276v-29.5t5 -36.5q92 14 151.5 21.5t106.5 11.5l22 -147q-86 -10 -158.5 -21.5t-119.5 -19.5 q-2 -29 -3 -70t-1 -76q0 -180 17 -357t48 -368l-145 -20q-20 123 -34.5 228.5t-24 205.5t-15.5 198.5t-10 205.5q-10 -6 -39 -19.5t-58 -23.5z" />
<glyph unicode="g" horiz-adv-x="927" d="M20 -420q0 61 33 102.5t86.5 72t121 54t139 47t139 51t120.5 66.5q0 70 -7 137.5t-21 139.5q-49 -88 -119 -150.5t-150 -62.5q-86 0 -135 40t-71.5 99.5t-27.5 129t-5 128.5q0 43 5 98.5t17.5 114t35 114.5t57 100t84 70.5t114.5 26.5q61 0 115.5 -10t95.5 -44 t64.5 -99.5t23.5 -175.5q0 -92 12.5 -167t28 -143.5t28.5 -138t15 -149.5l123 47l39 -137q-57 -10 -105.5 -23.5t-70.5 -23.5q-20 -145 -57 -242.5t-95.5 -157t-140.5 -84t-190 -24.5q-68 0 -123.5 8t-95.5 29.5t-61.5 59.5t-21.5 97zM180 -410q0 -25 30 -52t87 -27 q49 0 102.5 16t102.5 50t87 88t54 128q-59 -23 -139 -45t-151.5 -47t-122 -52.5t-50.5 -58.5zM260 406q0 -76 6 -121t15.5 -70t23 -32t29.5 -7q51 0 94 28.5t75 75t52 105.5t27 119q-12 59 -17.5 132t-9.5 128q-10 29 -29.5 38t-54.5 9q-66 0 -107.5 -42t-64.5 -103.5 t-31 -132t-8 -127.5z" />
<glyph unicode="h" horiz-adv-x="856" d="M61 -20q25 203 41.5 364.5t25.5 324t13 350t4 439.5l144 17q8 -66 12 -138.5t4 -150.5q0 -72 -2 -143.5t-6 -124.5q27 31 63.5 44t67.5 13q90 0 142.5 -58.5t79 -143.5t33.5 -179t7 -166q0 -37 -3 -70.5t-3 -74.5q0 -23 2 -46.5t7 -43t15.5 -31.5t26.5 -12t38 13t50 34 l62 -148q-37 -39 -81 -51t-65 -12q-106 0 -152 76.5t-46 211.5q0 117 -2 217.5t-11.5 175t-29 116.5t-52.5 42q-18 0 -42.5 -9t-47 -23.5t-42 -33t-29.5 -38.5q-10 -137 -20.5 -260t-21 -223.5t-20.5 -175t-18 -113.5z" />
<glyph unicode="i" horiz-adv-x="530" d="M137 365q0 66 4 128t10.5 124.5t12.5 129t10 140.5h158q0 -82 -4 -150.5t-10.5 -136.5t-10.5 -140.5t-4 -162.5q0 -35 2 -68.5t8 -61.5t16.5 -45.5t26.5 -17.5q23 0 48.5 11.5t60.5 50.5l96 -107q-59 -70 -107 -89t-94 -19q-82 0 -127 45t-66.5 109.5t-25.5 135t-4 124.5 zM156 1274q0 20 7 43.5t22.5 44t39 33t58.5 12.5q53 0 82.5 -40t29.5 -95q0 -49 -36.5 -84t-92.5 -35q-35 0 -56.5 13.5t-33.5 33t-16 40t-4 34.5z" />
<glyph unicode="j" horiz-adv-x="620" d="M-330 -422q0 68 60.5 122t151.5 100t194.5 89t189.5 91q0 88 -6 153.5t-12 128t-12.5 133t-6.5 170.5q0 104 10.5 209t36.5 203h158q-23 -111 -33 -211t-10 -195q0 -86 5 -152.5t12.5 -124.5t13.5 -115.5t8 -127.5q35 16 77 26.5t77 18.5l28 -149q-66 -12 -111.5 -26.5 t-74.5 -26.5q-12 -143 -43 -240.5t-87 -157t-142 -85t-209 -25.5q-37 0 -84 8t-89 29.5t-72 58.5t-30 96zM-162 -449q0 -10 22.5 -21t59.5 -11q66 0 122 8t99 37.5t72 85t41 147.5q-59 -18 -131 -42.5t-135.5 -55.5t-106.5 -68t-43 -80zM266 1280q0 20 8.5 43t23.5 42 t38.5 31.5t54.5 12.5q53 0 80 -39t27 -92q0 -49 -34 -83t-89 -34q-31 0 -51.5 14.5t-34 34t-18.5 39t-5 31.5z" />
<glyph unicode="k" horiz-adv-x="944" d="M76 -31q8 33 14 58.5t9 55.5t4 66.5t1 92.5q0 53 -2 138t-2 163q0 121 4.5 212t11.5 164.5t14 136t14.5 127t11.5 137.5t4 169h147q-4 -158 -10 -261.5t-12 -174t-11.5 -117.5t-10.5 -91t-8 -96.5t-3 -132.5q106 86 224 158t247 150l53 32l90 -100q-61 -45 -123.5 -85 t-126 -79t-125 -80t-118.5 -88q37 -106 90 -183t126 -129t168 -81t216 -37v-133q-252 0 -422 120t-289 353l-24 -20q4 -45 9 -119t5 -135q0 -14 -1 -43t-5 -64t-14.5 -71.5t-28.5 -65.5z" />
<glyph unicode="l" horiz-adv-x="694" d="M86 334q0 70 1 183.5t8 243.5t21.5 262t42 238.5t71 174t104.5 67.5q57 0 93 -33.5t55.5 -82t25.5 -99.5t6 -84q0 -123 -26.5 -233.5t-65.5 -215t-82 -208t-76 -213.5q0 -35 1 -79t7.5 -84t17.5 -67.5t32 -27.5q35 0 66.5 25.5t57 62.5t44 80t28.5 78l137 -64 q-4 -41 -31.5 -98.5t-71.5 -110.5t-100.5 -91t-119.5 -38q-90 0 -140.5 47t-74 113.5t-27.5 136.5t-4 117zM244 702q33 57 56.5 131t37.5 148t21.5 141.5t7.5 114.5q0 51 -6.5 67.5t-16.5 16.5q-23 0 -38 -53t-23 -135q-10 -98 -22.5 -196.5t-16.5 -234.5z" />
<glyph unicode="m" horiz-adv-x="1302" d="M37 813q41 23 74.5 40t65.5 37.5t64.5 44t71.5 58.5l54 -69q76 49 174 49q63 0 102 -19.5t68 -66.5q39 45 82 64.5t96 19.5q86 0 138 -39t81 -103.5t38 -150.5t9 -178q0 -70 -4 -142.5t-4 -138.5q0 -98 12 -151.5t58 -53.5q23 0 49 8.5t47 18.5l82 -92q-39 -47 -80 -68.5 t-72 -21.5q-80 0 -130 35.5t-76.5 94t-36 134.5t-9.5 153q0 78 5 157t5 171q0 94 -17 152.5t-77 58.5q-92 0 -117.5 -52t-25.5 -138q0 -31 -3 -113t-7 -182.5t-10.5 -203.5t-12.5 -177q-41 2 -78 5t-78 5q8 160 29 316.5t21 322.5q0 39 -2 82t-10.5 78t-25 57.5t-42.5 22.5 q-72 0 -122 -44t-63 -94q-8 -82 -18 -156.5t-22.5 -157.5t-24.5 -180t-25 -224l-180 8q6 55 15.5 121.5t22.5 154.5t34.5 204t52.5 269q-33 -33 -117 -63z" />
<glyph unicode="n" horiz-adv-x="950" d="M70 809q51 25 87 65.5t56 112.5l109 -45q33 33 69.5 57.5t89.5 24.5q96 0 152.5 -51t84 -136t35 -195t7.5 -226q0 -111 2 -182.5t6 -113.5t13.5 -58.5t23.5 -16.5q43 0 72.5 7t68.5 36l39 -121q-33 -37 -75 -51t-81 -14q-76 0 -121.5 27.5t-70.5 79.5t-33 126t-8 166 q0 55 2 132t2 136q0 61 -4 117.5t-15.5 98.5t-33 67t-55.5 25q-27 0 -52.5 -13.5t-48 -35t-39 -49t-24.5 -58.5q-4 -23 -9.5 -75t-9.5 -127t-7 -167t-3 -194q0 -66 2 -135.5t6 -143.5l-147 17q0 92 -3 166.5t-3 164.5q0 37 2 97.5t6 127t10 132t16 114.5q-18 -10 -41.5 -19 t-44.5 -17z" />
<glyph unicode="o" d="M84 418q0 94 26.5 188t77 168t124 120t165.5 46q113 0 167 -39t87 -121q63 14 131 60l78 -133q-33 -16 -71 -33t-91 -31q10 -63 12.5 -117.5t2.5 -89.5q0 -72 -21.5 -159t-65.5 -161.5t-115 -124.5t-169 -50q-90 0 -154.5 42t-105.5 109.5t-59.5 152.5t-18.5 173z M242 385q0 -43 7 -93t26.5 -94t52 -74t84.5 -30q59 0 103 35t71.5 87t41 112.5t13.5 113.5t-2 98.5t-12 73.5q-23 -6 -43 -6q-33 0 -65 11.5t-57.5 32t-40.5 46t-15 56.5q-35 -18 -65 -47t-52.5 -72t-34.5 -104.5t-12 -145.5zM498 803q0 -35 26.5 -63.5t50.5 -28.5 q43 -1 43 28q0 35 -39.5 49.5t-80.5 14.5z" />
<glyph unicode="p" horiz-adv-x="856" d="M-10 293q53 16 87 23.5t56 17.5q2 66 2 161t2 196.5t6 196.5t15 161l125 6q-2 -16 -3 -45t-1 -39q35 35 84 59.5t135 24.5q57 0 111.5 -22.5t97.5 -67.5t68.5 -112t25.5 -153q0 -119 -48 -201.5t-123 -141t-167 -95.5t-178 -63q-4 -113 -10.5 -208t-13.5 -186.5 t-13 -186.5t-8 -208l-164 -18q2 109 10 204t17.5 186t16.5 183t7 197q-12 -4 -36.5 -11.5t-49.5 -7.5zM283 365q63 12 127.5 40.5t118 73.5t87 108.5t33.5 145.5q0 86 -52 124t-126 38q-55 0 -92 -20.5t-58.5 -55.5t-29.5 -82t-8 -98v-274z" />
<glyph unicode="q" horiz-adv-x="929" d="M84 508q0 82 29.5 173t85 167t135.5 125t180 49q84 0 150 -39l92 8q8 -66 18 -176t21.5 -246.5t21.5 -291t20.5 -309t19.5 -301t15 -265.5l-172 -2q-10 94 -14 190.5t-8 192.5t-10 194.5t-21 198.5q-53 -37 -108.5 -58.5t-130.5 -21.5q-84 0 -144.5 38t-100.5 97.5 t-59.5 132t-19.5 144.5zM246 489q0 -37 7 -79.5t23.5 -80.5t43 -62.5t67.5 -24.5q27 0 59.5 9t66.5 24.5t65.5 35t54.5 37.5q0 92 4 164t4 133q0 43 -4 83t-17.5 73t-37 52t-62.5 19q-61 0 -111.5 -37.5t-87 -95t-56 -125.5t-19.5 -125z" />
<glyph unicode="r" horiz-adv-x="710" d="M82 -57q6 100 10 216.5t4 227.5q0 166 -4 326.5t-8 302.5l131 12q10 -27 14 -49.5t9 -44.5q104 86 231 86q94 0 153.5 -21.5t98.5 -78.5l-113 -121q-42 71 -119 71h-2q-35 0 -75.5 -15t-77.5 -42t-63.5 -60.5t-28.5 -70.5q6 -72 10 -163t4 -185q0 -98 -5 -206t-11 -196z " />
<glyph unicode="s" horiz-adv-x="1030" d="M57 260l138 49q12 -68 29.5 -113.5t42 -72.5t58 -38t78.5 -11q80 0 152 7t127 32.5t88 75t33 135.5q0 109 -45 156.5t-114 65.5q-65 17 -140 16h-8h-17q-69 0 -131 8q-68 8 -114 39.5t-46 113.5q0 63 33 119.5t83 99.5t110.5 67.5t115.5 24.5q43 0 84 -14t73 -42 t51.5 -69t19.5 -96l-144 -37q0 14 -2 33.5t-8 35t-18.5 27t-32.5 11.5q-31 0 -67.5 -16.5t-67.5 -41t-52.5 -53.5t-21.5 -55q27 0 75 -2t98 -5t94 -8.5t67 -11.5q53 -16 103 -46t88 -78t60.5 -117.5t22.5 -163.5q0 -115 -51 -187.5t-130 -114.5t-172 -57.5t-177 -15.5 q-92 0 -160.5 27.5t-114 74.5t-68 110.5t-22.5 137.5z" />
<glyph unicode="t" horiz-adv-x="817" d="M57 887l23 176q49 -10 97 -16.5t95 -10.5q12 98 27.5 209t40.5 271l174 -29q-33 -135 -55.5 -239.5t-36.5 -203.5q39 0 72.5 4.5t72.5 4.5q20 0 52 -3t88 -14l-17 -164q-31 2 -70.5 4.5t-68.5 2.5q-35 0 -75 -1t-75 -6q-12 -74 -19 -128t-11 -99t-5 -85t-1 -85 q0 -80 5 -155.5t23.5 -134t52 -93.5t89.5 -35q63 0 104 18.5t63 39.5l103 -133q-88 -63 -149.5 -78t-102.5 -15q-125 0 -193.5 52.5t-100.5 135.5t-38 188.5t-6 211.5q0 20 1 47t3 71t6 109.5t11 163.5z" />
<glyph unicode="u" horiz-adv-x="987" d="M90 969l164 12q0 -68 8 -178.5t14 -247.5q2 -68 15.5 -147.5t37 -149.5t56.5 -117t74 -47q57 0 96 38t62.5 94.5t34 119t10.5 111.5v101.5t1 152.5t1 158.5v117.5h159q-4 -106 -6 -232t-2 -229q0 -123 4 -201.5t16.5 -123.5t34 -61.5t56.5 -16.5q25 0 44 3t48 15l14 -145 q-35 -10 -58.5 -15.5t-51.5 -5.5q-68 0 -119 28t-78 124q-98 -197 -246 -197q-123 0 -198.5 92.5t-117.5 241t-57.5 333.5t-15.5 372z" />
<glyph unicode="v" horiz-adv-x="1202" d="M14 950l168 19q43 -84 73 -188.5t56.5 -212t56 -206t72.5 -167.5q51 96 110.5 201.5t129.5 211t151.5 210t178.5 198.5l112 -125q-86 -102 -172 -205.5t-165.5 -214.5t-151.5 -230.5t-129 -250.5h-131q-43 63 -81 149t-71 181.5t-61.5 192.5t-54 182t-48 152.5 t-43.5 102.5z" />
<glyph unicode="w" horiz-adv-x="1323" d="M4 948l176 19q14 -117 35 -229.5t43.5 -210t45 -174.5t40.5 -124q6 29 20.5 67t32 80t36 84t34.5 79l129 -7q27 -80 47.5 -134t37.5 -91t32.5 -62.5t31.5 -47.5q25 84 62 181t90 206.5t126 231.5t171 255l125 -104q-88 -119 -167 -237t-140.5 -241.5t-101.5 -254 t-50 -273.5h-139q-23 31 -44.5 63.5t-45 75.5t-50 98.5t-59.5 131.5q-39 -76 -71.5 -161t-55.5 -151l-127 11q-43 68 -84 181.5t-75.5 243.5t-61.5 261t-43 233z" />
<glyph unicode="x" horiz-adv-x="849" d="M33 965l71 110q76 -37 138.5 -126t99.5 -201q31 61 70 116.5t82 97.5t87 68.5t87 30.5l104 -135q-63 -33 -119.5 -74t-102.5 -84t-81 -86t-57 -82q104 -143 212.5 -286.5t215.5 -274.5l-129 -82q-37 23 -73 63.5t-77 102t-90 144t-115 188.5q-31 -61 -42 -170t-13 -287 l-172 18q-6 35 -8 70t-2 66q0 111 26.5 220t90.5 238q-37 100 -89.5 191.5t-113.5 163.5z" />
<glyph unicode="y" horiz-adv-x="913" d="M59 1059q43 0 77 2t50 4q14 -20 23.5 -58t16.5 -81t12.5 -86t11.5 -76q10 -61 23.5 -119.5t37 -104.5t62.5 -75t104 -29q76 0 118 63.5t61.5 158t22.5 199t3 187.5l149 7q0 -113 -4 -213.5t-9 -207t-9 -226t-4 -271.5q53 27 112.5 54.5t124.5 50.5l19 -144 q-78 -29 -144.5 -62.5t-107.5 -68.5q0 -90 -6 -190.5t-42 -185.5t-113 -140t-216 -55q-55 0 -113.5 16.5t-107.5 49t-80 80.5t-31 114q0 92 58.5 144t142.5 88t175 66t159 75q2 78 3 156.5t17 172.5q-12 -18 -30.5 -32.5t-41 -25.5t-46 -17.5t-41.5 -6.5q-90 0 -157 40 t-116 104.5t-80.5 148.5t-50 171t-26 171t-7.5 152zM246 -354q0 -29 18.5 -46.5t46 -26.5t58 -12t55.5 -3q74 0 118 25.5t68.5 67.5t32.5 95t8 111q-49 -27 -118.5 -45.5t-133 -40t-108.5 -50t-45 -75.5z" />
<glyph unicode="z" horiz-adv-x="1249" d="M66 76q92 86 189 175t198.5 190.5t208 219t217.5 263.5q-152 -27 -280 -44.5t-267 -17.5q-41 0 -91.5 10.5t-119.5 53.5l24 157q51 -25 90 -38t70 -20t55.5 -8t47.5 -1q76 0 162.5 9t170.5 22.5t158 28t121 24.5l119 -111q-8 -8 -71.5 -86t-170 -200.5t-250 -275.5 t-311.5 -312q160 14 288 21t205 7q78 0 340 -12l33 -151h-500q-119 0 -261 -5.5t-316 -13.5z" />
<glyph unicode="{" horiz-adv-x="614" d="M88 659l6 134q106 25 141 77t35 121q0 43 -8 88t-17 91.5t-17.5 93.5t-8.5 92q0 125 64.5 178t181.5 72l18 -146q-47 -4 -81.5 -30.5t-34.5 -90.5q0 -49 7 -97t15 -95t15.5 -94t7.5 -97q0 -76 -30 -131t-118 -102q86 -53 117 -137t31 -176q0 -84 -10.5 -159t-10.5 -167 q0 -41 5 -75t21.5 -60.5t46.5 -40.5t77 -14l-31 -144q-98 6 -150.5 44t-77 91.5t-28.5 113.5t-4 110q0 100 6 164.5t6 117.5q0 47 -8 92t-27.5 81t-53.5 61.5t-85 33.5z" />
<glyph unicode="|" horiz-adv-x="407" d="M102 -98q0 92 1 224t3.5 283.5t6.5 312.5t9 311.5t13 280.5t19 218l155 -29q-6 -82 -11 -207t-10 -272t-9.5 -308t-8.5 -314.5t-8 -289t-8 -231.5z" />
<glyph unicode="}" horiz-adv-x="614" d="M88 1462l31 144q98 -6 150.5 -44t77 -91.5t28.5 -114t4 -109.5q0 -100 -6 -164.5t-6 -117.5q0 -47 8 -92.5t27.5 -81t53 -61t85.5 -34.5l-6 -133q-106 -25 -141.5 -77t-35.5 -121q0 -43 8.5 -88.5t17.5 -91.5t17.5 -93t8.5 -92q0 -125 -64.5 -179t-181.5 -71l-19 146 q47 4 82 30.5t35 89.5q0 49 -7 97.5t-15.5 95.5t-15.5 94t-7 96q0 76 29.5 131.5t118.5 102.5q-86 53 -117 137t-31 176q0 84 10.5 159t10.5 167q0 39 -5.5 73.5t-21.5 61.5t-46 41t-77 14z" />
<glyph unicode="~" horiz-adv-x="1107" d="M88 840q23 39 58.5 70.5t79.5 53t92.5 34t95.5 12.5q51 0 92 -23.5t78 -52.5t71.5 -52.5t73.5 -23.5q25 0 49.5 12.5t47 31t45 39t42.5 36.5l105 -105q-35 -29 -69 -58.5t-67.5 -54t-70.5 -39.5t-78 -15q-57 0 -101 24.5t-82 53t-74 53t-77 24.5q-72 0 -131 -45 t-106 -104z" />
<glyph unicode="&#xa1;" horiz-adv-x="421" d="M80 -307q20 248 37.5 511t32.5 558l161 -21q-2 -279 -18.5 -544t-46.5 -533zM109 1106q0 47 36.5 83t90.5 36q33 0 54 -14.5t34.5 -35t18.5 -41t5 -32.5q0 -20 -8 -43t-23.5 -41.5t-38 -30.5t-51.5 -12q-59 0 -88.5 39t-29.5 92z" />
<glyph unicode="&#xa2;" horiz-adv-x="915" d="M49 459q0 66 24.5 160t67.5 194t103.5 193.5t134.5 156.5q6 111 12 205t15 164l155 -29q-4 -47 -7 -111.5t-7 -140.5q25 6 49 6q51 0 91 -30.5t66.5 -77.5t40 -102.5t13.5 -104.5h-135q-10 66 -26.5 116t-49.5 50q-14 0 -29.5 -4t-44.5 -8v-645q111 74 203 159l80 -127 q-59 -53 -133 -110.5t-166 -100.5v-391l-152 21v137t2 170q-35 -8 -82 -8q-61 0 -104 21.5t-69.5 56t-39 82t-12.5 98.5zM201 446q0 -45 13 -68.5t58 -23.5t86 15q2 135 5.5 280.5t7.5 286.5q-39 -59 -70 -129t-53.5 -137.5t-34.5 -126t-12 -97.5z" />
<glyph unicode="&#xa3;" horiz-adv-x="1261" d="M41 180q0 41 16.5 64.5t41 36t53 15.5t53.5 3q102 0 186 -39q23 0 43.5 38t35.5 101.5t24.5 146.5t11.5 175q-27 -4 -54.5 -4h-56.5h-26.5t-22.5 4l-10 164q47 0 131 18q-57 117 -57 254q0 49 18 113.5t57 122t95.5 96.5t134.5 39q57 0 109.5 -26.5t91 -71t62 -103.5 t23.5 -127q0 -14 -1 -27.5t-3 -27.5h-133q0 10 1 17t1 16q0 102 -43 149t-88 47q-39 0 -69.5 -18.5t-51 -48t-32 -65.5t-11.5 -73q0 -72 12.5 -135t28.5 -119q47 4 97.5 10.5t101.5 12.5l25 -172q-41 -6 -69 -11t-47.5 -8.5t-33.5 -5.5t-29 -2q4 -20 4.5 -38.5t0.5 -34.5 q0 -10 -1.5 -56.5t-12.5 -115t-38.5 -151.5t-79.5 -165q18 -18 51 -34.5t69 -29t70 -19.5t56 -7q76 0 127 17.5t80 48t41 70.5t12 87q0 45 -21.5 92.5t-80.5 71.5l76 100q57 -27 94 -60.5t56.5 -66t26.5 -62.5t7 -48q0 -111 -35 -188.5t-91 -127t-126 -73t-139 -23.5 q-74 0 -130.5 20.5t-101.5 48.5t-79.5 53.5t-67.5 35.5q-59 -59 -103.5 -72.5t-91.5 -13.5q-37 0 -70.5 13.5t-59 38t-42 57t-16.5 73.5zM186 166q0 -29 47 -29q40 1 89 21q-31 18 -56.5 26.5t-42.5 8.5q-37 0 -37 -27z" />
<glyph unicode="&#xa5;" horiz-adv-x="1298" d="M31 358l51 146q100 -14 210.5 -21.5t239.5 -7.5l41 76q-150 0 -273.5 8t-227.5 25l51 145q104 -14 220 -21.5t247 -7.5h67l76 127q-16 -4 -29.5 -4h-27.5h-37q-121 0 -220.5 54.5t-172 142.5t-114.5 201.5t-48 232.5l143 29q25 -78 57.5 -170t84 -172t125 -133.5 t180.5 -53.5q78 0 143.5 63.5t117.5 155t88 189.5t56 170l131 -66q-10 -55 -20 -97t-22.5 -75.5t-26 -63.5t-29.5 -63q-35 -68 -65.5 -119t-62.5 -101t-67.5 -107.5t-80.5 -134.5q104 4 204.5 9t204.5 13l12 -154q-123 -10 -246.5 -15t-258.5 -7l-37 -74q240 6 489 25 l13 -154q-137 -10 -281.5 -16t-298.5 -6q-45 -92 -97.5 -205t-115.5 -250l-129 94q39 92 79 182.5t83 178.5q-125 2 -229.5 10t-196.5 22z" />
<glyph unicode="&#xa6;" horiz-adv-x="407" d="M102 -98q0 119 2 300t7 386h163q-6 -209 -10 -393.5t-10 -313.5zM117 864q4 203 13 379t24 289l155 -29q-10 -104 -16 -272t-10 -367h-166z" />
<glyph unicode="&#xa8;" horiz-adv-x="710" d="M90 1151q0 111 100 111q45 0 73 -31t28 -96q0 -25 -11.5 -40.5t-26.5 -25.5t-32.5 -14t-30.5 -4q-49 0 -74.5 28.5t-25.5 71.5zM422 1163q0 51 22.5 81t77.5 30q43 0 69.5 -32t26.5 -93q0 -25 -10 -41t-25.5 -26.5t-31.5 -14.5t-29 -4q-55 0 -77.5 27.5t-22.5 72.5z" />
<glyph unicode="&#xa9;" horiz-adv-x="1570" d="M92 614q0 199 67.5 350.5t173 254t235.5 154.5t257 52q143 0 260 -67.5t200 -181t127 -262t44 -310.5q0 -164 -55 -285.5t-150.5 -201.5t-222.5 -120t-270 -40q-115 0 -232.5 35t-214 113.5t-158 203.5t-61.5 305zM240 604q0 -154 49 -251t124.5 -152.5t166 -76 t172.5 -20.5q98 0 198.5 27t181 85t132 152.5t51.5 229.5q0 129 -37 252t-100.5 219t-151.5 154.5t-188 58.5q-96 0 -202 -45t-194 -131t-145 -213t-57 -289zM496 657q0 78 26.5 145.5t68.5 119t96 80t110 28.5q59 0 115.5 -32.5t78.5 -96.5l-108 -67q-43 43 -86 43 q-35 0 -62.5 -19.5t-47 -50.5t-30 -68t-10.5 -71q0 -68 31 -112t70 -44q41 0 82.5 29.5t66.5 68.5l96 -114q-31 -29 -54.5 -52.5t-50 -41t-59 -27.5t-79.5 -10q-55 0 -101.5 21.5t-80 59t-53 92t-19.5 119.5z" />
<glyph unicode="&#xaa;" horiz-adv-x="694" d="M43 928q0 88 19.5 189.5t59.5 187.5t101.5 143t145.5 57q31 0 53 -2t40.5 -11t36 -27.5t40.5 -49.5h53q0 -86 -4 -143.5t-10.5 -102.5t-10.5 -83.5t-4 -86.5q0 -18 2 -43.5t7.5 -50t15.5 -41t26 -16.5t40 9t48 22l25 -131q-31 -23 -58.5 -31t-50.5 -8q-66 0 -100.5 23.5 t-54.5 68.5q-41 -66 -91 -96.5t-122 -30.5q-111 0 -159 71.5t-48 182.5zM193 940q0 -66 18 -98.5t43 -32.5q55 0 91 56.5t57.5 135t30.5 162.5t9 137q0 23 -18 45.5t-45 22.5q-43 0 -78 -44t-58.5 -108.5t-36.5 -139.5t-13 -136z" />
<glyph unicode="&#xab;" horiz-adv-x="1054" d="M74 686l6 94q293 115 508 348l98 -90q-256 -244 -455 -317q164 -90 336 -289l-61 -88q-246 244 -432 342zM492 756q111 59 209 134t186 169l90 -101q-152 -164 -318 -229q174 -96 316 -250l-101 -67q-145 158 -356 254z" />
<glyph unicode="&#xad;" horiz-adv-x="880" d="M68 662l43 135q51 -20 115.5 -31.5t127 -18t116.5 -7.5t87 -1q61 0 118.5 1t96.5 8l14 -150q-41 -2 -86 -3t-96 -1q-100 0 -178 4t-140.5 11t-114.5 20.5t-103 32.5z" />
<glyph unicode="&#xae;" horiz-adv-x="1570" d="M92 614q0 199 67.5 350.5t173 254t235.5 154.5t257 52q143 0 260 -67.5t200 -181t127 -262t44 -310.5q0 -164 -55 -285.5t-150.5 -201.5t-222.5 -120t-270 -40q-115 0 -232.5 35t-214 113.5t-158 203.5t-61.5 305zM240 604q0 -154 49 -251t124.5 -152.5t166 -76 t172.5 -20.5q98 0 198.5 27t181 85t132 152.5t51.5 229.5q0 129 -37 252t-100.5 219t-151.5 154.5t-188 58.5q-96 0 -202 -45t-194 -131t-145 -213t-57 -289zM416 879q57 72 152.5 110.5t195.5 38.5q74 0 130 -18.5t96 -48t60.5 -65.5t20.5 -73q0 -61 -49 -121.5 t-143 -105.5q29 -16 52 -38.5t48 -43t51.5 -36t63.5 -17.5l-33 -142q-68 0 -113 29t-82 70t-73.5 85t-85.5 75q4 -37 6 -92.5t4 -92.5l-146 -6q-4 104 -12 203.5t-16 204.5q-29 -6 -62 -45zM678 872l16 -194q31 6 71 18.5t77 29.5t61.5 41t24.5 54q0 35 -49.5 49.5 t-104.5 14.5q-59 0 -96 -13z" />
<glyph unicode="&#xb0;" horiz-adv-x="735" d="M76 1149q0 57 18.5 108.5t52 89t80.5 59t105 21.5q57 0 118.5 -18t113.5 -58t86 -100.5t34 -142.5q0 -72 -28.5 -126t-73.5 -91t-103.5 -56.5t-116.5 -19.5q-82 0 -136 29.5t-88 78t-48 108t-14 118.5zM221 1087q0 -35 15.5 -58t38 -36.5t47 -19.5t45.5 -6q70 0 119 46 t49 113q0 74 -43 115t-97 41q-57 0 -91 -13.5t-52.5 -38t-24.5 -61.5t-6 -82z" />
<glyph unicode="&#xb1;" horiz-adv-x="1474" d="M72 -227l53 157q111 -16 239 -24t269 -8q174 0 349 7t355 23l15 -168q-166 -14 -346.5 -20t-366.5 -6q-166 0 -308.5 10t-258.5 29zM72 631l55 160q106 -16 226 -24.5t255 -8.5v2q0 340 39 565l160 -55q-16 -111 -24.5 -238t-8.5 -274q270 6 553 30l14 -170 q-135 -10 -276 -16t-289 -10q4 -129 10.5 -258t18.5 -264l-170 -15q-10 129 -16.5 262.5t-10.5 274.5q-162 0 -296 9t-240 30z" />
<glyph unicode="&#xb4;" horiz-adv-x="733" d="M41 1176q57 6 137 25.5t162 43t152.5 49t107.5 43.5l72 -118q-33 -27 -108 -55.5t-164 -54.5t-178 -45.5t-150 -25.5z" />
<glyph unicode="&#xb7;" horiz-adv-x="407" d="M80 680q0 20 8 42.5t23.5 41t38 31t51.5 12.5q59 0 88.5 -39t29.5 -92q0 -47 -36.5 -83t-89.5 -36q-33 0 -54.5 14.5t-35 35t-18.5 41t-5 32.5z" />
<glyph unicode="&#xb8;" horiz-adv-x="1044" d="M358 -379q27 2 64 4t70.5 11.5t58 31t24.5 62.5q0 18 -22.5 35.5t-89.5 17.5q-35 0 -78 -6q2 49 2 117.5v121.5l121 7q0 -25 -1 -72t-3 -72q37 0 71.5 -4t62.5 -22.5t44 -54.5t16 -99q0 -55 -33.5 -92t-84 -60.5t-106.5 -34t-101 -10.5z" />
<glyph unicode="&#xba;" horiz-adv-x="716" d="M59 1085q0 76 21.5 151t62.5 134.5t100.5 96t133.5 36.5q90 0 135 -30.5t74 -92.5q43 14 98 50l70 -121q-51 -33 -127 -56q8 -47 9 -88t1 -67q0 -57 -17.5 -127t-54.5 -129.5t-93 -100.5t-136 -41q-74 0 -127 34t-86 88.5t-48.5 122.5t-15.5 140zM203 1059q0 -31 6 -69 t19.5 -70.5t38 -55t61.5 -22.5q45 0 76.5 25.5t52 65.5t30 85t9.5 86q0 37 -1 67.5t-8 53.5q-4 0 -5 -1t-5 -1q-53 0 -102 27.5t-62 80.5q-47 -29 -78.5 -89t-31.5 -183zM403 1378q4 -20 20.5 -36.5t31.5 -16.5q24 0 24 12q0 18 -24.5 28.5t-51.5 12.5z" />
<glyph unicode="&#xbb;" horiz-adv-x="1054" d="M66 518q49 145 286 297q-240 68 -266 154l86 61q129 -111 340 -137l18 -86q-219 -127 -358 -358zM289 1112l90 78q129 -111 266 -160t291 -49l45 -119q-274 -221 -434 -487l-98 92q117 250 337 397q-299 59 -497 248z" />
<glyph unicode="&#xbf;" horiz-adv-x="974" d="M109 14q0 80 45 137.5t113.5 99.5t148.5 73.5t148.5 63.5t113.5 68t45 85q0 37 -3 62.5t-11.5 49t-23.5 49t-38 60.5l101 78q29 -16 55 -57.5t45.5 -88.5t32 -90.5t12.5 -68.5q0 -82 -47 -137.5t-118 -94.5t-153.5 -69.5t-153.5 -65.5t-118 -81t-47 -116 q0 -37 24.5 -61.5t61.5 -38.5t79 -19.5t79 -5.5q27 0 65.5 2t73.5 9.5t59.5 23t24.5 39.5q0 16 -22.5 31.5t-57.5 25.5l27 103q57 0 99 -19.5t69.5 -50t41 -65.5t13.5 -66q0 -55 -42 -93t-100.5 -61.5t-121 -32.5t-103.5 -9q-90 0 -165.5 23.5t-132 66.5t-88 104.5 t-31.5 136.5zM528 1100q0 47 37 83t90 36q33 0 54.5 -14.5t35 -35t18.5 -41t5 -32.5q0 -20 -8 -43t-23.5 -41.5t-38 -30.5t-51.5 -12q-59 0 -89 39t-30 92z" />
<glyph unicode="&#xc0;" horiz-adv-x="1374" d="M96 -25q16 154 50 286t94 274q-20 -2 -61.5 -12.5t-69.5 -20.5v141q53 20 98 33.5t96 17.5q23 63 55.5 146.5t75.5 170.5t94.5 170t110.5 148.5t125.5 105.5t140.5 40q55 0 88 -24t50.5 -60.5t21.5 -79.5t4 -80q0 -111 -5 -223.5t-22 -204.5q33 2 70 2h72q45 0 91 -2 t99 -17v-127q-37 0 -85 -1t-98 -2t-99.5 -4t-87.5 -7q-25 -111 -42.5 -216t-17.5 -210q0 -55 2 -87t6 -47t10.5 -19.5t14.5 -4.5q33 0 73 15.5t79.5 40t77.5 57.5t67 70l78 -111q-18 -29 -65.5 -65.5t-104 -69.5t-110.5 -55.5t-85 -22.5q-68 0 -105.5 27.5t-57 69.5 t-24.5 92.5t-5 97.5q0 98 14 204.5t37 217.5q-100 -10 -204.5 -23.5t-233.5 -34.5q-66 -141 -109 -288.5t-66 -307.5h-137zM467 725q106 18 207.5 31.5t208.5 25.5q20 129 31.5 242t11.5 229q0 29 -1 56.5t-5 27.5q-68 0 -133.5 -63.5t-125 -156.5t-109.5 -199.5t-85 -192.5 zM492 1747l72 118q45 -25 118.5 -53.5t154.5 -52t158 -39.5t128 -16l-33 -138q-59 0 -147.5 16.5t-177.5 42t-164.5 57.5t-108.5 65z" />
<glyph unicode="&#xc1;" horiz-adv-x="1374" d="M96 -25q16 154 50 286t94 274q-20 -2 -61.5 -12.5t-69.5 -20.5v141q53 20 98 33.5t96 17.5q23 63 55.5 146.5t75.5 170.5t94.5 170t110.5 148.5t125.5 105.5t140.5 40q55 0 88 -24t50.5 -60.5t21.5 -79.5t4 -80q0 -111 -5 -223.5t-22 -204.5q33 2 70 2h72q45 0 91 -2 t99 -17v-127q-37 0 -85 -1t-98 -2t-99.5 -4t-87.5 -7q-25 -111 -42.5 -216t-17.5 -210q0 -55 2 -87t6 -47t10.5 -19.5t14.5 -4.5q33 0 73 15.5t79.5 40t77.5 57.5t67 70l78 -111q-18 -29 -65.5 -65.5t-104 -69.5t-110.5 -55.5t-85 -22.5q-68 0 -105.5 27.5t-57 69.5 t-24.5 92.5t-5 97.5q0 98 14 204.5t37 217.5q-100 -10 -204.5 -23.5t-233.5 -34.5q-66 -141 -109 -288.5t-66 -307.5h-137zM467 725q106 18 207.5 31.5t208.5 25.5q20 129 31.5 242t11.5 229q0 29 -1 56.5t-5 27.5q-68 0 -133.5 -63.5t-125 -156.5t-109.5 -199.5t-85 -192.5 zM659 1704q57 6 137 25.5t162 43t152.5 49t107.5 43.5l72 -118q-33 -27 -108 -55.5t-164 -54.5t-178 -45.5t-150 -25.5z" />
<glyph unicode="&#xc2;" horiz-adv-x="1374" d="M96 -25q16 154 50 286t94 274q-20 -2 -61.5 -12.5t-69.5 -20.5v141q53 20 98 33.5t96 17.5q23 63 55.5 146.5t75.5 170.5t94.5 170t110.5 148.5t125.5 105.5t140.5 40q55 0 88 -24t50.5 -60.5t21.5 -79.5t4 -80q0 -111 -5 -223.5t-22 -204.5q33 2 70 2h72q45 0 91 -2 t99 -17v-127q-37 0 -85 -1t-98 -2t-99.5 -4t-87.5 -7q-25 -111 -42.5 -216t-17.5 -210q0 -55 2 -87t6 -47t10.5 -19.5t14.5 -4.5q33 0 73 15.5t79.5 40t77.5 57.5t67 70l78 -111q-18 -29 -65.5 -65.5t-104 -69.5t-110.5 -55.5t-85 -22.5q-68 0 -105.5 27.5t-57 69.5 t-24.5 92.5t-5 97.5q0 98 14 204.5t37 217.5q-100 -10 -204.5 -23.5t-233.5 -34.5q-66 -141 -109 -288.5t-66 -307.5h-137zM467 725q106 18 207.5 31.5t208.5 25.5q20 129 31.5 242t11.5 229q0 29 -1 56.5t-5 27.5q-68 0 -133.5 -63.5t-125 -156.5t-109.5 -199.5t-85 -192.5 zM528 1597q98 66 180 133.5t148 134.5l106 -4q41 -72 89 -138.5t106 -125.5l-88 -92q-80 61 -185 178q-47 -45 -107.5 -91t-135.5 -93z" />
<glyph unicode="&#xc3;" horiz-adv-x="1374" d="M96 -25q16 154 50 286t94 274q-20 -2 -61.5 -12.5t-69.5 -20.5v141q53 20 98 33.5t96 17.5q23 63 55.5 146.5t75.5 170.5t94.5 170t110.5 148.5t125.5 105.5t140.5 40q55 0 88 -24t50.5 -60.5t21.5 -79.5t4 -80q0 -111 -5 -223.5t-22 -204.5q33 2 70 2h72q45 0 91 -2 t99 -17v-127q-37 0 -85 -1t-98 -2t-99.5 -4t-87.5 -7q-25 -111 -42.5 -216t-17.5 -210q0 -55 2 -87t6 -47t10.5 -19.5t14.5 -4.5q33 0 73 15.5t79.5 40t77.5 57.5t67 70l78 -111q-18 -29 -65.5 -65.5t-104 -69.5t-110.5 -55.5t-85 -22.5q-68 0 -105.5 27.5t-57 69.5 t-24.5 92.5t-5 97.5q0 98 14 204.5t37 217.5q-100 -10 -204.5 -23.5t-233.5 -34.5q-66 -141 -109 -288.5t-66 -307.5h-137zM457 1642q35 55 90 99t131 44q43 0 87 -16t87 -35.5t85 -36t81 -16.5t71.5 19.5t61.5 70.5l121 -86q-41 -74 -110.5 -113.5t-149.5 -39.5 q-55 0 -99.5 15t-80 34.5t-68.5 35t-68 15.5q-43 0 -74.5 -26.5t-60.5 -67.5zM467 725q106 18 207.5 31.5t208.5 25.5q20 129 31.5 242t11.5 229q0 29 -1 56.5t-5 27.5q-68 0 -133.5 -63.5t-125 -156.5t-109.5 -199.5t-85 -192.5z" />
<glyph unicode="&#xc4;" horiz-adv-x="1374" d="M96 -25q16 154 50 286t94 274q-20 -2 -61.5 -12.5t-69.5 -20.5v141q53 20 98 33.5t96 17.5q23 63 55.5 146.5t75.5 170.5t94.5 170t110.5 148.5t125.5 105.5t140.5 40q55 0 88 -24t50.5 -60.5t21.5 -79.5t4 -80q0 -111 -5 -223.5t-22 -204.5q33 2 70 2h72q45 0 91 -2 t99 -17v-127q-37 0 -85 -1t-98 -2t-99.5 -4t-87.5 -7q-25 -111 -42.5 -216t-17.5 -210q0 -55 2 -87t6 -47t10.5 -19.5t14.5 -4.5q33 0 73 15.5t79.5 40t77.5 57.5t67 70l78 -111q-18 -29 -65.5 -65.5t-104 -69.5t-110.5 -55.5t-85 -22.5q-68 0 -105.5 27.5t-57 69.5 t-24.5 92.5t-5 97.5q0 98 14 204.5t37 217.5q-100 -10 -204.5 -23.5t-233.5 -34.5q-66 -141 -109 -288.5t-66 -307.5h-137zM467 725q106 18 207.5 31.5t208.5 25.5q20 129 31.5 242t11.5 229q0 29 -1 56.5t-5 27.5q-68 0 -133.5 -63.5t-125 -156.5t-109.5 -199.5t-85 -192.5 zM625 1679q0 111 100 111q45 0 73 -31t28 -96q0 -25 -11.5 -40.5t-26.5 -25.5t-32.5 -14t-30.5 -4q-49 0 -74.5 28.5t-25.5 71.5zM957 1691q0 51 22.5 81t77.5 30q43 0 69.5 -32t26.5 -93q0 -25 -10 -41t-25.5 -26.5t-31.5 -14.5t-29 -4q-55 0 -77.5 27.5t-22.5 72.5z" />
<glyph unicode="&#xc5;" horiz-adv-x="1374" d="M96 -25q16 154 50 286t94 274q-20 -2 -61.5 -12.5t-69.5 -20.5v141q53 20 98 33.5t96 17.5q23 59 53.5 136t69.5 158t85 161t99.5 146.5t113.5 112.5t126 60q-61 31 -86 98t-25 130q0 80 48.5 125t125.5 45q39 0 81 -15.5t77 -43t58.5 -68.5t23.5 -90q0 -82 -51 -131.5 t-117 -63.5q27 -16 44.5 -42t25.5 -56.5t11 -62t3 -62.5q0 -111 -5 -223.5t-22 -204.5q33 2 70 2h72q45 0 91 -2t99 -17v-127q-37 0 -85 -1t-98 -2t-99.5 -4t-87.5 -7q-25 -111 -42.5 -216t-17.5 -210q0 -55 2 -87t6 -47t10.5 -19.5t14.5 -4.5q33 0 73 15.5t79.5 40 t77.5 57.5t67 70l78 -111q-18 -29 -65.5 -65.5t-104 -69.5t-110.5 -55.5t-85 -22.5q-68 0 -105.5 27.5t-57 69.5t-24.5 92.5t-5 97.5q0 98 14 204.5t37 217.5q-100 -10 -204.5 -23.5t-233.5 -34.5q-66 -141 -109 -288.5t-66 -307.5h-137zM467 725q106 18 207.5 31.5 t208.5 25.5q20 129 31.5 242t11.5 229q0 29 -1 56.5t-5 27.5q-68 0 -133.5 -63.5t-125 -156.5t-109.5 -199.5t-85 -192.5zM866 1640q0 -20 5.5 -41.5t19.5 -21.5q23 0 46.5 8t42.5 22.5t31.5 33t12.5 38.5q0 25 -15.5 42.5t-43.5 17.5q-57 0 -78 -25t-21 -74z" />
<glyph unicode="&#xc6;" horiz-adv-x="1939" d="M96 -25q16 154 50 286t94 274q-20 -2 -61.5 -12.5t-69.5 -20.5v141q53 20 98 33.5t96 17.5q23 63 55.5 146.5t75.5 170.5t94.5 170t110.5 148.5t125.5 105.5t140.5 40q43 0 74 -14.5t54.5 -36t40 -49t28.5 -52.5q74 72 162 116t192 44q39 0 93.5 -18.5t105.5 -52.5 t91 -82t52 -107l-110 -64q-53 80 -109.5 125t-126.5 45q-84 0 -165 -51t-148.5 -131t-116.5 -177.5t-70 -187.5q125 12 227.5 20.5t194.5 28.5l27 -153q-106 -8 -235.5 -23.5t-237.5 -23.5q0 -119 14 -218.5t53 -171t106.5 -111.5t176.5 -40q141 0 266 59.5t230 182.5 l131 -64q-39 -63 -109 -122.5t-155 -105.5t-174 -73.5t-164 -27.5q-131 0 -229.5 48t-165 133t-100.5 199.5t-34 247.5v25.5t2 28.5q-86 -10 -175 -21.5t-193 -28.5q-66 -141 -109 -288.5t-66 -307.5h-137zM467 725q86 14 168 25.5t168 21.5q29 111 81 226.5t128 220.5 q-16 41 -40.5 79.5t-51.5 38.5q-68 0 -133.5 -63.5t-125 -156.5t-109.5 -199.5t-85 -192.5z" />
<glyph unicode="&#xc7;" horiz-adv-x="1228" d="M82 299q0 80 29.5 198.5t83 250t124 262.5t152.5 236.5t171 171t177 65.5q82 0 132 -44t78 -110.5t38 -144.5t10 -146h-139q-2 37 -7 89.5t-17.5 98.5t-34 78.5t-58.5 32.5q-68 0 -137.5 -60t-135 -156.5t-122.5 -214.5t-100 -231.5t-68 -211.5t-25 -154 q0 -104 50.5 -165.5t160.5 -61.5q78 0 168 35t179.5 93t170 133t140.5 153l84 -146q-55 -63 -123 -124.5t-143.5 -114t-157.5 -92t-166 -58.5q0 -23 -1 -45t-3 -37q37 0 71.5 -4t62.5 -22.5t44 -54.5t16 -99q0 -55 -33.5 -92t-84 -60.5t-106.5 -34t-101 -10.5l-15 119 q27 2 64 4t70.5 11.5t58.5 31t25 62.5q0 18 -23 35.5t-90 17.5q-35 0 -78 -6q0 35 1 79t1 87h-18q-166 0 -270.5 91t-104.5 265z" />
<glyph unicode="&#xc8;" horiz-adv-x="1267" d="M88 567q0 72 20.5 167t60.5 197.5t99.5 201t135 176t168 126t198.5 48.5q39 0 93.5 -18.5t105.5 -52.5t91 -82t52 -107l-111 -64q-53 80 -109 125t-126 45q-84 0 -165 -54t-148.5 -138t-116.5 -184.5t-70 -190.5q10 -2 20.5 -2h22.5q23 0 72 5t106.5 15.5t111.5 24.5 t89 33l27 -154q-23 -14 -78 -27.5t-118.5 -24.5t-123 -17.5t-90.5 -6.5h-38t-25 2q0 -119 14 -215t53 -163.5t106.5 -104.5t176.5 -37q141 0 266 59.5t229 182.5l132 -64q-39 -63 -109 -122.5t-155 -105.5t-174 -73.5t-165 -27.5q-131 0 -229 48t-164.5 133t-100.5 199.5 t-34 247.5zM346 1747l72 118q45 -25 118.5 -53.5t154.5 -52t158 -39.5t128 -16l-33 -138q-59 0 -147.5 16.5t-177.5 42t-164.5 57.5t-108.5 65z" />
<glyph unicode="&#xc9;" horiz-adv-x="1267" d="M88 567q0 72 20.5 167t60.5 197.5t99.5 201t135 176t168 126t198.5 48.5q39 0 93.5 -18.5t105.5 -52.5t91 -82t52 -107l-111 -64q-53 80 -109 125t-126 45q-84 0 -165 -54t-148.5 -138t-116.5 -184.5t-70 -190.5q10 -2 20.5 -2h22.5q23 0 72 5t106.5 15.5t111.5 24.5 t89 33l27 -154q-23 -14 -78 -27.5t-118.5 -24.5t-123 -17.5t-90.5 -6.5h-38t-25 2q0 -119 14 -215t53 -163.5t106.5 -104.5t176.5 -37q141 0 266 59.5t229 182.5l132 -64q-39 -63 -109 -122.5t-155 -105.5t-174 -73.5t-165 -27.5q-131 0 -229 48t-164.5 133t-100.5 199.5 t-34 247.5zM494 1704q57 6 137 25.5t162 43t152.5 49t107.5 43.5l72 -118q-33 -27 -108 -55.5t-164 -54.5t-178 -45.5t-150 -25.5z" />
<glyph unicode="&#xca;" horiz-adv-x="1267" d="M88 567q0 72 20.5 167t60.5 197.5t99.5 201t135 176t168 126t198.5 48.5q39 0 93.5 -18.5t105.5 -52.5t91 -82t52 -107l-111 -64q-53 80 -109 125t-126 45q-84 0 -165 -54t-148.5 -138t-116.5 -184.5t-70 -190.5q10 -2 20.5 -2h22.5q23 0 72 5t106.5 15.5t111.5 24.5 t89 33l27 -154q-23 -14 -78 -27.5t-118.5 -24.5t-123 -17.5t-90.5 -6.5h-38t-25 2q0 -119 14 -215t53 -163.5t106.5 -104.5t176.5 -37q141 0 266 59.5t229 182.5l132 -64q-39 -63 -109 -122.5t-155 -105.5t-174 -73.5t-165 -27.5q-131 0 -229 48t-164.5 133t-100.5 199.5 t-34 247.5zM404 1597q98 66 180 133.5t148 134.5l106 -4q41 -72 89 -138.5t106 -125.5l-88 -92q-80 61 -185 178q-47 -45 -107.5 -91t-135.5 -93z" />
<glyph unicode="&#xcb;" horiz-adv-x="1267" d="M88 567q0 72 20.5 167t60.5 197.5t99.5 201t135 176t168 126t198.5 48.5q39 0 93.5 -18.5t105.5 -52.5t91 -82t52 -107l-111 -64q-53 80 -109 125t-126 45q-84 0 -165 -54t-148.5 -138t-116.5 -184.5t-70 -190.5q10 -2 20.5 -2h22.5q23 0 72 5t106.5 15.5t111.5 24.5 t89 33l27 -154q-23 -14 -78 -27.5t-118.5 -24.5t-123 -17.5t-90.5 -6.5h-38t-25 2q0 -119 14 -215t53 -163.5t106.5 -104.5t176.5 -37q141 0 266 59.5t229 182.5l132 -64q-39 -63 -109 -122.5t-155 -105.5t-174 -73.5t-165 -27.5q-131 0 -229 48t-164.5 133t-100.5 199.5 t-34 247.5zM432 1679q0 111 100 111q45 0 73 -31t28 -96q0 -25 -11.5 -40.5t-26.5 -25.5t-32.5 -14t-30.5 -4q-49 0 -74.5 28.5t-25.5 71.5zM764 1691q0 51 22.5 81t77.5 30q43 0 69.5 -32t26.5 -93q0 -25 -10 -41t-25.5 -26.5t-31.5 -14.5t-29 -4q-55 0 -77.5 27.5 t-22.5 72.5z" />
<glyph unicode="&#xcc;" horiz-adv-x="1249" d="M72 180q55 10 129.5 16.5t140.5 6.5h48.5t41.5 -2q0 86 17.5 202.5t37 245.5t37 259t17.5 241v40.5t-2 39.5q-80 -14 -143.5 -22.5t-141.5 -8.5q-16 0 -45 1t-45 1l18 148q23 -2 52.5 -3.5t50.5 -1.5q86 0 172 8.5t172 17.5t174 17.5t178 8.5q29 0 71 -2t74 -4v-144 q-51 6 -99 8t-95 2q-61 0 -128 -3t-132 -9q4 -12 4 -24.5v-26.5q0 -59 -6 -144t-16.5 -181.5t-20.5 -196t-20.5 -189.5t-16.5 -161.5t-6 -112.5q104 -10 204.5 -20.5t217.5 -36.5l-13 -177q-84 18 -148.5 29.5t-122.5 18t-116.5 8.5t-126.5 2q-78 0 -182 -2t-221 -6z M236 1747l72 118q45 -25 118.5 -53.5t154.5 -52t158 -39.5t128 -16l-33 -138q-59 0 -147.5 16.5t-177.5 42t-164.5 57.5t-108.5 65z" />
<glyph unicode="&#xcd;" horiz-adv-x="1249" d="M72 180q55 10 129.5 16.5t140.5 6.5h48.5t41.5 -2q0 86 17.5 202.5t37 245.5t37 259t17.5 241v40.5t-2 39.5q-80 -14 -143.5 -22.5t-141.5 -8.5q-16 0 -45 1t-45 1l18 148q23 -2 52.5 -3.5t50.5 -1.5q86 0 172 8.5t172 17.5t174 17.5t178 8.5q29 0 71 -2t74 -4v-144 q-51 6 -99 8t-95 2q-61 0 -128 -3t-132 -9q4 -12 4 -24.5v-26.5q0 -59 -6 -144t-16.5 -181.5t-20.5 -196t-20.5 -189.5t-16.5 -161.5t-6 -112.5q104 -10 204.5 -20.5t217.5 -36.5l-13 -177q-84 18 -148.5 29.5t-122.5 18t-116.5 8.5t-126.5 2q-78 0 -182 -2t-221 -6z M358 1704q57 6 137 25.5t162 43t152.5 49t107.5 43.5l72 -118q-33 -27 -108 -55.5t-164 -54.5t-178 -45.5t-150 -25.5z" />
<glyph unicode="&#xce;" horiz-adv-x="1249" d="M72 180q55 10 129.5 16.5t140.5 6.5h48.5t41.5 -2q0 86 17.5 202.5t37 245.5t37 259t17.5 241v40.5t-2 39.5q-80 -14 -143.5 -22.5t-141.5 -8.5q-16 0 -45 1t-45 1l18 148q23 -2 52.5 -3.5t50.5 -1.5q86 0 172 8.5t172 17.5t174 17.5t178 8.5q29 0 71 -2t74 -4v-144 q-51 6 -99 8t-95 2q-61 0 -128 -3t-132 -9q4 -12 4 -24.5v-26.5q0 -59 -6 -144t-16.5 -181.5t-20.5 -196t-20.5 -189.5t-16.5 -161.5t-6 -112.5q104 -10 204.5 -20.5t217.5 -36.5l-13 -177q-84 18 -148.5 29.5t-122.5 18t-116.5 8.5t-126.5 2q-78 0 -182 -2t-221 -6z M309 1597q98 66 180 133.5t148 134.5l106 -4q41 -72 89 -138.5t106 -125.5l-88 -92q-80 61 -185 178q-47 -45 -107.5 -91t-135.5 -93z" />
<glyph unicode="&#xcf;" horiz-adv-x="1249" d="M72 180q55 10 129.5 16.5t140.5 6.5h48.5t41.5 -2q0 86 17.5 202.5t37 245.5t37 259t17.5 241v40.5t-2 39.5q-80 -14 -143.5 -22.5t-141.5 -8.5q-16 0 -45 1t-45 1l18 148q23 -2 52.5 -3.5t50.5 -1.5q86 0 172 8.5t172 17.5t174 17.5t178 8.5q29 0 71 -2t74 -4v-144 q-51 6 -99 8t-95 2q-61 0 -128 -3t-132 -9q4 -12 4 -24.5v-26.5q0 -59 -6 -144t-16.5 -181.5t-20.5 -196t-20.5 -189.5t-16.5 -161.5t-6 -112.5q104 -10 204.5 -20.5t217.5 -36.5l-13 -177q-84 18 -148.5 29.5t-122.5 18t-116.5 8.5t-126.5 2q-78 0 -182 -2t-221 -6z M360 1679q0 111 100 111q45 0 73 -31t28 -96q0 -25 -11.5 -40.5t-26.5 -25.5t-32.5 -14t-30.5 -4q-49 0 -74.5 28.5t-25.5 71.5zM692 1691q0 51 22.5 81t77.5 30q43 0 69.5 -32t26.5 -93q0 -25 -10 -41t-25.5 -26.5t-31.5 -14.5t-29 -4q-55 0 -77.5 27.5t-22.5 72.5z" />
<glyph unicode="&#xd0;" horiz-adv-x="1495" d="M-10 137q0 53 42 95t146 42q59 0 111.5 -16t87.5 -39q86 68 164 148q-82 27 -152 74.5t-121 112t-79.5 143.5t-28.5 167q0 117 43 228.5t118.5 198.5t179 139.5t226.5 52.5q180 0 307 -76t207 -202t117 -289.5t37 -337.5q0 -115 -48.5 -230t-130 -209t-192.5 -152.5 t-236 -58.5q-117 0 -211 39t-192 99q-61 -47 -113.5 -62.5t-107.5 -15.5q-29 0 -59.5 10t-56 30.5t-42 47t-16.5 61.5zM123 135q0 -16 13.5 -19t27.5 -3q39 0 88 22q-23 16 -42.5 20.5t-35.5 4.5t-33.5 -7.5t-17.5 -17.5zM305 856q0 -61 24.5 -125.5t67.5 -116t100.5 -84 t123.5 -32.5q23 0 43 47t41 123q-78 8 -139.5 21t-121.5 36l43 145q53 -23 121 -34t133 -17q12 68 28.5 138.5t35 136t40 124t44.5 99.5q-35 16 -84 22.5t-78 6.5q-92 0 -170 -43t-134 -112t-87 -157t-31 -178zM500 137q27 -16 65.5 -28.5t79.5 -21.5t77 -14t56 -5 q98 0 185.5 46t153 118.5t103 163.5t37.5 182q0 109 -15 213t-48 193t-81 155.5t-114 99.5q-27 -70 -54 -186.5t-56 -239.5q20 -2 40.5 -2h41.5q59 0 125 6l80 -127q-18 -76 -75 -140.5t-127.5 -111.5t-146 -75.5t-133.5 -30.5q-39 -53 -90 -101.5t-104 -93.5zM795 502 q61 20 113.5 58t82.5 97h-10h-69.5t-61.5 2q-28 -98 -55 -157z" />
<glyph unicode="&#xd1;" horiz-adv-x="1042" d="M14 -12q45 45 79 105.5t57.5 127t35 135t11.5 129.5q0 78 -9.5 230.5t-52.5 410.5l156 56q12 -27 32.5 -70t61.5 -128t108.5 -224t174.5 -359q-8 68 -12.5 123.5t-4.5 100.5q0 74 7.5 169t23.5 195.5t45 196.5t72 173t102.5 123t138.5 46q55 0 101.5 -21.5t79 -58.5 t51 -86t18.5 -102q0 -37 -20.5 -72t-55.5 -55l-98 57q16 16 28.5 44t12.5 56q0 45 -33.5 65.5t-70.5 20.5q-61 0 -104.5 -43t-72 -112.5t-46 -157.5t-26.5 -177t-11 -173t-2 -144q0 -84 8 -176t23.5 -179t38 -164t50.5 -130l-145 -39q-82 162 -142.5 284t-111.5 231.5 t-98 218t-105 243.5q10 -84 15.5 -135t8.5 -84t4 -57.5t1 -55.5q0 -82 -9.5 -163.5t-32 -164.5t-64.5 -167t-105 -168zM56 1563q35 55 90 99t131 44q43 0 87 -16t87 -35.5t85 -36t81 -16.5t71.5 19.5t61.5 70.5l121 -86q-41 -74 -110.5 -113.5t-149.5 -39.5q-55 0 -99.5 15 t-80 34.5t-68.5 35t-68 15.5q-43 0 -74.5 -26.5t-60.5 -67.5z" />
<glyph unicode="&#xd2;" horiz-adv-x="1140" d="M92 498q0 61 15.5 154t46 196.5t76.5 206t104.5 185.5t130.5 134t156 51q96 0 164.5 -43t116.5 -112.5t76 -158.5t43 -180t20.5 -177t5.5 -150q0 -115 -24 -229.5t-81 -207.5t-151.5 -151.5t-237.5 -58.5q-115 0 -201 46t-144 123t-87 173.5t-29 198.5zM231 1698l72 118 q45 -25 118.5 -53.5t154.5 -52t158 -39.5t128 -16l-33 -138q-59 0 -147.5 16.5t-177.5 42t-164.5 57.5t-108.5 65zM240 489q0 -76 17 -145.5t54 -122.5t95.5 -85t140.5 -32q98 0 166.5 45.5t111.5 116t61.5 158.5t18.5 174q0 41 -1 107.5t-9 143.5t-24.5 153.5t-47 139 t-77 101.5t-113.5 39q-63 0 -117.5 -45t-98.5 -115.5t-77 -160t-55.5 -177.5t-33.5 -167t-11 -128z" />
<glyph unicode="&#xd3;" horiz-adv-x="1140" d="M92 498q0 61 15.5 154t46 196.5t76.5 206t104.5 185.5t130.5 134t156 51q96 0 164.5 -43t116.5 -112.5t76 -158.5t43 -180t20.5 -177t5.5 -150q0 -115 -24 -229.5t-81 -207.5t-151.5 -151.5t-237.5 -58.5q-115 0 -201 46t-144 123t-87 173.5t-29 198.5zM240 489 q0 -76 17 -145.5t54 -122.5t95.5 -85t140.5 -32q98 0 166.5 45.5t111.5 116t61.5 158.5t18.5 174q0 41 -1 107.5t-9 143.5t-24.5 153.5t-47 139t-77 101.5t-113.5 39q-63 0 -117.5 -45t-98.5 -115.5t-77 -160t-55.5 -177.5t-33.5 -167t-11 -128zM342 1651q57 6 137 25.5 t162 43t152.5 49t107.5 43.5l72 -118q-33 -27 -108 -55.5t-164 -54.5t-178 -45.5t-150 -25.5z" />
<glyph unicode="&#xd4;" horiz-adv-x="1140" d="M92 498q0 61 15.5 154t46 196.5t76.5 206t104.5 185.5t130.5 134t156 51q96 0 164.5 -43t116.5 -112.5t76 -158.5t43 -180t20.5 -177t5.5 -150q0 -115 -24 -229.5t-81 -207.5t-151.5 -151.5t-237.5 -58.5q-115 0 -201 46t-144 123t-87 173.5t-29 198.5zM240 489 q0 -76 17 -145.5t54 -122.5t95.5 -85t140.5 -32q98 0 166.5 45.5t111.5 116t61.5 158.5t18.5 174q0 41 -1 107.5t-9 143.5t-24.5 153.5t-47 139t-77 101.5t-113.5 39q-63 0 -117.5 -45t-98.5 -115.5t-77 -160t-55.5 -177.5t-33.5 -167t-11 -128zM299 1571q98 66 180 133.5 t148 134.5l106 -4q41 -72 89 -138.5t106 -125.5l-88 -92q-80 61 -185 178q-47 -45 -107.5 -91t-135.5 -93z" />
<glyph unicode="&#xd5;" horiz-adv-x="1140" d="M92 498q0 61 15.5 154t46 196.5t76.5 206t104.5 185.5t130.5 134t156 51q96 0 164.5 -43t116.5 -112.5t76 -158.5t43 -180t20.5 -177t5.5 -150q0 -115 -24 -229.5t-81 -207.5t-151.5 -151.5t-237.5 -58.5q-115 0 -201 46t-144 123t-87 173.5t-29 198.5zM209 1642 q35 55 90 99t131 44q43 0 87 -16t87 -35.5t85 -36t81 -16.5t71.5 19.5t61.5 70.5l121 -86q-41 -74 -110.5 -113.5t-149.5 -39.5q-55 0 -99.5 15t-80 34.5t-68.5 35t-68 15.5q-43 0 -74.5 -26.5t-60.5 -67.5zM240 489q0 -76 17 -145.5t54 -122.5t95.5 -85t140.5 -32 q98 0 166.5 45.5t111.5 116t61.5 158.5t18.5 174q0 41 -1 107.5t-9 143.5t-24.5 153.5t-47 139t-77 101.5t-113.5 39q-63 0 -117.5 -45t-98.5 -115.5t-77 -160t-55.5 -177.5t-33.5 -167t-11 -128z" />
<glyph unicode="&#xd6;" horiz-adv-x="1140" d="M92 498q0 61 15.5 154t46 196.5t76.5 206t104.5 185.5t130.5 134t156 51q96 0 164.5 -43t116.5 -112.5t76 -158.5t43 -180t20.5 -177t5.5 -150q0 -115 -24 -229.5t-81 -207.5t-151.5 -151.5t-237.5 -58.5q-115 0 -201 46t-144 123t-87 173.5t-29 198.5zM240 489 q0 -76 17 -145.5t54 -122.5t95.5 -85t140.5 -32q98 0 166.5 45.5t111.5 116t61.5 158.5t18.5 174q0 41 -1 107.5t-9 143.5t-24.5 153.5t-47 139t-77 101.5t-113.5 39q-63 0 -117.5 -45t-98.5 -115.5t-77 -160t-55.5 -177.5t-33.5 -167t-11 -128zM379 1679q0 111 100 111 q45 0 73 -31t28 -96q0 -25 -11.5 -40.5t-26.5 -25.5t-32.5 -14t-30.5 -4q-49 0 -74.5 28.5t-25.5 71.5zM711 1691q0 51 22.5 81t77.5 30q43 0 69.5 -32t26.5 -93q0 -25 -10 -41t-25.5 -26.5t-31.5 -14.5t-29 -4q-55 0 -77.5 27.5t-22.5 72.5z" />
<glyph unicode="&#xd7;" horiz-adv-x="1323" d="M150 293q86 98 174 195.5t186 201.5q-113 117 -201 216.5t-151 191.5l153 73q63 -88 140 -177t176 -187l2 2q123 123 226 215t202 158l73 -154q-92 -66 -186 -149.5t-199 -188.5q193 -188 412 -368l-110 -132q-104 88 -208 182.5t-210 198.5q-92 -94 -177 -189t-171 -200 z" />
<glyph unicode="&#xd8;" horiz-adv-x="1140" d="M92 498q0 61 15.5 154t46 196.5t76.5 206t104.5 185.5t130.5 134t156 51q66 0 119 -21.5t94 -55.5q20 45 38.5 89t34.5 85l125 -68q-23 -59 -45 -119.5t-51 -126.5q37 -70 58.5 -151.5t33.5 -163.5t15.5 -158t3.5 -131q0 -115 -24 -229.5t-81 -207.5t-151.5 -151.5 t-237.5 -58.5q-129 0 -225 59q-23 -35 -43.5 -72.5t-42.5 -74.5l-136 76l105 176q-59 78 -89 175t-30 202zM240 489q0 -63 11 -122.5t38 -108.5q141 254 264 496.5t221 459.5q-29 31 -62.5 49.5t-78.5 18.5q-63 0 -117.5 -45t-98.5 -115.5t-77 -160t-55.5 -177.5t-33.5 -167 t-11 -128zM399 139q66 -35 148 -35q98 0 166.5 45.5t111.5 116t61.5 158.5t18.5 174q0 33 -1 83t-5 109.5t-12 123t-25 122.5q-92 -205 -208.5 -428t-254.5 -469z" />
<glyph unicode="&#xd9;" d="M82 961q0 78 11 175t34 216l119 6q-10 -117 -13.5 -217.5t-3.5 -188.5q0 -49 1 -128t5.5 -170t15.5 -183t29.5 -166t48 -121t72.5 -47q31 0 55.5 34t45 89t37 126t29 144.5t20.5 143t12 125.5q4 35 5 184.5t3 419.5h150q0 -242 4 -479.5t10 -483.5q2 -80 9 -148.5 t30 -118.5t67 -78.5t117 -28.5q43 0 80 16l31 -141q-33 -20 -79 -29.5t-66 -9.5q-84 0 -141.5 30.5t-92.5 83t-51.5 124t-18.5 155.5q-49 -166 -102 -236.5t-133 -70.5t-136.5 48t-94 128t-59 181t-33 210t-14.5 214t-3 192zM84 1698l72 118q45 -25 118.5 -53.5t154.5 -52 t158 -39.5t128 -16l-33 -138q-59 0 -147.5 16.5t-177.5 42t-164.5 57.5t-108.5 65z" />
<glyph unicode="&#xda;" d="M82 961q0 78 11 175t34 216l119 6q-10 -117 -13.5 -217.5t-3.5 -188.5q0 -49 1 -128t5.5 -170t15.5 -183t29.5 -166t48 -121t72.5 -47q31 0 55.5 34t45 89t37 126t29 144.5t20.5 143t12 125.5q4 35 5 184.5t3 419.5h150q0 -242 4 -479.5t10 -483.5q2 -80 9 -148.5 t30 -118.5t67 -78.5t117 -28.5q43 0 80 16l31 -141q-33 -20 -79 -29.5t-66 -9.5q-84 0 -141.5 30.5t-92.5 83t-51.5 124t-18.5 155.5q-49 -166 -102 -236.5t-133 -70.5t-136.5 48t-94 128t-59 181t-33 210t-14.5 214t-3 192zM147 1614q57 6 137 25.5t162 43t152.5 49 t107.5 43.5l72 -118q-33 -27 -108 -55.5t-164 -54.5t-178 -45.5t-150 -25.5z" />
<glyph unicode="&#xdb;" d="M82 961q0 78 11 175t34 216l119 6q-10 -117 -13.5 -217.5t-3.5 -188.5q0 -49 1 -128t5.5 -170t15.5 -183t29.5 -166t48 -121t72.5 -47q31 0 55.5 34t45 89t37 126t29 144.5t20.5 143t12 125.5q4 35 5 184.5t3 419.5h150q0 -242 4 -479.5t10 -483.5q2 -80 9 -148.5 t30 -118.5t67 -78.5t117 -28.5q43 0 80 16l31 -141q-33 -20 -79 -29.5t-66 -9.5q-84 0 -141.5 30.5t-92.5 83t-51.5 124t-18.5 155.5q-49 -166 -102 -236.5t-133 -70.5t-136.5 48t-94 128t-59 181t-33 210t-14.5 214t-3 192zM115 1573q98 66 180 133.5t148 134.5l106 -4 q41 -72 89 -138.5t106 -125.5l-88 -92q-80 61 -185 178q-47 -45 -107.5 -91t-135.5 -93z" />
<glyph unicode="&#xdc;" d="M82 961q0 78 11 175t34 216l119 6q-10 -117 -13.5 -217.5t-3.5 -188.5q0 -49 1 -128t5.5 -170t15.5 -183t29.5 -166t48 -121t72.5 -47q31 0 55.5 34t45 89t37 126t29 144.5t20.5 143t12 125.5q4 35 5 184.5t3 419.5h150q0 -242 4 -479.5t10 -483.5q2 -80 9 -148.5 t30 -118.5t67 -78.5t117 -28.5q43 0 80 16l31 -141q-33 -20 -79 -29.5t-66 -9.5q-84 0 -141.5 30.5t-92.5 83t-51.5 124t-18.5 155.5q-49 -166 -102 -236.5t-133 -70.5t-136.5 48t-94 128t-59 181t-33 210t-14.5 214t-3 192zM182 1679q0 111 100 111q45 0 73 -31t28 -96 q0 -25 -11.5 -40.5t-26.5 -25.5t-32.5 -14t-30.5 -4q-49 0 -74.5 28.5t-25.5 71.5zM514 1691q0 51 22.5 81t77.5 30q43 0 69.5 -32t26.5 -93q0 -25 -10 -41t-25.5 -26.5t-31.5 -14.5t-29 -4q-55 0 -77.5 27.5t-22.5 72.5z" />
<glyph unicode="&#xdd;" horiz-adv-x="1288" d="M37 -342q0 78 38 146.5t100.5 129t142 110.5t161.5 90t161 68.5t140 45.5q23 111 40.5 233.5t27.5 227.5q-51 -66 -122 -102t-148 -36q-152 0 -243 67t-141.5 178.5t-67.5 259t-20 308.5l142 7q0 -59 5 -132t17.5 -148t36 -146.5t60 -127t88 -89t123.5 -33.5q80 0 132 41 t84.5 104.5t47 139t16.5 147.5q2 55 2 137v205h152q0 -233 -10.5 -430t-25.5 -352.5t-33.5 -266t-33.5 -172.5q55 12 112.5 21.5t119 16.5t130 10t150.5 3l9 -153q-66 0 -119.5 -1t-112.5 -5t-134 -12.5t-185 -22.5q-29 -115 -71 -244t-106.5 -237.5t-156.5 -180t-219 -71.5 q-53 0 -104.5 19.5t-92.5 54t-66.5 84t-25.5 108.5zM172 -354q0 -51 46 -79t97 -28q82 0 148.5 54.5t120 137.5t93.5 181t66 186q-90 -25 -190 -73t-185 -109t-140.5 -130.5t-55.5 -139.5zM330 1653q57 6 137 25.5t162 43t152.5 49t107.5 43.5l72 -118q-33 -27 -108 -55.5 t-164 -54.5t-178 -45.5t-150 -25.5z" />
<glyph unicode="&#xde;" horiz-adv-x="1028" d="M57 -2q45 111 57.5 236.5t12.5 263.5q0 92 -2 181t-2 181q0 160 18.5 300t83.5 247l131 -51q-41 -53 -61.5 -129t-26.5 -168q86 12 185 12q96 0 189 -16.5t167 -54t119 -103.5t45 -164q0 -109 -56.5 -187.5t-145.5 -131t-198.5 -78t-216.5 -25.5q-53 0 -98 6 q-6 -86 -20.5 -168.5t-38.5 -160.5zM262 922q0 -104 2 -218t2 -231q33 -8 68 -11t69 -3q78 0 155 16.5t138.5 50t99.5 84.5t38 123q0 57 -29 98t-76 66t-110.5 36t-131.5 11q-57 0 -112.5 -6t-112.5 -16z" />
<glyph unicode="&#xdf;" horiz-adv-x="1001" d="M90 592q0 297 41 480t102.5 284.5t135 137.5t139.5 36q68 0 118 -24.5t83.5 -65.5t50 -98.5t16.5 -120.5q0 -59 -17.5 -110.5t-47 -98.5t-71.5 -93.5t-91 -95.5q100 -20 173 -66t121 -108.5t70.5 -139.5t22.5 -161q0 -96 -23.5 -169t-65.5 -120t-98.5 -70.5t-119.5 -23.5 q-86 0 -159 48t-93 134l129 64q27 -51 52.5 -70.5t80.5 -19.5q63 0 106 56t43 167q0 82 -26.5 148.5t-73.5 113.5t-114.5 73t-147.5 26l-53 122q51 35 98 77t82 92.5t56.5 108.5t21.5 126q0 72 -25.5 107.5t-101.5 35.5q-61 0 -105.5 -46t-74 -118.5t-47 -160.5 t-26.5 -174.5t-11 -160t-2 -114.5q0 -166 23.5 -328.5t35.5 -339.5l-145 -6q-18 137 -30.5 233.5t-19 171.5t-9.5 135t-3 126z" />
<glyph unicode="&#xe0;" horiz-adv-x="868" d="M61 254q0 111 24 236.5t74 234.5t125.5 180.5t180.5 71.5q39 0 65.5 -3t49 -15.5t45 -35t51.5 -61.5h61q0 -98 -5 -167.5t-12 -126t-12.5 -108.5t-5.5 -114q0 -27 3.5 -62.5t10.5 -68.5t22.5 -55.5t39.5 -22.5q20 0 48 10.5t55 26.5l24 -145q-33 -23 -62.5 -32t-58.5 -9 q-82 0 -128 37.5t-68 97.5q-53 -92 -116.5 -136t-156.5 -44q-68 0 -115.5 24.5t-78.5 66.5t-45.5 98t-14.5 122zM139 1219l72 118q45 -25 118.5 -53.5t154.5 -52t158 -39.5t128 -16l-33 -138q-59 0 -147.5 16.5t-177.5 42t-164.5 57.5t-108.5 65zM227 268q0 -88 27 -133 t65 -45q49 0 87 35t67 90t48.5 125t30.5 140.5t16 136t5 112.5q0 33 -27.5 66.5t-66.5 33.5q-59 0 -105 -57t-79 -141t-50.5 -182.5t-17.5 -180.5z" />
<glyph unicode="&#xe1;" horiz-adv-x="868" d="M61 254q0 111 24 236.5t74 234.5t125.5 180.5t180.5 71.5q39 0 65.5 -3t49 -15.5t45 -35t51.5 -61.5h61q0 -98 -5 -167.5t-12 -126t-12.5 -108.5t-5.5 -114q0 -27 3.5 -62.5t10.5 -68.5t22.5 -55.5t39.5 -22.5q20 0 48 10.5t55 26.5l24 -145q-33 -23 -62.5 -32t-58.5 -9 q-82 0 -128 37.5t-68 97.5q-53 -92 -116.5 -136t-156.5 -44q-68 0 -115.5 24.5t-78.5 66.5t-45.5 98t-14.5 122zM227 268q0 -88 27 -133t65 -45q49 0 87 35t67 90t48.5 125t30.5 140.5t16 136t5 112.5q0 33 -27.5 66.5t-66.5 33.5q-59 0 -105 -57t-79 -141t-50.5 -182.5 t-17.5 -180.5zM244 1176q57 6 137 25.5t162 43t152.5 49t107.5 43.5l72 -118q-33 -27 -108 -55.5t-164 -54.5t-178 -45.5t-150 -25.5z" />
<glyph unicode="&#xe2;" horiz-adv-x="868" d="M61 254q0 111 24 236.5t74 234.5t125.5 180.5t180.5 71.5q39 0 65.5 -3t49 -15.5t45 -35t51.5 -61.5h61q0 -98 -5 -167.5t-12 -126t-12.5 -108.5t-5.5 -114q0 -27 3.5 -62.5t10.5 -68.5t22.5 -55.5t39.5 -22.5q20 0 48 10.5t55 26.5l24 -145q-33 -23 -62.5 -32t-58.5 -9 q-82 0 -128 37.5t-68 97.5q-53 -92 -116.5 -136t-156.5 -44q-68 0 -115.5 24.5t-78.5 66.5t-45.5 98t-14.5 122zM154 1069q98 66 180 133.5t148 134.5l106 -4q41 -72 89 -138.5t106 -125.5l-88 -92q-80 61 -185 178q-47 -45 -107.5 -91t-135.5 -93zM227 268q0 -88 27 -133 t65 -45q49 0 87 35t67 90t48.5 125t30.5 140.5t16 136t5 112.5q0 33 -27.5 66.5t-66.5 33.5q-59 0 -105 -57t-79 -141t-50.5 -182.5t-17.5 -180.5z" />
<glyph unicode="&#xe3;" horiz-adv-x="868" d="M61 254q0 111 24 236.5t74 234.5t125.5 180.5t180.5 71.5q39 0 65.5 -3t49 -15.5t45 -35t51.5 -61.5h61q0 -98 -5 -167.5t-12 -126t-12.5 -108.5t-5.5 -114q0 -27 3.5 -62.5t10.5 -68.5t22.5 -55.5t39.5 -22.5q20 0 48 10.5t55 26.5l24 -145q-33 -23 -62.5 -32t-58.5 -9 q-82 0 -128 37.5t-68 97.5q-53 -92 -116.5 -136t-156.5 -44q-68 0 -115.5 24.5t-78.5 66.5t-45.5 98t-14.5 122zM66 1114q35 55 90 99t131 44q43 0 87 -16t87 -35.5t85 -36t81 -16.5t71.5 19.5t61.5 70.5l121 -86q-41 -74 -110.5 -113.5t-149.5 -39.5q-55 0 -99.5 15 t-80 34.5t-68.5 35t-68 15.5q-43 0 -74.5 -26.5t-60.5 -67.5zM227 268q0 -88 27 -133t65 -45q49 0 87 35t67 90t48.5 125t30.5 140.5t16 136t5 112.5q0 33 -27.5 66.5t-66.5 33.5q-59 0 -105 -57t-79 -141t-50.5 -182.5t-17.5 -180.5z" />
<glyph unicode="&#xe4;" horiz-adv-x="868" d="M61 254q0 111 24 236.5t74 234.5t125.5 180.5t180.5 71.5q39 0 65.5 -3t49 -15.5t45 -35t51.5 -61.5h61q0 -98 -5 -167.5t-12 -126t-12.5 -108.5t-5.5 -114q0 -27 3.5 -62.5t10.5 -68.5t22.5 -55.5t39.5 -22.5q20 0 48 10.5t55 26.5l24 -145q-33 -23 -62.5 -32t-58.5 -9 q-82 0 -128 37.5t-68 97.5q-53 -92 -116.5 -136t-156.5 -44q-68 0 -115.5 24.5t-78.5 66.5t-45.5 98t-14.5 122zM201 1151q0 111 100 111q45 0 73 -31t28 -96q0 -25 -11.5 -40.5t-26.5 -25.5t-32.5 -14t-30.5 -4q-49 0 -74.5 28.5t-25.5 71.5zM227 268q0 -88 27 -133t65 -45 q49 0 87 35t67 90t48.5 125t30.5 140.5t16 136t5 112.5q0 33 -27.5 66.5t-66.5 33.5q-59 0 -105 -57t-79 -141t-50.5 -182.5t-17.5 -180.5zM533 1163q0 51 22.5 81t77.5 30q43 0 69.5 -32t26.5 -93q0 -25 -10 -41t-25.5 -26.5t-31.5 -14.5t-29 -4q-55 0 -77.5 27.5 t-22.5 72.5z" />
<glyph unicode="&#xe5;" horiz-adv-x="868" d="M61 254q0 111 24 236.5t74 234.5t125.5 180.5t180.5 71.5q39 0 65.5 -3t49 -15.5t45 -35t51.5 -61.5h61q0 -98 -5 -167.5t-12 -126t-12.5 -108.5t-5.5 -114q0 -27 3.5 -62.5t10.5 -68.5t22.5 -55.5t39.5 -22.5q20 0 48 10.5t55 26.5l24 -145q-33 -23 -62.5 -32t-58.5 -9 q-82 0 -128 37.5t-68 97.5q-53 -92 -116.5 -136t-156.5 -44q-68 0 -115.5 24.5t-78.5 66.5t-45.5 98t-14.5 122zM227 268q0 -88 27 -133t65 -45q49 0 87 35t67 90t48.5 125t30.5 140.5t16 136t5 112.5q0 33 -27.5 66.5t-66.5 33.5q-59 0 -105 -57t-79 -141t-50.5 -182.5 t-17.5 -180.5zM346 1276q0 80 48.5 125t125.5 45q39 0 81 -15t77 -43t58.5 -69t23.5 -90t-19.5 -86t-50 -61.5t-70.5 -37.5t-79 -13q-55 0 -92 23.5t-60.5 59t-33 78.5t-9.5 84zM473 1221q0 -20 5 -41.5t20 -21.5q23 0 46 8t42.5 22.5t32 32.5t12.5 39q0 25 -15.5 42 t-43.5 17q-57 0 -78 -24.5t-21 -73.5z" />
<glyph unicode="&#xe6;" horiz-adv-x="1443" d="M61 254q0 111 24 236.5t74 234.5t125.5 180.5t180.5 71.5q72 0 124 -26.5t103 -96.5q106 106 273 107q180 0 271 -83t91 -249q0 -59 -45 -100.5t-108.5 -67t-133 -36.5t-118.5 -11t-97.5 1t-89.5 9q2 -51 10.5 -105.5t32 -100.5t64.5 -75.5t108 -29.5q119 0 194 49 t134 141l100 -113q-20 -39 -59 -80.5t-92 -75.5t-120 -56.5t-142 -22.5q-76 0 -132.5 15.5t-98.5 44t-69.5 66.5t-46.5 85q-59 -117 -137 -170t-166 -53q-68 0 -115.5 24.5t-78.5 66.5t-45.5 98t-14.5 122zM227 268q0 -88 27 -133t65 -45q49 0 87 35t67 90t48.5 125 t30.5 140.5t16 136t5 112.5q0 33 -27.5 66.5t-66.5 33.5q-59 0 -105 -57t-79 -141t-50.5 -182.5t-17.5 -180.5zM735 575q35 -10 70 -11t63 -1q37 0 89.5 6t100.5 16.5t80.5 24t32.5 29.5q0 74 -47 117t-129 43q-106 0 -178 -53.5t-82 -170.5z" />
<glyph unicode="&#xe7;" horiz-adv-x="915" d="M70 201q0 59 19.5 141t55 171t86 176t110.5 155.5t130 111.5t145 43q51 0 91.5 -30.5t67 -77.5t39.5 -102.5t13 -104.5h-135q-10 66 -26.5 116t-49.5 50q-53 0 -103 -37t-94 -96.5t-81 -133t-62.5 -147.5t-40 -139.5t-14.5 -108.5q0 -45 13.5 -68.5t58.5 -23.5 q55 0 114.5 23.5t119 61.5t115.5 83t103 88l80 -127q-41 -37 -88 -75.5t-98 -74.5t-106.5 -64.5t-110.5 -45.5q0 -25 -1 -47t-3 -39q37 0 71.5 -4t62.5 -22.5t44 -54.5t16 -99q0 -55 -33.5 -92t-84 -60.5t-106.5 -34t-101 -10.5l-15 119q27 2 64 4t70.5 11.5t58 31 t24.5 62.5q0 18 -22.5 35.5t-89.5 17.5q-35 0 -78 -6q0 35 1 79t1 87q-63 0 -107 21.5t-72 56t-40 82t-12 98.5z" />
<glyph unicode="&#xe8;" horiz-adv-x="952" d="M76 528q0 102 28.5 183.5t81 136.5t124 84t155.5 29q180 0 271 -83t91 -249q0 -59 -45 -100.5t-108.5 -67t-133 -36.5t-118.5 -11t-97.5 1t-88.5 9q2 -51 10 -105.5t31.5 -100.5t64.5 -75.5t109 -29.5q119 0 193.5 49t133.5 141l101 -113q-20 -39 -59.5 -80.5 t-92.5 -75.5t-119.5 -56.5t-142.5 -22.5q-94 0 -159.5 24.5t-109.5 67.5t-68 99.5t-36 120t-14 131t-2 130.5zM111 1219l72 118q45 -25 118.5 -53.5t154.5 -52t158 -39.5t128 -16l-33 -138q-59 0 -147.5 16.5t-177.5 42t-164.5 57.5t-108.5 65zM236 575q35 -10 69.5 -11 t63.5 -1q37 0 89 6t100 16.5t81 24t33 29.5q0 74 -47 117t-129 43q-106 0 -178 -53.5t-82 -170.5z" />
<glyph unicode="&#xe9;" horiz-adv-x="952" d="M76 528q0 102 28.5 183.5t81 136.5t124 84t155.5 29q180 0 271 -83t91 -249q0 -59 -45 -100.5t-108.5 -67t-133 -36.5t-118.5 -11t-97.5 1t-88.5 9q2 -51 10 -105.5t31.5 -100.5t64.5 -75.5t109 -29.5q119 0 193.5 49t133.5 141l101 -113q-20 -39 -59.5 -80.5 t-92.5 -75.5t-119.5 -56.5t-142.5 -22.5q-94 0 -159.5 24.5t-109.5 67.5t-68 99.5t-36 120t-14 131t-2 130.5zM191 1176q57 6 137 25.5t162 43t152.5 49t107.5 43.5l72 -118q-33 -27 -108 -55.5t-164 -54.5t-178 -45.5t-150 -25.5zM236 575q35 -10 69.5 -11t63.5 -1 q37 0 89 6t100 16.5t81 24t33 29.5q0 74 -47 117t-129 43q-106 0 -178 -53.5t-82 -170.5z" />
<glyph unicode="&#xea;" horiz-adv-x="952" d="M76 528q0 102 28.5 183.5t81 136.5t124 84t155.5 29q180 0 271 -83t91 -249q0 -59 -45 -100.5t-108.5 -67t-133 -36.5t-118.5 -11t-97.5 1t-88.5 9q2 -51 10 -105.5t31.5 -100.5t64.5 -75.5t109 -29.5q119 0 193.5 49t133.5 141l101 -113q-20 -39 -59.5 -80.5 t-92.5 -75.5t-119.5 -56.5t-142.5 -22.5q-94 0 -159.5 24.5t-109.5 67.5t-68 99.5t-36 120t-14 131t-2 130.5zM162 1069q98 66 180 133.5t148 134.5l106 -4q41 -72 89 -138.5t106 -125.5l-88 -92q-80 61 -185 178q-47 -45 -107.5 -91t-135.5 -93zM236 575q35 -10 69.5 -11 t63.5 -1q37 0 89 6t100 16.5t81 24t33 29.5q0 74 -47 117t-129 43q-106 0 -178 -53.5t-82 -170.5z" />
<glyph unicode="&#xeb;" horiz-adv-x="952" d="M76 528q0 102 28.5 183.5t81 136.5t124 84t155.5 29q180 0 271 -83t91 -249q0 -59 -45 -100.5t-108.5 -67t-133 -36.5t-118.5 -11t-97.5 1t-88.5 9q2 -51 10 -105.5t31.5 -100.5t64.5 -75.5t109 -29.5q119 0 193.5 49t133.5 141l101 -113q-20 -39 -59.5 -80.5 t-92.5 -75.5t-119.5 -56.5t-142.5 -22.5q-94 0 -159.5 24.5t-109.5 67.5t-68 99.5t-36 120t-14 131t-2 130.5zM211 1151q0 111 100 111q45 0 73 -31t28 -96q0 -25 -11.5 -40.5t-26.5 -25.5t-32.5 -14t-30.5 -4q-49 0 -74.5 28.5t-25.5 71.5zM236 575q35 -10 69.5 -11 t63.5 -1q37 0 89 6t100 16.5t81 24t33 29.5q0 74 -47 117t-129 43q-106 0 -178 -53.5t-82 -170.5zM543 1163q0 51 22.5 81t77.5 30q43 0 69.5 -32t26.5 -93q0 -25 -10 -41t-25.5 -26.5t-31.5 -14.5t-29 -4q-55 0 -77.5 27.5t-22.5 72.5z" />
<glyph unicode="&#xec;" horiz-adv-x="530" d="M-88 1219l72 118q45 -25 118.5 -53.5t154.5 -52t158 -39.5t128 -16l-33 -138q-59 0 -147.5 16.5t-177.5 42t-164.5 57.5t-108.5 65zM137 365q0 66 4 128t10.5 124.5t12.5 129t10 140.5h158q0 -82 -4 -150.5t-10.5 -136.5t-10.5 -140.5t-4 -162.5q0 -35 2 -68.5t8 -61.5 t16.5 -45.5t26.5 -17.5q23 0 48.5 11.5t60.5 50.5l96 -107q-59 -70 -107 -89t-94 -19q-82 0 -127 45t-66.5 109.5t-25.5 135t-4 124.5z" />
<glyph unicode="&#xed;" horiz-adv-x="530" d="M4 1176q57 6 137 25.5t162 43t152.5 49t107.5 43.5l72 -118q-33 -27 -108 -55.5t-164 -54.5t-178 -45.5t-150 -25.5zM137 365q0 66 4 128t10.5 124.5t12.5 129t10 140.5h158q0 -82 -4 -150.5t-10.5 -136.5t-10.5 -140.5t-4 -162.5q0 -35 2 -68.5t8 -61.5t16.5 -45.5 t26.5 -17.5q23 0 48.5 11.5t60.5 50.5l96 -107q-59 -70 -107 -89t-94 -19q-82 0 -127 45t-66.5 109.5t-25.5 135t-4 124.5z" />
<glyph unicode="&#xee;" horiz-adv-x="530" d="M-47 1069q98 66 180 133.5t148 134.5l106 -4q41 -72 89 -138.5t106 -125.5l-88 -92q-80 61 -185 178q-47 -45 -107.5 -91t-135.5 -93zM137 365q0 66 4 128t10.5 124.5t12.5 129t10 140.5h158q0 -82 -4 -150.5t-10.5 -136.5t-10.5 -140.5t-4 -162.5q0 -35 2 -68.5t8 -61.5 t16.5 -45.5t26.5 -17.5q23 0 48.5 11.5t60.5 50.5l96 -107q-59 -70 -107 -89t-94 -19q-82 0 -127 45t-66.5 109.5t-25.5 135t-4 124.5z" />
<glyph unicode="&#xef;" horiz-adv-x="530" d="M4 1151q0 111 100 111q45 0 73 -31t28 -96q0 -25 -11.5 -40.5t-26.5 -25.5t-32.5 -14t-30.5 -4q-49 0 -74.5 28.5t-25.5 71.5zM137 365q0 66 4 128t10.5 124.5t12.5 129t10 140.5h158q0 -82 -4 -150.5t-10.5 -136.5t-10.5 -140.5t-4 -162.5q0 -35 2 -68.5t8 -61.5 t16.5 -45.5t26.5 -17.5q23 0 48.5 11.5t60.5 50.5l96 -107q-59 -70 -107 -89t-94 -19q-82 0 -127 45t-66.5 109.5t-25.5 135t-4 124.5zM336 1163q0 51 22.5 81t77.5 30q43 0 69.5 -32t26.5 -93q0 -25 -10 -41t-25.5 -26.5t-31.5 -14.5t-29 -4q-55 0 -77.5 27.5t-22.5 72.5z " />
<glyph unicode="&#xf0;" horiz-adv-x="886" d="M80 408q0 109 25.5 200.5t76.5 158.5t125 104.5t172 37.5q33 0 76 -8t82 -24q-4 104 -64 227q-66 -37 -116.5 -57.5t-104.5 -34.5l-45 123q49 10 102.5 33.5t98.5 50.5q-41 59 -87 109t-93 79l125 80q115 -61 190 -180q27 16 49.5 32.5t38.5 32.5l84 -108 q-23 -18 -51.5 -37t-56.5 -39q35 -80 58 -170t37.5 -184.5t20.5 -187.5t6 -181q0 -264 -92 -383t-280 -119q-96 0 -167 39t-117 101.5t-69.5 142.5t-23.5 162zM233 403q0 -55 14.5 -106t41 -91t63.5 -63.5t82 -23.5q76 0 125 26.5t77 73.5t38 108.5t10 133.5q0 45 -4 98 t-20.5 99.5t-50.5 77t-91 30.5q-141 0 -213 -94t-72 -269z" />
<glyph unicode="&#xf1;" horiz-adv-x="950" d="M70 809q51 25 87 65.5t56 112.5l109 -45q33 33 69.5 57.5t89.5 24.5q96 0 152.5 -51t84 -136t35 -195t7.5 -226q0 -111 2 -182.5t6 -113.5t13.5 -58.5t23.5 -16.5q43 0 72.5 7t68.5 36l39 -121q-33 -37 -75 -51t-81 -14q-76 0 -121.5 27.5t-70.5 79.5t-33 126t-8 166 q0 55 2 132t2 136q0 61 -4 117.5t-15.5 98.5t-33 67t-55.5 25q-27 0 -52.5 -13.5t-48 -35t-39 -49t-24.5 -58.5q-4 -23 -9.5 -75t-9.5 -127t-7 -167t-3 -194q0 -66 2 -135.5t6 -143.5l-147 17q0 92 -3 166.5t-3 164.5q0 37 2 97.5t6 127t10 132t16 114.5q-18 -10 -41.5 -19 t-44.5 -17zM84 1163q35 55 90 99t131 44q43 0 87 -16t87 -35.5t85 -36t81 -16.5t71.5 19.5t61.5 70.5l121 -86q-41 -74 -110.5 -113.5t-149.5 -39.5q-55 0 -99.5 15t-80 34.5t-68.5 35t-68 15.5q-43 0 -74.5 -26.5t-60.5 -67.5z" />
<glyph unicode="&#xf2;" d="M84 418q0 94 26.5 188t77 168t124 120t165.5 46q113 0 167 -39t87 -121q63 14 131 60l78 -133q-33 -16 -71 -33t-91 -31q10 -63 12.5 -117.5t2.5 -89.5q0 -72 -21.5 -159t-65.5 -161.5t-115 -124.5t-169 -50q-90 0 -154.5 42t-105.5 109.5t-59.5 152.5t-18.5 173z M104 1219l72 118q45 -25 118.5 -53.5t154.5 -52t158 -39.5t128 -16l-33 -138q-59 0 -147.5 16.5t-177.5 42t-164.5 57.5t-108.5 65zM242 385q0 -43 7 -93t26.5 -94t52 -74t84.5 -30q59 0 103 35t71.5 87t41 112.5t13.5 113.5t-2 98.5t-12 73.5q-23 -6 -43 -6q-33 0 -65 11.5 t-57.5 32t-40.5 46t-15 56.5q-35 -18 -65 -47t-52.5 -72t-34.5 -104.5t-12 -145.5zM498 803q0 -35 26.5 -63.5t50.5 -28.5q43 -1 43 28q0 35 -39.5 49.5t-80.5 14.5z" />
<glyph unicode="&#xf3;" d="M84 418q0 94 26.5 188t77 168t124 120t165.5 46q113 0 167 -39t87 -121q63 14 131 60l78 -133q-33 -16 -71 -33t-91 -31q10 -63 12.5 -117.5t2.5 -89.5q0 -72 -21.5 -159t-65.5 -161.5t-115 -124.5t-169 -50q-90 0 -154.5 42t-105.5 109.5t-59.5 152.5t-18.5 173z M215 1176q57 6 137 25.5t162 43t152.5 49t107.5 43.5l72 -118q-33 -27 -108 -55.5t-164 -54.5t-178 -45.5t-150 -25.5zM242 385q0 -43 7 -93t26.5 -94t52 -74t84.5 -30q59 0 103 35t71.5 87t41 112.5t13.5 113.5t-2 98.5t-12 73.5q-23 -6 -43 -6q-33 0 -65 11.5t-57.5 32 t-40.5 46t-15 56.5q-35 -18 -65 -47t-52.5 -72t-34.5 -104.5t-12 -145.5zM498 803q0 -35 26.5 -63.5t50.5 -28.5q43 -1 43 28q0 35 -39.5 49.5t-80.5 14.5z" />
<glyph unicode="&#xf4;" d="M84 418q0 94 26.5 188t77 168t124 120t165.5 46q113 0 167 -39t87 -121q63 14 131 60l78 -133q-33 -16 -71 -33t-91 -31q10 -63 12.5 -117.5t2.5 -89.5q0 -72 -21.5 -159t-65.5 -161.5t-115 -124.5t-169 -50q-90 0 -154.5 42t-105.5 109.5t-59.5 152.5t-18.5 173z M150 1069q98 66 180 133.5t148 134.5l106 -4q41 -72 89 -138.5t106 -125.5l-88 -92q-80 61 -185 178q-47 -45 -107.5 -91t-135.5 -93zM242 385q0 -43 7 -93t26.5 -94t52 -74t84.5 -30q59 0 103 35t71.5 87t41 112.5t13.5 113.5t-2 98.5t-12 73.5q-23 -6 -43 -6 q-33 0 -65 11.5t-57.5 32t-40.5 46t-15 56.5q-35 -18 -65 -47t-52.5 -72t-34.5 -104.5t-12 -145.5zM498 803q0 -35 26.5 -63.5t50.5 -28.5q43 -1 43 28q0 35 -39.5 49.5t-80.5 14.5z" />
<glyph unicode="&#xf5;" d="M43 1114q35 55 90 99t131 44q43 0 87 -16t87 -35.5t85 -36t81 -16.5t71.5 19.5t61.5 70.5l121 -86q-41 -74 -110.5 -113.5t-149.5 -39.5q-55 0 -99.5 15t-80 34.5t-68.5 35t-68 15.5q-43 0 -74.5 -26.5t-60.5 -67.5zM84 418q0 94 26.5 188t77 168t124 120t165.5 46 q113 0 167 -39t87 -121q63 14 131 60l78 -133q-33 -16 -71 -33t-91 -31q10 -63 12.5 -117.5t2.5 -89.5q0 -72 -21.5 -159t-65.5 -161.5t-115 -124.5t-169 -50q-90 0 -154.5 42t-105.5 109.5t-59.5 152.5t-18.5 173zM242 385q0 -43 7 -93t26.5 -94t52 -74t84.5 -30 q59 0 103 35t71.5 87t41 112.5t13.5 113.5t-2 98.5t-12 73.5q-23 -6 -43 -6q-33 0 -65 11.5t-57.5 32t-40.5 46t-15 56.5q-35 -18 -65 -47t-52.5 -72t-34.5 -104.5t-12 -145.5zM498 803q0 -35 26.5 -63.5t50.5 -28.5q43 -1 43 28q0 35 -39.5 49.5t-80.5 14.5z" />
<glyph unicode="&#xf6;" d="M84 418q0 94 26.5 188t77 168t124 120t165.5 46q113 0 167 -39t87 -121q63 14 131 60l78 -133q-33 -16 -71 -33t-91 -31q10 -63 12.5 -117.5t2.5 -89.5q0 -72 -21.5 -159t-65.5 -161.5t-115 -124.5t-169 -50q-90 0 -154.5 42t-105.5 109.5t-59.5 152.5t-18.5 173z M201 1151q0 111 100 111q45 0 73 -31t28 -96q0 -25 -11.5 -40.5t-26.5 -25.5t-32.5 -14t-30.5 -4q-49 0 -74.5 28.5t-25.5 71.5zM242 385q0 -43 7 -93t26.5 -94t52 -74t84.5 -30q59 0 103 35t71.5 87t41 112.5t13.5 113.5t-2 98.5t-12 73.5q-23 -6 -43 -6q-33 0 -65 11.5 t-57.5 32t-40.5 46t-15 56.5q-35 -18 -65 -47t-52.5 -72t-34.5 -104.5t-12 -145.5zM498 803q0 -35 26.5 -63.5t50.5 -28.5q43 -1 43 28q0 35 -39.5 49.5t-80.5 14.5zM533 1163q0 51 22.5 81t77.5 30q43 0 69.5 -32t26.5 -93q0 -25 -10 -41t-25.5 -26.5t-31.5 -14.5t-29 -4 q-55 0 -77.5 27.5t-22.5 72.5z" />
<glyph unicode="&#xf7;" horiz-adv-x="1292" d="M-6 633l53 158q111 -16 239 -24.5t269 -8.5q174 0 349 7t356 23l14 -167q-166 -14 -346 -20.5t-367 -6.5q-166 0 -308 10t-259 29zM510 319q0 20 8 43t23.5 41.5t38 30.5t51.5 12q59 0 89 -38.5t30 -92.5q0 -47 -37 -82.5t-90 -35.5q-33 0 -54.5 14t-35 34.5t-18.5 41 t-5 32.5zM510 1016q0 20 8 42.5t23.5 41t38 31t51.5 12.5q59 0 89 -39t30 -92q0 -47 -37 -83t-90 -36q-33 0 -54.5 14.5t-35 35t-18.5 41t-5 32.5z" />
<glyph unicode="&#xf8;" d="M35 -39l104 174q-29 61 -42 135t-13 148q0 94 26.5 188t77 168t124 120t165.5 46q18 0 34.5 -1t33.5 -3q14 31 26.5 63.5t28.5 67.5l125 -68l-47 -129q33 -35 53 -90q63 14 131 60l78 -133q-33 -16 -71 -33t-91 -31q10 -63 12.5 -117.5t2.5 -89.5q0 -72 -21.5 -159 t-65.5 -161.5t-115 -124.5t-169 -50q-109 0 -182 61l-70 -117zM242 337q0 -11 4 -22q59 106 104 190.5t84 170.5q-29 35 -28 78q-35 -18 -65 -47t-52.5 -72t-34.5 -104.5t-12 -145.5v-27v-21zM317 133q33 -39 95 -39q59 0 103 35t71.5 87t41 112.5t13.5 113.5t-2 98.5 t-12 73.5q-23 -6 -43 -6h-13q-23 -49 -48 -99t-56 -107.5t-68 -123t-82 -145.5z" />
<glyph unicode="&#xf9;" horiz-adv-x="987" d="M74 1219l72 118q45 -25 118.5 -53.5t154.5 -52t158 -39.5t128 -16l-33 -138q-59 0 -147.5 16.5t-177.5 42t-164.5 57.5t-108.5 65zM90 969l164 12q0 -68 8 -178.5t14 -247.5q2 -68 15.5 -147.5t37 -149.5t56.5 -117t74 -47q57 0 96 38t62.5 94.5t34 119t10.5 111.5v101.5 t1 152.5t1 158.5v117.5h159q-4 -106 -6 -232t-2 -229q0 -123 4 -201.5t16.5 -123.5t34 -61.5t56.5 -16.5q25 0 44 3t48 15l14 -145q-35 -10 -58.5 -15.5t-51.5 -5.5q-68 0 -119 28t-78 124q-98 -197 -246 -197q-123 0 -198.5 92.5t-117.5 241t-57.5 333.5t-15.5 372z" />
<glyph unicode="&#xfa;" horiz-adv-x="987" d="M90 969l164 12q0 -68 8 -178.5t14 -247.5q2 -68 15.5 -147.5t37 -149.5t56.5 -117t74 -47q57 0 96 38t62.5 94.5t34 119t10.5 111.5v101.5t1 152.5t1 158.5v117.5h159q-4 -106 -6 -232t-2 -229q0 -123 4 -201.5t16.5 -123.5t34 -61.5t56.5 -16.5q25 0 44 3t48 15l14 -145 q-35 -10 -58.5 -15.5t-51.5 -5.5q-68 0 -119 28t-78 124q-98 -197 -246 -197q-123 0 -198.5 92.5t-117.5 241t-57.5 333.5t-15.5 372zM221 1176q57 6 137 25.5t162 43t152.5 49t107.5 43.5l72 -118q-33 -27 -108 -55.5t-164 -54.5t-178 -45.5t-150 -25.5z" />
<glyph unicode="&#xfb;" horiz-adv-x="987" d="M90 969l164 12q0 -68 8 -178.5t14 -247.5q2 -68 15.5 -147.5t37 -149.5t56.5 -117t74 -47q57 0 96 38t62.5 94.5t34 119t10.5 111.5v101.5t1 152.5t1 158.5v117.5h159q-4 -106 -6 -232t-2 -229q0 -123 4 -201.5t16.5 -123.5t34 -61.5t56.5 -16.5q25 0 44 3t48 15l14 -145 q-35 -10 -58.5 -15.5t-51.5 -5.5q-68 0 -119 28t-78 124q-98 -197 -246 -197q-123 0 -198.5 92.5t-117.5 241t-57.5 333.5t-15.5 372zM143 1110q98 66 180 133.5t148 134.5l106 -4q41 -72 89 -138.5t106 -125.5l-88 -92q-80 61 -185 178q-47 -45 -107.5 -91t-135.5 -93z" />
<glyph unicode="&#xfc;" horiz-adv-x="987" d="M90 969l164 12q0 -68 8 -178.5t14 -247.5q2 -68 15.5 -147.5t37 -149.5t56.5 -117t74 -47q57 0 96 38t62.5 94.5t34 119t10.5 111.5v101.5t1 152.5t1 158.5v117.5h159q-4 -106 -6 -232t-2 -229q0 -123 4 -201.5t16.5 -123.5t34 -61.5t56.5 -16.5q25 0 44 3t48 15l14 -145 q-35 -10 -58.5 -15.5t-51.5 -5.5q-68 0 -119 28t-78 124q-98 -197 -246 -197q-123 0 -198.5 92.5t-117.5 241t-57.5 333.5t-15.5 372zM174 1151q0 111 100 111q45 0 73 -31t28 -96q0 -25 -11.5 -40.5t-26.5 -25.5t-32.5 -14t-30.5 -4q-49 0 -74.5 28.5t-25.5 71.5zM506 1163 q0 51 22.5 81t77.5 30q43 0 69.5 -32t26.5 -93q0 -25 -10 -41t-25.5 -26.5t-31.5 -14.5t-29 -4q-55 0 -77.5 27.5t-22.5 72.5z" />
<glyph unicode="&#xfd;" horiz-adv-x="913" d="M59 1059q43 0 77 2t50 4q14 -20 23.5 -58t16.5 -81t12.5 -86t11.5 -76q10 -61 23.5 -119.5t37 -104.5t62.5 -75t104 -29q76 0 118 63.5t61.5 158t22.5 199t3 187.5l149 7q0 -113 -4 -213.5t-9 -207t-9 -226t-4 -271.5q53 27 112.5 54.5t124.5 50.5l19 -144 q-78 -29 -144.5 -62.5t-107.5 -68.5q0 -90 -6 -190.5t-42 -185.5t-113 -140t-216 -55q-55 0 -113.5 16.5t-107.5 49t-80 80.5t-31 114q0 92 58.5 144t142.5 88t175 66t159 75q2 78 3 156.5t17 172.5q-12 -18 -30.5 -32.5t-41 -25.5t-46 -17.5t-41.5 -6.5q-90 0 -157 40 t-116 104.5t-80.5 148.5t-50 171t-26 171t-7.5 152zM188 1266q57 6 137 25.5t162 43t152.5 49t107.5 43.5l72 -118q-33 -27 -108 -55.5t-164 -54.5t-178 -45.5t-150 -25.5zM246 -354q0 -29 18.5 -46.5t46 -26.5t58 -12t55.5 -3q74 0 118 25.5t68.5 67.5t32.5 95t8 111 q-49 -27 -118.5 -45.5t-133 -40t-108.5 -50t-45 -75.5z" />
<glyph unicode="&#xfe;" horiz-adv-x="999" d="M80 -608q4 160 14 318.5t20.5 321.5t18.5 329.5t8 340.5q0 199 -5 386.5t-9 379.5h160v-747q41 47 100 77.5t137 30.5q84 0 155 -35.5t123 -95t80.5 -135.5t28.5 -155q0 -68 -30.5 -127.5t-78.5 -109.5t-110.5 -89t-127 -66.5t-124 -42t-104.5 -14.5q-16 0 -31.5 1 t-30.5 1q-10 -135 -19 -263t-11 -288zM287 182q0 -29 8 -59q10 -4 18.5 -4h18.5h22q45 0 113 21.5t131.5 60.5t109.5 90t46 112q0 45 -15.5 95.5t-43 91.5t-67.5 67.5t-91 26.5q-74 0 -123 -53t-77 -131t-39 -164t-11 -154z" />
<glyph unicode="&#xff;" horiz-adv-x="913" d="M59 1059q43 0 77 2t50 4q14 -20 23.5 -58t16.5 -81t12.5 -86t11.5 -76q10 -61 23.5 -119.5t37 -104.5t62.5 -75t104 -29q76 0 118 63.5t61.5 158t22.5 199t3 187.5l149 7q0 -113 -4 -213.5t-9 -207t-9 -226t-4 -271.5q53 27 112.5 54.5t124.5 50.5l19 -144 q-78 -29 -144.5 -62.5t-107.5 -68.5q0 -90 -6 -190.5t-42 -185.5t-113 -140t-216 -55q-55 0 -113.5 16.5t-107.5 49t-80 80.5t-31 114q0 92 58.5 144t142.5 88t175 66t159 75q2 78 3 156.5t17 172.5q-12 -18 -30.5 -32.5t-41 -25.5t-46 -17.5t-41.5 -6.5q-90 0 -157 40 t-116 104.5t-80.5 148.5t-50 171t-26 171t-7.5 152zM201 1223q0 111 100 111q45 0 73 -31t28 -96q0 -25 -11.5 -40.5t-26.5 -25.5t-32.5 -14t-30.5 -4q-49 0 -74.5 28.5t-25.5 71.5zM246 -354q0 -29 18.5 -46.5t46 -26.5t58 -12t55.5 -3q74 0 118 25.5t68.5 67.5t32.5 95 t8 111q-49 -27 -118.5 -45.5t-133 -40t-108.5 -50t-45 -75.5zM533 1235q0 51 22.5 81t77.5 30q43 0 69.5 -32t26.5 -93q0 -25 -10 -41t-25.5 -26.5t-31.5 -14.5t-29 -4q-55 0 -77.5 27.5t-22.5 72.5z" />
<glyph unicode="&#x152;" horiz-adv-x="2074" d="M92 498q0 61 15.5 154t46 196.5t76.5 206t104.5 185.5t130.5 134t156 51q90 0 155.5 -36.5t111.5 -98t75.5 -141.5t48.5 -164q41 94 98 184.5t129 160t159 111.5t187 42q39 0 93.5 -18.5t105.5 -52.5t91 -82t52 -107l-110 -64q-53 80 -109.5 125t-126.5 45 q-84 0 -165 -54t-148.5 -138t-116.5 -184.5t-70 -190.5q10 -2 20.5 -2h22.5q23 0 72 5t106.5 15.5t111.5 24.5t89 33l27 -154q-23 -14 -78 -27.5t-118.5 -24.5t-123 -17.5t-90.5 -6.5h-38t-25 2q0 -119 14 -215t53 -163.5t106.5 -104.5t176.5 -37q141 0 266 59.5t230 182.5 l131 -64q-39 -63 -109 -122.5t-154.5 -105.5t-174 -73.5t-164.5 -27.5q-172 0 -285 76.5t-172 211.5q-53 -117 -155.5 -193.5t-266.5 -76.5q-115 0 -201 46t-144 123t-87 173.5t-29 198.5zM240 489q0 -76 17 -145.5t54 -122.5t95.5 -85t140.5 -32q98 0 166.5 45.5t111.5 116 t61.5 158.5t18.5 174q0 41 -1 107.5t-9 143.5t-24.5 153.5t-47 139t-77 101.5t-113.5 39q-63 0 -117.5 -45t-98.5 -115.5t-77 -160t-55.5 -177.5t-33.5 -167t-11 -128z" />
<glyph unicode="&#x153;" horiz-adv-x="1488" d="M84 418q0 94 26.5 188t77 168t124 120t165.5 46q104 0 156.5 -33t85.5 -98q111 152 309 152q180 0 271.5 -71t91.5 -237q0 -59 -45.5 -100t-108.5 -66.5t-133 -37t-119 -11.5t-97 1t-89 10q2 -51 10 -109.5t31.5 -109t64.5 -84t109 -33.5q119 0 193.5 49t133.5 141 l101 -113q-20 -39 -59.5 -80.5t-92.5 -75.5t-119.5 -56.5t-142.5 -22.5q-133 0 -209 47t-117 121q-47 -78 -114.5 -130t-165.5 -52q-90 0 -154.5 42t-105.5 109.5t-59.5 152.5t-18.5 173zM242 385q0 -43 7 -93t26.5 -94t52 -74t84.5 -30q61 0 105 36t71.5 90t41 117.5 t13.5 117.5v15t-4 17q-33 2 -86 13.5t-103.5 34t-88 59.5t-42.5 90q-12 -8 -26 -24.5t-25.5 -49t-18.5 -87t-7 -138.5zM416 731q0 -29 29.5 -52.5t67.5 -38.5t75 -23.5t51 -8.5q4 0 4 6q0 12 -11 42t-30.5 58.5t-45.5 51t-56 22.5q-8 0 -22.5 -3t-28 -9t-23.5 -17t-10 -28z M799 600q35 -10 69.5 -11t63.5 -1q37 0 89 6t100 16.5t81 23.5t33 30q0 74 -47 104.5t-129 30.5q-53 0 -98.5 -9.5t-79 -32t-55 -61.5t-27.5 -96z" />
<glyph unicode="&#x178;" horiz-adv-x="1288" d="M37 -342q0 78 38 146.5t100.5 129t142 110.5t161.5 90t161 68.5t140 45.5q23 111 40.5 233.5t27.5 227.5q-51 -66 -122 -102t-148 -36q-152 0 -243 67t-141.5 178.5t-67.5 259t-20 308.5l142 7q0 -59 5 -132t17.5 -148t36 -146.5t60 -127t88 -89t123.5 -33.5q80 0 132 41 t84.5 104.5t47 139t16.5 147.5q2 55 2 137v205h152q0 -233 -10.5 -430t-25.5 -352.5t-33.5 -266t-33.5 -172.5q55 12 112.5 21.5t119 16.5t130 10t150.5 3l9 -153q-66 0 -119.5 -1t-112.5 -5t-134 -12.5t-185 -22.5q-29 -115 -71 -244t-106.5 -237.5t-156.5 -180t-219 -71.5 q-53 0 -104.5 19.5t-92.5 54t-66.5 84t-25.5 108.5zM172 -354q0 -51 46 -79t97 -28q82 0 148.5 54.5t120 137.5t93.5 181t66 186q-90 -25 -190 -73t-185 -109t-140.5 -130.5t-55.5 -139.5zM260 1679q0 111 100 111q45 0 73 -31t28 -96q0 -25 -11.5 -40.5t-26.5 -25.5 t-32.5 -14t-30.5 -4q-49 0 -74.5 28.5t-25.5 71.5zM592 1691q0 51 22.5 81t77.5 30q43 0 69.5 -32t26.5 -93q0 -25 -10 -41t-25.5 -26.5t-31.5 -14.5t-29 -4q-55 0 -77.5 27.5t-22.5 72.5z" />
<glyph unicode="&#x2c6;" horiz-adv-x="704" d="M39 1069q98 66 180 133.5t148 134.5l106 -4q41 -72 89 -138.5t106 -125.5l-88 -92q-80 61 -185 178q-47 -45 -107.5 -91t-135.5 -93z" />
<glyph unicode="&#x2dc;" horiz-adv-x="958" d="M74 1114q35 55 90 99t131 44q43 0 87 -16t87 -35.5t85 -36t81 -16.5t71.5 19.5t61.5 70.5l121 -86q-41 -74 -110.5 -113.5t-149.5 -39.5q-55 0 -99.5 15t-80 34.5t-68.5 35t-68 15.5q-43 0 -74.5 -26.5t-60.5 -67.5z" />
<glyph unicode="&#x2000;" horiz-adv-x="933" />
<glyph unicode="&#x2001;" horiz-adv-x="1866" />
<glyph unicode="&#x2002;" horiz-adv-x="933" />
<glyph unicode="&#x2003;" horiz-adv-x="1866" />
<glyph unicode="&#x2004;" horiz-adv-x="622" />
<glyph unicode="&#x2005;" horiz-adv-x="466" />
<glyph unicode="&#x2006;" horiz-adv-x="311" />
<glyph unicode="&#x2007;" horiz-adv-x="311" />
<glyph unicode="&#x2008;" horiz-adv-x="233" />
<glyph unicode="&#x2009;" horiz-adv-x="373" />
<glyph unicode="&#x200a;" horiz-adv-x="103" />
<glyph unicode="&#x2010;" horiz-adv-x="880" d="M68 662l43 135q51 -20 115.5 -31.5t127 -18t116.5 -7.5t87 -1q61 0 118.5 1t96.5 8l14 -150q-41 -2 -86 -3t-96 -1q-100 0 -178 4t-140.5 11t-114.5 20.5t-103 32.5z" />
<glyph unicode="&#x2011;" horiz-adv-x="880" d="M68 662l43 135q51 -20 115.5 -31.5t127 -18t116.5 -7.5t87 -1q61 0 118.5 1t96.5 8l14 -150q-41 -2 -86 -3t-96 -1q-100 0 -178 4t-140.5 11t-114.5 20.5t-103 32.5z" />
<glyph unicode="&#x2012;" horiz-adv-x="880" d="M68 662l43 135q51 -20 115.5 -31.5t127 -18t116.5 -7.5t87 -1q61 0 118.5 1t96.5 8l14 -150q-41 -2 -86 -3t-96 -1q-100 0 -178 4t-140.5 11t-114.5 20.5t-103 32.5z" />
<glyph unicode="&#x2013;" horiz-adv-x="1226" d="M68 655l43 168q41 -16 119.5 -28.5t177 -19.5t206 -11t205.5 -4q100 0 181 4t126 10l15 -182q-53 -4 -131 -5t-170 -1q-102 0 -212 3t-214.5 11t-194.5 21.5t-151 33.5z" />
<glyph unicode="&#x2014;" horiz-adv-x="1726" d="M33 655l43 168q41 -16 154.5 -26.5t266 -18.5t325.5 -11t333 -3q88 0 167 1t143.5 2t111.5 4t72 7l14 -182q-59 -4 -187 -6t-294 -2q-160 0 -338 2t-339 10t-288 20.5t-184 34.5z" />
<glyph unicode="&#x2018;" horiz-adv-x="466" d="M43 1358q0 137 92 241l160 -53q-57 -94 -57 -203q0 -98 43 -198.5t116 -192.5l-137 -32q-47 33 -87 81t-68.5 106t-45 122.5t-16.5 128.5z" />
<glyph unicode="&#x2019;" horiz-adv-x="434" d="M31 1559l139 20q76 -70 125 -180.5t49 -227.5q0 -78 -27.5 -151.5t-91.5 -130.5l-153 69q80 104 80 236q0 92 -32 182t-89 183z" />
<glyph unicode="&#x201a;" horiz-adv-x="434" d="M31 365l139 20q76 -70 125 -180.5t49 -227.5q0 -78 -27.5 -151.5t-91.5 -130.5l-153 69q80 104 80 236q0 92 -32 182t-89 183z" />
<glyph unicode="&#x201c;" horiz-adv-x="823" d="M43 1358q0 137 92 241l160 -53q-57 -94 -57 -203q0 -98 43 -198.5t116 -192.5l-137 -32q-47 33 -87 81t-68.5 106t-45 122.5t-16.5 128.5zM410 1274q0 98 34.5 185t120.5 145l144 -88q-59 -59 -86 -130t-27 -151q0 -76 19.5 -158t58.5 -162l-142 -2q-57 66 -89.5 163.5 t-32.5 197.5z" />
<glyph unicode="&#x201d;" horiz-adv-x="823" d="M53 1030q78 63 111 147.5t33 182.5q0 123 -47 264l139 -12q43 -61 66.5 -144.5t23.5 -171.5q0 -111 -45 -212t-148 -156zM420 1559l139 20q76 -70 125 -180.5t49 -227.5q0 -78 -27.5 -151.5t-91.5 -130.5l-153 69q80 104 80 236q0 92 -32 182t-89 183z" />
<glyph unicode="&#x201e;" horiz-adv-x="823" d="M41 -164q78 63 110.5 147.5t32.5 182.5q0 123 -47 264l139 -12q43 -61 67 -144.5t24 -171.5q0 -111 -45.5 -212t-147.5 -156zM408 365l139 20q76 -70 125 -180.5t49 -227.5q0 -78 -27.5 -151.5t-91.5 -130.5l-153 69q80 104 79 236q0 92 -31.5 182t-88.5 183z" />
<glyph unicode="&#x2022;" horiz-adv-x="563" d="M55 678q0 39 15.5 82t44 77.5t71.5 58.5t99 24q55 0 97 -20.5t70.5 -54.5t43 -80t14.5 -95q0 -43 -18.5 -84t-51 -73t-77 -50.5t-95.5 -18.5q-61 0 -102 28t-65.5 65.5t-35 77.5t-10.5 63z" />
<glyph unicode="&#x2026;" horiz-adv-x="1087" d="M80 66q0 20 8 42.5t23.5 41t38 31t51.5 12.5q59 0 88.5 -39t29.5 -93q0 -47 -36.5 -82.5t-89.5 -35.5q-33 0 -54.5 14t-35 34.5t-18.5 41.5t-5 33zM408 86q0 20 8 43t23.5 41t38 30.5t50.5 12.5q59 0 89 -39t30 -92q0 -47 -37 -83t-90 -36q-33 0 -54.5 14.5t-34.5 35 t-18 41t-5 32.5zM750 80q0 20 8 42.5t23.5 41t38 31t50.5 12.5q59 0 89 -39t30 -92q0 -47 -37 -83t-90 -36q-33 0 -54.5 14.5t-34.5 35t-18 41t-5 32.5z" />
<glyph unicode="&#x202f;" horiz-adv-x="373" />
<glyph unicode="&#x2039;" horiz-adv-x="739" d="M74 686l6 94q293 115 508 348l98 -90q-256 -244 -455 -317q164 -90 336 -289l-61 -88q-246 244 -432 342z" />
<glyph unicode="&#x203a;" horiz-adv-x="825" d="M59 1112l91 78q129 -111 266 -160t291 -49l45 -119q-274 -221 -435 -487l-98 92q117 250 338 397q-299 59 -498 248z" />
<glyph unicode="&#x205f;" horiz-adv-x="466" />
<glyph unicode="&#x20ac;" horiz-adv-x="1589" d="M57 639h238v109q-66 2 -123 10t-104 24l-11 127q100 -8 165 -11t93 -3q12 90 54.5 192.5t111 188.5t160.5 143.5t205 57.5q186 0 343 -47.5t238 -147.5l-88 -104q-125 72 -238.5 97t-246.5 25q-59 0 -118.5 -34.5t-108.5 -91t-86 -126t-52 -137.5q123 0 257.5 5.5 t269.5 23.5l-37 -127q-106 -25 -188 -37t-144.5 -17t-108.5 -6t-81 -3v-24.5t-1 -35t-1 -34v-21.5q100 2 219 13t256 34l-19 -127q-238 -66 -450 -72q10 -68 34.5 -130t64.5 -110t93.5 -76t118.5 -28q82 0 166 25.5t165 67.5t157.5 95.5t146.5 106.5l106 -96 q-51 -72 -138 -137.5t-189.5 -115.5t-210 -80t-199.5 -30q-98 0 -178 42t-139.5 113t-98 162t-57.5 189q-131 12 -223 31z" />
<glyph unicode="&#x2122;" horiz-adv-x="1906" d="M37 1354q160 0 273.5 6t206.5 12t176 12.5t181 6.5h58v-152h-60q-160 0 -309 -6q-10 -147 -30.5 -301t-20.5 -316q0 -57 3 -108t7 -92h-155q-4 45 -6.5 95t-2.5 103q0 166 20.5 317.5t20.5 280.5q-37 0 -66.5 -1t-65.5 -2t-88 -2t-136 -1zM807 416q92 240 136 493.5 t67 509.5l133 23q20 -68 43.5 -158t48.5 -192.5t49.5 -216t46.5 -230.5q31 100 72 213t87 227.5t94 228t95 218.5l138 -21q-10 -106 -27.5 -239t-35 -277.5t-32 -293t-16.5 -285.5h-156q2 131 19.5 293.5t48.5 322.5q-31 -61 -61.5 -134t-60.5 -150.5t-54.5 -157.5 t-42.5 -156h-152q-4 18 -15 78.5t-28.5 144.5t-38 180.5t-43.5 184.5q-35 -123 -74.5 -281.5t-93.5 -324.5h-147z" />
<glyph unicode="&#x25fc;" horiz-adv-x="1075" d="M0 0v1075h1075v-1075h-1075z" />
</font>
</defs>
</svg>
