<?xml version="1.0" standalone="no"?>
<!DOCTYPE svg PUBLIC "-//W3C//DTD SVG 1.1//EN" "http://www.w3.org/Graphics/SVG/1.1/DTD/svg11.dtd" >
<svg xmlns="http://www.w3.org/2000/svg" xmlns:xlink="http://www.w3.org/1999/xlink" version="1.1">
<metadata></metadata>
<defs>
<font id="marydalebold" horiz-adv-x="1302" >
<font-face units-per-em="2048" ascent="1638" descent="-410" />
<missing-glyph horiz-adv-x="798" />
<glyph horiz-adv-x="0" />
<glyph unicode="&#xd;" horiz-adv-x="798" />
<glyph unicode=" "  horiz-adv-x="798" />
<glyph unicode="&#x09;" horiz-adv-x="798" />
<glyph unicode="&#xa0;" horiz-adv-x="798" />
<glyph unicode="!" horiz-adv-x="575" d="M160 -147q0 100 76 100q35 0 63.5 -26.5t30.5 -67.5q4 -117 -80 -123q-35 -2 -62.5 39t-27.5 78zM182 395l72 795q4 74 6 147q6 121 19 133q33 35 77 35q39 0 66 -39q18 -29 18 -133q0 -240 -84 -737q-27 -172 -22 -188q0 -18 10 -56.5t8 -58.5q-6 -88 -80 -88 q-43 0 -69 43q-29 53 -21 147z" />
<glyph unicode="&#x22;" horiz-adv-x="571" d="M86 1112q0 43 10 96q8 39 47 152q37 102 41 138t30 72t62 36q70 0 70 -103q0 -34 -14 -67q-61 -135 -90 -289q4 -29 2 -88q-16 -86 -78 -86q-80 0 -80 139zM289 1063q0 41 10 88q20 84 61 164q49 96 97 121q18 8 39 8q31 0 53 -20.5t22 -51.5q0 -26 -16 -51 q-59 -100 -80 -139q-41 -82 -43 -148q-4 -100 -67 -100q-31 0 -53.5 35t-22.5 94z" />
<glyph unicode="#" d="M10 604q0 55 37 72q25 8 88 4q100 -8 238 27l8 176q-180 -63 -219 -64q-49 0 -87 32t-38 67q0 29 29 43q70 33 325 102q23 358 33 375q16 29 68 28q59 0 73 -45q12 -39 -2 -309l107 31q18 285 38.5 304t55.5 19q80 0 88 -73q4 -49 -8 -197q305 74 336 55q33 -18 46 -31.5 t13 -31.5q0 -29 -35 -39q-127 -33 -383 -115q-4 -72 -14 -217q268 55 350 80q143 43 201 41q51 -2 51 -31q0 -12 -12 -28q-37 -47 -326 -136q-84 -29 -276 -84q-8 -127 14 -165q37 -59 37 -86q0 -33 -29 -63t-61 -30q-33 0 -58 35q-53 74 -55 264l-113 -36l-12 -187 q-2 -12 3 -40.5t5 -43.5q0 -55 -55 -74q-16 -6 -39 -6q-41 0 -70 19q-35 23 -34 55q0 20 10 41q20 37 24 193q-117 -25 -204 -29q-70 -2 -109 27.5t-39 70.5zM537 748l112 30l6 201l-106 -37z" />
<glyph unicode="$" d="M57 901q-4 94 97 180q72 63 196 119q68 27 133 53v99q-6 78 -6 90q0 86 90 86q86 0 84 -176v-49q14 4 35 12v51q-2 117 0 125q8 39 55 41q74 0 97 -59q14 -35 14 -123q39 6 72 6q86 0 127 -35t34 -86q-2 -31 -30.5 -54.5t-57.5 -23.5q-43 0 -53 55q-2 10 -94 -10 q-6 -111 -25 -450q402 -105 400 -336q-2 -168 -131 -295q-90 -86 -275 -176q6 -72 17 -109q12 -27 12 -59q0 -39 -23.5 -70t-64.5 -31q-39 0 -73 33t-34 76q0 18 9 35q4 8 0 71q-16 -6 -52 -16q6 -233 11 -246q23 -31 22 -65q0 -41 -28.5 -73t-65.5 -32q-80 0 -90 144 q-10 119 -13 258q-172 4 -225 112q-16 35 -16 68q0 53 41 87t92 34q20 0 48 -10.5t28 -28.5q0 -14 -35 -37t-35 -37q0 -8 8 -16q27 -29 92 -27q0 39 -6 305q-6 201 4 348q-199 35 -280 82q-98 55 -105 160zM238 909q6 -37 59 -55q41 -14 160 -33l12 115q10 105 12 160 q-258 -106 -243 -187zM600 299q6 -225 4 -268q18 6 49 18q-4 170 -4 260q0 42 6 316q-2 0 -24.5 4t-26.5 4q-10 -139 -4 -334zM614 795q2 0 25 -3.5t25 -3.5q10 142 20 369q-12 -4 -37 -12q-4 -70 -20 -254q-2 -14 -13 -96zM811 119q240 141 240 299q0 111 -234 176 q-4 -78 -6 -272q-2 -178 0 -203z" />
<glyph unicode="%" d="M96 803q0 59 58 139q45 53 88 107q51 72 98 98q86 47 168 47q88 0 145.5 -51t57.5 -129q-1 -103 -101 -199q-63 -61 -151 -104q-102 -51 -187 -52q-86 0 -137 54q-39 41 -39 90zM164 -414q0 39 33 78q66 166 149 375q94 231 191 463q145 348 292 657q76 160 136 227 q51 59 122 84q20 8 41 9q45 0 73 -35t28 -76q0 -43 -33 -59q-80 -37 -115 -68q-41 -39 -77 -113q-633 -1294 -635 -1521q-2 -123 -95 -123q-43 0 -76.5 29.5t-33.5 72.5zM264 829q0 -23 35 -22q53 0 170 94q80 66 80 105q0 31 -47 30q-76 0 -117 -61q-12 -41 -57 -105 q-18 -4 -37 2q-27 -31 -27 -43zM610 -35q0 84 58 191q31 53 81 114.5t70 61.5q45 0 64 -51q141 -31 141 -175q0 -131 -100 -227q-74 -74 -164 -74q-63 0 -106.5 42t-43.5 118zM766 -49q37 14 71.5 51t34.5 74q0 12 -4 24q-4 6 -6 25q0 10 -6 6q-23 -8 -58.5 -79.5 t-31.5 -100.5z" />
<glyph unicode="&#x26;" horiz-adv-x="1007" d="M68 330q0 104 61 184q68 92 98 127q55 59 121 102q-121 43 -121 123q0 82 123 185q104 86 207 123q-49 29 -94 319q-4 33 -4 53q0 88 102 78q55 -6 70 -84q18 -94 18 -235q0 -100 -18 -115q39 4 74 -12q53 -29 53 -86q0 -63 -58 -64q-12 0 -29.5 7t-27.5 7 q-45 0 -137 -51t-92 -84q0 -16 35 -20h129q80 -8 92 -70q4 -29 -103 -112q-158 -123 -205 -170q-111 -111 -110 -199q0 -123 139 -123q113 0 264 88q41 25 90 70q78 68 86 73q55 43 91 43q29 1 43 -28q37 -76 -162 -230q-180 -139 -293 -168q27 -37 41 -141q8 -74 16 -149 q0 -8 15 -86q12 -61 12 -99q0 -104 -90 -92q-41 6 -58 35q-23 45 -47 211q-35 231 -12 303q-88 -2 -184 49q-135 72 -135 238z" />
<glyph unicode="'" horiz-adv-x="370" d="M158 1206q0 61 15 112.5t42 158.5q12 57 35.5 75.5t54.5 18.5q52 0 66 -47q8 -31 -9 -101q-12 -41 -34 -120q-18 -68 -35 -136q-35 -96 -86 -94q-49 4 -49 133z" />
<glyph unicode="(" horiz-adv-x="688" d="M41 293q0 297 125 622q100 258 248 467q131 184 178 177q88 -16 88 -91q0 -41 -43 -90q-434 -514 -434 -1077q0 -63 6 -125q20 -250 88 -354q43 -66 92 -62q76 4 119 -30q35 -29 35 -76q0 -43 -29 -76t-76 -33q-10 0 -22 2q-82 16 -162 97q-106 109 -150 223 q-35 92 -55 280q-8 72 -8 146z" />
<glyph unicode=")" horiz-adv-x="823" d="M-143 -608q0 29 16 61q23 25 80 37q66 14 67 16q16 12 93 64q453 291 452 801q0 53 -6 106q-45 457 -192 723q-106 188 -203 213q-109 27 -109 84q0 14 2 33q10 59 82 59q41 0 88 -18q117 -45 254 -256q209 -320 256 -807q6 -59 6 -117q0 -297 -147 -545 q-143 -238 -406 -405q-49 -27 -141 -100q-35 -39 -90 -39q-43 0 -72.5 24.5t-29.5 65.5z" />
<glyph unicode="*" horiz-adv-x="1062" d="M117 981q0 74 114 113q49 18 154 53q-18 45 -53 120.5t-35 102.5q0 31 29 39q43 12 63 4q51 -23 121 -182q74 197 96.5 210t57.5 13q70 0 73 -59q2 -29 -26 -88q-23 -45 -45 -90q186 25 274 2q66 -14 66 -70q0 -29 -21.5 -52.5t-50.5 -23.5q-33 0 -64 31q-6 8 -30 8 q-47 0 -232 -41l-20 -59q47 -121 55 -125q59 -37 59 -96t-65 -60q-53 0 -90 64l-21 36q-41 -111 -41 -116q0 -111 -75 -111q-33 0 -63 24.5t-30 57.5q0 29 31 53q4 6 41 135q33 119 39 148q-121 -37 -147 -61q-49 -43 -95 -43q-70 0 -69 63z" />
<glyph unicode="+" d="M41 434q0 20 10 39q20 35 355 145l-7 152q-4 190 52 207q23 8 43 8q78 0 79 -127q0 -49 2 -188q472 147 619 139q27 0 45 -25.5t18 -56.5q0 -86 -116 -74q-51 18 -561 -143l6 -340q2 -33 -11 -64q-18 -47 -63 -47q-25 0 -56.5 18.5t-41.5 86.5q0 188 -4 291 q-238 -78 -263 -99q-12 -8 -26 -8q-31 0 -55.5 26.5t-24.5 59.5z" />
<glyph unicode="," horiz-adv-x="485" d="M-31 -418q0 29 11 60q41 125 106 268q90 199 141 211q31 6 63 -13.5t38 -54.5q4 -27 -170 -370q41 2 41 -39q0 -49 -53.5 -100.5t-127.5 -47.5q-49 4 -49 86z" />
<glyph unicode="-" horiz-adv-x="1026" d="M66 475q-8 82 92 92q584 57 676 58q74 -1 90 -11q37 -23 37 -57q0 -27 -19.5 -51.5t-36.5 -28.5q-37 -10 -96 0q-27 4 -150 -4q-145 -10 -280 -33q-68 -14 -191 -30q-53 -6 -86.5 14t-35.5 51z" />
<glyph unicode="." horiz-adv-x="473" d="M129 41q0 51 39 86q29 29 61 33q53 8 84 -30t31 -87q0 -117 -111 -117q-104 0 -104 115z" />
<glyph unicode="/" horiz-adv-x="731" d="M-74 -391q0 14 4 29q41 195 43 204q55 217 168 514q254 676 447 1020q53 98 110 101q41 0 72 -21q37 -29 29 -82q-6 -51 -56.5 -106.5t-72.5 -104.5q-410 -829 -547 -1401q-14 -57 -20.5 -156.5t-82.5 -99.5q-37 0 -65.5 29t-28.5 74z" />
<glyph unicode="0" d="M6 350q0 205 162 492q145 260 274 356q55 43 90 43q18 0 70 -14q123 39 234 39q203 0 322.5 -116t119.5 -294q0 -248 -227 -479q-164 -166 -353 -271q-199 -111 -358 -110q-115 0 -193 59q-141 104 -141 295zM182 346q0 -100 62 -147q43 -33 112 -33q211 0 475 225 q274 236 275 457q0 119 -96 205q-68 59 -179 59q-94 0 -198 -41q-94 -39 -154 -90q-90 -80 -90 -123q0 -45 92 -72q29 -6 29 -26q0 -25 -42 -47.5t-85 -14.5q-45 8 -78 29q-123 -227 -123 -381z" />
<glyph unicode="1" d="M326 778q0 25 10 41q76 104 207 234q72 78 143 157q119 129 139 133q33 4 64 -12t35 -49q4 -29 -13 -143q-37 -244 -57 -414q-70 -549 -66 -588q2 -6 13.5 -32.5t9.5 -53.5q-14 -88 -94 -88q-41 0 -72 30t-31 79q0 29 13 59q12 180 35 340q72 481 81 563 q-104 -111 -208 -223q-127 -133 -146 -135q-23 -4 -43 30.5t-20 71.5z" />
<glyph unicode="2" d="M195 1012q0 43 34 90q70 94 188 150.5t238 56.5q170 0 273 -109q76 -78 76 -184q0 -180 -248 -512q-82 -115 -238 -324q244 76 492 121q27 4 47 4q121 0 121 -96q0 -84 -82 -100q-12 -2 -23 -3q-18 0 -39.5 10.5t-32.5 12.5q-23 4 -170 -31q-158 -37 -251 -71 q-68 -27 -136 -56q-109 -41 -159 -41q-20 0 -31 7q-47 33 -47 88q0 16 5 32.5t99 128.5q211 250 351 465q233 358 141 441q-61 53 -158 53q-88 0 -169 -43t-115.5 -106.5t-90.5 -63.5q-76 0 -75 80z" />
<glyph unicode="3" d="M156 1130q0 51 65 82q61 -4 412 23q279 23 313 -27q12 -18 12 -41q0 -86 -176 -256q-123 -111 -247 -219q291 -6 446 -139q143 -123 143 -326q0 -303 -288 -596q-131 -133 -289 -241q-33 -27 -64 -52q-39 -31 -71 -30q-18 0 -39 8q-78 31 -78 104q0 39 29.5 65t83.5 21 l32 -2q264 203 387 375q129 185 129 375q-2 156 -217 225q-98 31 -350 58q-45 6 -83 37.5t-38 74.5q0 12 4 27q10 31 144 133q119 94 299 262q-414 -39 -463 -39q-33 2 -64.5 32t-31.5 66z" />
<glyph unicode="4" d="M90 651q0 27 23 45q150 127 227 240q51 76 166 309q37 80 112 201q20 25 48 24q37 0 67.5 -36.5t30.5 -81.5q0 -31 -16 -56q-29 -41 -160 -278q-90 -162 -191 -264q106 18 324 47q29 203 61 391q78 119 84 119q43 0 77 -43t24 -80q0 -25 -19 -101q-25 -98 -51 -284 q121 -6 207 -23q76 -14 76 -65q0 -29 -22.5 -48.5t-51.5 -15.5q-104 12 -229 4q-72 -508 -72 -559q23 -49 22 -98q0 -90 -77 -90q-25 0 -54 10q-88 27 -88 107q0 29 15 71q18 137 77 539q-98 -12 -307 -51q-150 -27 -196 -27q-25 0 -39 4q-25 10 -46.5 37t-21.5 53z" />
<glyph unicode="5" d="M88 864q0 14 6 27q16 37 126 164t134 127q16 0 35 -8q6 53 115 59l250 12q141 18 319 27q168 8 172 8q27 4 58 4q133 0 141 -84q10 -90 -82 -90q-37 0 -72 14q-10 6 -53 6q-211 0 -420 -34q-88 -16 -207 -19q-121 -4 -153 10q2 -35 -92 -145q348 -6 520 -117 q147 -96 147 -256q0 -201 -199.5 -393t-398.5 -192q-143 0 -225 114q-33 47 -33 86t27.5 62.5t64.5 23.5q61 0 84 -55q6 -23 19 -49q37 -16 82 -16q129 0 256 126.5t143 276.5q20 229 -436 229q-106 0 -217 -12q-43 -4 -77 26.5t-34 67.5z" />
<glyph unicode="6" d="M246 350q0 268 104 500q92 207 197 369q117 182 178 198q16 6 31 6q45 0 74.5 -34.5t29.5 -75.5q0 -66 -69 -76q-170 -203 -271 -426q-117 -252 -104 -451q66 143 192 263q150 137 287 137q49 -1 96 -19q106 -45 107 -200q0 -170 -154 -320q-258 -252 -434 -252 q-76 0 -141 41q-123 76 -123 340zM522 180q0 -39 31 -39q76 0 254 178q51 49 91 118t40 112t-41 43q-117 0 -262 -186q-113 -143 -113 -226z" />
<glyph unicode="7" d="M61 1167q0 37 33 54q49 27 285 43q215 16 446 16q301 0 328 -27q12 -23 12 -47q0 -45 -43 -82q-14 -12 -37 -18q-31 -8 -38 -12q-94 -47 -228 -301q229 8 246 -5q43 -33 43 -77q0 -57 -78 -62q-90 -2 -278 -16q-61 -133 -117 -334q-59 -223 -49 -307q2 -23 2 -41 q0 -94 -99 -88q-39 2 -62.5 34.5t-23.5 67.5q0 10 3 17q10 102 49 284q47 215 100 357q-113 -8 -92 -9q-72 0 -80 68q-8 63 94 88q20 4 150 14q92 188 213 340q-268 -8 -617 -51q-76 -8 -96 -2q-27 8 -46.5 37t-19.5 59z" />
<glyph unicode="8" d="M41 895q0 143 123 268q72 74 110 88q57 10 117 21q127 59 305 59q258 0 357 -133q41 -57 41 -119q0 -135 -176 -250q214 -22 288 -122q57 -78 58 -164q0 -209 -301 -391q-285 -170 -568 -170q-162 0 -248 69q-94 76 -94 228q0 115 49 196q68 106 160 174 q-106 18 -163.5 86t-57.5 160zM205 872q16 -84 155 -84q78 0 181 27q84 20 125 43q133 68 172 92q98 63 98 117q0 20 -16 43q-55 70 -213 70q-129 0 -230 -41q-190 -74 -178 -170q4 -29 57 -68q39 -25 78 -47q-61 -25 -119 -25q-68 0 -110 43zM207 295q0 -49 24 -94 q35 -70 166 -70q94 0 215 35q109 31 181 70q307 170 307 301q0 34 -25 65q-63 86 -231 86q-213 0 -418 -115q-219 -125 -219 -278z" />
<glyph unicode="9" d="M76 709q0 199 178 348q217 186 446 186q141 0 258 -72q219 -137 220 -430q0 -213 -113 -473q-94 -221 -260 -424q-127 -156 -277 -276q-119 -96 -159 -107q-20 -4 -37 -4q-84 0 -84 70q0 31 22 49q649 475 715 1051q-113 -84 -262 -142q-168 -66 -309 -65q-123 0 -207 51 q-131 82 -131 238zM254 723q0 -41 20 -76q37 -68 148 -67q143 0 328.5 98t230.5 192q-6 49 -42 95.5t-81 64.5q-94 39 -160 39q-82 0 -180 -47q-117 -57 -190.5 -138t-73.5 -161z" />
<glyph unicode=":" horiz-adv-x="491" d="M133 37q0 115 82 135q12 2 23 2q84 0 84 -117q0 -45 -29 -86q-31 -47 -76 -39q-84 14 -84 105zM150 750q0 135 90 141q47 4 73 -39q21 -37 17 -86q-10 -143 -94 -143q-39 0 -64 43q-23 37 -22 84z" />
<glyph unicode=";" horiz-adv-x="485" d="M-31 -416q0 29 11 60q41 125 110 284q94 217 137 228q31 6 63 -13.5t38 -54.5q8 -53 -170 -403q41 2 41 -39q0 -49 -53.5 -100.5t-127.5 -47.5q-49 4 -49 86zM164 729q0 135 90 141q47 4 74 -39q20 -37 16 -86q-10 -143 -94 -143q-39 0 -64 43q-23 37 -22 84z" />
<glyph unicode="&#x3c;" d="M190 442q0 27 25 62t203 237q182 211 213 235.5t69 24.5q70 0 70 -59q0 -8 -2 -18q-10 -37 -186 -242t-174 -219q0 -18 66.5 -34.5t135.5 -33.5q209 -53 221 -55q121 -39 203 -102q37 -31 37 -60q0 -41 -45 -41q-23 0 -123 31q-137 41 -258 68q-111 18 -219 36 q-145 33 -193 90q-43 51 -43 80z" />
<glyph unicode="=" d="M72 553q0 27 26 57q20 25 97 31q57 4 112 8q500 88 803 127q45 6 74.5 -18.5t29.5 -59.5q0 -92 -149 -92q-37 0 -297 -39q-156 -27 -313 -55q-258 -47 -293 -39q-90 23 -90 80zM125 307q0 72 80 86q10 0 55 4q88 6 438 70q322 57 422 57q48 0 66 -10q45 -27 45 -80 q0 -45 -66 -55q-31 0 -94 -4q-23 0 -428 -68q-88 -14 -182 -38.5t-133 -32.5q-66 -12 -109 -13q-57 0 -74 23q-20 31 -20 61z" />
<glyph unicode="&#x3e;" d="M184 969q0 84 86 90q31 2 56.5 -24.5t27.5 -51.5q0 -6 29 -14q51 -14 72 -23q377 -150 385 -151q276 -125 278 -213q2 -59 -180 -183q-51 -33 -350 -211q-195 -117 -209 -153q-6 -100 -100 -101q-84 0 -84 72q0 41 41 88q78 88 378 289q135 90 273 190q0 12 -330 152 q-338 143 -367 213q-6 14 -6 31z" />
<glyph unicode="?" horiz-adv-x="1161" d="M125 1186q-14 51 85 136t252.5 151.5t332.5 66.5q268 0 309 -178q10 -41 10 -84q0 -213 -252 -436q-154 -133 -444 -297q-18 -12 -19 -33q0 -31 37 -88q31 -43 60 -86q47 -84 47 -143q0 -49 -33 -79t-74 -30q-90 0 -90 94q0 14 2 29q4 23 -33 84q-25 41 -51 84 q-57 106 -53 264q76 31 149 68q176 86 310 182q270 199 270 354q0 35 -14 76q-16 55 -148 55q-133 0 -278 -51q-156 -53 -190 -125t-113 -72q-53 0 -72 58zM350 -207q0 115 105 115q41 0 72.5 -26.5t31.5 -69.5q0 -45 -29.5 -84t-74.5 -39t-75 30.5t-30 73.5z" />
<glyph unicode="@" horiz-adv-x="1185" d="M96 432q0 252 164 526q102 172 264 295q170 129 320 129q121 0 199.5 -94t78.5 -235q0 -205 -129 -371q-145 -186 -352 -248q-152 -174 -254 -174q-47 0 -74 45q-23 39 -22 90q0 121 91 248t187 127q61 0 103 -55q33 -43 26 -107q117 72 189 203q61 117 61 229 q0 98 -49 142q-55 45 -151 4q-188 -82 -322 -281q-166 -246 -166 -491q0 -100 35 -168q45 -88 133 -88q158 0 432 194q23 80 86 80q37 0 63.5 -25.5t26.5 -60.5q0 -51 -61 -90q-242 -158 -260 -168q-172 -94 -297 -94q-82 0 -151.5 41t-116.5 141q-53 113 -54 256zM440 453 q0 -8 2 -13q41 27 70 60q-16 27 -8 73q-18 -16 -41 -56t-23 -64z" />
<glyph unicode="A" horiz-adv-x="1259" d="M51 63q-2 7 -2 17q0 62 66 235q-49 23 -49 80q0 18 6 41q12 51 123 76l393 872q37 80 100 80q61 0 80 -100q6 -59 45 -236q20 -78 109 -438l239 74q33 12 60 12q79 0 79 -76q0 -39 -25.5 -67.5t-70.5 -28.5q-17 0 -33 4l-217 -63l123 -527q49 -47 49 -90q0 -45 -57 -75 q-14 -8 -33 -9q-39 0 -74.5 32t-33.5 69l-129 549q-180 -53 -299 -95q-66 -23 -203 -73q-63 -131 -72 -183q-4 -35 -12 -71.5t-39 -51.5q-20 -10 -43 -10q-57 0 -80 53zM385 547q242 49 379 92q-59 256 -121 448q-88 -168 -134 -263t-124 -277z" />
<glyph unicode="B" horiz-adv-x="1296" d="M143 1268q18 82 66 96q20 6 37 6q43 0 63 -37q379 113 596 113q82 0 132 -19.5t50 -83.5q0 -51 -34 -120q-31 -59 -64 -93q-150 -145 -321 -260q225 -14 379 -71q233 -87 233 -261v-3q-2 -129 -129 -289q-106 -133 -219 -205q-127 -78 -275 -133q-66 -27 -96 -27 q-51 0 -78 51q-12 25 -12 50q0 43 37 77q31 29 65 35q55 2 156 23q117 39 242 164q139 141 139 264q0 57 -123 106q-145 57 -375 58q-158 0 -301 -60v-207q4 -80 25 -161q22 -90 22 -113v-2q0 -29 -10 -62q-12 -45 -80 -45q-51 0 -86 39q-43 47 -43 138q0 33 6 71 q-2 168 -6 338l6 418q-73 23 -73 88q0 82 71 117zM301 848q399 209 571 385q27 27 27 43q0 18 -39 18q-84 0 -315 -75q-213 -70 -223 -84q-23 -35 -23 -192q0 -43 2 -95z" />
<glyph unicode="C" horiz-adv-x="1492" d="M324 993q268 295 534 404q68 26 114 26h3q61 0 82 -47q12 -27 12 -49q0 -68 -129 -94q-256 -55 -504 -333.5t-248 -500.5q0 -109 70 -168t186 -59q180 0 496 143q211 104 424 209q82 37 117 37q53 0 80 -51q12 -23 12 -43q0 -72 -141 -100q-18 -2 -187 -82 q-565 -262 -831 -262q-147 0 -236 67q-153 120 -153 305q0 270 299 598z" />
<glyph unicode="D" horiz-adv-x="1357" d="M-12 1276q0 39 39 63q57 35 194 65t271 32h37q320 0 575 -133q287 -149 287 -363q0 -239 -385 -541q-172 -137 -609 -399q2 -43 -30.5 -70.5t-73.5 -27.5q-27 0 -45 16l-2 2h-7q-56 0 -57 96q0 18 17 84q-23 303 -23 486q0 50 2 92q8 156 33 536l-109 -38q-6 -1 -12 -1 q-32 -1 -64 27q-38 32 -38 74zM342 565q-1 -27 -1 -55q0 -153 28 -330q281 156 499 324q344 264 344 428q0 139 -221 248q-203 98 -429 98h-9q-100 0 -152 -12q-45 -383 -59 -701z" />
<glyph unicode="E" horiz-adv-x="1357" d="M84 88q-3 16 -3 41q0 49 11 129q8 70 20 402q8 224 9 309q0 41 -2 51q-2 6 -21 53q-12 37 -12 60q0 37 37 59t76 22q25 0 49 -10q539 203 579 217q199 61 256 62q102 0 103 -68q0 -41 -38 -76.5t-87 -35.5q-29 0 -55 14q-154 -43 -359 -127q-174 -74 -350 -148 q1 -20 1 -45q0 -100 -13 -278q495 209 569 209h6q70 -14 70 -66q0 -72 -84 -96q-131 -37 -307 -115q-168 -74 -265 -133q-15 -179 -16 -289q0 -33 2 -59q188 96 571 246q467 180 607 180q25 0 37 -4q67 -25 67 -73q0 -34 -53 -46q-465 -106 -1079 -432q-174 -91 -208 -91 q-3 0 -5 1q-35 12 -74 65q-31 45 -39 72z" />
<glyph unicode="F" horiz-adv-x="1210" d="M-31 1034q0 33 19 58q12 16 131 53q76 23 153 45q8 102 56 121q18 8 34 8q53 0 82 -64q754 272 908 273q31 0 43 -8q43 -27 43 -70q0 -55 -60 -78q-20 -8 -101 -11t-151 -26q-242 -78 -260 -84q-190 -68 -407 -166q-6 -57 -47 -344q193 92 325 129q211 59 322 60 q39 0 51 -10q29 -18 29 -48q0 -31 -24.5 -60.5t-49.5 -37.5t-84 -16q-289 -33 -594 -236q-20 -203 -20 -323q0 -37 2 -64q2 -10 7 -36.5t5 -41.5q0 -29 -16 -49q-27 -35 -76 -35q-43 0 -70 27q-10 12 -10 117q0 78 6 217t6 145q-43 33 -43 76q0 47 58 96q6 68 30 359 q-183 -64 -216 -64h-5q-76 14 -76 88z" />
<glyph unicode="G" horiz-adv-x="1769" d="M76 477q20 287 235 533q160 182 400 319q184 105 238 105h1q47 -2 76 -26t29 -54q0 -45 -56 -72q-303 -150 -464 -289q-225 -201 -283 -458q-8 -45 -8 -101q0 -193 96 -289q67 -67 171 -67h3q139 0 336 115q143 86 260 194q221 205 221 305q0 53 -43 53q-61 0 -326 -119 q-260 -116 -287 -116h-1q-37 6 -66.5 35.5t-29.5 60.5q0 27 20 41q74 55 348 168q371 152 742 227q5 1 9 1q42 0 42 -105q0 -82 -35 -266q-45 -248 -45 -289q0 -25 6 -33q16 -12 33 -22q26 -19 20 -54q-4 -27 -47 -102q-47 -86 -76 -92q-10 -2 -20 -2q-86 0 -86 207 q0 102 20 237l17 99q20 135 24 221l-49 -21q14 -33 15 -73q0 -147 -167 -349t-397 -340q-250 -151 -453 -151h-3q-164 0 -273 102q-88 86 -125 230q-25 88 -25 177q0 30 3 60z" />
<glyph unicode="H" horiz-adv-x="1437" d="M133 80q0 86 23 266q12 104 26 207q4 45 13 135q-51 23 -56 78v6q0 54 68 82q7 154 7 246q0 76 -5 108q-6 44 -6 76q0 41 10 62q26 32 88 32h4q49 0 68 -22q30 -38 30 -169v-9q0 -53 -18 -287q231 39 524 94q4 276 21 303q37 61 98 62q76 0 76 -111q0 -45 -7 -129t-7 -96 q220 30 309 30h6q33 0 41 -4q51 -33 51 -86q-1 -40 -33 -70q-27 -25 -66 -25q-8 0 -16 1q-10 2 -30.5 8t-34.5 6q-25 0 -230 -36q-2 -113 -2 -210q0 -454 39 -542q33 -45 33 -80q0 -49 -67 -65q-25 -10 -46 -11q-45 0 -73 45q-25 37 -25 84q0 -6 -18.5 190.5t-18.5 258.5 v299q-182 -35 -544 -109q-55 -446 -56 -577q0 -98 -12 -123q-23 -39 -64 -39q-39 0 -83 31q-16 14 -17 90z" />
<glyph unicode="I" horiz-adv-x="509" d="M172 213q0 264 21 618q20 385 47 494q23 86 84 86q23 0 49 -10q39 -16 39 -133q0 -41 -4 -90q-25 -188 -62 -568q-14 -180 -14 -333q0 -61 2 -119q37 -57 37 -103q0 -86 -92 -86q-72 0 -97 58q-10 23 -10 186z" />
<glyph unicode="J" horiz-adv-x="1173" d="M-10 82q0 37 25.5 64.5t66.5 27.5q27 0 182 -63q23 -10 84 -11q240 0 389 172q194 227 194 879q0 44 -1 90v67q0 87 4 99q20 63 86 63h3q53 0 75 -40q14 -29 14 -220q0 -279 -43 -526q-59 -328 -178 -479q-209 -260 -512 -260q-86 0 -178 20q-39 10 -80 21h-15 q-52 0 -82 26q-34 29 -34 70z" />
<glyph unicode="K" horiz-adv-x="1314" d="M119 106q0 174 37 607q-40 17 -40 76q0 20 5 45q6 35 53 69q4 113 8 225q8 176 29 203q43 55 90 55q39 0 65 -36q22 -32 22 -80q0 -7 -1 -15q-2 -31 -20 -262q145 76 458 187q348 127 455 127q25 0 44 -20.5t19 -49.5q0 -51 -60 -91q-57 -38 -111 -38h-5q-94 0 -424 -131 q-279 -113 -370 -164q129 -195 344 -371q207 -172 418 -266q51 -23 133 -61q49 -29 49 -60q0 -51 -74 -51q-115 0 -303 92q-219 104 -401 277q-119 113 -207 215q-25 -340 -25 -391q-2 -18 0 -52q2 -39 2 -53q0 -86 -45 -127q-25 -20 -53 -20q-39 0 -78 35q-14 14 -14 126z " />
<glyph unicode="L" horiz-adv-x="1191" d="M57 70q0 23 16.5 62.5t18.5 55.5q39 682 88 938q4 100 10 203q14 131 107 131q80 0 80 -188q0 -137 -33 -248q-23 -74 -43 -254q-17 -134 -17 -202q0 -27 3 -44q3 -28 3 -63.5t-3 -79.5q-10 -131 -13 -141q635 252 877 252q39 0 61 -9q45 -16 45 -53q1 -25 -36 -41 q-113 -31 -422 -131q-383 -135 -516 -225q-84 -57 -119 -58q-29 0 -55 19q-51 31 -52 76z" />
<glyph unicode="M" horiz-adv-x="1794" d="M4 35q0 51 45 119q10 12 62 342q45 287 61 415q25 106 49 316q0 55 8 69q4 8 43 56q70 78 107 78q8 0 16 -3q31 -12 107 -217q51 -137 168 -448q92 -236 166 -490q260 481 559 1020q36 64 104 64h12q53 -4 76 -57.5t29 -180.5q10 -201 16 -282q16 -211 56 -428l32 -168 q19 -100 19 -170q0 -164 -78 -168h-13q-104 0 -108 92q6 45 8 137q-18 150 -55 430l-49 377q-6 45 -8 82q-487 -883 -490 -911q-4 -47 -42 -81t-85 -34q-100 0 -127 133q-18 86 -74 274q-78 256 -155 437q-16 37 -88 233q-154 -903 -154 -977l1 -21q0 -57 -32 -89 q-38 -38 -90 -39q-96 0 -96 90z" />
<glyph unicode="N" horiz-adv-x="1253" d="M100 45q0 160 19 449q18 260 31 331q4 29 14 287q10 223 29 250q33 49 83 49q45 0 70 -43q49 -76 109.5 -257t117.5 -282q109 -182 144 -237q111 -162 198 -219q-5 288 -5 470t5 259q2 32 2 66t-2 71q-4 47 -6 96v9q0 100 90 100q47 0 73 -80t26 -199 q-2 -74 -10.5 -193.5t-8.5 -144.5q0 -33 -6 -115.5t-6 -146.5q0 -121 18 -268q27 -25 27 -70q0 -37 -20 -71v-15q0 -48 -11 -80q-18 -56 -67 -56q-6 0 -13 1q-82 10 -82 119q0 19 3 41q-51 33 -88 55q-96 57 -353 459q-68 109 -147 276q-88 -633 -88 -770q0 -27 4 -30 q24 -28 24 -97v-6q0 -66 -22 -110q-25 -53 -72 -54q-31 0 -67 25q-12 8 -13 131z" />
<glyph unicode="O" horiz-adv-x="1425" d="M27 385q0 193 114 424q109 219 267 371q164 160 294 161h16q138 0 197 -67q526 -103 525 -459v-24q-8 -141 -176 -333t-396 -323q-250 -145 -452 -145q-98 0 -176 37q-213 98 -213 358zM207 403q0 -158 86 -204q66 -35 149 -35q162 0 363 119q182 106 319.5 259 t139.5 255v13q0 193 -236 265q-117 38 -250 38q-19 0 -37 -1q-33 -20 -63 -41q-35 -22 -64 -22h-2q-35 0 -67 34q-156 -133 -250 -335q-88 -184 -88 -345z" />
<glyph unicode="P" horiz-adv-x="1167" d="M125 68q-1 4 -1 12q0 21 5 65q2 115 18 461q-14 10 -14 39q2 29 17 53q30 343 30 498v10q0 90 -10 115q-6 14 -6 29q0 43 31.5 79.5t70.5 36.5q35 0 58.5 -16t35.5 -18h4q21 0 140 12q301 33 467 33q258 -1 305 -64q24 -32 24 -69q0 -165 -356 -379q-252 -154 -629 -318 q-18 -262 -18 -397q0 -25 5 -72t4 -69q0 -59 -28 -90t-67 -31q-76 0 -86 80zM332 840q254 104 448 209q322 172 324 264q0 16 -86 16q-100 0 -299 -22q-166 -18 -201 -27q-59 -12 -162 -20q-10 -154 -24 -420z" />
<glyph unicode="Q" horiz-adv-x="1652" d="M12 301q0 195 107 422q100 215 246 356q106 102 294 219q172 106 209 107q29 0 50 -21q12 14 69 35q74 27 150 27h7q172 0 324 -92q201 -121 205 -344v-7q0 -212 -243 -471q-145 -154 -439 -372q70 -125 117 -127q25 0 82 -13q6 -12 6 -28q0 -47 -40 -96.5t-83 -49.5 q-35 0 -106 82q-61 70 -111 144q-281 -154 -498 -154q-147 0 -233 82q-113 106 -113 301zM182 324q0 -248 213 -248q152 0 379 141q-104 236 -104 481q0 223 86 463q-258 -139 -424 -397q-150 -236 -150 -440zM831 713q0 -219 89 -408q190 125 337 268q248 244 250 441 q0 115 -108 192q-102 72 -232 72q-162 0 -223 -115q-113 -215 -113 -450z" />
<glyph unicode="R" horiz-adv-x="1388" d="M102 268q12 160 35 475q-23 12 -22 41q0 14 24 31q22 224 22 297q0 16 -1 25q-2 25 -2 45q0 76 32.5 116.5t77.5 40.5q55 0 88 -53q301 131 535 131q225 0 237 -164q1 -7 1 -13q0 -243 -707 -529q147 -133 467 -310q336 -188 483 -206q37 -6 72 -29q47 -33 47 -84 q0 -17 -6 -35q-14 -49 -86 -49q-74 0 -105 37q-12 6 -55 22q-565 225 -944 549q-23 -270 -27 -436q0 -23 13.5 -63.5t13.5 -63.5q0 -25 -12 -49q-33 -53 -99 -53q-49 0 -80 32q-12 15 -12 95q0 73 10 200zM324 854q143 35 364 150q264 139 264 233q0 23 -71 23 q-102 0 -258 -39q-164 -41 -211 -84q-20 -18 -45 -15q-16 -90 -43 -268z" />
<glyph unicode="S" horiz-adv-x="1271" d="M55 922q0 152 160 282q129 106 330 178q173 62 275 62h3q96 -2 140 -31q29 -18 88 -102q6 -10 6 -25q0 -29 -25.5 -53.5t-62.5 -24.5q-35 0 -66 27q-16 18 -53 35h-6q-152 0 -371 -105q-233 -113 -233 -213q0 -68 252 -125q379 -88 471 -122q256 -104 256 -277 q0 -133 -142 -256q-96 -82 -270 -168q-150 -72 -152 -80q-20 -78 -123 -78q-100 0 -116 52q-8 23 -8 43q0 49 41 82q35 27 71 32q125 18 322 144q205 131 205 209q0 125 -256 194q-240 53 -478 107q-258 76 -258 213z" />
<glyph unicode="T" d="M-25 1163q0 86 105 94q256 16 399 60q10 61 86 61q37 0 70 -22q78 18 393 43q294 22 435 22h12q45 0 53 -2q82 -34 82 -110q0 -23 -65.5 -61t-100.5 -38q-18 0 -33.5 15.5t-15.5 31.5q0 10 6 17q-326 -14 -373 -21q-211 -18 -366 -73q-38 -444 -38 -664q0 -31 1 -57 q-2 -86 -2 -172q0 -137 14 -166q8 -14 8 -35q0 -47 -29 -88q-31 -47 -77 -47q-31 0 -64 22q-22 13 -22 378v32v113q0 265 8 348q7 89 7 199q0 44 -1 92q-331 -70 -404 -70q-11 0 -16 2q-72 25 -72 96z" />
<glyph unicode="U" horiz-adv-x="1351" d="M100 784q-1 96 -1 177q0 160 5 256q2 57 35 93q29 32 76 32q7 0 14 -1q51 -3 67 -33q13 -24 14 -73q0 -12 -1 -25q-10 -119 -22 -520v-9q1 -181 75 -355q73 -170 150 -170h8q207 20 379 262q133 186 225 471q76 227 80 348q2 14 -2 52t-4 59q0 102 78 104h9 q114 0 114 -98q0 -18 -4 -41q-76 -461 -256 -811q-264 -514 -656 -514h-12q-156 2 -266 270q-100 240 -105 526z" />
<glyph unicode="V" horiz-adv-x="1277" d="M72 1229q0 39 32.5 75.5t69.5 36.5q92 0 172 -217q57 -188 189 -544q39 -100 114 -299q254 496 373 770q37 84 65 188q20 78 21 90q0 43 40 101.5t91 58.5q20 0 41 -10q47 -27 47 -80q0 -66 -43 -105q-14 -14 -41 -106q-41 -145 -106 -279q-199 -434 -420 -893 q-30 -30 -86 -30h-4q-37 0 -62 14q-14 10 -129 346q-139 408 -268 705q-6 14 -57 86q-39 55 -39 92z" />
<glyph unicode="W" horiz-adv-x="1757" d="M68 1266q0 41 28.5 69.5t69.5 28.5q35 0 70 -23q49 -31 61 -155.5t78 -540.5q10 -74 28 -211q66 176 166 361q20 35 199 342q98 166 113 215q6 20 36.5 35.5t65.5 15.5q88 0 92 -100q1 -3 1 -15q0 -24 -3 -84q-1 -44 -1 -88q0 -448 149 -880q141 229 309 796 q31 98 53 205q27 125 27 129q26 101 117 101q9 0 18 -1q90 -8 90 -77q0 -62 -47 -109q-6 -4 -66 -217q-86 -297 -194 -582q-76 -199 -156 -331q-93 -160 -156 -160h-2q-55 2 -77 12q-29 12 -43 55q-12 61 -84 277q-80 219 -117 692q-129 -203 -229 -432q-66 -150 -179 -453 q-37 -104 -65.5 -122.5t-65.5 -18.5q-63 0 -94 41q-18 25 -18 84v12q1 51 1 78t-1 29q-47 375 -66 497q-45 281 -104 492q-4 16 -4 33z" />
<glyph unicode="X" horiz-adv-x="1116" d="M-74 -78q0 39 25 90q141 285 487 785q-76 166 -98 211q-61 121 -117 194q-49 68 -49 119q0 57 66 86q25 10 45 10q59 0 102 -82q27 -68 55 -135q20 -47 109 -242q178 246 299 396q72 96 137 96q47 0 76 -61q2 -4 2 -10q0 -47 -117 -193q-92 -115 -313 -410 q254 -553 283 -575q23 -16 61 -56q14 -23 14 -47q0 -37 -37 -71q-14 -12 -34 -13q-43 0 -97.5 50.5t-81.5 101.5q-82 158 -217 450q-117 -170 -233 -340q-168 -256 -168 -329v-6v-12q-1 -46 -27 -74q-30 -31 -75 -31q-39 0 -68 25.5t-29 72.5z" />
<glyph unicode="Y" horiz-adv-x="1087" d="M49 1257q2 76 80 76q49 0 102.5 -30.5t80 -76.5t137.5 -327q381 295 526 494q47 61 94 61q33 0 63.5 -28.5t30.5 -59.5t-30 -55q-6 -6 -50 -33q-45 -90 -518 -506q4 -47 4 -115q0 -55 -4 -179t-4 -185q0 -170 31 -248q18 -49 18 -76q0 -43 -41 -69q-25 -16 -53 -17 q-47 0 -80 40q-26 31 -26 72q0 11 2 23q1 4 1 13q0 26 -9 93q-11 91 -29 521q-39 25 -49 43q-2 6 -19 62q-100 373 -192 426q-43 27 -47 28q-18 18 -19 53z" />
<glyph unicode="Z" horiz-adv-x="1431" d="M-57 39q0 27 18 49q143 221 498 713q141 182 334 395q-393 -55 -474 -125q-66 -59 -108 -59q-39 0 -74 43q-12 16 -12 37q0 70 149 159q47 29 365 97q321 67 427 67h3q25 0 33 -4q47 -31 47 -86q0 -18 -6 -33.5t-49 -50.5q-432 -350 -877 -1079q332 53 496 69 q272 25 549 25q304 0 337 -29q51 -35 52 -82q0 -69 -76 -69h-2q-18 0 -43 10q-37 12 -41 14q-29 8 -205 9q-291 0 -561 -33q-150 -18 -346.5 -56t-247.5 -61q-39 -18 -76 -18q-49 0 -79.5 29.5t-30.5 68.5z" />
<glyph unicode="[" horiz-adv-x="546" d="M20 -184q0 385 105 1075q31 201 10 336q-12 92 -12 82q0 31 14 45q35 33 80 32q16 0 51 -5t56 -5q37 0 104.5 28t85.5 28q29 0 29 -31t-39 -72t-82 -63q-53 -27 -96 -33q-2 -135 -68 -698q-66 -555 -65 -744q0 -125 22 -160q4 -6 109 17q123 29 172 28q49 0 55 -20 q23 -66 -248 -154q-41 -16 -82 -30q-59 -23 -94 -23q-33 0 -49 19q-57 66 -58 348z" />
<glyph unicode="\" horiz-adv-x="651" d="M2 1509q27 55 74 56q25 0 59 -15q45 -20 82 -155q82 -315 164 -631q102 -362 225 -608q35 -68 35 -123q0 -72 -72 -72q-18 0 -39 4q-84 16 -501 1381q-41 135 -27 163z" />
<glyph unicode="]" horiz-adv-x="638" d="M16 -516q0 41 56 90q45 33 86 66.5t69 68.5q14 18 31 37q14 166 35 692q14 379 37 568q20 197 24 286q-80 -18 -139 -18q-129 0 -127 80q2 68 82 76q66 2 131 6q133 37 154 37q33 0 53 -13.5t20 -113.5q0 -29 -16 -246q-68 -907 -84 -1321q27 -29 14 -84 q-12 -47 -167.5 -160t-215.5 -113q-10 0 -16 7q-27 27 -27 55z" />
<glyph unicode="^" horiz-adv-x="675" d="M39 872q0 29 18 64q66 150 133 299q111 244 142 256q16 6 30 6q59 0 97 -127q14 -49 39 -201q18 -125 86 -309q27 -70 26 -102q0 -74 -92 -74q-59 0 -78 41q-35 72 -61 221q-37 213 -41 232q-4 -8 -135 -340q-14 -41 -74 -41q-90 0 -90 75z" />
<glyph unicode="_" horiz-adv-x="1003" d="M0 -154h1024v-96h-1024v96z" />
<glyph unicode="`" horiz-adv-x="731" d="M78 1393q0 29 23.5 49t58.5 20q68 0 200 -155q150 -178 218 -211q4 2 16 2q31 2 54.5 -34t23.5 -75q0 -66 -62 -65q-16 0 -35 6q-53 14 -229 166.5t-248 240.5q-20 29 -20 56z" />
<glyph unicode="a" horiz-adv-x="761" d="M63 147q0 111 85 217.5t184 116.5q10 1 19 1q102 0 163 -122q8 49 8 93q0 109 -53 211q-36 67 -105 67h-2q-37 0 -72.5 -18.5t-37.5 -28.5q-4 -35 -47 -35q-78 0 -82 70v9q0 63 80 110q80 45 178 45q70 0 117 -27q186 -111 186 -399q0 -133 -39 -285q-28 -113 -53 -158 q-14 -18 -41 -18q-55 0 -76 49q-135 -78 -237 -78q-78 0 -126.5 50.5t-48.5 129.5zM211 152q0 -39 37 -39q63 0 182 88q-45 121 -79 121h-3q-57 -10 -97 -60.5t-40 -109.5z" />
<glyph unicode="b" horiz-adv-x="786" d="M98 729q0 55 60 90q59 240 59 393q0 14 -7 42t-9 40v14q0 78 65 78q45 0 80 -45q39 -53 39 -141q0 -74 -23 -176q-18 -86 -38 -174q344 -8 436 -223q12 -27 12 -60q0 -172 -344 -481q-41 -35 -106 -100q-27 -37 -66 -37q-33 0 -57.5 24.5t-26.5 63.5q-49 10 -66 43 q-6 16 -6 88.5t6 200.5q10 219 21 299q-29 29 -29 61zM260 346q0 -98 10 -196q115 88 203 182q129 139 129 221q0 76 -123 113q-76 21 -150 21q-17 0 -34 -1q-35 -166 -35 -340z" />
<glyph unicode="c" horiz-adv-x="1044" d="M18 227q0 172 181 383q170 201 305 221q27 4 47 5q96 0 96 -68q0 -43 -39 -87t-82 -44q-10 0 -37 4q-20 4 -30 0q-76 -20 -172 -156q-98 -141 -99 -239q0 -104 119 -105q125 0 369 117q166 92 346 193q14 4 29 4q33 0 54 -28.5t15 -59.5q-12 -18 -145 -105 q-166 -106 -322 -174q-211 -92 -360 -92q-154 0 -232 98q-43 55 -43 133z" />
<glyph unicode="d" horiz-adv-x="1062" d="M23 211q0 184 184 364q174 172 321 173q154 0 246 -156q67 575 67 658q0 9 -1 12q-10 43 -11 77q0 94 72 95q45 0 84 -38t39 -91q0 -25 -8 -48q-12 -29 -43 -315q-37 -309 -47 -508q88 -27 88 -80q0 -74 -121 -116v-22q0 -55 -8 -105q-15 -85 -55 -85q-3 0 -7 1 q-92 12 -104 114q-283 -172 -469 -172q-117 0 -172 75t-55 167zM190 203q0 -80 78 -80t234 86q94 56 188 113q-45 268 -166 268q-106 0 -220 -140.5t-114 -246.5z" />
<glyph unicode="e" horiz-adv-x="995" d="M35 385q0 201 192 342q174 129 381 129q117 0 199 -47q18 -10 18 -33q0 -55 -94 -149.5t-190 -134.5q-111 -45 -334 -80q-2 -16 -2 -31q0 -69 43 -141q55 -93 136 -93h5q88 2 264 119q143 94 178 135q47 84 91 84q20 0 45 -16q41 -29 41 -72q0 -59 -60 -98q-2 -2 -90 -70 q-312 -239 -494 -239h-2q-133 0 -233 133q-94 123 -94 262zM274 561q61 10 187 49q92 44 143 95h-13q-75 0 -171 -43q-74 -33 -146 -101z" />
<glyph unicode="f" horiz-adv-x="798" d="M49 416q0 35 27 63q78 82 196 111q8 352 58 534q90 336 336 336q31 0 63 -4q147 -23 148 -123q0 -71 -70 -71h-2q-29 0 -60 18q-49 29 -92 29q-135 0 -184 -295q-24 -143 -24 -319q0 -36 1 -74q76 8 166 8q31 0 74 8q23 16 49 16q37 0 63.5 -30.5t26.5 -69.5 q0 -82 -114 -86q-92 0 -262 -10q0 -307 -27 -504q-29 -162 -86 -483q-16 -94 -21 -109q-20 -57 -71 -57q-25 0 -60 14q-53 23 -53 88q0 43 25 72q10 12 37 139q35 160 55 338q26 221 26 450v17q-27 -10 -57.5 -56.5t-73.5 -46.5q-37 0 -65.5 30t-28.5 67z" />
<glyph unicode="g" horiz-adv-x="983" d="M-184 -762q0 170 139 326q158 176 321 262q127 66 351 121q-90 104 -250 104q-92 0 -184 -35q-82 -32 -106 -32h-1q-20 0 -39 10q-53 27 -53 67q0 63 82 93q-14 43 -15 84q0 92 70 190q4 6 137 168q-43 39 -43 78q0 65 72 65h2q33 0 57 -22q6 -4 29 -4q12 0 223 26.5 t271 26.5q33 0 47 -6q71 -20 71 -69q0 -65 -96 -65q-9 0 -20 1q-31 0 -234 -29q76 -76 76 -162q0 -125 -162 -260q135 -55 230 -196q178 18 296 18q355 0 355 -119q0 -33 -40 -56.5t-89 -23.5q-78 0 -105 58q-22 1 -45 1q-141 0 -305 -22q23 -70 23 -153q0 -287 -193 -551 q-203 -276 -457 -277q-125 0 -241 74q-174 111 -174 309zM-20 -760q0 -94 98 -168q72 -55 153 -55q176 0 330 215t154 442q-1 70 -21 131q-395 -78 -610 -340q-104 -129 -104 -225zM233 240q0 -20 5 -41q104 25 202 86q117 72 117 146v7q-6 92 -106 119q-96 -88 -148 -156 q-70 -98 -70 -161z" />
<glyph unicode="h" horiz-adv-x="970" d="M70 6q0 29 12 62q8 20 20 94q6 231 41 700q10 145 29 371q15 149 82 149h4q93 -5 93 -106q0 -10 -1 -21q-14 -78 -41 -292q-12 -139 -33 -420q258 293 431 293q31 0 55 -9q145 -53 145 -501q0 -78 -6 -166q4 -40 4 -101q-4 -66 -78 -67q-98 0 -98 127q0 20 2 49 q12 131 12 250q0 215 -43 241q-12 6 -26 7q-74 0 -203 -127q-119 -119 -162 -211q-49 -111 -49 -220q0 -22 2 -45q2 -15 2 -29q0 -52 -26 -84q-32 -40 -78 -40q-37 0 -63.5 25.5t-26.5 70.5z" />
<glyph unicode="i" horiz-adv-x="509" d="M154 1194q0 59 59 209q31 76 82 76q31 0 51.5 -24.5t18.5 -53.5q0 -18 -16.5 -57t-34 -78t-21.5 -84q-4 -72 -76 -72q-63 0 -63 84zM162 223q6 113 18 389q4 131 6 148q16 100 74 104h4q40 0 70 -34q27 -32 26 -74v-11q-20 -201 -45 -477v-9q0 -54 21 -122q4 -14 4 -31 q0 -39 -26.5 -68.5t-61.5 -29.5q-33 0 -57 27q-33 35 -33 172v16z" />
<glyph unicode="j" horiz-adv-x="540" d="M-713 -629q0 119 43 180q16 23 35 23q20 0 34.5 -22.5t12.5 -47.5q-2 -37 -2 -69q0 -143 51 -217q63 -90 217 -115q25 -4 54 -4q176 0 328.5 163t187.5 390q20 141 20 291q0 250 -84 708q0 2 -12 24.5t-8 51.5q4 63 88 64q45 0 74 -29q35 -35 75 -309q45 -295 45 -557 v-12q0 -217 -36 -343q-90 -309 -295 -467q-172 -133 -381 -133q-170 0 -277 84q-170 133 -170 346zM236 1339q-1 9 -1 17q0 74 66 86q13 2 24 2q71 0 78 -88q1 -15 1 -29q0 -94 -74 -94q-35 0 -62.5 28.5t-31.5 77.5z" />
<glyph unicode="k" horiz-adv-x="1204" d="M82 160q0 311 73.5 716.5t133.5 430.5q20 8 41 8q41 0 67.5 -31t26.5 -72q0 -23 -25 -79q-57 -139 -106 -463q557 170 713 186q7 1 14 1q58 0 57 -64q0 -51 -39 -76q-2 -2 -233 -58q-242 -57 -492 -159q168 -164 437 -285q135 -59 243 -59q72 0 127 26q35 16 43 31 q25 43 72 43q37 0 66.5 -26.5t29.5 -61.5q0 -66 -102 -105q-23 -10 -80 -32q-80 -29 -170 -29q-317 0 -721 334q-14 -107 -14 -191q0 -77 12 -133q14 -57 14 -84q0 -78 -102 -80h-1q-85 0 -85 312z" />
<glyph unicode="l" horiz-adv-x="466" d="M141 57q0 170 33 533q20 201 41 403q8 117 23 312q10 135 30 155q29 31 68 31q40 0 68 -38q18 -25 19 -91q0 -34 -5 -78q-35 -270 -70 -541q-37 -322 -37 -544q0 -82 4 -158q1 -9 1 -17q0 -50 -20 -96q-24 -54 -67 -53q-31 0 -67 29q-20 18 -21 153z" />
<glyph unicode="m" horiz-adv-x="1290" d="M104 63q0 61 17.5 247t17.5 263q0 37 -2 64q-3 30 -3 52q0 39 9 56q29 43 76 43q37 0 66.5 -24.5t33.5 -58.5q127 225 193 225q72 0 121 -84q31 -53 49 -391q223 453 344 473q5 1 9 1q41 0 91 -48q47 -47 60 -90q16 -63 18 -316q0 -182 -4 -266q-2 -16 8.5 -48t11.5 -48 q-1 -19 -12 -37q-23 -39 -84 -39q-49 0 -70.5 39t-21.5 160q0 57 6 186t6 180q0 131 -28 148q-1 1 -3 1q-32 0 -157 -315q-117 -287 -141 -381q-29 -112 -80 -112q-6 0 -12 2q-61 14 -78 63q-10 27 -13 103q-2 168 -6 335q-6 244 -22 254q-14 8 -37 -38q-27 -61 -53 -121 q-127 -285 -127 -461q0 -25 2 -45q1 -8 1 -15q0 -34 -30 -55q-23 -16 -65 -16q-57 0 -78 33q-12 18 -13 81z" />
<glyph unicode="n" horiz-adv-x="786" d="M74 137q6 74 16 346q6 203 25 330q10 70 69 70q55 0 92 -41q14 -16 15 -60q0 -31 -12 -120q-9 -75 -9 -114v-7q113 193 146 235q84 118 141 118q5 0 10 -1q78 -16 107 -170q22 -108 22 -327v-54q0 -246 4 -262q37 -72 37 -107v-2q0 -34 -28 -57q-20 -16 -52 -16 q-45 0 -82.5 34.5t-37.5 81.5q0 18 6 35v4q0 17 -8 92q-13 126 -13 251v18q2 93 2 153q0 110 -7 110q-1 0 -1 -1q-84 -106 -190 -412q-94 -276 -115 -284q-37 -16 -64 -17q-75 0 -75 120q0 26 2 54z" />
<glyph unicode="o" horiz-adv-x="761" d="M31 317q0 86 35 166q156 352 348 367q9 1 18 1l154 -60q110 -84 133 -244q4 -35 4 -70q0 -203 -158 -352q-141 -133 -295 -133q-49 0 -86 20q-61 31 -106 113q-47 90 -47 192zM195 319q0 -55 20 -104q29 -61 76 -61q53 0 124.5 52t98.5 107q53 106 53 192q0 52 -22 99 q-31 68 -80 80q-174 -45 -262 -299q-8 -29 -8 -66z" />
<glyph unicode="p" horiz-adv-x="737" d="M70 -215q14 336 92 893q-55 31 -56 72q0 45 58.5 82.5t124.5 37.5q133 0 262 -98q148 -115 164 -287q1 -7 1 -14q0 -82 -87 -201q-72 -100 -187 -202q-98 -86 -125 -93q-12 -3 -23 -3q-23 0 -42 12q-16 -176 -21 -379q-2 -110 -2 -186q0 -159 9 -173q12 -22 12 -49 q0 -88 -76 -88q-45 0 -74.5 34t-29.5 79q0 29 12 51q-16 193 -16 359q0 80 4 153zM270 154q222 126 267 319q2 8 2 16q0 48 -49 112q-56 75 -136 93q-41 -203 -84 -540z" />
<glyph unicode="q" horiz-adv-x="737" d="M68 193q0 125 36 262q45 168 144 305q94 131 170 145q6 1 13 1q35 0 84 -28q51 -28 51 -68q0 -5 -1 -11q-8 -47 -33 -60q-4 -2 -63 -6q-10 -2 -16 -4q-90 -61 -168 -243q-68 -157 -68 -254q0 -15 2 -29l4 4q53 51 152 190q104 147 106 191q-2 29 -4 59q0 33 29 47.5 t63 14.5q94 0 95 -78q0 -47 -35 -146q-23 -66 -45 -129q-23 -76 -49 -270q-33 -236 -33 -395q4 -442 84 -531q2 -4 6 -4q14 0 57 66q63 90 101 133q61 70 122 137q102 113 129 115q47 4 62 2q35 -8 31 -45q-4 -41 -230 -305q-234 -271 -310 -271h-5q-111 16 -166 305 q-37 195 -37 406q0 207 41 453q-150 -158 -227 -158q-92 0 -92 199z" />
<glyph unicode="r" horiz-adv-x="843" d="M76 805q0 31 28.5 51.5t65.5 20.5q39 0 66 -25q45 -41 49 -209q2 -80 2 -149q223 279 356 354q63 37 131 37q47 -1 96 -17q14 -6 31 -31.5t17 -52.5q0 -31 -27 -50t-57 -19q-14 0 -39 8t-37 8q-18 0 -37 -12q-172 -96 -391 -434q-37 -53 -48.5 -163t-25.5 -126 q-25 -33 -68 -33q-47 0 -79 33q-23 20 -25 65q0 29 6 70q35 186 35 348q0 180 -45 303q-4 10 -4 23z" />
<glyph unicode="s" horiz-adv-x="724" d="M51 463q-2 17 -2 35q0 137 111 278q78 98 254 238q41 33 100 33q61 0 112.5 -30t57.5 -65q1 -8 1 -15q0 -60 -73 -60h-2q-33 0 -71 16q-37 0 -111 -68q-49 -49 -100 -96q-66 -55 -97 -137q-18 -49 -19 -85q0 -13 3 -24q12 -80 131 -127q109 -37 215 -75q117 -56 131 -162 v-7q0 -68 -153 -171q-147 -100 -228 -109q-5 -1 -11 -1q-32 1 -60 21q-34 24 -33 58q0 25 18 49q10 16 156 80q129 57 129 83q0 20 -117 56q-143 43 -213 88q-117 76 -129 197z" />
<glyph unicode="t" horiz-adv-x="811" d="M-31 694q0 41 37 70q90 72 340 135q27 168 45 356q0 -4 -1 -4t-1 92q0 104 76 105q92 0 92 -184q0 -72 -41 -334q111 17 209 17q43 0 84 -3q115 -8 115 -82q0 -63 -76 -65q-14 0 -42 3t-34 3q-96 0 -280 -39q-45 -356 -46 -565q0 -86 9 -127q6 -20 6 -39q0 -78 -74 -78 q-45 0 -83 38q-34 34 -34 89v12q0 106 23 412q8 70 26 221q-70 -18 -110 -41q-2 -2 -98 -65q-31 -20 -56 -15q-86 20 -86 88z" />
<glyph unicode="u" horiz-adv-x="724" d="M84 791q0 93 76 94q40 0 70 -30q29 -28 28 -70v-5q-2 -56 -2 -110q0 -150 16 -291q24 -191 69 -191q12 0 26 15q49 51 77 239q23 139 27 275q2 100 82 100q39 0 70.5 -30.5t31.5 -77.5v-6q0 -101 -67 -351q-80 -301 -168 -332q-39 -14 -74 -14q-170 0 -229 332 q-33 174 -33 453z" />
<glyph unicode="v" horiz-adv-x="907" d="M55 696q0 63 60 64q43 0 89 -48t68 -124q14 -47 24.5 -117t29.5 -135q4 -23 16 -76q117 176 373 524q47 61 98 129q49 113 117 113q74 0 74 -96q0 -103 -113 -197q-57 -47 -236 -315q-166 -248 -196 -314q-55 -118 -139 -118h-1q-59 0 -90 84q-29 72 -63.5 233.5 t-63.5 231.5q-47 125 -47 161z" />
<glyph unicode="w" horiz-adv-x="1458" d="M92 694q0 23 4 31q18 57 82 57q37 0 67.5 -24.5t35.5 -65.5q2 -104 6 -315q43 74 65 106q41 66 82 109q66 72 160 184q25 37 92 37q47 0 76 -18q18 -14 47 -140q16 -76 33.5 -150.5t77.5 -275.5q82 98 246.5 310.5t166.5 222.5q39 115 107 115q24 -1 51 -13 q55 -25 55 -73q0 -57 -61 -111q-41 -37 -287 -375q-229 -315 -266 -323q-8 -1 -19 -1q-19 0 -47 4q-43 7 -53 27q-33 53 -88 267q-37 154 -76 307q-129 -137 -198 -273q-45 -98 -91 -198q-70 -131 -143 -131h-4q-78 4 -90 135q-2 86 -10 303q0 2 -11 123q-10 106 -10 149z " />
<glyph unicode="x" horiz-adv-x="589" d="M-12 -111q0 39 24 60q10 8 221 491q-49 115 -114 275q-16 37 -17 63q0 72 78 72q51 0 92 -82q10 -18 50 -125q33 74 67 148q49 109 62.5 113.5t27.5 4.5q35 0 63.5 -27.5t28.5 -58.5q0 -10 -4 -18q-61 -147 -161 -381q47 -121 106 -268q14 -31 29 -64q16 -39 18 -67 q2 -27 -23.5 -47.5t-58.5 -20.5q-90 0 -106 135q-2 12 -54 137q-68 -154 -135 -309q2 -12 2 -23q0 -41 -24 -74q-27 -38 -76 -38h-10q-39 2 -62.5 33.5t-23.5 70.5z" />
<glyph unicode="y" horiz-adv-x="804" d="M74 246q0 51 49 444q14 104 20 127q23 82 78 82q33 0 67 -27q36 -28 36 -60q0 -37 -43 -230q-45 -203 -45 -246q0 -14 4 -19h1q13 0 130 144q168 209 184 227q20 33 39 64q27 41 63 41q16 0 35 -7q31 -12 49.5 -74.5t18.5 -133.5q0 -29 -2 -54q-27 -283 -90 -893 q-2 -4 -29 -209q-29 -195 -29 -196q31 -49 31 -92t-30.5 -67.5t-71.5 -24.5q-43 0 -73 24.5t-30 71.5q0 66 39 94q6 113 51 606q23 217 31 312q10 147 16 313q-207 -233 -211 -238q-137 -143 -198 -143h-2q-88 0 -88 164z" />
<glyph unicode="z" horiz-adv-x="976" d="M8 88q0 47 96.5 113.5t272.5 240.5q168 163 168 194q0 3 -2 5q-5 4 -28 4t-64 -4q-68 -8 -106 -18.5t-75 -22.5q-55 -16 -88 -16t-57.5 18.5t-24.5 48.5q0 51 113 92q76 27 149 35q47 6 99 6q98 0 184 -18t92 -35.5t6 -38.5q0 -98 -176 -284q-45 -47 -243 -230 q143 16 434 70q90 20 180 43q113 24 151 24q10 0 15 -2q67 -29 67 -84q0 -51 -86 -51q-16 0 -51 -2q-14 0 -403 -90q-360 -82 -481 -82q-41 0 -117 47q-25 14 -25 37z" />
<glyph unicode="{" horiz-adv-x="872" d="M-215 582q0 8 2 18q23 90 100 90q25 0 77 -10t75 -10q221 -2 307 60.5t90 225.5q8 371 109 521q82 125 254 125q51 0 121 -11q158 -25 157 -121q0 -33 -22.5 -57t-53.5 -24q-28 -1 -79 34q-70 43 -123 43q-133 0 -176 -249q-14 -80 -19 -265q-4 -207 -96 -303 q-74 -78 -238 -104q408 -137 404 -600q-2 -100 12 -144q25 -68 105 -116q8 -4 20 -4q8 0 28.5 4t32.5 4q25 0 50 -15q49 -35 49 -92q0 -78 -68 -96q-45 -10 -86 -10q-150 0 -233 139q-76 127 -72 319q4 139 -4 187q-16 86 -82 164q-84 100 -256 151q-131 31 -264 62 q-121 29 -121 84z" />
<glyph unicode="|" horiz-adv-x="411" d="M115 428q0 49 2 98q10 285 51 856q10 100 16 119q23 68 92 70q63 2 64 -68q0 -37 -25 -80q-12 -18 -39 -813q-8 -253 39 -460q8 -29 9 -52q0 -90 -82 -90q-74 0 -88 53q-39 131 -39 367z" />
<glyph unicode="}" horiz-adv-x="774" d="M31 -416q0 25 18 49q29 35 60 35q37 0 96 -65q29 -33 53 -33q51 0 80 141q6 29 22 178q8 160 17 320q14 188 92 303q-119 47 -164 119q-35 57 -35 155q0 27 6 127q18 285 19 285q0 221 -76 221q-12 0 -34.5 -10t-39.5 -10q-37 0 -63 35q-20 27 -25 51q-4 35 16.5 59.5 t59.5 22.5q37 6 133 8q184 -14 185 -494q0 -43 -2 -116v-105q0 -115 16 -135q74 -88 149 -88q31 0 60 18q53 37 100 37q84 0 84 -84q0 -69 -76 -98q-115 -47 -141 -68q-61 -47 -82 -157q-18 -258 -37 -518q-47 -362 -223 -363q-70 0 -162 55q-106 63 -106 125z" />
<glyph unicode="~" d="M123 399q0 10 4 21q20 59 109 133q109 94 213 84q47 -4 86 -41q47 -47 47 -119q0 -18 -2 -37q-6 -37 32 -37q59 0 211 86q131 76 168 113t74 37t62.5 -33t25.5 -71q0 -60 -57 -68q-10 0 -74 -35q-111 -61 -221 -123q-150 -74 -240 -69q-131 6 -131 135v28q2 18 2 27 q0 41 -16 49q-25 12 -79 -45t-58 -84q-6 -37 -50 -37q-37 0 -71.5 26t-34.5 60z" />
<glyph unicode="&#xa1;" horiz-adv-x="632" d="M160 -254q0 240 82 737q29 170 24 189q0 18 -10 56t-8 58q4 88 80 88q43 0 67 -45q31 -51 23 -145l-72 -795q-4 -74 -8 -147q-4 -121 -16 -133q-35 -35 -78 -35q-39 0 -66 39q-18 29 -18 133zM270 1219q-4 119 80 124q33 2 61.5 -38.5t28.5 -77.5q0 -100 -78 -101 q-35 0 -63.5 27t-28.5 66z" />
<glyph unicode="&#xa2;" d="M217 416q8 111 94 233.5t213 212.5q31 238 90 481q31 121 103 121q43 0 76.5 -40t25.5 -72q-27 -78 -98 -375q82 33 129 33q37 0 71.5 -28t34.5 -62q0 -51 -84 -52q-16 0 -30 2q-33 4 -156 -79q-14 -133 -61 -445q102 37 206 103q82 51 105 73q43 49 90 49 q37 0 64.5 -29.5t27.5 -66.5q0 -60 -63 -74q-4 0 -123 -61q-80 -45 -162 -88q-92 -47 -172 -68q-51 -262 -51 -276q0 -16 4 -21q14 -14 14 -30q0 -33 -45 -61.5t-92 -28.5q-76 0 -76 75q0 29 13 68q27 86 61 250q-227 4 -209 256zM375 393q0 -43 23.5 -65.5t54.5 -18.5 q23 142 43 318q-121 -127 -121 -234z" />
<glyph unicode="&#xa3;" d="M100 31q0 61 117 174q78 72 156 143q55 55 67 234q-39 2 -141 -2q-49 -4 -81 25.5t-32 66.5q0 61 74 69q55 -4 180 -4q18 651 375 652q35 0 72 -7q147 -23 147 -120q0 -72 -71 -72q-29 0 -60 18q-55 31 -102 31q-188 0 -197 -494q143 6 166 7q45 -2 55 4q25 18 49 18 q39 0 66 -33.5t27 -72.5q0 -66 -74 -62q-55 2 -143 -6q-113 -10 -142 -12q-6 -131 -30 -213q160 -29 266 -176q68 -94 131 -95q39 0 88 27q33 37 65 37q33 0 54.5 -28.5t21.5 -63.5q0 -56 -51 -68q-47 -23 -149 -53q-27 -4 -50 -4q-76 0 -129 41q-33 23 -85 86t-91 90 q-63 45 -129 45q-45 0 -69 -25q-68 -59 -195 -192q-27 -33 -70 -33q-33 0 -59.5 19.5t-26.5 48.5z" />
<glyph unicode="&#xa4;" horiz-adv-x="860" d="M76 356q0 41 33 64q-23 37 -23 94q0 160 143 375l-75 106q-23 35 -23 60q0 57 88 57q51 0 119 -84q115 129 147 129q33 0 43 -27q6 -8 13 -51q35 -6 65 -18q29 29 51 41q14 6 31 6q66 0 76 -68q2 -20 -43 -84q33 -61 33 -133q0 -133 -103 -268q55 -88 62 -96 q23 -25 43 -51q24 -33 20 -62q-4 -20 -30.5 -37.5t-61.5 -17.5q-90 0 -127 108q-2 8 -20 35q-131 -117 -261 -106q-31 -53 -116 -52q-84 4 -84 80zM262 610q35 47 84 113l-24 33q-43 -80 -60 -146zM373 502q41 20 84 55l-21 29zM426 897q14 -23 20 -35q17 23 54 68 q-35 2 -74 -33zM541 723l24 -37q29 54 27 105z" />
<glyph unicode="&#xa5;" d="M125 276q0 41 45 91q20 23 166 79q94 37 186 72q-2 43 -10 55q-66 121 -205 367q-4 8 -86 135q-35 53 -35 82q0 31 20.5 53.5t51.5 22.5q14 0 31 -6q76 -25 143 -150l90 -198q51 -113 72 -109q12 4 190 223q197 244 244 291q12 10 27 25q6 31 30.5 58.5t57.5 27.5 q32 0 67 -37q20 -23 21 -51q0 -37 -31 -69t-70 -34q-53 -41 -198 -243q-98 -137 -197 -277q-37 -47 -33 -98q100 45 310 129q45 14 80 14q78 0 77 -63q0 -41 -36 -72q-43 -37 -111 -37q-55 0 -309 -117v-20q115 43 151 55q76 27 149.5 39t102.5 12q94 0 94 -71q0 -12 -4 -29 q-6 -35 -53 -68.5t-90 -33.5q-53 0 -64 61q-70 -31 -219 -90q-20 -6 -59 -25q4 -55 29 -217q18 -35 18 -61q0 -76 -106 -76q-55 0 -74 49q-8 47 -19 92q-6 20 -20 131q-86 -53 -268 -141q-14 -6 -29 -6q-31 0 -51.5 22.5t-20.5 55.5q0 61 68 98q10 6 289 129l-2 23 q-90 -33 -273 -119q-41 -25 -78 -25q-59 0 -59 51z" />
<glyph unicode="&#xa6;" horiz-adv-x="411" d="M98 137q0 -31 21 342q6 131 8 139q16 92 80 97q45 2 72.5 -32t23.5 -81q-41 -350 -47 -440q-2 -63 18 -121q6 -16 7 -33q0 -37 -25 -62.5t-59 -25.5q-31 0 -65 24.5t-34 192.5zM109 1055q0 303 34 432q16 61 70 61q39 0 69.5 -32.5t26.5 -79.5q-2 -27 -26 -207 q-18 -143 -19 -219q0 -49 6 -80q4 -2 13 -10q14 -16 14 -41q0 -41 -33 -80t-69 -39q-43 0 -68 57q-18 43 -18 238z" />
<glyph unicode="&#xa7;" horiz-adv-x="860" d="M41 629q0 25 2 51q18 174 207 283q-41 90 -41 157q0 135 123 246q115 102 229 102q37 0 66 -14q70 -37 69 -84q0 -37 -37.5 -62.5t-74.5 -17.5q-45 10 -117 -24q-90 -47 -90 -142q0 -51 24 -102q45 -2 71 -33t17 -71q68 -51 136 -103q71 -57 116 -127q66 -100 66 -211 q0 -180 -164 -327q23 -70 23 -142q0 -172 -113 -289q-119 -121 -301 -112q-115 4 -115 84q0 35 31 62.5t80 27.5q12 0 35.5 -4t35.5 -4q82 0 132 98q39 80 38 176q0 39 -6 62q-43 31 -41 75q-47 55 -166.5 125t-160.5 115q-74 82 -74 205zM207 655q0 -37 16 -80 q20 -63 144 -141q156 -100 192 -137q86 57 86 164q0 20 -4 43q-14 76 -70 133q-33 35 -116.5 90t-120.5 90q-127 -51 -127 -162z" />
<glyph unicode="&#xa8;" horiz-adv-x="759" d="M268 1137q0 121 29 200q25 63 68 64q18 0 41 -12q49 -27 49 -70q0 -20 -25 -88q-16 -47 -16 -127q-2 -102 -74 -103q-12 0 -25 3q-47 10 -47 133zM510 1067q0 47 29 127q20 57 41 115q18 66 71 65q39 0 61.5 -29.5t18.5 -68.5q-4 -27 -20 -62q-25 -49 -33 -71 q-14 -33 -19.5 -74t-25.5 -61q-31 -29 -60 -29q-18 0 -34 14q-29 27 -29 74z" />
<glyph unicode="&#xa9;" horiz-adv-x="1462" d="M111 465q0 217 129 409q145 217 419 345q178 82 254 81q68 0 97 -45q176 -25 266 -139q82 -102 82 -264q0 -305 -236 -590q-250 -303 -565 -303q-201 0 -326 150q-121 143 -120 356zM270 492q-4 -199 105 -302q86 -78 192 -73q227 8 441 256q205 240 204 463 q1 248 -292 260q-123 6 -230 -45q-80 -39 -94 -70q-12 -20 -29 -76q-10 -33 -41 -57q-16 -14 -41 -14q-33 0 -65 22q-43 -53 -74 -108q-76 -133 -76 -256zM455 492q0 115 65 225q96 168 250 155q18 70 76 70q37 0 67.5 -29.5t30.5 -68.5q0 -18 -8 -37q-6 -59 -10 -119 q-12 -74 -86 -76q-76 -2 -95 90q-39 -12 -77 -57q-51 -63 -56 -153q-2 -29 27 -29q35 0 104 39q61 35 78 53q43 51 88 51q33 0 54.5 -24.5t21.5 -57.5q0 -34 -27 -61q-39 -29 -114 -86q-88 -70 -211 -70q-98 0 -150 70q-29 43 -28 115z" />
<glyph unicode="&#xaa;" horiz-adv-x="823" d="M86 707q0 49 78 65q86 14 246 14q236 0 299 -23.5t63 -60.5q0 -55 -94 -79q-55 -14 -88 16q-35 8 -82 8q-57 0 -154 -12q-129 -14 -143 -17q-49 -4 -87 25t-38 64zM135 977q0 96 86 184t185 88q90 0 151 -84q2 20 2 41q0 176 -119 176q-20 0 -65 -13t-43 -26 q10 -51 -56 -51q-68 0 -79 60q-16 68 75 123q86 49 189 49q45 0 78 -13q176 -68 176 -313q0 -174 -78 -334q-18 -20 -47 -20q-43 0 -66 33q-127 -59 -213 -60q-74 0 -121 41q-55 47 -55 119zM291 979q0 -25 39 -25q43 1 139 64q-25 88 -59 84q-53 -8 -88 -53 q-31 -37 -31 -70z" />
<glyph unicode="&#xab;" horiz-adv-x="1105" d="M31 649q0 14 10 31q20 39 430 182q23 8 41 8q66 0 66 -71q0 -57 -43 -68q-61 -12 -142 -49q-100 -45 -108 -47q80 -35 157 -70q105 -45 148 -78q23 -18 22 -55q0 -27 -16 -51.5t-43 -24.5q-29 0 -82 31q-37 23 -72 45q-49 27 -141 64q-100 39 -143 59q-84 45 -84 94z M487 633q0 14 7 33q16 37 432 182q23 8 41 8q66 0 65 -72q0 -57 -45 -67q-59 -12 -141 -49q-98 -45 -109 -47l160 -70q104 -45 147 -78q23 -18 23 -55q0 -27 -16.5 -51.5t-42.5 -24.5q-29 0 -82 31q-37 23 -74 45q-129 59 -258 119q-106 47 -107 96z" />
<glyph unicode="&#xac;" horiz-adv-x="2856" d="M16 535q4 57 74 57q27 0 47 -10q8 -6 136 7t133 15q41 41 96 8q102 14 307 39q23 35 65 35q31 0 52 -18q272 27 329 30q31 25 58 25q20 0 43 -14q29 0 163 5t136 7q18 23 57 22q37 0 55 -20l312 12q23 31 63 31q43 0 70 -33l432 4q33 35 66 35q20 0 37.5 -12t17.5 -19 q59 0 59 -57q0 -32 -20 -61q-4 -35 -25 -156q43 -23 43 -61q0 -55 -65 -72q-23 -92 -84 -92q-68 0 -76 75q-152 -10 -453 -30q-31 -20 -61 -21q-25 0 -45 13q-131 -10 -330 -29q-25 -49 -80 -49q-47 0 -69 39q-104 -12 -261 -29q-23 -55 -81 -55q-47 0 -70 43 q-174 -18 -287 -29q-29 -51 -84 -51q-43 0 -65 39l-160 -15q-35 6 -74 9q-4 -43 -32.5 -71t-63.5 -28q-53 0 -70 60q-16 -2 -73 -13q-47 -10 -74 -10q-84 0 -88 100q-4 123 10 267q-72 31 -70 78zM219 279q31 -8 51 -33q47 -12 47 -8l39 221q-43 -6 -129 -13zM895 319 q100 12 262 29l47 203q-127 -10 -268 -29q-14 -66 -39 -198zM1745 403l270 25q19 117 27 168l-264 -14z" />
<glyph unicode="&#xad;" horiz-adv-x="1026" d="M66 475q-8 82 92 92q584 57 676 58q74 -1 90 -11q37 -23 37 -57q0 -27 -19.5 -51.5t-36.5 -28.5q-37 -10 -96 0q-27 4 -150 -4q-145 -10 -280 -33q-68 -14 -191 -30q-53 -6 -86.5 14t-35.5 51z" />
<glyph unicode="&#xae;" horiz-adv-x="1529" d="M106 496q-4 205 125 395q111 166 285 274q162 102 281 101q70 -2 112 -47q252 -4 385 -177q117 -151 115 -389q0 -256 -279 -475q-270 -211 -559 -211q-201 0 -321 121q-137 137 -144 408zM270 514q-4 -205 84 -307q80 -92 221 -92q227 0 455.5 189t216.5 386 q-8 154 -53 234q-55 102 -182 129q-66 12 -68 12q-35 -29 -67 -6q-23 16 -125 -21q4 -14 4 -26q0 -61 -60 -62q-72 0 -106 72q-84 -39 -178 -150q-135 -164 -142 -358zM477 406q-2 33 2 92q8 84 10 94q0 63 3 127q10 100 59 100q14 0 35 -12q59 70 170 70q152 0 151 -138 q0 -104 -149 -204q23 6 67 6q131 0 201 -33q45 -20 45 -66q0 -29 -20.5 -52t-51.5 -23q-18 0 -49.5 17t-50.5 19q-70 2 -141 3q-111 2 -117 18q0 -2 -6 -37q-8 -53 -76 -53q-78 0 -82 72zM672 653q80 57 80 84q-61 -4 -80 -84z" />
<glyph unicode="&#xaf;" horiz-adv-x="737" d="M47 1081q0 33 28.5 60.5t65.5 25.5q190 -10 232 -10q150 0 188 29q14 10 37 10q41 0 82 -27.5t41 -58.5t-47 -49q-37 -14 -179.5 -27.5t-267.5 -13.5q-70 0 -112 4q-68 8 -68 57z" />
<glyph unicode="&#xb0;" horiz-adv-x="583" d="M86 1036q0 106 90 250t154 144q45 0 55 -46q92 -20 119 -129q6 -25 6 -49q0 -113 -99.5 -207t-199.5 -94q-55 0 -90 37t-35 94zM231 1069q0 -25 21 -18q41 12 78 54t37 85q-1 12 -5 22q-12 41 -30 35q-27 -6 -64 -72.5t-37 -105.5z" />
<glyph unicode="&#xb1;" d="M139 653q0 23 11 41q20 35 356 146q2 86 -8 237q-2 59 26.5 98t67.5 39q80 0 82 -129q0 -51 2 -192q90 29 225 55q154 33 199 25q57 -8 57 -74q0 -41 -29.5 -68.5t-85.5 -19.5q-6 2 -18 2q-70 0 -344 -88q4 -254 6 -305q2 -33 -10 -66q-18 -47 -62 -47q-27 0 -57.5 18.5 t-42.5 86.5q0 154 -4 258q-240 -80 -262 -101q-12 -8 -27 -8q-31 0 -56.5 28.5t-25.5 63.5zM168 115q-27 133 385 164q121 8 256 8q258 0 297 -28.5t39 -61.5q0 -55 -58 -74q-31 -8 -86 -8q-385 0 -509 -15q-47 -4 -142 -22q-76 -14 -106 -15q-66 0 -76 52z" />
<glyph unicode="&#xb2;" horiz-adv-x="614" d="M-2 1184q0 35 29 71q47 63 130 102.5t171 39.5q121 0 194 -76q53 -55 53 -129q0 -125 -169 -348q-41 -61 -113 -158q55 16 270 53q18 4 35 4q100 0 100 -86q0 -33 -23.5 -58.5t-62.5 -25.5q-25 0 -55 15q-8 2 -102 -19q-102 -23 -162 -45q-172 -63 -211 -63 q-31 0 -52.5 24.5t-21.5 57.5q0 12 4 24q6 20 68 92q342 399 342 525q0 61 -103 61q-51 0 -100 -23.5t-69 -60.5q-27 -49 -76 -49q-31 0 -53.5 20.5t-22.5 51.5z" />
<glyph unicode="&#xb3;" horiz-adv-x="614" d="M33 1325q0 41 59 68q37 0 219 12q168 12 199 -31q10 -12 10 -31q0 -78 -188 -231q286 -53 284 -248q-4 -268 -360 -450q-23 -10 -49 -11q-45 0 -83 35t-38 70q0 41 57 41q20 0 45 -6q270 154 269 317q0 96 -264 123q-37 4 -68 28.5t-31 59.5q0 10 4 21q6 23 164 153 q-115 -10 -143 -8q-27 0 -56.5 27.5t-29.5 60.5z" />
<glyph unicode="&#xb4;" horiz-adv-x="946" d="M270 946q8 55 129 256q129 207 207 281q29 27 60 26q29 0 48 -23.5t19 -58.5q1 -32 -22 -61q-76 -98 -154 -197q-96 -127 -121 -196q2 -4 4 -15q6 -37 -32.5 -66.5t-79.5 -29.5q-72 0 -58 84z" />
<glyph unicode="&#xb5;" horiz-adv-x="860" d="M70 -211q16 379 86 916l-2 63q0 135 84 119q51 -10 86 -72q29 -49 26 -80q-4 -139 6 -299q16 -244 68 -274q27 -18 80 182q47 178 55 272q6 84 12 113q18 74 60 88q18 6 35 6q49 0 75 -47q23 -39 19 -80q-20 -324 -21 -436q0 -201 31 -231.5t31 -96.5q0 -88 -115 -82 q-94 6 -94 78q0 55 37 103q-6 14 -15 67l-8 62q-23 -92 -68.5 -149.5t-101.5 -57.5q-94 0 -172 164q-29 -268 -33 -508q-6 -338 4.5 -358.5t10.5 -45.5q0 -37 -21.5 -64.5t-56.5 -27.5q-43 0 -70.5 34t-27.5 79q0 29 10 51q-16 350 -10 512z" />
<glyph unicode="&#xb6;" horiz-adv-x="921" d="M80 555q0 154 110 297q53 72 121 129l19 111q10 80 20 157q20 117 66 125q41 6 80 -13.5t41 -60.5q4 -74 -31 -213q20 4 47 5q12 74 10 143q-4 113 80 113q39 0 71 -30t36 -79q6 -96 -48 -287q-27 -86 -65 -262q39 29 74 29q70 0 69 -74q0 -55 -55 -90q-41 -25 -123 -80 q-4 -16 -10 -57q-12 -106 -8 -256q80 6 80 -62q0 -12 -5 -24q-6 -35 -24 -60l-33 -45q-33 -57 -92 -57q-49 0 -80 63q-10 20 -6 70l6 74q-2 164 16 285q-23 -10 -71 -25q-27 -119 -13 -184q6 -23 7 -39q0 -49 -58 -82q-23 -12 -43 -13q-37 0 -58.5 35t-19.5 66q4 78 23 213 q-133 33 -133 178zM406 559q20 8 63 29q12 68 51 295q-27 -8 -65 -25q-20 -102 -49 -299z" />
<glyph unicode="&#xb7;" horiz-adv-x="423" d="M111 532q0 51 39 86q29 29 61 33q53 8 84 -29.5t31 -86.5q0 -117 -111 -117q-104 0 -104 114z" />
<glyph unicode="&#xb8;" horiz-adv-x="657" d="M152 -453q0 76 75 76q29 0 50.5 15.5t44.5 33.5q92 70 92 119q0 23 -21 39q-68 53 -82 100q-12 61 -24 123q-4 23 -4 41q0 80 120 68q49 -4 50 -47q0 -12 -4.5 -42t-4.5 -44q0 -35 19 -56q61 -70 65 -75q29 -41 29 -84q0 -31 -12 -66q-27 -76 -127 -172 q-111 -106 -191 -106q-76 0 -75 77z" />
<glyph unicode="&#xb9;" horiz-adv-x="614" d="M59 1008q0 31 11 43q20 27 170.5 178t160.5 155q25 10 43 11q52 0 60 -70q2 -16 -12 -129q-23 -160 -48 -319q-33 -238 -26 -281q10 -25 10 -49q0 -86 -76 -86q-14 0 -30 6q-74 23 -74 80q0 20 10 45q2 45 43 358q8 55 23 150q-176 -172 -197 -174q-68 -8 -68 82z" />
<glyph unicode="&#xba;" horiz-adv-x="823" d="M86 707q0 49 78 65q86 14 246 14q236 0 299 -23.5t63 -60.5q0 -55 -94 -79q-55 -14 -88 16q-35 8 -82 8q-57 0 -154 -12q-129 -14 -143 -17q-49 -4 -87 25t-38 64zM121 1071q0 70 35 137q143 272 299 283q76 6 149 -47q93 -64 113 -191q6 -29 6 -59q0 -156 -129 -274 q-121 -109 -252 -109q-55 0 -96 25q-125 80 -125 235zM281 1067q0 -100 67 -100q43 0 100.5 31.5t73.5 64.5q43 74 43 151q0 115 -98 121q-25 2 -64 -30q-61 -55 -112 -181q-10 -25 -10 -57z" />
<glyph unicode="&#xbb;" horiz-adv-x="1105" d="M33 416q0 37 22 55q43 33 148 78q80 35 157 69q-74 37 -247 97q-45 10 -45 67q0 72 65 72q18 0 41 -8q168 -59 234 -84q186 -71 196 -98q8 -18 8 -33q0 -49 -106 -96q-129 -59 -258 -119q-37 -23 -74 -45q-53 -31 -82 -31q-27 0 -43 24.5t-16 51.5zM487 430q0 37 23 55 q43 33 147 78q78 35 158 70q-74 37 -250 96q-43 10 -43 68q0 72 66 71q18 0 41 -8q135 -47 229 -86q187 -71 201 -96q8 -16 8 -31q0 -49 -82 -94q-98 -35 -285 -123q-35 -23 -71 -45q-53 -31 -82 -31q-27 0 -43.5 24.5t-16.5 51.5z" />
<glyph unicode="&#xbc;" horiz-adv-x="1609" d="M72 1008q0 31 10 43q20 27 170.5 178t161.5 155q25 10 43 11q51 0 59 -70q2 -16 -12 -129q-23 -160 -47 -319q-33 -238 -27 -281q10 -25 10 -49q0 -86 -75 -86q-14 0 -31 6q-74 23 -74 80q0 20 10 45q2 45 43 358q8 55 23 150q-176 -172 -197 -174q-68 -8 -67 82zM379 33 q0 33 24 61q0 2 27 68q262 659 447 1040q117 242 233 242q41 0 66.5 -29t25.5 -63q0 -42 -33 -56q-55 -27 -78.5 -49t-50.5 -80q-483 -975 -483 -1126q-2 -49 -31.5 -76.5t-66.5 -27.5q-39 0 -58 26q-23 43 -22 70zM756 387q0 25 22.5 46.5t73.5 70.5q109 113 166 244 q63 139 90 170q20 25 47 24q33 0 59.5 -30.5t26.5 -69.5q0 -25 -14 -47q-55 -109 -193 -310q92 14 146 21q16 123 34 237q25 96 89 97q74 0 73 -111q0 -29 -8 -63q-14 -61 -29 -160q86 -4 117 -14q74 -21 64 -76q-10 -57 -68 -51q-57 8 -133 4q-18 -113 -43 -338 q14 -37 14 -66q0 -86 -84 -86q-41 0 -72.5 29t-31.5 78q0 23 8 47q2 10 47 317q-295 -45 -313 -45q-20 0 -29 4q-59 20 -59 78z" />
<glyph unicode="&#xbd;" horiz-adv-x="1609" d="M78 1008q0 31 10 43q20 27 171 178t161 155q25 10 43 11q51 0 59 -70q2 -16 -12 -129q-23 -160 -47 -319q-33 -238 -27 -281q10 -25 10 -49q0 -86 -75 -86q-14 0 -31 6q-74 23 -74 80q0 20 10 45q2 45 43 358q8 55 23 150q-176 -172 -197 -174q-68 -8 -67 82zM379 33 q0 33 24 61q0 2 27 68q262 659 447 1040q117 242 233 242q41 0 66.5 -29t25.5 -63q0 -42 -33 -56q-55 -27 -78.5 -49t-50.5 -80q-483 -975 -483 -1126q-2 -49 -31.5 -76.5t-66.5 -27.5q-39 0 -58 26q-23 43 -22 70zM834 623q0 35 28 71q47 61 130 100.5t171 39.5 q121 0 195 -76q53 -53 53 -129q0 -123 -170 -348q-43 -59 -113 -156q54 16 271 53q18 2 35 2q98 0 98 -84q0 -33 -22.5 -58.5t-61.5 -25.5q-25 0 -55 15q-10 0 -103 -19q-104 -23 -162 -45q-172 -63 -210 -63q-33 0 -54.5 24.5t-21.5 57.5q0 12 4 24q6 20 69 92 q342 397 342 525q0 61 -102 61q-51 0 -100 -23.5t-70 -60.5q-27 -49 -76 -49q-31 0 -53 20.5t-22 51.5z" />
<glyph unicode="&#xbe;" horiz-adv-x="1609" d="M33 1325q0 41 59 68q37 0 219 12q168 12 199 -31q10 -12 10 -31q0 -78 -188 -231q286 -53 284 -248q-4 -268 -360 -450q-23 -10 -49 -11q-45 0 -83 35t-38 70q0 41 57 41q20 0 45 -6q270 154 269 317q0 96 -264 123q-37 4 -68 28.5t-31 59.5q0 10 4 21q6 23 164 153 q-115 -10 -143 -8q-27 0 -56.5 27.5t-29.5 60.5zM379 33q0 33 24 61q0 2 27 68q262 659 447 1040q117 242 233 242q41 0 66.5 -29t25.5 -63q0 -42 -33 -56q-55 -27 -78.5 -49t-50.5 -80q-483 -975 -483 -1126q-2 -49 -31.5 -76.5t-66.5 -27.5q-39 0 -58 26q-23 43 -22 70z M756 387q0 25 22.5 46.5t73.5 70.5q109 113 166 244q63 139 90 170q20 25 47 24q33 0 59.5 -30.5t26.5 -69.5q0 -25 -14 -47q-55 -109 -193 -310q92 14 146 21q16 123 34 237q25 96 89 97q74 0 73 -111q0 -29 -8 -63q-14 -61 -29 -160q86 -4 117 -14q74 -21 64 -76 q-10 -57 -68 -51q-57 8 -133 4q-18 -113 -43 -338q14 -37 14 -66q0 -86 -84 -86q-41 0 -72.5 29t-31.5 78q0 23 8 47q2 10 47 317q-295 -45 -313 -45q-20 0 -29 4q-59 20 -59 78z" />
<glyph unicode="&#xbf;" horiz-adv-x="1161" d="M45 -158q0 213 254 434q152 133 444 299q18 10 19 33q0 31 -39 88q-29 43 -57 86q-49 84 -50 144q0 49 33 78.5t76 29.5q90 0 90 -94q0 -14 -2 -31q-4 -20 33 -82q25 -41 49 -84q59 -106 55 -264q-76 -31 -149 -67q-176 -86 -309 -185q-270 -197 -271 -352q0 -35 12 -76 q18 -57 148 -57q133 0 283.5 53t185.5 125t115 72q53 -1 69 -58q16 -53 -83 -137t-251 -149q-158 -68 -333 -68q-268 0 -312 178q-10 41 -10 84zM602 1309q0 45 30 84t75 39t74.5 -31t29.5 -76q0 -113 -104 -113q-43 0 -74 27t-31 70z" />
<glyph unicode="&#xc0;" horiz-adv-x="1259" d="M51 63q-12 51 64 252q-49 23 -49 80q0 18 6 41q12 51 123 76l393 872q37 80 100 80q61 0 80 -100q6 -59 45 -236q20 -78 109 -438l239 74q33 12 60 12q80 0 79 -78q0 -37 -25.5 -65.5t-70.5 -28.5q-17 0 -33 4l-217 -63l123 -527q49 -47 49 -90q0 -45 -57 -75 q-14 -8 -33 -9q-39 0 -74.5 32t-33.5 69l-129 549q-180 -53 -299 -95q-66 -23 -203 -73q-63 -131 -72 -183q-4 -35 -12 -71.5t-39 -51.5q-20 -10 -43 -10q-57 0 -80 53zM359 1964q0 29 23.5 49t58.5 20q68 0 200 -155q150 -178 218 -211q4 2 16 2q31 2 54.5 -34t23.5 -75 q0 -66 -62 -65q-16 0 -35 6q-53 14 -229 166.5t-248 240.5q-20 29 -20 56zM385 547q242 49 379 92q-59 256 -121 448q-88 -168 -134 -263t-124 -277z" />
<glyph unicode="&#xc1;" horiz-adv-x="1259" d="M51 63q-12 51 64 252q-49 23 -49 80q0 18 6 41q12 51 123 76l393 872q37 80 100 80q61 0 80 -100q6 -59 45 -236q20 -78 109 -438l239 74q33 12 60 12q80 0 79 -78q0 -37 -25.5 -65.5t-70.5 -28.5q-17 0 -33 4l-217 -63l123 -527q49 -47 49 -90q0 -45 -57 -75 q-14 -8 -33 -9q-39 0 -74.5 32t-33.5 69l-129 549q-180 -53 -299 -95q-66 -23 -203 -73q-63 -131 -72 -183q-4 -35 -12 -71.5t-39 -51.5q-20 -10 -43 -10q-57 0 -80 53zM385 547q242 49 379 92q-59 256 -121 448q-88 -168 -134 -263t-124 -277zM516 1601q8 55 129 256 q129 207 207 281q29 27 60 26q29 0 48 -23.5t19 -58.5q1 -32 -22 -61q-76 -98 -154 -197q-96 -127 -121 -196q2 -4 4 -15q6 -37 -32.5 -66.5t-79.5 -29.5q-72 0 -58 84z" />
<glyph unicode="&#xc2;" horiz-adv-x="1259" d="M51 63q-12 51 64 252q-49 23 -49 80q0 18 6 41q12 51 123 76l393 872q37 80 100 80q61 0 80 -100q6 -59 45 -236q20 -78 109 -438l239 74q33 12 60 12q80 0 79 -78q0 -37 -25.5 -65.5t-70.5 -28.5q-17 0 -33 4l-217 -63l123 -527q49 -47 49 -90q0 -45 -57 -75 q-14 -8 -33 -9q-39 0 -74.5 32t-33.5 69l-129 549q-180 -53 -299 -95q-66 -23 -203 -73q-63 -131 -72 -183q-4 -35 -12 -71.5t-39 -51.5q-20 -10 -43 -10q-57 0 -80 53zM385 547q242 49 379 92q-59 256 -121 448q-88 -168 -134 -263t-124 -277zM412 1542q0 35 32 60 q84 70 168 139q121 96 172 84q61 -16 66 -76q8 -98 59 -135q23 -18 23 -57q0 -72 -64 -72q-10 0 -22 2q-59 14 -125 146q-4 10 -76 -44.5t-80 -76.5q-20 -61 -78 -62q-35 0 -59 39q-16 29 -16 53z" />
<glyph unicode="&#xc3;" horiz-adv-x="1259" d="M51 63q-12 51 64 252q-49 23 -49 80q0 18 6 41q12 51 123 76l393 872q37 80 100 80q61 0 80 -100q6 -59 45 -236q20 -78 109 -438l239 74q33 12 60 12q80 0 79 -78q0 -37 -25.5 -65.5t-70.5 -28.5q-17 0 -33 4l-217 -63l123 -527q49 -47 49 -90q0 -45 -57 -75 q-14 -8 -33 -9q-39 0 -74.5 32t-33.5 69l-129 549q-180 -53 -299 -95q-66 -23 -203 -73q-63 -131 -72 -183q-4 -35 -12 -71.5t-39 -51.5q-20 -10 -43 -10q-57 0 -80 53zM340 1548q0 37 25 72q43 61 129 123q115 82 215 81q121 0 166 -196q0 -4 6 -4q8 0 108.5 83t141.5 79 q80 -6 80 -88q0 -52 -35 -60q-43 -8 -51 -12q-14 -10 -86 -74q-106 -98 -199 -98q-63 0 -88 47q0 2 -22 92q-18 68 -39 70q-31 6 -99.5 -35t-101.5 -88q-41 -61 -88 -62q-61 0 -62 70zM385 547q242 49 379 92q-59 256 -121 448q-88 -168 -134 -263t-124 -277z" />
<glyph unicode="&#xc4;" horiz-adv-x="1259" d="M51 63q-12 51 64 252q-49 23 -49 80q0 18 6 41q12 51 123 76l393 872q37 80 100 80q61 0 80 -100q6 -59 45 -236q20 -78 109 -438l239 74q33 12 60 12q80 0 79 -78q0 -37 -25.5 -65.5t-70.5 -28.5q-17 0 -33 4l-217 -63l123 -527q49 -47 49 -90q0 -45 -57 -75 q-14 -8 -33 -9q-39 0 -74.5 32t-33.5 69l-129 549q-180 -53 -299 -95q-66 -23 -203 -73q-63 -131 -72 -183q-4 -35 -12 -71.5t-39 -51.5q-20 -10 -43 -10q-57 0 -80 53zM385 547q242 49 379 92q-59 256 -121 448q-88 -168 -134 -263t-124 -277zM514 1649q0 121 29 200 q25 63 68 64q18 0 41 -12q49 -27 49 -70q0 -20 -25 -88q-16 -47 -16 -127q-2 -102 -74 -103q-12 0 -25 3q-47 10 -47 133zM756 1579q0 47 29 127q20 57 41 115q18 66 71 65q39 0 61.5 -29.5t18.5 -68.5q-4 -27 -20 -62q-25 -49 -33 -71q-14 -33 -19.5 -74t-25.5 -61 q-31 -29 -60 -29q-18 0 -34 14q-29 27 -29 74z" />
<glyph unicode="&#xc5;" horiz-adv-x="1259" d="M51 63q-12 51 64 252q-49 23 -49 80q0 18 6 41q12 51 123 76l393 872q37 80 100 80q61 0 80 -100q6 -59 45 -236q20 -78 109 -438l239 74q33 12 60 12q80 0 79 -78q0 -37 -25.5 -65.5t-70.5 -28.5q-17 0 -33 4l-217 -63l123 -527q49 -47 49 -90q0 -45 -57 -75 q-14 -8 -33 -9q-39 0 -74.5 32t-33.5 69l-129 549q-180 -53 -299 -95q-66 -23 -203 -73q-63 -131 -72 -183q-4 -35 -12 -71.5t-39 -51.5q-20 -10 -43 -10q-57 0 -80 53zM385 547q242 49 379 92q-59 256 -121 448q-88 -168 -134 -263t-124 -277zM551 1680q0 70 32 141.5 t79 103.5q57 41 131 41q90 0 151 -49q39 -31 39 -90q0 -78 -73 -160q-117 -131 -220 -131q-29 0 -59 8q-80 23 -80 136zM686 1700q0 -8 6 -10q20 -4 90 46t62 62q-10 12 -35 13q-49 0 -82 -29q-8 -4 -24.5 -34.5t-16.5 -47.5z" />
<glyph unicode="&#xc6;" horiz-adv-x="1677" d="M-6 39q0 84 98 297q-6 14 -6 26q0 35 47 62l301 661q-20 29 -20 56q0 59 84 88q27 55 51 110q37 61 94 62q66 0 82 -107q121 49 365 138q203 61 260 61q102 0 102 -72q0 -33 -27 -61q-37 -43 -102 -43q-29 0 -51 12q-115 -33 -264 -92q-127 -51 -254 -104 q35 -143 106 -433q627 229 692 213q68 -16 68 -67q0 -31 -24.5 -55.5t-57.5 -24.5q-14 -2 -59 -8q-53 -10 -580 -219l109 -447q723 281 794 256q25 -8 54.5 -38.5t29.5 -55.5q0 -27 -41 -33q-203 -31 -774 -291q14 -25 14 -47q0 -45 -55 -76q-16 -8 -35 -8q-35 0 -67.5 23.5 t-40.5 56.5q-63 33 -64 86q0 31 31 55q2 4 -111 457q-209 -88 -499 -201q-66 -156 -70 -180q-4 -35 -12 -71.5t-41 -51.5q-20 -8 -43 -8q-59 0 -80 51q-4 10 -4 23zM344 512l358 131q-63 254 -106 383q-150 -279 -252 -514z" />
<glyph unicode="&#xc7;" horiz-adv-x="1492" d="M25 397q0 268 299 596q268 295 534 404q70 27 117 26q61 0 82 -47q12 -27 12 -49q0 -68 -129 -94q-256 -55 -504 -333.5t-248 -502.5q0 -106 70 -165.5t186 -59.5q180 0 496 143q211 104 424 209q82 37 117 37q53 0 80 -51q12 -23 12 -43q0 -72 -141 -100 q-18 -2 -187 -82q-117 -53 -383 -164q0 -8 -4 -35t-4 -41q0 -35 18 -55q61 -70 66 -76q29 -41 29 -84q0 -31 -13 -66q-27 -76 -127 -172q-111 -106 -188 -106q-78 0 -78 78q0 76 76 76q31 0 51.5 15t42.5 34q92 70 92 118q0 23 -20 39q-66 53 -82 99q-12 61 -23 123 q-164 -45 -284 -45q-150 0 -236 67q-154 121 -153 307z" />
<glyph unicode="&#xc8;" horiz-adv-x="1357" d="M84 88q-8 49 8 170q8 70 20.5 401.5t6.5 360.5q-2 6 -21 53q-12 37 -12 60q0 37 37 59t76 22q25 0 49 -10q539 203 579 217q199 61 256 62q102 0 103 -68q0 -41 -38 -76.5t-87 -35.5q-29 0 -55 14q-154 -43 -359 -127q-174 -74 -350 -148q4 -100 -12 -323 q518 219 575 209q70 -14 70 -66q0 -72 -84 -96q-131 -37 -307 -115q-168 -74 -265 -133q-20 -233 -14 -348q188 96 571 246q467 180 607 180q25 0 37 -4q68 -25 67 -74q0 -33 -53 -45q-465 -106 -1079 -432q-188 -98 -213 -90q-35 12 -74 65q-31 45 -39 72zM236 1923 q0 29 23.5 49t58.5 20q68 0 200 -155q150 -178 218 -211q4 2 16 2q31 2 54.5 -34t23.5 -75q0 -66 -62 -65q-16 0 -35 6q-53 14 -229 166.5t-248 240.5q-20 29 -20 56z" />
<glyph unicode="&#xc9;" horiz-adv-x="1357" d="M84 88q-8 49 8 170q8 70 20.5 401.5t6.5 360.5q-2 6 -21 53q-12 37 -12 60q0 37 37 59t76 22q25 0 49 -10q539 203 579 217q199 61 256 62q102 0 103 -68q0 -41 -38 -76.5t-87 -35.5q-29 0 -55 14q-154 -43 -359 -127q-174 -74 -350 -148q4 -100 -12 -323 q518 219 575 209q70 -14 70 -66q0 -72 -84 -96q-131 -37 -307 -115q-168 -74 -265 -133q-20 -233 -14 -348q188 96 571 246q467 180 607 180q25 0 37 -4q68 -25 67 -74q0 -33 -53 -45q-465 -106 -1079 -432q-188 -98 -213 -90q-35 12 -74 65q-31 45 -39 72zM434 1438 q8 55 129 256q129 207 207 281q29 27 60 26q29 0 48 -23.5t19 -58.5q1 -32 -22 -61q-76 -98 -154 -197q-96 -127 -121 -196q2 -4 4 -15q6 -37 -32.5 -66.5t-79.5 -29.5q-72 0 -58 84z" />
<glyph unicode="&#xca;" horiz-adv-x="1357" d="M84 88q-8 49 8 170q8 70 20.5 401.5t6.5 360.5q-2 6 -21 53q-12 37 -12 60q0 37 37 59t76 22q25 0 49 -10q539 203 579 217q199 61 256 62q102 0 103 -68q0 -41 -38 -76.5t-87 -35.5q-29 0 -55 14q-154 -43 -359 -127q-174 -74 -350 -148q4 -100 -12 -323 q518 219 575 209q70 -14 70 -66q0 -72 -84 -96q-131 -37 -307 -115q-168 -74 -265 -133q-20 -233 -14 -348q188 96 571 246q467 180 607 180q25 0 37 -4q68 -25 67 -74q0 -33 -53 -45q-465 -106 -1079 -432q-188 -98 -213 -90q-35 12 -74 65q-31 45 -39 72zM377 1587 q0 35 32 60q84 70 168 139q121 96 172 84q61 -16 66 -76q8 -98 59 -135q23 -18 23 -57q0 -72 -64 -72q-10 0 -22 2q-59 14 -125 146q-4 10 -76 -44.5t-80 -76.5q-20 -61 -78 -62q-35 0 -59 39q-16 29 -16 53z" />
<glyph unicode="&#xcb;" horiz-adv-x="1357" d="M84 88q-8 49 8 170q8 70 20.5 401.5t6.5 360.5q-2 6 -21 53q-12 37 -12 60q0 37 37 59t76 22q25 0 49 -10q539 203 579 217q199 61 256 62q102 0 103 -68q0 -41 -38 -76.5t-87 -35.5q-29 0 -55 14q-154 -43 -359 -127q-174 -74 -350 -148q4 -100 -12 -323 q518 219 575 209q70 -14 70 -66q0 -72 -84 -96q-131 -37 -307 -115q-168 -74 -265 -133q-20 -233 -14 -348q188 96 571 246q467 180 607 180q25 0 37 -4q68 -25 67 -74q0 -33 -53 -45q-465 -106 -1079 -432q-188 -98 -213 -90q-35 12 -74 65q-31 45 -39 72zM483 1645 q0 121 29 200q25 63 68 64q18 0 41 -12q49 -27 49 -70q0 -20 -25 -88q-16 -47 -16 -127q-2 -102 -74 -103q-12 0 -25 3q-47 10 -47 133zM725 1575q0 47 29 127q20 57 41 115q18 66 71 65q39 0 61.5 -29.5t18.5 -68.5q-4 -27 -20 -62q-25 -49 -33 -71q-14 -33 -19.5 -74 t-25.5 -61q-31 -29 -60 -29q-18 0 -34 14q-29 27 -29 74z" />
<glyph unicode="&#xcc;" horiz-adv-x="509" d="M-28 1885q0 29 23.5 49t58.5 20q68 0 200 -155q150 -178 218 -211q4 2 16 2q31 2 54.5 -34t23.5 -75q0 -66 -62 -65q-16 0 -35 6q-53 14 -229 166.5t-248 240.5q-20 29 -20 56zM172 213q0 264 21 618q20 385 47 494q23 86 84 86q23 0 49 -10q39 -16 39 -133q0 -41 -4 -90 q-25 -188 -62 -568q-20 -252 -12 -452q37 -57 37 -103q0 -86 -92 -86q-72 0 -97 58q-10 23 -10 186z" />
<glyph unicode="&#xcd;" horiz-adv-x="509" d="M96 1513q8 55 129 256q129 207 207 281q29 27 60 26q29 0 48 -23.5t19 -58.5q1 -32 -22 -61q-76 -98 -154 -197q-96 -127 -121 -196q2 -4 4 -15q6 -37 -32.5 -66.5t-79.5 -29.5q-72 0 -58 84zM172 213q0 264 21 618q20 385 47 494q23 86 84 86q23 0 49 -10 q39 -16 39 -133q0 -41 -4 -90q-25 -188 -62 -568q-20 -252 -12 -452q37 -57 37 -103q0 -86 -92 -86q-72 0 -97 58q-10 23 -10 186z" />
<glyph unicode="&#xce;" horiz-adv-x="509" d="M39 1527q0 35 32 60q84 70 168 139q121 96 172 84q61 -16 66 -76q8 -98 59 -135q23 -18 23 -57q0 -72 -64 -72q-10 0 -22 2q-59 14 -125 146q-4 10 -76 -44.5t-80 -76.5q-20 -61 -78 -62q-35 0 -59 39q-16 29 -16 53zM172 213q0 264 21 618q20 385 47 494q23 86 84 86 q23 0 49 -10q39 -16 39 -133q0 -41 -4 -90q-25 -188 -62 -568q-20 -252 -12 -452q37 -57 37 -103q0 -86 -92 -86q-72 0 -97 58q-10 23 -10 186z" />
<glyph unicode="&#xcf;" horiz-adv-x="509" d="M129 1639q0 121 29 200q25 63 68 64q18 0 41 -12q49 -27 49 -70q0 -20 -25 -88q-16 -47 -16 -127q-2 -102 -74 -103q-12 0 -25 3q-47 10 -47 133zM172 213q0 264 21 618q20 385 47 494q23 86 84 86q23 0 49 -10q39 -16 39 -133q0 -41 -4 -90q-25 -188 -62 -568 q-20 -252 -12 -452q37 -57 37 -103q0 -86 -92 -86q-72 0 -97 58q-10 23 -10 186zM371 1569q0 47 29 127q20 57 41 115q18 66 71 65q39 0 61.5 -29.5t18.5 -68.5q-4 -27 -20 -62q-25 -49 -33 -71q-14 -33 -19.5 -74t-25.5 -61q-31 -29 -60 -29q-18 0 -34 14q-29 27 -29 74z " />
<glyph unicode="&#xd0;" horiz-adv-x="1357" d="M-51 627q0 35 43 78q14 14 90 28q51 10 100 19q8 168 29 462l-109 -38q-39 -6 -76.5 26.5t-37.5 73.5q0 39 39 63q57 35 194 65t271 32q342 8 612 -133q285 -148 287 -361q2 -240 -385 -543q-172 -137 -609 -399q2 -43 -30.5 -70.5t-73.5 -27.5q-27 0 -45 16l-2 2 q-63 -6 -64 96q0 18 17 84q-23 287 -23 484q-78 -25 -137 -27q-25 -2 -53 14q-37 23 -37 56zM342 565q-6 -176 27 -385q281 156 499 324q344 264 344 428q0 139 -221 248q-207 100 -438 98q-100 0 -152 -12q-31 -250 -45 -463q53 16 78 33q0 4 6 14q18 31 70 31 q41 0 76 -21.5t35 -52.5t-35 -62q-39 -37 -240 -108q-2 -35 -4 -72z" />
<glyph unicode="&#xd1;" horiz-adv-x="1253" d="M100 45q0 160 19 449q18 260 31 331q4 29 14 287q10 223 29 250q33 49 83 49q45 0 70 -43q49 -76 109.5 -257t117.5 -282q109 -182 144 -237q111 -162 198 -219q-10 575 0 729q4 63 0 137q-4 47 -6 96q-4 109 90 109q47 0 73 -80t26 -199q-2 -74 -10.5 -193.5 t-8.5 -144.5q0 -33 -6 -115.5t-6 -146.5q0 -121 18 -268q27 -25 27 -70q0 -37 -20 -71q2 -59 -11 -95q-20 -63 -80 -55q-96 12 -79 160q-51 33 -88 55q-96 57 -353 459q-68 109 -147 276q-88 -633 -88 -770q0 -27 4 -30q25 -29 24 -103q0 -66 -22 -110q-25 -53 -72 -54 q-31 0 -67 25q-12 8 -13 131zM249 1585q0 37 25 72q43 61 129 123q115 82 215 81q121 0 166 -196q0 -4 6 -4q8 0 108.5 83t141.5 79q80 -6 80 -88q0 -52 -35 -60q-43 -8 -51 -12q-14 -10 -86 -74q-106 -98 -199 -98q-63 0 -88 47q0 2 -22 92q-18 68 -39 70q-31 6 -99.5 -35 t-101.5 -88q-41 -61 -88 -62q-61 0 -62 70z" />
<glyph unicode="&#xd2;" horiz-adv-x="1425" d="M27 385q0 193 114 424q109 219 267 371q164 160 294 161q150 4 213 -67q543 -106 525 -483q-8 -141 -176 -333t-396 -323q-250 -145 -452 -145q-98 0 -176 37q-213 98 -213 358zM207 403q0 -158 86 -204q66 -35 149 -35q162 0 363 119q182 106 319.5 259t139.5 255 q8 203 -236 278q-133 43 -287 37q-33 -20 -63 -41q-37 -23 -66 -22q-35 0 -67 34q-156 -133 -250 -335q-88 -184 -88 -345zM463 1868q0 29 23.5 49t58.5 20q68 0 200 -155q150 -178 218 -211q4 2 16 2q31 2 54.5 -34t23.5 -75q0 -66 -62 -65q-16 0 -35 6q-53 14 -229 166.5 t-248 240.5q-20 29 -20 56z" />
<glyph unicode="&#xd3;" horiz-adv-x="1425" d="M27 385q0 193 114 424q109 219 267 371q164 160 294 161q150 4 213 -67q543 -106 525 -483q-8 -141 -176 -333t-396 -323q-250 -145 -452 -145q-98 0 -176 37q-213 98 -213 358zM207 403q0 -158 86 -204q66 -35 149 -35q162 0 363 119q182 106 319.5 259t139.5 255 q8 203 -236 278q-133 43 -287 37q-33 -20 -63 -41q-37 -23 -66 -22q-35 0 -67 34q-156 -133 -250 -335q-88 -184 -88 -345zM743 1503q8 55 129 256q129 207 207 281q29 27 60 26q29 0 48 -23.5t19 -58.5q1 -32 -22 -61q-76 -98 -154 -197q-96 -127 -121 -196q2 -4 4 -15 q6 -37 -32.5 -66.5t-79.5 -29.5q-72 0 -58 84z" />
<glyph unicode="&#xd4;" horiz-adv-x="1425" d="M27 385q0 193 114 424q109 219 267 371q164 160 294 161q150 4 213 -67q543 -106 525 -483q-8 -141 -176 -333t-396 -323q-250 -145 -452 -145q-98 0 -176 37q-213 98 -213 358zM207 403q0 -158 86 -204q66 -35 149 -35q162 0 363 119q182 106 319.5 259t139.5 255 q8 203 -236 278q-133 43 -287 37q-33 -20 -63 -41q-37 -23 -66 -22q-35 0 -67 34q-156 -133 -250 -335q-88 -184 -88 -345zM517 1538q0 35 32 60q84 70 168 139q121 96 172 84q61 -16 66 -76q8 -98 59 -135q23 -18 23 -57q0 -72 -64 -72q-10 0 -22 2q-59 14 -125 146 q-4 10 -76 -44.5t-80 -76.5q-20 -61 -78 -62q-35 0 -59 39q-16 29 -16 53z" />
<glyph unicode="&#xd5;" horiz-adv-x="1425" d="M27 385q0 193 114 424q109 219 267 371q164 160 294 161q150 4 213 -67q543 -106 525 -483q-8 -141 -176 -333t-396 -323q-250 -145 -452 -145q-98 0 -176 37q-213 98 -213 358zM207 403q0 -158 86 -204q66 -35 149 -35q162 0 363 119q182 106 319.5 259t139.5 255 q8 203 -236 278q-133 43 -287 37q-33 -20 -63 -41q-37 -23 -66 -22q-35 0 -67 34q-156 -133 -250 -335q-88 -184 -88 -345zM413 1507q0 37 25 72q43 61 129 123q115 82 215 81q121 0 166 -196q0 -4 6 -4q8 0 108.5 83t141.5 79q80 -6 80 -88q0 -52 -35 -60q-43 -8 -51 -12 q-14 -10 -86 -74q-106 -98 -199 -98q-63 0 -88 47q0 2 -22 92q-18 68 -39 70q-31 6 -99.5 -35t-101.5 -88q-41 -61 -88 -62q-61 0 -62 70z" />
<glyph unicode="&#xd6;" horiz-adv-x="1425" d="M27 385q0 193 114 424q109 219 267 371q164 160 294 161q150 4 213 -67q543 -106 525 -483q-8 -141 -176 -333t-396 -323q-250 -145 -452 -145q-98 0 -176 37q-213 98 -213 358zM207 403q0 -158 86 -204q66 -35 149 -35q162 0 363 119q182 106 319.5 259t139.5 255 q8 203 -236 278q-133 43 -287 37q-33 -20 -63 -41q-37 -23 -66 -22q-35 0 -67 34q-156 -133 -250 -335q-88 -184 -88 -345zM669 1610q0 121 29 200q25 63 68 64q18 0 41 -12q49 -27 49 -70q0 -20 -25 -88q-16 -47 -16 -127q-2 -102 -74 -103q-12 0 -25 3q-47 10 -47 133z M911 1540q0 47 29 127q20 57 41 115q18 66 71 65q39 0 61.5 -29.5t18.5 -68.5q-4 -27 -20 -62q-25 -49 -33 -71q-14 -33 -19.5 -74t-25.5 -61q-31 -29 -60 -29q-18 0 -34 14q-29 27 -29 74z" />
<glyph unicode="&#xd7;" d="M326 41q0 49 41 70q10 6 215 295q-80 121 -183 274q-23 33 -22 57q0 57 86 58q49 0 123 -99q10 -14 94 -151q168 233 199 239q18 4 32 4q84 0 76 -71q-2 -18 -94 -144q-78 -109 -125 -165q76 -123 166 -263q67 -83 63 -108q-8 -55 -96 -55q-94 0 -117 102q-2 12 -114 186 l-103 -141q-2 -4 -21.5 -18.5t-17.5 -26.5q8 -33 -10 -70q-31 -55 -115 -51q-78 4 -77 78z" />
<glyph unicode="&#xd8;" horiz-adv-x="1425" d="M27 381q0 197 112 428q106 219 267 375.5t296 158.5q150 4 213 -67q39 -8 76 -16q119 150 185 149q45 0 71 -59q14 -33 -76 -152q283 -131 269 -410q-6 -141 -175 -334.5t-399 -324.5q-250 -145 -452 -145q-41 0 -78 6q-14 -35 -12 -49q6 -53 -25 -84t-76 -31 q-96 0 -96 96q0 43 47 133q-147 106 -147 326zM201 393q0 -125 57 -180q37 61 104 162q270 411 512 733q-72 8 -133 6q-33 -20 -67.5 -41.5t-61.5 -21.5q-35 0 -69 32q-156 -135 -252 -340q-90 -190 -90 -350zM428 158q143 -4 348 106q197 106 338 262q152 166 152 305 q0 156 -201 234q-375 -467 -637 -907z" />
<glyph unicode="&#xd9;" horiz-adv-x="1351" d="M100 784q-4 289 4 433q2 57 35 93t90 31q51 -4 67.5 -33.5t12.5 -97.5q-10 -119 -22 -520q-2 -186 74.5 -364.5t158.5 -169.5q207 20 379 262q133 186 225 471q76 227 80 348q2 14 -2 52t-4 59q0 102 78 104q123 4 123 -98q0 -18 -4 -41q-76 -461 -256 -811 q-268 -522 -668 -514q-156 2 -266 270q-100 240 -105 526zM449 1846q0 29 23.5 49t58.5 20q68 0 200 -155q150 -178 218 -211q4 2 16 2q31 2 54.5 -34t23.5 -75q0 -66 -62 -65q-16 0 -35 6q-53 14 -229 166.5t-248 240.5q-20 29 -20 56z" />
<glyph unicode="&#xda;" horiz-adv-x="1351" d="M100 784q-4 289 4 433q2 57 35 93t90 31q51 -4 67.5 -33.5t12.5 -97.5q-10 -119 -22 -520q-2 -186 74.5 -364.5t158.5 -169.5q207 20 379 262q133 186 225 471q76 227 80 348q2 14 -2 52t-4 59q0 102 78 104q123 4 123 -98q0 -18 -4 -41q-76 -461 -256 -811 q-268 -522 -668 -514q-156 2 -266 270q-100 240 -105 526zM596 1530q8 55 129 256q129 207 207 281q29 27 60 26q29 0 48 -23.5t19 -58.5q1 -32 -22 -61q-76 -98 -154 -197q-96 -127 -121 -196q2 -4 4 -15q6 -37 -32.5 -66.5t-79.5 -29.5q-72 0 -58 84z" />
<glyph unicode="&#xdb;" horiz-adv-x="1351" d="M100 784q-4 289 4 433q2 57 35 93t90 31q51 -4 67.5 -33.5t12.5 -97.5q-10 -119 -22 -520q-2 -186 74.5 -364.5t158.5 -169.5q207 20 379 262q133 186 225 471q76 227 80 348q2 14 -2 52t-4 59q0 102 78 104q123 4 123 -98q0 -18 -4 -41q-76 -461 -256 -811 q-268 -522 -668 -514q-156 2 -266 270q-100 240 -105 526zM519 1568q0 35 32 60q84 70 168 139q121 96 172 84q61 -16 66 -76q8 -98 59 -135q23 -18 23 -57q0 -72 -64 -72q-10 0 -22 2q-59 14 -125 146q-4 10 -76 -44.5t-80 -76.5q-20 -61 -78 -62q-35 0 -59 39 q-16 29 -16 53z" />
<glyph unicode="&#xdc;" horiz-adv-x="1351" d="M100 784q-4 289 4 433q2 57 35 93t90 31q51 -4 67.5 -33.5t12.5 -97.5q-10 -119 -22 -520q-2 -186 74.5 -364.5t158.5 -169.5q207 20 379 262q133 186 225 471q76 227 80 348q2 14 -2 52t-4 59q0 102 78 104q123 4 123 -98q0 -18 -4 -41q-76 -461 -256 -811 q-268 -522 -668 -514q-156 2 -266 270q-100 240 -105 526zM579 1600q0 121 29 200q25 63 68 64q18 0 41 -12q49 -27 49 -70q0 -20 -25 -88q-16 -47 -16 -127q-2 -102 -74 -103q-12 0 -25 3q-47 10 -47 133zM821 1530q0 47 29 127q20 57 41 115q18 66 71 65q39 0 61.5 -29.5 t18.5 -68.5q-4 -27 -20 -62q-25 -49 -33 -71q-14 -33 -19.5 -74t-25.5 -61q-31 -29 -60 -29q-18 0 -34 14q-29 27 -29 74z" />
<glyph unicode="&#xdd;" horiz-adv-x="1087" d="M49 1257q2 76 80 76q49 0 102.5 -30.5t80 -76.5t137.5 -327q381 295 526 494q47 61 94 61q33 0 63.5 -28.5t30.5 -59.5t-30 -55q-6 -6 -50 -33q-45 -90 -518 -506q4 -47 4 -115q0 -55 -4 -179t-4 -185q0 -170 31 -248q18 -49 18 -76q0 -43 -41 -69q-25 -16 -53 -17 q-47 0 -80 40t-24 95q4 16 -7.5 106.5t-29.5 520.5q-39 25 -49 43q-2 6 -19 62q-100 373 -192 426q-43 27 -47 28q-18 18 -19 53zM450 1276q8 55 129 256q129 207 207 281q29 27 60 26q29 0 48 -23.5t19 -58.5q1 -32 -22 -61q-76 -98 -154 -197q-96 -127 -121 -196 q2 -4 4 -15q6 -37 -32.5 -66.5t-79.5 -29.5q-72 0 -58 84z" />
<glyph unicode="&#xde;" horiz-adv-x="1167" d="M121 68q8 37 14 317q-23 55 0 92q33 356 33 631q0 125 -6 242q-8 150 2 161q31 45 92 45q51 0 82 -43q6 -12 8 -301q14 -2 150 13q319 33 473 32q254 0 303 -63q29 -37 28 -80q0 -168 -438 -420q-254 -145 -553 -268q-18 -197 -2 -262q6 -29 6 -55q0 -57 -30.5 -89 t-73.5 -32q-82 0 -88 80zM328 618q229 90 446 209q316 173 318 265q0 16 -82 16q-170 0 -498 -47q-49 -8 -158 -21q-10 -152 -26 -422z" />
<glyph unicode="&#xdf;" horiz-adv-x="1019" d="M2 1094q0 61 59 96l33 20q6 41 37 68t66 27q37 0 59 -35q334 100 532 100q78 0 119 -14q55 -20 56 -80q0 -94 -97 -193q-61 -63 -223 -213q-121 -104 -121 -194q0 -92 133 -137q156 -53 219 -90q96 -55 97 -152q0 -111 -117 -252q-98 -119 -199 -176q-225 -133 -340 -133 q-25 0 -41 6q4 -63 22.5 -134t18.5 -100q0 -25 -8 -51q-12 -41 -76 -41q-51 0 -86 37q-41 43 -41 127q0 29 5 62q-8 309 -19 964q-2 229 6 406q-43 -6 -68.5 19.5t-25.5 62.5zM252 592q2 -193 16 -705q29 27 68 32t125 22q106 33 213 139q121 117 121 219q0 12 -3.5 26.5 t-107.5 45.5q-129 39 -195 82q-109 70 -120 180q-16 135 98 276q59 74 223 213q35 31 86 70q31 20 31 27q0 12 -33 12q-86 0 -278 -53q-199 -53 -226 -91q-23 -49 -18 -495z" />
<glyph unicode="&#xe0;" horiz-adv-x="761" d="M63 147q0 111 85 217.5t184 116.5q115 12 182 -121q8 49 8 93q0 109 -53 211q-37 68 -107 67q-37 0 -72.5 -18.5t-37.5 -28.5q-4 -35 -47 -35q-78 0 -82 70q-6 68 80 119q80 45 178 45q70 0 117 -27q186 -111 186 -399q0 -133 -39 -285q-28 -113 -53 -158 q-14 -18 -41 -18q-55 0 -76 49q-135 -78 -237 -78q-78 0 -126.5 50.5t-48.5 129.5zM139 1393q0 29 23.5 49t58.5 20q68 0 200 -155q150 -178 218 -211q4 2 16 2q31 2 54.5 -34t23.5 -75q0 -66 -62 -65q-16 0 -35 6q-53 14 -229 166.5t-248 240.5q-20 29 -20 56zM211 152 q0 -39 37 -39q63 0 182 88q-47 127 -82 121q-57 -10 -97 -60.5t-40 -109.5z" />
<glyph unicode="&#xe1;" horiz-adv-x="761" d="M63 147q0 111 85 217.5t184 116.5q115 12 182 -121q8 49 8 93q0 109 -53 211q-37 68 -107 67q-37 0 -72.5 -18.5t-37.5 -28.5q-4 -35 -47 -35q-78 0 -82 70q-6 68 80 119q80 45 178 45q70 0 117 -27q186 -111 186 -399q0 -133 -39 -285q-28 -113 -53 -158 q-14 -18 -41 -18q-55 0 -76 49q-135 -78 -237 -78q-78 0 -126.5 50.5t-48.5 129.5zM211 152q0 -39 37 -39q63 0 182 88q-47 127 -82 121q-57 -10 -97 -60.5t-40 -109.5zM331 1028q8 55 129 256q129 207 207 281q29 27 60 26q29 0 48 -23.5t19 -58.5q1 -32 -22 -61 q-76 -98 -154 -197q-96 -127 -121 -196q2 -4 4 -15q6 -37 -32.5 -66.5t-79.5 -29.5q-72 0 -58 84z" />
<glyph unicode="&#xe2;" horiz-adv-x="761" d="M63 147q0 111 85 217.5t184 116.5q115 12 182 -121q8 49 8 93q0 109 -53 211q-37 68 -107 67q-37 0 -72.5 -18.5t-37.5 -28.5q-4 -35 -47 -35q-78 0 -82 70q-6 68 80 119q80 45 178 45q70 0 117 -27q186 -111 186 -399q0 -133 -39 -285q-28 -113 -53 -158 q-14 -18 -41 -18q-55 0 -76 49q-135 -78 -237 -78q-78 0 -126.5 50.5t-48.5 129.5zM193 1128q0 35 32 60q84 70 168 139q121 96 172 84q61 -16 66 -76q8 -98 59 -135q23 -18 23 -57q0 -72 -64 -72q-10 0 -22 2q-59 14 -125 146q-4 10 -76 -44.5t-80 -76.5q-20 -61 -78 -62 q-35 0 -59 39q-16 29 -16 53zM211 152q0 -39 37 -39q63 0 182 88q-47 127 -82 121q-57 -10 -97 -60.5t-40 -109.5z" />
<glyph unicode="&#xe3;" horiz-adv-x="755" d="M45 1110q0 37 25 72q43 61 129 123q115 82 215 81q121 0 166 -196q0 -4 6 -4q8 0 108.5 83t141.5 79q80 -6 80 -88q0 -52 -35 -60q-43 -8 -51 -12q-14 -10 -86 -74q-106 -98 -199 -98q-63 0 -88 47q0 2 -22 92q-18 68 -39 70q-31 6 -99.5 -35t-101.5 -88q-41 -61 -88 -62 q-61 0 -62 70zM63 147q0 111 85 217.5t184 116.5q115 12 182 -121q8 49 8 93q0 109 -53 211q-37 68 -107 67q-37 0 -72.5 -18.5t-37.5 -28.5q-4 -35 -47 -35q-78 0 -82 70q-6 68 80 119q80 45 178 45q70 0 117 -27q186 -111 186 -399q0 -133 -39 -285q-28 -113 -53 -158 q-14 -18 -41 -18q-55 0 -76 49q-135 -78 -237 -78q-78 0 -126.5 50.5t-48.5 129.5zM211 152q0 -39 37 -39q63 0 182 88q-47 127 -82 121q-57 -10 -97 -60.5t-40 -109.5z" />
<glyph unicode="&#xe4;" horiz-adv-x="761" d="M63 147q0 111 85 217.5t184 116.5q115 12 182 -121q8 49 8 93q0 109 -53 211q-37 68 -107 67q-37 0 -72.5 -18.5t-37.5 -28.5q-4 -35 -47 -35q-78 0 -82 70q-6 68 80 119q80 45 178 45q70 0 117 -27q186 -111 186 -399q0 -133 -39 -285q-28 -113 -53 -158 q-14 -18 -41 -18q-55 0 -76 49q-135 -78 -237 -78q-78 0 -126.5 50.5t-48.5 129.5zM211 152q0 -39 37 -39q63 0 182 88q-47 127 -82 121q-57 -10 -97 -60.5t-40 -109.5zM248 1137q0 121 29 200q25 63 68 64q18 0 41 -12q49 -27 49 -70q0 -20 -25 -88q-16 -47 -16 -127 q-2 -102 -74 -103q-12 0 -25 3q-47 10 -47 133zM490 1067q0 47 29 127q20 57 41 115q18 66 71 65q39 0 61.5 -29.5t18.5 -68.5q-4 -27 -20 -62q-25 -49 -33 -71q-14 -33 -19.5 -74t-25.5 -61q-31 -29 -60 -29q-18 0 -34 14q-29 27 -29 74z" />
<glyph unicode="&#xe5;" horiz-adv-x="761" d="M63 147q0 111 85 217.5t184 116.5q115 12 182 -121q8 49 8 93q0 109 -53 211q-37 68 -107 67q-37 0 -72.5 -18.5t-37.5 -28.5q-4 -35 -47 -35q-78 0 -82 70q-6 68 80 119q80 45 178 45q70 0 117 -27q186 -111 186 -399q0 -133 -39 -285q-28 -113 -53 -158 q-14 -18 -41 -18q-55 0 -76 49q-135 -78 -237 -78q-78 0 -126.5 50.5t-48.5 129.5zM211 152q0 -39 37 -39q63 0 182 88q-47 127 -82 121q-57 -10 -97 -60.5t-40 -109.5zM280 1137q0 70 32 141.5t79 103.5q57 41 131 41q90 0 151 -49q39 -31 39 -90q0 -78 -73 -160 q-117 -131 -220 -131q-29 0 -59 8q-80 23 -80 136zM415 1157q0 -8 6 -10q20 -4 90 46t62 62q-10 12 -35 13q-49 0 -82 -29q-8 -4 -24.5 -34.5t-16.5 -47.5z" />
<glyph unicode="&#xe6;" horiz-adv-x="1499" d="M63 147q0 111 85 217.5t184 116.5q115 12 182 -121q8 49 8 93q0 109 -53 211q-37 68 -107 67q-37 0 -72.5 -18.5t-37.5 -28.5q-4 -35 -47 -35q-78 0 -82 70q-6 68 80 119q80 45 178 45q100 0 178 -72q63 -61 96 -154q84 92 209 145.5t248 53.5q129 0 221 -57q4 -2 4 -11 q0 -47 -69 -131q-86 -104 -221 -165q-96 -43 -195 -62q-70 -10 -137 -18q-12 -84 39 -172q57 -96 141 -93q90 2 264 119q143 94 178 135q47 84 90 84q21 0 46 -16q41 -29 40 -72q0 -59 -57 -98q-4 -2 -90 -70q-315 -240 -498 -239q-131 0 -235 135q-25 -80 -41 -111 q-14 -18 -41 -18q-55 0 -76 49q-135 -78 -237 -78q-78 0 -126.5 50.5t-48.5 129.5zM211 152q0 -39 37 -39q63 0 182 88q-47 127 -82 121q-57 -10 -97 -60.5t-40 -109.5zM780 561q61 10 187 49q94 44 143 95q-80 4 -184 -43q-74 -33 -146 -101z" />
<glyph unicode="&#xe7;" horiz-adv-x="1044" d="M18 227q0 172 181 383q170 201 305 221q27 4 47 5q96 0 96 -68q0 -43 -39 -87t-82 -44q-10 0 -37 4q-20 4 -30 0q-76 -20 -172 -156q-98 -141 -99 -239q0 -104 119 -105q125 0 369 117q166 92 346 193q14 4 29 4q33 0 54 -28.5t15 -59.5q-16 -23 -176 -123 q-203 -125 -377 -191q-12 -92 11 -119q61 -70 65 -75q31 -41 31 -84q0 -29 -15 -66q-27 -74 -127 -170q-111 -106 -188 -106q-78 0 -78 75q0 78 76 78q31 0 51.5 15.5t42.5 31.5q92 72 92 121q0 23 -20 39q-66 51 -80 96q-12 59 -22 119q-61 -12 -113 -12q-154 0 -232 98 q-43 55 -43 133z" />
<glyph unicode="&#xe8;" horiz-adv-x="995" d="M35 385q0 201 192 342q174 129 381 129q117 0 199 -47q18 -10 18 -33q0 -55 -94 -149.5t-190 -134.5q-111 -45 -334 -80q-12 -84 41 -172q57 -96 141 -93q88 2 264 119q143 94 178 135q47 84 91 84q20 0 45 -16q41 -29 41 -72q0 -59 -60 -98q-2 -2 -90 -70 q-313 -240 -496 -239q-133 0 -233 133q-94 123 -94 262zM242 1393q0 29 23.5 49t58.5 20q68 0 200 -155q150 -178 218 -211q4 2 16 2q31 2 54.5 -34t23.5 -75q0 -66 -62 -65q-16 0 -35 6q-53 14 -229 166.5t-248 240.5q-20 29 -20 56zM274 561q61 10 187 49q92 44 143 95 q-80 4 -184 -43q-74 -33 -146 -101z" />
<glyph unicode="&#xe9;" horiz-adv-x="995" d="M35 385q0 201 192 342q174 129 381 129q117 0 199 -47q18 -10 18 -33q0 -55 -94 -149.5t-190 -134.5q-111 -45 -334 -80q-12 -84 41 -172q57 -96 141 -93q88 2 264 119q143 94 178 135q47 84 91 84q20 0 45 -16q41 -29 41 -72q0 -59 -60 -98q-2 -2 -90 -70 q-313 -240 -496 -239q-133 0 -233 133q-94 123 -94 262zM274 561q61 10 187 49q92 44 143 95q-80 4 -184 -43q-74 -33 -146 -101zM331 946q8 55 129 256q129 207 207 281q29 27 60 26q29 0 48 -23.5t19 -58.5q1 -32 -22 -61q-76 -98 -154 -197q-96 -127 -121 -196 q2 -4 4 -15q6 -37 -32.5 -66.5t-79.5 -29.5q-72 0 -58 84z" />
<glyph unicode="&#xea;" horiz-adv-x="995" d="M35 385q0 201 192 342q174 129 381 129q117 0 199 -47q18 -10 18 -33q0 -55 -94 -149.5t-190 -134.5q-111 -45 -334 -80q-12 -84 41 -172q57 -96 141 -93q88 2 264 119q143 94 178 135q47 84 91 84q20 0 45 -16q41 -29 41 -72q0 -59 -60 -98q-2 -2 -90 -70 q-313 -240 -496 -239q-133 0 -233 133q-94 123 -94 262zM274 561q61 10 187 49q92 44 143 95q-80 4 -184 -43q-74 -33 -146 -101zM316 1128q0 35 32 60q84 70 168 139q121 96 172 84q61 -16 66 -76q8 -98 59 -135q23 -18 23 -57q0 -72 -64 -72q-10 0 -22 2q-59 14 -125 146 q-4 10 -76 -44.5t-80 -76.5q-20 -61 -78 -62q-35 0 -59 39q-16 29 -16 53z" />
<glyph unicode="&#xeb;" horiz-adv-x="995" d="M35 385q0 201 192 342q174 129 381 129q117 0 199 -47q18 -10 18 -33q0 -55 -94 -149.5t-190 -134.5q-111 -45 -334 -80q-12 -84 41 -172q57 -96 141 -93q88 2 264 119q143 94 178 135q47 84 91 84q20 0 45 -16q41 -29 41 -72q0 -59 -60 -98q-2 -2 -90 -70 q-313 -240 -496 -239q-133 0 -233 133q-94 123 -94 262zM274 561q61 10 187 49q92 44 143 95q-80 4 -184 -43q-74 -33 -146 -101zM370 1137q0 121 29 200q25 63 68 64q18 0 41 -12q49 -27 49 -70q0 -20 -25 -88q-16 -47 -16 -127q-2 -102 -74 -103q-12 0 -25 3 q-47 10 -47 133zM612 1067q0 47 29 127q20 57 41 115q18 66 71 65q39 0 61.5 -29.5t18.5 -68.5q-4 -27 -20 -62q-25 -49 -33 -71q-14 -33 -19.5 -74t-25.5 -61q-31 -29 -60 -29q-18 0 -34 14q-29 27 -29 74z" />
<glyph unicode="&#xec;" horiz-adv-x="509" d="M2 1393q0 29 23.5 49t58.5 20q68 0 200 -155q150 -178 218 -211q4 2 16 2q31 2 54.5 -34t23.5 -75q0 -66 -62 -65q-16 0 -35 6q-53 14 -229 166.5t-248 240.5q-20 29 -20 56zM162 223q6 113 18 389q4 131 6 148q16 100 74 104q43 2 73.5 -34t26.5 -85q-20 -201 -45 -477 q-2 -57 21 -131q4 -14 4 -31q0 -39 -26.5 -68.5t-61.5 -29.5q-33 0 -57 27q-35 37 -33 188z" />
<glyph unicode="&#xed;" horiz-adv-x="509" d="M75 946q8 55 129 256q129 207 207 281q29 27 60 26q29 0 48 -23.5t19 -58.5q1 -32 -22 -61q-76 -98 -154 -197q-96 -127 -121 -196q2 -4 4 -15q6 -37 -32.5 -66.5t-79.5 -29.5q-72 0 -58 84zM162 223q6 113 18 389q4 131 6 148q16 100 74 104q43 2 73.5 -34t26.5 -85 q-20 -201 -45 -477q-2 -57 21 -131q4 -14 4 -31q0 -39 -26.5 -68.5t-61.5 -29.5q-33 0 -57 27q-35 37 -33 188z" />
<glyph unicode="&#xee;" horiz-adv-x="509" d="M19 1128q0 35 32 60q84 70 168 139q121 96 172 84q61 -16 66 -76q8 -98 59 -135q23 -18 23 -57q0 -72 -64 -72q-10 0 -22 2q-59 14 -125 146q-4 10 -76 -44.5t-80 -76.5q-20 -61 -78 -62q-35 0 -59 39q-16 29 -16 53zM162 223q6 113 18 389q4 131 6 148q16 100 74 104 q43 2 73.5 -34t26.5 -85q-20 -201 -45 -477q-2 -57 21 -131q4 -14 4 -31q0 -39 -26.5 -68.5t-61.5 -29.5q-33 0 -57 27q-35 37 -33 188z" />
<glyph unicode="&#xef;" horiz-adv-x="509" d="M104 1157q0 121 29 200q25 63 68 64q18 0 41 -12q49 -27 49 -70q0 -20 -25 -88q-16 -47 -16 -127q-2 -102 -74 -103q-12 0 -25 3q-47 10 -47 133zM162 223q6 113 18 389q4 131 6 148q16 100 74 104q43 2 73.5 -34t26.5 -85q-20 -201 -45 -477q-2 -57 21 -131q4 -14 4 -31 q0 -39 -26.5 -68.5t-61.5 -29.5q-33 0 -57 27q-35 37 -33 188zM346 1087q0 47 29 127q20 57 41 115q18 66 71 65q39 0 61.5 -29.5t18.5 -68.5q-4 -27 -20 -62q-25 -49 -33 -71q-14 -33 -19.5 -74t-25.5 -61q-31 -29 -60 -29q-18 0 -34 14q-29 27 -29 74z" />
<glyph unicode="&#xf0;" horiz-adv-x="970" d="M12 129q0 98 76 219q63 104 154 182q193 162 483 195q27 80 27 180q0 98 -27 166q-154 -53 -248 -61q-84 -8 -84 65q0 80 70 99q51 10 151 32q-68 47 -137 47q-139 0 -233 -79q-12 -10 -35 -11q-37 0 -72 22.5t-35 53.5q0 76 146 127q119 41 205 39q213 -4 338 -150 q49 16 73 31q2 6 6 17q20 31 70 30q41 0 75 -21.5t34 -54.5q0 -28 -35 -61q-23 -20 -142 -74q41 -102 41 -221q0 -94 -26 -186q127 -37 127 -127q0 -37 -24.5 -64.5t-57.5 -27.5q-47 0 -88 57q-2 4 -10 10q-94 -199 -248 -375q-72 -82 -185 -153q-133 -82 -229 -82 q-68 0 -109 43q-51 53 -51 133zM174 152q0 -45 35 -46q43 0 139 76q86 68 127 123q65 78 180 246q-197 -39 -336 -164q-53 -49 -96 -115q-49 -74 -49 -120z" />
<glyph unicode="&#xf1;" horiz-adv-x="786" d="M24 1110q0 37 25 72q43 61 129 123q115 82 215 81q121 0 166 -196q0 -4 6 -4q8 0 108.5 83t141.5 79q80 -6 80 -88q0 -52 -35 -60q-43 -8 -51 -12q-14 -10 -86 -74q-106 -98 -199 -98q-63 0 -88 47q0 2 -22 92q-18 68 -39 70q-31 6 -99.5 -35t-101.5 -88q-41 -61 -88 -62 q-61 0 -62 70zM72 86q0 23 2 51q6 74 16 346q6 203 25 330q10 70 69 70q55 0 92 -41q14 -16 15 -60q0 -31 -12 -120q-10 -82 -9 -121q113 193 146 235q92 129 151 117q78 -16 107 -170q25 -121 22 -381q0 -246 4 -262q37 -72 37 -107q1 -36 -28 -59q-20 -16 -52 -16 q-45 0 -82.5 34.5t-37.5 81.5q0 18 6 35q2 6 -8 96q-14 135 -13 269q6 279 -6 262q-84 -106 -190 -412q-94 -276 -115 -284q-37 -16 -64 -17q-76 0 -75 123z" />
<glyph unicode="&#xf2;" horiz-adv-x="761" d="M31 317q0 86 35 166q156 352 348 367q86 8 172 -59q110 -84 133 -244q4 -35 4 -70q0 -203 -158 -352q-141 -133 -295 -133q-49 0 -86 20q-61 31 -106 113q-47 90 -47 192zM180 1393q0 29 23.5 49t58.5 20q68 0 200 -155q150 -178 218 -211q4 2 16 2q31 2 54.5 -34 t23.5 -75q0 -66 -62 -65q-16 0 -35 6q-53 14 -229 166.5t-248 240.5q-20 29 -20 56zM195 319q0 -55 20 -104q29 -61 76 -61q53 0 124.5 52t98.5 107q53 106 53 187q1 55 -22 104q-31 68 -80 80q-174 -45 -262 -299q-8 -29 -8 -66z" />
<glyph unicode="&#xf3;" horiz-adv-x="761" d="M31 317q0 86 35 166q156 352 348 367q86 8 172 -59q110 -84 133 -244q4 -35 4 -70q0 -203 -158 -352q-141 -133 -295 -133q-49 0 -86 20q-61 31 -106 113q-47 90 -47 192zM195 319q0 -55 20 -104q29 -61 76 -61q53 0 124.5 52t98.5 107q53 106 53 187q1 55 -22 104 q-31 68 -80 80q-174 -45 -262 -299q-8 -29 -8 -66zM340 987q8 55 129 256q129 207 207 281q29 27 60 26q29 0 48 -23.5t19 -58.5q1 -32 -22 -61q-76 -98 -154 -197q-96 -127 -121 -196q2 -4 4 -15q6 -37 -32.5 -66.5t-79.5 -29.5q-72 0 -58 84z" />
<glyph unicode="&#xf4;" horiz-adv-x="761" d="M31 317q0 86 35 166q156 352 348 367q86 8 172 -59q110 -84 133 -244q4 -35 4 -70q0 -203 -158 -352q-141 -133 -295 -133q-49 0 -86 20q-61 31 -106 113q-47 90 -47 192zM195 319q0 -55 20 -104q29 -61 76 -61q53 0 124.5 52t98.5 107q53 106 53 187q1 55 -22 104 q-31 68 -80 80q-174 -45 -262 -299q-8 -29 -8 -66zM213 1128q0 35 32 60q84 70 168 139q121 96 172 84q61 -16 66 -76q8 -98 59 -135q23 -18 23 -57q0 -72 -64 -72q-10 0 -22 2q-59 14 -125 146q-4 10 -76 -44.5t-80 -76.5q-20 -61 -78 -62q-35 0 -59 39q-16 29 -16 53z" />
<glyph unicode="&#xf5;" horiz-adv-x="761" d="M31 317q0 86 35 166q156 352 348 367q86 8 172 -59q110 -84 133 -244q4 -35 4 -70q0 -203 -158 -352q-141 -133 -295 -133q-49 0 -86 20q-61 31 -106 113q-47 90 -47 192zM39 1110q0 37 25 72q43 61 129 123q115 82 215 81q121 0 166 -196q0 -4 6 -4q8 0 108.5 83 t141.5 79q80 -6 80 -88q0 -52 -35 -60q-43 -8 -51 -12q-14 -10 -86 -74q-106 -98 -199 -98q-63 0 -88 47q0 2 -22 92q-18 68 -39 70q-31 6 -99.5 -35t-101.5 -88q-41 -61 -88 -62q-61 0 -62 70zM195 319q0 -55 20 -104q29 -61 76 -61q53 0 124.5 52t98.5 107q53 106 53 187 q1 55 -22 104q-31 68 -80 80q-174 -45 -262 -299q-8 -29 -8 -66z" />
<glyph unicode="&#xf6;" horiz-adv-x="761" d="M31 317q0 86 35 166q156 352 348 367q86 8 172 -59q110 -84 133 -244q4 -35 4 -70q0 -203 -158 -352q-141 -133 -295 -133q-49 0 -86 20q-61 31 -106 113q-47 90 -47 192zM195 319q0 -55 20 -104q29 -61 76 -61q53 0 124.5 52t98.5 107q53 106 53 187q1 55 -22 104 q-31 68 -80 80q-174 -45 -262 -299q-8 -29 -8 -66zM286 1178q0 121 29 200q25 63 68 64q18 0 41 -12q49 -27 49 -70q0 -20 -25 -88q-16 -47 -16 -127q-2 -102 -74 -103q-12 0 -25 3q-47 10 -47 133zM528 1108q0 47 29 127q20 57 41 115q18 66 71 65q39 0 61.5 -29.5 t18.5 -68.5q-4 -27 -20 -62q-25 -49 -33 -71q-14 -33 -19.5 -74t-25.5 -61q-31 -29 -60 -29q-18 0 -34 14q-29 27 -29 74z" />
<glyph unicode="&#xf7;" d="M211 430q-29 139 385 168q444 31 489 0q39 -29 39 -61q0 -57 -59 -74q-14 -4 -160.5 -8t-367.5 -37q-49 -10 -99 -21q-80 -16 -129 -16q-88 0 -98 49zM535 262q0 82 106 98q61 8 96 -27.5t35 -86.5q0 -111 -106 -111q-55 0 -93 40t-38 87zM551 780q0 39 25.5 71t64.5 40 q18 4 37 4q51 0 78.5 -34t27.5 -81q0 -45 -26.5 -78.5t-71.5 -33.5q-27 0 -59 14q-76 33 -76 98z" />
<glyph unicode="&#xf8;" horiz-adv-x="761" d="M-14 -184q0 45 125 266q-74 98 -74 231q0 82 31 160q63 158 177.5 260.5t225.5 102.5q66 0 119 -41q217 248 239 299q18 41 78 41q88 -1 78 -103q-2 -23 -42 -71t-66 -54q-98 -100 -201 -237q41 -102 41 -209q0 -209 -164 -352q-147 -131 -299 -115q-37 -88 -111 -219 q-23 -31 -69 -31q-88 0 -88 72zM213 260q100 170 268 397q-16 8 -35 11q-39 6 -100 -58q-80 -82 -133 -233q-18 -53 0 -117zM346 164q88 33 150 143q45 87 53 187q-94 -135 -203 -330z" />
<glyph unicode="&#xf9;" horiz-adv-x="724" d="M70 786q-2 98 76 99q39 0 69.5 -30t28.5 -75q-8 -209 14 -401q31 -244 95 -176q49 51 77 239q23 139 27 275q2 100 82 100q39 0 70.5 -30.5t31.5 -77.5q2 -100 -67 -357q-80 -301 -168 -332q-39 -14 -74 -14q-170 0 -229 332q-23 121 -33 448zM84 1393q0 29 23.5 49 t58.5 20q68 0 200 -155q150 -178 218 -211q4 2 16 2q31 2 54.5 -34t23.5 -75q0 -66 -62 -65q-16 0 -35 6q-53 14 -229 166.5t-248 240.5q-20 29 -20 56z" />
<glyph unicode="&#xfa;" horiz-adv-x="724" d="M64 786q-2 98 76 99q39 0 69.5 -30t28.5 -75q-8 -209 14 -401q31 -244 95 -176q49 51 77 239q23 139 27 275q2 100 82 100q39 0 70.5 -30.5t31.5 -77.5q2 -100 -67 -357q-80 -301 -168 -332q-39 -14 -74 -14q-170 0 -229 332q-23 121 -33 448zM290 946q8 55 129 256 q129 207 207 281q29 27 60 26q29 0 48 -23.5t19 -58.5q1 -32 -22 -61q-76 -98 -154 -197q-96 -127 -121 -196q2 -4 4 -15q6 -37 -32.5 -66.5t-79.5 -29.5q-72 0 -58 84z" />
<glyph unicode="&#xfb;" horiz-adv-x="724" d="M64 786q-2 98 76 99q39 0 69.5 -30t28.5 -75q-8 -209 14 -401q31 -244 95 -176q49 51 77 239q23 139 27 275q2 100 82 100q39 0 70.5 -30.5t31.5 -77.5q2 -100 -67 -357q-80 -301 -168 -332q-39 -14 -74 -14q-170 0 -229 332q-23 121 -33 448zM131 1128q0 35 32 60 q84 70 168 139q121 96 172 84q61 -16 66 -76q8 -98 59 -135q23 -18 23 -57q0 -72 -64 -72q-10 0 -22 2q-59 14 -125 146q-4 10 -76 -44.5t-80 -76.5q-20 -61 -78 -62q-35 0 -59 39q-16 29 -16 53z" />
<glyph unicode="&#xfc;" horiz-adv-x="724" d="M64 786q-2 98 76 99q39 0 69.5 -30t28.5 -75q-8 -209 14 -401q31 -244 95 -176q49 51 77 239q23 139 27 275q2 100 82 100q39 0 70.5 -30.5t31.5 -77.5q2 -100 -67 -357q-80 -301 -168 -332q-39 -14 -74 -14q-170 0 -229 332q-23 121 -33 448zM207 1137q0 121 29 200 q25 63 68 64q18 0 41 -12q49 -27 49 -70q0 -20 -25 -88q-16 -47 -16 -127q-2 -102 -74 -103q-12 0 -25 3q-47 10 -47 133zM449 1067q0 47 29 127q20 57 41 115q18 66 71 65q39 0 61.5 -29.5t18.5 -68.5q-4 -27 -20 -62q-25 -49 -33 -71q-14 -33 -19.5 -74t-25.5 -61 q-31 -29 -60 -29q-18 0 -34 14q-29 27 -29 74z" />
<glyph unicode="&#xfd;" horiz-adv-x="804" d="M74 246q0 51 49 444q14 104 20 127q23 82 78 82q33 0 67 -26.5t36 -57.5t-43 -233.5t-45 -245.5q0 -14 4 -19q8 -8 131 144q168 209 184 227q20 33 39 64q27 41 63 41q16 0 35 -7q31 -12 49.5 -74.5t18.5 -133.5q0 -29 -2 -54q-27 -283 -90 -893q-2 -4 -29 -209 q-29 -195 -29 -196q31 -49 31 -92t-30.5 -67.5t-71.5 -24.5q-43 0 -73 24.5t-30 71.5q0 66 39 94q6 113 51 606q23 217 31 312q10 147 16 313q-207 -233 -211 -238q-139 -145 -200 -143q-88 0 -88 164zM372 1089q8 55 129 256q129 207 207 281q29 27 60 26q29 0 48 -23.5 t19 -58.5q1 -32 -22 -61q-76 -98 -154 -197q-96 -127 -121 -196q2 -4 4 -15q6 -37 -32.5 -66.5t-79.5 -29.5q-72 0 -58 84z" />
<glyph unicode="&#xfe;" horiz-adv-x="737" d="M70 -426q0 96 4 217q6 264 33.5 475t56.5 426q-49 29 -49 72q0 57 67 92q12 168 37 444q23 199 92 222q33 12 58 12q66 0 65 -88q0 -39 -12 -94q-16 -72 -62 -473q129 -27 230 -119q115 -108 131 -262q8 -86 -88 -217q-72 -102 -187 -205q-100 -88 -127 -92 q-33 -10 -65 8q-27 -326 -27 -565q0 -154 12.5 -178.5t12.5 -51.5q0 -88 -76 -88q-45 0 -74.5 34t-29.5 81q0 29 12 51l-6 53q-8 88 -8 246zM272 162q232 135 275 323q12 53 -49 129q-68 80 -156 99q-23 -182 -70 -551z" />
<glyph unicode="&#xff;" horiz-adv-x="804" d="M74 246q0 51 49 444q14 104 20 127q23 82 78 82q33 0 67 -26.5t36 -57.5t-43 -233.5t-45 -245.5q0 -14 4 -19q8 -8 131 144q168 209 184 227q20 33 39 64q27 41 63 41q16 0 35 -7q31 -12 49.5 -74.5t18.5 -133.5q0 -29 -2 -54q-27 -283 -90 -893q-2 -4 -29 -209 q-29 -195 -29 -196q31 -49 31 -92t-30.5 -67.5t-71.5 -24.5q-43 0 -73 24.5t-30 71.5q0 66 39 94q6 113 51 606q23 217 31 312q10 147 16 313q-207 -233 -211 -238q-139 -145 -200 -143q-88 0 -88 164zM317 1239q0 121 29 200q25 63 68 64q18 0 41 -12q49 -27 49 -70 q0 -20 -25 -88q-16 -47 -16 -127q-2 -102 -74 -103q-12 0 -25 3q-47 10 -47 133zM559 1169q0 47 29 127q20 57 41 115q18 66 71 65q39 0 61.5 -29.5t18.5 -68.5q-4 -27 -20 -62q-25 -49 -33 -71q-14 -33 -19.5 -74t-25.5 -61q-31 -29 -60 -29q-18 0 -34 14q-29 27 -29 74z " />
<glyph unicode="&#x152;" horiz-adv-x="1953" d="M27 350q0 193 116 424q109 217 272 371.5t296 157.5q63 2 112 -13q221 90 389 142q201 61 258 61q102 0 103 -68q0 -39 -38 -74.5t-87 -35.5q-29 0 -55 14q-207 -57 -357 -119q270 -74 365 -229q356 131 487 131q27 0 37 -6q45 -27 45 -70q0 -53 -57 -75q-20 -8 -107 -15 q-94 -6 -354 -106q4 -27 4 -52q0 -162 -166 -352q616 227 705 221q33 -2 65.5 -31.5t32.5 -56.5q0 -33 -47 -41q-262 -51 -850 -317q-12 -6 -182 -92q-86 -43 -123 -43q-23 0 -39 12q-238 -129 -430 -129q-100 0 -180 35q-215 98 -215 356zM205 365q0 -154 86 -199 q59 -31 141 -31q248 0 545 223.5t301 411.5q-147 -63 -297 -129q-236 -98 -276 -92q-80 12 -80 90q0 59 57 80q10 4 55 16q104 29 248 86q123 47 246 97q-147 172 -481 157q-33 -20 -64 -41q-39 -23 -65 -22q-37 0 -72 35q-156 -135 -254 -338q-90 -186 -90 -344z" />
<glyph unicode="&#x153;" horiz-adv-x="1505" d="M31 313q0 82 30 160q63 158 178 260.5t226 102.5q137 0 203 -162q86 86 206.5 134t237.5 48t201 -47q16 -10 16 -33q0 -55 -93 -149.5t-192 -134.5q-111 -45 -331 -80q-12 -84 39 -172q57 -96 141 -93q90 2 264 119q145 94 178 135q47 84 90 84q20 0 45 -16 q41 -29 41 -72q0 -59 -57 -98q-4 -2 -90 -70q-315 -240 -498 -239q-158 0 -262 176q-143 -174 -330 -174q-49 0 -88 18q-63 31 -109 115t-46 188zM199 319q0 -55 24 -104q31 -57 82 -57q45 0 103 49q50 43 81 100q53 100 54 211q0 133 -103 150q-39 6 -100 -58 q-80 -82 -133 -233q-8 -27 -8 -58zM778 561q61 10 187 49q94 44 143 95q-80 4 -184 -43q-74 -33 -146 -101z" />
<glyph unicode="&#x178;" horiz-adv-x="1087" d="M49 1257q2 76 80 76q49 0 102.5 -30.5t80 -76.5t137.5 -327q381 295 526 494q47 61 94 61q33 0 63.5 -28.5t30.5 -59.5t-30 -55q-6 -6 -50 -33q-45 -90 -518 -506q4 -47 4 -115q0 -55 -4 -179t-4 -185q0 -170 31 -248q18 -49 18 -76q0 -43 -41 -69q-25 -16 -53 -17 q-47 0 -80 40t-24 95q4 16 -7.5 106.5t-29.5 520.5q-39 25 -49 43q-2 6 -19 62q-100 373 -192 426q-43 27 -47 28q-18 18 -19 53zM391 1567q0 121 29 200q25 63 68 64q18 0 41 -12q49 -27 49 -70q0 -20 -25 -88q-16 -47 -16 -127q-2 -102 -74 -103q-12 0 -25 3 q-47 10 -47 133zM633 1497q0 47 29 127q20 57 41 115q18 66 71 65q39 0 61.5 -29.5t18.5 -68.5q-4 -27 -20 -62q-25 -49 -33 -71q-14 -33 -19.5 -74t-25.5 -61q-31 -29 -60 -29q-18 0 -34 14q-29 27 -29 74z" />
<glyph unicode="&#x2c6;" horiz-adv-x="737" d="M111 1128q0 35 32 60q84 70 168 139q121 96 172 84q61 -16 66 -76q8 -98 59 -135q23 -18 23 -57q0 -72 -64 -72q-10 0 -22 2q-59 14 -125 146q-4 10 -76 -44.5t-80 -76.5q-20 -61 -78 -62q-35 0 -59 39q-16 29 -16 53z" />
<glyph unicode="&#x2dc;" horiz-adv-x="989" d="M59 1110q0 37 25 72q43 61 129 123q115 82 215 81q121 0 166 -196q0 -4 6 -4q8 0 108.5 83t141.5 79q80 -6 80 -88q0 -52 -35 -60q-43 -8 -51 -12q-14 -10 -86 -74q-106 -98 -199 -98q-63 0 -88 47q0 2 -22 92q-18 68 -39 70q-31 6 -99.5 -35t-101.5 -88q-41 -61 -88 -62 q-61 0 -62 70z" />
<glyph unicode="&#x2000;" horiz-adv-x="1082" />
<glyph unicode="&#x2001;" horiz-adv-x="2164" />
<glyph unicode="&#x2002;" horiz-adv-x="1082" />
<glyph unicode="&#x2003;" horiz-adv-x="2164" />
<glyph unicode="&#x2004;" horiz-adv-x="721" />
<glyph unicode="&#x2005;" horiz-adv-x="541" />
<glyph unicode="&#x2006;" horiz-adv-x="360" />
<glyph unicode="&#x2007;" horiz-adv-x="360" />
<glyph unicode="&#x2008;" horiz-adv-x="270" />
<glyph unicode="&#x2009;" horiz-adv-x="432" />
<glyph unicode="&#x200a;" horiz-adv-x="120" />
<glyph unicode="&#x2010;" horiz-adv-x="1026" d="M66 475q-8 82 92 92q584 57 676 58q74 -1 90 -11q37 -23 37 -57q0 -27 -19.5 -51.5t-36.5 -28.5q-37 -10 -96 0q-27 4 -150 -4q-145 -10 -280 -33q-68 -14 -191 -30q-53 -6 -86.5 14t-35.5 51z" />
<glyph unicode="&#x2011;" horiz-adv-x="1026" d="M66 475q-8 82 92 92q584 57 676 58q74 -1 90 -11q37 -23 37 -57q0 -27 -19.5 -51.5t-36.5 -28.5q-37 -10 -96 0q-27 4 -150 -4q-145 -10 -280 -33q-68 -14 -191 -30q-53 -6 -86.5 14t-35.5 51z" />
<glyph unicode="&#x2012;" horiz-adv-x="1026" d="M66 475q-8 82 92 92q584 57 676 58q74 -1 90 -11q37 -23 37 -57q0 -27 -19.5 -51.5t-36.5 -28.5q-37 -10 -96 0q-27 4 -150 -4q-145 -10 -280 -33q-68 -14 -191 -30q-53 -6 -86.5 14t-35.5 51z" />
<glyph unicode="&#x2013;" horiz-adv-x="1413" d="M39 571q0 45 57 56q240 45 535 43q102 0 295 -4q180 -2 258 -2q94 0 147 -35q45 -29 45 -70q0 -31 -27.5 -52.5t-74.5 -17.5q-29 2 -90 19q-18 4 -189 10q-182 6 -266 2q-123 -6 -395 -39q-184 -20 -215 -8q-80 29 -80 98z" />
<glyph unicode="&#x2014;" horiz-adv-x="1830" d="M57 582q0 68 64 80q254 53 688 43q184 -4 780 -41q133 -8 170 -23q49 -21 53 -80q4 -66 -79 -65q-45 0 -97 26q-10 6 -909 13q-207 2 -400.5 -24t-170.5 -26q-45 0 -72 30t-27 67z" />
<glyph unicode="&#x2018;" horiz-adv-x="497" d="M92 1214q-4 68 45 181q45 102 67.5 116.5t49.5 14.5q37 0 66.5 -22.5t29.5 -53.5q0 -17 -12 -33q-86 -123 -86 -227q0 -90 65 -162q20 -23 21 -37q0 -27 -47 -26q-63 0 -119 55q-70 70 -80 194z" />
<glyph unicode="&#x2019;" horiz-adv-x="516" d="M111 1001q0 20 92 80t88 105q-4 53 -85 133t-81 111q0 25 29 45q39 31 77 30q45 0 78 -37q137 -152 137 -262q1 -79 -81 -151q-35 -33 -99.5 -59.5t-105.5 -26.5q-49 0 -49 32z" />
<glyph unicode="&#x201a;" horiz-adv-x="479" d="M61 -213q0 35 58 31l80 -6q61 0 61 41q0 25 -20 67q-6 16 -58 68q-45 45 -45 73q0 23 25 41q35 31 69 31q41 0 70 -35q113 -150 113 -250q0 -68 -47 -106q-39 -31 -93 -37q-53 -6 -124.5 13.5t-83.5 48.5q-4 12 -5 20z" />
<glyph unicode="&#x201c;" horiz-adv-x="737" d="M59 1051q8 100 74 286q57 168 80 196t55 28q35 0 61.5 -27t26.5 -64q0 -16 -6 -30q-121 -311 -121 -416q0 -51 17 -82q8 -14 47 -52t41 -52q12 -61 -72 -70q-53 -4 -127 78q-84 94 -76 205zM354 1190q0 119 48.5 228.5t127.5 154.5q10 6 21 6q29 0 51.5 -29.5t22.5 -64.5 q0 -25 -15 -41q-96 -119 -96 -281q0 -43 16.5 -79.5t30.5 -34.5q27 6 57 -11q39 -20 33 -59q-8 -63 -92 -64q-25 0 -51 9q-154 43 -154 266z" />
<glyph unicode="&#x201d;" horiz-adv-x="669" d="M74 1419q0 37 27.5 64.5t62.5 27.5q31 0 55.5 -20.5t71.5 -147.5q51 -141 45 -225q-12 -184 -103 -268q-51 -49 -104 -49q-16 0 -29.5 7t-13.5 21q0 18 18 50q14 20 27 39q39 74 39 165q0 141 -82 281q-14 27 -14 55zM295 1470q-4 25 37 61t76 36q18 0 30 -13 q61 -72 109 -194q49 -131 49 -240q0 -78 -29 -129q-23 -41 -59 -41q-10 0 -21 4q-16 10 -26 99q-14 102 -31 155q-27 90 -94 199q-18 18 -41 63z" />
<glyph unicode="&#x201e;" horiz-adv-x="823" d="M49 -215q0 33 64 29q84 -4 86 -4q63 0 63 40q0 25 -18 68q-8 16 -64 70q-47 45 -47 73q0 23 25 43q37 31 75 31q45 0 74 -37q123 -150 123 -252q0 -68 -51 -108q-41 -31 -98 -39q-57 -6 -135 14.5t-91 48.5q-6 12 -6 23zM412 -297q0 27 49 41q86 29 96 35q47 25 47 63 q0 18 -8 39q-27 68 -100 135q-37 35 -37 64q0 23 26 43q37 31 74 31q45 0 76 -35q125 -145 125 -258q0 -105 -98 -158q-76 -41 -175 -41q-76 0 -75 41z" />
<glyph unicode="&#x2022;" horiz-adv-x="792" d="M92 524q0 86 77 150.5t198 56.5q154 -8 221 -39q114 -49 114 -180q0 -88 -88 -150q-80 -57 -178 -57q-170 0 -262 68q-82 61 -82 151z" />
<glyph unicode="&#x2026;" horiz-adv-x="1572" d="M156 37q-6 49 28.5 79.5t75.5 30.5q105 0 105 -106q0 -94 -103 -94q-45 0 -78 35q-25 27 -28 55zM670 41q0 41 30 70q23 23 52 26q43 6 69.5 -24.5t26.5 -69.5q0 -96 -92 -96q-86 0 -86 94zM1153 51q0 37 18 62q27 35 68 34q43 0 79 -33.5t36 -76.5q0 -37 -30 -66.5 t-67 -29.5q-41 0 -72.5 33.5t-31.5 76.5z" />
<glyph unicode="&#x202f;" horiz-adv-x="432" />
<glyph unicode="&#x2039;" horiz-adv-x="657" d="M47 651q0 14 8 31q14 25 193 88q111 39 223 78q20 8 37 8q63 0 63 -72q0 -57 -41 -67q-31 -6 -239 -80q76 -35 151 -70q101 -45 142 -78q23 -18 22 -55q0 -27 -15.5 -51.5t-41.5 -24.5q-29 0 -80 31q-35 23 -70 45q-45 27 -135 64q-96 39 -137 59q-80 45 -80 94z" />
<glyph unicode="&#x203a;" horiz-adv-x="657" d="M55 436q0 37 23 56q41 33 141 77l152 70q-72 29 -240 80q-43 10 -43 67q0 72 64 72q18 0 38 -8l222 -78q180 -63 192 -88q8 -16 8 -31q0 -49 -80 -94q-92 -35 -272 -123q-35 -23 -70 -45q-51 -31 -77 -31q-27 0 -42.5 25t-15.5 51z" />
<glyph unicode="&#x205f;" horiz-adv-x="541" />
<glyph unicode="&#x2122;" horiz-adv-x="1394" d="M57 1237q0 59 84 66q76 4 228 20q23 139 94 139q31 0 54.5 -31.5t19.5 -74.5q227 39 344 41q37 0 110 10q12 6 25 6q35 0 61.5 -26.5t26.5 -53.5t-22.5 -47t-57.5 -20q-20 0 -45 10q-39 16 -170 2q59 -8 82 -64q10 -37 20 -71q14 -43 31 -39q49 55 123 137 q18 23 36.5 45.5t59.5 16.5q68 -10 80 -78q41 -260 70 -342q8 -25 8 -47q0 -72 -78 -72q-37 0 -65.5 21.5t-28.5 54.5q0 14 -21 100q-25 104 -26 117q-6 -4 -45 -64.5t-49 -81.5q-35 -63 -84 -63q-68 0 -113 100q-8 -45 -8 -59q-2 -37 -2 -74q-6 -39 -49 -47q-20 -4 -35 -4 q-72 0 -82 84q-4 18 -4 61q0 295 49 351q-72 -12 -162 -31q-25 -152 -24 -307q0 -14 3 -44t3 -44q0 -86 -76 -86q-33 0 -59.5 25.5t-26.5 70.5q0 16 4 35q8 31 8 231q0 27 4 84q-131 -27 -207 -29q-39 0 -63.5 21.5t-24.5 50.5z" />
<glyph unicode="&#x25fc;" horiz-adv-x="911" d="M0 0v911h911v-911h-911z" />
</font>
</defs>
</svg>
